<svg width="1024" height="1024" viewBox="0 0 1024 1024" fill="none" xmlns="http://www.w3.org/2000/svg">
<path d="M147.422 619.465C142.974 613.442 139.665 605.664 136.139 598.992C106.677 543.234 89.6316 471.377 85.6644 408.626C80.4313 325.852 95.2169 245.454 143.174 176.395C150.05 166.493 157.147 156.572 165.143 147.531C172.627 139.069 180.822 131.467 189.328 124.048C222.17 95.4056 258.218 77.7407 302.181 75.2228C353.407 72.2889 404.073 93.0894 444.671 123.222C457.668 132.87 469.218 143.607 481.235 154.385C485.853 157.944 530.145 203.899 532.575 208.006C500.616 205.803 468.639 203.848 436.649 202.141C428.336 201.676 420.027 201.152 411.721 200.568C405.797 200.166 399.55 199.344 393.637 199.872C387.453 200.424 377.89 207.08 371.553 209.818C367.584 211.533 363.378 212.821 359.3 214.264C339.631 221.243 319.789 227.723 299.792 233.697C290.761 236.359 281.254 237.976 272.42 241.198C265.37 243.77 256.792 247.069 251.047 251.995C246.487 255.905 241.737 261.57 241.35 267.791C241.237 269.597 241.357 271.393 242.532 272.852C244.994 275.91 251.863 276.135 255.567 276.608C255.265 281.125 254.038 288.109 257.282 291.822C260.889 295.952 270.941 295.447 276.064 295.697C279.322 312.272 282.572 328.608 284.659 345.386C288.748 378.263 289.847 414.331 290.498 447.485C281.773 450.995 271.068 460.781 263.588 466.816C212.713 507.865 174.531 560.231 147.422 619.465Z" fill="#FFCFD2"/>
<path d="M481.235 154.385C492.084 146.184 503.749 140.066 515.895 134.037C578.991 103.487 649.644 92.0569 719.154 101.154C789.622 110.956 871.625 145.413 915.377 203.677C945.27 242.789 958.209 292.266 951.29 341.006C944.466 388.308 917.539 428.104 888.667 464.793C876.675 480.032 863.758 494.948 855.794 512.808C851.125 523.278 850.46 530.716 848.027 541.451C833.656 518.691 824.466 493.66 812.546 469.679C804.546 453.583 795.213 439.135 784.179 424.972C780.438 420.17 776.419 414.124 771.368 410.722C771.49 398.808 772.533 386.706 773.512 374.836C775.377 352.229 777.9 329.326 782.031 307.018C783.913 296.85 787.477 286.391 789.121 276.792L789.192 276.355C794.498 273.305 800.412 270.85 805.396 267.301C809.493 264.384 812.068 260.843 812.796 255.784C813.649 249.859 812.305 244.029 808.498 239.363C804.066 233.931 798.37 231.531 791.82 229.649C782.358 226.932 772.134 225.792 762.389 224.519C743.622 222.032 724.77 220.225 705.872 219.099C666.884 216.309 627.881 213.739 588.864 211.389C570.212 210.22 551.122 210.085 532.575 208.006C530.145 203.899 485.853 157.944 481.235 154.385Z" fill="#90DBF4"/>
<path d="M255.567 276.608C251.863 276.135 244.994 275.91 242.532 272.852C241.357 271.393 241.237 269.597 241.35 267.791C241.737 261.57 246.487 255.905 251.047 251.995C256.792 247.069 265.37 243.77 272.42 241.198C281.254 237.976 290.761 236.359 299.792 233.697C319.789 227.723 339.631 221.243 359.3 214.264C363.378 212.821 367.584 211.533 371.553 209.818C377.89 207.08 387.453 200.424 393.637 199.872C399.55 199.344 405.797 200.166 411.721 200.568C420.027 201.152 428.336 201.676 436.649 202.141C468.639 203.848 500.616 205.803 532.575 208.006C551.122 210.085 570.212 210.22 588.864 211.389C627.881 213.739 666.884 216.309 705.872 219.099C724.77 220.225 743.622 222.032 762.389 224.519C772.134 225.792 782.358 226.932 791.82 229.649C798.37 231.531 804.066 233.931 808.498 239.363C812.305 244.029 813.649 249.859 812.796 255.784C812.068 260.843 809.493 264.384 805.396 267.301C800.412 270.85 794.498 273.305 789.192 276.355L789.121 276.792C787.477 286.391 783.913 296.85 782.031 307.018C777.9 329.326 775.377 352.229 773.512 374.836C772.533 386.706 771.49 398.808 771.368 410.722C766.729 478.756 769.025 554.056 782.613 620.992C784.611 630.835 786.198 641.16 789.531 650.644L790.049 651.054C795.864 655.74 798.341 662.711 799.052 669.959L799.097 670.469C797.322 673.74 787.188 686.478 787.295 688.689C787.296 688.716 787.319 688.738 787.331 688.762L786.269 689.974C786.331 690.169 786.399 690.362 786.457 690.559C786.65 691.221 786.691 691.664 786.675 692.34L786.526 692.577L785.405 691.657C783.644 692.396 781.351 696.25 780.097 697.855C772.377 707.733 763.301 716.339 755.027 725.733C757.031 731.212 760.676 738.468 760.954 744.287L760.91 744.851C760.675 748.216 761.575 751.907 760.796 755.134L760.49 755.24L759.329 753.819C758.044 744.825 756.358 736.421 752.421 728.172C745.022 735.736 737.918 743.604 730.21 750.857L699.499 779.676C695.415 783.577 691.053 787.355 687.202 791.477C689.992 798.441 691.213 806.24 692.34 813.638C693.376 823.683 693.901 833.411 692.725 843.488C691.288 855.811 687.338 867.274 684.76 879.322C683.001 887.545 682.735 896.295 680.253 904.323C679.356 907.224 678.33 910.217 675.779 912.083C673.881 913.47 671.482 914.15 669.145 913.78C665.606 913.219 662.18 910.284 660.291 907.352C655.627 900.109 654.284 889.514 652.155 881.238C643.805 848.796 636.797 830.397 643.386 796.144C632.798 793.817 621.384 792.972 610.61 791.724C590.562 789.563 570.529 787.271 550.511 784.847C530.983 782.286 511.509 779.086 492.024 776.205C461.469 771.978 430.953 767.468 400.481 762.676L350.515 755.104C338.118 753.254 325.599 751.625 313.32 749.089C315.466 753.061 317.308 756.708 317.838 761.264C319.585 776.257 311.279 795.462 307.844 810.148C305.287 821.079 303.855 843.424 296.912 851.821C294.197 855.104 290.252 857.346 285.955 857.571C282.919 857.73 280.008 856.761 277.812 854.629C275.314 852.205 273.906 848.717 273.067 845.4C270.872 836.722 271.375 827.298 270.049 818.419C267.987 804.609 263.053 791.035 262.927 777.009C262.812 764.206 265.672 752.329 274.766 742.969C273.205 742.655 271.676 742.282 270.216 741.628C267.658 740.481 265.551 738.303 264.619 735.645C263.661 732.824 263.925 729.731 265.346 727.113C267.703 722.851 271.559 721.874 275.923 720.767C280.312 708.855 282.513 696.265 284.575 683.782C292.115 638.13 292.504 591.341 292.483 545.162C292.683 512.592 292.021 480.021 290.498 447.485C289.847 414.331 288.748 378.263 284.659 345.386C282.572 328.608 279.322 312.272 276.064 295.697C270.941 295.447 260.889 295.952 257.282 291.822C254.038 288.109 255.265 281.125 255.567 276.608ZM450.259 205.935C431.286 204.651 411.906 202.744 392.904 202.684C380.935 209.578 368.224 214.199 355.267 218.836C336.37 225.6 317.332 231.456 298.084 237.119C293.327 238.519 270.571 243.746 268.298 245.862C275.925 247.4 284.26 247.489 292.032 248.077L334.479 251.28C393.763 255.712 453.097 259.441 512.469 262.467C524.248 262.51 536.099 263.307 547.864 263.885L615.039 267.603C640.388 269.032 666.405 268.719 691.454 273.035C703.467 269.359 715.035 263.783 726.68 259.088C747.826 250.561 768.821 242.651 789.136 232.21C779.39 229.798 769.07 228.773 759.124 227.41C724.469 222.663 689.593 220.922 654.716 218.607L450.259 205.935ZM513.96 265.522C497.362 265.164 480.714 263.715 464.129 262.847C420.695 260.529 377.286 257.747 333.911 254.502L287.344 250.778C279.318 250.083 270.4 248.478 262.392 249.005C258.489 249.262 254.841 252.099 252.093 254.711C249.076 257.578 244.054 263.215 244.299 267.545C244.366 268.742 244.55 269.575 245.527 270.36C247.737 272.135 253.818 272.539 256.626 272.904C267.623 274.337 278.853 274.95 289.907 275.914C313.382 278.072 336.877 280.007 360.39 281.718C415.158 286.166 469.839 291.103 524.677 294.729C558.06 297.699 591.61 298.742 625.043 300.956C651.163 302.687 677.898 306.153 704.058 305.462C704.764 302.983 705.302 300.576 705.495 298C705.885 292.781 704.542 287.749 700.995 283.817C696.84 279.21 690.983 277.157 685.07 275.922C676.886 274.214 668.243 274.005 659.91 273.578L629.097 271.966C590.736 269.516 552.356 267.367 513.96 265.522ZM481.637 311.239L374.501 304.192C342.689 301.682 310.898 298.922 279.129 295.913C280.353 303.373 282.257 310.698 283.682 318.12C285.584 328.539 287.086 339.026 288.187 349.559C291.251 379.603 291.978 409.813 293.201 439.968C294.851 480.635 295.726 521.026 295.517 561.727C295.293 605.278 294.75 649.56 286.368 692.444C284.391 702.559 282.285 712.691 278.241 722.213C313.99 728.95 350.263 733.405 386.22 738.915C410.997 742.711 435.671 747.873 460.538 750.981C488.098 754.427 515.828 755.673 543.321 759.827C549.118 760.702 556.22 761.075 561.723 762.96C574.026 765.523 587.061 765.708 599.562 766.963C625.785 769.597 651.92 773.382 678.33 772.448C673.621 755.064 672.193 736.111 670.3 718.235C664.748 661.69 662.651 604.86 664.021 548.06C664.504 519.519 665.077 490.971 667.795 462.538C670.055 440.383 672.828 418.283 676.112 396.257C677.722 385.122 679.641 374.035 680.957 362.858C682.457 350.12 683.271 337.334 684.068 324.538C676.707 323.464 668.915 323.501 661.473 323.123C646.888 322.431 632.307 321.657 617.73 320.802L481.637 311.239ZM560.507 766.246C547.615 763.853 534.65 761.875 521.631 760.315C496.781 757.533 471.851 756.127 447.089 752.432L328.16 733.555C314.367 731.226 300.555 729.012 286.725 726.914C282.191 726.224 277.642 725.215 273.093 724.693C270.629 725.846 268.764 726.736 267.824 729.437C267.153 731.367 267.206 733.444 268.173 735.262C269.873 738.46 273.063 739.415 276.331 740.256C287.126 743.035 298.251 743.869 309.249 745.486L358.822 753.015L551.47 781.784C576.17 784.345 600.854 787.071 625.518 789.961C638.013 791.473 650.563 793.754 663.125 794.522C667.983 794.819 677.967 795.899 682.227 793.24C683.887 788.809 680.395 779.791 679.095 775.191C655.959 778.21 631.68 773.84 608.638 771.53C592.64 769.926 576.368 768.912 560.507 766.246ZM792.938 233C780.658 242.134 749.874 253.163 734.391 259.533C721.366 264.892 708.251 271.21 694.721 275.121C700.832 278.284 706.056 282.443 708.161 289.307C709.007 292.065 708.593 299.231 709.425 300.652C710.502 300.409 710.108 300.593 710.676 300.28C722.327 293.469 733.996 286.602 745.955 280.343C766.879 269.393 788.355 259.233 808.94 247.656C806.356 240.969 802.355 236.995 795.798 234.145C794.855 233.739 793.901 233.358 792.938 233ZM808.136 251.893C774.564 270.234 739.351 285.714 707.148 306.504C705.586 310.571 703.967 314.621 702.678 318.785L703.013 319.438L703.295 319.52C720.116 311.413 735.828 301.131 752.283 292.329L785.913 274.224C791.486 271.253 797.824 268.687 802.97 265.072C805.4 263.366 807.584 260.987 808.494 258.109C809.031 256.409 809.086 254.476 809.22 252.705L808.74 251.995L808.136 251.893ZM258.569 276.771C258.518 279.985 257.778 285.939 259.867 288.684C260.875 290.01 262.345 290.04 263.871 290.292C271.06 291.481 278.522 291.905 285.777 292.588L325.488 296.246C379.653 301.087 433.888 305.094 488.176 308.267C537.949 312.156 587.767 315.441 637.62 318.12L675.758 320.162C682.188 320.507 688.857 321.234 695.281 321.19C696.064 321.185 696.658 320.954 697.347 320.614C698.082 319.728 698.538 318.976 698.996 317.92C700.219 314.97 701.532 312.026 702.629 309.029C682.414 309.584 661.85 307.112 641.676 305.67L570.701 301.308L258.569 276.771ZM785.005 278.572C766.51 287.792 748.403 298.379 730.392 308.524C721.417 313.579 709.397 321.657 699.788 324.419C695.901 325.536 691.27 324.99 687.265 324.786C686.668 336.05 686.149 347.316 685.016 358.542C683.378 374.79 680.786 391.006 678.59 407.19C675.438 429.492 672.857 451.871 670.848 474.305C668.879 496.086 668.317 518.031 667.851 539.887C666.693 594.049 668.402 648.236 672.969 702.218C674.713 723.697 675.943 748.96 681.355 769.663C682.609 768.445 683.815 767.393 685.254 766.398C714.323 744.919 777.035 689.168 786.664 654.993C780.142 627.04 774.626 599.102 771.212 570.578C763.669 507.567 765.485 443.3 769.737 380.133C771.608 352.346 774.761 324.261 780.502 296.996C781.057 294.359 785.685 280.062 785.005 278.572ZM790.245 656.437C786.682 666.136 781.774 674.757 775.707 683.114C758.241 707.174 735.408 728.073 713.151 747.63C703.291 756.294 693.329 765.479 681.871 772.015C682.466 774.682 684.555 786.675 686.183 787.944L686.63 787.669C719.568 756.089 753.31 725.268 781.389 689.149C786.251 682.896 792.028 676.242 795.503 669.102C794.404 665.02 793.026 659.673 790.245 656.437ZM277.446 744.239C267.929 754.976 265.347 766.24 266.245 780.429C267.005 792.44 270.974 803.806 272.834 815.63C274.275 824.797 273.82 834.524 275.913 843.519C276.64 846.645 277.826 849.88 280.252 852.099C282.067 853.761 284.341 854.417 286.773 854.257C289.837 854.055 292.664 852.43 294.578 850.049C295.305 849.144 295.922 848.13 296.535 847.146C301.278 835.467 302.696 819.876 305.534 807.309C308.596 793.754 313.564 780.403 314.688 766.493C315.029 762.59 314.394 758.664 312.841 755.066C311.931 752.93 310.891 750.839 309.869 748.755C299.028 747.384 288.26 745.76 277.446 744.239ZM684.634 795.684C674.088 800.802 657.9 798.466 646.536 796.807C640.991 828.305 647.335 847.084 654.796 876.582C656.727 884.219 657.778 892.175 660.193 899.668C661.63 903.755 663.331 907.907 667.448 910.011C668.934 910.77 670.402 910.935 671.989 910.345C674.642 909.36 676.307 905.898 677.145 903.421C679.697 895.879 679.861 887.287 681.5 879.479C686.856 853.971 693.034 843.491 689.331 815.149C688.534 809.052 687.356 801.743 685.116 795.992L684.634 795.684Z" fill="url(#paint0_linear_407_121)"/>
<path d="M392.904 202.684C411.906 202.744 431.286 204.651 450.259 205.935C450.168 207.185 449.753 208.28 450.774 209.234C454.153 212.395 467.985 219.402 472.944 222.633C481.448 228.174 510.887 254.526 512.469 262.467C453.097 259.441 393.763 255.712 334.479 251.28L292.032 248.077C284.26 247.489 275.925 247.4 268.298 245.862C270.571 243.746 293.327 238.519 298.084 237.119C317.332 231.456 336.37 225.6 355.267 218.836C368.224 214.199 380.935 209.578 392.904 202.684Z" fill="#FFCFD2"/>
<path d="M450.259 205.935L654.716 218.607C689.593 220.922 724.469 222.663 759.124 227.41C769.07 228.773 779.39 229.798 789.136 232.21C768.821 242.651 747.826 250.561 726.68 259.088C715.035 263.783 703.467 269.359 691.454 273.035C666.405 268.719 640.388 269.032 615.039 267.603L547.864 263.885C536.099 263.307 524.248 262.51 512.469 262.467C510.887 254.526 481.448 228.174 472.944 222.633C467.985 219.402 454.153 212.395 450.774 209.234C449.753 208.28 450.168 207.185 450.259 205.935Z" fill="#90DBF4"/>
<path d="M694.721 275.121C708.251 271.21 721.366 264.892 734.391 259.533C749.874 253.163 780.658 242.134 792.938 233C793.901 233.358 794.855 233.739 795.798 234.145C802.355 236.995 806.356 240.969 808.94 247.656C788.355 259.233 766.879 269.393 745.955 280.343C733.996 286.602 722.327 293.469 710.676 300.28C710.108 300.593 710.502 300.409 709.425 300.652C708.593 299.231 709.007 292.065 708.161 289.307C706.056 282.443 700.832 278.284 694.721 275.121Z" fill="#8EECF5"/>
<path d="M524.677 294.729C469.839 291.103 415.158 286.166 360.39 281.718C336.877 280.007 313.382 278.072 289.907 275.914C278.853 274.95 267.623 274.337 256.626 272.904C253.818 272.539 247.737 272.135 245.527 270.36C244.55 269.575 244.366 268.742 244.299 267.545C244.054 263.215 249.076 257.578 252.093 254.711C254.841 252.099 258.489 249.262 262.392 249.005C270.4 248.478 279.318 250.083 287.344 250.778L333.911 254.502C377.286 257.747 420.695 260.529 464.129 262.847C480.714 263.715 497.362 265.164 513.96 265.522C516.951 272.619 526.002 287.47 524.677 294.729Z" fill="#FFCFD2"/>
<path d="M707.148 306.504C739.351 285.714 774.564 270.234 808.136 251.893L808.74 251.995L809.22 252.705C809.086 254.476 809.031 256.409 808.494 258.109C807.584 260.987 805.4 263.366 802.97 265.072C797.824 268.687 791.486 271.253 785.913 274.224L752.283 292.329C735.828 301.131 720.116 311.413 703.295 319.52L703.013 319.438L702.678 318.785C703.967 314.621 705.586 310.571 707.148 306.504Z" fill="#A3C4F3"/>
<path d="M513.96 265.522C552.356 267.367 590.736 269.516 629.097 271.966L659.91 273.578C668.243 274.005 676.886 274.214 685.07 275.922C690.983 277.157 696.84 279.21 700.995 283.817C704.542 287.749 705.885 292.781 705.495 298C705.302 300.576 704.764 302.983 704.058 305.462C677.898 306.153 651.163 302.687 625.043 300.956C591.61 298.742 558.06 297.699 524.677 294.729C526.002 287.47 516.951 272.619 513.96 265.522Z" fill="url(#paint1_linear_407_121)"/>
<path d="M698.996 317.92C698.538 318.976 698.082 319.728 697.347 320.614C696.658 320.954 696.064 321.185 695.281 321.19C688.857 321.234 682.188 320.507 675.758 320.162L637.62 318.12C587.767 315.441 537.949 312.156 488.176 308.267C433.888 305.094 379.653 301.087 325.488 296.246L285.777 292.588C278.522 291.905 271.06 291.481 263.871 290.292C262.345 290.04 260.875 290.01 259.867 288.684C257.778 285.939 258.518 279.985 258.569 276.771L570.701 301.308L641.676 305.67C661.85 307.112 682.414 309.584 702.629 309.029C701.532 312.026 700.219 314.97 698.996 317.92Z" fill="url(#paint2_linear_407_121)"/>
<path d="M687.265 324.786C691.27 324.99 695.901 325.536 699.788 324.419C709.397 321.657 721.417 313.579 730.392 308.524C748.403 298.379 766.51 287.792 785.005 278.572C785.685 280.062 781.057 294.359 780.502 296.996C774.761 324.261 771.608 352.346 769.737 380.133C765.485 443.3 763.669 507.567 771.212 570.578C774.626 599.102 780.142 627.04 786.664 654.993C777.035 689.168 714.323 744.919 685.254 766.398C683.815 767.393 682.609 768.445 681.355 769.663C675.943 748.96 674.713 723.697 672.969 702.218C668.402 648.236 666.693 594.049 667.851 539.887C668.317 518.031 668.879 496.086 670.848 474.305C672.857 451.871 675.438 429.492 678.59 407.19C680.786 391.006 683.378 374.79 685.016 358.542C686.149 347.316 686.668 336.05 687.265 324.786Z" fill="#8EECF5"/>
<path d="M481.637 311.239L480.272 311.805C484.362 312.435 488.443 312.287 492.55 312.611L530.104 315.446C533.462 315.69 539.11 315.261 542.067 316.485C542.933 318.228 541.989 322.961 541.805 325.073C539.612 326.868 536.475 330.129 533.936 331.136C530.292 332.582 483.753 325.776 480.078 327.653L479.66 327.669C470.543 327.917 460.953 326.585 451.808 326.004L371.98 321.06C360.946 320.342 349.906 319.727 338.86 319.214C332.084 318.863 325.142 318.246 318.36 318.378C316.983 318.405 313.982 318.344 313.043 319.449C311.8 320.91 311.534 323.084 311.335 324.927C310.464 333.006 310.696 341.557 310.53 349.693C310.204 365.183 310 380.676 309.918 396.17C309.875 407.344 308.854 425.904 310.356 436.243C310.624 438.082 311.116 439.274 312.718 440.337C314.837 441.742 317.624 441.91 320.083 442.191C332.744 443.636 345.533 444.351 358.231 445.446C384.754 447.925 411.297 450.199 437.856 452.268L496.136 457.56C504.002 458.232 512.046 459.291 519.924 459.547C520.43 462.863 521.762 466.64 521.823 469.901C495.705 467.271 469.572 464.79 443.426 462.457L384.21 458.116C372.458 457.168 321.419 451.97 312.321 454.157C311.231 456.187 311.419 459.296 311.441 461.571C311.591 476.917 313.065 492.281 313.506 507.623C313.779 516.415 313.931 525.21 313.961 534.006C313.953 542.697 312.568 562.865 315.032 570.349C315.678 572.312 317.651 574.046 319.498 574.879C321.589 575.822 324.158 575.511 326.388 575.441C335.559 575.155 345.808 577.349 354.927 578.545L417.452 587.156C462.315 592.813 507.249 597.903 552.241 602.424C552.561 606.463 553.698 610.29 554.756 614.182C535.519 612.781 516.322 610.313 497.125 608.408C462.884 605.308 428.679 601.826 394.516 597.964C371.261 595.375 347.76 591.998 324.438 590.404C321.636 590.213 318.031 589.952 315.371 590.881C314.315 593.032 314.075 595.158 314.01 597.526C313.588 612.881 314.957 628.675 315.423 644.046C315.743 654.602 315.222 696.383 318.138 703.859C318.841 705.66 320.361 706.397 322.088 707.076C331.64 710.834 345.673 712.124 355.997 713.797C399.309 720.812 442.639 724.862 486.282 729.141C513.844 731.844 541.237 735.641 568.68 739.299C567.727 747.54 564.707 755.281 561.723 762.96C556.22 761.075 549.118 760.702 543.321 759.827C515.828 755.673 488.098 754.427 460.538 750.981C435.671 747.873 410.997 742.711 386.22 738.915C350.263 733.405 313.99 728.95 278.241 722.213C282.285 712.691 284.391 702.559 286.368 692.444C294.75 649.56 295.293 605.278 295.517 561.727C295.726 521.026 294.851 480.635 293.201 439.968C291.978 409.813 291.251 379.603 288.187 349.559C287.086 339.026 285.584 328.539 283.682 318.12C282.257 310.698 280.353 303.373 279.129 295.913C310.898 298.922 342.689 301.682 374.501 304.192L481.637 311.239Z" fill="#FFCFD2"/>
<path d="M480.078 327.653C483.753 325.776 530.292 332.582 533.936 331.136C536.475 330.129 539.612 326.868 541.805 325.073C541.989 322.961 542.933 318.228 542.067 316.485C539.11 315.261 533.462 315.69 530.104 315.446L492.55 312.611C488.443 312.287 484.362 312.435 480.272 311.805L481.637 311.239L617.73 320.802C632.307 321.657 646.888 322.431 661.473 323.123C668.915 323.501 676.707 323.464 684.068 324.538C683.271 337.334 682.457 350.12 680.957 362.858C679.641 374.035 677.722 385.122 676.112 396.257C672.828 418.283 670.055 440.383 667.795 462.538C665.077 490.971 664.504 519.519 664.021 548.06C662.651 604.86 664.748 661.69 670.3 718.235C672.193 736.111 673.621 755.064 678.33 772.448C651.92 773.382 625.785 769.597 599.562 766.963C587.061 765.708 574.026 765.523 561.723 762.96C564.707 755.281 567.727 747.54 568.68 739.299C585.256 741.64 627.552 750.974 641.036 741.965C643.296 740.454 644.426 738.042 644.791 735.398C645.625 729.357 645.162 722.836 645.121 716.743L645.002 688.077L644.888 655.433C644.881 648.691 645.279 641.7 644.536 634.998C644.25 632.419 643.592 630.063 641.945 628.004C640.457 626.143 638.753 624.989 636.472 624.306C627.558 621.636 617.245 621.643 608.001 620.549C590.247 618.449 572.547 615.974 554.756 614.182C553.698 610.29 552.561 606.463 552.241 602.424C563.213 603.615 635.292 612.502 639.827 609.892C642.798 608.181 643.913 602.867 644.305 599.809C645.026 594.177 644.635 588.052 644.663 582.362L644.913 554.428L645.074 517.298C645.098 509.853 645.444 502.206 644.808 494.792C644.56 491.9 644.268 488.174 642.385 485.855C640.815 483.921 638.563 482.899 636.184 482.365C631.216 481.25 625.776 481.201 620.704 480.74C614.326 480.16 607.952 479.301 601.587 478.578C575.006 475.558 548.476 472.245 521.823 469.901C521.762 466.64 520.43 462.863 519.924 459.547C547.032 462.792 574.41 464.712 601.615 467.067C612.266 467.989 623.05 470.26 633.714 470.514C636.628 470.583 639.384 470.697 641.897 468.99C644.385 467.299 645.515 464.933 646.084 462.049C647.682 453.935 646.608 439.644 646.644 430.936C646.721 412.591 646.476 394.297 646.232 375.954C646.131 368.353 646.679 360.566 646.126 352.993C645.936 350.374 645.794 347.461 644.233 345.262C642.06 342.202 638.9 340.202 635.257 339.386C628.023 337.766 614.113 338.489 605.791 337.754L519.547 330.974C506.448 329.936 493.087 329.422 480.078 327.653Z" fill="#8EECF5"/>
<path d="M519.924 459.547C512.046 459.291 504.002 458.232 496.136 457.56L437.856 452.268C411.297 450.199 384.754 447.925 358.231 445.446C345.533 444.351 332.744 443.636 320.083 442.191C317.624 441.91 314.837 441.742 312.718 440.337C311.116 439.274 310.624 438.082 310.356 436.243C308.854 425.904 309.875 407.344 309.918 396.17C310 380.676 310.204 365.183 310.53 349.693C310.696 341.557 310.464 333.006 311.335 324.927C311.534 323.084 311.8 320.91 313.043 319.449C313.982 318.344 316.983 318.405 318.36 318.378C325.142 318.246 332.084 318.863 338.86 319.214C349.906 319.727 360.946 320.342 371.98 321.06L451.808 326.004C460.953 326.585 470.543 327.917 479.66 327.669L480.078 327.653C493.087 329.422 506.448 329.936 519.547 330.974L605.791 337.754C614.113 338.489 628.023 337.766 635.257 339.386C638.9 340.202 642.06 342.202 644.233 345.262C645.794 347.461 645.936 350.374 646.126 352.993C646.679 360.566 646.131 368.353 646.232 375.954C646.476 394.297 646.721 412.591 646.644 430.936C646.608 439.644 647.682 453.935 646.084 462.049C645.515 464.933 644.385 467.299 641.897 468.99C639.384 470.697 636.628 470.583 633.714 470.514C623.05 470.26 612.266 467.989 601.615 467.067C574.41 464.712 547.032 462.792 519.924 459.547ZM313.914 350.827C312.76 364.786 313.045 379.337 312.873 393.356C312.728 405.166 312.034 417.36 312.764 429.13C312.946 432.069 313.282 434.782 314.26 437.585C327.85 439.569 341.67 440.194 355.348 441.401C382.696 443.995 410.075 446.248 437.478 448.162L479.633 451.631C485.832 452.131 492.326 453.116 498.512 453.033C505.946 454.538 514.444 454.475 522.057 455.207C540.438 457.089 558.835 458.812 577.245 460.375C586.485 461.178 595.769 461.835 604.967 463.026C614.129 464.211 623.388 465.993 632.592 466.675C634.88 466.844 637.131 466.816 639.162 465.609C641.003 464.515 641.767 462.668 642.264 460.665C643.89 454.118 643.151 446.266 643.209 439.548C643.382 419.701 642.869 399.903 642.448 380.066C642.257 371.087 642.808 361.743 642.059 352.82C641.895 350.87 641.64 347.571 640.402 346.04C639.06 344.381 636.136 343.093 634.081 342.739C625.882 341.325 615.535 342.066 606.994 341.528C585.951 340.202 564.916 338.494 543.889 336.913C467.522 331.173 391.037 324.57 314.487 321.973C314.345 331.59 313.749 341.206 313.914 350.827Z" fill="#455E5D"/>
<path d="M313.914 350.827C313.749 341.206 314.345 331.59 314.487 321.973C391.037 324.57 467.522 331.173 543.889 336.913C564.916 338.494 585.951 340.202 606.994 341.528C615.535 342.066 625.882 341.325 634.081 342.739C636.136 343.093 639.06 344.381 640.402 346.04C641.64 347.571 641.895 350.87 642.059 352.82C642.808 361.743 642.257 371.087 642.448 380.066C642.869 399.903 643.382 419.701 643.209 439.548C643.151 446.266 643.89 454.118 642.264 460.665C641.767 462.668 641.003 464.515 639.162 465.609C637.131 466.816 634.88 466.844 632.592 466.675C623.388 465.993 614.129 464.211 604.967 463.026C595.769 461.835 586.485 461.178 577.245 460.375C558.835 458.812 540.438 457.089 522.057 455.207C514.444 454.475 505.946 454.538 498.512 453.033C503.872 451.17 512.372 455.708 517.163 452.778C517.925 450.564 515.183 446.582 515.2 443.68C515.201 443.503 515.21 443.326 515.216 443.149C509.322 441.623 490.486 442.141 487.166 439.93C486.954 439.789 486.757 439.628 486.553 439.477C496.319 439.461 506.545 441.178 516.278 442.188L574.256 447.902C585.167 448.961 596.4 450.665 607.345 450.757C607.716 449.623 607.991 448.46 608.299 447.307C608.973 444.782 609.53 441.633 610.904 439.4C613.786 434.712 620.672 439.233 624.321 436.706C624.911 436.297 624.951 435.861 625.084 435.2C626.21 429.598 626.072 371.966 624.44 369.966C622.255 367.289 617.394 367.628 614.216 367.204C606.559 366.18 609.12 357.54 605.622 352.957C599.904 351.074 578.621 350.878 570.978 350.459C553.448 349.474 535.922 348.392 518.404 347.213L404.675 339.247C392.51 338.436 380.338 337.731 368.161 337.132C361.108 336.782 353.868 336.197 346.81 336.479C341.395 336.695 339.817 342.606 336.53 346.077C336.418 346.195 336.302 346.311 336.188 346.427C332.305 346.784 328.382 346.924 324.488 347.156C324.104 357.028 325.67 366.938 325.638 376.856C325.606 386.709 323.765 397.121 324.626 406.879C324.801 408.866 325.494 409.662 326.969 410.918L326.328 411.368L325.354 410.83C321.631 404.905 325.158 383.559 325.074 375.561C325.024 370.804 324.403 366.055 324.109 361.309C323.831 356.816 323.897 352.298 323.334 347.827C323.171 347.805 323.007 347.789 322.845 347.761C321.339 347.496 320.488 347.241 319.628 345.948C319.622 343.503 320.392 341.106 321.182 338.809C324.91 327.957 329.675 326.426 340.576 325.224C342.384 325.024 344.53 325.118 346.15 324.324C343.555 324.29 341.077 323.807 338.504 323.637C330.844 323.131 322.798 322.961 315.126 323.144C314.575 332.07 314.711 341.363 314.587 350.335C314.539 353.821 315.046 358.359 314.152 361.705C314.186 358.278 314.259 354.859 313.97 351.44L313.914 350.827Z" fill="url(#paint3_linear_407_121)"/>
<path d="M314.26 437.585C313.282 434.782 312.946 432.069 312.764 429.13C312.034 417.36 312.728 405.166 312.873 393.356C313.045 379.337 312.76 364.786 313.914 350.827L313.97 351.44C314.259 354.859 314.186 358.278 314.152 361.705C315.046 358.359 314.539 353.821 314.587 350.335C314.711 341.363 314.575 332.07 315.126 323.144C322.798 322.961 330.844 323.131 338.504 323.637C341.077 323.807 343.555 324.29 346.15 324.324C344.53 325.118 342.384 325.024 340.576 325.224C329.675 326.426 324.91 327.957 321.182 338.809C320.392 341.106 319.622 343.503 319.628 345.948C320.488 347.241 321.339 347.496 322.845 347.761C323.007 347.789 323.171 347.805 323.334 347.827C323.897 352.298 323.831 356.816 324.109 361.309C324.403 366.055 325.024 370.804 325.074 375.561C325.158 383.559 321.631 404.905 325.354 410.83L326.328 411.368L326.969 410.918L336.093 410.973C337.75 416.002 339.481 423.967 344.575 426.484C351.906 430.106 369.068 430.133 377.585 430.816L453.694 436.41C463.745 437.218 476.905 437.58 486.553 439.477C486.757 439.628 486.954 439.789 487.166 439.93C490.486 442.141 509.322 441.623 515.216 443.149C515.21 443.326 515.201 443.503 515.2 443.68C515.183 446.582 517.925 450.564 517.163 452.778C512.372 455.708 503.872 451.17 498.512 453.033C492.326 453.116 485.832 452.131 479.633 451.631L437.478 448.162C410.075 446.248 382.696 443.995 355.348 441.401C341.67 440.194 327.85 439.569 314.26 437.585Z" fill="#CFBAF0"/>
<path d="M326.969 410.918C325.494 409.662 324.801 408.866 324.626 406.879C323.765 397.121 325.606 386.709 325.638 376.856C325.67 366.938 324.104 357.028 324.488 347.156C328.382 346.924 332.305 346.784 336.188 346.427C336.302 346.311 336.418 346.195 336.53 346.077C339.817 342.606 341.395 336.695 346.81 336.479C353.868 336.197 361.108 336.782 368.161 337.132C380.338 337.731 392.51 338.436 404.675 339.247L518.404 347.213C535.922 348.392 553.448 349.474 570.978 350.459C578.621 350.878 599.904 351.074 605.622 352.957C609.12 357.54 606.559 366.18 614.216 367.204C617.394 367.628 622.255 367.289 624.44 369.966C626.072 371.966 626.21 429.598 625.084 435.2C624.951 435.861 624.911 436.297 624.321 436.706C620.672 439.233 613.786 434.712 610.904 439.4C609.53 441.633 608.973 444.782 608.299 447.307C607.991 448.46 607.716 449.623 607.345 450.757C596.4 450.665 585.167 448.961 574.256 447.902L516.278 442.188C506.545 441.178 496.319 439.461 486.553 439.477C476.905 437.58 463.745 437.218 453.694 436.41L377.585 430.816C369.068 430.133 351.906 430.106 344.575 426.484C339.481 423.967 337.75 416.002 336.093 410.973L326.969 410.918ZM346.982 339.721C345.509 340.097 344.512 340.606 343.671 341.938C341.161 345.916 341.176 348.449 335.952 349.801C333.422 350.457 330.271 350.127 327.659 350.09C328.205 358.83 329.043 367.503 328.949 376.27C328.837 386.69 327.785 397.11 327.938 407.527C331.994 407.53 335.969 406.999 339.053 410.207C343.115 414.432 340.831 421.85 347.021 424.488C352.375 426.77 372.964 427.372 379.541 427.878L455.491 433.455L601.879 446.871C602.706 446.833 603.551 447.079 604.112 446.375C607.388 442.266 604.367 435.966 613.817 434.139C616.409 433.637 619.418 433.985 622.053 434.094C621.997 413.432 622.576 392.585 621.926 371.949C616.605 371.132 610.005 370.861 606.598 366.079C604.484 363.111 604.031 359.387 603.542 355.872C566.098 352.805 528.492 351.44 491.021 348.581C458.529 345.933 426.007 343.672 393.462 341.796C378.009 340.926 362.459 339.745 346.982 339.721Z" fill="#455E5D"/>
<path d="M327.659 350.09C330.271 350.127 333.422 350.457 335.952 349.801C341.176 348.449 341.161 345.916 343.671 341.938C344.512 340.606 345.509 340.097 346.982 339.721C362.459 339.745 378.009 340.926 393.462 341.796C426.007 343.672 458.529 345.933 491.021 348.581C528.492 351.44 566.098 352.805 603.542 355.872C604.031 359.387 604.484 363.111 606.598 366.079C610.005 370.861 616.605 371.132 621.926 371.949C622.576 392.585 621.997 413.432 622.053 434.094C619.418 433.985 616.409 433.637 613.817 434.139C604.367 435.966 607.388 442.266 604.112 446.375C603.551 447.079 602.706 446.833 601.879 446.871L455.491 433.455L379.541 427.878C372.964 427.372 352.375 426.77 347.021 424.488C340.831 421.85 343.115 414.432 339.053 410.207C335.969 406.999 331.994 407.53 327.938 407.527C327.785 397.11 328.837 386.69 328.949 376.27C329.043 367.503 328.205 358.83 327.659 350.09ZM468.923 372.558C461.78 374.787 452.427 381.33 448.698 387.987C447.228 390.611 446.71 393.636 447.667 396.532C448.671 399.569 451.137 401.677 453.992 402.943C457.005 404.279 460.02 404.932 463.295 405.124C470.063 404.692 476.742 402.44 481.317 397.174C483.627 394.516 484.649 391.415 484.271 387.906C483.772 383.277 481.413 378.268 477.714 375.349C474.752 373.012 472.624 372.361 468.923 372.558Z" fill="url(#paint4_linear_407_121)"/>
<path d="M463.295 405.124C460.02 404.932 457.005 404.279 453.992 402.943C451.137 401.677 448.671 399.569 447.667 396.532C446.71 393.636 447.228 390.611 448.698 387.987C452.427 381.33 461.78 374.787 468.923 372.558C472.624 372.361 474.752 373.012 477.714 375.349C481.413 378.268 483.772 383.277 484.271 387.906C484.649 391.415 483.627 394.516 481.317 397.174C476.742 402.44 470.063 404.692 463.295 405.124ZM468.79 375.501C466.671 376.513 464.589 377.488 462.609 378.761C467.369 378.979 471.903 379.262 475.319 383.068C477.053 384.999 478.175 387.704 479.027 390.133L479.79 392.598L480.481 392.879C481.511 391.296 481.171 389.178 480.826 387.419C480.037 383.397 478.031 379.519 474.571 377.18C472.704 375.917 471.041 375.406 468.79 375.501ZM460.543 382.088C456.905 383.69 453.157 385.738 451.501 389.593C450.723 391.405 450.577 393.443 451.303 395.298C452.301 397.849 454.759 399.556 457.252 400.459C460.31 401.565 463.417 401.709 466.631 401.556C470.057 400.664 473.566 400.155 475.608 396.93C476.676 395.243 476.862 393.184 476.369 391.272C475.455 387.725 472.586 384.715 469.387 383.071C466.561 381.619 463.619 381.822 460.543 382.088Z" fill="#455E5D"/>
<path d="M462.609 378.761C464.589 377.488 466.671 376.513 468.79 375.501C471.041 375.406 472.704 375.917 474.571 377.18C478.031 379.519 480.037 383.397 480.826 387.419C481.171 389.178 481.511 391.296 480.481 392.879L479.79 392.598L479.027 390.133C478.175 387.704 477.053 384.999 475.319 383.068C471.903 379.262 467.369 378.979 462.609 378.761Z" fill="#CFBAF0"/>
<path d="M466.631 401.556C463.417 401.709 460.31 401.565 457.252 400.459C454.759 399.556 452.301 397.849 451.303 395.298C450.577 393.443 450.723 391.405 451.501 389.593C453.157 385.738 456.905 383.69 460.543 382.088C463.619 381.822 466.561 381.619 469.387 383.071C472.586 384.715 475.455 387.725 476.369 391.272C476.862 393.184 476.676 395.243 475.608 396.93C473.566 400.155 470.057 400.664 466.631 401.556Z" fill="#A3C4F3"/>
<path d="M771.368 410.722C776.419 414.124 780.438 420.17 784.179 424.972C795.213 439.135 804.546 453.583 812.546 469.679C824.466 493.66 833.656 518.691 848.027 541.451C852.41 550.959 858.272 559.907 863.451 569C870.236 581.161 876.749 593.471 882.984 605.923C904.513 649.509 911.138 704.254 894.141 750.391C887.438 768.584 876.104 786.718 860.999 799.17C855.35 803.827 849.178 807.616 843.103 811.663C837.77 814.552 832.419 817.568 826.815 819.902C790.824 834.89 753.015 831.481 716.47 820.652C708.761 818.367 700.297 814.59 692.34 813.638C691.213 806.24 689.992 798.441 687.202 791.477C691.053 787.355 695.415 783.577 699.499 779.676L730.21 750.857C737.918 743.604 745.022 735.736 752.421 728.172C756.358 736.421 758.044 744.825 759.329 753.819C760.889 767.297 762.122 781.627 766.671 794.491C767.911 798 769.957 803.958 773.787 805.277C775.385 805.827 777.531 805.341 778.918 804.437C781.028 803.062 781.741 800.723 782.343 798.4C783.707 793.137 784.213 787.514 785.379 782.173C790.781 757.441 796.072 734.265 792.939 708.752C792.103 701.943 790.911 694.729 787.331 688.762C787.319 688.738 787.296 688.716 787.295 688.689C787.188 686.478 797.322 673.74 799.097 670.469L799.052 669.959C798.341 662.711 795.864 655.74 790.049 651.054L789.531 650.644C786.198 641.16 784.611 630.835 782.613 620.992C769.025 554.056 766.729 478.756 771.368 410.722Z" fill="#5FF5AA"/>
<path d="M147.422 619.465C174.531 560.231 212.713 507.865 263.588 466.816C271.068 460.781 281.773 450.995 290.498 447.485C292.021 480.021 292.683 512.592 292.483 545.162C292.504 591.341 292.115 638.13 284.575 683.782C282.513 696.265 280.312 708.855 275.923 720.767C271.559 721.874 267.703 722.851 265.346 727.113C263.925 729.731 263.661 732.824 264.619 735.645C265.551 738.303 267.658 740.481 270.216 741.628C271.676 742.282 273.205 742.655 274.766 742.969C265.672 752.329 262.812 764.206 262.927 777.009C263.053 791.035 267.987 804.609 270.049 818.419C271.375 827.298 270.872 836.722 273.067 845.4C273.906 848.717 275.314 852.205 277.812 854.629C280.008 856.761 282.919 857.73 285.955 857.571C290.252 857.346 294.197 855.104 296.912 851.821C303.855 843.424 305.287 821.079 307.844 810.148C311.279 795.462 319.585 776.257 317.838 761.264C317.308 756.708 315.466 753.061 313.32 749.089C325.599 751.625 338.118 753.254 350.515 755.104L400.481 762.676C430.953 767.468 461.469 771.978 492.024 776.205C511.509 779.086 530.983 782.286 550.511 784.847C534.682 820.295 452.608 865.056 417.487 881.763C406.395 887.04 394.806 891.799 383.346 896.217C382.058 896.714 380.672 897.072 379.53 897.851C367.011 901.976 354.513 906.551 341.837 910.148C293.331 923.911 236.062 931.748 188.511 910.823C158.639 897.678 134.859 871.141 123.137 840.839C97.1974 773.78 119.71 682.677 147.422 619.465Z" fill="#F8F19E"/>
<path d="M552.241 602.424C507.249 597.903 462.315 592.813 417.452 587.156L354.927 578.545C345.808 577.349 335.559 575.155 326.388 575.441C324.158 575.511 321.589 575.822 319.498 574.879C317.651 574.046 315.678 572.312 315.032 570.349C312.568 562.865 313.953 542.697 313.961 534.006C313.931 525.21 313.779 516.415 313.506 507.623C313.065 492.281 311.591 476.917 311.441 461.571C311.419 459.296 311.231 456.187 312.321 454.157C321.419 451.97 372.458 457.168 384.21 458.116L443.426 462.457C469.572 464.79 495.705 467.271 521.823 469.901C548.476 472.245 575.006 475.558 601.587 478.578C607.952 479.301 614.326 480.16 620.704 480.74C625.776 481.201 631.216 481.25 636.184 482.365C638.563 482.899 640.815 483.921 642.385 485.855C644.268 488.174 644.56 491.9 644.808 494.792C645.444 502.206 645.098 509.853 645.074 517.298L644.913 554.428L644.663 582.362C644.635 588.052 645.026 594.177 644.305 599.809C643.913 602.867 642.798 608.181 639.827 609.892C635.292 612.502 563.213 603.615 552.241 602.424ZM523.037 473.422C479.105 469.004 435.117 465.154 391.086 461.872C365.482 459.86 339.599 457.045 313.936 456.32C314.457 475.332 316.007 494.294 316.42 513.324C316.766 529.212 315.919 545.232 316.541 561.08C316.627 563.295 316.582 568.436 318.157 569.905C319.784 571.421 321.488 571.977 323.702 571.797C332.89 571.049 343.071 573.208 352.244 574.34C376.315 577.31 400.274 581.111 424.326 584.229C466.763 589.73 509.464 593.127 551.887 598.573C580.292 601.955 608.743 604.938 637.231 607.521C639.401 605.38 640.235 603.464 640.728 600.452C641.493 595.776 641.059 590.662 641.056 585.919L641.093 559.924L641.585 519.538C641.657 512.069 641.956 504.468 641.444 497.015C641.272 494.522 640.889 488.973 639.082 487.284C637.802 486.089 634.428 485.499 632.721 485.211C622.187 483.438 611.088 482.85 600.448 481.656C574.668 478.689 548.864 475.944 523.037 473.422Z" fill="url(#paint5_linear_407_121)"/>
<path d="M313.936 456.32C339.599 457.045 365.482 459.86 391.086 461.872C435.117 465.154 479.105 469.004 523.037 473.422C523.856 478.159 525.391 482.6 526.339 487.263C488.979 482.955 451.594 478.863 414.187 474.988C392.662 472.617 371.027 469.524 349.421 468.04C345.399 470.964 342.592 478.148 339.348 479.765C335.413 481.725 327.155 477.012 326.366 483.346C325.347 491.533 326.799 510.158 326.966 519.449C327.1 526.934 326.284 534.161 326.041 541.601C325.996 543.009 325.967 544.218 326.79 545.418C331.221 548.726 337.975 547.826 341.859 551.934C344.72 554.959 346.268 558.966 348.847 562.186C354.491 563.637 360.707 563.74 366.501 564.331C375.217 565.22 383.915 566.278 392.59 567.506C418.655 571.141 444.648 574.952 470.784 578.06L523.949 584.458C532.559 585.497 541.263 586.263 549.836 587.552C550.425 591.234 551.421 594.89 551.887 598.573C509.464 593.127 466.763 589.73 424.326 584.229C400.274 581.111 376.315 577.31 352.244 574.34C343.071 573.208 332.89 571.049 323.702 571.797C321.488 571.977 319.784 571.421 318.157 569.905C316.582 568.436 316.627 563.295 316.541 561.08C315.919 545.232 316.766 529.212 316.42 513.324C316.007 494.294 314.457 475.332 313.936 456.32Z" fill="#FFCFD2"/>
<path d="M349.421 468.04C371.027 469.524 392.662 472.617 414.187 474.988C451.594 478.863 488.979 482.955 526.339 487.263C539.442 488.882 552.569 490.298 565.717 491.51C579.199 492.842 592.787 494.27 606.339 494.521C607.664 500.087 608.66 506.038 613.846 509.393C617.088 511.489 620.926 512.198 624.643 512.963C626.515 521.724 625.889 532.115 626.029 541.092L626.655 586.572C619.277 589.464 612.588 590.897 607.387 597.446C602.374 595.882 597.332 594.183 592.191 593.091C578.333 590.148 563.893 589.298 549.836 587.552C541.263 586.263 532.559 585.497 523.949 584.458L470.784 578.06C444.648 574.952 418.655 571.141 392.59 567.506C383.915 566.278 375.217 565.22 366.501 564.331C360.707 563.74 354.491 563.637 348.847 562.186C346.268 558.966 344.72 554.959 341.859 551.934C337.975 547.826 331.221 548.726 326.79 545.418C325.967 544.218 325.996 543.009 326.041 541.601C326.284 534.161 327.1 526.934 326.966 519.449C326.799 510.158 325.347 491.533 326.366 483.346C327.155 477.012 335.413 481.725 339.348 479.765C342.592 478.148 345.399 470.964 349.421 468.04ZM527.687 490.686C489.156 485.897 450.562 481.638 411.914 477.911L372.158 473.667C365.91 473.013 359.561 472.004 353.293 471.74C352.068 471.688 350.866 471.557 349.792 472.278C348.455 473.176 347.729 474.807 346.942 476.16C342.354 484.047 337.493 483.978 329.064 483.361C329.785 503.552 330.776 523.445 329.252 543.63C337.051 545 342.073 546.699 346.878 553.471C348.231 555.42 349.557 557.388 350.853 559.374C361.509 560.795 372.257 561.435 382.919 562.85L444.806 571.633C464.705 574.162 484.621 576.546 504.554 578.784C519.769 580.611 534.955 582.824 550.187 584.481C568.681 585.743 587.783 587.6 605.503 593.174C611.177 589.067 616.679 586.081 623.371 583.971C622.463 561.446 622.893 538.867 622.045 516.332C618.593 515.438 615.156 514.535 612.089 512.651C606.41 509.162 604.56 503.711 603.055 497.609C591.471 497.554 579.696 496.251 568.167 495.108C554.652 493.838 541.157 492.363 527.687 490.686Z" fill="url(#paint6_linear_407_121)"/>
<path d="M329.064 483.361C337.493 483.978 342.354 484.047 346.942 476.16C347.729 474.807 348.455 473.176 349.792 472.278C350.866 471.557 352.068 471.688 353.293 471.74C359.561 472.004 365.91 473.013 372.158 473.667L411.914 477.911C450.562 481.638 489.156 485.897 527.687 490.686C531.12 507.601 536.612 525.308 540.695 542.294C542.569 549.959 544.333 557.651 545.988 565.366C547.321 571.73 548.356 578.244 550.187 584.481C534.955 582.824 519.769 580.611 504.554 578.784C484.621 576.546 464.705 574.162 444.806 571.633L382.919 562.85C372.257 561.435 361.509 560.795 350.853 559.374C349.557 557.388 348.231 555.42 346.878 553.471C342.073 546.699 337.051 545 329.252 543.63C330.776 523.445 329.785 503.552 329.064 483.361ZM469.192 513.561C467.901 514.038 466.528 514.507 465.338 515.205C463.095 516.521 461.408 518.763 459.401 520.402C457.192 522.205 454.408 523.294 452.353 525.297C451.379 526.246 450.633 527.459 450.084 528.696C448.972 531.198 448.803 533.889 449.806 536.454C451.207 540.032 454.618 542.866 458.141 544.231C460.22 545.037 462.453 545.068 464.652 545.001C471.019 543.8 478.424 540.101 482.198 534.676C484.631 531.179 485.263 526.637 484.332 522.516C483.638 519.444 481.896 516.934 479.181 515.316C475.944 513.386 472.848 513.243 469.192 513.561Z" fill="#FFCFD2"/>
<path d="M523.037 473.422C548.864 475.944 574.668 478.689 600.448 481.656C611.088 482.85 622.187 483.438 632.721 485.211C634.428 485.499 637.802 486.089 639.082 487.284C640.889 488.973 641.272 494.522 641.444 497.015C641.956 504.468 641.657 512.069 641.585 519.538L641.093 559.924L641.056 585.919C641.059 590.662 641.493 595.776 640.728 600.452C640.235 603.464 639.401 605.38 637.231 607.521C608.743 604.938 580.292 601.955 551.887 598.573C551.421 594.89 550.425 591.234 549.836 587.552C563.893 589.298 578.333 590.148 592.191 593.091C597.332 594.183 602.374 595.882 607.387 597.446C612.588 590.897 619.277 589.464 626.655 586.572L626.029 541.092C625.889 532.115 626.515 521.724 624.643 512.963C620.926 512.198 617.088 511.489 613.846 509.393C608.66 506.038 607.664 500.087 606.339 494.521C592.787 494.27 579.199 492.842 565.717 491.51C552.569 490.298 539.442 488.882 526.339 487.263C525.391 482.6 523.856 478.159 523.037 473.422Z" fill="#8EECF5"/>
<path d="M527.687 490.686C541.157 492.363 554.652 493.838 568.167 495.108C579.696 496.251 591.471 497.554 603.055 497.609C604.56 503.711 606.41 509.162 612.089 512.651C615.156 514.535 618.593 515.438 622.045 516.332C622.893 538.867 622.463 561.446 623.371 583.971C616.679 586.081 611.177 589.067 605.503 593.174C587.783 587.6 568.681 585.743 550.187 584.481C548.356 578.244 547.321 571.73 545.988 565.366C544.333 557.651 542.569 549.959 540.695 542.294C536.612 525.308 531.12 507.601 527.687 490.686Z" fill="#8EECF5"/>
<path d="M464.652 545.001C462.453 545.068 460.22 545.037 458.141 544.231C454.618 542.866 451.207 540.032 449.806 536.454C448.803 533.889 448.972 531.198 450.084 528.696C450.633 527.459 451.379 526.246 452.353 525.297C454.408 523.294 457.192 522.205 459.401 520.402C461.408 518.763 463.095 516.521 465.338 515.205C466.528 514.507 467.901 514.038 469.192 513.561C472.848 513.243 475.944 513.386 479.181 515.316C481.896 516.934 483.638 519.444 484.332 522.516C485.263 526.637 484.631 531.179 482.198 534.676C478.424 540.101 471.019 543.8 464.652 545.001ZM471.317 516.177C469.735 516.416 468.095 516.457 466.809 517.492C471.454 521.581 475.885 519.396 479.195 527.634L480.144 529.995L480.788 530.074C481.751 528.935 481.718 527.366 481.581 525.945C481.29 522.918 480.025 519.931 477.603 518.002C475.658 516.453 473.726 516.34 471.317 516.177ZM464.618 521.659C460.543 522.463 456.006 524.644 453.737 528.272C452.53 530.202 452.112 532.595 452.747 534.799C453.524 537.492 455.429 539.391 457.862 540.672C460.255 541.933 462.263 542.047 464.937 542.041C469.013 541.089 473.164 539.592 475.459 535.819C476.702 533.774 476.978 531.324 476.313 529.033C475.448 526.059 473.133 524.028 470.422 522.706C468.574 521.805 466.637 521.752 464.618 521.659Z" fill="#455E5D"/>
<path d="M479.195 527.634C475.885 519.396 471.454 521.581 466.809 517.492C468.095 516.457 469.735 516.416 471.317 516.177C473.726 516.34 475.658 516.453 477.603 518.002C480.025 519.931 481.29 522.918 481.581 525.945C481.718 527.366 481.751 528.935 480.788 530.074L480.144 529.995L479.195 527.634Z" fill="#FFCFD2"/>
<path d="M464.937 542.041C462.263 542.047 460.255 541.933 457.862 540.672C455.429 539.391 453.524 537.492 452.747 534.799C452.112 532.595 452.53 530.202 453.737 528.272C456.006 524.644 460.543 522.463 464.618 521.659C466.637 521.752 468.574 521.805 470.422 522.706C473.133 524.028 475.448 526.059 476.313 529.033C476.978 531.324 476.702 533.774 475.459 535.819C473.164 539.592 469.013 541.089 464.937 542.041Z" fill="#E6DFD5"/>
<path d="M568.68 739.299C541.237 735.641 513.844 731.844 486.282 729.141C442.639 724.862 399.309 720.812 355.997 713.797C345.673 712.124 331.64 710.834 322.088 707.076C320.361 706.397 318.841 705.66 318.138 703.859C315.222 696.383 315.743 654.602 315.423 644.046C314.957 628.675 313.588 612.881 314.01 597.526C314.075 595.158 314.315 593.032 315.371 590.881C318.031 589.952 321.636 590.213 324.438 590.404C347.76 591.998 371.261 595.375 394.516 597.964C428.679 601.826 462.884 605.308 497.125 608.408C516.322 610.313 535.519 612.781 554.756 614.182C572.547 615.974 590.247 618.449 608.001 620.549C617.245 621.643 627.558 621.636 636.472 624.306C638.753 624.989 640.457 626.143 641.945 628.004C643.592 630.063 644.25 632.419 644.536 634.998C645.279 641.7 644.881 648.691 644.888 655.433L645.002 688.077L645.121 716.743C645.162 722.836 645.625 729.357 644.791 735.398C644.426 738.042 643.296 740.454 641.036 741.965C627.552 750.974 585.256 741.64 568.68 739.299ZM555.873 618.246C516 612.71 475.703 610.137 435.691 605.761L368.814 598.365C351.674 596.369 334.386 593.912 317.154 592.932C317.162 607.698 318.22 622.431 318.435 637.186C318.515 652.689 318.95 668.189 319.741 683.672C320.064 690.186 320.034 697.14 321.189 703.557C337.991 707.941 355.292 710.295 372.427 713C437.482 723.269 503.432 726.082 568.564 735.86L578.503 737.487C591.748 739.647 628.356 747.343 638.862 739.147C640.781 737.651 640.988 735.144 641.274 732.868C642.04 726.77 641.512 720.216 641.438 714.069L641.175 683.581L641.233 653.136C641.254 647.413 641.592 641.38 640.971 635.687C640.753 633.695 640.26 631.84 638.941 630.282C637.202 628.229 634.548 627.654 632.034 627.078C623.48 625.121 614.067 624.895 605.332 623.884C588.841 621.976 572.403 619.83 555.873 618.246Z" fill="#455E5D"/>
<path d="M555.873 618.246L555.06 618.832C555.183 622.007 556.618 625.143 557.284 628.255C526.009 624.037 494.621 620.698 463.158 618.241C438.409 616.323 413.82 615.597 389.221 611.878C384.562 611.173 356.594 606.096 354.332 606.581C353.944 606.664 353.364 607.038 353.094 607.26C351.933 608.211 351.136 610.644 350.571 611.994C347.091 612.027 343.31 611.549 340.73 614.372C339.13 616.122 338.137 619.077 337.151 621.233C334.798 620.789 331.826 619.754 329.74 621.342C328.848 622.021 328.719 623.239 328.648 624.296C328.361 628.578 328.869 633.013 329.04 637.3C329.202 642.538 329.257 647.778 329.207 653.019C329.182 660.026 327.985 667.178 328.263 674.126C328.322 675.605 328.398 677.187 329.417 678.351C331.089 680.262 335.812 679.391 338.359 681.314C343.736 685.374 347.513 691.899 352.195 696.759C360.049 695.58 373.192 698.525 381.334 699.611L444.683 708.475L518.686 717.961C535.763 720.085 552.918 721.962 569.909 724.705C569.199 728.391 569.221 732.159 568.564 735.86C503.432 726.082 437.482 723.269 372.427 713C355.292 710.295 337.991 707.941 321.189 703.557C320.034 697.14 320.064 690.186 319.741 683.672C318.95 668.189 318.515 652.689 318.435 637.186C318.22 622.431 317.162 607.698 317.154 592.932C334.386 593.912 351.674 596.369 368.814 598.365L435.691 605.761C475.703 610.137 516 612.71 555.873 618.246Z" fill="#E6DFD5"/>
<path d="M350.571 611.994C351.136 610.644 351.933 608.211 353.094 607.26C353.364 607.038 353.944 606.664 354.332 606.581C356.594 606.096 384.562 611.173 389.221 611.878C413.82 615.597 438.409 616.323 463.158 618.241C494.621 620.698 526.009 624.037 557.284 628.255C574.171 630.626 591.457 632.215 608.141 635.819C609.95 639.533 612.488 648.92 616.591 650.1C620.56 651.242 624.686 648.107 628.603 648.727C630.347 651.353 630.548 703.984 630.486 710.567C623.871 714.58 616.768 717.012 610.941 722.296C608.702 724.326 606.988 726.744 604.907 728.9C593.23 728.274 581.492 726.298 569.909 724.705C552.918 721.962 535.763 720.085 518.686 717.961L444.683 708.475L381.334 699.611C373.192 698.525 360.049 695.58 352.195 696.759C347.513 691.899 343.736 685.374 338.359 681.314C335.812 679.391 331.089 680.262 329.417 678.351C328.398 677.187 328.322 675.605 328.263 674.126C327.985 667.178 329.182 660.026 329.207 653.019C329.257 647.778 329.202 642.538 329.04 637.3C328.869 633.013 328.361 628.578 328.648 624.296C328.719 623.239 328.848 622.021 329.74 621.342C331.826 619.754 334.798 620.789 337.151 621.233C338.137 619.077 339.13 616.122 340.73 614.372C343.31 611.549 347.091 612.027 350.571 611.994ZM558.835 632.231C547.356 630.128 535.557 629.179 523.971 627.772C501.878 624.929 479.712 622.694 457.497 621.069C431.1 619.353 405.195 617.878 379.003 613.874C371.093 612.665 363.029 611.529 355.251 609.623L353.562 614.914C350.121 615.162 346.675 615.356 343.227 615.497C342.396 618.35 341.749 622.183 338.982 623.8C337.424 624.711 335.798 624.521 334.093 624.417C333.511 624.382 332.92 624.382 332.337 624.367C331.294 627.592 332.494 638.301 332.581 642.31C332.824 653.423 331.692 664.393 331.4 675.474C340.914 676.431 345.158 682.855 350.746 689.69C351.624 690.763 352.491 691.847 353.38 692.911L464.523 707.677C499.825 712.133 535.289 715.985 570.479 721.217C581.429 722.879 592.431 724.181 603.466 725.121C608.863 716.148 617.882 712.784 626.852 708.41C627.006 702.574 626.646 696.68 626.593 690.836L626.358 652.764C622.993 653.517 618.537 654.376 615.196 653.207C610.129 651.435 608.107 643.535 605.955 639.055C590.63 635.543 574.442 634.236 558.835 632.231Z" fill="#455E5D"/>
<path d="M558.835 632.231C557.216 636.571 568.11 682.649 569.311 691.878C570.508 701.609 570.899 711.422 570.479 721.217C535.289 715.985 499.825 712.133 464.523 707.677L353.38 692.911C352.491 691.847 351.624 690.763 350.746 689.69C345.158 682.855 340.914 676.431 331.4 675.474C331.692 664.393 332.824 653.423 332.581 642.31C332.494 638.301 331.294 627.592 332.337 624.367C332.92 624.382 333.511 624.382 334.093 624.417C335.798 624.521 337.424 624.711 338.982 623.8C341.749 622.183 342.396 618.35 343.227 615.497C346.675 615.356 350.121 615.162 353.562 614.914L355.251 609.623C363.029 611.529 371.093 612.665 379.003 613.874C405.195 617.878 431.1 619.353 457.497 621.069C479.712 622.694 501.878 624.929 523.971 627.772C535.557 629.179 547.356 630.128 558.835 632.231ZM465.515 650.054C461.837 651.707 460.591 653.66 457.764 656.205C454.129 659.478 450.302 659.708 448.45 664.92C447.155 668.564 447.816 672.659 449.526 676.049C451.352 679.67 454.748 683.191 458.757 684.296C460.712 684.835 462.949 684.505 464.897 684.079C471.641 681.629 477.955 676.844 481.179 670.278C482.887 666.8 483.423 662.912 482.158 659.195C481.026 655.87 478.672 653.24 475.466 651.786C472.257 650.33 469.022 649.723 465.515 650.054Z" fill="#FBF8CC"/>
<path d="M557.284 628.255C556.618 625.143 555.183 622.007 555.06 618.832L555.873 618.246C572.403 619.83 588.841 621.976 605.332 623.884C614.067 624.895 623.48 625.121 632.034 627.078C634.548 627.654 637.202 628.229 638.941 630.282C640.26 631.84 640.753 633.695 640.971 635.687C641.592 641.38 641.254 647.413 641.233 653.136L641.175 683.581L641.438 714.069C641.512 720.216 642.04 726.77 641.274 732.868C640.988 735.144 640.781 737.651 638.862 739.147C628.356 747.343 591.748 739.647 578.503 737.487L568.564 735.86C569.221 732.159 569.199 728.391 569.909 724.705C581.492 726.298 593.23 728.274 604.907 728.9C606.988 726.744 608.702 724.326 610.941 722.296C616.768 717.012 623.871 714.58 630.486 710.567C630.548 703.984 630.347 651.353 628.603 648.727C624.686 648.107 620.56 651.242 616.591 650.1C612.488 648.92 609.95 639.533 608.141 635.819C591.457 632.215 574.171 630.626 557.284 628.255Z" fill="#8EECF5"/>
<path d="M570.479 721.217C570.899 711.422 570.508 701.609 569.311 691.878C568.11 682.649 557.216 636.571 558.835 632.231C574.442 634.236 590.63 635.543 605.955 639.055C608.107 643.535 610.129 651.435 615.196 653.207C618.537 654.376 622.993 653.517 626.358 652.764L626.593 690.836C626.646 696.68 627.006 702.574 626.852 708.41C617.882 712.784 608.863 716.148 603.466 725.121C592.431 724.181 581.429 722.879 570.479 721.217Z" fill="#8EECF5"/>
<path d="M464.897 684.079C462.949 684.505 460.712 684.835 458.757 684.296C454.748 683.191 451.352 679.67 449.526 676.049C447.816 672.659 447.155 668.564 448.45 664.92C450.302 659.708 454.129 659.478 457.764 656.205C460.591 653.66 461.837 651.707 465.515 650.054C469.022 649.723 472.257 650.33 475.466 651.786C478.672 653.24 481.026 655.87 482.158 659.195C483.423 662.912 482.887 666.8 481.179 670.278C477.955 676.844 471.641 681.629 464.897 684.079ZM466.691 652.443C465.031 653.603 463.361 654.723 461.842 656.067C466.457 656.626 471.38 657.299 474.475 661.212C476.647 663.958 477.152 667.482 476.784 670.878L476.774 671.751C478.531 669.646 479.157 666.002 478.957 663.333C478.725 660.236 477.366 657.325 474.894 655.387C472.535 653.573 469.666 652.543 466.691 652.443ZM460.099 659.57C456.584 661.221 452.871 662.506 451.552 666.541C450.75 668.994 451.352 671.688 452.537 673.91C453.951 676.562 456.777 679.399 459.686 680.342C461.146 680.815 462.897 680.68 464.397 680.524C468.119 679.14 471.006 677.64 472.69 673.836C473.81 671.307 473.948 668.362 472.901 665.786C471.862 663.23 469.718 661.341 467.189 660.314C464.829 659.355 462.601 659.443 460.099 659.57Z" fill="#455E5D"/>
<path d="M461.842 656.067C463.361 654.723 465.031 653.603 466.691 652.443C469.666 652.543 472.535 653.573 474.894 655.387C477.366 657.325 478.725 660.236 478.957 663.333C479.157 666.002 478.531 669.646 476.774 671.751L476.784 670.878C477.152 667.482 476.647 663.958 474.475 661.212C471.38 657.299 466.457 656.626 461.842 656.067Z" fill="#8EECF5"/>
<path d="M681.871 772.015C693.329 765.479 703.291 756.294 713.151 747.63C735.408 728.073 758.241 707.174 775.707 683.114C781.774 674.757 786.682 666.136 790.245 656.437C793.026 659.673 794.404 665.02 795.503 669.102C792.028 676.242 786.251 682.896 781.389 689.149C753.31 725.268 719.568 756.089 686.63 787.669L686.183 787.944C684.555 786.675 682.466 774.682 681.871 772.015Z" fill="#8EECF5"/>
<path d="M464.397 680.524C462.897 680.68 461.146 680.815 459.686 680.342C456.777 679.399 453.951 676.562 452.537 673.91C451.352 671.688 450.75 668.994 451.552 666.541C452.871 662.506 456.584 661.221 460.099 659.57C462.601 659.443 464.829 659.355 467.189 660.314C469.718 661.341 471.862 663.23 472.901 665.786C473.948 668.362 473.81 671.307 472.69 673.836C471.006 677.64 468.119 679.14 464.397 680.524Z" fill="#E6DFD5"/>
<path d="M786.526 692.577L786.675 692.34C786.691 691.664 786.65 691.221 786.457 690.559C786.399 690.362 786.331 690.169 786.269 689.974L787.331 688.762C790.911 694.729 792.103 701.943 792.939 708.752C796.072 734.265 790.781 757.441 785.379 782.173C784.213 787.514 783.707 793.137 782.343 798.4C781.741 800.723 781.028 803.062 778.918 804.437C777.531 805.341 775.385 805.827 773.787 805.277C769.957 803.958 767.911 798 766.671 794.491C762.122 781.627 760.889 767.297 759.329 753.819L760.49 755.24L760.796 755.134C761.575 751.907 760.675 748.216 760.91 744.851L760.954 744.287C761.286 745.614 761.762 747.044 761.959 748.389C763.169 760.24 765.97 794.481 774.903 802.134C776.19 802.388 776.455 802.47 777.575 801.606C778.029 801.256 778.688 800.378 778.956 799.923C781.458 791.826 782.478 782.699 784.214 774.364C788.356 754.483 793.078 733.338 790.579 712.93C789.768 706.307 787.93 700.083 786.709 693.58L786.526 692.577Z" fill="#455E5D"/>
<path d="M755.027 725.733C763.301 716.339 772.377 707.733 780.097 697.855C781.351 696.25 783.644 692.396 785.405 691.657L786.526 692.577L786.709 693.58C787.93 700.083 789.768 706.307 790.579 712.93C793.078 733.338 788.356 754.483 784.214 774.364C782.478 782.699 781.458 791.826 778.956 799.923C777.162 796.975 776.464 792.792 775.527 789.48C772.383 778.361 768.001 757.022 761.959 748.389C761.762 747.044 761.286 745.614 760.954 744.287C760.676 738.468 757.031 731.212 755.027 725.733Z" fill="#FDE4CF"/>
<path d="M560.507 766.246C557.561 771.429 554.196 776.503 551.47 781.784L358.822 753.015L309.249 745.486C298.251 743.869 287.126 743.035 276.331 740.256C273.063 739.415 269.873 738.46 268.173 735.262C267.206 733.444 267.153 731.367 267.824 729.437C268.764 726.736 270.629 725.846 273.093 724.693C277.642 725.215 282.191 726.224 286.725 726.914C300.555 729.012 314.367 731.226 328.16 733.555L447.089 752.432C471.851 756.127 496.781 757.533 521.631 760.315C534.65 761.875 547.615 763.853 560.507 766.246Z" fill="#E6DFD5"/>
<path d="M296.535 847.146C295.922 848.13 295.305 849.144 294.578 850.049C292.664 852.43 289.837 854.055 286.773 854.257C284.341 854.417 282.067 853.761 280.252 852.099C277.826 849.88 276.64 846.645 275.913 843.519C273.82 834.524 274.275 824.797 272.834 815.63C270.974 803.806 267.005 792.44 266.245 780.429C265.347 766.24 267.929 754.976 277.446 744.239C288.26 745.76 299.028 747.384 309.869 748.755C310.891 750.839 311.931 752.93 312.841 755.066C314.394 758.664 315.029 762.59 314.688 766.493C313.564 780.403 308.596 793.754 305.534 807.309C302.696 819.876 301.278 835.467 296.535 847.146Z" fill="#FFCFD2"/>
<path d="M761.959 748.389C768.001 757.022 772.383 778.361 775.527 789.48C776.464 792.792 777.162 796.975 778.956 799.923C778.688 800.378 778.029 801.256 777.575 801.606C776.455 802.47 776.19 802.388 774.903 802.134C765.97 794.481 763.169 760.24 761.959 748.389Z" fill="#D4C0A8"/>
<path d="M551.47 781.784C554.196 776.503 557.561 771.429 560.507 766.246C576.368 768.912 592.64 769.926 608.638 771.53C631.68 773.84 655.959 778.21 679.095 775.191C680.395 779.791 683.887 788.809 682.227 793.24C677.967 795.899 667.983 794.819 663.125 794.522C650.563 793.754 638.013 791.473 625.518 789.961C600.854 787.071 576.17 784.345 551.47 781.784Z" fill="#8EECF5"/>
<path d="M550.511 784.847C570.529 787.271 590.562 789.563 610.61 791.724C621.384 792.972 632.798 793.817 643.386 796.144C636.797 830.397 643.805 848.796 652.155 881.238C654.284 889.514 655.627 900.109 660.291 907.352C662.18 910.284 665.606 913.219 669.145 913.78C671.482 914.15 673.881 913.47 675.779 912.083C678.33 910.217 679.356 907.224 680.253 904.323C682.735 896.295 683.001 887.545 684.76 879.322C687.338 867.274 691.288 855.811 692.725 843.488C693.901 833.411 693.376 823.683 692.34 813.638C700.297 814.59 708.761 818.367 716.47 820.652C753.015 831.481 790.824 834.89 826.815 819.902C832.419 817.568 837.77 814.552 843.103 811.663C850.583 830.816 844.443 861.781 836.452 880.035C819.852 917.955 785.939 945.043 748.017 959.881C733.916 965.398 718.928 968.427 703.959 970.42C620.995 981.467 558.451 940.845 482.36 919.758C458.833 913.237 434.714 909.079 410.77 904.4C400.675 902.427 389.227 901.187 379.53 897.851C380.672 897.072 382.058 896.714 383.346 896.217C394.806 891.799 406.395 887.04 417.487 881.763C452.608 865.056 534.682 820.295 550.511 784.847Z" fill="#B9FBC0"/>
<path d="M646.536 796.807C657.9 798.466 674.088 800.802 684.634 795.684L685.116 795.992C687.356 801.743 688.534 809.052 689.331 815.149C693.034 843.491 686.856 853.971 681.5 879.479C679.861 887.287 679.697 895.879 677.145 903.421C676.307 905.898 674.642 909.36 671.989 910.345C670.402 910.935 668.934 910.77 667.448 910.011C663.331 907.907 661.63 903.755 660.193 899.668C657.778 892.175 656.727 884.219 654.796 876.582C647.335 847.084 640.991 828.305 646.536 796.807Z" fill="#8EECF5"/>
<defs>
<linearGradient id="paint0_linear_407_121" x1="808.732" y1="638.486" x2="187.706" y2="420.599" gradientUnits="userSpaceOnUse">
<stop stop-color="#3B655E"/>
<stop offset="1" stop-color="#5F565F"/>
</linearGradient>
<linearGradient id="paint1_linear_407_121" x1="546.44" y1="325.115" x2="674.927" y2="244.076" gradientUnits="userSpaceOnUse">
<stop stop-color="#E4E3FC"/>
<stop offset="1" stop-color="#C1FDFC"/>
</linearGradient>
<linearGradient id="paint2_linear_407_121" x1="380.578" y1="401.687" x2="577.535" y2="193.608" gradientUnits="userSpaceOnUse">
<stop stop-color="#FFCCFF"/>
<stop offset="1" stop-color="#C0ECFC"/>
</linearGradient>
<linearGradient id="paint3_linear_407_121" x1="321.922" y1="334.809" x2="651.925" y2="417.289" gradientUnits="userSpaceOnUse">
<stop stop-color="#F0D7FE"/>
<stop offset="1" stop-color="#ACFFFD"/>
</linearGradient>
<linearGradient id="paint4_linear_407_121" x1="326.727" y1="384.968" x2="622.688" y2="400.65" gradientUnits="userSpaceOnUse">
<stop stop-color="#E0DDFF"/>
<stop offset="1" stop-color="#AAFFFB"/>
</linearGradient>
<linearGradient id="paint5_linear_407_121" x1="329.031" y1="599.05" x2="630.2" y2="461.139" gradientUnits="userSpaceOnUse">
<stop stop-color="#575653"/>
<stop offset="1" stop-color="#376A61"/>
</linearGradient>
<linearGradient id="paint6_linear_407_121" x1="370.854" y1="607.127" x2="584.133" y2="457.781" gradientUnits="userSpaceOnUse">
<stop stop-color="#575858"/>
<stop offset="1" stop-color="#36675D"/>
</linearGradient>
</defs>
</svg>
