<svg width="1024" height="1024" viewBox="0 0 1024 1024" fill="none" xmlns="http://www.w3.org/2000/svg">
<path d="M318.519 151.227C332.191 142.49 343.864 132.363 358.502 124.753C391.182 107.765 432.773 101.928 469.279 104.252C488.378 105.468 507.967 108.93 526.651 113.07C540.853 116.278 554.841 120.373 568.531 125.33C577.066 128.512 585.388 132.23 593.884 135.509C616.398 144.198 638.646 152.875 660.754 162.59C667.022 165.344 673.52 168 679.559 171.218C684.277 173.733 688.294 177.232 693.423 178.994C684.642 186.317 673.182 190.137 663.993 196.76C660.443 198.373 626.258 196.383 619.314 196.051C585.537 195.389 551.755 194.998 517.971 194.879L376.291 195.546C376.079 194.438 375.881 193.33 375.366 192.314C373.276 188.185 369.426 184.353 366.193 181.108C352.752 167.616 336.712 157.167 318.496 151.378L318.519 151.227Z" fill="#FBF8CC"/>
<path d="M130.463 509.897C130.305 509.681 130.16 509.456 130.013 509.232C115.804 487.542 106.483 463.377 98.0445 438.998C81.9876 392.611 67.9246 341.111 78.2458 291.832C88.4982 242.882 122.84 208.989 163.275 182.689C171.007 177.659 179.155 173.352 187.331 169.1C221.247 151.46 254.956 142.24 293.535 146.341C302.112 147.253 310.133 149.466 318.519 151.227L318.496 151.378C302.908 159.508 281.861 180.269 272.636 195.097C267.547 195.041 262.378 195.174 257.304 194.811C256.266 192.28 255.415 190.991 252.79 189.943C249.711 188.714 246.505 188.873 243.534 190.337C241.69 191.245 240.354 192.388 239.72 194.386C239.37 195.488 239.173 196.654 238.963 197.79C219.018 198.091 198.809 198.299 178.965 196.079C178.815 201.973 178.749 207.883 178.447 213.77C189.495 212.103 200.702 212.46 211.843 212.455C220.855 212.452 229.933 212.243 238.937 212.543C239.038 219.634 238.922 227.062 240.719 233.963C240.667 234.111 240.613 234.258 240.565 234.408C239.201 238.632 239.104 243.715 238.676 248.139C237.995 255.161 237.358 262.164 236.172 269.123C231.411 297.052 222.417 324.204 211.304 350.187C205.427 363.926 198.497 377.299 191.779 390.645C183.444 407.436 174.796 424.07 165.84 440.538C161.668 448.085 157.088 455.403 152.971 462.981C147.739 472.828 142.773 482.814 138.079 492.928C135.49 498.38 132.252 504.134 130.463 509.897Z" fill="#FFCFD2"/>
<path d="M693.89 178.856C707.28 171.385 722.876 166.387 737.461 161.859C752.116 157.308 767.298 152.529 782.41 149.773C806.152 145.444 839.633 145.829 862.888 152.398C891.405 160.452 916.76 173.359 931.778 200.11C955.248 242.874 960.83 293.191 947.303 340.058C942.041 358.503 930.165 383.069 915.075 395.631C910.999 386.555 906.255 377.76 902.12 368.694C898.242 360.19 894.969 351.441 891.442 342.788C874.277 300.671 849.256 244.285 807.708 221.31C799.028 216.51 792.407 217.922 785.759 214.987C785.629 214.93 785.502 214.866 785.374 214.805C785.407 213.561 785.254 212.322 786.075 211.304C792.145 210.389 799.512 211.293 805.71 211.346L845.529 211.353C845.349 206.694 845.445 202 845.428 197.337C825.572 196.166 805.23 197.232 785.319 197.256C785.001 195.568 784.432 194.014 783.854 192.4C781.823 190.804 779.688 190.186 777.214 189.566C774.92 190.412 772.23 191.131 771.056 193.506C770.463 194.707 770.314 196.228 770.08 197.539C770.074 197.572 770.066 197.605 770.058 197.638C755.597 197.577 740.688 198.301 726.285 197.395C723.889 196.743 721.241 196.918 718.769 196.879C715.676 194.455 712.237 192.456 709.041 190.17C703.92 186.506 698.92 182.646 693.89 178.856Z" fill="#F1D8F5"/>
<path d="M272.636 195.097C281.861 180.269 302.908 159.508 318.496 151.378C336.712 157.167 352.752 167.616 366.193 181.108C369.426 184.353 373.276 188.185 375.366 192.314C375.881 193.33 376.079 194.438 376.291 195.546C341.739 195.843 307.185 195.693 272.636 195.097Z" fill="#FDE4CF"/>
<path d="M693.423 178.994L693.89 178.856C698.92 182.646 703.92 186.506 709.041 190.17C712.237 192.456 715.676 194.455 718.769 196.879C721.241 196.918 723.889 196.743 726.285 197.395C715.837 197.693 705.303 197.46 694.85 197.41C684.634 197.361 674.179 197.545 663.993 196.76C673.182 190.137 684.642 186.317 693.423 178.994Z" fill="#F69AF6"/>
<path d="M782.979 193.86L783.854 192.4C784.432 194.014 785.001 195.568 785.319 197.256C805.23 197.232 825.572 196.166 845.428 197.337C845.445 202 845.349 206.694 845.529 211.353L805.71 211.346C799.512 211.293 792.145 210.389 786.075 211.304C785.254 212.322 785.407 213.561 785.374 214.805C784.88 221.084 784.582 227.5 783.235 233.667C782.476 236.016 781.744 237.921 779.371 239.012C777.277 239.974 774.836 240.041 772.575 240.151C775.141 265.384 777.35 290.653 779.204 315.949C780.672 340.064 782.018 364.186 783.241 388.315C785.09 421.189 787.198 453.987 787.864 486.923C788.28 507.504 787.095 528.019 787.246 548.572C787.356 563.616 794.724 579.012 787.331 593.449C788.967 601.294 789.163 609.78 790.032 617.775L796.598 684.158C798.13 699.481 799.635 714.861 800.437 730.242C801.302 746.822 801.415 763.432 802.14 780.019C802.656 791.82 804.153 803.624 804.485 815.416C804.73 828.227 805.403 841.252 806.528 854.015C807.142 860.983 808.39 867.99 808.63 874.973C808.719 877.558 808.835 880.678 807.95 883.108C806.823 884.047 805.841 884.854 804.279 884.787C803.461 884.751 802.634 884.582 801.828 884.455C800.358 884.223 799.383 884.061 798.066 884.806C797.78 886.677 797.73 888.539 796.39 889.984C794.323 891.018 792.617 890.778 790.47 890.089C787.275 889.065 784.489 887.466 781.151 886.804C779.393 887.383 777.473 887.94 775.9 888.931C770.277 892.475 764.737 901.243 757.136 897.381C751.388 894.461 749.274 887.648 741.689 889.713C736.337 891.171 731.336 894.523 726.31 896.849C719.433 900.032 705.503 905.104 698.241 901.162C696.396 900.16 695.451 898.496 694.942 896.503C693.967 892.678 694.572 886.314 691.394 883.714C689.248 883.099 687.55 882.856 685.493 883.912C681.705 885.857 679.999 888.419 675.285 886.925C672.301 885.979 669.915 883.677 667.559 881.703C662.842 883.919 653.437 890.663 648.265 888.966C646.496 888.386 645.329 887.023 644.654 885.344C643.791 883.197 643.732 880.71 643.854 878.431C644.167 872.573 645.378 866.621 646.262 860.817C647.807 850.673 649.307 840.565 650.083 830.328C651.661 818.621 652.772 806.664 653.708 794.884C655.45 788.091 655.668 780.134 656.688 773.102C658.751 757.986 661.366 742.951 664.527 728.026C669.848 703.184 675.078 678.146 681.267 653.502C685.011 638.59 690.164 623.996 692.988 608.867C690.605 606.891 688.839 604.662 687.929 601.651C686.11 595.636 688.896 590.177 691.756 585.057C674.905 577.439 660.233 567.951 646.137 556.007C586.314 502.952 558.024 409.414 540.308 333.887C532.578 301.237 526.158 268.29 521.064 235.127C514.149 235.982 508.487 235.861 501.695 234.276C501.32 241.861 500.127 249.537 499.078 257.052C496.492 275.37 493.207 293.583 489.23 311.651C475.003 379.158 453.401 454.004 414.563 511.615C404.755 526.133 393.663 539.74 381.42 552.272C368.299 565.145 352.624 578.456 335.949 586.288C336.308 594.463 335.616 601.394 332.47 609.01C334.277 618.041 336.168 627.035 338.67 635.903C349.133 679.903 359.763 723.403 366.318 768.229C368.612 784.066 370.722 799.93 372.645 815.816C373.509 822.586 373.955 829.671 375.269 836.347C376.117 847.37 382.659 870.987 381.386 879.788C381.138 881.506 380.529 883.832 378.881 884.74C373.301 887.814 366.016 883.533 360.754 881.508C357.082 884.366 353.853 888.246 348.92 888.814C345.494 889.208 343.912 887.045 341.481 885.17C340.187 884.172 338.705 883.696 337.074 884.008C333.677 884.657 332.06 892.237 329.934 895.116C323.707 903.548 309.288 903.294 300.37 899.831C293.842 897.295 288.563 892.254 281.25 891.797C274.251 891.359 268.367 896.127 261.621 896.885C259.499 897.124 257.328 896.85 255.706 895.342C254.468 894.191 254.598 892.106 254.51 890.537C245.721 891.926 240.51 890.856 232.351 887.392L231.176 893.876C225.702 890.608 220.711 885.599 215.986 881.309C216.012 875.125 216.756 868.903 217.098 862.722C217.658 851.181 218.139 839.638 218.543 828.091C220.588 790.539 223.068 753.011 225.981 715.516C227.439 695.32 229.215 675.041 230.132 654.819C230.483 653.958 235.414 600.32 235.405 595.924C235.396 591.499 234.352 587.053 234.044 582.634C233.567 575.772 232.904 564.738 235.652 558.391C236.303 556.887 237.451 555.628 238.51 554.398C237.128 546.137 236.809 537.43 236.297 529.071C234.937 506.399 234.583 483.679 235.235 460.976C236.772 387.523 243.943 314.598 248.642 241.319C247.591 241.035 246.509 240.761 245.498 240.355C242.703 239.233 241.751 236.542 240.719 233.963C238.922 227.062 239.038 219.634 238.937 212.543C229.933 212.243 220.855 212.452 211.843 212.455C200.702 212.46 189.495 212.103 178.447 213.77C178.749 207.883 178.815 201.973 178.965 196.079C198.809 198.299 219.018 198.091 238.963 197.79C239.173 196.654 239.37 195.488 239.72 194.386C240.354 192.388 241.69 191.245 243.534 190.337C246.505 188.873 249.711 188.714 252.79 189.943C255.415 190.991 256.266 192.28 257.304 194.811C262.378 195.174 267.547 195.041 272.636 195.097C307.185 195.693 341.739 195.843 376.291 195.546L517.971 194.879C551.755 194.998 585.537 195.389 619.314 196.051C621.012 197.093 622.785 197.979 624.511 198.967C586.799 200.052 548.869 199.494 511.136 199.474L327.889 199.591C314.242 199.664 300.595 199.655 286.948 199.563C278.64 199.453 270.214 198.928 261.917 199.151C260.463 199.19 258.751 199.05 257.65 200.014C257.803 200.928 257.569 200.943 258.259 201.324C259.125 201.803 260.003 201.91 260.977 201.965C264.048 202.139 267.205 201.734 270.291 201.733L291.259 201.914C320.08 202.164 348.903 202.213 377.726 202.06L531.329 201.986C571.704 201.883 612.152 201.389 652.52 202.044C686.819 202.601 721.208 203.767 755.512 202.824C758.95 202.729 765.934 203.309 768.978 202.402C769.299 202.306 769.598 202.147 769.909 202.02L770.812 199.645C770.71 200.916 770.142 202.636 771.22 203.568C771.418 203.739 771.66 203.851 771.88 203.993C771.875 208.636 770.811 231.136 773.313 233.731C773.973 234.415 773.71 234.173 774.641 234.686C773.757 235.374 773.425 235.705 773.085 236.782L773.575 237.615C774.763 237.967 776.195 238.302 777.437 237.946C778.775 237.561 779.772 236.661 780.529 235.525C784.842 229.06 784.83 201.703 782.979 193.86ZM254.782 195.194C254.966 193.883 255.036 193.819 254.372 192.69C251.908 191.48 246.72 191.394 244.152 192.296C243.072 192.675 242.359 193.193 241.855 194.226C239.243 199.584 240.964 229.514 243.532 235.182C244.087 236.407 244.976 238.004 246.262 238.569C247.862 239.272 250.25 238.717 251.709 237.903C253.489 236.911 254.816 235.341 255.279 233.341C255.461 232.555 255.479 231.953 255.275 231.163C254.068 230.679 253.008 230.904 251.76 231.059C250.24 230.318 249.498 229.705 248.917 228.071C247.16 223.135 247.441 202.397 249.549 197.706C251.452 197.541 252.856 198.662 254.277 199.855C253.339 199.949 252.416 200.095 251.485 200.246C251.209 200.621 251.134 200.678 250.956 201.184C249.691 204.799 249.592 224.332 251.348 227.651C251.91 228.714 252.126 229.233 253.339 229.59C253.792 229.313 253.85 229.319 254.24 228.84C257.118 225.306 254.957 200.756 254.782 195.194ZM671.007 204.405C660.997 203.788 650.884 203.959 640.854 203.79C614.121 203.541 587.386 203.443 560.652 203.494C501.559 203.283 442.466 203.429 383.375 203.931C384.885 205.618 386.183 206.826 386.265 209.226C386.328 211.08 385.092 213.712 384.489 215.484C398.836 215.608 413.21 216.237 427.551 215.878C437.847 215.621 448.109 214.641 458.364 213.74C461.99 213.422 466.834 212.492 470.37 213.34C470.22 213.39 470.07 213.443 469.919 213.491C456.34 217.774 421.958 218.119 406.992 217.717C400.294 217.537 393.233 216.708 386.561 217.006C384.631 217.093 383.248 217.423 382.101 219.025C382.321 220.794 383.413 221.502 384.807 222.599C398.756 233.562 415.937 238.949 433.639 236.748C446.571 235.141 463.649 227.608 472.668 218.096C472.439 217.166 472.226 216.808 471.741 216.007C471.23 215.165 470.845 214.481 470.61 213.514C470.746 212.832 470.861 212.149 471.158 211.513C471.926 209.866 473.51 207.753 475.321 207.209C476.509 206.852 477.807 207.12 478.807 207.832C480.81 209.26 480.781 211.457 481.024 213.688C499.885 215.004 518.547 215.642 537.425 214.385C539.894 214.221 543.357 214.422 545.653 213.52C545.653 213.172 545.663 212.824 545.655 212.476C545.64 211.876 545.534 211.056 545.663 210.446C546.016 208.786 547.038 207.394 548.615 206.707C549.773 206.203 551.162 206.17 552.315 206.711C554.49 207.732 554.816 210.121 555.386 212.207C576.105 214.109 596.833 216.112 617.667 215.401C622.903 215.222 634.098 215.457 638.607 214.216C639.828 213.88 640.169 213.554 641.002 212.663C641.312 210.794 641.424 208.907 643.24 207.85C645.009 206.819 646.631 207.58 648.386 208.191L649.026 208.419L649.515 207.986L649.335 206.167L649.734 205.711L651.297 206.414L651.475 213.265C678.201 215.809 706.151 216.873 732.84 213.35C732.422 211.508 731.916 208.852 733.159 207.195C734.07 205.981 734.565 205.909 735.957 205.555C736.885 205.757 737.606 205.923 738.362 206.551C740.291 208.154 740.493 210.392 740.822 212.727C748.806 213.042 756.532 215.713 764.525 216.21L764.431 204.506C754.109 204.527 743.776 204.951 733.462 204.886C712.653 204.756 691.816 204.15 671.007 204.405ZM735.604 206.482C735.297 207.031 734.866 207.706 734.681 208.321C733.689 211.605 736.183 214.81 737.734 217.536C737.828 218.218 737.801 218.242 738.066 218.982C739.809 223.851 751.447 231.375 756.016 233.669C758.257 234.794 762.203 236.823 764.604 236.041L764.914 234.875L764.55 217.934C757.393 217.461 749.817 214.605 742.793 214.858C740.316 214.947 739.306 215.768 737.734 217.536C737.906 215.179 739.294 212.67 738.888 210.32C738.556 208.402 737.139 207.403 735.604 206.482ZM765.599 549.456C765.253 523.57 764.175 497.696 764.143 471.805C764.046 393.984 765.854 316.178 764.904 238.354C753.616 235.513 744.771 229.481 736.821 221.069C724.625 233.033 706.69 239.122 689.747 238.896C673.724 238.682 656.588 232.009 645.417 220.362L644.867 219.785C633.664 231.733 616.202 236.935 600.192 237.443C582.197 238.014 567.04 230.9 553.207 219.96C573.159 342.536 619.649 508.728 725.376 584.651C726.765 585.648 728.156 586.655 729.606 587.564C731.828 587.542 734.056 587.556 736.276 587.475C718.058 569.769 708.509 555.19 695.228 534.091C665.568 486.25 643.173 434.272 628.777 379.855C622.902 356.955 618.04 333.806 614.205 310.477C612.197 298.965 610.415 287.415 608.859 275.833C608.04 269.837 606.899 263.594 606.871 257.542C606.866 256.513 606.947 255.738 607.37 254.784L607.99 255.071C610.237 264.808 610.681 275.391 612.151 285.323C615.156 305.739 618.731 326.067 622.871 346.284C636.518 413.709 662.334 478.084 699.055 536.256C711.369 555.662 721.802 571.182 738.562 587.173C741.362 586.776 744.175 586.42 746.968 585.977C734.086 567.996 723.821 543.693 715.377 523.234C708.585 506.779 701.4 490.315 695.682 473.456C675.706 414.555 664.461 351.489 655.709 290.011C654.575 282.042 649.035 249.198 649.837 244.718C649.955 244.06 650.027 243.992 650.288 243.477L651.113 243.857C653.416 250.352 653.259 259.031 654.197 265.921C656.654 283.9 659.281 301.855 662.079 319.785C670.279 369.919 680.169 420.439 696.254 468.704C703.237 489.658 711.932 510.565 720.712 530.834C728.484 548.775 737.519 569.499 748.876 585.442C754.492 584.238 760.008 582.608 765.376 580.565C725.656 495.83 709.168 396.092 700.305 303.524C699.704 297.248 696.126 267.189 697.589 263.052C697.65 262.878 697.747 262.717 697.826 262.55L698.553 262.761C700.3 268.782 700.29 281.261 700.854 288.16C702.184 303.848 703.739 319.517 705.519 335.16C711.785 389.472 721.021 444.164 736.319 496.716C739.826 508.764 744.024 520.64 748.12 532.499C753.531 548.17 759.078 565.082 767.246 579.558C764.372 557.806 760.604 536.25 757.457 514.549C754.502 492.9 751.798 471.218 749.346 449.507C745.058 408.738 742.107 367.84 740.5 326.878C739.707 309.759 739.118 292.632 738.732 275.499C738.664 270.405 738.122 244.121 740.053 241.566L740.847 241.988C741.884 246.774 740.729 253.43 740.614 258.501C740.506 265.158 740.543 271.816 740.724 278.471C741.505 311.144 742.944 343.798 745.038 376.413C747.54 415.746 751.418 454.978 756.667 494.039C758.173 505.784 759.799 517.512 761.545 529.224C762.567 536.045 763.921 542.952 764.614 549.808C764.72 551.434 764.578 554.758 765.75 555.887C766.513 553.903 765.979 551.491 765.599 549.456ZM324.426 614.034C324.653 621.941 325.68 629.974 326.42 637.857C331.83 695.475 347.807 751.475 353.879 809.051C354.1 811.342 354.423 813.668 354.532 815.965L354.861 818.902C357.148 839.318 358.572 859.594 358.533 880.155C358.738 880.155 358.943 880.153 359.147 880.155C364.899 880.211 373.521 886.783 378.421 882.26C380.056 880.752 379.794 877.808 379.654 875.792C379.299 870.66 378.05 865.382 377.158 860.31C375.561 851.532 374.142 842.723 372.901 833.888C367.478 783.461 359.318 733.366 348.459 683.825C343.101 659.36 335.161 635.272 330.731 610.634C328.693 611.886 326.552 612.942 324.426 614.034ZM802.479 817.453C801.76 804.247 800.483 791.067 799.944 777.853C799.229 760.348 799.238 742.814 798.047 725.328C794.711 681.751 790.809 638.218 786.342 594.742C781.981 598.81 777.737 601.937 772.129 604.092C770.63 678.329 775.846 752.548 787.713 825.845C789.632 837.804 792.255 849.584 794.315 861.499C795.475 868.215 795.91 875.137 797.747 881.711C800.533 882.449 803.057 883.511 805.793 882.043C806.968 880.285 806.831 878.406 806.781 876.311C806.596 868.556 805.198 860.749 804.53 853.01C803.51 841.203 803.075 829.29 802.479 817.453ZM785.683 826.626C776.145 768.383 771.048 709.5 770.438 650.484C770.214 635.246 769.521 619.758 770.271 604.543C763.401 606.914 756.521 609.255 749.489 611.106C751.105 646.915 753.322 682.694 756.137 718.428C758.807 756.595 761.299 794.778 765.749 832.792C768.274 851.089 771.167 869.005 774.791 887.114C776.855 886.581 778.877 885.9 780.907 885.25C784.725 886.007 791.947 889.728 795.366 888.037C797.25 882.113 787.415 836.592 785.683 826.626ZM237.179 594.274C236.25 612.174 233.959 630.167 232.665 648.075C227.938 707.934 223.888 767.843 220.516 827.793C219.839 845.348 218.991 862.896 217.972 880.435C221.987 883.923 225.951 887.469 229.865 891.07C231.09 870.522 233.307 850.157 235.727 829.726C237.929 810.071 241.402 790.591 244.118 771.009C247.826 744.279 250.362 717.776 251.199 690.797C251.644 679.143 251.471 667.473 250.681 655.837C249.529 637.929 247.482 619.945 248.145 601.98C244.346 599.545 240.63 597.199 237.179 594.274ZM353.881 828.859C352.501 814.573 351.084 800.328 348.991 786.124C345.379 761.612 340.491 737.313 336.055 712.941C330.134 680.411 323.508 647.483 322.861 614.306C319.991 614.918 317.239 615.476 314.301 615.654C316.12 648.548 320.024 681.912 324.538 714.554C327.268 734.291 330.711 753.967 332.678 773.799C334.993 797.129 335.402 820.971 335.484 844.416C335.571 851.615 335.426 858.814 335.048 866.004C334.743 871.389 333.91 876.919 334.143 882.307C334.54 882.289 334.937 882.279 335.333 882.248C336.507 882.157 337.869 881.869 339.037 882.005C342.505 882.408 345.292 887.367 349.062 887.015C351.302 886.806 354.035 885.024 355.294 883.177C358.598 878.328 355.093 836.417 353.881 828.859ZM249.8 602.919C249.105 615.559 250.697 628.626 251.6 641.247C252.732 657.079 253.406 672.751 253.146 688.627C252.365 736.282 244.037 782.732 237.668 829.807C235.451 848.23 232.79 866.884 232.217 885.442L232.212 884.657C240.576 889.718 244.897 889.737 254.464 888.784C255.647 870.573 257.605 852.457 259.063 834.274C265.483 759.413 272.712 686.223 270.97 610.87C263.72 608.59 256.659 606.247 249.8 602.919ZM706.055 612.324C701.638 641.896 695.643 671.312 690.645 700.797C686.662 724.288 683.643 747.942 680.01 771.49C676.821 792.162 673.299 812.663 671.148 833.487L669.208 858.274C668.614 865.123 667.681 872.104 668.025 878.988C670.842 881.575 673.891 885.334 678.09 885.108C681.478 884.925 686.293 881.596 690.585 880.75C689.345 865.848 690.283 851.187 690.56 836.279C691.441 811.625 694.038 785.925 696.387 761.303C698.073 743.636 712.176 616.594 711.179 613.438C709.647 612.334 707.908 612.489 706.055 612.324ZM763.795 833.468C756.353 759.643 750.962 685.625 747.628 611.5C742.17 612.465 736.665 613.149 731.136 613.55C730.152 624.292 730.596 635.065 730.778 645.836C730.953 659.19 731.213 672.543 731.556 685.893C732.329 720.174 733.796 754.435 735.956 788.655C736.959 805.182 737.711 821.845 739.422 838.314C740.107 854.544 741.881 870.711 744.731 886.704C749.966 888.856 757.365 896.255 761.285 896.259C765.836 896.264 770.237 891.198 773.382 888.31C768.283 870.275 767.139 851.804 763.795 833.468ZM273.001 611.194C273.903 629.698 273.28 648.289 272.773 666.797C272.059 693.441 270.73 720.064 268.785 746.647C266.53 776.068 263.396 805.422 261.011 834.834C259.152 854.35 255.863 875.599 256.732 895.095C262.218 894.993 266.532 894.258 271.36 891.382C276.981 874.84 280.268 857.519 283.311 840.355C289.062 808.829 290.503 768.215 291.664 735.77C293.122 695.05 294.404 655.375 292.162 614.66C285.77 613.456 279.353 612.646 273.001 611.194ZM669.227 834.877C670.698 812.264 675.249 789.885 678.693 767.514C682.04 745.771 684.854 723.943 688.516 702.25C693.607 672.094 699.655 642.007 704.268 611.783L694.819 609.62C691.693 624.781 686.793 639.373 683.032 654.359C676.315 681.126 670.398 708.375 664.946 735.431C658.2 768.907 655.268 802.629 651.578 836.502C651.149 845.96 643.517 878.87 646.937 885.215C647.507 886.272 648.293 887.152 649.536 887.366C653.979 888.131 661.762 882.397 665.562 880.058C665.497 865.096 668.335 849.849 669.227 834.877ZM713.642 613.103C711.966 624.686 711.248 636.569 710.074 648.225L704.311 702.308C699.677 747.142 694.348 792.233 692.445 837.272C691.368 850.835 690.911 865.647 692.358 879.17C692.669 882.074 694.512 883.793 695.314 886.422C696.594 890.614 694.943 896.074 699.038 899.129C702.2 901.487 707.154 900.691 710.764 899.98C722.619 897.647 731.768 890.959 742.823 886.981C739.307 871.345 738.229 854.394 737.417 838.394C736.023 828.038 735.805 817.254 735.131 806.807C733.737 786.43 732.609 766.035 731.747 745.628C730.539 718.946 729.707 692.249 729.254 665.544C728.922 648.276 728.366 630.757 729.233 613.507C724.033 613.508 718.822 613.606 713.642 613.103ZM285.24 839.872C282.505 856.969 278.745 873.887 273.981 890.533C277.889 889.976 281.712 889.468 285.596 890.539C290.145 891.794 293.976 895.101 298.276 897.031C306.935 900.918 321.752 902.491 328.304 894.206C334.533 886.328 333.536 855.44 333.541 844.887C333.379 821.64 333.096 798.034 330.816 774.894C328.58 752.198 324.535 729.602 321.453 707.001C317.348 676.895 314.135 646.044 312.45 615.713C306.344 615.654 300.241 615.38 294.154 614.892C296.157 655.109 295.221 694.751 293.57 734.973C292.128 770.091 290.369 805.064 285.24 839.872ZM180.627 198.1L180.525 211.513C199.476 209.411 219.291 210.386 238.356 210.429C239.631 208.816 238.992 202.308 238.972 200.013C219.837 200.229 199.584 200.999 180.627 198.1ZM796.873 199.25L785.555 199.363L785.647 209.288C801.472 209.713 817.334 209.471 833.165 209.497L843.826 209.559C843.514 206.015 843.528 202.503 843.551 198.948L796.873 199.25ZM257.49 203.451C257.538 207.467 257.533 211.489 257.865 215.494C266.343 215.332 274.845 215.03 283.324 215.082C283.709 212.609 284.26 210.176 286.455 208.649C287.62 207.838 288.359 207.832 289.735 207.895C290.903 208.587 291.557 209.094 292.009 210.428C292.407 211.601 292.29 213.263 292.243 214.493C318.462 214.377 344.753 213.616 370.954 214.554C372.737 214.557 374.25 214.885 375.743 213.833C376.485 208.687 373.967 208.233 378.574 203.938C358.157 203.408 337.689 203.661 317.265 203.579C297.357 203.5 277.391 203.068 257.49 203.451ZM766.139 204.401C766.178 206.687 766.228 208.96 766.14 211.246C766.086 212.645 766.308 213.781 766.705 215.114L767.468 215.888L769.855 215.768C770.345 212.599 770.882 208.698 769.733 205.651C768.501 204.317 767.901 204.567 766.139 204.401ZM379.115 204.907C378.023 206.045 377.332 206.765 376.934 208.354C377.196 209.642 377.282 210.125 378.528 210.852C379.876 211.638 381.853 211.618 383.364 211.705C384.057 210.4 384.659 209.425 384.262 207.877C383.982 206.788 382.911 205.678 381.854 205.261C380.957 204.907 380.062 204.879 379.115 204.907ZM550.397 208.828C548.607 208.94 547.243 210.474 547.338 212.264C547.434 214.054 548.955 215.433 550.746 215.354C552.561 215.274 553.962 213.729 553.865 211.915C553.768 210.101 552.21 208.714 550.397 208.828ZM644.97 208.841C643.96 210.244 643.206 211.261 643.49 213.098C643.792 215.051 644.919 216.167 646.407 217.351L646.721 217.203C647.899 215.961 649.11 214.773 649.269 212.969C649.378 211.729 649.015 210.649 648.061 209.817C647.256 209.115 645.983 208.962 644.97 208.841ZM287.763 209.175C286.369 210.921 284.948 212.599 285.095 214.962C285.142 215.721 285.538 216.415 286.125 216.913C286.427 217.169 286.984 217.357 287.357 217.501C288.963 215.91 290.779 214.306 290.72 211.861C290.699 211.019 290.203 210.58 289.752 209.913C289.083 209.625 288.474 209.341 287.763 209.175ZM475.555 209.813C474.317 210.91 473.255 211.774 473.053 213.513C472.896 214.863 473.083 215.162 473.86 216.158C474.915 216.461 475.379 216.525 476.431 216.189C477.804 214.897 478.716 214.087 479.23 212.24C478.974 210.868 478.868 210.931 477.742 210.073L475.555 209.813ZM378.101 212.585C378.141 214.526 377.871 216.582 379.172 218.094C380.267 218.289 380.808 218.293 381.859 217.921C382.51 216.354 383.191 215.344 382.988 213.641C381.401 212.712 379.836 212.9 378.101 212.585ZM555.153 214.06C554.1 215.345 553.539 215.714 553.382 217.4C555.107 221.732 568.365 228.933 572.817 230.857C588.944 237.827 608.451 237.302 624.661 230.834C628.11 229.458 631.38 227.781 634.643 226.015C637.271 224.33 642.9 221.417 643.385 218.045C643.499 217.25 643.06 216.759 642.716 216.075C638.397 215.482 633.549 216.391 629.183 216.665C623.478 216.971 617.768 217.182 612.056 217.297C593.586 217.642 573.451 216.517 555.153 214.06ZM651.309 215.083C651.176 215.213 651.045 215.344 650.911 215.472C649.746 216.592 649.049 217.174 647.483 217.583L646.545 218.701C648.843 224.069 660.414 230.249 665.669 232.363C682.481 239.008 701.247 238.685 717.82 231.464C720.191 230.439 722.532 229.234 724.787 227.974C728.97 225.497 732.631 223.15 735.895 219.51L733.558 214.919C713.705 217.287 693.8 217.447 673.833 216.677C666.39 216.39 658.672 216.288 651.309 215.083ZM345.372 215.746C333.629 215.971 321.885 216.112 310.14 216.169C304.433 216.204 298.011 215.658 292.376 216.483C291.58 216.599 291.07 216.884 290.45 217.377C289.887 218.563 289.75 218.81 290.276 220.125C292.648 226.06 309.199 232.684 315.028 234.308C318.442 235.26 321.86 235.887 325.374 236.317C343.402 238.017 361.671 234.213 375.768 222.194C376.911 221.219 377.841 220.565 378.163 219.026C377.826 217.551 377.787 217.455 376.659 216.452C370.534 215.029 352.586 215.659 345.372 215.746ZM480.4 215.592C479.869 216.075 478.744 216.762 478.793 217.509C478.968 220.143 482.138 222.766 484.092 224.199C494.424 231.775 506.991 235.426 519.702 233.286C526.814 232.088 533.811 228.919 539.762 224.892C542.507 222.891 547.028 220.044 548.576 217.016C547.658 216.056 547.086 215.803 545.728 215.74C538.382 215.397 528.366 217.154 520.289 217.207C506.948 217.295 493.706 215.842 480.4 215.592ZM258.058 217.127C258.138 222.784 259.434 232.992 256.036 237.456C255.809 237.754 255.606 238.071 255.392 238.379C256.179 238.196 256.964 238.047 257.753 237.883C263.393 236.71 269.867 233.047 274.673 229.928C278.129 227.381 283.907 223.764 285.031 219.415C284.559 218.115 284.493 217.88 283.149 217.266C279.475 215.586 263.028 217.081 258.058 217.127ZM766.493 217.545L766.278 423.607C765.603 460.567 765.841 497.538 766.992 534.486C767.386 549.194 766.393 564.337 769.014 578.867C772.3 576.67 775.532 574.545 778.232 571.621C782.42 565.646 784.093 558.411 784.863 551.239C785.771 542.784 785.501 534.047 785.798 525.54C787.442 478.454 783.667 431.552 781.154 384.573C779.917 361.443 779.224 338.249 777.649 315.145C776.092 292.301 773.648 269.544 771.54 246.749C770.677 237.42 771.259 227.739 770.066 218.516C768.871 217.482 768.04 217.671 766.493 217.545ZM550.095 218.315C542.429 225.625 533.269 231.773 522.916 234.513C527.838 267.5 534.182 300.259 541.928 332.699C560.425 411.466 590.809 512.551 658.248 563.178C671.28 572.961 685.749 581.67 701.563 585.94C710.113 587.764 718.166 588.145 726.89 587.851C710.468 576.866 695.741 562.832 682.512 548.224C630.46 490.749 600.375 417.732 579.103 344.108C571.192 317.259 564.49 290.067 559.02 262.615C556.912 251.756 554.879 240.883 552.922 229.996C552.441 227.234 552.373 221.465 551.221 219.175C551.206 219.146 550.327 218.4 550.315 218.393C550.251 218.348 550.168 218.341 550.095 218.315ZM475.429 219.074C471.704 233.246 469.405 247.631 466.354 261.941C461.79 283.177 456.605 304.276 450.807 325.21C430.861 398.77 398.513 468.388 355.156 531.071C340.681 551.893 325.201 572.277 306.11 589.145C313.862 588.976 321.322 588.362 328.913 586.672C341.554 582.734 351.941 575.111 362.073 566.821C391.66 542.613 414.075 512.594 431.81 478.853C468.251 409.52 491.29 311.663 500.006 233.843C494.764 231.793 489.716 229.529 485.096 226.274C482.059 224.134 478.802 220.4 475.429 219.074ZM287.379 220.316C277.313 231.543 271.224 234.694 257.261 239.909C255.793 277.676 257.317 315.714 258.991 353.45C260.051 377.343 261.417 401.262 261.336 425.187C261.135 456.589 260.17 487.981 258.442 519.336C257.359 538.717 254.904 558.682 255.42 578.064L259.132 579.713C273.993 497.025 282.472 413.317 284.493 329.328C284.703 321.086 284.698 245.559 285.694 243.833L286.38 244.164C287.964 248.931 286.916 271.867 286.915 278.849C287.074 332.63 284.66 386.388 279.681 439.938C275.929 484.677 271.197 529.699 261.99 573.695C277.538 544.54 286.395 510.734 293.92 478.725C306.817 422.675 314.57 364.897 319.776 307.648C320.38 301.002 323.015 256.502 324.321 254.701L325.175 254.786C326.374 258.245 323.385 287.278 322.947 292.751C319.408 337.237 313.837 381.538 306.252 425.516C297.735 474.905 287.283 526.248 265.278 571.632L260.873 580.532C264.614 582.113 268.487 583.829 272.59 584.081C287.443 577.666 305.263 532.86 311.237 517.801C338.474 449.143 354.343 375.618 365.515 302.776C369.544 276.511 372.471 250.127 376.285 223.839C362.164 234.868 344.277 239.911 326.475 237.883C311.275 236.158 298.812 230.288 287.379 220.316ZM472.405 220.434C457.297 233.129 439.365 240.336 419.376 238.486C411.756 237.742 404.325 235.674 397.416 232.375C393.196 230.371 383.063 222.528 379.476 222.385C378.174 223.937 377.931 226.827 377.595 228.805C375.104 243.432 373.65 258.291 371.695 273.001C368.851 294.519 365.547 315.974 361.785 337.351C350.486 402.26 333.896 469.407 308.274 530.196C302.83 543.112 297.192 556.681 289.483 568.414C285.261 574.841 280.674 580.108 274.92 585.171C280.339 586.654 285.676 587.651 291.227 588.466L291.192 588.426C303.553 573.252 312.947 555.549 322.81 538.683C331.027 524.631 339.282 510.621 346.623 496.083C380.484 429.029 400.723 358.107 412.996 284.25C413.669 280.08 416.414 258.296 417.61 256.634L418.384 256.755C420.315 260.1 406.611 329.616 404.393 339.763C402.644 347.413 400.733 355.025 398.662 362.595C385.855 411.81 367.613 459.448 344.273 504.63C338.001 516.654 331.06 528.284 324.221 539.988C314.532 556.57 305.075 572.868 293.753 588.401C297.027 588.979 300.161 589.072 303.479 589.091C323.35 572.443 340.2 549.49 354.799 528.198C409.171 448.896 441.301 365.47 462.217 272.078C464.98 259.742 467.188 247.326 469.824 234.974C470.656 231.077 472.78 225.402 472.846 221.694C472.855 221.135 472.792 220.802 472.405 220.434ZM253.326 239.366C252.001 240.018 250.974 240.197 250.44 241.716C249.572 244.186 247.919 280.37 247.443 286.666C241.089 370.785 232.571 455.864 238.961 540.215C239.485 547.136 240.448 565.246 244.031 570.534C244.798 571.666 245.847 572.299 246.953 573.046C248.957 574.262 250.978 575.667 253.118 576.622C255.333 544.268 257.025 511.882 258.191 479.474C258.897 458.667 259.647 437.735 259.365 416.917C258.778 373.543 255.26 330.238 254.615 286.852C254.53 281.182 255.286 240.928 254.676 239.684L253.326 239.366ZM785.818 556.915C783.687 566.709 781.13 573.331 772.358 578.878C754.239 590.333 720.085 592.423 699.738 587.57C697.647 587.053 695.568 586.487 693.503 585.875C690.82 590.173 688.464 594.719 689.587 599.96C690.25 603.055 691.877 605.117 694.037 607.34C698.444 609.501 703.946 610.212 708.785 610.785C728.396 613.112 747.121 610.859 765.751 604.451C773.499 601.786 783.208 597.668 786.891 589.79C790.775 581.482 788.539 565.98 786.198 557.331L785.818 556.915ZM238.177 557.865C237.272 559.733 236.777 561.507 236.326 563.53L240.383 568.075C241.09 566.682 239.462 560.497 238.801 558.805C238.626 558.358 238.456 558.197 238.177 557.865ZM236.051 566.865C235.42 574.334 234.72 582.832 236.219 590.228C247.266 604.594 274.127 610.512 291.289 612.774C302.461 614.246 320.375 616.431 329.76 608.891C330.262 608.488 330.663 608.073 331.05 607.56C333.806 601.049 334.878 593.948 334.168 586.913C308.831 595.048 276.351 591.267 252.718 579.072C246.58 575.905 241.243 571.365 236.051 566.865Z" fill="#0F120B"/>
<path d="M783.854 192.4L782.979 193.86L781.226 192.561L780.588 192.837C780.538 200.946 781.424 230.733 778.056 235.633L776.887 236.158C775.946 235.609 775.93 235.599 775.538 234.584C776.29 234.188 776.36 234.292 776.773 233.66C778.628 230.816 779.842 196.979 778.6 193.24C778.333 192.438 777.883 192.412 777.194 192.027C775.722 191.979 775.067 191.995 773.723 192.718C771.375 195.765 771.966 200.328 771.88 203.993C771.66 203.851 771.418 203.739 771.22 203.568C770.142 202.636 770.71 200.916 770.812 199.645C764.516 199.06 757.897 199.564 751.569 199.654C740.773 199.827 729.976 199.927 719.178 199.952C687.61 200.007 656.075 199.219 624.511 198.967C622.785 197.979 621.012 197.093 619.314 196.051C626.258 196.383 660.443 198.373 663.993 196.76C674.179 197.545 684.634 197.361 694.85 197.41C705.303 197.46 715.837 197.693 726.285 197.395C740.688 198.301 755.597 197.577 770.058 197.638C770.066 197.605 770.074 197.572 770.08 197.539C770.314 196.228 770.463 194.707 771.056 193.506C772.23 191.131 774.92 190.412 777.214 189.566C779.688 190.186 781.823 190.804 783.854 192.4Z" fill="url(#paint0_linear_407_581)"/>
<path d="M254.782 195.194C254.41 196.827 254.217 198.178 254.277 199.855C252.856 198.662 251.452 197.541 249.549 197.706C247.441 202.397 247.16 223.135 248.917 228.071C249.498 229.705 250.24 230.318 251.76 231.059C253.008 230.904 254.068 230.679 255.275 231.163C255.479 231.953 255.461 232.555 255.279 233.341C254.816 235.341 253.489 236.911 251.709 237.903C250.25 238.717 247.862 239.272 246.262 238.569C244.976 238.004 244.087 236.407 243.532 235.182C240.964 229.514 239.243 199.584 241.855 194.226C242.359 193.193 243.072 192.675 244.152 192.296C246.72 191.394 251.908 191.48 254.372 192.69C255.036 193.819 254.966 193.883 254.782 195.194Z" fill="#E6DFD5"/>
<path d="M771.88 203.993C771.966 200.328 771.375 195.765 773.723 192.718C775.067 191.995 775.722 191.979 777.194 192.027C777.883 192.412 778.333 192.438 778.6 193.24C779.842 196.979 778.628 230.816 776.773 233.66C776.36 234.292 776.29 234.188 775.538 234.584L774.641 234.686C773.71 234.173 773.973 234.415 773.313 233.731C770.811 231.136 771.875 208.636 771.88 203.993Z" fill="#F1D8F5"/>
<path d="M775.538 234.584C775.93 235.599 775.946 235.609 776.887 236.158L778.056 235.633C781.424 230.733 780.538 200.946 780.588 192.837L781.226 192.561L782.979 193.86C784.83 201.703 784.842 229.06 780.529 235.525C779.772 236.661 778.775 237.561 777.437 237.946C776.195 238.302 774.763 237.967 773.575 237.615L773.085 236.782C773.425 235.705 773.757 235.374 774.641 234.686L775.538 234.584Z" fill="url(#paint1_linear_407_581)"/>
<path d="M254.277 199.855C254.217 198.178 254.41 196.827 254.782 195.194C254.957 200.756 257.118 225.306 254.24 228.84C253.85 229.319 253.792 229.313 253.339 229.59C252.126 229.233 251.91 228.714 251.348 227.651C249.592 224.332 249.691 204.799 250.956 201.184C251.134 200.678 251.209 200.621 251.485 200.246C252.416 200.095 253.339 199.949 254.277 199.855Z" fill="#FBF8CC"/>
<path d="M180.525 211.513L180.627 198.1C199.584 200.999 219.837 200.229 238.972 200.013C238.992 202.308 239.631 208.816 238.356 210.429C219.291 210.386 199.476 209.411 180.525 211.513Z" fill="#FDE4CF"/>
<path d="M770.812 199.645L769.909 202.02C769.598 202.147 769.299 202.306 768.978 202.402C765.934 203.309 758.95 202.729 755.512 202.824C721.208 203.767 686.819 202.601 652.52 202.044C612.152 201.389 571.704 201.883 531.329 201.986L377.726 202.06C348.903 202.213 320.08 202.164 291.259 201.914L270.291 201.733C267.205 201.734 264.048 202.139 260.977 201.965C260.003 201.91 259.125 201.803 258.259 201.324C257.569 200.943 257.803 200.928 257.65 200.014C258.751 199.05 260.463 199.19 261.917 199.151C270.214 198.928 278.64 199.453 286.948 199.563C300.595 199.655 314.242 199.664 327.889 199.591L511.136 199.474C548.869 199.494 586.799 200.052 624.511 198.967C656.075 199.219 687.61 200.007 719.178 199.952C729.976 199.927 740.773 199.827 751.569 199.654C757.897 199.564 764.516 199.06 770.812 199.645Z" fill="url(#paint2_linear_407_581)"/>
<path d="M785.555 199.363L796.873 199.25L843.551 198.948C843.528 202.503 843.514 206.015 843.826 209.559L833.165 209.497C817.334 209.471 801.472 209.713 785.647 209.288L785.555 199.363Z" fill="#FBF8CC"/>
<path d="M257.865 215.494C257.533 211.489 257.538 207.467 257.49 203.451C277.391 203.068 297.357 203.5 317.265 203.579C337.689 203.661 358.157 203.408 378.574 203.938C373.967 208.233 376.485 208.687 375.743 213.833C374.25 214.885 372.737 214.557 370.954 214.554C344.753 213.616 318.462 214.377 292.243 214.493C292.29 213.263 292.407 211.601 292.009 210.428C291.557 209.094 290.903 208.587 289.735 207.895C288.359 207.832 287.62 207.838 286.455 208.649C284.26 210.176 283.709 212.609 283.324 215.082C274.845 215.03 266.343 215.332 257.865 215.494Z" fill="#FBF8CC"/>
<path d="M671.007 204.405C666.01 204.95 654.53 202.68 651.297 206.414L649.734 205.711L649.335 206.167L649.515 207.986L649.026 208.419L648.386 208.191C646.631 207.58 645.009 206.819 643.24 207.85C641.424 208.907 641.312 210.794 641.002 212.663C640.169 213.554 639.828 213.88 638.607 214.216C634.098 215.457 622.903 215.222 617.667 215.401C596.833 216.112 576.105 214.109 555.386 212.207C554.816 210.121 554.49 207.732 552.315 206.711C551.162 206.17 549.773 206.203 548.615 206.707C547.038 207.394 546.016 208.786 545.663 210.446C545.534 211.056 545.64 211.876 545.655 212.476C545.663 212.824 545.653 213.172 545.653 213.52C543.357 214.422 539.894 214.221 537.425 214.385C518.547 215.642 499.885 215.004 481.024 213.688C480.781 211.457 480.81 209.26 478.807 207.832C477.807 207.12 476.509 206.852 475.321 207.209C473.51 207.753 471.926 209.866 471.158 211.513C470.861 212.149 470.746 212.832 470.61 213.514L470.37 213.34C466.834 212.492 461.99 213.422 458.364 213.74C448.109 214.641 437.847 215.621 427.551 215.878C413.21 216.237 398.836 215.608 384.489 215.484C385.092 213.712 386.328 211.08 386.265 209.226C386.183 206.826 384.885 205.618 383.375 203.931C442.466 203.429 501.559 203.283 560.652 203.494C587.386 203.443 614.121 203.541 640.854 203.79C650.884 203.959 660.997 203.788 671.007 204.405Z" fill="#E6DFD5"/>
<path d="M651.297 206.414C654.53 202.68 666.01 204.95 671.007 204.405C691.816 204.15 712.653 204.756 733.462 204.886C743.776 204.951 754.109 204.527 764.431 204.506L764.525 216.21C756.532 215.713 748.806 213.042 740.822 212.727C740.493 210.392 740.291 208.154 738.362 206.551C737.606 205.923 736.885 205.757 735.957 205.555C734.565 205.909 734.07 205.981 733.159 207.195C731.916 208.852 732.422 211.508 732.84 213.35C706.151 216.873 678.201 215.809 651.475 213.265L651.297 206.414Z" fill="#F1D8F5"/>
<path d="M769.855 215.768L767.468 215.888L766.705 215.114C766.308 213.781 766.086 212.645 766.14 211.246C766.228 208.96 766.178 206.687 766.139 204.401C767.901 204.567 768.501 204.317 769.733 205.651C770.882 208.698 770.345 212.599 769.855 215.768Z" fill="#F1D8F5"/>
<path d="M383.364 211.705C381.853 211.618 379.876 211.638 378.528 210.852C377.282 210.125 377.196 209.642 376.934 208.354C377.332 206.765 378.023 206.045 379.115 204.907C380.062 204.879 380.957 204.907 381.854 205.261C382.911 205.678 383.982 206.788 384.262 207.877C384.659 209.425 384.057 210.4 383.364 211.705Z" fill="#E6DFD5"/>
<path d="M737.734 217.536C736.183 214.81 733.689 211.605 734.681 208.321C734.866 207.706 735.297 207.031 735.604 206.482C737.139 207.403 738.556 208.402 738.888 210.32C739.294 212.67 737.906 215.179 737.734 217.536Z" fill="#E6DFD5"/>
<path d="M550.746 215.354C548.955 215.433 547.434 214.054 547.338 212.264C547.243 210.474 548.607 208.94 550.397 208.828C552.21 208.714 553.768 210.101 553.865 211.915C553.962 213.729 552.561 215.274 550.746 215.354Z" fill="#E6DFD5"/>
<path d="M646.721 217.203L646.407 217.351C644.919 216.167 643.792 215.051 643.49 213.098C643.206 211.261 643.96 210.244 644.97 208.841C645.983 208.962 647.256 209.115 648.061 209.817C649.015 210.649 649.378 211.729 649.269 212.969C649.11 214.773 647.899 215.961 646.721 217.203Z" fill="#E6DFD5"/>
<path d="M287.357 217.501C286.984 217.357 286.427 217.169 286.125 216.913C285.538 216.415 285.142 215.721 285.095 214.962C284.948 212.599 286.369 210.921 287.763 209.175C288.474 209.341 289.083 209.625 289.752 209.913C290.203 210.58 290.699 211.019 290.72 211.861C290.779 214.306 288.963 215.91 287.357 217.501Z" fill="#FDE4CF"/>
<path d="M476.431 216.189C475.379 216.525 474.915 216.461 473.86 216.158C473.083 215.162 472.896 214.863 473.053 213.513C473.255 211.774 474.317 210.91 475.555 209.813L477.742 210.073C478.868 210.931 478.974 210.868 479.23 212.24C478.716 214.087 477.804 214.897 476.431 216.189Z" fill="#E6DFD5"/>
<path d="M381.859 217.921C380.808 218.293 380.267 218.289 379.172 218.094C377.871 216.582 378.141 214.526 378.101 212.585C379.836 212.9 381.401 212.712 382.988 213.641C383.191 215.344 382.51 216.354 381.859 217.921Z" fill="#E6DFD5"/>
<path d="M470.61 213.514C470.845 214.481 471.23 215.165 471.741 216.007C472.226 216.808 472.439 217.166 472.668 218.096C463.649 227.608 446.571 235.141 433.639 236.748C415.937 238.949 398.756 233.562 384.807 222.599C383.413 221.502 382.321 220.794 382.101 219.025C383.248 217.423 384.631 217.093 386.561 217.006C393.233 216.708 400.294 217.537 406.992 217.717C421.958 218.119 456.34 217.774 469.919 213.491C470.07 213.443 470.22 213.39 470.37 213.34L470.61 213.514Z" fill="#F1D8F5"/>
<path d="M634.643 226.015C631.38 227.781 628.11 229.458 624.661 230.834C608.451 237.302 588.944 237.827 572.817 230.857C568.365 228.933 555.107 221.732 553.382 217.4C553.539 215.714 554.1 215.345 555.153 214.06C573.451 216.517 593.586 217.642 612.056 217.297C617.768 217.182 623.478 216.971 629.183 216.665C633.549 216.391 638.397 215.482 642.716 216.075C643.06 216.759 643.499 217.25 643.385 218.045C642.9 221.417 637.271 224.33 634.643 226.015Z" fill="#F1D8F5"/>
<path d="M737.734 217.536C739.306 215.768 740.316 214.947 742.793 214.858C749.817 214.605 757.393 217.461 764.55 217.934L764.914 234.875L764.604 236.041C762.203 236.823 758.257 234.794 756.016 233.669C751.447 231.375 739.809 223.851 738.066 218.982C737.801 218.242 737.828 218.218 737.734 217.536Z" fill="#F1D8F5"/>
<path d="M724.787 227.974C722.532 229.234 720.191 230.439 717.82 231.464C701.247 238.685 682.481 239.008 665.669 232.363C660.414 230.249 648.843 224.069 646.545 218.701L647.483 217.583C649.049 217.174 649.746 216.592 650.911 215.472C651.045 215.344 651.176 215.213 651.309 215.083C658.672 216.288 666.39 216.39 673.833 216.677C693.8 217.447 713.705 217.287 733.558 214.919L735.895 219.51C732.631 223.15 728.97 225.497 724.787 227.974Z" fill="#F1D8F5"/>
<path d="M325.374 236.317C321.86 235.887 318.442 235.26 315.028 234.308C309.199 232.684 292.648 226.06 290.276 220.125C289.75 218.81 289.887 218.563 290.45 217.377C291.07 216.884 291.58 216.599 292.376 216.483C298.011 215.658 304.433 216.204 310.14 216.169C321.885 216.112 333.629 215.971 345.372 215.746C352.586 215.659 370.534 215.029 376.659 216.452C377.787 217.455 377.826 217.551 378.163 219.026C377.841 220.565 376.911 221.219 375.768 222.194C361.671 234.213 343.402 238.017 325.374 236.317Z" fill="#F1D8F5"/>
<path d="M539.762 224.892C533.811 228.919 526.814 232.088 519.702 233.286C506.991 235.426 494.424 231.775 484.092 224.199C482.138 222.766 478.968 220.143 478.793 217.509C478.744 216.762 479.869 216.075 480.4 215.592C493.706 215.842 506.948 217.295 520.289 217.207C528.366 217.154 538.382 215.397 545.728 215.74C547.086 215.803 547.658 216.056 548.576 217.016C547.028 220.044 542.507 222.891 539.762 224.892Z" fill="#F1D8F5"/>
<path d="M785.374 214.805C785.502 214.866 785.629 214.93 785.759 214.987C792.407 217.922 799.028 216.51 807.708 221.31C849.256 244.285 874.277 300.671 891.442 342.788C894.969 351.441 898.242 360.19 902.12 368.694C906.255 377.76 910.999 386.555 915.075 395.631L914.891 396.028C900.978 411.948 886.688 427.622 873.044 443.763C869.3 448.193 859.805 462.009 856.296 464.626C840.541 437.364 830.562 408.533 821.637 378.488C815.345 357.332 809.776 335.967 804.94 314.432C800.397 294.327 797.082 272.739 790.904 253.152C788.81 246.511 785.82 240.129 783.235 233.667C784.582 227.5 784.88 221.084 785.374 214.805Z" fill="#F1C0E8"/>
<path d="M274.673 229.928C269.867 233.047 263.393 236.71 257.753 237.883C256.964 238.047 256.179 238.196 255.392 238.379C255.606 238.071 255.809 237.754 256.036 237.456C259.434 232.992 258.138 222.784 258.058 217.127C263.028 217.081 279.475 215.586 283.149 217.266C284.493 217.88 284.559 218.115 285.031 219.415C283.907 223.764 278.129 227.381 274.673 229.928Z" fill="#E6EFE6"/>
<path d="M769.014 578.867C766.393 564.337 767.386 549.194 766.992 534.486C765.841 497.538 765.603 460.567 766.278 423.607L766.493 217.545C768.04 217.671 768.871 217.482 770.066 218.516C771.259 227.739 770.677 237.42 771.54 246.749C773.648 269.544 776.092 292.301 777.649 315.145C779.224 338.249 779.917 361.443 781.154 384.573C783.667 431.552 787.442 478.454 785.798 525.54C785.501 534.047 785.771 542.784 784.863 551.239C784.093 558.411 782.42 565.646 778.232 571.621C775.532 574.545 772.3 576.67 769.014 578.867Z" fill="#8EECF5"/>
<path d="M522.916 234.513C533.269 231.773 542.429 225.625 550.095 218.315C550.168 218.341 550.251 218.348 550.315 218.393C550.327 218.4 551.206 219.146 551.221 219.175C552.373 221.465 552.441 227.234 552.922 229.996C554.879 240.883 556.912 251.756 559.02 262.615C564.49 290.067 571.192 317.259 579.103 344.108C600.375 417.732 630.46 490.749 682.512 548.224C695.741 562.832 710.468 576.866 726.89 587.851C718.166 588.145 710.113 587.764 701.563 585.94C685.749 581.67 671.28 572.961 658.248 563.178C590.809 512.551 560.425 411.466 541.928 332.699C534.182 300.259 527.838 267.5 522.916 234.513Z" fill="#8EECF5"/>
<path d="M306.11 589.145C325.201 572.277 340.681 551.893 355.156 531.071C398.513 468.388 430.861 398.77 450.807 325.21C456.605 304.276 461.79 283.177 466.354 261.941C469.405 247.631 471.704 233.246 475.429 219.074C478.802 220.4 482.059 224.134 485.096 226.274C489.716 229.529 494.764 231.793 500.006 233.843C491.29 311.663 468.251 409.52 431.81 478.853C414.075 512.594 391.66 542.613 362.073 566.821C351.941 575.111 341.554 582.734 328.913 586.672C321.322 588.362 313.862 588.976 306.11 589.145Z" fill="#8EECF5"/>
<path d="M764.904 238.354C765.854 316.178 764.046 393.984 764.143 471.805C764.175 497.696 765.253 523.57 765.599 549.456L764.614 549.808C763.921 542.952 762.567 536.045 761.545 529.224C759.799 517.512 758.173 505.784 756.667 494.039C751.418 454.978 747.54 415.746 745.038 376.413C742.944 343.798 741.505 311.144 740.724 278.471C740.543 271.816 740.506 265.158 740.614 258.501C740.729 253.43 741.884 246.774 740.847 241.988L740.053 241.566C738.122 244.121 738.664 270.405 738.732 275.499C739.118 292.632 739.707 309.759 740.5 326.878C742.107 367.84 745.058 408.738 749.346 449.507C751.798 471.218 754.502 492.9 757.457 514.549C760.604 536.25 764.372 557.806 767.246 579.558C759.078 565.082 753.531 548.17 748.12 532.499C744.024 520.64 739.826 508.764 736.319 496.716C721.021 444.164 711.785 389.472 705.519 335.16C703.739 319.517 702.184 303.848 700.854 288.16C700.29 281.261 700.3 268.782 698.553 262.761L697.826 262.55C697.747 262.717 697.65 262.878 697.589 263.052C696.126 267.189 699.704 297.248 700.305 303.524C709.168 396.092 725.656 495.83 765.376 580.565C760.008 582.608 754.492 584.238 748.876 585.442C737.519 569.499 728.484 548.775 720.712 530.834C711.932 510.565 703.237 489.658 696.254 468.704C680.169 420.439 670.279 369.919 662.079 319.785C659.281 301.855 656.654 283.9 654.197 265.921C653.259 259.031 653.416 250.352 651.113 243.857L650.288 243.477C650.027 243.992 649.955 244.06 649.837 244.718C649.035 249.198 654.575 282.042 655.709 290.011C664.461 351.489 675.706 414.555 695.682 473.456C701.4 490.315 708.585 506.779 715.377 523.234C723.821 543.693 734.086 567.996 746.968 585.977C744.175 586.42 741.362 586.776 738.562 587.173C721.802 571.182 711.369 555.662 699.055 536.256C662.334 478.084 636.518 413.709 622.871 346.284C618.731 326.067 615.156 305.739 612.151 285.323C610.681 275.391 610.237 264.808 607.99 255.071L607.37 254.784C606.947 255.738 606.866 256.513 606.871 257.542C606.899 263.594 608.04 269.837 608.859 275.833C610.415 287.415 612.197 298.965 614.205 310.477C618.04 333.806 622.902 356.955 628.777 379.855C643.173 434.272 665.568 486.25 695.228 534.091C708.509 555.19 718.058 569.769 736.276 587.475C734.056 587.556 731.828 587.542 729.606 587.564C728.156 586.655 726.765 585.648 725.376 584.651C619.649 508.728 573.159 342.536 553.207 219.96C567.04 230.9 582.197 238.014 600.192 237.443C616.202 236.935 633.664 231.733 644.867 219.785L645.417 220.362C656.588 232.009 673.724 238.682 689.747 238.896C706.69 239.122 724.625 233.033 736.821 221.069C744.771 229.481 753.616 235.513 764.904 238.354Z" fill="#8EECF5"/>
<path d="M257.261 239.909C271.224 234.694 277.313 231.543 287.379 220.316C298.812 230.288 311.275 236.158 326.475 237.883C344.277 239.911 362.164 234.868 376.285 223.839C372.471 250.127 369.544 276.511 365.515 302.776C354.343 375.618 338.474 449.143 311.237 517.801C305.263 532.86 287.443 577.666 272.59 584.081C268.487 583.829 264.614 582.113 260.873 580.532L265.278 571.632C287.283 526.248 297.735 474.905 306.252 425.516C313.837 381.538 319.408 337.237 322.947 292.751C323.385 287.278 326.374 258.245 325.175 254.786L324.321 254.701C323.015 256.502 320.38 301.002 319.776 307.648C314.57 364.897 306.817 422.675 293.92 478.725C286.395 510.734 277.538 544.54 261.99 573.695C271.197 529.699 275.929 484.677 279.681 439.938C284.66 386.388 287.074 332.63 286.915 278.849C286.916 271.867 287.964 248.931 286.38 244.164L285.694 243.833C284.698 245.559 284.703 321.086 284.493 329.328C282.472 413.317 273.993 497.025 259.132 579.713L255.42 578.064C254.904 558.682 257.359 538.717 258.442 519.336C260.17 487.981 261.135 456.589 261.336 425.187C261.417 401.262 260.051 377.343 258.991 353.45C257.317 315.714 255.793 277.676 257.261 239.909Z" fill="#8EECF5"/>
<path d="M274.92 585.171C280.674 580.108 285.261 574.841 289.483 568.414C297.192 556.681 302.83 543.112 308.274 530.196C333.896 469.407 350.486 402.26 361.785 337.351C365.547 315.974 368.851 294.519 371.695 273.001C373.65 258.291 375.104 243.432 377.595 228.805C377.931 226.827 378.174 223.937 379.476 222.385C383.063 222.528 393.196 230.371 397.416 232.375C404.325 235.674 411.756 237.742 419.376 238.486C439.365 240.336 457.297 233.129 472.405 220.434C472.792 220.802 472.855 221.135 472.846 221.694C472.78 225.402 470.656 231.077 469.824 234.974C467.188 247.326 464.98 259.742 462.217 272.078C441.301 365.47 409.171 448.896 354.799 528.198C340.2 549.49 323.35 572.443 303.479 589.091C300.161 589.072 297.027 588.979 293.753 588.401C305.075 572.868 314.532 556.57 324.221 539.988C331.06 528.284 338.001 516.654 344.273 504.63C367.613 459.448 385.855 411.81 398.662 362.595C400.733 355.025 402.644 347.413 404.393 339.763C406.611 329.616 420.315 260.1 418.384 256.755L417.61 256.634C416.414 258.296 413.669 280.08 412.996 284.25C400.723 358.107 380.484 429.029 346.623 496.083C339.282 510.621 331.027 524.631 322.81 538.683C312.947 555.549 303.553 573.252 291.192 588.426L291.227 588.466C285.676 587.651 280.339 586.654 274.92 585.171Z" fill="#8EECF5"/>
<path d="M772.575 240.151C774.836 240.041 777.277 239.974 779.371 239.012C781.744 237.921 782.476 236.016 783.235 233.667C785.82 240.129 788.81 246.511 790.904 253.152C797.082 272.739 800.397 294.327 804.94 314.432C809.776 335.967 815.345 357.332 821.637 378.488C830.562 408.533 840.541 437.364 856.296 464.626L855.953 465.487C839.842 485.542 829.106 512.456 823.514 537.4C818.848 558.213 818.402 579.544 816.616 600.721C814.634 624.233 810.546 647.059 803.345 669.55C801.763 674.491 801.133 681.102 796.598 684.158L790.032 617.775C789.163 609.78 788.967 601.294 787.331 593.449C794.724 579.012 787.356 563.616 787.246 548.572C787.095 528.019 788.28 507.504 787.864 486.923C787.198 453.987 785.09 421.189 783.241 388.315C782.018 364.186 780.672 340.064 779.204 315.949C777.35 290.653 775.141 265.384 772.575 240.151Z" fill="#F69AF6"/>
<path d="M240.719 233.963C241.751 236.542 242.703 239.233 245.498 240.355C246.509 240.761 247.591 241.035 248.642 241.319C243.943 314.598 236.772 387.523 235.235 460.976C234.583 483.679 234.937 506.399 236.297 529.071C236.809 537.43 237.128 546.137 238.51 554.398C237.451 555.628 236.303 556.887 235.652 558.391C232.904 564.738 233.567 575.772 234.044 582.634C234.352 587.053 235.396 591.499 235.405 595.924C235.414 600.32 230.483 653.958 230.132 654.819C229.56 652.18 230 649.969 228.393 647.442C225.547 642.967 221.698 638.801 218.436 634.576C211.673 625.783 205.016 616.908 198.466 607.955C190.795 597.355 183.584 586.427 175.918 575.826C168.671 565.803 160.911 556.108 153.896 545.926C145.849 534.245 138.447 522.098 130.539 510.319L130.463 509.897C132.252 504.134 135.49 498.38 138.079 492.928C142.773 482.814 147.739 472.828 152.971 462.981C157.088 455.403 161.668 448.085 165.84 440.538C174.796 424.07 183.444 407.436 191.779 390.645C198.497 377.299 205.427 363.926 211.304 350.187C222.417 324.204 231.411 297.052 236.172 269.123C237.358 262.164 237.995 255.161 238.676 248.139C239.104 243.715 239.201 238.632 240.565 234.408C240.613 234.258 240.667 234.111 240.719 233.963Z" fill="#FDE4CF"/>
<path d="M381.42 552.272C393.663 539.74 404.755 526.133 414.563 511.615C453.401 454.004 475.003 379.158 489.23 311.651C493.207 293.583 496.492 275.37 499.078 257.052C500.127 249.537 501.32 241.861 501.695 234.276C508.487 235.861 514.149 235.982 521.064 235.127C526.158 268.29 532.578 301.237 540.308 333.887C558.024 409.414 586.314 502.952 646.137 556.007C645.974 556.25 645.809 556.491 645.65 556.736C643.366 560.235 641.802 564.668 640.004 568.458C636.871 575.059 633.55 581.504 629.727 587.735C608.206 622.803 582.755 648.336 544.846 665.289C534.339 669.988 523.172 674.116 511.938 676.651C479.538 683.963 449.1 684.836 416.437 678.474C413.294 677.861 410.102 677.229 407.059 676.218C402.815 674.806 397.372 671.82 392.967 671.42C397.647 643.981 394.808 608.016 389.08 580.895C387.045 571.263 384.18 561.72 381.42 552.272Z" fill="#B9FBC0"/>
<path d="M246.953 573.046C245.847 572.299 244.798 571.666 244.031 570.534C240.448 565.246 239.485 547.136 238.961 540.215C232.571 455.864 241.089 370.785 247.443 286.666C247.919 280.37 249.572 244.186 250.44 241.716C250.974 240.197 252.001 240.018 253.326 239.366L254.676 239.684C255.286 240.928 254.53 281.182 254.615 286.852C255.26 330.238 258.778 373.543 259.365 416.917C259.647 437.735 258.897 458.667 258.191 479.474C257.025 511.882 255.333 544.268 253.118 576.622C250.978 575.667 248.957 574.262 246.953 573.046Z" fill="#8EECF5"/>
<path d="M856.296 464.626C859.805 462.009 869.3 448.193 873.044 443.763C886.688 427.622 900.978 411.948 914.891 396.028C952.559 470.343 984.852 536.586 978.961 622.671C977.834 639.138 976.085 656.93 970.944 672.668C956.69 716.306 936.318 753.412 893.763 775.054C876.443 783.863 855.255 787.924 836.148 783.127C841.379 776.176 845.814 768.594 850.287 761.142C874.236 721.254 889.067 677.338 891.77 630.719C894.635 581.316 887.436 531.068 866.61 485.892C863.885 479.98 860.193 470.254 855.953 465.487L856.296 464.626Z" fill="#F1D8F5"/>
<path d="M855.953 465.487C860.193 470.254 863.885 479.98 866.61 485.892C887.436 531.068 894.635 581.316 891.77 630.719C889.067 677.338 874.236 721.254 850.287 761.142C845.814 768.594 841.379 776.176 836.148 783.127L835.47 783.881C826.725 793.718 820.854 804.306 809.824 812.134C808.13 813.336 806.448 814.705 804.485 815.416C804.153 803.624 802.656 791.82 802.14 780.019C801.415 763.432 801.302 746.822 800.437 730.242C799.635 714.861 798.13 699.481 796.598 684.158C801.133 681.102 801.763 674.491 803.345 669.55C810.546 647.059 814.634 624.233 816.616 600.721C818.402 579.544 818.848 558.213 823.514 537.4C829.106 512.456 839.842 485.542 855.953 465.487Z" fill="#CFBAF0"/>
<path d="M130.539 510.319C138.447 522.098 145.849 534.245 153.896 545.926C160.911 556.108 168.671 565.803 175.918 575.826C183.584 586.427 190.795 597.355 198.466 607.955C205.016 616.908 211.673 625.783 218.436 634.576C221.698 638.801 225.547 642.967 228.393 647.442C230 649.969 229.56 652.18 230.132 654.819C229.215 675.041 227.439 695.32 225.981 715.516C223.068 753.011 220.588 790.539 218.543 828.091C205.256 828.052 190.735 826.108 178.176 821.697C151.293 812.254 127.556 792.549 115.277 766.626C109.05 753.479 104.309 738.584 101.764 724.253C99.9711 714.158 99.5318 703.897 98.97 693.677C96.9768 657.418 97.6177 618.637 106.081 583.155C109.797 567.574 113.946 551.43 119.621 536.442C122.881 527.829 127.241 519.615 130.322 510.944L130.539 510.319Z" fill="#FBF8CC"/>
<path d="M765.599 549.456C765.979 551.491 766.513 553.903 765.75 555.887C764.578 554.758 764.72 551.434 764.614 549.808L765.599 549.456Z" fill="#778B7D"/>
<path d="M335.949 586.288C352.624 578.456 368.299 565.145 381.42 552.272C384.18 561.72 387.045 571.263 389.08 580.895C394.808 608.016 397.647 643.981 392.967 671.42C387.338 670.413 362.497 654.569 356.996 650.439C353.814 648.051 341.883 637.066 340.287 636.25C339.796 635.999 339.209 636.019 338.67 635.903C336.168 627.035 334.277 618.041 332.47 609.01C335.616 601.394 336.308 594.463 335.949 586.288Z" fill="#D3D588"/>
<path d="M392.967 671.42C397.372 671.82 402.815 674.806 407.059 676.218C410.102 677.229 413.294 677.861 416.437 678.474C449.1 684.836 479.538 683.963 511.938 676.651C523.172 674.116 534.339 669.988 544.846 665.289C582.755 648.336 608.206 622.803 629.727 587.735C633.55 581.504 636.871 575.059 640.004 568.458C641.802 564.668 643.366 560.235 645.65 556.736C645.809 556.491 645.974 556.25 646.137 556.007C660.233 567.951 674.905 577.439 691.756 585.057C688.896 590.177 686.11 595.636 687.929 601.651C688.839 604.662 690.605 606.891 692.988 608.867C690.164 623.996 685.011 638.59 681.267 653.502C675.078 678.146 669.848 703.184 664.527 728.026C661.366 742.951 658.751 757.986 656.688 773.102C655.668 780.134 655.45 788.091 653.708 794.884C649.348 795.06 617.422 820.624 609.137 820.628C601.043 817.806 593.214 814.151 585.374 810.695C536.033 788.943 491.12 758.565 450.178 723.601C430.608 706.888 412.121 688.921 392.969 671.739L392.967 671.42Z" fill="#98F5E1"/>
<path d="M693.503 585.875C695.568 586.487 697.647 587.053 699.738 587.57C720.085 592.423 754.239 590.333 772.358 578.878C781.13 573.331 783.687 566.709 785.818 556.915L786.198 557.331C788.539 565.98 790.775 581.482 786.891 589.79C783.208 597.668 773.499 601.786 765.751 604.451C747.121 610.859 728.396 613.112 708.785 610.785C703.946 610.212 698.444 609.501 694.037 607.34C691.877 605.117 690.25 603.055 689.587 599.96C688.464 594.719 690.82 590.173 693.503 585.875Z" fill="#8EECF5"/>
<path d="M236.326 563.53C236.777 561.507 237.272 559.733 238.177 557.865C238.456 558.197 238.626 558.358 238.801 558.805C239.462 560.497 241.09 566.682 240.383 568.075L236.326 563.53Z" fill="#E6DFD5"/>
<path d="M236.219 590.228C234.72 582.832 235.42 574.334 236.051 566.865C241.243 571.365 246.58 575.905 252.718 579.072C276.351 591.267 308.831 595.048 334.168 586.913C334.878 593.948 333.806 601.049 331.05 607.56C330.663 608.073 330.262 608.488 329.76 608.891C320.375 616.431 302.461 614.246 291.289 612.774C274.127 610.512 247.266 604.594 236.219 590.228Z" fill="#8EECF5"/>
<path d="M220.516 827.793C223.888 767.843 227.938 707.934 232.665 648.075C233.959 630.167 236.25 612.174 237.179 594.274C240.63 597.199 244.346 599.545 248.145 601.98C247.482 619.945 249.529 637.929 250.681 655.837C251.471 667.473 251.644 679.143 251.199 690.797C250.362 717.776 247.826 744.279 244.118 771.009C241.402 790.591 237.929 810.071 235.727 829.726C230.629 829.105 225.667 828.054 220.516 827.793Z" fill="#8EECF5"/>
<path d="M802.479 817.453C797.614 818.801 792.45 822.296 788.091 824.848L787.713 825.845C775.846 752.548 770.63 678.329 772.129 604.092C777.737 601.937 781.981 598.81 786.342 594.742C790.809 638.218 794.711 681.751 798.047 725.328C799.238 742.814 799.229 760.348 799.944 777.853C800.483 791.067 801.76 804.247 802.479 817.453Z" fill="#8EECF5"/>
<path d="M237.668 829.807C244.037 782.732 252.365 736.282 253.146 688.627C253.406 672.751 252.732 657.079 251.6 641.247C250.697 628.626 249.105 615.559 249.8 602.919C256.659 606.247 263.72 608.59 270.97 610.87C272.712 686.223 265.483 759.413 259.063 834.274C251.955 832.674 244.822 831.186 237.668 829.807Z" fill="#8EECF5"/>
<path d="M785.683 826.626C779.011 828.592 772.601 831.478 765.749 832.792C761.299 794.778 758.807 756.595 756.137 718.428C753.322 682.694 751.105 646.915 749.489 611.106C756.521 609.255 763.401 606.914 770.271 604.543C769.521 619.758 770.214 635.246 770.438 650.484C771.048 709.5 776.145 768.383 785.683 826.626Z" fill="#8EECF5"/>
<path d="M669.227 834.877L668.652 833.77C663.572 832.652 656.769 835.871 651.578 836.502C655.268 802.629 658.2 768.907 664.946 735.431C670.398 708.375 676.315 681.126 683.032 654.359C686.793 639.373 691.693 624.781 694.819 609.62L704.268 611.783C699.655 642.007 693.607 672.094 688.516 702.25C684.854 723.943 682.04 745.771 678.693 767.514C675.249 789.885 670.698 812.264 669.227 834.877Z" fill="#8EECF5"/>
<path d="M353.879 809.051C347.807 751.475 331.83 695.475 326.42 637.857C325.68 629.974 324.653 621.941 324.426 614.034C326.552 612.942 328.693 611.886 330.731 610.634C335.161 635.272 343.101 659.36 348.459 683.825C359.318 733.366 367.478 783.461 372.901 833.888C367.41 829.264 361.562 821.609 354.861 818.902L354.532 815.965C355.89 816.162 357.426 816.552 358.764 816.151C359.489 815.934 359.598 815.448 359.979 814.856C359.958 814.141 359.872 813.613 359.517 812.98C358.006 810.279 356.726 809.823 353.879 809.051Z" fill="#8EECF5"/>
<path d="M261.011 834.834C263.396 805.422 266.53 776.068 268.785 746.647C270.73 720.064 272.059 693.441 272.773 666.797C273.28 648.289 273.903 629.698 273.001 611.194C279.353 612.646 285.77 613.456 292.162 614.66C294.404 655.375 293.122 695.05 291.664 735.77C290.503 768.215 289.062 808.829 283.311 840.355L283.022 839.443C279.562 836.989 265.926 835.882 261.011 834.834Z" fill="#8EECF5"/>
<path d="M763.795 833.468C755.81 835.174 747.538 837.544 739.422 838.314C737.711 821.845 736.959 805.182 735.956 788.655C733.796 754.435 732.329 720.174 731.556 685.893C731.213 672.543 730.953 659.19 730.778 645.836C730.596 635.065 730.152 624.292 731.136 613.55C736.665 613.149 742.17 612.465 747.628 611.5C750.962 685.625 756.353 759.643 763.795 833.468Z" fill="#8EECF5"/>
<path d="M671.148 833.487C673.299 812.663 676.821 792.162 680.01 771.49C683.643 747.942 686.662 724.288 690.645 700.797C695.643 671.312 701.638 641.896 706.055 612.324C707.908 612.489 709.647 612.334 711.179 613.438C712.176 616.594 698.073 743.636 696.387 761.303C694.038 785.925 691.441 811.625 690.56 836.279C684.074 835.663 677.663 834.151 671.148 833.487Z" fill="#8EECF5"/>
<path d="M692.445 837.272C694.348 792.233 699.677 747.142 704.311 702.308L710.074 648.225C711.248 636.569 711.966 624.686 713.642 613.103C718.822 613.606 724.033 613.508 729.233 613.507C728.366 630.757 728.922 648.276 729.254 665.544C729.707 692.249 730.539 718.946 731.747 745.628C732.609 766.035 733.737 786.43 735.131 806.807C735.805 817.254 736.023 828.038 737.417 838.394C722.203 839.279 707.613 838.763 692.445 837.272Z" fill="#8EECF5"/>
<path d="M353.881 828.859C353.706 829.019 353.529 829.177 353.356 829.34C352.072 830.549 351.116 832.189 350.027 833.582C346.003 838.734 341.609 842.103 335.484 844.416C335.402 820.971 334.993 797.129 332.678 773.799C330.711 753.967 327.268 734.291 324.538 714.554C320.024 681.912 316.12 648.548 314.301 615.654C317.239 615.476 319.991 614.918 322.861 614.306C323.508 647.483 330.134 680.411 336.055 712.941C340.491 737.313 345.379 761.612 348.991 786.124C351.084 800.328 352.501 814.573 353.881 828.859Z" fill="#8EECF5"/>
<path d="M285.24 839.872C290.369 805.064 292.128 770.091 293.57 734.973C295.221 694.751 296.157 655.109 294.154 614.892C300.241 615.38 306.344 615.654 312.45 615.713C314.135 646.044 317.348 676.895 321.453 707.001C324.535 729.602 328.58 752.198 330.816 774.894C333.096 798.034 333.379 821.64 333.541 844.887C317.065 847.244 301.187 843.882 285.24 839.872Z" fill="#8EECF5"/>
<path d="M338.67 635.903C339.209 636.019 339.796 635.999 340.287 636.25C341.883 637.066 353.814 648.051 356.996 650.439C362.497 654.569 387.338 670.413 392.967 671.42L392.969 671.739C391.444 676.401 391.779 681.76 390.765 686.608C387.916 700.222 374.297 760.853 366.318 768.229C359.763 723.403 349.133 679.903 338.67 635.903Z" fill="#FBF8CC"/>
<path d="M366.318 768.229C374.297 760.853 387.916 700.222 390.765 686.608C391.779 681.76 391.444 676.401 392.969 671.739C412.121 688.921 430.608 706.888 450.178 723.601C491.12 758.565 536.033 788.943 585.374 810.695C593.214 814.151 601.043 817.806 609.137 820.628L609.693 821.004C599.149 827.37 586.31 831.597 574.679 835.518C522.456 853.126 464.345 859.593 410.301 846.227C402.979 844.392 395.744 842.223 388.619 839.727C385.008 838.485 381.3 836.595 377.557 835.925C376.647 835.763 376.044 835.884 375.269 836.347C373.955 829.671 373.509 822.586 372.645 815.816C370.722 799.93 368.612 784.066 366.318 768.229Z" fill="#E6EFE6"/>
<path d="M609.137 820.628C617.422 820.624 649.348 795.06 653.708 794.884C652.772 806.664 651.661 818.621 650.083 830.328C642.205 829.235 634.478 827.949 626.781 825.885C621.081 824.357 615.455 822.238 609.693 821.004L609.137 820.628Z" fill="#8EECF5"/>
<path d="M353.879 809.051C356.726 809.823 358.006 810.279 359.517 812.98C359.872 813.613 359.958 814.141 359.979 814.856C359.598 815.448 359.489 815.934 358.764 816.151C357.426 816.552 355.89 816.162 354.532 815.965C354.423 813.668 354.1 811.342 353.879 809.051Z" fill="#98F5E1"/>
<path d="M787.713 825.845L788.091 824.848C792.45 822.296 797.614 818.801 802.479 817.453C803.075 829.29 803.51 841.203 804.53 853.01C805.198 860.749 806.596 868.556 806.781 876.311C806.831 878.406 806.968 880.285 805.793 882.043C803.057 883.511 800.533 882.449 797.747 881.711C795.91 875.137 795.475 868.215 794.315 861.499C792.255 849.584 789.632 837.804 787.713 825.845Z" fill="#E6DFD5"/>
<path d="M354.861 818.902C361.562 821.609 367.41 829.264 372.901 833.888C374.142 842.723 375.561 851.532 377.158 860.31C378.05 865.382 379.299 870.66 379.654 875.792C379.794 877.808 380.056 880.752 378.421 882.26C373.521 886.783 364.899 880.211 359.147 880.155C358.943 880.153 358.738 880.155 358.533 880.155C358.572 859.594 357.148 839.318 354.861 818.902Z" fill="#E6DFD5"/>
<path d="M765.749 832.792C772.601 831.478 779.011 828.592 785.683 826.626C787.415 836.592 797.25 882.113 795.366 888.037C791.947 889.728 784.725 886.007 780.907 885.25C778.877 885.9 776.855 886.581 774.791 887.114C771.167 869.005 768.274 851.089 765.749 832.792Z" fill="#E6EFE6"/>
<path d="M220.516 827.793C225.667 828.054 230.629 829.105 235.727 829.726C233.307 850.157 231.09 870.522 229.865 891.07C225.951 887.469 221.987 883.923 217.972 880.435C218.991 862.896 219.839 845.348 220.516 827.793Z" fill="#E6DFD5"/>
<path d="M335.484 844.416C341.609 842.103 346.003 838.734 350.027 833.582C351.116 832.189 352.072 830.549 353.356 829.34C353.529 829.177 353.706 829.019 353.881 828.859C355.093 836.417 358.598 878.328 355.294 883.177C354.035 885.024 351.302 886.806 349.062 887.015C345.292 887.367 342.505 882.408 339.037 882.005C337.869 881.869 336.507 882.157 335.333 882.248C334.937 882.279 334.54 882.289 334.143 882.307C333.91 876.919 334.743 871.389 335.048 866.004C335.426 858.814 335.571 851.615 335.484 844.416Z" fill="#E6DFD5"/>
<path d="M237.668 829.807C244.822 831.186 251.955 832.674 259.063 834.274C257.605 852.457 255.647 870.573 254.464 888.784C244.897 889.737 240.576 889.718 232.212 884.657L232.217 885.442C232.79 866.884 235.451 848.23 237.668 829.807Z" fill="#E6DFD5"/>
<path d="M651.578 836.502C656.769 835.871 663.572 832.652 668.652 833.77L669.227 834.877C668.335 849.849 665.497 865.096 665.562 880.058C661.762 882.397 653.979 888.131 649.536 887.366C648.293 887.152 647.507 886.272 646.937 885.215C643.517 878.87 651.149 845.96 651.578 836.502Z" fill="#E6EFE6"/>
<path d="M671.148 833.487C677.663 834.151 684.074 835.663 690.56 836.279C690.283 851.187 689.345 865.848 690.585 880.75C686.293 881.596 681.478 884.925 678.09 885.108C673.891 885.334 670.842 881.575 668.025 878.988C667.681 872.104 668.614 865.123 669.208 858.274L671.148 833.487Z" fill="#E6EFE6"/>
<path d="M739.422 838.314C747.538 837.544 755.81 835.174 763.795 833.468C767.139 851.804 768.283 870.275 773.382 888.31C770.237 891.198 765.836 896.264 761.285 896.259C757.365 896.255 749.966 888.856 744.731 886.704C741.881 870.711 740.107 854.544 739.422 838.314Z" fill="#E6EFE6"/>
<path d="M261.011 834.834C265.926 835.882 279.562 836.989 283.022 839.443L283.311 840.355C280.268 857.519 276.981 874.84 271.36 891.382C266.532 894.258 262.218 894.993 256.732 895.095C255.863 875.599 259.152 854.35 261.011 834.834Z" fill="#E6DFD5"/>
<path d="M692.445 837.272C707.613 838.763 722.203 839.279 737.417 838.394C738.229 854.394 739.307 871.345 742.823 886.981C731.768 890.959 722.619 897.647 710.764 899.98C707.154 900.691 702.2 901.487 699.038 899.129C694.943 896.074 696.594 890.614 695.314 886.422C694.512 883.793 692.669 882.074 692.358 879.17C690.911 865.647 691.368 850.835 692.445 837.272Z" fill="#E6EFE6"/>
<path d="M273.981 890.533C278.745 873.887 282.505 856.969 285.24 839.872C301.187 843.882 317.065 847.244 333.541 844.887C333.536 855.44 334.533 886.328 328.304 894.206C321.752 902.491 306.935 900.918 298.276 897.031C293.976 895.101 290.145 891.794 285.596 890.539C281.712 889.468 277.889 889.976 273.981 890.533Z" fill="#E6DFD5"/>
<defs>
<linearGradient id="paint0_linear_407_581" x1="749.964" y1="256.187" x2="673.772" y2="157.164" gradientUnits="userSpaceOnUse">
<stop stop-color="#000200"/>
<stop offset="1" stop-color="#281208"/>
</linearGradient>
<linearGradient id="paint1_linear_407_581" x1="775" y1="214.846" x2="782.703" y2="215.211" gradientUnits="userSpaceOnUse">
<stop stop-color="#F5DFE2"/>
<stop offset="1" stop-color="#EDEBF2"/>
</linearGradient>
<linearGradient id="paint2_linear_407_581" x1="513.749" y1="199.826" x2="513.751" y2="202.161" gradientUnits="userSpaceOnUse">
<stop stop-color="#EBE5DC"/>
<stop offset="1" stop-color="#F3DDE8"/>
</linearGradient>
</defs>
</svg>
