<svg width="1024" height="1024" viewBox="0 0 1024 1024" fill="none" xmlns="http://www.w3.org/2000/svg">
<path d="M434.276 186.359C447.254 180.881 459.361 174.119 471.627 167.239C490.031 156.985 508.194 146.305 526.102 135.208C578.148 103.009 641.397 60.6869 705.25 63.0413C720.678 63.6102 736.317 67.5582 750.619 73.3252C793.492 90.6137 823.437 128.164 840.98 169.794C862.494 220.846 867.79 277.11 861.084 331.815C859.364 345.845 856.606 359.701 853.787 373.544C850.147 391.429 845.871 412.629 839.002 429.502C838.703 430.236 838.378 430.931 838.03 431.642C834.447 425.758 831.219 419.62 828.018 413.52C825.971 409.618 824.129 405.267 821.409 401.81C819.828 394.832 820.625 378.427 820.571 370.816L819.662 299.693C819.527 283.291 820.628 265.824 818.044 249.64C817.277 244.833 815.716 240.655 812.851 236.694C808.406 230.551 801.482 225.446 794.084 223.637C785.528 221.545 775.872 221.906 767.072 221.549C753.764 221.082 740.46 220.503 727.161 219.811L565.117 211.489C545.303 210.618 525.498 209.584 505.701 208.388C494.829 207.8 483.196 207.911 472.479 206.09L471.999 206.003C468.217 202.935 461.791 200.86 457.355 198.652C449.536 194.795 441.839 190.695 434.276 186.359Z" fill="#FDE4CF"/>
<path d="M166.624 193.561C185.828 165.305 212.908 139.162 245.493 127.461C315.172 102.439 375.597 158.463 434.276 186.359C441.839 190.695 449.536 194.795 457.355 198.652C461.791 200.86 468.217 202.935 471.999 206.003C452.851 204.895 433.747 203.672 414.581 202.841C406.969 202.511 398.704 201.279 391.166 202.346C381.082 203.774 368.791 209.25 358.946 212.593C346.408 216.85 333.71 220.611 321.157 224.828L320.598 223.507C319.01 221.949 298.732 221.055 294.586 220.546C251.728 215.288 207.225 208.895 166.624 193.561Z" fill="#A3C4F3"/>
<path d="M219.542 708.848C212.381 704.833 205.571 699.797 198.704 695.281C188.654 688.671 178.435 682.329 168.557 675.461C114.551 637.914 72.5285 599.358 60.4102 531.544C47.8545 461.282 73.9896 365 103.666 301.051C121.322 263.005 142.686 227.914 166.624 193.561C207.225 208.895 251.728 215.288 294.586 220.546C298.732 221.055 319.01 221.949 320.598 223.507L321.157 224.828C298.629 232.509 275.807 239.49 253.186 246.918C242.957 250.277 230.666 253.195 221.303 258.333C217.271 260.545 214.357 263.046 212.281 267.202C210.417 270.932 208.752 275.183 208.619 279.385C208.342 288.093 209.096 296.954 209.497 305.657C210.462 326.595 212.026 347.679 212.241 368.631C213.961 482.051 216.395 595.459 219.542 708.848Z" fill="#F1C0E8"/>
<path d="M321.157 224.828C333.71 220.611 346.408 216.85 358.946 212.593C368.791 209.25 381.082 203.774 391.166 202.346C398.704 201.279 406.969 202.511 414.581 202.841C433.747 203.672 452.851 204.895 471.999 206.003L472.479 206.09C483.196 207.911 494.829 207.8 505.701 208.388C525.498 209.584 545.303 210.618 565.117 211.489L727.161 219.811C740.46 220.503 753.764 221.082 767.072 221.549C775.872 221.906 785.528 221.545 794.084 223.637C801.482 225.446 808.406 230.551 812.851 236.694C815.716 240.655 817.277 244.833 818.044 249.64C820.628 265.824 819.527 283.291 819.662 299.693L820.571 370.816C820.625 378.427 819.828 394.832 821.409 401.81L822.159 605.142L822.148 660.866C822.161 670.945 822.655 681.246 822.036 691.287C821.774 695.538 821.097 700.261 819.515 704.237C817.706 708.784 814.205 713.358 811.206 717.189C806.952 722.622 802.229 727.713 797.743 732.954L760.234 776.482L732.698 809.15C727.421 815.475 722.484 822.324 716.655 828.139C709.105 835.669 701.85 837.739 691.505 838.801C690.222 838.932 687.1 838.918 686.026 839.426C685.39 839.727 685.049 840.715 684.757 841.296C684.006 842.791 683.286 843.722 681.654 844.344C677.88 845.782 671.794 843.832 668.509 841.864C665.45 840.031 662.753 837.515 659.178 836.75C653.008 835.429 645.878 835.343 639.558 834.628L590.191 829.181L536.618 822.974C528.883 822.112 520.44 820.559 512.699 820.514C504.4 819.108 495.857 818.385 487.497 817.356C471.8 815.388 456.091 813.511 440.372 811.725C421.016 808.876 401.183 807.576 381.691 805.81C350.443 802.848 319.169 800.162 287.874 797.754C284.827 797.131 281.701 797.077 278.604 796.915C271.044 800.917 262.99 804.704 254.236 801.929C249.775 800.515 247.204 797.721 245.128 793.662C240.257 791.527 235.653 789.304 231.729 785.632C219.216 773.921 220.885 756.158 220.447 740.553L219.542 708.848C216.395 595.459 213.961 482.051 212.241 368.631C212.026 347.679 210.462 326.595 209.497 305.657C209.096 296.954 208.342 288.093 208.619 279.385C208.752 275.183 210.417 270.932 212.281 267.202C214.357 263.046 217.271 260.545 221.303 258.333C230.666 253.195 242.957 250.277 253.186 246.918C275.807 239.49 298.629 232.509 321.157 224.828ZM625.557 300.46C612.612 299.189 599.509 298.748 586.518 297.989L518.867 293.948L210.49 277.367C210.241 289.112 211.16 300.991 211.668 312.728C212.3 327.316 212.659 342.02 213.938 356.563L541.58 377.25C579.916 379.324 618.236 381.671 656.539 384.29C670.478 385.235 684.625 385.586 698.505 387.022C698.467 366.639 697.842 346.135 697.168 325.762L697.099 304.658C685.964 303.204 674.607 302.862 663.396 302.291C650.793 301.648 638.17 300.846 625.557 300.46ZM698.466 305.08C698.418 312.091 698.478 319.102 698.645 326.11C699.808 346.345 699.842 366.85 700.123 387.121C703.37 387.398 706.262 387.388 709.506 386.881C710.535 385.147 711.761 383.312 712.074 381.289C713.107 374.606 712.237 367.154 712.023 360.405C711.654 348.936 711.392 337.464 711.237 325.99C711.379 317.844 711.178 309.671 711.111 301.523C706.919 302.95 702.852 304.358 698.466 305.08ZM712.818 301.399C713.265 311.162 713.483 320.933 713.471 330.706C713.493 341.323 713.954 351.93 714.31 362.54C714.53 369.071 715.41 376.598 714.148 383.017C713.778 384.896 712.652 386.501 711.605 388.068C711.431 424.151 712.589 460.269 713.072 496.352L715.645 682.314L716.766 764.256L717.307 793.28C717.389 797.391 717.843 801.641 717.674 805.733C717.584 807.933 717.222 810.066 716.52 812.155L716.414 812.25C714.551 809.627 714.5 716.274 714.172 707.108L709.592 399.598C689.05 399.455 668.442 397.404 647.919 396.417C635.075 395.137 622.129 394.539 609.253 393.616L520.74 387.422C418.617 379.709 316.398 373.317 214.11 368.245C214.27 406.097 214.909 443.945 216.027 481.781L220.039 644.036L222.073 728.94C222.436 740.417 221.86 752.528 223.466 763.894C224.497 771.193 227.399 778.313 232.645 783.603C237.031 788.025 242.567 790.872 248.648 792.105C254.112 793.214 259.92 793.408 265.475 793.837C274.781 794.522 284.083 795.26 293.38 796.053L400.462 805.577C418.3 807.054 436.099 808.961 453.845 811.297C463.126 812.461 475.203 814.847 484.365 815.045C495.087 816.737 506.252 818.235 517.068 819.082L621.548 830.809L655.182 834.703C666.574 836.02 677.761 837.481 689.267 837.061C700.864 836.638 709.264 833.53 717.189 824.901C722.729 818.868 727.691 812.17 732.937 805.869L763.225 769.906L797.211 730.203C804.028 722.081 812.627 714.004 816.97 704.22C818.559 700.6 819.537 696.742 819.866 692.803C820.9 679.153 820.1 664.825 820.132 651.102L820.255 572.092L819.6 472.557C819.513 448.08 819.931 423.513 819.016 399.054C818.939 369.991 818.636 340.929 818.109 311.871C817.88 293.477 819.301 257.983 814.359 242.093C804.513 248.271 794.237 253.832 784.249 259.787C760.619 273.875 736.883 288.064 712.818 301.399ZM393.339 203.63C380.146 205.716 364.753 212.664 351.727 216.755C312.711 229.114 273.792 241.776 234.973 254.74C255.807 256.213 276.651 257.525 297.505 258.676L451.144 267.749C500.291 271.148 549.474 274.006 598.684 276.32C613.79 277.009 629.021 278.303 644.125 278.544L675.633 280.279C681.971 280.626 689.855 281.888 696.039 280.696C703.208 279.314 726.588 265.298 734.449 260.979L797.744 226.049C786.155 223.423 773.798 223.532 761.967 223.042C747.408 222.456 732.852 221.774 718.302 220.998L540.896 212.032L477.441 208.552C459.504 207.412 441.7 205.925 423.728 205.216C413.787 204.825 403.238 203.035 393.339 203.63ZM798.265 226.944C791.138 231.446 783.527 235.218 776.148 239.291L735.401 261.712C723.069 268.381 710.695 276.612 697.676 281.784C702.275 283.383 706.945 285.497 709.155 290.144C710.197 292.336 711.59 297.593 713.241 299.115C734.961 286.693 756.58 274.096 778.097 261.325C789.927 254.303 802.059 247.602 813.544 240.019C810.026 235.232 804.35 228.31 798.265 226.944ZM232.066 256.03C224.66 258.124 218.096 260.701 214.218 267.901C212.948 270.259 212.079 272.896 211.142 275.401C244.901 277.513 278.675 279.379 312.461 280.999C402.738 285.581 492.992 290.62 583.219 296.115C603.543 297.514 623.878 298.747 644.222 299.814C660.484 300.612 676.932 300.852 693.121 302.553C701.578 303.264 703.027 302.708 710.993 299.735C709.697 294.278 707.676 288.488 702.583 285.44C699.214 283.424 694.873 283.07 691.034 282.746C677.36 281.592 663.56 281.175 649.854 280.509L567.41 276.521L314.785 261.433L260.881 258.079C254.583 257.72 237.217 257.671 232.066 256.03ZM214.174 358.701C213.867 361.264 213.998 363.77 214.107 366.339L563.305 388.378L670.636 395.923C683.527 396.715 696.492 397.806 709.4 398.121L709.47 389.648C697.026 389.507 684.52 388.233 672.099 387.456L592.3 382.377L376.173 369.042C343.457 366.605 310.72 364.441 277.967 362.548C256.718 361.017 235.452 359.735 214.174 358.701Z" fill="#020202"/>
<path d="M234.973 254.74C273.792 241.776 312.711 229.114 351.727 216.755C364.753 212.664 380.146 205.716 393.339 203.63C403.238 203.035 413.787 204.825 423.728 205.216C441.7 205.925 459.504 207.412 477.441 208.552L540.896 212.032L718.302 220.998C732.852 221.774 747.408 222.456 761.967 223.042C773.798 223.532 786.155 223.423 797.744 226.049L734.449 260.979C726.588 265.298 703.208 279.314 696.039 280.696C689.855 281.888 681.971 280.626 675.633 280.279L644.125 278.544C629.021 278.303 613.79 277.009 598.684 276.32C549.474 274.006 500.291 271.148 451.144 267.749L297.505 258.676C276.651 257.525 255.807 256.213 234.973 254.74ZM423.8 210.708C416.503 211.314 405.116 211.83 400.014 217.971C399.613 218.455 399.267 218.96 398.911 219.479C391.956 221.063 380.555 224.052 376.462 230.484C375.732 231.633 375.251 232.888 375.613 234.265C376.419 237.338 380.7 239.089 383.349 240.239C399.671 247.32 431.906 247.469 449.876 246.172C460.459 245.415 488.671 243.72 495.726 235.748C496.678 234.672 497.217 233.349 496.92 231.901C496.334 229.038 493.337 226.788 490.911 225.518C484 221.901 475.723 221.003 468.086 220.265C466.434 216.432 464.803 214.745 460.888 213.16C452.885 209.921 432.816 209.565 423.8 210.708ZM594.373 217.217C589.849 217.576 583.397 217.161 580.216 220.88C579.278 221.977 579.077 224.115 578.862 225.502C570.722 227.646 548.394 230.048 544.029 237.433C543.368 238.551 543.28 239.759 543.657 240.996C544.505 243.776 547.458 245.605 549.916 246.788C566.936 254.982 601.879 255.239 620.999 253.791C632.448 252.983 663.09 251.386 670.653 243.166C671.552 242.19 672.314 240.778 672.271 239.414C672.203 237.265 670.289 235.432 668.662 234.274C660.164 228.22 649.97 229.714 640.505 227.386C635.923 226.259 637.427 222.281 633.945 220.308C626.353 216.005 603.429 216.509 594.373 217.217Z" fill="#FBF8CC"/>
<path d="M398.911 219.479C399.267 218.96 399.613 218.455 400.014 217.971C405.116 211.83 416.503 211.314 423.8 210.708C432.816 209.565 452.885 209.921 460.888 213.16C464.803 214.745 466.434 216.432 468.086 220.265C475.723 221.003 484 221.901 490.911 225.518C493.337 226.788 496.334 229.038 496.92 231.901C497.217 233.349 496.678 234.672 495.726 235.748C488.671 243.72 460.459 245.415 449.876 246.172C431.906 247.469 399.671 247.32 383.349 240.239C380.7 239.089 376.419 237.338 375.613 234.265C375.251 232.888 375.732 231.633 376.462 230.484C380.555 224.052 391.956 221.063 398.911 219.479ZM422.401 236.539C413.314 235.593 403.208 233.872 394.98 229.768L394.289 229.848C394.256 230.596 394.078 230.826 394.613 231.45C398.579 236.073 415.971 236.536 421.922 237.527L424.651 238.068L424.485 238.406L423.677 238.675C417.563 238.331 397.417 237.087 393.866 232.811C392.767 231.488 392.296 230.241 392.48 228.523C393.299 227.398 393.423 227.401 394.762 226.974C395.868 227.164 396.057 227.518 396.808 228.252C404.167 235.444 441.61 236.975 452.871 236.52C457.59 236.329 473.184 235.289 476.303 231.916C477.213 230.932 477.282 230.645 477.242 229.4C475.516 227.005 472.096 222.956 469.178 222.258C468.961 222.206 468.736 222.198 468.515 222.168C467.634 222.953 467.842 222.474 467.76 223.445C467.585 225.497 467.546 226.911 465.91 228.346C463.942 230.07 460.06 230.337 457.56 230.664C442.486 232.634 428.59 230.721 413.751 228.068C409.366 227.285 402.062 226.191 399.389 222.268C399.105 221.851 398.856 221.41 398.601 220.975C392.638 222.541 381.22 225.007 378.022 230.762C377.367 231.942 377.323 232.543 377.801 233.816C379.191 237.52 385.19 239.503 388.685 240.524C410.503 246.893 472.454 247.502 492.184 236.724C493.532 235.988 494.792 235.189 495.327 233.672C495.645 232.767 495.335 231.625 494.86 230.816C492.13 226.163 485.724 224.406 480.771 223.389C478.024 222.825 475.209 222.405 472.406 222.285C474.987 224.367 480.17 227.474 480.224 231.09C480.244 232.411 479.564 233.502 478.587 234.333C471.594 240.287 446.297 239.122 437.012 239.402C436.823 238.918 436.748 238.399 436.298 238.087C434.78 237.034 424.358 236.026 422.401 236.539ZM426.595 212.215C419.505 212.607 407.063 212.76 402.017 218.518C401.386 219.238 401.218 219.686 401.029 220.598C401.892 222.527 403.025 223.191 404.964 223.962C414.94 227.927 430.668 228.105 441.485 227.975C447.598 227.751 460.438 228.409 464.844 223.69C465.613 222.866 465.986 221.935 465.926 220.798C465.82 218.771 464.568 217.222 462.98 216.085C456.011 211.092 435.458 211.563 426.595 212.215ZM465.073 226.566C457.738 229.024 450.336 229.306 442.667 229.505C439.847 229.578 436.621 229.328 433.864 229.899C434.674 230.25 434.299 230.226 434.969 230.136C440.155 231.427 460.839 230.778 464.94 227.513C465.36 227.178 465.358 227.119 465.599 226.724L465.073 226.566Z" fill="#020202"/>
<path d="M441.485 227.975C430.668 228.105 414.94 227.927 404.964 223.962C403.025 223.191 401.892 222.527 401.029 220.598C401.218 219.686 401.386 219.238 402.017 218.518C407.063 212.76 419.505 212.607 426.595 212.215C435.458 211.563 456.011 211.092 462.98 216.085C464.568 217.222 465.82 218.771 465.926 220.798C465.986 221.935 465.613 222.866 464.844 223.69C460.438 228.409 447.598 227.751 441.485 227.975Z" fill="#E6DFD5"/>
<path d="M578.862 225.502C579.077 224.115 579.278 221.977 580.216 220.88C583.397 217.161 589.849 217.576 594.373 217.217C603.429 216.509 626.353 216.005 633.945 220.308C637.427 222.281 635.923 226.259 640.505 227.386C649.97 229.714 660.164 228.22 668.662 234.274C670.289 235.432 672.203 237.265 672.271 239.414C672.314 240.778 671.552 242.19 670.653 243.166C663.09 251.386 632.448 252.983 620.999 253.791C601.879 255.239 566.936 254.982 549.916 246.788C547.458 245.605 544.505 243.776 543.657 240.996C543.28 239.759 543.368 238.551 544.029 237.433C548.394 230.048 570.722 227.646 578.862 225.502ZM630.7 240.681C620.756 242.125 610.88 242.759 600.846 243.224L601.003 243.56C610.466 245.403 621.531 243.452 630.966 241.804C634.718 241.049 640.727 240.203 643.77 237.854C644.663 237.165 644.68 237.154 644.836 235.988C641.245 236.501 636.35 239.682 631.391 240.563L630.7 240.681ZM591.345 218.665C588.188 219.083 583.098 219.125 581.068 222.069C580.681 222.63 580.691 222.733 580.524 223.304C581.038 224.529 581.474 224.917 582.719 225.443C590.638 228.792 614.541 228.279 623.617 227.419C627.222 226.935 630.998 226.919 633.744 224.268C633.862 223.596 634.136 223.197 633.686 222.605C631.285 219.454 622.62 218.821 618.884 218.614C610.09 218.128 600.082 217.585 591.345 218.665ZM635.135 226.605C619.166 231.763 597.556 230.119 581.195 227.165C578.646 228.324 576.155 228.862 573.429 229.427C572.073 230.615 570.543 231.664 570.026 233.463C570.22 234.816 570.225 235.391 571.319 236.356C573.212 238.024 577.287 238.868 579.757 239.372C594.184 242.115 629.534 243.862 641.649 235.993C642.835 235.222 643.547 234.503 644.245 233.284C644.081 231.819 643.702 231.741 642.529 230.827C640.286 229.081 637.704 227.79 635.135 226.605ZM570.224 229.27C563.594 230.027 550.536 231.483 546.3 237.358C545.693 238.199 545.326 239.364 545.528 240.386C545.926 242.403 547.449 243.673 549.134 244.686C569.171 256.741 635.472 253.682 658.056 247.431C659.459 247.038 660.853 246.615 662.238 246.161C664.799 245 668.884 243.585 670.084 240.811C670.588 239.647 670.454 238.511 669.815 237.443C667.116 232.932 656.956 230.789 652.097 230.015C648.894 229.506 645.596 229.265 642.358 229.089C644.378 230.333 646.641 231.33 647.096 233.912C647.344 235.321 646.867 236.552 645.945 237.597C640.868 243.352 622.362 244.283 615.186 244.421C605.171 244.615 576.69 245.046 569.299 238.293C568.306 237.385 567.615 236.084 567.564 234.725C567.472 232.25 569.289 230.967 570.7 229.259L570.224 229.27Z" fill="#020202"/>
<path d="M623.617 227.419C614.541 228.279 590.638 228.792 582.719 225.443C581.474 224.917 581.038 224.529 580.524 223.304C580.691 222.733 580.681 222.63 581.068 222.069C583.098 219.125 588.188 219.083 591.345 218.665C600.082 217.585 610.09 218.128 618.884 218.614C622.62 218.821 631.285 219.454 633.686 222.605C634.136 223.197 633.862 223.596 633.744 224.268C630.998 226.919 627.222 226.935 623.617 227.419Z" fill="#8EECF5"/>
<path d="M398.601 220.975C398.856 221.41 399.105 221.851 399.389 222.268C402.062 226.191 409.366 227.285 413.751 228.068C428.59 230.721 442.486 232.634 457.56 230.664C460.06 230.337 463.942 230.07 465.91 228.346C467.546 226.911 467.585 225.497 467.76 223.445C467.842 222.474 467.634 222.953 468.515 222.168C468.736 222.198 468.961 222.206 469.178 222.258C472.096 222.956 475.516 227.005 477.242 229.4C477.282 230.645 477.213 230.932 476.303 231.916C473.184 235.289 457.59 236.329 452.871 236.52C441.61 236.975 404.167 235.444 396.808 228.252C396.057 227.518 395.868 227.164 394.762 226.974C393.423 227.401 393.299 227.398 392.48 228.523C392.296 230.241 392.767 231.488 393.866 232.811C397.417 237.087 417.563 238.331 423.677 238.675C427.754 239.584 432.821 239.431 437.012 239.402C446.297 239.122 471.594 240.287 478.587 234.333C479.564 233.502 480.244 232.411 480.224 231.09C480.17 227.474 474.987 224.367 472.406 222.285C475.209 222.405 478.024 222.825 480.771 223.389C485.724 224.406 492.13 226.163 494.86 230.816C495.335 231.625 495.645 232.767 495.327 233.672C494.792 235.189 493.532 235.988 492.184 236.724C472.454 247.502 410.503 246.893 388.685 240.524C385.19 239.503 379.191 237.52 377.801 233.816C377.323 232.543 377.367 231.942 378.022 230.762C381.22 225.007 392.638 222.541 398.601 220.975Z" fill="#D9E2F0"/>
<path d="M434.969 230.136C434.299 230.226 434.674 230.25 433.864 229.899C436.621 229.328 439.847 229.578 442.667 229.505C450.336 229.306 457.738 229.024 465.073 226.566L465.599 226.724C465.358 227.119 465.36 227.178 464.94 227.513C460.839 230.778 440.155 231.427 434.969 230.136Z" fill="#B6B6C2"/>
<path d="M581.195 227.165C597.556 230.119 619.166 231.763 635.135 226.605C637.704 227.79 640.286 229.081 642.529 230.827C643.702 231.741 644.081 231.819 644.245 233.284C643.547 234.503 642.835 235.222 641.649 235.993C629.534 243.862 594.184 242.115 579.757 239.372C577.287 238.868 573.212 238.024 571.319 236.356C570.225 235.391 570.22 234.816 570.026 233.463C570.543 231.664 572.073 230.615 573.429 229.427C576.155 228.862 578.646 228.324 581.195 227.165Z" fill="#E6DFD5"/>
<path d="M697.676 281.784C710.695 276.612 723.069 268.381 735.401 261.712L776.148 239.291C783.527 235.218 791.138 231.446 798.265 226.944C804.35 228.31 810.026 235.232 813.544 240.019C802.059 247.602 789.927 254.303 778.097 261.325C756.58 274.096 734.961 286.693 713.241 299.115C711.59 297.593 710.197 292.336 709.155 290.144C706.945 285.497 702.275 283.383 697.676 281.784Z" fill="#FBF8CC"/>
<path d="M662.238 246.161C660.853 246.615 659.459 247.038 658.056 247.431C635.472 253.682 569.171 256.741 549.134 244.686C547.449 243.673 545.926 242.403 545.528 240.386C545.326 239.364 545.693 238.199 546.3 237.358C550.536 231.483 563.594 230.027 570.224 229.27L570.7 229.259C569.289 230.967 567.472 232.25 567.564 234.725C567.615 236.084 568.306 237.385 569.299 238.293C576.69 245.046 605.171 244.615 615.186 244.421C622.362 244.283 640.868 243.352 645.945 237.597C646.867 236.552 647.344 235.321 647.096 233.912C646.641 231.33 644.378 230.333 642.358 229.089C645.596 229.265 648.894 229.506 652.097 230.015C656.956 230.789 667.116 232.932 669.815 237.443C670.454 238.511 670.588 239.647 670.084 240.811C668.884 243.585 664.799 245 662.238 246.161Z" fill="#8EECF5"/>
<path d="M421.922 237.527C415.971 236.536 398.579 236.073 394.613 231.45C394.078 230.826 394.256 230.596 394.289 229.848L394.98 229.768C403.208 233.872 413.314 235.593 422.401 236.539L421.922 237.527Z" fill="#D9E2F0"/>
<path d="M630.7 240.681L631.391 240.563C636.35 239.682 641.245 236.501 644.836 235.988C644.68 237.154 644.663 237.165 643.77 237.854C640.727 240.203 634.718 241.049 630.966 241.804L630.7 240.681Z" fill="#90DBF4"/>
<path d="M422.401 236.539C424.358 236.026 434.78 237.034 436.298 238.087C436.748 238.399 436.823 238.918 437.012 239.402C432.821 239.431 427.754 239.584 423.677 238.675L424.485 238.406L424.651 238.068L421.922 237.527L422.401 236.539Z" fill="#56575F"/>
<path d="M630.966 241.804C621.531 243.452 610.466 245.403 601.003 243.56L600.846 243.224C610.88 242.759 620.756 242.125 630.7 240.681L630.966 241.804Z" fill="#617582"/>
<path d="M713.471 330.706C713.483 320.933 713.265 311.162 712.818 301.399C736.883 288.064 760.619 273.875 784.249 259.787C794.237 253.832 804.513 248.271 814.359 242.093C819.301 257.983 817.88 293.477 818.109 311.871C818.636 340.929 818.939 369.991 819.016 399.054C812.603 394.941 806.012 384.606 799.819 379.149C781.148 362.697 761.905 351.519 739.375 341.227C730.925 337.367 722.344 333.502 713.471 330.706Z" fill="#FBF8CC"/>
<path d="M211.142 275.401C212.079 272.896 212.948 270.259 214.218 267.901C218.096 260.701 224.66 258.124 232.066 256.03C237.217 257.671 254.583 257.72 260.881 258.079L314.785 261.433L567.41 276.521L649.854 280.509C663.56 281.175 677.36 281.592 691.034 282.746C694.873 283.07 699.214 283.424 702.583 285.44C707.676 288.488 709.697 294.278 710.993 299.735C703.027 302.708 701.578 303.264 693.121 302.553C676.932 300.852 660.484 300.612 644.222 299.814C623.878 298.747 603.543 297.514 583.219 296.115C492.992 290.62 402.738 285.581 312.461 280.999C278.675 279.379 244.901 277.513 211.142 275.401Z" fill="#FDE4CF"/>
<path d="M210.49 277.367L518.867 293.948L586.518 297.989C599.509 298.748 612.612 299.189 625.557 300.46L624.952 302.468C626.004 303.92 628.249 304.498 629.909 305.037C643.057 309.305 656.721 312.159 669.983 316.099C679.201 318.839 688.081 322.637 697.168 325.762C697.842 346.135 698.467 366.639 698.505 387.022C684.625 385.586 670.478 385.235 656.539 384.29C618.236 381.671 579.916 379.324 541.58 377.25L213.938 356.563C212.659 342.02 212.3 327.316 211.668 312.728C211.16 300.991 210.241 289.112 210.49 277.367ZM264.979 299.167C259.782 299.902 259.385 301.517 255.308 303.655C250.516 306.166 246.84 306.524 243.364 311.248C240.977 314.491 239.949 318.38 240.581 322.37C241.34 327.162 244.32 331.41 248.284 334.132C252.095 336.751 256.039 337.553 260.578 337.774C267.599 337.483 273.701 335.52 278.656 330.252C281.924 326.776 283.6 322.383 283.294 317.609C282.96 312.388 280.55 306.944 276.6 303.459C273.152 300.415 269.504 299.265 264.979 299.167ZM316.809 303.111C310.409 304.799 301.767 309.516 298.28 315.246C295.782 319.294 295.12 324.213 296.459 328.778C297.806 333.451 301.139 337.159 305.382 339.441C309.095 341.439 312.474 342.126 316.643 342.044C323.865 340.527 330.308 336.783 334.34 330.421C336.734 326.644 337.579 322.356 336.549 317.979C335.313 312.8 331.99 308.362 327.368 305.718C324.064 303.865 320.588 302.951 316.809 303.111ZM372.369 303.218C369.788 303.49 367.754 303.818 366.08 305.975C365.242 307.055 364.798 308.409 364.605 309.749C363.685 316.151 364.692 337.561 365.808 344.177C366.309 347.147 367.075 349.328 369.652 351.058C371.573 352.347 373.852 352.738 376.1 353.036C392.643 355.225 409.843 355.379 426.526 356.595C446.82 358.074 467.652 360.69 487.989 360.583C490.176 360.171 492.109 359.89 493.498 357.959C494.352 356.772 494.754 355.307 494.941 353.875C495.738 347.763 495.432 321.829 494.158 316.048C493.75 314.198 493.205 312.82 492.087 311.298C489.691 309.841 487.034 309.189 484.267 308.82C472.159 307.207 457.837 307.482 445.455 306.827C421.115 305.54 396.737 303.785 372.369 303.218ZM523.798 315.57C516.873 317.88 510.008 321.383 506.5 328.151C504.246 332.5 504.14 337.235 505.739 341.82C507.559 347.032 511.408 351.288 516.411 353.623C520.034 355.329 523.625 355.78 527.556 356.029C533.432 355.17 537.798 353.311 541.468 348.368C544.893 343.755 546.824 337.654 545.949 331.91C545.166 326.763 542.059 322.164 537.794 319.236C533.627 316.376 528.798 315.254 523.798 315.57ZM582.229 316.741C570.794 317.319 561.988 327.049 562.549 338.485C563.111 349.921 572.83 358.741 584.266 358.195C595.725 357.648 604.566 347.907 604.003 336.448C603.44 324.99 593.687 316.162 582.229 316.741ZM639.612 321.184C633.044 321.824 627.008 324.041 622.661 329.284C619.889 332.627 618.706 336.598 619.272 340.909C620.068 346.969 623.496 352.99 628.459 356.586C632.215 359.306 636.505 360.529 641.084 360.846C647.142 360.127 652.036 358.406 655.974 353.436C659.232 349.323 661.235 343.906 660.472 338.63C659.665 333.042 656.185 327.775 651.558 324.594C648.07 322.151 643.863 320.95 639.612 321.184Z" fill="#D9E2F0"/>
<path d="M260.578 337.774C256.039 337.553 252.095 336.751 248.284 334.132C244.32 331.41 241.34 327.162 240.581 322.37C239.949 318.38 240.977 314.491 243.364 311.248C246.84 306.524 250.516 306.166 255.308 303.655C259.385 301.517 259.782 299.902 264.979 299.167C269.504 299.265 273.152 300.415 276.6 303.459C280.55 306.944 282.96 312.388 283.294 317.609C283.6 322.383 281.924 326.776 278.656 330.252C273.701 335.52 267.599 337.483 260.578 337.774ZM261.75 301.249C264.382 305.726 273.076 300.766 277.249 315.169C278.125 318.192 278.693 321.914 278.002 325.031C277.788 325.994 277.543 327.078 276.706 327.632C275.76 325.247 276.338 321.771 276.102 319.178C275.769 315.524 273.779 308.302 270.401 306.452C268.727 305.536 266.842 305.944 265.195 306.67C263.391 307.465 262.066 308.817 261.442 310.703C260.235 314.351 261.548 319.155 263.335 322.402C265.258 325.894 267.743 327.822 271.298 329.457L271.265 330.036C269.577 330.441 268.402 330.449 266.892 329.519C263.084 327.175 260.711 321.621 259.832 317.431C259.262 314.711 258.764 310.261 260.55 307.843C261.022 307.204 261.617 306.642 262.191 306.096L264.677 305.002L264.92 304.265C263.242 302.948 260.672 302.98 258.638 303.216C257.693 303.325 256.829 304.743 256.01 305.296C252.353 307.765 248.534 306.789 245.299 310.809C242.683 314.059 241.596 318.636 242.225 322.733C242.853 326.827 245.171 330.274 248.499 332.692C253.143 336.065 259.456 337.115 265.047 336.118C270.369 335.168 275.511 332.04 278.61 327.579C281.191 323.864 281.864 319.465 280.977 315.071C280.028 310.365 277.459 305.839 273.297 303.285C269.621 301.029 265.932 300.755 261.75 301.249Z" fill="#020202"/>
<path d="M625.557 300.46C638.17 300.846 650.793 301.648 663.396 302.291C674.607 302.862 685.964 303.204 697.099 304.658L697.168 325.762C688.081 322.637 679.201 318.839 669.983 316.099C656.721 312.159 643.057 309.305 629.909 305.037C628.249 304.498 626.004 303.92 624.952 302.468L625.557 300.46Z" fill="#FBF8CC"/>
<path d="M262.191 306.096C261.617 306.642 261.022 307.204 260.55 307.843C258.764 310.261 259.262 314.711 259.832 317.431C260.711 321.621 263.084 327.175 266.892 329.519C268.402 330.449 269.577 330.441 271.265 330.036L271.298 329.457C267.743 327.822 265.258 325.894 263.335 322.402C261.548 319.155 260.235 314.351 261.442 310.703C262.066 308.817 263.391 307.465 265.195 306.67C266.842 305.944 268.727 305.536 270.401 306.452C273.779 308.302 275.769 315.524 276.102 319.178C276.338 321.771 275.76 325.247 276.706 327.632C277.543 327.078 277.788 325.994 278.002 325.031C278.693 321.914 278.125 318.192 277.249 315.169C273.076 300.766 264.382 305.726 261.75 301.249C265.932 300.755 269.621 301.029 273.297 303.285C277.459 305.839 280.028 310.365 280.977 315.071C281.864 319.465 281.191 323.864 278.61 327.579C275.511 332.04 270.369 335.168 265.047 336.118C259.456 337.115 253.143 336.065 248.499 332.692C245.171 330.274 242.853 326.827 242.225 322.733C241.596 318.636 242.683 314.059 245.299 310.809C248.534 306.789 252.353 307.765 256.01 305.296C256.829 304.743 257.693 303.325 258.638 303.216C260.672 302.98 263.242 302.948 264.92 304.265L264.677 305.002L262.191 306.096Z" fill="#CFBAF0"/>
<path d="M698.645 326.11C698.478 319.102 698.418 312.091 698.466 305.08C702.852 304.358 706.919 302.95 711.111 301.523C711.178 309.671 711.379 317.844 711.237 325.99C711.185 326.937 711.043 327.771 710.822 328.692C710.662 328.778 710.512 328.883 710.343 328.949C707.64 329.992 701.409 327.005 698.645 326.11Z" fill="#FBF8CC"/>
<path d="M316.643 342.044C312.474 342.126 309.095 341.439 305.382 339.441C301.139 337.159 297.806 333.451 296.459 328.778C295.12 324.213 295.782 319.294 298.28 315.246C301.767 309.516 310.409 304.799 316.809 303.111C320.588 302.951 324.064 303.865 327.368 305.718C331.99 308.362 335.313 312.8 336.549 317.979C337.579 322.356 336.734 326.644 334.34 330.421C330.308 336.783 323.865 340.527 316.643 342.044ZM317.381 305.113C314.901 305.539 313.665 305.868 311.632 307.417C306.24 311.523 298.977 310.581 297.152 321.041C296.403 325.332 297.916 329.972 300.429 333.442C303.126 337.167 307.119 339.751 311.689 340.444C316.541 341.161 321.477 339.879 325.368 336.891C328.502 334.462 330.303 331.032 330.609 327.088C331.003 322.004 329.023 316.34 325.56 312.594C324.384 311.322 322.578 309.825 320.788 309.601C319.583 309.45 318.664 309.776 317.788 310.594C315.665 312.575 315.351 317.808 315.699 320.424C315.801 321.189 315.949 321.931 316.104 322.686C317.213 326.179 317.967 327.809 320.783 330.139C322.221 331.329 323.407 332.308 324.329 333.947L323.914 334.462C321.1 333.975 319.209 332.407 317.526 330.138C314.214 325.673 313.511 319.388 314.527 314.041C314.914 312.006 315.729 309.725 317.448 308.429C318.651 307.523 320.237 307.271 321.683 307.639C325.289 308.556 328.068 312.181 329.679 315.325C332.623 321.071 332.185 326.277 330.816 332.32C333.704 327.775 335.557 323.807 334.285 318.251C333.294 313.924 330.53 309.604 326.715 307.256C323.946 305.553 320.62 304.715 317.381 305.113Z" fill="#020202"/>
<path d="M487.989 360.583C467.652 360.69 446.82 358.074 426.526 356.595C409.843 355.379 392.643 355.225 376.1 353.036C373.852 352.738 371.573 352.347 369.652 351.058C367.075 349.328 366.309 347.147 365.808 344.177C364.692 337.561 363.685 316.151 364.605 309.749C364.798 308.409 365.242 307.055 366.08 305.975C367.754 303.818 369.788 303.49 372.369 303.218C396.737 303.785 421.115 305.54 445.455 306.827C457.837 307.482 472.159 307.207 484.267 308.82C487.034 309.189 489.691 309.841 492.087 311.298C493.205 312.82 493.75 314.198 494.158 316.048C495.432 321.829 495.738 347.763 494.941 353.875C494.754 355.307 494.352 356.772 493.498 357.959C492.109 359.89 490.176 360.171 487.989 360.583ZM369.352 305.044C366.651 307.575 366.147 309.678 366.051 313.348C365.931 317.958 366.566 322.62 366.763 327.229C366.987 332.489 366.565 338.169 367.463 343.349C367.796 345.274 368.407 347.574 369.813 349.019C371.48 350.734 376.095 351.276 378.482 351.566C396.093 353.708 414.223 353.876 431.951 355.177L469.07 357.838C475.01 358.226 481.235 359.015 487.177 358.772C488.135 358.733 489.026 358.576 489.96 358.37C491.541 357.545 492.461 356.896 492.984 355.112C494.271 350.729 493.619 317.39 491.45 313.488C490.65 312.047 489.21 311.655 487.684 311.269C481.745 309.765 475.055 309.969 468.962 309.687L441.009 308.35L394.415 305.736C386.127 305.326 377.641 304.587 369.352 305.044Z" fill="#020202"/>
<path d="M316.104 322.686C315.949 321.931 315.801 321.189 315.699 320.424C315.351 317.808 315.665 312.575 317.788 310.594C318.664 309.776 319.583 309.45 320.788 309.601C322.578 309.825 324.384 311.322 325.56 312.594C329.023 316.34 331.003 322.004 330.609 327.088C330.303 331.032 328.502 334.462 325.368 336.891C321.477 339.879 316.541 341.161 311.689 340.444C307.119 339.751 303.126 337.167 300.429 333.442C297.916 329.972 296.403 325.332 297.152 321.041C298.977 310.581 306.24 311.523 311.632 307.417C313.665 305.868 314.901 305.539 317.381 305.113C320.62 304.715 323.946 305.553 326.715 307.256C330.53 309.604 333.294 313.924 334.285 318.251C335.557 323.807 333.704 327.775 330.816 332.32C332.185 326.277 332.623 321.071 329.679 315.325C328.068 312.181 325.289 308.556 321.683 307.639C320.237 307.271 318.651 307.523 317.448 308.429C315.729 309.725 314.914 312.006 314.527 314.041C313.511 319.388 314.214 325.673 317.526 330.138C319.209 332.407 321.1 333.975 323.914 334.462L324.329 333.947C323.407 332.308 322.221 331.329 320.783 330.139C317.967 327.809 317.213 326.179 316.104 322.686Z" fill="#CFBAF0"/>
<path d="M489.96 358.37C489.026 358.576 488.135 358.733 487.177 358.772C481.235 359.015 475.01 358.226 469.07 357.838L431.951 355.177C414.223 353.876 396.093 353.708 378.482 351.566C376.095 351.276 371.48 350.734 369.813 349.019C368.407 347.574 367.796 345.274 367.463 343.349C366.565 338.169 366.987 332.489 366.763 327.229C366.566 322.62 365.931 317.958 366.051 313.348C366.147 309.678 366.651 307.575 369.352 305.044C377.641 304.587 386.127 305.326 394.415 305.736L441.009 308.35L468.962 309.687C475.055 309.969 481.745 309.765 487.684 311.269C489.21 311.655 490.65 312.047 491.45 313.488C493.619 317.39 494.271 350.729 492.984 355.112C492.461 356.896 491.541 357.545 489.96 358.37Z" fill="#CFBAF0"/>
<path d="M527.556 356.029C523.625 355.78 520.034 355.329 516.411 353.623C511.408 351.288 507.559 347.032 505.739 341.82C504.14 337.235 504.246 332.5 506.5 328.151C510.008 321.383 516.873 317.88 523.798 315.57C528.798 315.254 533.627 316.376 537.794 319.236C542.059 322.164 545.166 326.763 545.949 331.91C546.824 337.654 544.893 343.755 541.468 348.368C537.798 353.311 533.432 355.17 527.556 356.029ZM524.423 317.11C522.646 317.598 520.655 317.933 519.247 319.173L519.552 319.776C526.389 320.03 531.96 319.325 537.102 325.011C540.575 328.852 541.607 333.868 541.906 338.877L542.091 343.04L542.457 342.949C544.609 338.385 545.17 333.693 543.338 328.915C541.554 324.366 538.041 320.708 533.567 318.742C530.68 317.462 527.573 316.826 524.423 317.11ZM516.278 320.939C512.038 323.296 508.056 326.34 506.685 331.265C506.139 333.225 506.14 335.393 507.397 337.103C508.913 339.164 511.546 339.822 513.966 339.94C515.607 340.02 517.323 339.918 518.957 339.794C522.412 338.874 525.807 337.606 527.703 334.347C528.854 332.404 529.1 330.055 528.376 327.915C527.612 325.697 525.838 323.859 523.724 322.882C521.384 321.8 518.854 321.042 516.278 320.939ZM526.37 321.368C528.695 324.727 530.534 328.462 529.751 332.679C529.245 335.407 527.536 337.621 525.225 339.096C521.248 341.634 515.477 342.261 510.936 341.19C509.425 340.833 507.947 340.161 506.548 339.493C509.222 345.227 511.553 349.077 517.334 352.188C522.663 354.053 528.454 355.253 533.776 352.611C536.903 351.059 539.231 348.35 540.186 344.982C541.58 340.066 540.616 333.718 538.12 329.302C536.052 325.644 532.576 322.7 528.45 321.707C527.762 321.542 527.073 321.442 526.37 321.368Z" fill="#020202"/>
<path d="M541.906 338.877C541.607 333.868 540.575 328.852 537.102 325.011C531.96 319.325 526.389 320.03 519.552 319.776L519.247 319.173C520.655 317.933 522.646 317.598 524.423 317.11C527.573 316.826 530.68 317.462 533.567 318.742C538.041 320.708 541.554 324.366 543.338 328.915C545.17 333.693 544.609 338.385 542.457 342.949L542.091 343.04L541.906 338.877Z" fill="#8EECF5"/>
<path d="M584.266 358.195C572.83 358.741 563.111 349.921 562.549 338.485C561.988 327.049 570.794 317.319 582.229 316.741C593.687 316.162 603.44 324.99 604.003 336.448C604.566 347.907 595.725 357.648 584.266 358.195ZM582.225 318.861C580.811 319.018 579.734 318.815 578.703 319.852C579.403 320.799 580.212 321.136 581.362 321.364C581.982 321.486 582.255 321.476 582.843 321.495L584.225 320.297C587.945 322.228 591.083 323.332 594.152 326.406C599.104 331.368 599.82 337.642 599.813 344.274C598.099 339.435 597.419 334.08 594.543 329.713C591.842 325.612 588.383 324.095 583.777 323.117C584.376 323.996 584.979 324.881 585.51 325.803C587.028 328.435 587.887 331.37 586.974 334.371C586.152 337.072 584.041 339.033 581.593 340.313C576.061 343.204 569.904 342.991 564.118 341.154C564.939 343.668 565.892 346.075 567.455 348.232C570.537 352.483 574.819 355.477 580.11 356.084C585.361 356.701 590.631 355.096 594.645 351.655C598.874 348.089 602.125 342.539 602.447 336.951C602.696 332.644 601.493 328.194 598.552 324.96C594.304 320.287 588.24 319.053 582.225 318.861ZM574.187 321.502C569.661 324.237 565.289 328.127 564.008 333.506C563.609 335.18 563.613 337.072 564.756 338.478C566.582 340.726 569.64 340.786 572.287 340.747C573.511 340.729 574.743 340.593 575.96 340.47C579.696 339.427 583.363 338.296 585.283 334.591C586.343 332.545 586.354 330.167 585.513 328.041C584.371 325.155 581.873 323.211 579.07 322.041C577.454 321.366 575.901 321.406 574.187 321.502Z" fill="#020202"/>
<path d="M584.225 320.297L582.843 321.495C582.255 321.476 581.982 321.486 581.362 321.364C580.212 321.136 579.403 320.799 578.703 319.852C579.734 318.815 580.811 319.018 582.225 318.861L584.225 320.297Z" fill="#8EECF5"/>
<path d="M582.225 318.861C588.24 319.053 594.304 320.287 598.552 324.96C601.493 328.194 602.696 332.644 602.447 336.951C602.125 342.539 598.874 348.089 594.645 351.655C590.631 355.096 585.361 356.701 580.11 356.084C574.819 355.477 570.537 352.483 567.455 348.232C565.892 346.075 564.939 343.668 564.118 341.154C569.904 342.991 576.061 343.204 581.593 340.313C584.041 339.033 586.152 337.072 586.974 334.371C587.887 331.37 587.028 328.435 585.51 325.803C584.979 324.881 584.376 323.996 583.777 323.117C588.383 324.095 591.842 325.612 594.543 329.713C597.419 334.08 598.099 339.435 599.813 344.274C599.82 337.642 599.104 331.368 594.152 326.406C591.083 323.332 587.945 322.228 584.225 320.297L582.225 318.861Z" fill="#98F5E1"/>
<path d="M518.957 339.794C517.323 339.918 515.607 340.02 513.966 339.94C511.546 339.822 508.913 339.164 507.397 337.103C506.14 335.393 506.139 333.225 506.685 331.265C508.056 326.34 512.038 323.296 516.278 320.939C518.854 321.042 521.384 321.8 523.724 322.882C525.838 323.859 527.612 325.697 528.376 327.915C529.1 330.055 528.854 332.404 527.703 334.347C525.807 337.606 522.412 338.874 518.957 339.794Z" fill="#98F5E1"/>
<path d="M641.084 360.846C636.505 360.529 632.215 359.306 628.459 356.586C623.496 352.99 620.068 346.969 619.272 340.909C618.706 336.598 619.889 332.627 622.661 329.284C627.008 324.041 633.044 321.824 639.612 321.184C643.863 320.95 648.07 322.151 651.558 324.594C656.185 327.775 659.665 333.042 660.472 338.63C661.235 343.906 659.232 349.323 655.974 353.436C652.036 358.406 647.142 360.127 641.084 360.846ZM640.045 323.117C646.179 325.151 650.042 328.414 653 334.28C654.605 337.463 656.065 341.842 655.974 345.41L655.459 345.732C652.142 337.904 651.445 328.457 642.094 324.828C638.69 323.507 634.249 323.591 630.927 325.123C630.297 325.414 629.692 325.742 629.095 326.097C634.064 325.945 638.76 325.756 642.657 329.474C644.203 330.948 645.301 332.921 645.237 335.103C645.138 338.453 643.004 340.948 640.608 343.049C640.479 343.162 640.343 343.267 640.211 343.376C633.705 346.747 628.621 345.965 621.816 344.191C624.934 350.25 628.271 355.832 635.236 357.97C639.81 359.363 644.751 358.87 648.961 356.601C653.49 354.125 657.153 349.517 658.405 344.493C659.457 340.267 658.551 336.059 656.289 332.387C653.651 328.105 649.109 324.277 644.076 323.324C642.722 323.068 641.415 323.063 640.045 323.117ZM627.662 327.194C624.565 329.859 621.021 333.075 620.827 337.477C620.747 339.295 621.305 340.804 622.625 342.095C625.258 344.671 630.704 344.346 634.09 343.96C634.613 343.901 635.131 343.801 635.649 343.708C638.943 342.161 641.544 340.65 642.727 337.004C643.291 335.268 643.204 333.593 642.278 331.982C641.061 329.866 638.028 328.452 635.717 328.054C633.062 327.596 630.314 327.661 627.662 327.194Z" fill="#020202"/>
<path d="M506.548 339.493C507.947 340.161 509.425 340.833 510.936 341.19C515.477 342.261 521.248 341.634 525.225 339.096C527.536 337.621 529.245 335.407 529.751 332.679C530.534 328.462 528.695 324.727 526.37 321.368C527.073 321.442 527.762 321.542 528.45 321.707C532.576 322.7 536.052 325.644 538.12 329.302C540.616 333.718 541.58 340.066 540.186 344.982C539.231 348.35 536.903 351.059 533.776 352.611C528.454 355.253 522.663 354.053 517.334 352.188C511.553 349.077 509.222 345.227 506.548 339.493Z" fill="#98F5E1"/>
<path d="M575.96 340.47C574.743 340.593 573.511 340.729 572.287 340.747C569.64 340.786 566.582 340.726 564.756 338.478C563.613 337.072 563.609 335.18 564.008 333.506C565.289 328.127 569.661 324.237 574.187 321.502C575.901 321.406 577.454 321.366 579.07 322.041C581.873 323.211 584.371 325.155 585.513 328.041C586.354 330.167 586.343 332.545 585.283 334.591C583.363 338.296 579.696 339.427 575.96 340.47Z" fill="#98F5E1"/>
<path d="M629.095 326.097C629.692 325.742 630.297 325.414 630.927 325.123C634.249 323.591 638.69 323.507 642.094 324.828C651.445 328.457 652.142 337.904 655.459 345.732L655.974 345.41C656.065 341.842 654.605 337.463 653 334.28C650.042 328.414 646.179 325.151 640.045 323.117C641.415 323.063 642.722 323.068 644.076 323.324C649.109 324.277 653.651 328.105 656.289 332.387C658.551 336.059 659.457 340.267 658.405 344.493C657.153 349.517 653.49 354.125 648.961 356.601C644.751 358.87 639.81 359.363 635.236 357.97C628.271 355.832 624.934 350.25 621.816 344.191C628.621 345.965 633.705 346.747 640.211 343.376C640.343 343.267 640.479 343.162 640.608 343.049C643.004 340.948 645.138 338.453 645.237 335.103C645.301 332.921 644.203 330.948 642.657 329.474C638.76 325.756 634.064 325.945 629.095 326.097Z" fill="url(#paint0_linear_407_1120)"/>
<path d="M698.645 326.11C701.409 327.005 707.64 329.992 710.343 328.949C710.512 328.883 710.662 328.778 710.822 328.692C711.043 327.771 711.185 326.937 711.237 325.99C711.392 337.464 711.654 348.936 712.023 360.405C712.237 367.154 713.107 374.606 712.074 381.289C711.761 383.312 710.535 385.147 709.506 386.881C706.262 387.388 703.37 387.398 700.123 387.121C699.842 366.85 699.808 346.345 698.645 326.11Z" fill="#98F5E1"/>
<path d="M635.649 343.708C635.131 343.801 634.613 343.901 634.09 343.96C630.704 344.346 625.258 344.671 622.625 342.095C621.305 340.804 620.747 339.295 620.827 337.477C621.021 333.075 624.565 329.859 627.662 327.194C630.314 327.661 633.062 327.596 635.717 328.054C638.028 328.452 641.061 329.866 642.278 331.982C643.204 333.593 643.291 335.268 642.727 337.004C641.544 340.65 638.943 342.161 635.649 343.708Z" fill="#98F5E1"/>
<path d="M713.471 330.706C722.344 333.502 730.925 337.367 739.375 341.227C761.905 351.519 781.148 362.697 799.819 379.149C806.012 384.606 812.603 394.941 819.016 399.054C819.931 423.513 819.513 448.08 819.6 472.557L820.255 572.092L820.132 651.102C820.1 664.825 820.9 679.153 819.866 692.803C819.537 696.742 818.559 700.6 816.97 704.22C812.627 714.004 804.028 722.081 797.211 730.203L763.225 769.906L732.937 805.869C727.691 812.17 722.729 818.868 717.189 824.901C709.264 833.53 700.864 836.638 689.267 837.061C677.761 837.481 666.574 836.02 655.182 834.703L621.548 830.809L517.068 819.082C520.36 814.778 530.319 810.438 535.242 807.288C543.919 801.738 552.196 795.551 560.728 789.782C569.53 783.831 578.967 778.04 587.324 771.483C588.207 770.791 588.691 770.113 589.237 769.149C623.646 772.653 658.085 775.855 692.55 778.755C692.651 788.474 693.847 803.181 692.336 812.241C690.186 825.137 684.091 824.799 675.931 830.657L675.899 831.333C676.415 831.463 676.712 831.574 677.285 831.524C680.513 831.244 685.498 827.634 687.658 825.424C690.971 822.033 693.371 817.526 694.195 812.848C695.96 802.833 694.553 791.131 694.523 780.934L694.381 710.801L694.782 710.753C695.004 710.725 695.225 710.69 695.448 710.665C700.619 710.081 709.983 706.02 714.172 707.108C714.5 716.274 714.551 809.627 716.414 812.25L716.52 812.155C717.222 810.066 717.584 807.933 717.674 805.733C717.843 801.641 717.389 797.391 717.307 793.28L716.766 764.256L715.645 682.314L713.072 496.352C712.589 460.269 711.431 424.151 711.605 388.068C712.652 386.501 713.778 384.896 714.148 383.017C715.41 376.598 714.53 369.071 714.31 362.54C713.954 351.93 713.493 341.323 713.471 330.706Z" fill="#B9FBC0"/>
<path d="M214.107 366.339C213.998 363.77 213.867 361.264 214.174 358.701C235.452 359.735 256.718 361.017 277.967 362.548C310.72 364.441 343.457 366.605 376.173 369.042L592.3 382.377L672.099 387.456C684.52 388.233 697.026 389.507 709.47 389.648L709.4 398.121C696.492 397.806 683.527 396.715 670.636 395.923L563.305 388.378L214.107 366.339Z" fill="#90DBF4"/>
<path d="M214.11 368.245C316.398 373.317 418.617 379.709 520.74 387.422L609.253 393.616C622.129 394.539 635.075 395.137 647.919 396.417C648.21 396.584 648.494 396.766 648.794 396.919C651.749 398.433 689.396 399.884 695.411 400.203C697.233 400.3 700.308 399.624 701.947 400.076C702.307 400.175 702.529 400.543 702.82 400.777C702.519 401.63 702.71 401.674 702.03 402.033C699.755 403.233 696.916 402.257 694.562 403.627C694.283 404.727 694.382 404.8 694.669 405.845C695.024 407.139 695.045 407.856 694.791 409.157C693.794 409.515 692.894 409.844 691.941 410.311L691.099 412.276L690.499 412.488C689.889 411.885 689.226 410.899 688.375 410.816C686.58 410.642 685.204 410.152 683.513 409.572C682.548 409.241 682.924 409.328 681.806 409.477L680.841 411.304L680.296 411.466C680.072 411.327 679.85 411.185 679.623 411.049C678.489 410.371 677.194 409.745 675.912 409.415C671.977 408.402 653.548 406.794 650.204 407.758C649.898 407.846 649.599 407.958 649.296 408.059C624.573 407.185 599.734 404.758 575.021 403.313L351.689 389.846L286.569 386.228C273.873 385.462 260.725 383.819 248.024 384.295C243.933 384.447 240.86 385.075 237.704 387.881C233.031 392.035 230.917 398.06 230.726 404.176C230.479 412.066 231.005 420.074 231.196 427.968C231.43 438.906 231.568 449.845 231.608 460.786L233.283 608.655L234.496 703.843C234.728 721.454 234.052 741.96 236.135 759.152C236.833 764.91 239.02 770.707 243.068 774.955C245.234 777.228 248.19 779.281 251.322 779.846L252.342 779.364C251.921 778.352 252.273 778.678 251.474 778.299C245.905 775.723 241.634 770.979 239.655 765.172C236.751 756.624 237.209 744.928 236.964 735.938C267.441 737.841 298.016 741.594 328.432 744.417L536.337 764.104C537.799 765.061 537.965 766.356 539.246 766.961C536.664 767.162 533.427 767.043 531.011 767.951L530.514 768.745C531.141 769.985 532.173 770.682 533.235 771.526C532.018 774.777 528.057 775.844 525.719 778.242C523.709 778.606 521.74 778.269 520.208 779.634C519.641 778.675 518.951 776.82 517.896 776.529L517.553 777.365C515.062 777.84 508.357 776.157 506.976 778.058C505.224 780.472 505.242 785.342 506.222 788.052C506.757 789.53 507.722 790.715 508.617 791.984C509.85 793.731 508.679 794.666 509.177 796.389C510.446 800.78 516.76 804.688 516.115 810.214C516.091 810.416 516.027 810.611 515.983 810.809C515.815 810.838 515.642 810.845 515.479 810.896C513.307 811.582 509.755 815.532 508.234 817.376C508.096 817.281 507.97 817.165 507.82 817.091C506.901 816.635 506.01 816.786 505.021 816.803C503.937 816.822 502.953 816.701 501.913 816.402C502.153 816.239 502.395 816.08 502.633 815.913C503.434 815.349 503.691 814.909 504.023 813.976C503.957 812.678 503.778 811.835 502.79 810.899C501.769 809.933 500.802 809.674 499.453 809.526C497.015 810.316 495.546 811.712 494.175 813.842L494.205 814.699C495.338 815.111 496.058 814.915 497.203 814.796C497.942 814.718 497.671 814.732 498.485 815.024L498.509 815.527C493.925 816.395 489.199 814.298 484.365 815.045C475.203 814.847 463.126 812.461 453.845 811.297C436.099 808.961 418.3 807.054 400.462 805.577L293.38 796.053C284.083 795.26 274.781 794.522 265.475 793.837C259.92 793.408 254.112 793.214 248.648 792.105C242.567 790.872 237.031 788.025 232.645 783.603C227.399 778.313 224.497 771.193 223.466 763.894C221.86 752.528 222.436 740.417 222.073 728.94L220.039 644.036L216.027 481.781C214.909 443.945 214.27 406.097 214.11 368.245ZM501.811 779.692C501.201 781.234 500.816 782.584 500.564 784.225C498.419 787.123 493.198 789.935 494.236 794.15C494.995 797.234 496.584 797.603 497.025 801.717C497.211 803.45 497.606 805.734 498.419 807.277C500.175 807.302 501.091 807.289 502.567 806.292C504.765 803.652 504.547 785.682 504.252 781.489C504.204 780.817 504.184 780.932 503.965 780.105C503.012 779.714 502.784 779.672 501.811 779.692Z" fill="url(#paint1_linear_407_1120)"/>
<path d="M236.964 735.938C237.209 744.928 236.751 756.624 239.655 765.172C241.634 770.979 245.905 775.723 251.474 778.299C252.273 778.678 251.921 778.352 252.342 779.364L251.322 779.846C248.19 779.281 245.234 777.228 243.068 774.955C239.02 770.707 236.833 764.91 236.135 759.152C234.052 741.96 234.728 721.454 234.496 703.843L233.283 608.655L231.608 460.786C231.568 449.845 231.43 438.906 231.196 427.968C231.005 420.074 230.479 412.066 230.726 404.176C230.917 398.06 233.031 392.035 237.704 387.881C240.86 385.075 243.933 384.447 248.024 384.295C260.725 383.819 273.873 385.462 286.569 386.228L351.689 389.846L575.021 403.313C599.734 404.758 624.573 407.185 649.296 408.059L649.845 408.133C662.706 409.778 679.157 407.038 688.094 418.644C690.78 422.132 692.802 426.76 693.251 431.128C694.185 440.222 693.535 449.923 693.533 459.07L693.563 512.541C693.878 578.616 693.444 644.734 694.381 710.801L694.523 780.934C694.553 791.131 695.96 802.833 694.195 812.848C693.371 817.526 690.971 822.033 687.658 825.424C685.498 827.634 680.513 831.244 677.285 831.524C676.712 831.574 676.415 831.463 675.899 831.333L675.931 830.657C684.091 824.799 690.186 825.137 692.336 812.241C693.847 803.181 692.651 788.474 692.55 778.755C658.085 775.855 623.646 772.653 589.237 769.149L536.337 764.104L328.432 744.417C298.016 741.594 267.441 737.841 236.964 735.938ZM692.478 711.783L691.663 514.516L691.557 460.034C691.575 450.507 692.429 440.24 691.271 430.805C690.691 426.073 688.096 421.34 684.799 417.92C681.637 414.64 677.393 412.612 672.925 411.867C660.493 409.793 643.261 409.538 630.335 408.67L529.141 402.584L337.933 390.898L282.383 387.91C271.636 387.283 260.719 386.084 249.959 386.146C245.637 386.171 241.623 386.492 238.348 389.653C232.26 395.528 232.455 402.739 232.529 410.544L236.893 733.975C266.795 736.58 296.681 739.369 326.549 742.343L494.557 758.216C516.906 760.45 539.268 762.554 561.641 764.53C572.259 765.535 583.325 767.298 593.957 767.546C609.32 769.493 624.835 770.601 640.258 771.977L692.553 776.94L692.478 711.783Z" fill="#020202"/>
<path d="M692.478 711.783C687.827 712.598 683.02 714.746 678.645 716.519C652.708 727.026 632.305 741.619 609.248 757.137C605.185 759.872 596.795 764.102 593.957 767.546C583.325 767.298 572.259 765.535 561.641 764.53C539.268 762.554 516.906 760.45 494.557 758.216L326.549 742.343C296.681 739.369 266.795 736.58 236.893 733.975L232.529 410.544C232.455 402.739 232.26 395.528 238.348 389.653C241.623 386.492 245.637 386.171 249.959 386.146C260.719 386.084 271.636 387.283 282.383 387.91L337.933 390.898L529.141 402.584L630.335 408.67C643.261 409.538 660.493 409.793 672.925 411.867C677.393 412.612 681.637 414.64 684.799 417.92C688.096 421.34 690.691 426.073 691.271 430.805C692.429 440.24 691.575 450.507 691.557 460.034L691.663 514.516L692.478 711.783ZM280.465 414.021C278.193 415.245 276.445 416.293 275.628 418.868C274.232 423.27 275.18 438.671 277.344 442.502C278.949 445.343 282.248 446.195 285.23 446.941C295.34 449.468 308.842 449.515 319.357 450.349C327.475 450.993 336.252 452.405 344.372 452.065C345.812 452.005 346.849 451.881 348.131 451.132C349.242 450.482 350.042 449.001 350.742 447.955C350.753 447.938 350.766 447.922 350.778 447.906C364.988 449.186 379.268 449.88 393.499 450.919L500.838 458.364C521.268 459.716 541.753 460.651 562.13 462.7L565.179 466.321C575.183 467.355 629.261 471.389 635.672 469.397C640.103 466.975 643.123 464.15 644.687 459.205C646.134 454.63 645.672 449.267 643.401 445.031C641.808 442.06 638.71 438.98 635.426 437.98C629.265 436.104 621.31 436.34 614.846 435.883L579.222 433.411L421.086 423.143L332.83 417.237C321.689 416.401 310.541 415.645 299.389 414.969C293.119 414.562 286.748 413.742 280.465 414.021ZM308.033 460.16C302.184 461.081 297.356 463.769 293.901 468.676C291.012 472.779 290.004 477.545 289.604 482.457C288.87 491.493 289.461 500.963 289.469 510.052L289.506 564.177L289.527 626.097C289.538 637.333 288.4 650.106 290.602 661.134C292.426 670.266 297.653 677.358 305.396 682.445C309.333 685.032 313.558 686.777 318.221 687.507C329.739 689.31 341.745 689.759 353.374 690.734L415.816 696.126L544.07 707.505L578.464 710.589C589.424 711.577 602.519 714.272 613.268 711.893C613.47 711.849 613.671 711.8 613.872 711.753C621.356 708.788 626.935 704.391 630.242 696.879C631.64 693.687 632.447 690.267 632.622 686.787C633.178 677.211 632.625 667.346 632.565 657.747L632.49 608.029L632.349 543.467C632.306 532.703 632.677 521.752 632.141 511.008C631.946 507.118 631.43 503.404 629.909 499.782C627.098 493.087 621.915 486.308 615.052 483.409C607.696 480.301 578.343 479.149 568.831 478.293C501.421 472.414 433.938 467.394 366.4 463.232L332.744 460.988C324.584 460.447 316.21 459.668 308.033 460.16Z" fill="url(#paint2_linear_407_1120)"/>
<path d="M647.919 396.417C668.442 397.404 689.05 399.455 709.592 399.598L714.172 707.108C709.983 706.02 700.619 710.081 695.448 710.665C695.225 710.69 695.004 710.725 694.782 710.753L694.381 710.801C693.444 644.734 693.878 578.616 693.563 512.541L693.533 459.07C693.535 449.923 694.185 440.222 693.251 431.128C692.802 426.76 690.78 422.132 688.094 418.644C679.157 407.038 662.706 409.778 649.845 408.133L649.296 408.059C649.599 407.958 649.898 407.846 650.204 407.758C653.548 406.794 671.977 408.402 675.912 409.415C677.194 409.745 678.489 410.371 679.623 411.049C679.85 411.185 680.072 411.327 680.296 411.466L680.841 411.304L681.806 409.477C682.924 409.328 682.548 409.241 683.513 409.572C685.204 410.152 686.58 410.642 688.375 410.816C689.226 410.899 689.889 411.885 690.499 412.488L691.099 412.276L691.941 410.311C692.894 409.844 693.794 409.515 694.791 409.157C695.045 407.856 695.024 407.139 694.669 405.845C694.382 404.8 694.283 404.727 694.562 403.627C696.916 402.257 699.755 403.233 702.03 402.033C702.71 401.674 702.519 401.63 702.82 400.777C702.529 400.543 702.307 400.175 701.947 400.076C700.308 399.624 697.233 400.3 695.411 400.203C689.396 399.884 651.749 398.433 648.794 396.919C648.494 396.766 648.21 396.584 647.919 396.417Z" fill="#8EECF5"/>
<path d="M821.409 401.81C824.129 405.267 825.971 409.618 828.018 413.52C831.219 419.62 834.447 425.758 838.03 431.642C849.834 451.563 861.171 471.615 873.828 491.03C887.823 512.499 902.963 533.418 915.468 555.815C919.617 563.246 923.06 571.065 926.55 578.82C946.998 624.256 954.31 671.37 941.774 720.228C924.28 788.407 862.957 855.823 803.285 891.077C792.264 897.588 781.182 904.21 769.617 909.714C757.915 915.283 745.805 919.738 733.504 923.775C682.702 940.447 634.624 942.541 582.717 929.134C532.326 916.119 494.52 888.247 463.061 847.328L463.182 846.995C473.882 841.669 505.982 828.639 512.699 820.514C520.44 820.559 528.883 822.112 536.618 822.974L590.191 829.181L639.558 834.628C645.878 835.343 653.008 835.429 659.178 836.75C662.753 837.515 665.45 840.031 668.509 841.864C671.794 843.832 677.88 845.782 681.654 844.344C683.286 843.722 684.006 842.791 684.757 841.296C685.049 840.715 685.39 839.727 686.026 839.426C687.1 838.918 690.222 838.932 691.505 838.801C701.85 837.739 709.105 835.669 716.655 828.139C722.484 822.324 727.421 815.475 732.698 809.15L760.234 776.482L797.743 732.954C802.229 727.713 806.952 722.622 811.206 717.189C814.205 713.358 817.706 708.784 819.515 704.237C821.097 700.261 821.774 695.538 822.036 691.287C822.655 681.246 822.161 670.945 822.148 660.866L822.159 605.142L821.409 401.81Z" fill="#B9FBC0"/>
<path d="M350.778 447.906C350.766 447.922 350.753 447.938 350.742 447.955C350.042 449.001 349.242 450.482 348.131 451.132C346.849 451.881 345.812 452.005 344.372 452.065C336.252 452.405 327.475 450.993 319.357 450.349C308.842 449.515 295.34 449.468 285.23 446.941C282.248 446.195 278.949 445.343 277.344 442.502C275.18 438.671 274.232 423.27 275.628 418.868C276.445 416.293 278.193 415.245 280.465 414.021C286.748 413.742 293.119 414.562 299.389 414.969C310.541 415.645 321.689 416.401 332.83 417.237L421.086 423.143L579.222 433.411L614.846 435.883C621.31 436.34 629.265 436.104 635.426 437.98C638.71 438.98 641.808 442.06 643.401 445.031C645.672 449.267 646.134 454.63 644.687 459.205C643.123 464.15 640.103 466.975 635.672 469.397C629.261 471.389 575.183 467.355 565.179 466.321L562.13 462.7C541.753 460.651 521.268 459.716 500.838 458.364L393.499 450.919C379.268 449.88 364.988 449.186 350.778 447.906ZM280.378 415.998C278.194 417.814 277.322 418.988 276.992 421.856C276.484 426.279 276.83 438.819 279.502 442.186C280.952 444.013 283.49 444.672 285.663 445.167C293.961 447.059 303.087 447.221 311.576 447.891C322.041 448.718 332.533 449.773 343.006 450.431C343.596 450.468 344.18 450.474 344.771 450.478C346.158 449.825 347.01 449.672 347.701 448.168C349.349 444.584 348.116 425.499 348.231 420.187C332.759 418.96 317.277 417.856 301.787 416.874C295.063 416.433 287.015 415.007 280.378 415.998ZM350.156 420.463C350.066 429.077 350.163 437.691 350.447 446.299C382.883 447.398 415.402 450.608 447.791 452.847C485.988 455.488 524.345 457.33 562.484 460.604L562.598 434.198C517.854 430.961 473.088 428.028 428.304 425.401L375.977 421.873C367.409 421.337 358.738 420.503 350.156 420.463ZM564.539 434.459C564.474 440.744 563.192 458.498 565.347 463.517C570.185 465.673 630.089 469.209 634.512 467.594C636.388 466.909 637.972 465.897 639.57 464.719C642.732 460.866 644.038 456.704 643.466 451.698C643.035 447.925 641.386 444.093 638.315 441.735C636.357 440.231 634.17 439.608 631.781 439.144C623.262 437.489 613.623 437.579 604.932 436.979C591.545 436.055 577.955 434.685 564.539 434.459Z" fill="#020202"/>
<path d="M344.771 450.478C344.18 450.474 343.596 450.468 343.006 450.431C332.533 449.773 322.041 448.718 311.576 447.891C303.087 447.221 293.961 447.059 285.663 445.167C283.49 444.672 280.952 444.013 279.502 442.186C276.83 438.819 276.484 426.279 276.992 421.856C277.322 418.988 278.194 417.814 280.378 415.998C287.015 415.007 295.063 416.433 301.787 416.874C317.277 417.856 332.759 418.96 348.231 420.187C348.116 425.499 349.349 444.584 347.701 448.168C347.01 449.672 346.158 449.825 344.771 450.478ZM308.914 430.089C306.275 430.662 303.287 431.482 301.458 433.603C301.325 434.321 301.092 434.638 301.501 435.313C303.199 438.117 308.228 439.363 311.221 439.872C315.18 440.546 319.099 440.267 323.045 439.646C325.648 438.879 328.448 438.394 329.874 435.828C329.762 434.483 329.614 433.981 328.52 433.115C323.715 429.315 314.736 429.569 308.914 430.089Z" fill="#CFBAF0"/>
<path d="M350.447 446.299C350.163 437.691 350.066 429.077 350.156 420.463C358.738 420.503 367.409 421.337 375.977 421.873L428.304 425.401C473.088 428.028 517.854 430.961 562.598 434.198L562.484 460.604C524.345 457.33 485.988 455.488 447.791 452.847C415.402 450.608 382.883 447.398 350.447 446.299Z" fill="#90DBF4"/>
<path d="M323.045 439.646C319.099 440.267 315.18 440.546 311.221 439.872C308.228 439.363 303.199 438.117 301.501 435.313C301.092 434.638 301.325 434.321 301.458 433.603C303.287 431.482 306.275 430.662 308.914 430.089C314.736 429.569 323.715 429.315 328.52 433.115C329.614 433.981 329.762 434.483 329.874 435.828C328.448 438.394 325.648 438.879 323.045 439.646ZM312.254 431.647C309.505 432.063 306.485 432.102 304.469 434.232C304.527 435.098 304.354 435.206 305.034 435.848C308.038 438.688 314.847 438.682 318.704 438.379C321.005 437.977 324.803 437.764 326.394 435.912C326.52 435.765 326.615 435.593 326.726 435.433C326.494 434.37 326.447 434.196 325.467 433.578C322.13 431.473 316.16 431.429 312.254 431.647Z" fill="#020202"/>
<path d="M318.704 438.379C314.847 438.682 308.038 438.688 305.034 435.848C304.354 435.206 304.527 435.098 304.469 434.232C306.485 432.102 309.505 432.063 312.254 431.647C316.16 431.429 322.13 431.473 325.467 433.578C326.447 434.196 326.494 434.37 326.726 435.433C326.615 435.593 326.52 435.765 326.394 435.912C324.803 437.764 321.005 437.977 318.704 438.379Z" fill="#CFBAF0"/>
<path d="M639.57 464.719C637.972 465.897 636.388 466.909 634.512 467.594C630.089 469.209 570.185 465.673 565.347 463.517C563.192 458.498 564.474 440.744 564.539 434.459C577.955 434.685 591.545 436.055 604.932 436.979C613.623 437.579 623.262 437.489 631.781 439.144C634.17 439.608 636.357 440.231 638.315 441.735C641.386 444.093 643.035 447.925 643.466 451.698C644.038 456.704 642.732 460.866 639.57 464.719ZM591.093 446.635C588.157 447.157 585.273 447.475 582.998 449.582C582.582 450.606 582.294 451.518 582.76 452.614C583.52 454.406 585.425 455.295 587.175 455.835C592.443 457.462 598.652 457.178 604.101 456.96C606.756 456.456 609.538 455.966 611.253 453.682C611.369 452.52 611.239 451.944 610.453 451.027C607.641 447.745 601.496 446.398 597.369 446.377C595.294 446.367 593.153 446.374 591.093 446.635Z" fill="#8EECF5"/>
<path d="M604.101 456.96C598.652 457.178 592.443 457.462 587.175 455.835C585.425 455.295 583.52 454.406 582.76 452.614C582.294 451.518 582.582 450.606 582.998 449.582C585.273 447.475 588.157 447.157 591.093 446.635C593.153 446.374 595.294 446.367 597.369 446.377C601.496 446.398 607.641 447.745 610.453 451.027C611.239 451.944 611.369 452.52 611.253 453.682C609.538 455.966 606.756 456.456 604.101 456.96ZM592.737 448.125C590.535 448.506 586.799 448.727 585.331 450.575C585.22 450.716 585.143 450.882 585.049 451.035C585.384 452.271 585.778 452.644 586.928 453.248C591.415 455.603 597.326 455.62 602.275 455.497C604.337 455.071 606.273 454.821 608.029 453.584L608.629 452.43C607.971 450.925 606.985 450.29 605.478 449.659C601.348 447.928 597.134 447.832 592.737 448.125Z" fill="#020202"/>
<path d="M602.275 455.497C597.326 455.62 591.415 455.603 586.928 453.248C585.778 452.644 585.384 452.271 585.049 451.035C585.143 450.882 585.22 450.716 585.331 450.575C586.799 448.727 590.535 448.506 592.737 448.125C597.134 447.832 601.348 447.928 605.478 449.659C606.985 450.29 607.971 450.925 608.629 452.43L608.029 453.584C606.273 454.821 604.337 455.071 602.275 455.497Z" fill="#8EECF5"/>
<path d="M613.872 711.753C613.671 711.8 613.47 711.849 613.268 711.893C602.519 714.272 589.424 711.577 578.464 710.589L544.07 707.505L415.816 696.126L353.374 690.734C341.745 689.759 329.739 689.31 318.221 687.507C313.558 686.777 309.333 685.032 305.396 682.445C297.653 677.358 292.426 670.266 290.602 661.134C288.4 650.106 289.538 637.333 289.527 626.097L289.506 564.177L289.469 510.052C289.461 500.963 288.87 491.493 289.604 482.457C290.004 477.545 291.012 472.779 293.901 468.676C297.356 463.769 302.184 461.081 308.033 460.16C316.21 459.668 324.584 460.447 332.744 460.988L366.4 463.232C433.938 467.394 501.421 472.414 568.831 478.293C578.343 479.149 607.696 480.301 615.052 483.409C621.915 486.308 627.098 493.087 629.909 499.782C631.43 503.404 631.946 507.118 632.141 511.008C632.677 521.752 632.306 532.703 632.349 543.467L632.49 608.029L632.565 657.747C632.625 667.346 633.178 677.211 632.622 686.787C632.447 690.267 631.64 693.687 630.242 696.879C626.935 704.391 621.356 708.788 613.872 711.753ZM306.022 462.137C300.279 464.393 296.023 467.591 293.487 473.42C291.911 477.043 291.341 480.992 291.133 484.909C290.66 493.827 291.186 503.006 291.26 511.945L291.357 557.707L291.466 620.631C291.482 632.03 290.967 643.584 291.569 654.956C291.776 658.864 292.421 662.596 293.941 666.219C297.351 674.352 303.971 680.416 312.089 683.73C321.444 687.549 335.411 687.374 345.511 688.227L385.478 691.524L478.077 699.607L564.654 707.459C577.81 708.637 591.113 710.3 604.293 710.98C607.769 711.159 611.146 710.589 614.467 709.593C621.203 706.701 625.893 702.612 628.674 695.647C629.984 692.364 630.602 688.88 630.752 685.36C631.186 675.229 630.645 664.868 630.593 654.718L630.503 597.072L630.428 542.167C630.41 531.617 630.772 520.899 630.051 510.375C629.786 506.499 629.08 502.871 627.438 499.319C624.583 493.142 619.336 486.889 612.765 484.686C605.298 482.183 594.142 482.268 586.142 481.553C567.197 479.846 548.243 478.257 529.279 476.786C478.366 472.679 427.419 468.989 376.445 465.715L334.795 462.963C325.393 462.364 315.413 461.176 306.022 462.137Z" fill="#020202"/>
<path d="M614.467 709.593C611.146 710.589 607.769 711.159 604.293 710.98C591.113 710.3 577.81 708.637 564.654 707.459L478.077 699.607L385.478 691.524L345.511 688.227C335.411 687.374 321.444 687.549 312.089 683.73C303.971 680.416 297.351 674.352 293.941 666.219C292.421 662.596 291.776 658.864 291.569 654.956C290.967 643.584 291.482 632.03 291.466 620.631L291.357 557.707L291.26 511.945C291.186 503.006 290.66 493.827 291.133 484.909C291.341 480.992 291.911 477.043 293.487 473.42C296.023 467.591 300.279 464.393 306.022 462.137C315.413 461.176 325.393 462.364 334.795 462.963L376.445 465.715C427.419 468.989 478.366 472.679 529.279 476.786C548.243 478.257 567.197 479.846 586.142 481.553C594.142 482.268 605.298 482.183 612.765 484.686C619.336 486.889 624.583 493.142 627.438 499.319C629.08 502.871 629.786 506.499 630.051 510.375C630.772 520.899 630.41 531.617 630.428 542.167L630.503 597.072L630.593 654.718C630.645 664.868 631.186 675.229 630.752 685.36C630.602 688.88 629.984 692.364 628.674 695.647C625.893 702.612 621.203 706.701 614.467 709.593Z" fill="url(#paint3_linear_407_1120)"/>
<path d="M593.957 767.546C596.795 764.102 605.185 759.872 609.248 757.137C632.305 741.619 652.708 727.026 678.645 716.519C683.02 714.746 687.827 712.598 692.478 711.783L692.553 776.94L640.258 771.977C624.835 770.601 609.32 769.493 593.957 767.546Z" fill="#B9FBC0"/>
<path d="M536.337 764.104L589.237 769.149C588.691 770.113 588.207 770.791 587.324 771.483C578.967 778.04 569.53 783.831 560.728 789.782C552.196 795.551 543.919 801.738 535.242 807.288C530.319 810.438 520.36 814.778 517.068 819.082C506.252 818.235 495.087 816.737 484.365 815.045C489.199 814.298 493.925 816.395 498.509 815.527L498.485 815.024C497.671 814.732 497.942 814.718 497.203 814.796C496.058 814.915 495.338 815.111 494.205 814.699L494.175 813.842C495.546 811.712 497.015 810.316 499.453 809.526C500.802 809.674 501.769 809.933 502.79 810.899C503.778 811.835 503.957 812.678 504.023 813.976C503.691 814.909 503.434 815.349 502.633 815.913C502.395 816.08 502.153 816.239 501.913 816.402C502.953 816.701 503.937 816.822 505.021 816.803C506.01 816.786 506.901 816.635 507.82 817.091C507.97 817.165 508.096 817.281 508.234 817.376C509.755 815.532 513.307 811.582 515.479 810.896C515.642 810.845 515.815 810.838 515.983 810.809C516.027 810.611 516.091 810.416 516.115 810.214C516.76 804.688 510.446 800.78 509.177 796.389C508.679 794.666 509.85 793.731 508.617 791.984C507.722 790.715 506.757 789.53 506.222 788.052C505.242 785.342 505.224 780.472 506.976 778.058C508.357 776.157 515.062 777.84 517.553 777.365L517.896 776.529C518.951 776.82 519.641 778.675 520.208 779.634C521.74 778.269 523.709 778.606 525.719 778.242C528.057 775.844 532.018 774.777 533.235 771.526C532.173 770.682 531.141 769.985 530.514 768.745L531.011 767.951C533.427 767.043 536.664 767.162 539.246 766.961C537.965 766.356 537.799 765.061 536.337 764.104Z" fill="#8EECF5"/>
<path d="M498.419 807.277C497.606 805.734 497.211 803.45 497.025 801.717C496.584 797.603 494.995 797.234 494.236 794.15C493.198 789.935 498.419 787.123 500.564 784.225C500.816 782.584 501.201 781.234 501.811 779.692C502.784 779.672 503.012 779.714 503.965 780.105C504.184 780.932 504.204 780.817 504.252 781.489C504.547 785.682 504.765 803.652 502.567 806.292C501.091 807.289 500.175 807.302 498.419 807.277Z" fill="#8EECF5"/>
<path d="M287.874 797.754C319.169 800.162 350.443 802.848 381.691 805.81C401.183 807.576 421.016 808.876 440.372 811.725C441.426 819.393 458.619 839.337 463.182 846.995L463.061 847.328C446.455 852.33 430.809 856.98 413.254 857.093C368.23 857.382 319.24 828.896 287.874 797.754Z" fill="#A3C4F3"/>
<path d="M440.372 811.725C456.091 813.511 471.8 815.388 487.497 817.356C495.857 818.385 504.4 819.108 512.699 820.514C505.982 828.639 473.882 841.669 463.182 846.995C458.619 839.337 441.426 819.393 440.372 811.725Z" fill="#8EECF5"/>
<defs>
<linearGradient id="paint0_linear_407_1120" x1="643.39" y1="357.335" x2="637.142" y2="323.639" gradientUnits="userSpaceOnUse">
<stop stop-color="#BBFCEC"/>
<stop offset="1" stop-color="#ADF2F8"/>
</linearGradient>
<linearGradient id="paint1_linear_407_1120" x1="190.827" y1="559.382" x2="674.928" y2="621.011" gradientUnits="userSpaceOnUse">
<stop stop-color="#FDCBF3"/>
<stop offset="1" stop-color="#A2FFFE"/>
</linearGradient>
<linearGradient id="paint2_linear_407_1120" x1="210.282" y1="528.414" x2="707.575" y2="618.326" gradientUnits="userSpaceOnUse">
<stop stop-color="#F1D4F8"/>
<stop offset="1" stop-color="#A4FDFC"/>
</linearGradient>
<linearGradient id="paint3_linear_407_1120" x1="280.006" y1="554.176" x2="641.814" y2="613.887" gradientUnits="userSpaceOnUse">
<stop stop-color="#E5DAFA"/>
<stop offset="1" stop-color="#A9FCFD"/>
</linearGradient>
</defs>
</svg>
