<svg width="1024" height="1024" viewBox="0 0 1024 1024" fill="none" xmlns="http://www.w3.org/2000/svg">
<path d="M550.261 168.02C562.466 160.16 575.097 154.183 588.081 147.761C634.159 124.971 681.492 105.803 731.056 91.9988C744.271 88.3182 757.676 84.3572 771.286 82.42C795.704 78.9448 818.971 79.3738 843.093 84.5947C876.492 91.8235 907.143 114.183 925.52 142.77C963.111 201.245 947.675 271.565 936.195 335.302C928.998 375.261 920.641 415.709 917.428 456.227L917.292 457.718C915.053 475.18 913.778 492.741 911.921 510.244C910.563 523.042 909.161 536.175 905.622 548.579C901.706 562.302 894.67 576.984 884.498 587.229L884.787 416.292C884.337 393.159 884.744 369.989 884.663 346.85C884.602 329.25 882.625 318.524 869.744 305.728C870.471 298.394 863.525 285.12 860.592 278.366C848.052 249.491 828.297 222.721 802.984 203.82C769.959 179.16 733.065 169.918 692.113 172.111C684.666 172.509 677.185 173.571 669.765 174.339C656.776 175.684 643.647 176.874 630.603 177.435C616.756 178.031 603.087 177.271 589.316 175.893C579.681 174.929 559.131 171.644 550.695 168.205C550.55 168.146 550.406 168.082 550.261 168.02Z" fill="#B9FBC0"/>
<path d="M112.819 550.755C109.477 545.055 106.298 539.474 103.4 533.531C82.0429 489.725 72.922 447.32 73.4265 398.674C73.71 371.337 77.6508 343.457 86.6014 317.559C110.151 249.421 156.238 194.871 221.352 163.261C243.038 152.734 265.452 145.246 288.962 139.992C351.826 125.944 405.664 132.072 467.778 145.898C495.222 152.007 522.892 158.979 549.486 168.163C507.436 188.75 459.255 224.114 429.947 261.019C416.272 259.957 401.979 257.962 388.469 261.092C378.264 263.456 368.864 267.852 359.233 271.846L323.969 286.533L260.49 312.951C251.146 316.926 241.63 320.745 232.468 325.109C224.981 328.674 215.761 332.804 209.48 338.221C204.93 342.144 189.777 359.087 187.39 364.213C185.893 367.425 185.385 371.439 185.126 374.953C184.103 388.841 184.96 403.413 184.96 417.368L184.984 497.267C181.37 497.606 177.214 500.18 173.946 501.779C151.173 512.916 129.919 529.985 113.785 549.562C113.459 549.957 113.137 550.354 112.819 550.755Z" fill="#CFBAF0"/>
<path d="M549.486 168.163L550.261 168.02C550.406 168.082 550.55 168.146 550.695 168.205C559.131 171.644 579.681 174.929 589.316 175.893C603.087 177.271 616.756 178.031 630.603 177.435C643.647 176.874 656.776 175.684 669.765 174.339C677.185 173.571 684.666 172.509 692.113 172.111C733.065 169.918 769.959 179.16 802.984 203.82C828.297 222.721 848.052 249.491 860.592 278.366C863.525 285.12 870.471 298.394 869.744 305.728C863.691 300.329 856.273 296.694 848.297 295.218C831.646 292.086 811.081 291.55 793.956 290.149C759.462 287.204 724.945 284.528 690.409 282.121C634.235 278.232 578.05 273.339 521.939 268.601C491.262 266.229 460.598 263.702 429.947 261.019C459.255 224.114 507.436 188.75 549.486 168.163Z" fill="#80FBBB"/>
<path d="M184.984 497.267L184.96 417.368C184.96 403.413 184.103 388.841 185.126 374.953C185.385 371.439 185.893 367.425 187.39 364.213C189.777 359.087 204.93 342.144 209.48 338.221C215.761 332.804 224.981 328.674 232.468 325.109C241.63 320.745 251.146 316.926 260.49 312.951L323.969 286.533L359.233 271.846C368.864 267.852 378.264 263.456 388.469 261.092C401.979 257.962 416.272 259.957 429.947 261.019C460.598 263.702 491.262 266.229 521.939 268.601C578.05 273.339 634.235 278.232 690.409 282.121C724.945 284.528 759.462 287.204 793.956 290.149C811.081 291.55 831.646 292.086 848.297 295.218C856.273 296.694 863.691 300.329 869.744 305.728C882.625 318.524 884.602 329.25 884.663 346.85C884.744 369.989 884.337 393.159 884.787 416.292L884.498 587.229C884.388 595.171 884.383 603.114 884.482 611.056C884.593 628.241 884.954 647.137 871.703 660.104C868.353 663.383 864.452 665.971 860.611 668.63C860.015 678.249 857.3 686.759 849.817 693.27C839.625 702.137 820.595 707.032 807.331 706.029C807.16 706.016 806.99 705.999 806.82 705.985C799.452 710.302 792.438 715.357 785.355 720.128C773.469 728.193 761.529 736.18 749.537 744.088C742.195 748.922 735.122 753.764 727.337 757.891C725.583 764.911 722.479 770.648 716.046 774.505C702.139 782.841 684.544 779.612 669.44 777.455C664.737 776.783 659.712 776.586 655.138 775.33C648.848 773.602 644.092 769.564 640.9 763.894C639.726 761.81 638.79 759.56 637.829 757.37L636.154 753.475C622.246 750.92 607.893 749.618 593.863 747.685L507 735.843L291.95 707.653C288.136 713.897 282.336 718.68 275.479 721.233C271.89 722.557 267.994 722.824 264.198 722.795C255.454 722.729 224.348 718.877 216.941 715.345C209.236 711.672 206.654 704.126 204.124 696.613C199.78 695.209 195.626 693.097 192.353 689.862C188.442 685.996 185.944 680.663 185.133 675.245C184.114 668.433 184.739 660.964 184.782 654.064L185.014 615.491L184.984 497.267ZM427.939 263.334C414.902 262.182 401.863 260.496 388.909 263.308C378.571 265.552 368.732 270.341 359.009 274.41L314.705 293.156C294.861 301.451 274.877 309.349 255.124 317.885C246.705 321.523 237.692 324.81 229.751 329.37C253.122 330.564 276.45 333.081 299.748 335.214L381.059 342.475C388.395 342.578 396.039 343.824 403.372 344.436L452.148 348.521L585.808 359.793L680.478 367.896C694.914 369.127 715.258 369.511 728.908 372.933C742.727 366.858 756.079 358.771 769.38 351.611L859.952 301.891C855.48 299.834 850.935 298.437 846.091 297.568C828.926 294.488 808.075 293.899 790.401 292.489L681.978 284.052L427.939 263.334ZM876.327 317.839C872.678 311.787 867.926 307.165 861.961 303.37C840.633 315.944 818.731 327.607 797.003 339.471C775.274 351.336 753.579 363.479 731.437 374.553C739.811 380.623 746.478 387.783 748.15 398.377C749.732 408.403 748.908 419.445 748.917 429.592L748.887 485.666L748.864 612.03C748.795 626.936 749.008 641.891 748.672 656.789C748.118 671.584 748.569 686.54 748.599 701.349C748.618 710.382 749.244 719.771 747.245 728.63C745.386 736.867 742.145 743.328 737.001 749.962C748.74 741.194 761.417 733.513 773.57 725.321L835.327 682.948C845.227 676.133 863.168 665.138 870.965 657.207C885.536 642.385 882.007 611.612 881.85 592.478C882.83 535.903 882.098 479.199 882.053 422.611L882.065 367.12C882.079 355.897 882.66 344.305 881.541 333.141C880.971 327.458 879.131 322.766 876.327 317.839ZM372.329 344.152L268.02 334.694C259.099 333.931 234.346 330.988 226.817 332.132C220.677 333.065 214.527 336.635 209.858 340.622C206.041 343.881 202.949 347.627 200.003 351.669C203.429 350.585 206.332 350.125 209.951 350.215C216.815 350.387 223.75 351.38 230.582 352.078L266.278 355.703C296.681 358.725 327.107 361.499 357.555 364.026C435.621 371.323 513.727 378.196 591.868 384.645L667.918 391.307C679.411 392.315 693.587 392.535 704.638 394.701C710.809 395.911 716.009 398.748 720.101 403.587C722.438 406.35 724.021 409.357 725.327 412.714C727.881 422.215 726.531 433.792 726.519 443.649L726.476 484.63L726.362 659.863L726.441 705.334C726.454 712.055 727.361 719.901 726.175 726.474C725.671 729.265 724.554 731.73 722.488 733.713C719.158 736.911 714.541 737.727 710.08 737.499C700.084 736.988 687.197 735.182 677.532 732.612C678.345 731.784 679.077 731.316 680.1 730.772C689.988 732.556 700.806 734.726 710.847 734.934C714.495 735.01 718.556 734.29 721.199 731.557C722.835 729.865 723.473 727.601 723.816 725.324C724.623 719.967 724.014 713.921 724.015 708.477L723.979 673.307L724.02 657.617L724.064 488.998L724.142 441.471C724.155 433.687 724.898 425.018 723.788 417.33C723.094 412.529 720.756 408.165 717.517 404.593C714.149 400.879 710.988 399.12 706.177 397.828C697.172 395.41 679.89 394.858 669.677 393.937C648.196 392 626.518 389.434 604.984 388.417C604.761 437.527 604.787 486.639 605.062 535.749C605.116 606.052 604.583 676.447 605.448 746.74C620.737 748.808 636.581 750.021 651.688 753.012C661.761 754.272 671.812 755.703 681.837 757.306C690.152 758.578 698.726 760.153 707.147 760.285C717.085 760.533 726.697 756.739 733.787 749.772C739.472 744.148 743.058 736.508 744.78 728.765C747.038 718.614 746.072 707.252 746.066 696.893L746.204 655.716C747.003 600.09 746.424 544.399 746.43 488.765L746.427 434.272C746.422 423.314 746.983 411.975 745.788 401.089C745.206 394.539 742.633 388.326 738.414 383.283C734.308 378.339 729.371 375.632 723.14 374.346C710.972 371.834 696.503 371.665 683.996 370.667L617.5 365.019L372.329 344.152ZM353.35 366.018C320.067 363.166 286.804 360.074 253.565 356.742C244.002 355.799 234.445 354.794 224.895 353.726C219.188 353.105 213.169 352.043 207.425 352.311C203.294 352.504 199.427 353.764 196.204 356.393C191.201 360.502 188.08 366.465 187.554 372.918C186.407 386.736 187.342 401.288 187.389 415.171L187.475 494.488L187.433 619.739L187.351 655.517C187.333 662.136 186.812 669.324 187.731 675.882C188.297 679.921 191.256 685.12 194.071 687.947C197.217 691.106 200.91 692.845 205.238 693.719C217.501 696.195 230.565 696.957 242.998 698.559L318.312 708.443L468.055 728.228C512.926 734.051 557.955 739.483 602.648 746.568C603.028 710.508 603.033 674.444 602.662 638.384L602.481 540.381L602.462 388.134C566.771 384.295 530.871 382.151 495.11 379.1L353.35 366.018ZM857.441 670.436C852.736 673.764 812.057 701.233 810.83 703.213L811.228 703.497C824.742 702.318 842.018 699.383 851.218 688.267C854.85 683.879 858.235 676.741 857.905 670.935L857.441 670.436ZM207.091 696.815C209.301 703.484 211.372 709.435 218.095 712.782C225.856 716.646 255.643 720.302 264.854 720.305C268.007 720.307 271.134 720.026 274.131 718.978C277.252 717.886 279.834 716.169 282.534 714.318C285.083 712.158 287.228 710.013 289.198 707.281C276.706 705.084 263.913 703.858 251.32 702.248C236.609 700.368 221.856 698.158 207.091 696.815ZM639.374 753.981C642.066 761.245 645.069 768.467 652.683 771.781C660.361 775.124 688.241 777.801 696.891 777.277C701.777 776.981 706.642 775.993 711.159 774.078C713.905 772.908 716.439 771.292 718.658 769.295C721.406 766.317 722.767 763.426 724.109 759.686C718.707 761.498 713.687 762.631 707.965 762.69C694.455 762.83 680.373 759.554 666.988 757.655C657.847 756.358 648.426 755.738 639.374 753.981Z" fill="black"/>
<path d="M229.751 329.37C237.692 324.81 246.705 321.523 255.124 317.885C274.877 309.349 294.861 301.451 314.705 293.156L359.009 274.41C368.732 270.341 378.571 265.552 388.909 263.308C401.863 260.496 414.902 262.182 427.939 263.334L427.685 263.758C423.019 271.423 417.411 278.443 412.854 286.257C405.934 298.123 400.211 310.644 393.324 322.517C389.563 329 383.736 335.547 381.059 342.475L299.748 335.214C276.45 333.081 253.122 330.564 229.751 329.37Z" fill="#CFBAF0"/>
<path d="M427.939 263.334L681.978 284.052L790.401 292.489C808.075 293.899 828.926 294.488 846.091 297.568C850.935 298.437 855.48 299.834 859.952 301.891L769.38 351.611C756.079 358.771 742.727 366.858 728.908 372.933C715.258 369.511 694.914 369.127 680.478 367.896L585.808 359.793L452.148 348.521L403.372 344.436C396.039 343.824 388.395 342.578 381.059 342.475C383.736 335.547 389.563 329 393.324 322.517C400.211 310.644 405.934 298.123 412.854 286.257C417.411 278.443 423.019 271.423 427.685 263.758L427.939 263.334Z" fill="#80FBBB"/>
<path d="M876.327 317.839C875.154 318.476 874.795 318.666 874.288 320.002C872.948 323.537 875.465 332.961 875.811 337.087C876.587 346.344 876.718 355.522 876.669 364.806C876.61 376.081 875.353 387.045 874.564 398.26C870.113 461.524 859.083 509.707 828.983 565.871C816.018 590.062 799.271 613.069 779.03 631.677C774.388 635.944 769.547 640.481 764.4 644.115C759.762 647.39 754.466 650.067 750.083 653.665C749.196 654.393 749.03 654.966 748.737 656.028L748.672 656.789C749.008 641.891 748.795 626.936 748.864 612.03L748.887 485.666L748.917 429.592C748.908 419.445 749.732 408.403 748.15 398.377C746.478 387.783 739.811 380.623 731.437 374.553C753.579 363.479 775.274 351.336 797.003 339.471C818.731 327.607 840.633 315.944 861.961 303.37C867.926 307.165 872.678 311.787 876.327 317.839Z" fill="#80FBBB"/>
<path d="M748.737 656.028C749.03 654.966 749.196 654.393 750.083 653.665C754.466 650.067 759.762 647.39 764.4 644.115C769.547 640.481 774.388 635.944 779.03 631.677C799.271 613.069 816.018 590.062 828.983 565.871C859.083 509.707 870.113 461.524 874.564 398.26C875.353 387.045 876.61 376.081 876.669 364.806C876.718 355.522 876.587 346.344 875.811 337.087C875.465 332.961 872.948 323.537 874.288 320.002C874.795 318.666 875.154 318.476 876.327 317.839C879.131 322.766 880.971 327.458 881.541 333.141C882.66 344.305 882.079 355.897 882.065 367.12L882.053 422.611C882.098 479.199 882.83 535.903 881.85 592.478C881.434 592.583 880.97 592.572 880.602 592.792C878.072 594.303 873.903 599.43 871.317 601.771C867.634 605.104 863.665 608.13 859.719 611.143C833.314 631.303 804.006 644.228 771.752 651.814C764.264 653.575 756.44 655.654 748.737 656.028Z" fill="#B9FBC0"/>
<path d="M200.003 351.669C202.949 347.627 206.041 343.881 209.858 340.622C214.527 336.635 220.677 333.065 226.817 332.132C234.346 330.988 259.099 333.931 268.02 334.694L372.329 344.152C369.415 351.142 360.033 358.09 357.555 364.026C327.107 361.499 296.681 358.725 266.278 355.703L230.582 352.078C223.75 351.38 216.815 350.387 209.951 350.215C206.332 350.125 203.429 350.585 200.003 351.669Z" fill="#A3C4F3"/>
<path d="M372.329 344.152L617.5 365.019L683.996 370.667C696.503 371.665 710.972 371.834 723.14 374.346C729.371 375.632 734.308 378.339 738.414 383.283C742.633 388.326 745.206 394.539 745.788 401.089C745.619 401.178 745.455 401.279 745.279 401.355C744.278 401.793 744.657 401.621 743.503 401.704C736.754 402.188 732.303 411.918 725.327 412.714C724.021 409.357 722.438 406.35 720.101 403.587C716.009 398.748 710.809 395.911 704.638 394.701C693.587 392.535 679.411 392.315 667.918 391.307L591.868 384.645C513.727 378.196 435.621 371.323 357.555 364.026C360.033 358.09 369.415 351.142 372.329 344.152Z" fill="#80FBBB"/>
<path d="M187.475 494.488L187.389 415.171C187.342 401.288 186.407 386.736 187.554 372.918C188.08 366.465 191.201 360.502 196.204 356.393C199.427 353.764 203.294 352.504 207.425 352.311C213.169 352.043 219.188 353.105 224.895 353.726C234.445 354.794 244.002 355.799 253.565 356.742C286.804 360.074 320.067 363.166 353.35 366.018C353.198 366.577 353.056 367.704 352.769 368.16C349.189 373.848 332.708 380.142 328.425 388.008C303.433 386.309 278.43 383.147 253.48 380.818C244.295 379.961 231.428 377.662 222.508 378.77C218.826 379.227 215.249 381.091 212.456 383.488C207.289 387.922 204.995 393.516 204.66 400.195C204.173 409.917 204.557 419.806 204.568 429.553C204.65 449.26 204.632 468.968 204.512 488.676C198.624 490.128 193.552 493.326 187.475 494.488Z" fill="url(#paint0_linear_407_61)"/>
<path d="M353.35 366.018L495.11 379.1C530.871 382.151 566.771 384.295 602.462 388.134L602.481 540.381C602.32 540.399 602.159 540.416 601.998 540.435C594.92 541.301 585.602 545.863 579.008 541.984L578.941 471.697C578.943 460.028 580.205 443.043 577.811 431.874C576.823 427.263 574.037 422.752 570.99 419.172C566.815 414.267 561.665 411.147 555.403 409.653C546.92 407.629 537.671 407.447 528.977 406.688C516.499 405.645 504.034 404.456 491.583 403.12L328.425 388.008C332.708 380.142 349.189 373.848 352.769 368.16C353.056 367.704 353.198 366.577 353.35 366.018Z" fill="#98F5E1"/>
<path d="M204.512 488.676C204.632 468.968 204.65 449.26 204.568 429.553C204.557 419.806 204.173 409.917 204.66 400.195C204.995 393.516 207.289 387.922 212.456 383.488C215.249 381.091 218.826 379.227 222.508 378.77C231.428 377.662 244.295 379.961 253.48 380.818C278.43 383.147 303.433 386.309 328.425 388.008L491.583 403.12C504.034 404.456 516.499 405.645 528.977 406.688C537.671 407.447 546.92 407.629 555.403 409.653C561.665 411.147 566.815 414.267 570.99 419.172C574.037 422.752 576.823 427.263 577.811 431.874C580.205 443.043 578.943 460.028 578.941 471.697L579.008 541.984L579.393 635.722C579.348 648.9 579.386 662.077 579.508 675.254C579.585 682.695 580.564 691.354 579.207 698.621C578.483 702.501 576.756 706.342 574.092 709.28C570.319 713.443 564.537 715.407 559.03 715.519C553.281 715.637 547.258 714.333 541.562 713.594L514.179 710.244L403.609 696.158L289.834 681.458L249.031 676.361C241.677 675.441 234.093 674.825 226.818 673.428C221.367 672.382 216.717 670.136 212.747 666.206C209.246 662.74 205.492 657.31 204.744 652.385C203.853 646.53 204.345 640.07 204.375 634.158L204.484 603.029L204.512 488.676ZM327.061 390.068L252.325 382.742C243.317 381.918 231.315 379.501 222.472 380.614C219.598 380.976 216.682 382.766 214.502 384.588C209.704 388.599 207.26 393.053 206.81 399.211C205.845 412.397 206.545 426.088 206.536 439.339L206.419 515.348L206.365 606.216C206.353 620.201 205.392 634.624 206.194 648.563C206.385 651.867 207.376 654.92 208.836 657.875C210.313 660.334 212.009 662.761 214.044 664.79C217.901 668.635 222.018 670.546 227.294 671.561C236.336 673.302 245.728 674.182 254.866 675.329L306.346 681.71L470.937 702.761C491.537 705.44 512.151 708.012 532.777 710.478C541.153 711.51 550.612 713.814 558.992 713.485C563.981 713.289 568.816 711.28 572.209 707.567C574.772 704.763 576.467 701.086 577.134 697.359C578.625 689.031 577.502 678.146 577.482 669.499C577.441 651.323 577.797 633.004 577.16 614.843C577.853 603.63 577.117 591.987 577.071 580.71L576.889 511.816L576.926 463.016C576.938 453.965 577.753 444.059 576.303 435.137C575.455 429.924 572.686 424.566 569.364 420.478C565.919 416.239 560.701 413.022 555.426 411.687C549.067 410.077 542.111 409.89 535.59 409.355C525.369 408.608 515.16 407.703 504.967 406.64C445.706 400.687 386.403 395.163 327.061 390.068Z" fill="black"/>
<path d="M208.836 657.875C207.376 654.92 206.385 651.867 206.194 648.563C205.392 634.624 206.353 620.201 206.365 606.216L206.419 515.348L206.536 439.339C206.545 426.088 205.845 412.397 206.81 399.211C207.26 393.053 209.704 388.599 214.502 384.588C216.682 382.766 219.598 380.976 222.472 380.614C231.315 379.501 243.317 381.918 252.325 382.742L327.061 390.068L327.388 391.219L251.641 384.123C242.429 383.349 232.183 381.322 223.031 382.044C220.318 382.259 217.854 383.552 215.805 385.29C211.776 388.707 209.016 393.569 208.589 398.87C207.713 409.745 208.431 421.199 208.446 432.141L208.546 498.368L208.423 595.433C208.389 612.392 207.963 629.457 208.449 646.406C208.555 650.081 208.564 654.053 210.017 657.488L208.836 657.875Z" fill="#FFCFD2"/>
<path d="M210.017 657.488C208.564 654.053 208.555 650.081 208.449 646.406C207.963 629.457 208.389 612.392 208.423 595.433L208.546 498.368L208.446 432.141C208.431 421.199 207.713 409.745 208.589 398.87C209.016 393.569 211.776 388.707 215.805 385.29C217.854 383.552 220.318 382.259 223.031 382.044C232.183 381.322 242.429 383.349 251.641 384.123L327.388 391.219C385.732 396.367 444.04 401.91 502.31 407.845C512.67 408.949 523.041 409.937 533.423 410.809C540.329 411.429 547.577 411.664 554.307 413.436C559.459 414.792 563.859 417.941 567.245 422.001C571.417 427.004 573.316 432.353 574.177 438.765C575.351 447.499 574.862 456.733 574.87 465.546L574.667 512.843L575.388 637.532C574.505 650.688 575.169 664.224 575.243 677.421C575.278 683.623 575.924 690.534 574.565 696.591C573.708 700.411 572.282 703.332 569.327 705.934C564.234 710.417 559.114 711.55 552.531 711.017C544.501 710.367 536.424 709.034 528.425 708.002L483.988 702.419C434.857 696.762 385.768 690.741 336.725 684.357L266.951 675.501C257.774 674.437 248.607 673.29 239.451 672.059C235.036 671.484 230.462 671.211 226.115 670.259C221.066 669.153 217.024 666.779 213.635 662.865C212.21 661.22 211.119 659.357 210.017 657.488ZM320.456 392.523L252.454 386.019C244.414 385.278 232.454 383.254 224.852 383.678C221.922 383.841 219.167 384.966 216.871 386.776C212.901 389.906 210.913 394.602 210.433 399.548C209.426 409.942 210.272 421.143 210.271 431.619C210.269 450.084 209.942 468.602 210.323 487.061C210.484 523.329 210.434 559.598 210.172 595.866L210.108 631.98C210.114 638.881 209.672 646.23 210.65 653.069C211.192 656.858 213.417 660.753 216.158 663.382C219.48 666.567 223.897 668.115 228.344 668.931C235.457 670.235 242.857 670.656 250.04 671.576L302.033 678.099C359.792 685.73 417.617 692.858 475.5 699.482L532.299 706.494C539.984 707.43 549.054 709.53 556.732 709.039C561.673 708.723 565.874 706.31 568.999 702.496C570.741 700.371 571.995 697.856 572.458 695.137C573.568 688.616 572.768 681.139 572.732 674.505L572.668 638.762C573.549 625.901 573.015 612.694 572.862 599.807L572.474 547.957C572.528 531.894 572.104 515.824 572.465 499.763C567.041 505.735 560.095 509.872 554.527 515.588C546.118 524.222 548.214 537.047 548.427 548.067C548.591 564.589 548.538 581.16 549.672 597.65C552.277 598.635 554.571 599.477 555.887 602.103C556.488 603.301 556.753 604.684 557.073 605.977L557.597 608.082C561.501 611.969 571.36 614.712 571.299 620.716C571.296 621.009 571.27 621.301 571.255 621.594C570.364 623.021 569.314 624.412 568.215 625.689C564.126 630.44 549.107 642.894 543.059 643.23C539.006 643.455 537.104 647.293 532.536 647.532C528.437 647.746 524.062 646.197 521.103 643.333C515.123 637.544 517.277 624.069 517.315 616.261C517.379 591.933 517.298 567.604 517.072 543.276C517.172 533.173 515.97 521.415 517.418 511.548C519.047 500.444 531.194 495.293 539.42 489.252C538.181 479.379 537.615 468.056 531.074 460.01C527.311 455.38 523.343 453.287 517.615 451.942C509.319 449.994 500.16 449.764 491.671 448.949L443.011 444.385L295.231 430.145C285.487 429.35 264.987 426.381 256.201 427.301C253.391 427.596 250.55 428.459 248.32 430.246C244.607 433.222 243.344 438.23 242.974 442.77C242.003 454.689 242.837 467.356 242.879 479.351L242.812 575.289L242.785 602.028C242.772 607.157 242.34 612.672 243.081 617.731C243.672 621.766 245.856 625.696 248.695 628.588C252.005 631.959 256.254 633.74 260.831 634.626C267.43 635.904 274.312 636.235 280.997 637.023L314.75 641.212L427.631 654.576C448.688 656.956 469.726 659.492 490.744 662.186C502.062 663.637 519.902 666.763 530.947 666.522C531.337 666.512 531.727 666.495 532.116 666.469C535.952 664.175 538.983 661.643 540.017 657.082C540.509 654.916 539.901 650.65 540.996 648.987L541.983 648.946C543.3 650.605 543.051 653.86 542.802 655.86C542.331 659.649 540.719 663.798 537.612 666.2C535.323 667.969 532.569 669.236 529.646 669.181C518.829 668.978 507.445 666.827 496.703 665.501C474.502 662.588 452.282 659.819 430.045 657.193L305.443 642.52C291.046 640.711 276.334 639.602 262.033 637.25C255.137 636.116 248.961 633.532 244.691 627.725C242.288 624.433 240.782 620.572 240.322 616.521C239.769 611.652 240.131 606.518 240.197 601.619C240.335 593.634 240.407 585.648 240.413 577.662L240.483 479.716C240.635 468.065 240.043 456.331 240.479 444.699C240.69 439.093 242.114 432.534 246.524 428.685C248.941 426.575 252.126 425.478 255.272 425.088C261.141 424.362 267.541 425.455 273.41 425.983L297.339 428.129L447.063 442.248L492.024 446.481C499.875 447.222 507.991 447.523 515.757 448.886C520.614 449.739 525.105 450.79 528.95 454.044C539.547 463.012 540.337 475.207 541.398 488.162C546.045 484.571 550.118 481.689 555.912 480.206C563.169 482.002 567.997 485.254 572.544 491.213L572.629 458.758C572.644 451.494 573.158 443.773 571.747 436.617C570.84 432.012 568.983 427.366 565.954 423.747C562.807 419.987 558.78 416.722 553.998 415.379C546 413.132 536.558 412.988 528.291 412.23C515.759 411.096 503.233 409.887 490.714 408.604L320.456 392.523ZM535.13 547.943C535.07 539.759 534.385 530.979 535.344 522.867C535.606 520.646 535.922 518.37 537.267 516.522C540.359 512.271 560.375 500.89 566.267 496.173C567.833 494.918 568.764 493.963 569.013 491.936C568.649 491.086 568.33 490.451 567.68 489.777C564.681 486.663 560.027 483.499 555.543 483.499C554.013 483.499 552.847 483.92 551.513 484.617C547.118 486.912 543.176 490.273 539.082 493.064C533.998 496.529 528.145 499.497 523.808 503.909C522.52 505.219 521.452 506.488 520.896 508.268C518.226 516.813 519.709 536.601 519.802 546.081L519.942 608.241C520.043 615.791 518.176 633.475 521.967 639.652C523.505 642.159 525.897 643.757 528.78 644.281C531.421 644.761 534.743 644.535 537.02 643.039C537.802 640.907 534.77 636.857 534.522 634.247C533.617 624.746 534.807 614.342 534.999 604.757C535.161 585.819 535.204 566.881 535.13 547.943ZM545.831 547.536C545.484 535.722 543.729 522.551 552.865 513.277C559.942 506.093 568.879 502.784 572.631 492.573C566.308 499.403 558.446 504.865 550.712 510.001C547.706 511.998 544.425 513.768 541.62 516.036C540.291 517.111 539.047 518.098 538.571 519.804C536.707 526.487 537.864 540.244 537.928 547.669C538.139 570.874 538.018 594.08 537.567 617.281C543.723 615.61 548.821 613.083 553.979 609.335C551.727 607.057 549.296 604.726 548.227 601.621C545.254 592.991 545.976 558.372 545.831 547.536ZM550.278 600.978C551.35 603.375 552.71 605.204 555.224 606.196C554.173 603.518 553.382 602.342 550.715 601.164C550.57 601.1 550.424 601.04 550.278 600.978ZM556.464 611.513C550.394 615.378 544.439 618.505 537.456 620.349C536.917 625.033 535.553 634.647 538.575 638.568C539.38 639.612 540.291 640.335 541.639 640.508C543.993 640.811 546.195 639.344 548.132 638.226C555.732 633.037 564.59 627.303 569.286 619.177C565.082 616.46 560.833 613.949 556.464 611.513Z" fill="black"/>
<path d="M210.323 487.061C209.942 468.602 210.269 450.084 210.271 431.619C210.272 421.143 209.426 409.942 210.433 399.548C210.913 394.602 212.901 389.906 216.871 386.776C219.167 384.966 221.922 383.841 224.852 383.678C232.454 383.254 244.414 385.278 252.454 386.019L320.456 392.523C319.048 398.706 297.821 409.761 297.339 428.129L273.41 425.983C267.541 425.455 261.141 424.362 255.272 425.088C252.126 425.478 248.941 426.575 246.524 428.685C242.114 432.534 240.69 439.093 240.479 444.699C240.043 456.331 240.635 468.065 240.483 479.716C230.439 480.603 220.01 484.294 210.323 487.061Z" fill="url(#paint1_linear_407_61)"/>
<path d="M629.924 525.97C625.355 524.725 611.41 534.988 605.062 535.749C604.787 486.639 604.761 437.527 604.984 388.417C626.518 389.434 648.196 392 669.677 393.937C679.89 394.858 697.172 395.41 706.177 397.828C710.988 399.12 714.149 400.879 717.517 404.593C720.756 408.165 723.094 412.529 723.788 417.33C724.898 425.018 724.155 433.687 724.142 441.471L724.064 488.998L724.02 657.617C718.965 656.87 712.876 654.437 708.988 651.103C706.542 649.005 705.126 646.081 703.758 643.219C698.915 633.086 695.42 621.968 691.382 611.471C688.323 603.518 684.58 595.75 681.669 587.769C681.221 586.54 680.975 585.364 680.885 584.062C686.106 582.121 690.32 579.553 694.078 575.412C700.381 568.465 703.079 559.898 702.517 550.585C701.81 538.862 696.008 528.24 687.216 520.583C679.662 514.005 669.308 509.085 659.114 509.843C647.568 510.702 637.342 517.423 629.924 525.97ZM619.416 418.544C616.957 420.073 615.352 421.533 614.62 424.434C613.763 427.829 613.841 432.832 615.748 435.889C616.946 437.809 618.467 438.286 620.544 438.702C629.294 440.457 638.992 440.475 647.902 441.328C658.48 442.341 684.766 446.101 694.256 444.999C696.897 443.319 698.588 441.55 699.201 438.377C699.777 435.393 699.312 432.293 697.517 429.8C694.404 425.478 689.649 424.743 684.738 424.108C671.476 422.394 658.011 421.518 644.691 420.315C636.484 419.574 627.612 417.857 619.416 418.544ZM621.942 454.606C619.35 456.027 617.29 457.491 616.34 460.422C615.339 463.509 616.079 467.563 617.687 470.324C619.151 472.839 621.293 474.282 624.092 474.953C632.464 476.961 641.984 477.054 650.561 477.825C665.976 479.212 681.38 480.71 696.773 482.318C699.237 480.816 700.77 479.45 701.502 476.564C702.525 472.525 702.744 466.749 700.286 463.147C698.633 460.723 696.306 460.446 693.601 460.054C681.496 458.301 668.959 457.763 656.761 456.742C645.435 455.795 633.276 453.989 621.942 454.606Z" fill="#98F5E1"/>
<path d="M327.061 390.068C386.403 395.163 445.706 400.687 504.967 406.64C515.16 407.703 525.369 408.608 535.59 409.355C542.111 409.89 549.067 410.077 555.426 411.687C560.701 413.022 565.919 416.239 569.364 420.478C572.686 424.566 575.455 429.924 576.303 435.137C577.753 444.059 576.938 453.965 576.926 463.016L576.889 511.816L577.071 580.71C577.117 591.987 577.853 603.63 577.16 614.843C576.921 620.74 577.525 627.021 576.808 632.846C576.601 634.529 575.717 635.89 575.388 637.532L574.667 512.843L574.87 465.546C574.862 456.733 575.351 447.499 574.177 438.765C573.316 432.353 571.417 427.004 567.245 422.001C563.859 417.941 559.459 414.792 554.307 413.436C547.577 411.664 540.329 411.429 533.423 410.809C523.041 409.937 512.67 408.949 502.31 407.845C444.04 401.91 385.732 396.367 327.388 391.219L327.061 390.068Z" fill="#8EECF5"/>
<path d="M320.456 392.523L490.714 408.604C503.233 409.887 515.759 411.096 528.291 412.23C536.558 412.988 546 413.132 553.998 415.379C558.78 416.722 562.807 419.987 565.954 423.747C568.983 427.366 570.84 432.012 571.747 436.617C573.158 443.773 572.644 451.494 572.629 458.758L572.544 491.213C567.997 485.254 563.169 482.002 555.912 480.206C550.118 481.689 546.045 484.571 541.398 488.162C540.337 475.207 539.547 463.012 528.95 454.044C525.105 450.79 520.614 449.739 515.757 448.886C507.991 447.523 499.875 447.222 492.024 446.481L447.063 442.248L297.339 428.129C297.821 409.761 319.048 398.706 320.456 392.523Z" fill="#98F5E1"/>
<path d="M745.788 401.089C746.983 411.975 746.422 423.314 746.427 434.272L746.43 488.765C746.424 544.399 747.003 600.09 746.204 655.716C739.766 656.441 732.527 657.868 726.362 659.863L726.476 484.63L726.519 443.649C726.531 433.792 727.881 422.215 725.327 412.714C732.303 411.918 736.754 402.188 743.503 401.704C744.657 401.621 744.278 401.793 745.279 401.355C745.455 401.279 745.619 401.178 745.788 401.089Z" fill="#80FBBB"/>
<path d="M694.256 444.999C684.766 446.101 658.48 442.341 647.902 441.328C638.992 440.475 629.294 440.457 620.544 438.702C618.467 438.286 616.946 437.809 615.748 435.889C613.841 432.832 613.763 427.829 614.62 424.434C615.352 421.533 616.957 420.073 619.416 418.544C627.612 417.857 636.484 419.574 644.691 420.315C658.011 421.518 671.476 422.394 684.738 424.108C689.649 424.743 694.404 425.478 697.517 429.8C699.312 432.293 699.777 435.393 699.201 438.377C698.588 441.55 696.897 443.319 694.256 444.999ZM621.122 420.652C619.408 421.105 618.167 421.582 617.192 423.154C615.73 425.509 615.903 429.191 616.594 431.76C616.997 433.257 617.689 434.959 619.129 435.713C622.122 437.28 685.338 442.937 692.613 443.071C694.539 442.21 695.944 441.236 696.751 439.205C697.669 436.9 697.498 433.864 696.391 431.651C695.31 429.489 693.55 428.319 691.292 427.61C682.94 424.987 672.672 425.1 663.919 424.31C649.68 423.024 635.395 421.475 621.122 420.652Z" fill="black"/>
<path d="M692.613 443.071C685.338 442.937 622.122 437.28 619.129 435.713C617.689 434.959 616.997 433.257 616.594 431.76C615.903 429.191 615.73 425.509 617.192 423.154C618.167 421.582 619.408 421.105 621.122 420.652C635.395 421.475 649.68 423.024 663.919 424.31C672.672 425.1 682.94 424.987 691.292 427.61C693.55 428.319 695.31 429.489 696.391 431.651C697.498 433.864 697.669 436.9 696.751 439.205C695.944 441.236 694.539 442.21 692.613 443.071Z" fill="#98F5E1"/>
<path d="M242.879 479.351C242.837 467.356 242.003 454.689 242.974 442.77C243.344 438.23 244.607 433.222 248.32 430.246C250.55 428.459 253.391 427.596 256.201 427.301C264.987 426.381 285.487 429.35 295.231 430.145C295.578 435.644 293.769 441.982 293.301 447.605C292.598 456.044 293.677 464.684 294.664 473.068L294.613 473.361C277.194 474.055 260.158 477.567 242.879 479.351Z" fill="#A3C4F3"/>
<path d="M295.231 430.145L443.011 444.385L491.671 448.949C500.16 449.764 509.319 449.994 517.615 451.942C523.343 453.287 527.311 455.38 531.074 460.01C537.615 468.056 538.181 479.379 539.42 489.252C531.194 495.293 519.047 500.444 517.418 511.548C515.97 521.415 517.172 533.173 517.072 543.276C511.702 539.83 506.796 534.88 501.805 530.85C492.169 522.928 482.116 515.524 471.692 508.672C433.795 483.98 394.985 476.364 350.534 473.958C331.934 472.811 313.291 472.514 294.664 473.068C293.677 464.684 292.598 456.044 293.301 447.605C293.769 441.982 295.578 435.644 295.231 430.145Z" fill="#8EECF5"/>
<path d="M696.773 482.318C681.38 480.71 665.976 479.212 650.561 477.825C641.984 477.054 632.464 476.961 624.092 474.953C621.293 474.282 619.151 472.839 617.687 470.324C616.079 467.563 615.339 463.509 616.34 460.422C617.29 457.491 619.35 456.027 621.942 454.606C633.276 453.989 645.435 455.795 656.761 456.742C668.959 457.763 681.496 458.301 693.601 460.054C696.306 460.446 698.633 460.723 700.286 463.147C702.744 466.749 702.525 472.525 701.502 476.564C700.77 479.45 699.237 480.816 696.773 482.318ZM622.34 457.016C619.876 458.833 618.696 460.281 618.27 463.388C617.956 465.68 618.433 467.953 619.956 469.736C621.692 471.767 624.38 472.49 626.894 473.034C635.445 474.888 644.837 475.058 653.567 475.83C667.826 477.091 682.067 478.539 696.287 480.175C698.327 478.785 699.223 477.57 699.62 475.109C700.068 472.339 700.2 466.966 698.571 464.627C697.02 462.4 693.815 462.239 691.297 461.945C678.9 460.499 666.302 459.811 653.86 458.816C643.572 457.993 632.645 456.504 622.34 457.016Z" fill="black"/>
<path d="M696.287 480.175C682.067 478.539 667.826 477.091 653.567 475.83C644.837 475.058 635.445 474.888 626.894 473.034C624.38 472.49 621.692 471.767 619.956 469.736C618.433 467.953 617.956 465.68 618.27 463.388C618.696 460.281 619.876 458.833 622.34 457.016C632.645 456.504 643.572 457.993 653.86 458.816C666.302 459.811 678.9 460.499 691.297 461.945C693.815 462.239 697.02 462.4 698.571 464.627C700.2 466.966 700.068 472.339 699.62 475.109C699.223 477.57 698.327 478.785 696.287 480.175Z" fill="#98F5E1"/>
<path d="M884.498 587.229C894.67 576.984 901.706 562.302 905.622 548.579C909.161 536.175 910.563 523.042 911.921 510.244C913.778 492.741 915.053 475.18 917.292 457.718C920.999 463.135 924.74 468.589 927.665 474.481C934.696 488.648 939.417 504.927 943.142 520.267C955.162 569.769 958.284 622.056 948.849 672.303C936.541 737.847 907.794 797.219 859.783 844.111C854.192 849.572 848.089 854.532 842.125 859.575C833.585 866.797 825.095 873.776 815.849 880.088C771.884 910.102 722.309 926.652 668.99 916.582C639.331 910.98 613.469 894.876 587.541 880.356C574.095 872.771 560.346 865.737 546.327 859.271C535.073 854.176 523.218 850.851 511.433 847.257C495.287 842.343 479.095 837.584 462.858 832.982C464.355 831.896 506.804 818.925 512.51 817.004C527.433 811.982 542.416 806.569 557.02 800.68C569.801 795.419 582.401 789.731 594.799 783.626C601.257 780.502 608.038 777.472 614.198 773.806C618.816 771.058 623.285 767.889 627.557 764.634C630.435 762.44 633.674 759.283 636.938 757.766C637.233 757.629 637.532 757.502 637.829 757.37C638.79 759.56 639.726 761.81 640.9 763.894C644.092 769.564 648.848 773.602 655.138 775.33C659.712 776.586 664.737 776.783 669.44 777.455C684.544 779.612 702.139 782.841 716.046 774.505C722.479 770.648 725.583 764.911 727.337 757.891C735.122 753.764 742.195 748.922 749.537 744.088C761.529 736.18 773.469 728.193 785.355 720.128C792.438 715.357 799.452 710.302 806.82 705.985C806.99 705.999 807.16 706.016 807.331 706.029C820.595 707.032 839.625 702.137 849.817 693.27C857.3 686.759 860.015 678.249 860.611 668.63C864.452 665.971 868.353 663.383 871.703 660.104C884.954 647.137 884.593 628.241 884.482 611.056C884.383 603.114 884.388 595.171 884.498 587.229Z" fill="#FBF8CC"/>
<path d="M294.664 473.068C313.291 472.514 331.934 472.811 350.534 473.958C394.985 476.364 433.795 483.98 471.692 508.672C482.116 515.524 492.169 522.928 501.805 530.85C506.796 534.88 511.702 539.83 517.072 543.276C517.298 567.604 517.379 591.933 517.315 616.261C516.946 614.126 517.037 611.821 516.973 609.653C509.711 610.343 502.368 611.42 495.08 611.635C448.424 613.389 402.422 600.232 363.749 574.073C357.911 570.112 352.695 565.415 347.342 560.847C319.311 536.929 301.786 509.872 294.613 473.361L294.664 473.068Z" fill="#CFBAF0"/>
<path d="M242.879 479.351C260.158 477.567 277.194 474.055 294.613 473.361C301.786 509.872 319.311 536.929 347.342 560.847C352.695 565.415 357.911 570.112 363.749 574.073C402.422 600.232 448.424 613.389 495.08 611.635C502.368 611.42 509.711 610.343 516.973 609.653C517.037 611.821 516.946 614.126 517.315 616.261C517.277 624.069 515.123 637.544 521.103 643.333C524.062 646.197 528.437 647.746 532.536 647.532C537.104 647.293 539.006 643.455 543.059 643.23C549.107 642.894 564.126 630.44 568.215 625.689C569.314 624.412 570.364 623.021 571.255 621.594C572.452 622.652 572.568 623.11 572.72 624.696C573.168 629.358 572.369 634.109 572.668 638.762L572.732 674.505C572.768 681.139 573.568 688.616 572.458 695.137C571.995 697.856 570.741 700.371 568.999 702.496C565.874 706.31 561.673 708.723 556.732 709.039C549.054 709.53 539.984 707.43 532.299 706.494L475.5 699.482C417.617 692.858 359.792 685.73 302.033 678.099L250.04 671.576C242.857 670.656 235.457 670.235 228.344 668.931C223.897 668.115 219.48 666.567 216.158 663.382C213.417 660.753 211.192 656.858 210.65 653.069C209.672 646.23 210.114 638.881 210.108 631.98L210.172 595.866C210.434 559.598 210.484 523.329 210.323 487.061C220.01 484.294 230.439 480.603 240.483 479.716L240.413 577.662C240.407 585.648 240.335 593.634 240.197 601.619C240.131 606.518 239.769 611.652 240.322 616.521C240.782 620.572 242.288 624.433 244.691 627.725C248.961 633.532 255.137 636.116 262.033 637.25C276.334 639.602 291.046 640.711 305.443 642.52L430.045 657.193C452.282 659.819 474.502 662.588 496.703 665.501C507.445 666.827 518.829 668.978 529.646 669.181C532.569 669.236 535.323 667.969 537.612 666.2C540.719 663.798 542.331 659.649 542.802 655.86C543.051 653.86 543.3 650.605 541.983 648.946L540.996 648.987C539.901 650.65 540.509 654.916 540.017 657.082C538.983 661.643 535.952 664.175 532.116 666.469C531.727 666.495 531.337 666.512 530.947 666.522C519.902 666.763 502.062 663.637 490.744 662.186C469.726 659.492 448.688 656.956 427.631 654.576L314.75 641.212L280.997 637.023C274.312 636.235 267.43 635.904 260.831 634.626C256.254 633.74 252.005 631.959 248.695 628.588C245.856 625.696 243.672 621.766 243.081 617.731C242.34 612.672 242.772 607.157 242.785 602.028L242.812 575.289L242.879 479.351Z" fill="#F1C0E8"/>
<path d="M519.802 546.081C519.709 536.601 518.226 516.813 520.896 508.268C521.452 506.488 522.52 505.219 523.808 503.909C528.145 499.497 533.998 496.529 539.082 493.064C543.176 490.273 547.118 486.912 551.513 484.617C552.847 483.92 554.013 483.499 555.543 483.499C560.027 483.499 564.681 486.663 567.68 489.777C568.33 490.451 568.649 491.086 569.013 491.936C568.764 493.963 567.833 494.918 566.267 496.173C560.375 500.89 540.359 512.271 537.267 516.522C535.922 518.37 535.606 520.646 535.344 522.867C534.385 530.979 535.07 539.759 535.13 547.943C529.949 547.494 524.937 546.972 519.802 546.081Z" fill="url(#paint2_linear_407_61)"/>
<path d="M187.475 494.488C193.552 493.326 198.624 490.128 204.512 488.676L204.484 603.029L204.375 634.158C204.345 640.07 203.853 646.53 204.744 652.385C205.492 657.31 209.246 662.74 212.747 666.206C216.717 670.136 221.367 672.382 226.818 673.428C234.093 674.825 241.677 675.441 249.031 676.361L289.834 681.458L403.609 696.158L514.179 710.244L541.562 713.594C547.258 714.333 553.281 715.637 559.03 715.519C564.537 715.407 570.319 713.443 574.092 709.28C576.756 706.342 578.483 702.501 579.207 698.621C580.564 691.354 579.585 682.695 579.508 675.254C579.386 662.077 579.348 648.9 579.393 635.722C586.128 634.618 596.295 636.002 602.662 638.384C603.033 674.444 603.028 710.508 602.648 746.568C557.955 739.483 512.926 734.051 468.055 728.228L318.312 708.443L242.998 698.559C230.565 696.957 217.501 696.195 205.238 693.719C200.91 692.845 197.217 691.106 194.071 687.947C191.256 685.12 188.297 679.921 187.731 675.882C186.812 669.324 187.333 662.136 187.351 655.517L187.433 619.739L187.475 494.488Z" fill="#F1C0E8"/>
<path d="M545.831 547.536C543.896 548.426 540.096 547.757 537.928 547.669C537.864 540.244 536.707 526.487 538.571 519.804C539.047 518.098 540.291 517.111 541.62 516.036C544.425 513.768 547.706 511.998 550.712 510.001C558.446 504.865 566.308 499.403 572.631 492.573C568.879 502.784 559.942 506.093 552.865 513.277C543.729 522.551 545.484 535.722 545.831 547.536Z" fill="#8EECF5"/>
<path d="M112.819 550.755C113.137 550.354 113.459 549.957 113.785 549.562C129.919 529.985 151.173 512.916 173.946 501.779C177.214 500.18 181.37 497.606 184.984 497.267L185.014 615.491L184.782 654.064C184.739 660.964 184.114 668.433 185.133 675.245C185.944 680.663 188.442 685.996 192.353 689.862C195.626 693.097 199.78 695.209 204.124 696.613C206.654 704.126 209.236 711.672 216.941 715.345C224.348 718.877 255.454 722.729 264.198 722.795C267.994 722.824 271.89 722.557 275.479 721.233C282.336 718.68 288.136 713.897 291.95 707.653L507 735.843L593.863 747.685C607.893 749.618 622.246 750.92 636.154 753.475L637.829 757.37C637.532 757.502 637.233 757.629 636.938 757.766C633.674 759.283 630.435 762.44 627.557 764.634C623.285 767.889 618.816 771.058 614.198 773.806C608.038 777.472 601.257 780.502 594.799 783.626C582.401 789.731 569.801 795.419 557.02 800.68C542.416 806.569 527.433 811.982 512.51 817.004C506.804 818.925 464.355 831.896 462.858 832.982C457.054 833.351 450.641 835.946 445.038 837.614C438.226 839.695 431.366 841.618 424.464 843.381C386.981 853.015 349.689 863.179 311.249 868.304C249.817 876.493 193.292 861.126 144.214 823.526C105.816 794.109 78.9552 747.362 72.6383 699.492C65.1055 642.407 77.8813 596.255 112.819 550.755Z" fill="#FFCFD2"/>
<path d="M548.427 548.067C548.214 537.047 546.118 524.222 554.527 515.588C560.095 509.872 567.041 505.735 572.465 499.763C572.104 515.824 572.528 531.894 572.474 547.957C564.401 547.935 556.517 548.534 548.427 548.067Z" fill="#98F5E1"/>
<path d="M629.924 525.97C637.342 517.423 647.568 510.702 659.114 509.843C669.308 509.085 679.662 514.005 687.216 520.583C696.008 528.24 701.81 538.862 702.517 550.585C703.079 559.898 700.381 568.465 694.078 575.412C690.32 579.553 686.106 582.121 680.885 584.062C679.924 584.321 678.956 584.554 677.983 584.761C671.586 586.093 658.257 588.111 652.116 587.209C648.762 586.716 645.414 585.183 642.598 583.317C633.076 577.008 626.681 564.94 624.472 553.964C622.352 543.431 624.002 534.918 629.924 525.97ZM668.659 578.514C666.832 580.987 664.999 583.128 662.733 585.228C666.582 583.955 670.166 582.733 673.578 580.481C676.255 579.148 678.514 577.836 680.483 575.54C685.182 570.059 685.968 562.826 685.307 555.896C684.402 545.763 679.416 536.433 671.494 530.05C662.476 522.751 653.61 521.62 642.37 522.878C653.729 527.463 660.68 536.745 665.653 547.625C670.199 557.568 672.58 567.966 668.659 578.514ZM657.033 512.134C648.919 513.579 641.89 516.955 635.991 522.799C647.103 519.632 657.07 518.785 667.523 524.621C676.754 529.775 683.601 538.879 686.331 549.06C688.431 556.892 688.506 566.586 684.286 573.712C682.552 576.641 680.252 578.95 677.432 580.84C675.032 582.026 672.55 583.14 670.248 584.507C680.073 583.058 688.581 580.268 694.699 571.893C699.987 564.653 701.751 555.676 700.327 546.884C698.522 535.745 691.654 525.828 682.531 519.344C675.245 514.164 666.022 511.061 657.033 512.134ZM640.129 524.548C635.158 525.899 631.96 527.083 629.183 531.794C624.915 539.036 625.557 549.478 627.76 557.31C630.486 567.001 637.072 578.069 646.122 583.048C648.968 584.613 652.055 585.421 655.29 585.628C659.801 584.634 663.235 583.228 665.882 579.163C669.645 573.383 668.958 565.685 667.401 559.278C664.638 547.904 657.433 533.725 647.075 527.494C644.902 526.204 642.566 525.213 640.129 524.548Z" fill="black"/>
<path d="M635.991 522.799C641.89 516.955 648.919 513.579 657.033 512.134C666.022 511.061 675.245 514.164 682.531 519.344C691.654 525.828 698.522 535.745 700.327 546.884C701.751 555.676 699.987 564.653 694.699 571.893C688.581 580.268 680.073 583.058 670.248 584.507C672.55 583.14 675.032 582.026 677.432 580.84C680.252 578.95 682.552 576.641 684.286 573.712C688.506 566.586 688.431 556.892 686.331 549.06C683.601 538.879 676.754 529.775 667.523 524.621C657.07 518.785 647.103 519.632 635.991 522.799Z" fill="#FBF8CC"/>
<path d="M668.659 578.514C672.58 567.966 670.199 557.568 665.653 547.625C660.68 536.745 653.729 527.463 642.37 522.878C653.61 521.62 662.476 522.751 671.494 530.05C679.416 536.433 684.402 545.763 685.307 555.896C685.968 562.826 685.182 570.059 680.483 575.54C678.514 577.836 676.255 579.148 673.578 580.481C671.913 579.56 670.094 579.813 668.659 578.514Z" fill="#FBF8CC"/>
<path d="M655.29 585.628C652.055 585.421 648.968 584.613 646.122 583.048C637.072 578.069 630.486 567.001 627.76 557.31C625.557 549.478 624.915 539.036 629.183 531.794C631.96 527.083 635.158 525.899 640.129 524.548C642.566 525.213 644.902 526.204 647.075 527.494C657.433 533.725 664.638 547.904 667.401 559.278C668.958 565.685 669.645 573.383 665.882 579.163C663.235 583.228 659.801 584.634 655.29 585.628Z" fill="#FBF8CC"/>
<path d="M605.062 535.749C611.41 534.988 625.355 524.725 629.924 525.97C624.002 534.918 622.352 543.431 624.472 553.964C626.681 564.94 633.076 577.008 642.598 583.317C645.414 585.183 648.762 586.716 652.116 587.209C658.257 588.111 671.586 586.093 677.983 584.761C678.956 584.554 679.924 584.321 680.885 584.062C680.975 585.364 681.221 586.54 681.669 587.769C684.58 595.75 688.323 603.518 691.382 611.471C695.42 621.968 698.915 633.086 703.758 643.219C705.126 646.081 706.542 649.005 708.988 651.103C712.876 654.437 718.965 656.87 724.02 657.617L723.979 673.307C720.503 676.738 718.297 682.421 715.818 686.653C713.254 691.03 710.401 695.466 707.458 699.587C701.951 707.299 695.301 714.328 688.734 721.132C686.214 723.743 683.373 726.27 681.037 729.034C680.628 729.519 680.236 730.152 680.1 730.772C679.077 731.316 678.345 731.784 677.532 732.612C671.179 737.848 655.882 747.283 651.688 753.012C636.581 750.021 620.737 748.808 605.448 746.74C604.583 676.447 605.116 606.052 605.062 535.749ZM651.611 623.592C640.998 626.128 635.315 631.064 628.12 639.04C625.977 641.416 623.515 643.708 621.868 646.471C617.836 653.233 618.613 662.81 620.686 670.105C623.909 681.45 632.51 694.229 643.104 699.865C651.817 704.499 660.447 700.909 669.626 700.498C680.017 698.761 690.095 693.835 696.372 685.132C701.205 678.432 703.378 670.359 701.96 662.152C699.767 649.462 691.093 638.485 680.702 631.28C671.883 625.164 662.285 622.575 651.611 623.592Z" fill="#CFBAF0"/>
<path d="M579.008 541.984C585.602 545.863 594.92 541.301 601.998 540.435C602.159 540.416 602.32 540.399 602.481 540.381L602.662 638.384C596.295 636.002 586.128 634.618 579.393 635.722L579.008 541.984Z" fill="#CFBAF0"/>
<path d="M519.802 546.081C524.937 546.972 529.949 547.494 535.13 547.943C535.204 566.881 535.161 585.819 534.999 604.757C529.673 604.001 525.068 607.644 519.942 608.241L519.802 546.081Z" fill="#CFBAF0"/>
<path d="M537.928 547.669C540.096 547.757 543.896 548.426 545.831 547.536C545.976 558.372 545.254 592.991 548.227 601.621C549.296 604.726 551.727 607.057 553.979 609.335C548.821 613.083 543.723 615.61 537.567 617.281C538.018 594.08 538.139 570.874 537.928 547.669Z" fill="#CFBAF0"/>
<path d="M548.427 548.067C556.517 548.534 564.401 547.935 572.474 547.957L572.862 599.807C573.015 612.694 573.549 625.901 572.668 638.762C572.369 634.109 573.168 629.358 572.72 624.696C572.568 623.11 572.452 622.652 571.255 621.594C571.27 621.301 571.296 621.009 571.299 620.716C571.36 614.712 561.501 611.969 557.597 608.082L557.073 605.977C556.753 604.684 556.488 603.301 555.887 602.103C554.571 599.477 552.277 598.635 549.672 597.65C548.538 581.16 548.591 564.589 548.427 548.067Z" fill="#CFBAF0"/>
<path d="M662.733 585.228C664.999 583.128 666.832 580.987 668.659 578.514C670.094 579.813 671.913 579.56 673.578 580.481C670.166 582.733 666.582 583.955 662.733 585.228Z" fill="#FEE875"/>
<path d="M748.737 656.028C756.44 655.654 764.264 653.575 771.752 651.814C804.006 644.228 833.314 631.303 859.719 611.143C863.665 608.13 867.634 605.104 871.317 601.771C873.903 599.43 878.072 594.303 880.602 592.792C880.97 592.572 881.434 592.583 881.85 592.478C882.007 611.612 885.536 642.385 870.965 657.207C863.168 665.138 845.227 676.133 835.327 682.948L773.57 725.321C761.417 733.513 748.74 741.194 737.001 749.962C742.145 743.328 745.386 736.867 747.245 728.63C749.244 719.771 748.618 710.382 748.599 701.349C748.569 686.54 748.118 671.584 748.672 656.789L748.737 656.028Z" fill="#FBF8CC"/>
<path d="M555.224 606.196C552.71 605.204 551.35 603.375 550.278 600.978C550.424 601.04 550.57 601.1 550.715 601.164C553.382 602.342 554.173 603.518 555.224 606.196Z" fill="#90DBF4"/>
<path d="M519.942 608.241C525.068 607.644 529.673 604.001 534.999 604.757C534.807 614.342 533.617 624.746 534.522 634.247C534.77 636.857 537.802 640.907 537.02 643.039C534.743 644.535 531.421 644.761 528.78 644.281C525.897 643.757 523.505 642.159 521.967 639.652C518.176 633.475 520.043 615.791 519.942 608.241Z" fill="#F1C0E8"/>
<path d="M537.456 620.349C544.439 618.505 550.394 615.378 556.464 611.513C560.833 613.949 565.082 616.46 569.286 619.177C564.59 627.303 555.732 633.037 548.132 638.226C546.195 639.344 543.993 640.811 541.639 640.508C540.291 640.335 539.38 639.612 538.575 638.568C535.553 634.647 536.917 625.033 537.456 620.349Z" fill="#CFBAF0"/>
<path d="M577.16 614.843C577.797 633.004 577.441 651.323 577.482 669.499C577.502 678.146 578.625 689.031 577.134 697.359C576.467 701.086 574.772 704.763 572.209 707.567C568.816 711.28 563.981 713.289 558.992 713.485C550.612 713.814 541.153 711.51 532.777 710.478C512.151 708.012 491.537 705.44 470.937 702.761L306.346 681.71L254.866 675.329C245.728 674.182 236.336 673.302 227.294 671.561C222.018 670.546 217.901 668.635 214.044 664.79C212.009 662.761 210.313 660.334 208.836 657.875L210.017 657.488C211.119 659.357 212.21 661.22 213.635 662.865C217.024 666.779 221.066 669.153 226.115 670.259C230.462 671.211 235.036 671.484 239.451 672.059C248.607 673.29 257.774 674.437 266.951 675.501L336.725 684.357C385.768 690.741 434.857 696.762 483.988 702.419L528.425 708.002C536.424 709.034 544.501 710.367 552.531 711.017C559.114 711.55 564.234 710.417 569.327 705.934C572.282 703.332 573.708 700.411 574.565 696.591C575.924 690.534 575.278 683.623 575.243 677.421C575.169 664.224 574.505 650.688 575.388 637.532C575.717 635.89 576.601 634.529 576.808 632.846C577.525 627.021 576.921 620.74 577.16 614.843Z" fill="#F1C0E8"/>
<path d="M669.626 700.498C660.447 700.909 651.817 704.499 643.104 699.865C632.51 694.229 623.909 681.45 620.686 670.105C618.613 662.81 617.836 653.233 621.868 646.471C623.515 643.708 625.977 641.416 628.12 639.04C635.315 631.064 640.998 626.128 651.611 623.592C662.285 622.575 671.883 625.164 680.702 631.28C691.093 638.485 699.767 649.462 701.96 662.152C703.378 670.359 701.205 678.432 696.372 685.132C690.095 693.835 680.017 698.761 669.626 700.498ZM635.994 636.008L636.141 635.196C641.81 631.294 649.454 630.47 656.105 631.727C666.382 633.67 675.392 640.226 681.152 648.855C686.437 656.773 689.812 667.708 687.929 677.223C686.447 684.709 681.535 690.849 675.235 694.924C672.237 696.863 668.981 698.165 665.692 699.521C676.907 697.684 687.787 693.699 694.734 684.16C699.32 677.864 701.174 670.402 699.856 662.687C697.824 650.796 689.807 640.264 680.074 633.462C672.262 628.002 661.46 623.921 651.779 625.558C645.942 626.546 638.137 631.002 634.293 635.491L634.032 636.631C634.964 636.781 635.636 636.828 636.568 636.662C636.888 636.626 637.208 636.583 637.529 636.555C644.371 635.963 651.268 639.981 656.187 644.448C665.47 652.876 671.776 665.81 672.348 678.364C672.694 685.941 670.898 692.043 665.785 697.672C672.867 695.05 679.279 690.842 683.146 684.171C687.141 677.281 686.803 669.033 684.642 661.606C681.708 651.521 674.725 642.505 665.487 637.448C655.257 631.848 646.76 632.935 635.994 636.008ZM635.698 638.569C630.252 640.574 626.076 643.277 623.492 648.731C619.848 656.425 621.58 665.723 624.488 673.371C628.22 683.19 635.878 694.331 645.765 698.735C649.231 700.28 652.005 700.604 655.713 700.49C660.786 698.987 665.126 696.534 667.724 691.752C671.603 684.611 670.41 674.295 667.984 666.814C664.649 656.535 656.808 645.704 647.003 640.758C643.209 638.844 639.895 638.207 635.698 638.569Z" fill="black"/>
<path d="M665.692 699.521C668.981 698.165 672.237 696.863 675.235 694.924C681.535 690.849 686.447 684.709 687.929 677.223C689.812 667.708 686.437 656.773 681.152 648.855C675.392 640.226 666.382 633.67 656.105 631.727C649.454 630.47 641.81 631.294 636.141 635.196L635.994 636.008L636.568 636.662C635.636 636.828 634.964 636.781 634.032 636.631L634.293 635.491C638.137 631.002 645.942 626.546 651.779 625.558C661.46 623.921 672.262 628.002 680.074 633.462C689.807 640.264 697.824 650.796 699.856 662.687C701.174 670.402 699.32 677.864 694.734 684.16C687.787 693.699 676.907 697.684 665.692 699.521Z" fill="#8EECF5"/>
<path d="M635.994 636.008C646.76 632.935 655.257 631.848 665.487 637.448C674.725 642.505 681.708 651.521 684.642 661.606C686.803 669.033 687.141 677.281 683.146 684.171C679.279 690.842 672.867 695.05 665.785 697.672C670.898 692.043 672.694 685.941 672.348 678.364C671.776 665.81 665.47 652.876 656.187 644.448C651.268 639.981 644.371 635.963 637.529 636.555C637.208 636.583 636.888 636.626 636.568 636.662L635.994 636.008Z" fill="#8EECF5"/>
<path d="M655.713 700.49C652.005 700.604 649.231 700.28 645.765 698.735C635.878 694.331 628.22 683.19 624.488 673.371C621.58 665.723 619.848 656.425 623.492 648.731C626.076 643.277 630.252 640.574 635.698 638.569C639.895 638.207 643.209 638.844 647.003 640.758C656.808 645.704 664.649 656.535 667.984 666.814C670.41 674.295 671.603 684.611 667.724 691.752C665.126 696.534 660.786 698.987 655.713 700.49Z" fill="#98F5E1"/>
<path d="M726.362 659.863C732.527 657.868 739.766 656.441 746.204 655.716L746.066 696.893C746.072 707.252 747.038 718.614 744.78 728.765C743.058 736.508 739.472 744.148 733.787 749.772C726.697 756.739 717.085 760.533 707.147 760.285C698.726 760.153 690.152 758.578 681.837 757.306C671.812 755.703 661.761 754.272 651.688 753.012C655.882 747.283 671.179 737.848 677.532 732.612C687.197 735.182 700.084 736.988 710.08 737.499C714.541 737.727 719.158 736.911 722.488 733.713C724.554 731.73 725.671 729.265 726.175 726.474C727.361 719.901 726.454 712.055 726.441 705.334L726.362 659.863Z" fill="#FBF8CC"/>
<path d="M811.228 703.497L810.83 703.213C812.057 701.233 852.736 673.764 857.441 670.436L857.905 670.935C858.235 676.741 854.85 683.879 851.218 688.267C842.018 699.383 824.742 702.318 811.228 703.497Z" fill="#FBF8CC"/>
<path d="M680.1 730.772C680.236 730.152 680.628 729.519 681.037 729.034C683.373 726.27 686.214 723.743 688.734 721.132C695.301 714.328 701.951 707.299 707.458 699.587C710.401 695.466 713.254 691.03 715.818 686.653C718.297 682.421 720.503 676.738 723.979 673.307L724.015 708.477C724.014 713.921 724.623 719.967 723.816 725.324C723.473 727.601 722.835 729.865 721.199 731.557C718.556 734.29 714.495 735.01 710.847 734.934C700.806 734.726 689.988 732.556 680.1 730.772Z" fill="#FBF8CC"/>
<path d="M282.534 714.318C279.834 716.169 277.252 717.886 274.131 718.978C271.134 720.026 268.007 720.307 264.854 720.305C255.643 720.302 225.856 716.646 218.095 712.782C211.372 709.435 209.301 703.484 207.091 696.815C221.856 698.158 236.609 700.368 251.32 702.248C263.913 703.858 276.706 705.084 289.198 707.281C287.228 710.013 285.083 712.158 282.534 714.318Z" fill="#F1C0E8"/>
<path d="M718.658 769.295C716.439 771.292 713.905 772.908 711.159 774.078C706.642 775.993 701.777 776.981 696.891 777.277C688.241 777.801 660.361 775.124 652.683 771.781C645.069 768.467 642.066 761.245 639.374 753.981C648.426 755.738 657.847 756.358 666.988 757.655C680.373 759.554 694.455 762.83 707.965 762.69C713.687 762.631 718.707 761.498 724.109 759.686C722.767 763.426 721.406 766.317 718.658 769.295Z" fill="#FBF8CC"/>
<defs>
<linearGradient id="paint0_linear_407_61" x1="196.964" y1="497.274" x2="290.092" y2="332.149" gradientUnits="userSpaceOnUse">
<stop stop-color="#EBE5EB"/>
<stop offset="1" stop-color="#C3E0F8"/>
</linearGradient>
<linearGradient id="paint1_linear_407_61" x1="194.972" y1="469.217" x2="293.889" y2="368.765" gradientUnits="userSpaceOnUse">
<stop stop-color="#CED9F8"/>
<stop offset="1" stop-color="#B6DFF8"/>
</linearGradient>
<linearGradient id="paint2_linear_407_61" x1="572.492" y1="506.825" x2="514.444" y2="523.841" gradientUnits="userSpaceOnUse">
<stop stop-color="#96FFEB"/>
<stop offset="1" stop-color="#8AF2F4"/>
</linearGradient>
</defs>
</svg>
