<svg width="1024" height="1024" viewBox="0 0 1024 1024" fill="none" xmlns="http://www.w3.org/2000/svg">
<path d="M934.635 158.791C933.943 158.476 933.612 158.443 933.18 157.725C932.455 156.519 932.461 149.053 931.2 146.225C927.965 138.974 911.265 137.477 904.867 132.277C898.204 126.862 895.251 117.705 887.32 113.769C877.915 109.102 866.705 113.955 856.814 110.864C846.115 107.52 844.835 98.013 837.677 93.9863C833.796 91.8027 829.32 94.0651 825.723 92.6289C825.472 91.4944 825.572 91.3289 825.984 90.2263C848.199 88.7808 842.476 101.62 856.725 107.899C866.576 112.24 877.38 105.976 887.361 110.772C896.61 115.216 900.048 125.548 908.201 131.251C914.361 135.559 922.478 135.201 928.72 139.282C932.666 141.862 935.196 146.182 935.967 150.805C936.447 153.684 936.273 156.343 934.635 158.791Z" fill="#FBFCFC"/>
<path d="M449.223 195.856C462.594 191.684 476.365 188.82 489.767 184.697C502.796 180.689 515.984 175.069 528.508 169.656C542.084 163.788 555.375 157.082 568.803 150.869C596.143 138.218 623.883 125.945 652.251 115.808C664.008 111.608 675.972 107.356 688.141 104.509C716.591 97.8509 748.15 96.0287 776.768 102.5C794.177 106.436 811.308 114.024 827.079 122.266C872.485 145.995 903.679 181.255 918.964 230.505C930.213 266.751 930.27 304.777 923.915 341.927C920.135 364.022 915.658 384.58 916.669 407.164C917.19 418.799 918.789 430.764 921.702 442.041C924.516 452.933 936.683 480.978 935.653 489.549C933.292 485.702 931.617 481.159 929.606 477.094C926.875 471.571 923.699 466.535 920.19 461.485C910.585 447.66 899.639 434.816 887.511 423.141C873.978 410.213 859.386 398.574 846.64 384.783C839.997 377.461 833.758 369.783 827.951 361.782C824.546 357.186 821.346 351.838 817.298 347.839C813.825 339.405 809.692 331.005 803.577 324.146C786.056 304.492 758.728 291.143 734.006 283.001C716.392 277.2 698.192 273.707 679.952 270.544C635.147 262.773 590.067 259.542 544.733 256.915C538.844 255.843 533.059 253.559 527.401 251.636L527.511 222.35C537.601 223.235 549.324 222.994 557.697 216.46C560.409 214.345 563.197 211.246 563.541 207.668C563.804 204.936 562.505 202.509 560.702 200.547C555.388 194.764 546.788 193.03 539.259 192.67C528.88 192.174 515.011 194.596 507.191 202.001C504.55 204.502 502.993 207.478 502.117 210.99C499.746 220.493 500.681 241.609 500.539 252.423C493.199 250.57 474.191 231.459 469.365 225.025C463.352 214.964 456.348 205.157 449.223 195.856ZM674.863 186.377C670.616 188.046 668.516 192.833 670.164 197.088C671.812 201.343 676.588 203.467 680.851 201.841C685.146 200.203 687.289 195.385 685.629 191.099C683.969 186.813 679.14 184.695 674.863 186.377ZM815.698 193.88C815.748 194.124 815.792 194.368 815.849 194.611C817.044 199.763 821.792 201.413 818.048 207.502C813.07 215.598 797.391 221.076 799.469 232.409C801.122 241.429 814.221 244.797 814.176 254.409C814.143 261.419 801.854 273.367 806.07 278.972C806.46 279.074 806.903 279.263 807.305 279.214C807.799 276.991 808.224 274.545 809.203 272.483C813.138 264.19 820.5 257.204 814.477 247.709C811.27 242.652 800.823 236.204 801.898 229.758C803.911 217.691 829.354 212.279 820.184 197.355C819.275 195.877 818.011 194.413 816.27 193.981C816.082 193.934 815.889 193.914 815.698 193.88ZM861.385 200.167C860.981 202.686 861.664 204.562 863.179 206.609C866.032 210.464 873.187 214.251 872.319 219.693C871.703 223.55 868.84 226.39 865.727 228.465C860.003 232.28 851.997 235.126 850.527 242.735C849.804 246.48 850.383 250.556 852.697 253.642C856.553 258.784 869.235 262.974 868.666 270.015C868.38 273.552 866.102 276.274 863.461 278.431C857.643 283.183 848.923 286.416 848.127 295.008C847.799 298.552 848.749 301.416 851.165 304.031C856.881 310.219 868.811 313.786 868.908 323.704C868.954 328.363 861.75 333.644 864.579 337.579L865.007 337.647C865.088 337.479 865.168 337.31 865.251 337.143C868.081 331.449 873.369 327.067 871.154 320.037C867.714 309.117 846.307 303.444 851.993 291.77C856.39 282.742 875.243 279.501 870.938 266.836C867.804 257.614 847.55 254.493 853.907 241.202C858.041 232.559 878.867 228.84 874.645 216.738C872.793 211.43 866.44 207.203 863.52 202.195C863.214 201.671 862.885 201.157 862.573 200.636L861.385 200.167Z" fill="#FDE4CF"/>
<path d="M458.768 145.048C450.094 146.515 441.885 140.638 440.479 131.953C439.074 123.269 445.011 115.102 453.705 113.759C462.311 112.43 470.378 118.293 471.769 126.89C473.16 135.487 467.354 143.595 458.768 145.048ZM456.208 116.822C449.158 116.677 443.33 122.283 443.202 129.334C443.074 136.384 448.695 142.198 455.745 142.309C462.771 142.42 468.562 136.823 468.689 129.797C468.817 122.771 463.234 116.967 456.208 116.822Z" fill="#90DBF4"/>
<path d="M536.21 127.912C535.496 127.857 534.693 127.758 534.014 127.505C532.148 126.811 530.482 125.1 529.742 123.269C528.952 121.318 529.06 118.972 530.013 117.093C531.104 114.941 532.964 114.202 535.157 113.558C535.832 113.649 536.601 113.716 537.261 113.911C538.908 114.399 540.806 115.562 541.624 117.134C542.448 118.716 542.491 120.156 542.017 121.836C541.161 124.872 538.836 126.464 536.21 127.912Z" fill="#FBFCFC"/>
<path d="M455.745 142.309C448.695 142.198 443.074 136.384 443.202 129.334C443.33 122.283 449.158 116.677 456.208 116.822C463.234 116.967 468.817 122.771 468.689 129.797C468.562 136.823 462.771 142.42 455.745 142.309Z" fill="#E6DFD5"/>
<path d="M429.878 186.442C406.895 183.479 385.174 187.223 366.516 201.563C349.677 214.505 339.444 234.71 334.074 254.862C333.361 257.54 329.07 279.938 329.034 279.965C328.343 280.463 327.041 280.544 326.212 280.564C318.274 281.148 311.128 283.645 303.663 286.216C296.987 288.515 290.247 290.698 283.914 293.855C267.883 301.849 254.502 315.898 241.555 327.986C234.343 334.72 226.586 341.184 220.122 348.645C202.524 368.958 186.399 392.097 173.387 415.613C167.657 426.109 162.082 436.689 156.665 447.349C154.761 451.082 152.644 457.514 149.942 460.52L149.761 460.477C134.785 434.509 124.749 393.983 122.207 364.106C116.978 302.67 129.081 242.125 169.666 194.232C196.629 162.725 235.052 143.285 276.407 140.225C323.486 136.616 373.816 149.085 413.47 174.794C419.037 178.403 424.835 182.125 429.878 186.442ZM241.643 189.368C226.322 191.977 215.989 206.476 218.523 221.81C221.056 237.144 235.505 247.548 250.851 245.089C266.303 242.613 276.795 228.043 274.244 212.602C271.692 197.162 257.071 186.742 241.643 189.368ZM295.903 235.765C292.737 236.222 290.063 238.352 288.909 241.336C287.756 244.321 288.302 247.695 290.338 250.163C292.373 252.631 295.582 253.81 298.732 253.245C303.488 252.392 306.682 247.884 305.91 243.114C305.139 238.344 300.685 235.074 295.903 235.765Z" fill="#98F5E1"/>
<path d="M491.385 153.789C489.907 153.967 487.687 154.443 486.246 153.922C484.927 153.445 484.811 152.746 484.362 151.565C485.719 151.398 487.179 151.296 488.546 151.295C489.668 151.294 490.625 151.453 491.456 152.256L491.385 153.789Z" fill="#90DBF4"/>
<path d="M326.212 280.564C327.041 280.544 328.343 280.463 329.034 279.965C329.07 279.938 333.361 257.54 334.074 254.862C339.444 234.71 349.677 214.505 366.516 201.563C385.174 187.223 406.895 183.479 429.878 186.442C436.811 188.871 443.584 190.922 449.223 195.856C456.348 205.157 463.352 214.964 469.365 225.025C464.46 234.912 456.279 244.667 448.896 252.855C446.589 255.413 443.244 257.933 441.338 260.668C431.19 262.114 420.926 262.801 410.763 264.196C382.428 268.084 354.299 273.619 327.156 282.699L326.212 280.564Z" fill="#8EECF5"/>
<path d="M680.851 201.841C676.588 203.467 671.812 201.343 670.164 197.088C668.516 192.833 670.616 188.046 674.863 186.377C679.14 184.695 683.969 186.813 685.629 191.099C687.289 195.385 685.146 200.203 680.851 201.841Z" fill="#FBFCFC"/>
<path d="M250.851 245.089C235.505 247.548 221.056 237.144 218.523 221.81C215.989 206.476 226.322 191.977 241.643 189.368C257.071 186.742 271.692 197.162 274.244 212.602C276.795 228.043 266.303 242.613 250.851 245.089ZM244.709 193.023C231.324 193.865 221.158 205.403 222.008 218.788C222.858 232.173 234.402 242.332 247.786 241.474C261.159 240.616 271.308 229.084 270.458 215.711C269.609 202.337 258.083 192.182 244.709 193.023Z" fill="#FBFCFC"/>
<path d="M500.539 252.423C500.681 241.609 499.746 220.493 502.117 210.99C502.993 207.478 504.55 204.502 507.191 202.001C515.011 194.596 528.88 192.174 539.259 192.67C546.788 193.03 555.388 194.764 560.702 200.547C562.505 202.509 563.804 204.936 563.541 207.668C563.197 211.246 560.409 214.345 557.697 216.46C549.324 222.994 537.601 223.235 527.511 222.35L527.401 251.636C527.355 253.366 527.112 255.09 527.906 256.681C533.257 257.538 539.289 256.926 544.733 256.915C590.067 259.542 635.147 262.773 679.952 270.544C698.192 273.707 716.392 277.2 734.006 283.001C758.728 291.143 786.056 304.492 803.577 324.146C809.692 331.005 813.825 339.405 817.298 347.839C826.805 386.225 809.131 445.622 788.986 479.007C775.085 502.044 756.511 521.217 735.13 537.413C728.622 542.343 721.139 546.546 714.892 551.682C680.957 572.113 649.998 584.32 611.94 595.181C606.23 607.697 600.336 619.068 589.913 628.37C587.792 644.249 584.415 659.887 582.964 675.868C580.459 703.468 583.022 731.004 586.294 758.429C587.585 769.248 588.678 780.2 590.611 790.926C593.28 808.805 602.528 848.203 600.437 863.786C599.675 869.463 597.325 874.726 593.902 879.297C591.64 882.316 589.035 884.913 586.293 887.492C574.283 895.988 561.003 900.682 546.484 902.911C524.136 906.343 493.007 905.733 474.155 891.64C465.586 885.233 461.796 877.016 460.361 866.622L460.339 866.103L460.31 865.237C460.11 859.97 460.49 854.704 460.755 849.443C461.497 845.313 461.406 840.691 461.699 836.482L463.621 809.286C466.114 777.926 467.424 746.483 467.546 715.025C467.535 696.64 467.242 678.062 464.526 659.844C463.315 651.717 461.389 643.847 459.24 635.928C443.333 625.542 435.111 613.74 426.479 597.21C417.294 594.904 408.053 592.999 398.925 590.437C379.023 584.746 359.705 577.182 341.231 567.846C287.503 540.188 242.001 496.066 223.341 437.504C218.333 421.784 212.155 392.329 214.63 376.417C215.648 369.875 218.246 363.397 221.305 357.558C225.927 348.736 232.28 341.314 239.162 334.196C263.56 308.962 294.021 293.206 327.156 282.699C354.299 273.619 382.428 268.084 410.763 264.196C420.926 262.801 431.19 262.114 441.338 260.668C461.043 260.041 480.692 257.983 500.45 257.629L500.539 252.423ZM300.672 295.315C271.777 305.93 234.846 334.967 221.668 363.044C216.088 374.933 214.644 388.536 219.3 401.019C229.429 428.174 276.123 455.872 301.963 467.406C342.428 485.468 396.931 498.732 441.172 503.537C446.478 503.835 451.809 504.725 457.11 505.209C468.32 506.201 479.555 506.899 490.801 507.303C545.935 508.361 600.971 502.23 654.52 489.063C665.309 486.47 675.737 482.768 686.455 479.982C722.962 468.012 759.68 453.222 787.967 426.314C804.289 410.788 817.073 390.973 817.485 367.805C817.783 351.027 810.696 335.163 799.021 323.251C780.939 304.801 754.921 292.367 730.511 284.456C706.998 276.837 681.733 273.013 657.317 269.578C614.303 263.36 570.929 259.96 527.471 259.401L527.352 278.631C594.533 278.318 686.892 283.65 747.061 314.718C763.407 323.159 781.661 336.335 787.376 354.739C790.94 366.216 788.889 378.391 783.342 388.889C762.956 427.471 709.48 446.146 670.526 458.222C602.563 477.394 531.746 484.4 461.344 478.915C444.787 477.57 428.42 475.075 411.98 472.789C409.033 472.329 406.099 471.783 403.184 471.15C363.692 462.89 324.769 451.902 289.828 431.196C278.036 424.208 265.28 415.215 257.757 403.519C252.063 394.668 249.86 384.319 252.242 374.005C257.311 352.056 278.16 334.198 296.282 322.706C345.792 294.88 403.396 284.982 459.46 280.75C473.029 279.725 486.633 279.689 500.203 278.742L500.389 260.437C440.73 260.111 354.356 270.802 300.672 295.315ZM367.681 297.524C343.879 303.754 319.062 311.234 298.251 324.782C280.267 335.183 260.727 352.421 255.166 373.282C252.538 383.139 254.475 392.688 259.655 401.371C278.109 432.306 342.867 454.178 376.393 462.408C386.703 464.939 397.185 467.375 407.657 469.128C417.886 471.282 428.493 472.583 438.856 473.962C515.082 484.103 591.539 475.98 665.667 456.769C699.962 447.05 741.742 432.175 767.062 406.299C777.607 395.522 786.879 381.674 786.643 366.024C786.454 353.492 779.488 342.694 770.688 334.277C722.014 287.715 592.507 280.267 527.35 281.424C527.252 286.592 527.237 291.761 527.303 296.929C529.964 297.733 532.711 298.503 534.965 300.202C536.923 301.678 538.064 303.706 538.366 306.135C538.796 309.585 538.128 313.191 535.825 315.883C531.354 321.111 521.9 321.975 515.431 322.296C508.179 322.656 496.936 322.042 491.434 316.682C488.417 313.743 488.668 309.798 488.652 305.92C488.83 305.601 489.007 305.282 489.204 304.975C492.032 300.584 495.122 298.86 500.098 297.697L500.168 281.511C492.036 281.408 483.798 282.064 475.668 282.45C439.268 283.948 403.1 288.996 367.681 297.524ZM687.984 482.324C625.789 501.71 560.896 511.037 495.759 509.953C479.19 509.636 462.874 508.18 446.374 506.878C431.901 504.631 417.381 503.348 402.975 500.546C384.571 496.79 366.356 492.162 348.392 486.677C310.83 475.254 278.918 462.365 247.878 437.7C239.111 430.733 230.024 422.672 223.398 413.579C221.636 411.16 220.126 408.607 218.64 406.012C225.836 458.85 257.541 506.572 299.518 538.522C317.616 552.427 337.335 564.083 358.243 573.236C409.624 595.655 489.124 609.655 544.924 604.071C604.622 598.755 665.349 580.402 715.901 547.745C720.375 544.969 724.733 541.903 728.952 538.752C782.063 499.086 806.485 455.806 815.931 390.281C814.54 393.526 813.165 396.804 811.555 399.948C789.26 443.488 732.078 468.057 687.984 482.324ZM549.423 606.259C519.198 608.668 488.795 607.574 458.821 602.999C449.198 601.589 439.679 599.564 430.095 597.915C438.676 616.262 452.324 631.571 471.752 638.576C497.083 647.709 536.385 647.015 562.368 640.381C564.062 639.831 565.74 639.232 567.4 638.586C588.251 630.347 599.841 616.085 608.655 595.926C589.185 600.786 569.389 604.24 549.423 606.259ZM562.371 643.046C531.659 650.703 491.52 649.782 462.248 637.763C470.135 664.206 470.052 693.191 470.049 720.56C470.045 763.464 467.224 806.747 463.086 849.45C462.862 854.55 462.47 859.702 462.774 864.802C463.838 874.576 466.743 882.359 474.693 888.657C492.022 902.386 520.824 903.672 541.784 901.045C555.176 899.366 570.631 895.999 581.619 887.711C585.089 885.399 588.511 882.031 591.038 878.71C594.904 873.715 597.329 867.756 598.05 861.48C599.435 849.044 595.34 834.762 593.115 822.49C591.253 812.237 589.565 801.954 588.049 791.645C582.55 758.503 577.795 717.744 579.869 684.414C580.989 666.408 584.092 648.82 586.922 631.026C579.159 636.351 571.306 640.106 562.371 643.046ZM535.285 195.202C526.015 195.825 513.518 197.926 507.176 205.493C504.973 208.121 504.18 211.806 503.751 215.128C502.616 223.915 503.294 233.59 503.166 242.5C502.865 263.456 502.599 284.508 502.973 305.462C506.003 306.829 508.786 307.795 512.059 308.447C512.015 283.881 512.104 259.315 512.326 234.75C512.317 230.614 511.317 215.441 513.597 212.536C516.824 211.551 520.842 212.125 524.201 212.186C530.787 212.305 541.415 211.598 546.352 206.878C546.74 205.221 544.89 202.311 545.92 201.553C547.584 201.851 547.753 201.851 548.936 203.039C549.569 204.798 549.668 206.078 548.828 207.814C547.244 211.087 541.837 212.395 538.582 213.152C527.999 215.614 520.9 213.565 511.679 214.872C517.916 216.222 524.023 218.739 530.222 219.883C537.9 221.3 548.022 219.842 554.703 215.702C557.263 214.116 559.649 211.715 560.246 208.66C560.686 206.412 560.029 204.215 558.66 202.41C555.129 197.752 547.828 195.987 542.246 195.453C539.969 195.235 537.569 195.061 535.285 195.202ZM514.934 218.439L514.474 308.193C517.307 307.786 520.019 307.366 522.771 306.555C523.83 305.446 524.001 304.557 524.188 303.095C525.277 294.573 524.667 285.191 524.755 276.552L525.07 221.392C521.707 220.142 518.453 219.153 514.934 218.439ZM527.677 300.224C527.227 303.434 527.1 306.171 524.313 308.31C520.023 311.603 513.693 311.558 508.555 310.772C505.843 310.358 503.517 309.627 501.241 308.087C500.211 306.61 500.078 301.318 499.009 301.16C497.544 300.943 496.255 301.555 495.144 302.463C493.794 303.565 493.065 304.795 492.944 306.499L494.255 308.128C502.082 313.824 512.484 313.861 521.732 312.349C527.212 311.453 531.063 309.33 535.144 305.544C532.779 302.469 531.468 301.317 527.677 300.224ZM535.107 309.478C525.798 316.552 514.295 316.595 503.106 315.073C499.102 314.528 493.834 310.739 491.697 310.765C491.5 312.011 491.885 312.674 492.366 313.795C498.092 319.026 506.765 319.856 514.206 319.558C520.302 319.314 529.571 318.258 533.906 313.542C534.69 312.689 535.081 311.798 535.506 310.735C535.424 310.223 535.492 309.845 535.107 309.478Z" fill="url(#paint0_linear_407_358)"/>
<path d="M247.786 241.474C234.402 242.332 222.858 232.173 222.008 218.788C221.158 205.403 231.324 193.865 244.709 193.023C258.083 192.182 269.609 202.337 270.458 215.711C271.308 229.084 261.159 240.616 247.786 241.474Z" fill="#98F5E1"/>
<path d="M807.305 279.214C806.903 279.263 806.46 279.074 806.07 278.972C801.854 273.367 814.143 261.419 814.176 254.409C814.221 244.797 801.122 241.429 799.469 232.409C797.391 221.076 813.07 215.598 818.048 207.502C821.792 201.413 817.044 199.763 815.849 194.611C815.792 194.368 815.748 194.124 815.698 193.88C815.889 193.914 816.082 193.934 816.27 193.981C818.011 194.413 819.275 195.877 820.184 197.355C829.354 212.279 803.911 217.691 801.898 229.758C800.823 236.204 811.27 242.652 814.477 247.709C820.5 257.204 813.138 264.19 809.203 272.483C808.224 274.545 807.799 276.991 807.305 279.214Z" fill="#FBFCFC"/>
<path d="M502.973 305.462C502.599 284.508 502.865 263.456 503.166 242.5C503.294 233.59 502.616 223.915 503.751 215.128C504.18 211.806 504.973 208.121 507.176 205.493C513.518 197.926 526.015 195.825 535.285 195.202C537.569 195.061 539.969 195.235 542.246 195.453C547.828 195.987 555.129 197.752 558.66 202.41C560.029 204.215 560.686 206.412 560.246 208.66C559.649 211.715 557.263 214.116 554.703 215.702C548.022 219.842 537.9 221.3 530.222 219.883C524.023 218.739 517.916 216.222 511.679 214.872C520.9 213.565 527.999 215.614 538.582 213.152C541.837 212.395 547.244 211.087 548.828 207.814C549.668 206.078 549.569 204.798 548.936 203.039C547.753 201.851 547.584 201.851 545.92 201.553C544.89 202.311 546.74 205.221 546.352 206.878C541.415 211.598 530.787 212.305 524.201 212.186C520.842 212.125 516.824 211.551 513.597 212.536C511.317 215.441 512.317 230.614 512.326 234.75C512.104 259.315 512.015 283.881 512.059 308.447C508.786 307.795 506.003 306.829 502.973 305.462Z" fill="#FBFCFC"/>
<path d="M865.007 337.647L864.579 337.579C861.75 333.644 868.954 328.363 868.908 323.704C868.811 313.786 856.881 310.219 851.165 304.031C848.749 301.416 847.799 298.552 848.127 295.008C848.923 286.416 857.643 283.183 863.461 278.431C866.102 276.274 868.38 273.552 868.666 270.015C869.235 262.974 856.553 258.784 852.697 253.642C850.383 250.556 849.804 246.48 850.527 242.735C851.997 235.126 860.003 232.28 865.727 228.465C868.84 226.39 871.703 223.55 872.319 219.693C873.187 214.251 866.032 210.464 863.179 206.609C861.664 204.562 860.981 202.686 861.385 200.167L862.573 200.636C862.885 201.157 863.214 201.671 863.52 202.195C866.44 207.203 872.793 211.43 874.645 216.738C878.867 228.84 858.041 232.559 853.907 241.202C847.55 254.493 867.804 257.614 870.938 266.836C875.243 279.501 856.39 282.742 851.993 291.77C846.307 303.444 867.714 309.117 871.154 320.037C873.369 327.067 868.081 331.449 865.251 337.143C865.168 337.31 865.088 337.479 865.007 337.647Z" fill="#FBFCFC"/>
<path d="M514.474 308.193L514.934 218.439C518.453 219.153 521.707 220.142 525.07 221.392L524.755 276.552C524.667 285.191 525.277 294.573 524.188 303.095C524.001 304.557 523.83 305.446 522.771 306.555C520.019 307.366 517.307 307.786 514.474 308.193Z" fill="#FBFCFC"/>
<path d="M469.365 225.025C474.191 231.459 493.199 250.57 500.539 252.423L500.45 257.629C480.692 257.983 461.043 260.041 441.338 260.668C443.244 257.933 446.589 255.413 448.896 252.855C456.279 244.667 464.46 234.912 469.365 225.025Z" fill="#98F5E1"/>
<path d="M298.732 253.245C295.582 253.81 292.373 252.631 290.338 250.163C288.302 247.695 287.756 244.321 288.909 241.336C290.063 238.352 292.737 236.222 295.903 235.765C300.685 235.074 305.139 238.344 305.91 243.114C306.682 247.884 303.488 252.392 298.732 253.245Z" fill="#FBFCFC"/>
<path d="M527.401 251.636C533.059 253.559 538.844 255.843 544.733 256.915C539.289 256.926 533.257 257.538 527.906 256.681C527.112 255.09 527.355 253.366 527.401 251.636Z" fill="#98F5E1"/>
<path d="M670.526 458.222C709.48 446.146 762.956 427.471 783.342 388.889C788.889 378.391 790.94 366.216 787.376 354.739C781.661 336.335 763.407 323.159 747.061 314.718C686.892 283.65 594.533 278.318 527.352 278.631L527.471 259.401C570.929 259.96 614.303 263.36 657.317 269.578C681.733 273.013 706.998 276.837 730.511 284.456C754.921 292.367 780.939 304.801 799.021 323.251C810.696 335.163 817.783 351.027 817.485 367.805C817.073 390.973 804.289 410.788 787.967 426.314C759.68 453.222 722.962 468.012 686.455 479.982C683.704 474.023 674.989 463.568 670.526 458.222Z" fill="#98F5E1"/>
<path d="M300.672 295.315C354.356 270.802 440.73 260.111 500.389 260.437L500.203 278.742C486.633 279.689 473.029 279.725 459.46 280.75C403.396 284.982 345.792 294.88 296.282 322.706C295.96 321.485 295.671 320.256 295.417 319.019C294.423 314.029 292.832 304.933 296.052 300.598C297.298 298.922 299.143 297.749 300.269 295.979C300.408 295.761 300.538 295.537 300.672 295.315Z" fill="#8EECF5"/>
<path d="M149.942 460.52C152.644 457.514 154.761 451.082 156.665 447.349C162.082 436.689 167.657 426.109 173.387 415.613C186.399 392.097 202.524 368.958 220.122 348.645C226.586 341.184 234.343 334.72 241.555 327.986C254.502 315.898 267.883 301.849 283.914 293.855C290.247 290.698 296.987 288.515 303.663 286.216C311.128 283.645 318.274 281.148 326.212 280.564L327.156 282.699C294.021 293.206 263.56 308.962 239.162 334.196C232.28 341.314 225.927 348.736 221.305 357.558C218.246 363.397 215.648 369.875 214.63 376.417C212.155 392.329 218.333 421.784 223.341 437.504C242.001 496.066 287.503 540.188 341.231 567.846C359.705 577.182 379.023 584.746 398.925 590.437C408.053 592.999 417.294 594.904 426.479 597.21C435.111 613.74 443.333 625.542 459.24 635.928C461.389 643.847 463.315 651.717 464.526 659.844C467.242 678.062 467.535 696.64 467.546 715.025C467.424 746.483 466.114 777.926 463.621 809.286L461.699 836.482C461.406 840.691 461.497 845.313 460.755 849.443C460.705 848.722 460.683 848.124 460.138 847.535C458.641 845.917 452.204 843.052 449.976 841.796C431.502 831.384 413.328 816.105 399.647 799.952C382.639 779.873 370.698 760.328 360.409 736.089C348.601 708.268 339.94 679.669 322.826 654.345C301.83 623.275 273.568 598.679 244.989 574.8C227.193 559.931 209.436 545.49 193.564 528.499C181.804 515.91 170.755 502.018 162.17 487.048C159.675 482.697 157.698 478.139 155.397 473.693C153.533 470.092 149.81 464.447 149.942 460.52Z" fill="#CFBAF0"/>
<path d="M367.681 297.524C403.1 288.996 439.268 283.948 475.668 282.45C483.798 282.064 492.036 281.408 500.168 281.511L500.098 297.697C495.122 298.86 492.032 300.584 489.204 304.975C489.007 305.282 488.83 305.601 488.652 305.92C488.668 309.798 488.417 313.743 491.434 316.682C496.936 322.042 508.179 322.656 515.431 322.296C521.9 321.975 531.354 321.111 535.825 315.883C538.128 313.191 538.796 309.585 538.366 306.135C538.064 303.706 536.923 301.678 534.965 300.202C532.711 298.503 529.964 297.733 527.303 296.929C527.237 291.761 527.252 286.592 527.35 281.424C592.507 280.267 722.014 287.715 770.688 334.277C779.488 342.694 786.454 353.492 786.643 366.024C786.879 381.674 777.607 395.522 767.062 406.299C741.742 432.175 699.962 447.05 665.667 456.769C663.686 452.374 658.31 448.768 654.521 445.973C624.975 424.181 590.969 430.713 557.226 431.975C521.759 433.301 481.528 431.756 450.21 413.065C441.199 407.687 432.968 401.141 426.46 392.857C414.587 377.745 409.211 358.597 398.979 342.363C396.112 337.816 382.498 319.887 381.82 317.18C402.814 316.336 422.878 319.147 443.204 324.289C455.968 327.517 468.672 331.423 481.656 333.673C493.066 335.65 504.712 336.164 516.276 336.049C532.353 335.888 548.258 334.868 564.006 331.509C578.902 328.331 593.181 323.023 607.991 319.623C623.568 316.047 639.641 315.793 655.512 317.079C675.072 318.664 695.497 322.17 714.355 327.642C718.523 328.851 722.754 330.161 726.77 331.812C731.56 333.78 740.365 339.705 745.084 339.858L744.823 339.131C726.928 322.41 667.559 314.437 643.284 313.694C634.983 313.499 626.679 313.973 618.454 315.111C601.747 317.395 585.859 323.163 569.601 327.405C549.15 332.741 526.696 334.202 505.619 333.368C475.205 332.165 451.155 322.2 421.918 316.976C408.221 314.528 394.604 314.412 380.741 314.552C377.108 308.079 370.235 305.127 367.681 297.524ZM515.994 347.3C510.57 352.136 509.214 358.954 508.299 365.824C509.508 368.853 510.736 371.656 513.872 373.083C515.758 373.942 517.813 374.072 519.858 373.987C522.907 372.79 525.208 371.245 526.571 368.147C528.098 364.676 527.443 360.593 525.996 357.213C523.964 352.465 520.743 349.226 515.994 347.3Z" fill="#B9FBC0"/>
<path d="M441.172 503.537C396.931 498.732 342.428 485.468 301.963 467.406C276.123 455.872 229.429 428.174 219.3 401.019C214.644 388.536 216.088 374.933 221.668 363.044C234.846 334.967 271.777 305.93 300.672 295.315C300.538 295.537 300.408 295.761 300.269 295.979C299.143 297.749 297.298 298.922 296.052 300.598C292.832 304.933 294.423 314.029 295.417 319.019C295.671 320.256 295.96 321.485 296.282 322.706C278.16 334.198 257.311 352.056 252.242 374.005C249.86 384.319 252.063 394.668 257.757 403.519C265.28 415.215 278.036 424.208 289.828 431.196C324.769 451.902 363.692 462.89 403.184 471.15C406.099 471.783 409.033 472.329 411.98 472.789C418.149 480.821 426.151 488.452 433.306 495.655C435.884 498.25 438.824 500.751 441.172 503.537Z" fill="#CFBAF0"/>
<path d="M298.251 324.782C319.062 311.234 343.879 303.754 367.681 297.524C370.235 305.127 377.108 308.079 380.741 314.552C352.091 317.566 325.189 324.127 302.374 342.802C299.692 337.205 298.922 330.878 298.251 324.782Z" fill="#8EECF5"/>
<path d="M494.255 308.128L492.944 306.499C493.065 304.795 493.794 303.565 495.144 302.463C496.255 301.555 497.544 300.943 499.009 301.16C500.078 301.318 500.211 306.61 501.241 308.087C503.517 309.627 505.843 310.358 508.555 310.772C513.693 311.558 520.023 311.603 524.313 308.31C527.1 306.171 527.227 303.434 527.677 300.224C531.468 301.317 532.779 302.469 535.144 305.544C531.063 309.33 527.212 311.453 521.732 312.349C512.484 313.861 502.082 313.824 494.255 308.128Z" fill="#FBFCFC"/>
<path d="M492.366 313.795C491.885 312.674 491.5 312.011 491.697 310.765C493.834 310.739 499.102 314.528 503.106 315.073C514.295 316.595 525.798 316.552 535.107 309.478C535.492 309.845 535.424 310.223 535.506 310.735C535.081 311.798 534.69 312.689 533.906 313.542C529.571 318.258 520.302 319.314 514.206 319.558C506.765 319.856 498.092 319.026 492.366 313.795Z" fill="#FBFCFC"/>
<path d="M302.374 342.802C325.189 324.127 352.091 317.566 380.741 314.552C394.604 314.412 408.221 314.528 421.918 316.976C451.155 322.2 475.205 332.165 505.619 333.368C526.696 334.202 549.15 332.741 569.601 327.405C585.859 323.163 601.747 317.395 618.454 315.111C626.679 313.973 634.983 313.499 643.284 313.694C667.559 314.437 726.928 322.41 744.823 339.131L745.084 339.858C740.365 339.705 731.56 333.78 726.77 331.812C722.754 330.161 718.523 328.851 714.355 327.642C695.497 322.17 675.072 318.664 655.512 317.079C639.641 315.793 623.568 316.047 607.991 319.623C593.181 323.023 578.902 328.331 564.006 331.509C548.258 334.868 532.353 335.888 516.276 336.049C504.712 336.164 493.066 335.65 481.656 333.673C468.672 331.423 455.968 327.517 443.204 324.289C422.878 319.147 402.814 316.336 381.82 317.18C351.024 319.406 326.727 326.804 302.178 346.269C293.43 353.457 286.939 361.793 280.48 370.992L279.662 370.809L279.28 369.542C282.014 360.122 294.955 349.199 302.374 342.802Z" fill="#030101"/>
<path d="M302.178 346.269C326.727 326.804 351.024 319.406 381.82 317.18C382.498 319.887 396.112 337.816 398.979 342.363C409.211 358.597 414.587 377.745 426.46 392.857C432.968 401.141 441.199 407.687 450.21 413.065C481.528 431.756 521.759 433.301 557.226 431.975C590.969 430.713 624.975 424.181 654.521 445.973C658.31 448.768 663.686 452.374 665.667 456.769C591.539 475.98 515.082 484.103 438.856 473.962C428.493 472.583 417.886 471.282 407.657 469.128C406.154 466.858 403.223 464.833 401.252 462.899C399.034 460.722 397.071 458.352 395.091 455.963C386.717 445.857 378.417 435.823 369.221 426.438C343.491 400.176 318.897 380.056 302.178 346.269Z" fill="#8EECF5"/>
<path d="M407.657 469.128C397.185 467.375 386.703 464.939 376.393 462.408C342.867 454.178 278.109 432.306 259.655 401.371C254.475 392.688 252.538 383.139 255.166 373.282C260.727 352.421 280.267 335.183 298.251 324.782C298.922 330.878 299.692 337.205 302.374 342.802C294.955 349.199 282.014 360.122 279.28 369.542L279.662 370.809L280.48 370.992C286.939 361.793 293.43 353.457 302.178 346.269C318.897 380.056 343.491 400.176 369.221 426.438C378.417 435.823 386.717 445.857 395.091 455.963C397.071 458.352 399.034 460.722 401.252 462.899C403.223 464.833 406.154 466.858 407.657 469.128Z" fill="#CFBAF0"/>
<path d="M508.299 365.824C509.214 358.954 510.57 352.136 515.994 347.3C520.743 349.226 523.964 352.465 525.996 357.213C527.443 360.593 528.098 364.676 526.571 368.147C525.208 371.245 522.907 372.79 519.858 373.987C517.813 374.072 515.758 373.942 513.872 373.083C510.736 371.656 509.508 368.853 508.299 365.824ZM516.615 350.574C513.863 354.646 511.334 360.916 512.214 365.853C512.551 367.746 513.503 369.293 515.158 370.295C516.761 371.265 518.264 371.213 520.082 371.141C522.367 369.59 523.917 368.081 524.377 365.246C525.005 361.372 523.634 357.433 521.265 354.386C519.948 352.692 518.551 351.483 516.615 350.574Z" fill="#030101"/>
<path d="M817.298 347.839C821.346 351.838 824.546 357.186 827.951 361.782C833.758 369.783 839.997 377.461 846.64 384.783C859.386 398.574 873.978 410.213 887.511 423.141C899.639 434.816 910.585 447.66 920.19 461.485C923.699 466.535 926.875 471.571 929.606 477.094C931.617 481.159 933.292 485.702 935.653 489.549C954.564 548.547 949.367 623.561 920.858 678.846C886.37 745.727 832.47 794.579 769.161 833.597C740.667 851.158 711.725 865.979 679.744 876.137C651.341 885.158 615.997 890.125 586.293 887.492C589.035 884.913 591.64 882.316 593.902 879.297C597.325 874.726 599.675 869.463 600.437 863.786C602.528 848.203 593.28 808.805 590.611 790.926C597.161 789.194 604.121 785.421 610.171 782.299C623.285 775.532 635.59 767.519 647.859 759.363C682.099 736.601 713.093 710.916 725.973 670.261C734.04 644.801 732.769 618.076 726.668 592.314C725.328 586.656 723.433 581.145 721.917 575.533C719.847 567.875 718.522 558.689 714.892 551.682C721.139 546.546 728.622 542.343 735.13 537.413C756.511 521.217 775.085 502.044 788.986 479.007C809.131 445.622 826.805 386.225 817.298 347.839ZM910.294 484.188C909.803 485.031 909.477 485.652 909.513 486.656C909.694 491.78 911.349 497.098 912.023 502.215C913.655 513.753 914.266 525.412 913.847 537.057C912.35 575.054 899.389 616.401 882.515 650.259C863.419 688.578 826.8 735.212 795.478 764.771C783.963 775.637 771.88 786.034 760.081 796.604C754.987 801.166 744.729 808.551 741.703 813.934L742.008 814.765L743.446 814.336C826.464 751.494 901.399 663.627 915.99 557.229C918.778 536.9 918.238 517.46 915.284 497.187C914.727 493.37 914.457 487.954 912.4 484.684C911.697 484.498 911.013 484.299 910.294 484.188ZM796.885 724.878C791.56 729.298 786.946 734.567 781.955 739.357C777.682 743.458 771.439 747.904 768.127 752.695C768.015 754.092 768.098 754.157 768.849 755.355L769.813 755.625C776.072 750.681 795.819 733.18 798.2 726.698C797.865 725.637 797.766 725.571 796.885 724.878ZM715.155 800.589C710.793 804.393 688.602 820.973 687.407 823.944C687.691 825.192 687.819 825.715 689.005 826.449C689.377 826.68 689.964 826.826 690.391 826.95C694.516 823.865 717.489 806.359 718.324 803.343C717.869 802.113 717.45 801.608 716.249 800.996C715.785 800.76 715.609 800.725 715.155 800.589Z" fill="#98F5E1"/>
<path d="M520.082 371.141C518.264 371.213 516.761 371.265 515.158 370.295C513.503 369.293 512.551 367.746 512.214 365.853C511.334 360.916 513.863 354.646 516.615 350.574C518.551 351.483 519.948 352.692 521.265 354.386C523.634 357.433 525.005 361.372 524.377 365.246C523.917 368.081 522.367 369.59 520.082 371.141Z" fill="#FBFCFC"/>
<path d="M954.77 386.001C953.152 385.99 951.791 385.917 950.319 385.178C948.233 384.131 946.678 382.357 946.084 380.083C945.595 378.23 945.899 376.256 946.923 374.636C948.287 372.478 950.166 371.713 952.551 371.129C954.056 371.22 955.643 371.306 957.054 371.893C958.929 372.672 960.505 374.247 961.245 376.14C961.961 377.971 961.803 379.934 960.917 381.679C959.586 384.299 957.426 385.143 954.77 386.001Z" fill="#FBFCFC"/>
<path d="M687.984 482.324C732.078 468.057 789.26 443.488 811.555 399.948C813.165 396.804 814.54 393.526 815.931 390.281C806.485 455.806 782.063 499.086 728.952 538.752C724.733 541.903 720.375 544.969 715.901 547.745C711.901 542.777 707.229 524.279 704.117 516.747C701.381 510.012 698.415 503.372 695.226 496.839C692.852 492.08 689.714 487.342 687.984 482.324Z" fill="#B9FBC0"/>
<path d="M218.64 406.012C220.126 408.607 221.636 411.16 223.398 413.579C230.024 422.672 239.111 430.733 247.878 437.7C278.918 462.365 310.83 475.254 348.392 486.677C366.356 492.162 384.571 496.79 402.975 500.546C417.381 503.348 431.901 504.631 446.374 506.878C449.394 512.004 463.443 523.123 468.526 527.654C480.655 538.468 541.275 591.815 544.924 604.071C489.124 609.655 409.624 595.655 358.243 573.236C337.335 564.083 317.616 552.427 299.518 538.522C257.541 506.572 225.836 458.85 218.64 406.012Z" fill="#CFBAF0"/>
<path d="M411.98 472.789C428.42 475.075 444.787 477.57 461.344 478.915C531.746 484.4 602.563 477.394 670.526 458.222C674.989 463.568 683.704 474.023 686.455 479.982C675.737 482.768 665.309 486.47 654.52 489.063C600.971 502.23 545.935 508.361 490.801 507.303C479.555 506.899 468.32 506.201 457.11 505.209C451.809 504.725 446.478 503.835 441.172 503.537C438.824 500.751 435.884 498.25 433.306 495.655C426.151 488.452 418.149 480.821 411.98 472.789Z" fill="#8EECF5"/>
<path d="M149.761 460.477L149.942 460.52C149.81 464.447 153.533 470.092 155.397 473.693C157.698 478.139 159.675 482.697 162.17 487.048C170.755 502.018 181.804 515.91 193.564 528.499C209.436 545.49 227.193 559.931 244.989 574.8C273.568 598.679 301.83 623.275 322.826 654.345C339.94 679.669 348.601 708.268 360.409 736.089C370.698 760.328 382.639 779.873 399.647 799.952C413.328 816.105 431.502 831.384 449.976 841.796C452.204 843.052 458.641 845.917 460.138 847.535C460.683 848.124 460.705 848.722 460.755 849.443C460.49 854.704 460.11 859.97 460.31 865.237L460.339 866.103L460.361 866.622C454.747 869.402 448.724 871.648 442.952 874.095C428.101 880.391 413.306 886.097 397.738 890.426C355.497 902.169 305.524 905.639 262.788 894.814C205.253 880.239 157.215 846.465 126.698 795.152C106.457 761.023 95.8843 722.03 96.111 682.352C96.3445 661.774 99.275 641.201 102.274 620.877C107.346 586.491 113.452 557.892 124.499 524.891C129.109 511.086 134.213 497.451 139.802 484.013C142.351 477.95 148.239 467.098 149.569 461.361C149.638 461.067 149.697 460.771 149.761 460.477Z" fill="#FFCFD2"/>
<path d="M446.374 506.878C462.874 508.18 479.19 509.636 495.759 509.953C560.896 511.037 625.789 501.71 687.984 482.324C689.714 487.342 692.852 492.08 695.226 496.839C698.415 503.372 701.381 510.012 704.117 516.747C707.229 524.279 711.901 542.777 715.901 547.745C665.349 580.402 604.622 598.755 544.924 604.071C541.275 591.815 480.655 538.468 468.526 527.654C463.443 523.123 449.394 512.004 446.374 506.878ZM687.667 513.461C684.202 515.499 681.284 518.119 680.165 522.139C679.774 523.544 679.802 525.105 680.714 526.321C681.942 527.958 683.975 528.474 685.902 528.622C689.097 527.463 691.021 525.906 692.549 522.802C693.491 520.889 694.182 518.396 693.295 516.334C692.751 515.068 691.747 514.214 690.475 513.728C689.662 513.418 688.518 513.48 687.667 513.461ZM659.116 525.949C654.912 527.8 651.209 531.584 649.588 535.925C648.909 537.743 648.655 539.938 649.475 541.757C650.454 543.926 652.79 545.374 654.973 546.084C657.971 545.746 659.801 545.214 661.778 542.81C664.125 539.958 665.665 535.783 665.109 532.063C664.798 529.975 663.748 527.858 661.859 526.775C661.001 526.282 660.071 526.129 659.116 525.949Z" fill="#8EECF5"/>
<path d="M743.446 814.336L742.008 814.765L741.703 813.934C744.729 808.551 754.987 801.166 760.081 796.604C771.88 786.034 783.963 775.637 795.478 764.771C826.8 735.212 863.419 688.578 882.515 650.259C899.389 616.401 912.35 575.054 913.847 537.057C914.266 525.412 913.655 513.753 912.023 502.215C911.349 497.098 909.694 491.78 909.513 486.656C909.477 485.652 909.803 485.031 910.294 484.188C911.013 484.299 911.697 484.498 912.4 484.684C914.457 487.954 914.727 493.37 915.284 497.187C918.238 517.46 918.778 536.9 915.99 557.229C901.399 663.627 826.464 751.494 743.446 814.336Z" fill="#FBFCFC"/>
<path d="M685.902 528.622C683.975 528.474 681.942 527.958 680.714 526.321C679.802 525.105 679.774 523.544 680.165 522.139C681.284 518.119 684.202 515.499 687.667 513.461C688.518 513.48 689.662 513.418 690.475 513.728C691.747 514.214 692.751 515.068 693.295 516.334C694.182 518.396 693.491 520.889 692.549 522.802C691.021 525.906 689.097 527.463 685.902 528.622ZM688.664 515.819C686.439 517.2 683.998 519.017 683.122 521.613C682.709 522.835 682.959 523.605 683.469 524.726C684.083 525.187 684.676 525.683 685.345 526.062C687.853 524.807 689.799 523.06 690.81 520.365C691.272 519.134 691.172 518.211 690.685 517.004C689.961 516.444 689.541 516.131 688.664 515.819Z" fill="#030101"/>
<path d="M685.345 526.062C684.676 525.683 684.083 525.187 683.469 524.726C682.959 523.605 682.709 522.835 683.122 521.613C683.998 519.017 686.439 517.2 688.664 515.819C689.541 516.131 689.961 516.444 690.685 517.004C691.172 518.211 691.272 519.134 690.81 520.365C689.799 523.06 687.853 524.807 685.345 526.062Z" fill="#8EECF5"/>
<path d="M654.973 546.084C652.79 545.374 650.454 543.926 649.475 541.757C648.655 539.938 648.909 537.743 649.588 535.925C651.209 531.584 654.912 527.8 659.116 525.949C660.071 526.129 661.001 526.282 661.859 526.775C663.748 527.858 664.798 529.975 665.109 532.063C665.665 535.783 664.125 539.958 661.778 542.81C659.801 545.214 657.971 545.746 654.973 546.084ZM659.366 528.823C656.208 530.87 652.43 534.084 651.759 538.01C651.574 539.093 651.635 540.435 652.249 541.378C652.909 542.393 654.266 543.035 655.293 543.619C658.45 542.41 660.081 540.543 661.526 537.493C662.482 535.474 663.215 532.993 662.282 530.827C661.764 529.626 660.87 529.217 659.69 528.881C659.585 528.851 659.474 528.842 659.366 528.823Z" fill="#030101"/>
<path d="M655.293 543.619C654.266 543.035 652.909 542.393 652.249 541.378C651.635 540.435 651.574 539.093 651.759 538.01C652.43 534.084 656.208 530.87 659.366 528.823C659.474 528.842 659.585 528.851 659.69 528.881C660.87 529.217 661.764 529.626 662.282 530.827C663.215 532.993 662.482 535.474 661.526 537.493C660.081 540.543 658.45 542.41 655.293 543.619Z" fill="#8EECF5"/>
<path d="M611.94 595.181C649.998 584.32 680.957 572.113 714.892 551.682C718.522 558.689 719.847 567.875 721.917 575.533C723.433 581.145 725.328 586.656 726.668 592.314C732.769 618.076 734.04 644.801 725.973 670.261C713.093 710.916 682.099 736.601 647.859 759.363C635.59 767.519 623.285 775.532 610.171 782.299C604.121 785.421 597.161 789.194 590.611 790.926C588.678 780.2 587.585 769.248 586.294 758.429C583.022 731.004 580.459 703.468 582.964 675.868C584.415 659.887 587.792 644.249 589.913 628.37C600.336 619.068 606.23 607.697 611.94 595.181Z" fill="#90DBF4"/>
<path d="M549.423 606.259C569.389 604.24 589.185 600.786 608.655 595.926C599.841 616.085 588.251 630.347 567.4 638.586C565.74 639.232 564.062 639.831 562.368 640.381C560.162 627.942 553.346 617.979 549.423 606.259Z" fill="#90DBF4"/>
<path d="M430.095 597.915C439.679 599.564 449.198 601.589 458.821 602.999C488.795 607.574 519.198 608.668 549.423 606.259C553.346 617.979 560.162 627.942 562.368 640.381C536.385 647.015 497.083 647.709 471.752 638.576C452.324 631.571 438.676 616.262 430.095 597.915Z" fill="#CFBAF0"/>
<path d="M562.371 643.046C571.306 640.106 579.159 636.351 586.922 631.026C584.092 648.82 580.989 666.408 579.869 684.414C577.795 717.744 582.55 758.503 588.049 791.645C573.292 798.332 559.129 805.882 545.05 813.9C546.111 809.356 548.837 804.464 550.682 800.136C553.951 792.469 556.974 784.773 559.236 776.739C568.937 742.29 572.413 703.702 568.458 668.104C567.541 659.854 566.472 650.388 562.371 643.046Z" fill="#90DBF4"/>
<path d="M462.248 637.763C491.52 649.782 531.659 650.703 562.371 643.046C566.472 650.388 567.541 659.854 568.458 668.104C572.413 703.702 568.937 742.29 559.236 776.739C556.974 784.773 553.951 792.469 550.682 800.136C548.837 804.464 546.111 809.356 545.05 813.9C530.974 823.954 517.324 835.035 502.826 844.421C497.587 847.812 491.971 850.766 486.447 853.662C483.936 854.978 480.868 856.172 478.626 857.848L478.31 857.911C475.712 855.768 466.232 849.457 463.086 849.45C467.224 806.747 470.045 763.464 470.049 720.56C470.052 693.191 470.135 664.206 462.248 637.763Z" fill="#CFBAF0"/>
<path d="M769.813 755.625L768.849 755.355C768.098 754.157 768.015 754.092 768.127 752.695C771.439 747.904 777.682 743.458 781.955 739.357C786.946 734.567 791.56 729.298 796.885 724.878C797.766 725.571 797.865 725.637 798.2 726.698C795.819 733.18 776.072 750.681 769.813 755.625Z" fill="#FBFCFC"/>
<path d="M545.05 813.9C559.129 805.882 573.292 798.332 588.049 791.645C589.565 801.954 591.253 812.237 593.115 822.49C595.34 834.762 599.435 849.044 598.05 861.48C597.329 867.756 594.904 873.715 591.038 878.71C588.511 882.031 585.089 885.399 581.619 887.711C578.305 885.678 558.096 883.978 552.697 883.015C547.025 882.003 541.343 880.623 535.759 879.206C515.84 874.149 496.8 867.454 478.626 857.848C480.868 856.172 483.936 854.978 486.447 853.662C491.971 850.766 497.587 847.812 502.826 844.421C517.324 835.035 530.974 823.954 545.05 813.9Z" fill="#98F5E1"/>
<path d="M690.391 826.95C689.964 826.826 689.377 826.68 689.005 826.449C687.819 825.715 687.691 825.192 687.407 823.944C688.602 820.973 710.793 804.393 715.155 800.589C715.609 800.725 715.785 800.76 716.249 800.996C717.45 801.608 717.869 802.113 718.324 803.343C717.489 806.359 694.516 823.865 690.391 826.95Z" fill="#FBFCFC"/>
<path d="M805.772 878.217C796.304 880.74 786.583 875.114 784.054 865.649C781.524 856.183 787.144 846.458 796.608 843.922C806.081 841.385 815.816 847.011 818.348 856.485C820.88 865.959 815.248 875.691 805.772 878.217ZM798.34 846.605C790.378 848.148 785.154 855.828 786.643 863.801C788.132 871.773 795.777 877.049 803.759 875.614C811.818 874.165 817.156 866.431 815.652 858.382C814.149 850.333 806.379 845.048 798.34 846.605Z" fill="#90DBF4"/>
<path d="M803.759 875.614C795.777 877.049 788.132 871.773 786.643 863.801C785.154 855.828 790.378 848.148 798.34 846.605C806.379 845.048 814.149 850.333 815.652 858.382C817.156 866.431 811.818 874.165 803.759 875.614Z" fill="#E6DFD5"/>
<path d="M463.086 849.45C466.232 849.457 475.712 855.768 478.31 857.911C473.86 861.021 468.167 863.917 462.774 864.802C462.47 859.702 462.862 854.55 463.086 849.45Z" fill="#F1C0E8"/>
<path d="M199.198 917.561C196.798 917.468 194.226 917.31 191.876 917.904C181.94 920.413 177.251 930.845 165.218 928.576C161.112 927.802 157.18 925.112 154.861 921.653C153.024 918.914 152.307 915.69 152.306 912.424C152.303 900.068 163.482 894.143 163.659 888.042C163.828 882.195 147.246 878.381 142.69 875.828C138.457 873.455 134.339 869.897 131.499 865.951C129.386 863.016 127.771 859.282 128.282 855.643C128.787 855.82 129.6 856.159 129.993 856.512C132.329 858.617 135.548 867.26 140.354 871.37C146.808 876.89 156.62 876.122 163.183 881.638C174.905 891.489 153.766 899.121 155.384 913.67C155.84 917.771 158.277 921.689 161.618 924.089C173.266 932.457 183.041 915.93 194.009 914.605C198.203 914.098 202.511 915.534 205.699 918.293C214.135 925.595 208.823 935.23 209.817 944.202C210.192 947.592 211.798 950.666 214.607 952.655C222.206 958.034 233 957.803 241.365 954.322C247.254 951.871 252.536 948.381 258.988 947.469C266.382 946.424 277.359 948.816 283.196 953.645C284.24 954.509 284.268 954.711 284.429 955.988C283.849 956.501 283.266 957.011 282.679 957.516C280.631 957.482 278.075 955.117 276.315 954.062C269.786 950.148 260.331 949.144 253.236 951.795C247.815 953.82 243.093 956.978 237.39 958.379C229.747 960.255 220.909 959.922 214.095 955.668C199.993 946.864 210.133 937.529 207.09 926.083C205.9 921.606 202.961 919.711 199.198 917.561Z" fill="#FBFCFC"/>
<path d="M478.31 857.911L478.626 857.848C496.8 867.454 515.84 874.149 535.759 879.206C541.343 880.623 547.025 882.003 552.697 883.015C558.096 883.978 578.305 885.678 581.619 887.711C570.631 895.999 555.176 899.366 541.784 901.045C520.824 903.672 492.022 902.386 474.693 888.657C466.743 882.359 463.838 874.576 462.774 864.802C468.167 863.917 473.86 861.021 478.31 857.911Z" fill="#E6DFD5"/>
<path d="M606.003 931.853C605.068 932.742 603.7 934.181 602.511 934.659C601.28 935.154 600.84 935.023 599.689 934.605L599.685 933.702C601.626 930.56 605.312 928.017 608.548 926.304C626.596 916.751 636.337 930.701 652.235 929.684C663.549 928.96 670.47 918.451 681.63 916.603C692.71 914.769 701.862 922.385 712.942 920.009C723.289 917.791 729.837 908.309 740.399 905.129C742.212 904.979 744.741 904.526 746.425 905.267C747.609 905.788 747.656 906.31 747.925 907.429L747.392 908.276C745.213 908.357 743.044 907.654 740.905 907.877C731.478 908.861 724.791 919.561 715.319 922.247C701.347 926.209 693.72 916.78 681.789 918.843C670.317 920.827 664.195 931.888 651.658 932.457C642.446 932.875 634.454 926.978 625.381 926.051C617.755 925.272 611.954 927.068 606.003 931.853Z" fill="#FBFCFC"/>
<path d="M400.755 939.065C398.136 939.327 395.579 938.155 394.067 936C392.556 933.844 392.326 931.041 393.465 928.668C394.605 926.294 396.936 924.721 399.564 924.553C403.526 924.299 406.961 927.266 407.286 931.224C407.611 935.181 404.706 938.669 400.755 939.065Z" fill="#FBFCFC"/>
<defs>
<linearGradient id="paint0_linear_407_358" x1="762.551" y1="281.483" x2="304.937" y2="711.453" gradientUnits="userSpaceOnUse">
<stop/>
<stop offset="1" stop-color="#281317"/>
</linearGradient>
</defs>
</svg>
