<svg width="1024" height="1024" viewBox="0 0 1024 1024" fill="none" xmlns="http://www.w3.org/2000/svg">
<path d="M199.409 342.533C199.075 329.448 200.294 316.02 201.34 302.985C205.086 256.27 213.24 194.976 236.033 153.596C236.341 153.582 236.649 153.58 236.956 153.554C241.175 153.197 265.066 131.74 270.228 127.651C279.753 120.107 290.104 113.345 300.181 106.569C307.327 101.764 314.337 96.6676 321.72 92.2359C355.477 71.9743 394.052 58.1488 433.64 57.4678C444.855 57.2748 456.022 57.6377 467.001 60.1648C489.849 65.4241 511.787 77.7994 530.434 91.737C556.839 111.474 578.11 135.685 600.694 159.416C604.344 163.25 612.744 170.143 614.652 174.54C595.154 183.652 576.11 193.704 557.586 204.661C549.262 209.521 541.292 214.965 532.881 219.694C531.913 210.175 529.392 202.314 521.687 196.137C516.49 191.971 509.911 189.779 503.241 190.547C495.4 191.449 489.098 196.244 484.436 202.341C475.358 214.213 473.478 229.305 473.986 243.82C470.021 246.235 467.259 249.072 466.143 253.73C465.319 257.166 465.673 260.68 467.657 263.652C469.65 266.638 472.638 268 475.862 269.32C472.711 271.242 469.506 273.104 466.513 275.27C461.083 279.2 433.86 299.963 431.561 303.665C427.307 303.212 423.048 302.796 418.786 302.419C406.112 286.294 391.817 274.436 370.779 271.827C324.19 266.051 269.383 295.898 231.504 320.45C224.191 325.238 216.964 330.156 209.826 335.202C206.445 337.586 202.998 340.514 199.409 342.533ZM371.692 161.594C358.436 164.227 349.83 177.114 352.476 190.367C355.123 203.62 368.019 212.213 381.27 209.552C394.5 206.896 403.078 194.023 400.435 180.789C397.792 167.556 384.928 158.965 371.692 161.594Z" fill="#FBF8CC"/>
<path d="M236.033 153.596C213.24 194.976 205.086 256.27 201.34 302.985C200.294 316.02 199.075 329.448 199.409 342.533C198.549 360.077 197.422 377.924 198.128 395.479C199.31 424.866 206.545 454.675 217.146 482.024C228.024 508.071 241.422 532.876 255.324 557.419C259.48 564.756 263.733 574.106 269.446 580.33C271.511 582.579 275.024 583.792 277.795 584.93C289.304 589.656 301.167 593.644 312.922 597.714C334.008 605.064 355.231 612.016 376.58 618.566C394.296 624.073 411.875 630.129 429.653 635.418L429.634 636.048L429.262 637.579C426.013 638.03 313.062 600.833 304.132 597.709C293.575 594.016 283.145 590.147 272.887 585.678C281.67 600.682 292.479 614.531 301.377 629.547C317.308 656.433 330.327 687.03 353.648 708.558C360.304 714.702 367.876 719.91 375.421 724.89C385.188 731.337 396.205 737.672 407.596 740.674C411.331 741.674 415.162 742.277 419.024 742.473C419.962 742.52 423.399 742.249 423.973 742.548C424.226 742.68 424.339 742.987 424.521 743.206L424.623 744.371L424.571 745.216C411.141 746.75 398.483 740.813 386.807 734.834C370.017 726.237 353.904 714.364 341.556 700.067C328.076 684.457 318.354 665.171 308.324 647.238C300.991 634.015 293.122 621.098 284.736 608.519C280.2 601.795 274.295 590.372 268.627 585.196C266.762 583.493 233.099 569.287 227.48 566.716C224.672 564.826 221.278 563.41 218.261 561.853C211.014 558.115 203.686 554.453 196.809 550.053C158.811 525.744 124.38 488.191 107.891 445.777C106.238 441.524 97.6506 420.532 98.0845 417.497C98.1674 416.917 98.5534 416.423 98.7878 415.886C102.701 419.735 110.274 444.555 113.404 451.77C133.58 498.274 179.742 542.377 225.884 562.996C239.067 569.603 252.941 575.278 266.636 580.737C260.909 572.89 256.275 564.254 251.465 555.83C241.066 537.617 231.448 519.022 221.798 500.404C220.636 496.186 218.234 491.821 216.559 487.742C213.26 479.703 210.196 471.469 207.627 463.168C201.868 444.563 197.466 424.358 196.067 404.918C194.664 385.41 195.832 363.781 196.429 344.092C197.254 293.811 204.422 228.516 221.072 181.183C223.353 174.699 225.551 168.032 228.785 161.95C230.668 160.246 231.665 155.658 232.826 153.226C240.031 138.131 255.942 112.642 272.868 107.479C273.987 107.138 274.865 106.935 275.934 107.465C274.308 110.532 264.412 115.457 261.115 118.128C251.663 125.788 240.493 141.497 236.316 152.803C236.219 153.066 236.128 153.332 236.033 153.596Z" fill="#FCFDFB"/>
<path d="M615.781 174.054C633.816 165.739 652.143 158.064 671.424 153.092C705.062 144.419 743.322 144.537 777.128 152.267C789.63 155.126 802.001 159.389 814.02 163.813C860.777 181.023 907.583 212.245 928.898 258.76C948.566 301.679 943.102 348.365 926.97 391.289C920.593 408.259 906.985 436.826 895.913 450.7C889.014 442.958 880.996 436.379 873.823 428.918C869.09 422.224 857.122 411.766 850.746 405.494C839.965 394.89 829.001 384.552 817.967 374.218C812.807 369.385 807.857 364.312 802.552 359.637C786.884 345.829 770.545 333.06 755.653 318.353C739.831 302.727 724.613 286.573 709.187 270.565L654.718 214.385C647.683 207.23 640.712 200.011 633.805 192.731C628.014 186.506 622.359 179.427 615.781 174.054Z" fill="#FFCFD2"/>
<path d="M97.0039 416.136C92.5533 404.6 90.8815 392.583 89.78 380.334C87.659 356.746 88.4677 334.326 94.4491 311.289C111.164 246.911 145.729 221.638 196.812 185.168C204.747 179.503 212.531 173.535 220.295 167.635C222.776 165.749 225.105 163.174 227.757 161.612L228.785 161.95C225.551 168.032 223.353 174.699 221.072 181.183C204.422 228.516 197.254 293.811 196.429 344.092C191.626 345.908 180.515 354.759 175.39 358.332C158.404 370.067 141.538 381.974 124.794 394.052C115.834 400.615 106.25 407.171 98.3354 414.983L97.0039 416.136Z" fill="#FBF8CC"/>
<path d="M381.27 209.552C368.019 212.213 355.123 203.62 352.476 190.367C349.83 177.114 358.436 164.227 371.692 161.594C384.928 158.965 397.792 167.556 400.435 180.789C403.078 194.023 394.5 206.896 381.27 209.552ZM373.14 164.349C361.474 166.236 353.578 177.263 355.549 188.915C357.52 200.566 368.604 208.383 380.241 206.328C391.76 204.294 399.48 193.346 397.529 181.813C395.578 170.279 384.687 162.481 373.14 164.349Z" fill="#FCFDFB"/>
<path d="M380.241 206.328C368.604 208.383 357.52 200.566 355.549 188.915C353.578 177.263 361.474 166.236 373.14 164.349C384.687 162.481 395.578 170.279 397.529 181.813C399.48 193.346 391.76 204.294 380.241 206.328Z" fill="#FBF8CC"/>
<path d="M615.023 175.036L615.781 174.054C622.359 179.427 628.014 186.506 633.805 192.731C640.712 200.011 647.683 207.23 654.718 214.385L709.187 270.565C724.613 286.573 739.831 302.727 755.653 318.353C770.545 333.06 786.884 345.829 802.552 359.637C807.857 364.312 812.807 369.385 817.967 374.218C829.001 384.552 839.965 394.89 850.746 405.494C857.122 411.766 869.09 422.224 873.823 428.918C863.781 423.331 855.716 413.149 846.938 405.747C833.292 392.762 819.854 379.665 805.86 367.042C791.86 354.415 777.474 342.349 763.788 329.351C736.888 303.8 711.815 276.13 686.057 249.425C662.256 224.75 637.537 200.916 615.023 175.036Z" fill="#FCFDFB"/>
<path d="M532.881 219.694C541.292 214.965 549.262 209.521 557.586 204.661C576.11 193.704 595.154 183.652 614.652 174.54L615.023 175.036C637.537 200.916 662.256 224.75 686.057 249.425C711.815 276.13 736.888 303.8 763.788 329.351C777.474 342.349 791.86 354.415 805.86 367.042C819.854 379.665 833.292 392.762 846.938 405.747C842.322 404.307 837.312 399.676 833.118 397.118C825.29 392.342 798.007 377.507 790.119 378.094C783.629 370.004 777.696 363.968 768.01 359.676C742.256 348.263 712.461 344.655 684.814 340.708L639.827 334.04L534.085 317.239C534.001 284.747 534.273 252.163 532.881 219.694Z" fill="#FFCFD2"/>
<path d="M473.986 243.82C473.478 229.305 475.358 214.213 484.436 202.341C489.098 196.244 495.4 191.449 503.241 190.547C509.911 189.779 516.49 191.971 521.687 196.137C529.392 202.314 531.913 210.175 532.881 219.694C534.273 252.163 534.001 284.747 534.085 317.239L639.827 334.04L684.814 340.708C712.461 344.655 742.256 348.263 768.01 359.676C777.696 363.968 783.629 370.004 790.119 378.094C795.859 388.605 798.999 399.858 795.47 411.692C795.288 412.302 795.093 412.96 794.822 413.539L794.18 415.803C787.249 433.608 774.829 444.935 758.609 454.376C753.812 472.819 740.571 510.566 728.603 525.186C724.585 530.095 719.416 533.811 713.994 537.025C700.98 544.741 686.076 549.882 671.47 553.719C659.304 556.915 646.857 559.225 634.535 561.742C629.696 562.73 624.601 563.4 619.873 564.776C617.909 565.348 615.961 566.178 614.309 567.4C608.305 571.844 605.047 581.695 603.246 588.589C599.088 604.501 598.444 621.032 598.512 637.391C598.527 643.611 598.723 649.887 598.538 656.101L598.512 659.059L596.082 659.416L596 656.563C595.226 650.483 595.467 644.065 595.459 637.94C595.429 615.497 596.381 585.361 610.405 566.966C586.198 572.039 562.087 576.891 537.326 578.306C519.935 579.3 502.257 578.433 484.902 577.266C479.401 576.44 473.828 575.995 468.358 574.972C453.489 572.193 438.414 567.196 424.31 561.825C426.768 581.196 429.665 600.463 431.303 619.933C431.847 626.404 432.559 632.998 432.553 639.494C433.268 648.25 433.072 657.202 432.985 665.983C432.795 687.507 431.558 709.009 429.277 730.413C428.641 736.309 428.412 742.76 427.174 748.518C426.515 755.071 426.041 768.815 423.595 774.409C422.089 776.43 421.121 778.715 420.058 780.988L420.147 781.561C417.113 787.81 416.211 793.88 418.467 800.608C423.531 815.709 440.476 826.722 454.065 833.245C488.134 849.599 520.691 850.267 555.953 837.831C574.741 831.206 600.318 818.517 609.312 799.436C612.865 791.898 611.983 785.969 609.262 778.458L608.934 776.446L609.456 775.862C611.158 777.316 612.176 780.721 613.103 782.778L613.427 782.047C615.825 788.104 614.416 794.782 611.862 800.556C603.372 819.756 578.384 832.585 559.61 839.612C525.049 852.549 489.559 852.975 455.685 837.33C440.551 830.34 421.972 818.863 415.932 802.317C414.251 797.711 413.907 792.988 414.561 788.153C415.584 782.5 418.852 779.03 420.689 773.858C423.356 766.35 424.154 753.296 424.571 745.216L424.623 744.371C425.998 738.207 426.216 731.312 426.876 725.006C429.391 700.323 430.511 675.517 430.233 650.707C430.145 645.974 430.46 640.692 429.634 636.048L429.653 635.418C428.777 610.66 425.383 584.865 420.94 560.516C412.343 557.19 403.531 554.3 394.882 551.093L341.642 530.919C330.147 526.539 317.382 522.686 306.598 516.79C282.819 503.788 271.11 473.608 261.361 449.685C258.66 443.057 256.257 435.085 252.503 429.019C247.231 420.499 232.282 417.57 228.349 404.023C227.582 400.587 227.303 397.062 227.517 393.549C228.251 380.206 235.36 369.065 245.099 360.344C268.169 339.682 300.291 328.898 328.445 317.249C339.893 312.512 351.155 306.52 363.398 304.116C381.564 300.548 400.422 301.339 418.786 302.419C423.048 302.796 427.307 303.212 431.561 303.665C441.135 305.238 451.082 305.857 460.74 307.027C475.084 308.818 489.392 310.878 503.657 313.207C503.947 297.762 503.476 282.238 503.332 266.787C494.661 270.898 485.144 272.019 475.862 269.32C472.638 268 469.65 266.638 467.657 263.652C465.673 260.68 465.319 257.166 466.143 253.73C467.259 249.072 470.021 246.235 473.986 243.82ZM529.7 218.718C528.874 210.489 526.308 203.574 519.646 198.213C515.053 194.502 509.117 192.882 503.276 193.745C496.064 194.751 490.371 199.144 486.221 204.925C477.353 217.279 475.23 235.866 477.191 250.588C480.793 252.102 486.133 253.794 489.955 252.242C491.465 251.628 492.52 250.438 493.095 248.922C494.344 245.632 493.798 241.229 493.947 237.718C494.456 225.666 503.303 216.384 513.73 211.261C515.796 210.246 519.618 208.79 521.887 209.787C522.022 209.846 522.139 209.94 522.265 210.016C521.167 212.909 513.333 215.454 510.465 217.124C508.558 218.234 506.793 219.679 505.1 221.087C505.912 226.762 506.827 232.428 507.098 238.161C507.387 244.225 507.896 250.457 507.552 256.519C507.284 261.246 506.375 265.915 506.238 270.649C505.967 280.05 506.418 289.544 506.516 298.951C506.573 304.319 506.1 310.166 506.792 315.445C506.811 318.823 505.864 331.251 507.902 333.189C510.57 335.727 517.776 335.747 521.355 335.483C523.965 335.291 528.168 334.745 529.948 332.517C532.34 329.525 530.971 320.131 531.029 316.237C531.141 296.097 531.039 275.956 530.722 255.818C530.554 243.493 530.696 231.003 529.7 218.718ZM423.511 305.817C404.729 303.666 383.485 303.158 364.941 306.825C349.71 309.836 334.94 317.447 320.659 323.496C304.333 330.41 287.636 336.939 272.006 345.353C264.608 349.262 257.58 353.837 251.012 359.021C240.466 367.373 232.385 377.831 230.792 391.572C230.149 397.125 230.435 404.383 234.076 408.847C243.617 420.546 263.735 429.907 277.672 435.95C297.295 444.458 318.001 450.429 338.319 457.011C375.918 469.191 414.09 481.348 452.834 489.316C468.043 492.424 483.286 495.391 498.707 497.238C566.501 504.933 635.157 497.917 699.993 476.669C722.741 469.41 758.222 455.61 775.661 439.083C782.391 432.706 787.19 425.257 791.428 417.069L792.612 413.476C793 411.594 793.355 409.705 793.679 407.811C795.527 397.078 792.941 386.055 786.513 377.264C780.155 368.631 770.821 363.194 760.902 359.525C738.034 351.066 713.236 347.773 689.219 344.39L642.514 337.632C606.09 332.265 569.831 325.842 533.434 320.28C533.678 323.073 533.893 325.869 534.078 328.666C540.414 330.258 547.083 330.997 553.538 332.02L587.14 337.388L684.416 352.917C701.236 355.717 718.168 358.337 734.85 361.879C750.65 365.233 769.617 370.087 778.866 384.653C781.987 389.57 783.356 395.06 782.076 400.798L780.679 405.11C767.053 432.948 725.107 449.663 697.19 459.217C626.16 483.526 548.507 487.422 474.755 475.003C463.76 473.152 452.754 471.312 441.937 468.575C435.273 467.606 428.295 465.276 421.758 463.603C403.82 459.012 386.167 453.919 368.458 448.527C346.275 442.001 324.214 435.069 302.284 427.737C289.964 423.499 277.58 419.195 265.813 413.566C260.514 411.032 255.438 407.897 251.394 403.579C247.437 399.355 245.31 394.313 245.628 388.476C246.218 377.63 253.909 368.609 261.784 361.872C286.951 340.339 349.088 316.571 382.096 312.599C397.562 310.738 412.591 311.846 428.027 313.052C453.425 316.134 478.544 321.309 503.927 324.568L503.923 316.136C494.15 315.224 484.287 313.273 474.552 311.915C457.579 309.556 440.562 307.523 423.511 305.817ZM434.01 316.847C387.777 309.741 351.338 319.537 309.227 338.162C295.863 344.073 282.253 350.277 270.391 358.924C261.308 365.545 250.598 375.077 248.703 386.806C247.971 391.337 249.032 395.488 251.812 399.137C255.806 404.381 261.717 408.044 267.525 410.956C277.442 415.927 288.135 419.606 298.578 423.286C317.218 429.848 336.036 435.891 355.011 441.407C381.417 449.318 407.746 457.671 434.7 463.558C459.901 470.926 486.145 474.434 512.215 476.98C534.803 478.383 557.24 479.808 579.897 478.694C635.204 475.972 715.108 458.744 760.342 424.986C768.694 418.752 778.645 409.455 779.974 398.502C780.648 392.947 778.562 387.963 775.143 383.673C768.813 375.732 759.348 371.645 749.915 368.642C734.639 363.78 718.328 361.511 702.546 358.868C681.166 355.237 659.754 351.79 638.314 348.529L582.83 339.668C569.03 337.367 555.168 334.695 541.261 333.172C540.511 334.788 541.697 337.336 541.51 339.217C541.254 341.805 538.823 344.848 536.833 346.36C529.854 351.663 516.733 351.015 508.537 349.746C503.449 348.957 497.685 347.02 494.632 342.591C493.187 340.493 492.655 337.961 493.222 335.47C494.166 331.328 497.271 328.854 500.695 326.74C478.293 324.822 456.381 318.997 434.01 316.847ZM460.377 493.701C450.448 491.582 440.48 489.75 430.617 487.322C398.074 479.313 365.79 469.065 333.941 458.629C315.813 452.689 297.705 447.082 279.925 440.125C271.737 436.922 264.062 432.564 255.943 429.263C264.816 451.143 277.691 486.125 293.867 503.168C299.98 509.608 307.213 514.297 315.356 517.777C342.105 529.207 370.032 538.613 397.251 548.876C405.054 551.818 413.32 554.208 420.928 557.565C420.016 549.563 413.039 512.169 414.334 508.023L415.331 507.538C416.49 508.264 416.766 508.859 417.084 510.204C418.051 514.295 418.139 518.824 418.772 522.999C420.556 534.767 422.489 546.569 423.655 558.417C443.353 565.467 462.373 571.626 483.228 574.12C489.074 575.179 495.469 575.363 501.409 575.669C532.97 577.298 563.61 573.811 594.503 567.472C601.611 566.014 608.888 564.775 615.877 562.821C648.852 555.793 685.706 551.7 714.783 533.233C719.313 530.356 723.594 527.06 726.927 522.816C737.9 508.848 751.209 473.616 755.076 456.382C717.972 475.125 678.327 488.341 637.398 495.609C624.88 497.547 612.356 499.616 599.747 500.868C552.322 505.578 507.098 502.528 460.377 493.701ZM501.624 224.794C496.511 231.475 495.999 238.967 496.851 247.009C498.596 248.361 500.313 249.609 502.221 250.722L504.019 251.841L504.508 251.5C505.399 246.324 505.261 229.885 502.241 225.429C501.997 225.07 501.912 225.026 501.624 224.794ZM472.864 248.262C470.678 250.383 468.08 254.07 468.121 257.29C468.152 259.714 469.278 261.693 471.117 263.226C476.195 267.459 485.006 268.131 491.364 267.362C495.119 266.907 498.627 265.917 501.9 263.971C503.213 262.521 504.478 261.036 504.385 258.948C504.299 257.046 502.872 255.404 501.419 254.312C499.793 253.091 497.939 252.076 496.148 251.114C493.692 254.271 491.054 255.446 487.095 255.965C483.281 256.464 478.95 255.973 475.831 253.536C474.71 252.661 474.429 251.746 474.009 250.48L473.681 249.518L473.449 248.8L472.864 248.262ZM503.285 328.957C500.46 330.43 496.75 332.762 495.701 336.006C495.246 337.415 495.566 338.95 496.352 340.173C498.837 344.038 504.32 345.767 508.623 346.55C516.88 348.052 527.862 348.215 535.233 343.713C536.644 342.202 538.403 340.547 538.443 338.313C538.472 336.728 537.33 333.45 536.07 332.385C535.547 331.943 535.438 331.937 534.879 331.698C533.437 333.042 532.692 334.995 531.334 336.421C528.559 339.335 521.475 339.713 517.564 339.599C513.54 339.481 508.092 338.926 505.219 335.806C503.708 334.165 503.693 332.284 503.552 330.186C503.498 329.384 503.558 329.712 503.285 328.957Z" fill="url(#paint0_linear_407_419)"/>
<path d="M477.191 250.588C475.23 235.866 477.353 217.279 486.221 204.925C490.371 199.144 496.064 194.751 503.276 193.745C509.117 192.882 515.053 194.502 519.646 198.213C526.308 203.574 528.874 210.489 529.7 218.718C529.607 219.307 529.569 220.752 529.307 221.216C527.702 224.058 522.552 227.235 519.908 229.16C515.708 232.259 511.437 235.26 507.098 238.161C506.827 232.428 505.912 226.762 505.1 221.087C506.793 219.679 508.558 218.234 510.465 217.124C513.333 215.454 521.167 212.909 522.265 210.016C522.139 209.94 522.022 209.846 521.887 209.787C519.618 208.79 515.796 210.246 513.73 211.261C503.303 216.384 494.456 225.666 493.947 237.718C493.798 241.229 494.344 245.632 493.095 248.922C492.52 250.438 491.465 251.628 489.955 252.242C486.133 253.794 480.793 252.102 477.191 250.588Z" fill="#FBF8CC"/>
<path d="M529.7 218.718C530.696 231.003 530.554 243.493 530.722 255.818C531.039 275.956 531.141 296.097 531.029 316.237C524.442 315.493 513.183 314.412 506.792 315.445C506.1 310.166 506.573 304.319 506.516 298.951C506.418 289.544 505.967 280.05 506.238 270.649C506.375 265.915 507.284 261.246 507.552 256.519C507.896 250.457 507.387 244.225 507.098 238.161C511.437 235.26 515.708 232.259 519.908 229.16C522.552 227.235 527.702 224.058 529.307 221.216C529.569 220.752 529.607 219.307 529.7 218.718Z" fill="#F9CBA1"/>
<path d="M496.851 247.009C495.999 238.967 496.511 231.475 501.624 224.794C501.912 225.026 501.997 225.07 502.241 225.429C505.261 229.885 505.399 246.324 504.508 251.5L504.019 251.841L502.221 250.722C500.313 249.609 498.596 248.361 496.851 247.009Z" fill="#FBF8CC"/>
<path d="M501.9 263.971C498.627 265.917 495.119 266.907 491.364 267.362C485.006 268.131 476.195 267.459 471.117 263.226C469.278 261.693 468.152 259.714 468.121 257.29C468.08 254.07 470.678 250.383 472.864 248.262L473.449 248.8L473.681 249.518L474.009 250.48C474.429 251.746 474.71 252.661 475.831 253.536C478.95 255.973 483.281 256.464 487.095 255.965C491.054 255.446 493.692 254.271 496.148 251.114C497.939 252.076 499.793 253.091 501.419 254.312C502.872 255.404 504.299 257.046 504.385 258.948C504.478 261.036 503.213 262.521 501.9 263.971Z" fill="#FBF8CC"/>
<path d="M475.862 269.32C485.144 272.019 494.661 270.898 503.332 266.787C503.476 282.238 503.947 297.762 503.657 313.207C489.392 310.878 475.084 308.818 460.74 307.027C451.082 305.857 441.135 305.238 431.561 303.665C433.86 299.963 461.083 279.2 466.513 275.27C469.506 273.104 472.711 271.242 475.862 269.32Z" fill="#F9CBA1"/>
<path d="M418.786 302.419C400.422 301.339 381.564 300.548 363.398 304.116C351.155 306.52 339.893 312.512 328.445 317.249C300.291 328.898 268.169 339.682 245.099 360.344C235.36 369.065 228.251 380.206 227.517 393.549C227.303 397.062 227.582 400.587 228.349 404.023C227.37 404.852 226.68 405.223 226.312 406.528C225.308 410.088 225.523 414.755 225.12 418.479C224.236 426.665 222.908 434.792 222.235 443.006C221.532 451.594 222.057 476.423 217.146 482.024C206.545 454.675 199.31 424.866 198.128 395.479C197.422 377.924 198.549 360.077 199.409 342.533C202.998 340.514 206.445 337.586 209.826 335.202C216.964 330.156 224.191 325.238 231.504 320.45C269.383 295.898 324.19 266.051 370.779 271.827C391.817 274.436 406.112 286.294 418.786 302.419Z" fill="#B9FBC0"/>
<path d="M452.834 489.316C414.09 481.348 375.918 469.191 338.319 457.011C318.001 450.429 297.295 444.458 277.672 435.95C263.735 429.907 243.617 420.546 234.076 408.847C230.435 404.383 230.149 397.125 230.792 391.572C232.385 377.831 240.466 367.373 251.012 359.021C257.58 353.837 264.608 349.262 272.006 345.353C287.636 336.939 304.333 330.41 320.659 323.496C334.94 317.447 349.71 309.836 364.941 306.825C383.485 303.158 404.729 303.666 423.511 305.817C424.749 307.916 427.636 310.805 428.027 313.052C412.591 311.846 397.562 310.738 382.096 312.599C349.088 316.571 286.951 340.339 261.784 361.872C253.909 368.609 246.218 377.63 245.628 388.476C245.31 394.313 247.437 399.355 251.394 403.579C255.438 407.897 260.514 411.032 265.813 413.566C277.58 419.195 289.964 423.499 302.284 427.737C324.214 435.069 346.275 442.001 368.458 448.527C386.167 453.919 403.82 459.012 421.758 463.603C428.295 465.276 435.273 467.606 441.937 468.575C441.448 469.357 440.755 469.901 441.003 470.854C442.736 477.496 449.945 483.081 452.834 489.316Z" fill="#B9FBC0"/>
<path d="M423.511 305.817C440.562 307.523 457.579 309.556 474.552 311.915C484.287 313.273 494.15 315.224 503.923 316.136L503.927 324.568C478.544 321.309 453.425 316.134 428.027 313.052C427.636 310.805 424.749 307.916 423.511 305.817Z" fill="#F1C0E8"/>
<path d="M434.7 463.558C407.746 457.671 381.417 449.318 355.011 441.407C336.036 435.891 317.218 429.848 298.578 423.286C288.135 419.606 277.442 415.927 267.525 410.956C261.717 408.044 255.806 404.381 251.812 399.137C249.032 395.488 247.971 391.337 248.703 386.806C250.598 375.077 261.308 365.545 270.391 358.924C282.253 350.277 295.863 344.073 309.227 338.162C351.338 319.537 387.777 309.741 434.01 316.847C434.199 317.735 434.39 318.283 435.013 318.971C442.556 327.296 458.661 339.162 463.477 349.25L421.512 342.271C410.226 340.374 397.303 336.709 385.913 337.661C382.929 337.91 380.015 338.824 377.256 339.959C371.806 342.199 366.518 345.09 361.229 347.701L333.203 361.456C321.641 367.083 306.615 372.614 296.336 379.81C292.672 382.374 289.137 386.095 288.365 390.67C287.807 393.981 288.963 397.147 290.998 399.742C294.113 403.716 299.446 406.355 303.94 408.438C319.971 415.87 337.866 420.777 354.813 425.767C372.894 431.09 391.091 436.442 409.406 440.886C428.779 445.588 448.527 449.709 468.089 453.55C481.963 456.274 495.983 457.89 509.915 460.203C509.45 461.727 509.108 463.165 508.839 464.737C507.164 465.285 505.511 465.581 503.746 465.501C496.212 465.161 488.327 462.818 480.903 461.36C463.251 457.893 445.794 454.312 428.311 450.011C425.469 449.312 419.975 446.306 417.496 446.651C418.162 452.878 431.259 458.526 434.283 462.917C434.428 463.127 434.561 463.344 434.7 463.558Z" fill="#B9FBC0"/>
<path d="M506.792 315.445C513.183 314.412 524.442 315.493 531.029 316.237C530.971 320.131 532.34 329.525 529.948 332.517C528.168 334.745 523.965 335.291 521.355 335.483C517.776 335.747 510.57 335.727 507.902 333.189C505.864 331.251 506.811 318.823 506.792 315.445Z" fill="#FBF8CC"/>
<path d="M434.01 316.847C456.381 318.997 478.293 324.822 500.695 326.74C497.271 328.854 494.166 331.328 493.222 335.47C492.655 337.961 493.187 340.493 494.632 342.591C497.685 347.02 503.449 348.957 508.537 349.746C516.733 351.015 529.854 351.663 536.833 346.36C538.823 344.848 541.254 341.805 541.51 339.217C541.697 337.336 540.511 334.788 541.261 333.172C555.168 334.695 569.03 337.367 582.83 339.668L638.314 348.529C659.754 351.79 681.166 355.237 702.546 358.868C718.328 361.511 734.639 363.78 749.915 368.642C759.348 371.645 768.813 375.732 775.143 383.673C778.562 387.963 780.648 392.947 779.974 398.502C778.645 409.455 768.694 418.752 760.342 424.986C715.108 458.744 635.204 475.972 579.897 478.694C557.24 479.808 534.803 478.383 512.215 476.98C512.633 473.071 510.371 468.294 508.839 464.737C509.108 463.165 509.45 461.727 509.915 460.203C579.735 469.58 647.844 463.554 709.593 427.04C717.67 422.264 737.499 410.585 739.444 401.629C739.888 399.582 739.327 397.816 738.097 396.16C736.013 393.354 732.5 391.96 729.213 391.166C709.121 386.31 687.88 385.061 667.475 381.64C599.577 370.258 531.321 360.987 463.477 349.25C458.661 339.162 442.556 327.296 435.013 318.971C434.39 318.283 434.199 317.735 434.01 316.847Z" fill="#F1C0E8"/>
<path d="M782.076 400.798C783.356 395.06 781.987 389.57 778.866 384.653C769.617 370.087 750.65 365.233 734.85 361.879C718.168 358.337 701.236 355.717 684.416 352.917L587.14 337.388L553.538 332.02C547.083 330.997 540.414 330.258 534.078 328.666C533.893 325.869 533.678 323.073 533.434 320.28C569.831 325.842 606.09 332.265 642.514 337.632L689.219 344.39C713.236 347.773 738.034 351.066 760.902 359.525C770.821 363.194 780.155 368.631 786.513 377.264C792.941 386.055 795.527 397.078 793.679 407.811C793.355 409.705 793 411.594 792.612 413.476C788.683 409.586 786.161 404.544 782.076 400.798Z" fill="url(#paint1_linear_407_419)"/>
<path d="M535.233 343.713C527.862 348.215 516.88 348.052 508.623 346.55C504.32 345.767 498.837 344.038 496.352 340.173C495.566 338.95 495.246 337.415 495.701 336.006C496.75 332.762 500.46 330.43 503.285 328.957C503.558 329.712 503.498 329.384 503.552 330.186C503.693 332.284 503.708 334.165 505.219 335.806C508.092 338.926 513.54 339.481 517.564 339.599C521.475 339.713 528.559 339.335 531.334 336.421C532.692 334.995 533.437 333.042 534.879 331.698C535.438 331.937 535.547 331.943 536.07 332.385C537.33 333.45 538.472 336.728 538.443 338.313C538.403 340.547 536.644 342.202 535.233 343.713Z" fill="#CFBAF0"/>
<path d="M509.915 460.203C495.983 457.89 481.963 456.274 468.089 453.55C448.527 449.709 428.779 445.588 409.406 440.886C391.091 436.442 372.894 431.09 354.813 425.767C337.866 420.777 319.971 415.87 303.94 408.438C299.446 406.355 294.113 403.716 290.998 399.742C288.963 397.147 287.807 393.981 288.365 390.67C289.137 386.095 292.672 382.374 296.336 379.81C306.615 372.614 321.641 367.083 333.203 361.456L361.229 347.701C366.518 345.09 371.806 342.199 377.256 339.959C380.015 338.824 382.929 337.91 385.913 337.661C397.303 336.709 410.226 340.374 421.512 342.271L463.477 349.25C531.321 360.987 599.577 370.258 667.475 381.64C687.88 385.061 709.121 386.31 729.213 391.166C732.5 391.96 736.013 393.354 738.097 396.16C739.327 397.816 739.888 399.582 739.444 401.629C737.499 410.585 717.67 422.264 709.593 427.04C647.844 463.554 579.735 469.58 509.915 460.203ZM468.367 353.237C451.729 350.159 435.044 347.341 418.318 344.784C407.692 343.096 395.568 339.783 384.845 340.855C382.038 341.136 379.016 342.494 376.434 343.618C360.85 350.399 345.619 358.606 330.302 366.025C320.653 370.698 306.215 376.442 297.839 382.258C295.046 384.198 291.93 387.13 291.26 390.608C290.809 393.078 291.41 395.625 292.918 397.634C305.876 414.93 437.759 444.508 465.125 449.994C479.814 452.938 494.804 455.472 509.683 457.29C577.3 466.528 640.512 461.533 701.356 428.228C709.551 423.742 734.499 409.758 736.551 401.398C736.874 400.082 736.645 398.891 735.853 397.786C733.823 394.956 729.306 394.142 726.105 393.454C713.84 390.819 701.136 389.622 688.717 387.768L631.057 378.755L468.367 353.237Z" fill="#392C2A"/>
<path d="M468.367 353.237L467.842 354.203C471.114 360.514 475.711 365.908 478.902 372.378C483.531 381.763 486.919 391.771 490.65 401.537C497.712 420.02 504.594 438.129 509.683 457.29C494.804 455.472 479.814 452.938 465.125 449.994C437.759 444.508 305.876 414.93 292.918 397.634C291.41 395.625 290.809 393.078 291.26 390.608C291.93 387.13 295.046 384.198 297.839 382.258C306.215 376.442 320.653 370.698 330.302 366.025C345.619 358.606 360.85 350.399 376.434 343.618C379.016 342.494 382.038 341.136 384.845 340.855C395.568 339.783 407.692 343.096 418.318 344.784C435.044 347.341 451.729 350.159 468.367 353.237Z" fill="#B9FBC0"/>
<path d="M98.3354 414.983C106.25 407.171 115.834 400.615 124.794 394.052C141.538 381.974 158.404 370.067 175.39 358.332C180.515 354.759 191.626 345.908 196.429 344.092C195.832 363.781 194.664 385.41 196.067 404.918C197.466 424.358 201.868 444.563 207.627 463.168C210.196 471.469 213.26 479.703 216.559 487.742C218.234 491.821 220.636 496.186 221.798 500.404C220.706 501.348 220.219 501.696 220.212 503.205C220.188 508.848 221.545 515.025 222.097 520.688C223 529.957 223.407 539.326 224.387 548.565C224.891 553.321 226.167 558.215 225.884 562.996C179.742 542.377 133.58 498.274 113.404 451.77C110.274 444.555 102.701 419.735 98.7876 415.886L98.3354 414.983Z" fill="#B9FBC0"/>
<path d="M509.683 457.29C504.594 438.129 497.712 420.02 490.65 401.537C486.919 391.771 483.531 381.763 478.902 372.378C475.711 365.908 471.114 360.514 467.842 354.203L468.367 353.237L631.057 378.755L688.717 387.768C701.136 389.622 713.84 390.819 726.105 393.454C729.306 394.142 733.823 394.956 735.853 397.786C736.645 398.891 736.874 400.082 736.551 401.398C734.499 409.758 709.551 423.742 701.356 428.228C640.512 461.533 577.3 466.528 509.683 457.29Z" fill="#F1C0E8"/>
<path d="M790.119 378.094C798.007 377.507 825.29 392.342 833.118 397.118C837.312 399.676 842.322 404.307 846.938 405.747C855.716 413.149 863.781 423.331 873.823 428.918C880.996 436.379 889.014 442.958 895.913 450.7L895.922 451.146C889.933 457.711 884.932 465.406 879.479 472.435C869.835 484.885 859.857 497.073 849.557 508.986C846.369 512.716 842.927 518.102 839.056 521.049C838.686 514.702 838.211 508.407 836.908 502.17C831.252 475.102 814.003 433.906 794.822 413.539C795.093 412.96 795.288 412.302 795.47 411.692C798.999 399.858 795.859 388.605 790.119 378.094Z" fill="#CFBAF0"/>
<path d="M782.076 400.798C786.161 404.544 788.683 409.586 792.612 413.476L791.428 417.069C789.037 414.068 785.693 407.918 782.408 406.181C781.209 405.547 782.362 406.348 781.148 405.467C780.989 405.352 780.835 405.229 780.679 405.11L782.076 400.798Z" fill="#FCFDFB"/>
<path d="M228.349 404.023C232.282 417.57 247.231 420.499 252.503 429.019C256.257 435.085 258.66 443.057 261.361 449.685C271.11 473.608 282.819 503.788 306.598 516.79C317.382 522.686 330.147 526.539 341.642 530.919L394.882 551.093C403.531 554.3 412.343 557.19 420.94 560.516C425.383 584.865 428.777 610.66 429.653 635.418C411.875 630.129 394.296 624.073 376.58 618.566C355.231 612.016 334.008 605.064 312.922 597.714C301.167 593.644 289.304 589.656 277.795 584.93C275.024 583.792 271.511 582.579 269.446 580.33C263.733 574.106 259.48 564.756 255.324 557.419C241.422 532.876 228.024 508.071 217.146 482.024C222.057 476.423 221.532 451.594 222.235 443.006C222.908 434.792 224.236 426.665 225.12 418.479C225.523 414.755 225.308 410.088 226.312 406.528C226.68 405.223 227.37 404.852 228.349 404.023Z" fill="#98F5E1"/>
<path d="M441.937 468.575C452.754 471.312 463.76 473.152 474.755 475.003C548.507 487.422 626.16 483.526 697.19 459.217C725.107 449.663 767.053 432.948 780.679 405.11C780.835 405.229 780.989 405.352 781.148 405.467C782.362 406.348 781.209 405.547 782.408 406.181C785.693 407.918 789.037 414.068 791.428 417.069C787.19 425.257 782.391 432.706 775.661 439.083C758.222 455.61 722.741 469.41 699.993 476.669C635.157 497.917 566.501 504.933 498.707 497.238C483.286 495.391 468.043 492.424 452.834 489.316C449.945 483.081 442.736 477.496 441.003 470.854C440.755 469.901 441.448 469.357 441.937 468.575Z" fill="#CFBAF0"/>
<path d="M794.18 415.803L794.822 413.539C814.003 433.906 831.252 475.102 836.908 502.17C838.211 508.407 838.686 514.702 839.056 521.049C838.908 541.299 834.754 561.174 819.825 575.801C813.554 581.941 805.708 586.229 797.154 588.191C786.561 591.093 775.505 592.141 765.153 595.938C752.012 600.758 740.452 608.64 727.888 614.597C719.721 618.47 711.197 621.635 702.921 625.27C690.501 630.725 678.433 636.89 665.773 641.809C653.125 646.723 639.896 650.187 626.833 653.788C621.372 655.071 615.859 656.365 610.322 657.285C606.45 657.928 602.302 658.152 598.512 659.059L598.538 656.101C605.915 655.525 613.32 653.579 620.538 651.973C626.173 651.415 632.05 649.508 637.498 647.993C647.407 645.237 657.269 642.213 666.799 638.321C678.437 633.569 689.687 627.774 701.178 622.673C710.247 618.646 719.627 615.37 728.533 610.964C739.571 605.503 749.654 598.765 761.183 594.191C772.704 589.619 785.235 587.965 797.258 585.108C804.903 582.887 811.461 579.601 817.374 574.191C830.716 561.985 835.395 543.347 836.098 525.842C836.405 524.848 836.428 523.867 836.461 522.837C837.406 493.776 818.557 453.071 803.002 428.732C800.276 424.465 797.63 419.515 794.18 415.803Z" fill="#FCFDFB"/>
<path d="M97.0039 416.136L98.3354 414.983L98.7876 415.886C98.5532 416.423 98.1672 416.917 98.0843 417.497C97.6504 420.532 106.238 441.524 107.891 445.777C124.38 488.191 158.811 525.744 196.809 550.053C203.686 554.453 211.014 558.115 218.261 561.853C221.278 563.41 224.672 564.826 227.48 566.716C227.409 584.109 230.94 602.098 233.612 619.26C243.267 681.286 256.111 743.483 283.433 800.466L282.52 800.48C234.665 801.097 198.111 785.806 164.171 752.451C148.54 737.088 134.685 720.171 121.714 702.534C85.1036 652.752 52.3277 590.424 51.8523 527.17C51.5986 493.418 62.2614 458.674 82.8535 431.771C87.1486 426.159 92.0557 421.16 97.0039 416.136Z" fill="#B9FBC0"/>
<path d="M758.609 454.376C774.829 444.935 787.249 433.608 794.18 415.803C797.63 419.515 800.276 424.465 803.002 428.732C818.557 453.071 837.406 493.776 836.461 522.837C836.428 523.867 836.405 524.848 836.098 525.842C833.604 528.103 831.438 530.65 829.026 532.993C818.387 543.327 808.072 553.967 797.477 564.339C797.462 571.204 797.781 578.274 797.258 585.108C785.235 587.965 772.704 589.619 761.183 594.191C749.654 598.765 739.571 605.503 728.533 610.964C719.627 615.37 710.247 618.646 701.178 622.673C689.687 627.774 678.437 633.569 666.799 638.321C657.269 642.213 647.407 645.237 637.498 647.993C632.05 649.508 626.173 651.415 620.538 651.973C617.8 649.734 614.059 648.053 611.064 646.087C606.807 643.293 602.84 640.074 598.512 637.391C598.444 621.032 599.088 604.501 603.246 588.589C605.047 581.695 608.305 571.844 614.309 567.4C615.961 566.178 617.909 565.348 619.873 564.776C624.601 563.4 629.696 562.73 634.535 561.742C646.857 559.225 659.304 556.915 671.47 553.719C686.076 549.882 700.98 544.741 713.994 537.025C719.416 533.811 724.585 530.095 728.603 525.186C740.571 510.566 753.812 472.819 758.609 454.376Z" fill="#CFBAF0"/>
<path d="M460.377 493.701C459.897 494.206 459.541 494.308 459.582 495.067C459.629 495.941 471.243 524.764 472.974 530.262C477.546 544.78 480.74 559.138 483.228 574.12C462.373 571.626 443.353 565.467 423.655 558.417C422.489 546.569 420.556 534.767 418.772 522.999C418.139 518.824 418.051 514.295 417.084 510.204C416.766 508.859 416.49 508.264 415.331 507.538L414.334 508.023C413.039 512.169 420.016 549.563 420.928 557.565C413.32 554.208 405.054 551.818 397.251 548.876C370.032 538.613 342.105 529.207 315.356 517.777C307.213 514.297 299.98 509.608 293.867 503.168C277.691 486.125 264.816 451.143 255.943 429.263C264.062 432.564 271.737 436.922 279.925 440.125C297.705 447.082 315.813 452.689 333.941 458.629C365.79 469.065 398.074 479.313 430.617 487.322C440.48 489.75 450.448 491.582 460.377 493.701Z" fill="#98F5E1"/>
<path d="M434.7 463.558C434.561 463.344 434.428 463.127 434.283 462.917C431.259 458.526 418.162 452.878 417.496 446.651C419.975 446.306 425.469 449.312 428.311 450.011C445.794 454.312 463.251 457.893 480.903 461.36C488.327 462.818 496.212 465.161 503.746 465.501C505.511 465.581 507.164 465.285 508.839 464.737C510.371 468.294 512.633 473.071 512.215 476.98C486.145 474.434 459.901 470.926 434.7 463.558Z" fill="#8EECF5"/>
<path d="M839.056 521.049C842.927 518.102 846.369 512.716 849.557 508.986C859.857 497.073 869.835 484.885 879.479 472.435C884.932 465.406 889.933 457.711 895.922 451.146C916.736 471.065 935.749 511.448 942.331 539.243C945.669 553.337 947.104 568.389 947.441 582.852C949.002 649.933 926.946 742.648 893.146 800.699C883.182 817.43 871.43 833.029 858.098 847.222C838.778 867.429 816.566 883.133 791.433 895.368C765.295 908.093 736.421 916.069 708.489 923.892C660.656 937.29 616.874 947.815 567.674 955.144C553.24 957.295 538.525 959.74 523.911 959.992C508.194 960.263 492.904 959.619 477.404 956.915C427.132 948.146 378.985 920.613 342.54 885.387C321.505 865.105 303.927 841.52 290.503 815.566C288.298 811.198 285.578 806.217 284.202 801.546C316.816 801.416 350.01 797.585 382.304 793.148C393.073 791.668 403.785 789.378 414.561 788.153C413.907 792.988 414.251 797.711 415.932 802.317C421.972 818.863 440.551 830.34 455.685 837.33C489.559 852.975 525.049 852.549 559.61 839.612C578.384 832.585 603.372 819.756 611.862 800.556C614.416 794.782 615.825 788.104 613.427 782.047C612.816 778.138 610.157 775.196 607.716 772.273C603.396 734.648 600.327 696.889 598.512 659.059C602.302 658.152 606.45 657.928 610.322 657.285C615.859 656.365 621.372 655.071 626.833 653.788C636.365 661.146 668.691 668.679 681.006 669.743C711.01 672.335 743.787 662.614 766.811 643.036C783.059 629.22 795.406 609.781 797.154 588.191C805.708 586.229 813.554 581.941 819.825 575.801C834.754 561.174 838.908 541.299 839.056 521.049ZM669.567 699.751C656.493 701.564 647.368 713.637 649.19 726.71C651.011 739.783 663.09 748.901 676.162 747.071C689.222 745.243 698.33 733.177 696.51 720.116C694.69 707.054 682.63 697.938 669.567 699.751ZM737.139 719.247C733.873 719.891 731.717 723.024 732.283 726.305C732.849 729.585 735.93 731.815 739.223 731.327C741.424 731 743.276 729.507 744.061 727.426C744.846 725.344 744.442 723 743.004 721.302C741.567 719.603 739.322 718.817 737.139 719.247ZM714.512 766.5C712.616 767.79 711.438 768.798 711 771.132C710.659 772.952 711.025 774.871 712.173 776.346C713.182 777.641 714.69 778.643 716.34 778.836C717.489 778.971 718.558 778.821 719.685 778.586C721.524 777.263 723.094 776.122 723.456 773.725C723.707 772.065 723.108 770.493 722.028 769.242C720.451 767.415 718.488 766.574 716.108 766.499C715.576 766.479 715.044 766.479 714.512 766.5Z" fill="#90DBF4"/>
<path d="M637.398 495.609C678.327 488.341 717.972 475.125 755.076 456.382C751.209 473.616 737.9 508.848 726.927 522.816C723.594 527.06 719.313 530.356 714.783 533.233C685.706 551.7 648.852 555.793 615.877 562.821C625.623 540.968 631.246 518.612 637.398 495.609Z" fill="#F1C0E8"/>
<path d="M483.228 574.12C480.74 559.138 477.546 544.78 472.974 530.262C471.243 524.764 459.629 495.941 459.582 495.067C459.541 494.308 459.897 494.206 460.377 493.701C507.098 502.528 552.322 505.578 599.747 500.868C612.356 499.616 624.88 497.547 637.398 495.609C631.246 518.612 625.623 540.968 615.877 562.821C608.888 564.775 601.611 566.014 594.503 567.472C563.61 573.811 532.97 577.298 501.409 575.669C495.469 575.363 489.074 575.179 483.228 574.12ZM564.451 520.566C563.331 524.608 562.674 558.021 564.268 561.779L565.86 562.822C567.207 559.424 567.029 526.083 566.327 521.372C565.687 521.045 565.143 520.777 564.451 520.566Z" fill="#8EECF5"/>
<path d="M225.884 562.996C226.167 558.215 224.891 553.321 224.387 548.565C223.407 539.326 223 529.957 222.097 520.688C221.545 515.025 220.188 508.848 220.212 503.205C220.219 501.696 220.706 501.348 221.798 500.404C231.448 519.022 241.066 537.617 251.465 555.83C256.275 564.254 260.909 572.89 266.636 580.737C252.941 575.278 239.067 569.603 225.884 562.996Z" fill="#98F5E1"/>
<path d="M565.86 562.822L564.268 561.779C562.674 558.021 563.331 524.608 564.451 520.566C565.143 520.777 565.687 521.045 566.327 521.372C567.029 526.083 567.207 559.424 565.86 562.822Z" fill="#392C2A"/>
<path d="M797.477 564.339C808.072 553.967 818.387 543.327 829.026 532.993C831.438 530.65 833.604 528.103 836.098 525.842C835.395 543.347 830.716 561.985 817.374 574.191C811.461 579.601 804.903 582.887 797.258 585.108C797.781 578.274 797.462 571.204 797.477 564.339Z" fill="#90DBF4"/>
<path d="M484.902 577.266C483.755 579.908 487.482 600.516 487.849 605.995C488.863 621.148 489.737 636.999 487.993 652.129C478.845 649.924 469.742 647.747 460.691 645.154C452.696 642.864 444.746 640.158 436.693 638.104C435.399 637.774 434.25 637.289 432.993 637.781L432.553 639.494C432.559 632.998 431.847 626.404 431.303 619.933C429.665 600.463 426.768 581.196 424.31 561.825C438.414 567.196 453.489 572.193 468.358 574.972C473.828 575.995 479.401 576.44 484.902 577.266Z" fill="#98F5E1"/>
<path d="M227.48 566.716C233.099 569.287 266.762 583.493 268.627 585.196C274.295 590.372 280.2 601.795 284.736 608.519C293.122 621.098 300.991 634.015 308.324 647.238C318.354 665.171 328.076 684.457 341.556 700.067C353.904 714.364 370.017 726.237 386.807 734.834C398.483 740.813 411.141 746.75 424.571 745.216C424.154 753.296 423.356 766.35 420.689 773.858C418.852 779.03 415.584 782.5 414.561 788.153C403.785 789.378 393.073 791.668 382.304 793.148C350.01 797.585 316.816 801.416 284.202 801.546L283.433 800.466C256.111 743.483 243.267 681.286 233.612 619.26C230.94 602.098 227.409 584.109 227.48 566.716Z" fill="#98F5E1"/>
<path d="M487.993 652.129C489.737 636.999 488.863 621.148 487.849 605.995C487.482 600.516 483.755 579.908 484.902 577.266C502.257 578.433 519.935 579.3 537.326 578.306C562.087 576.891 586.198 572.039 610.405 566.966C596.381 585.361 595.429 615.497 595.459 637.94C595.467 644.065 595.226 650.483 596 656.563C559.649 660.771 523.923 658.815 487.993 652.129Z" fill="#8EECF5"/>
<path d="M429.634 636.048C430.46 640.692 430.145 645.974 430.233 650.707C430.511 675.517 429.391 700.323 426.876 725.006C426.216 731.312 425.998 738.207 424.623 744.371L424.521 743.206C424.339 742.987 424.226 742.68 423.973 742.548C423.399 742.249 419.962 742.52 419.024 742.473C415.162 742.277 411.331 741.674 407.596 740.674C396.205 737.672 385.188 731.337 375.421 724.89C367.876 719.91 360.304 714.702 353.648 708.558C330.327 687.03 317.308 656.433 301.377 629.547C292.479 614.531 281.67 600.682 272.887 585.678C283.145 590.147 293.575 594.016 304.132 597.709C313.062 600.833 426.013 638.03 429.262 637.579L429.634 636.048Z" fill="#98F5E1"/>
<path d="M626.833 653.788C639.896 650.187 653.125 646.723 665.773 641.809C678.433 636.89 690.501 630.725 702.921 625.27C711.197 621.635 719.721 618.47 727.888 614.597C740.452 608.64 752.012 600.758 765.153 595.938C775.505 592.141 786.561 591.093 797.154 588.191C795.406 609.781 783.059 629.22 766.811 643.036C743.787 662.614 711.01 672.335 681.006 669.743C668.691 668.679 636.365 661.146 626.833 653.788Z" fill="#CFBAF0"/>
<path d="M432.553 639.494L432.993 637.781C434.25 637.289 435.399 637.774 436.693 638.104C444.746 640.158 452.696 642.864 460.691 645.154C469.742 647.747 478.845 649.924 487.993 652.129C523.923 658.815 559.649 660.771 596 656.563L596.082 659.416C578.705 660.838 561.353 662.09 543.905 661.366C525.038 660.583 506.335 657.564 487.68 654.816C469.103 650.462 450.712 645.35 432.553 639.494Z" fill="#FCFDFB"/>
<path d="M598.512 637.391C602.84 640.074 606.807 643.293 611.064 646.087C614.059 648.053 617.8 649.734 620.538 651.973C613.32 653.579 605.915 655.525 598.538 656.101C598.723 649.887 598.527 643.611 598.512 637.391Z" fill="#8EECF5"/>
<path d="M432.553 639.494C450.712 645.35 469.103 650.462 487.68 654.816C482.329 682.399 473.945 724.238 449.415 741.043C442.384 745.861 435.133 746.464 427.174 748.518C428.412 742.76 428.641 736.309 429.277 730.413C431.558 709.009 432.795 687.507 432.985 665.983C433.072 657.202 433.268 648.25 432.553 639.494Z" fill="#98F5E1"/>
<path d="M487.68 654.816C506.335 657.564 525.038 660.583 543.905 661.366C561.353 662.09 578.705 660.838 596.082 659.416C595.797 667.559 596.58 675.887 597.022 684.023C598.192 703.405 599.732 722.763 601.643 742.086C602.694 752.883 603.023 766.474 605.604 776.876C601.016 792.783 589.385 802.794 575.235 810.604C545.464 827.035 507.692 832.06 474.855 822.531C456.942 817.333 434.759 806.461 425.519 789.283C422.838 784.297 422.167 780.385 423.483 774.935C423.525 774.76 423.558 774.584 423.595 774.409C426.041 768.815 426.515 755.071 427.174 748.518C435.133 746.464 442.384 745.861 449.415 741.043C473.945 724.238 482.329 682.399 487.68 654.816Z" fill="#8EECF5"/>
<path d="M596.082 659.416L598.512 659.059C600.327 696.889 603.396 734.648 607.716 772.273C610.157 775.196 612.816 778.138 613.427 782.047L613.103 782.778C612.176 780.721 611.158 777.316 609.456 775.862L608.934 776.446L609.262 778.458L608.269 778.382C606.845 781.85 606.128 785.249 604.261 788.559C595.856 803.463 577.946 813.5 562.678 819.845C531.281 832.892 492.64 834.054 461.068 820.818C446.089 814.539 428.091 803.842 421.766 787.983C420.946 785.923 420.402 783.764 420.147 781.561L420.058 780.988C421.121 778.715 422.089 776.43 423.595 774.409C423.558 774.584 423.525 774.76 423.483 774.935C422.167 780.385 422.838 784.297 425.519 789.283C434.759 806.461 456.942 817.333 474.855 822.531C507.692 832.06 545.464 827.035 575.235 810.604C589.385 802.794 601.016 792.783 605.604 776.876C603.023 766.474 602.694 752.883 601.643 742.086C599.732 722.763 598.192 703.405 597.022 684.023C596.58 675.887 595.797 667.559 596.082 659.416Z" fill="#392C2A"/>
<path d="M676.162 747.071C663.09 748.901 651.011 739.783 649.19 726.71C647.368 713.637 656.493 701.564 669.567 699.751C682.63 697.938 694.69 707.054 696.51 720.116C698.33 733.177 689.222 745.243 676.162 747.071ZM670.512 702.531C659.008 703.828 650.734 714.208 652.036 725.712C653.338 737.216 663.721 745.485 675.225 744.179C686.722 742.873 694.985 732.497 693.684 721C692.383 709.502 682.01 701.235 670.512 702.531Z" fill="#FCFDFB"/>
<path d="M675.225 744.179C663.721 745.485 653.338 737.216 652.036 725.712C650.734 714.208 659.008 703.828 670.512 702.531C682.01 701.235 692.383 709.502 693.684 721C694.985 732.497 686.722 742.873 675.225 744.179Z" fill="#90DBF4"/>
<path d="M739.223 731.327C735.93 731.815 732.849 729.585 732.283 726.305C731.717 723.024 733.873 719.891 737.139 719.247C739.322 718.817 741.567 719.603 743.004 721.302C744.442 723 744.846 725.344 744.061 727.426C743.276 729.507 741.424 731 739.223 731.327Z" fill="#FCFDFB"/>
<path d="M719.685 778.586C718.558 778.821 717.489 778.971 716.34 778.836C714.69 778.643 713.182 777.641 712.173 776.346C711.025 774.871 710.659 772.952 711 771.132C711.438 768.798 712.616 767.79 714.512 766.5C715.044 766.479 715.576 766.479 716.108 766.499C718.488 766.574 720.451 767.415 722.028 769.242C723.108 770.493 723.707 772.065 723.456 773.725C723.094 776.122 721.524 777.263 719.685 778.586Z" fill="#FCFDFB"/>
<path d="M420.147 781.561C420.402 783.764 420.946 785.923 421.766 787.983C428.091 803.842 446.089 814.539 461.068 820.818C492.64 834.054 531.281 832.892 562.678 819.845C577.946 813.5 595.856 803.463 604.261 788.559C606.128 785.249 606.845 781.85 608.269 778.382L609.262 778.458C611.983 785.969 612.865 791.898 609.312 799.436C600.318 818.517 574.741 831.206 555.953 837.831C520.691 850.267 488.134 849.599 454.065 833.245C440.476 826.722 423.531 815.709 418.467 800.608C416.211 793.88 417.113 787.81 420.147 781.561Z" fill="#8EECF5"/>
<path d="M216.275 871.465C210.547 871.668 205.879 871.349 200.815 868.245C195.417 864.935 190.983 859.544 189.588 853.286C188.477 848.435 189.372 843.34 192.07 839.156C195.363 834.156 200.474 831.785 206.144 830.623C210.986 830.387 215.144 831.102 219.43 833.477C225.302 836.731 230.518 842.559 232.23 849.111C233.486 853.735 232.72 858.674 230.125 862.701C226.879 867.772 221.996 870.277 216.275 871.465ZM205.25 833.576C200.404 835.255 196.354 837.242 193.906 842.067C191.921 845.981 191.843 850.445 193.231 854.566C195.15 860.092 199.205 864.617 204.488 867.128C208.557 869.049 212.609 869.332 216.982 868.449C221.506 867.106 225.739 864.327 228.05 860.1C229.961 856.605 230.334 852.661 229.086 848.874C227.169 843.055 222.028 837.839 216.502 835.331C212.723 833.616 209.297 833.416 205.25 833.576Z" fill="#FCFDFB"/>
<path d="M216.982 868.449C212.609 869.332 208.557 869.049 204.488 867.128C199.205 864.617 195.15 860.092 193.231 854.566C191.843 850.445 191.921 845.981 193.906 842.067C196.354 837.242 200.404 835.255 205.25 833.576C209.297 833.416 212.723 833.616 216.502 835.331C222.028 837.839 227.169 843.055 229.086 848.874C230.334 852.661 229.961 856.605 228.05 860.1C225.739 864.327 221.506 867.106 216.982 868.449Z" fill="#FDE4CF"/>
<defs>
<linearGradient id="paint0_linear_407_419" x1="481.651" y1="194.322" x2="577.559" y2="839.559" gradientUnits="userSpaceOnUse">
<stop stop-color="#353329"/>
<stop offset="1" stop-color="#462E2E"/>
</linearGradient>
<linearGradient id="paint1_linear_407_419" x1="659.452" y1="388.288" x2="667.628" y2="340.75" gradientUnits="userSpaceOnUse">
<stop stop-color="#EFB5F3"/>
<stop offset="1" stop-color="#DBCBFF"/>
</linearGradient>
</defs>
</svg>
