<svg width="1024" height="1024" viewBox="0 0 1024 1024" fill="none" xmlns="http://www.w3.org/2000/svg">
<path d="M876.365 359.329C870.712 351.292 864.204 344.101 856.514 337.969C856.039 328.522 851.656 320.634 844.683 314.364C826.701 298.194 803.658 298.819 781.15 296.183C771.783 295.087 762.508 293.232 753.279 291.324C729.135 286.419 705.475 279.374 682.579 270.275C661.948 262.212 642.235 252.142 621.691 243.93C608.987 238.853 595.748 234.886 582.562 231.277C567.681 227.204 552.498 223.942 536.963 224.906C527.983 225.463 519.322 227.761 510.867 230.74C483.629 240.338 467.801 254.107 443.407 266.945C428.639 274.716 413.039 280.267 398.726 289.009C385.685 296.975 374.126 307.285 360.327 314.091C353.009 317.701 345.282 318.768 337.506 320.88C327.826 323.519 318.488 327.284 309.684 332.097C302.247 336.266 295.103 340.94 288.304 346.084C281.699 351.023 275.32 356.511 267.892 360.194C259.058 364.574 249.527 367.38 240.22 370.563C231.279 373.621 222.566 377.249 213.827 380.833C207.175 383.561 200.331 386.117 194.084 389.705C185.958 394.373 180.987 401.105 174.031 407.009C167.633 412.44 160.789 416.858 155.234 423.266C144.539 435.604 139.528 451.016 139.449 467.191C137.818 465.405 119.256 456.115 115.268 453.697C108.086 449.349 101.43 444.187 95.4309 438.315C71.0816 414.786 59.7957 377.802 59.4054 344.671C58.8597 298.348 80.5985 253.709 109.543 218.578C115.364 211.513 121.975 204.825 128.377 198.273C147.615 178.58 168.891 162.357 191.364 146.646C246.797 107.894 312.354 78.7134 380.833 76.4243C409.3 75.4727 438.229 79.2953 465.818 86.1532C514.888 98.3507 557.267 120.093 608.452 125.773C642.405 129.541 676.418 123.205 709.808 117.515C725.957 114.763 742.453 111.72 758.874 111.598C800.443 111.289 839.325 126.326 868.87 155.848C895.139 182.098 912.012 222.639 911.945 259.653C911.892 288.598 904.059 315.922 889.514 340.878C885.8 347.249 881.611 354.104 876.365 359.329Z" fill="#FFCFD2"/>
<path d="M856.514 337.969C864.204 344.101 870.712 351.292 876.365 359.329C885.319 373.414 893.911 390.746 889.991 407.938C888.334 415.207 884.07 422.937 877.515 426.847C874.828 428.45 871.857 429.505 869.104 430.972C868.632 435.273 867.865 439.663 868.629 443.965C872.513 454.731 880.877 459.304 887.323 468.132C899.057 484.202 907.895 517.944 899.012 536.711C895.956 543.167 891.057 549.149 886.101 554.236C863.423 577.515 838.908 581.567 815.69 600.285C805.776 608.278 798.134 617.915 789.27 626.927C782.485 633.739 774.998 639.813 766.933 645.048C757.599 651.073 747.709 655.877 737.584 660.405C728.375 664.523 718.622 668.259 710.384 674.168C688.299 690.01 680.929 719.1 659.129 735.123C648.532 742.912 636.254 747.829 624.428 753.378C616.492 757.137 608.759 761.308 601.26 765.875C588.955 773.478 577.205 782.17 565.464 790.612C554.509 798.489 542.177 808.562 529.319 813.016C511.555 819.168 493.089 808.874 477.092 801.883C457.749 793.111 438.756 783.068 420.158 772.814C410.107 767.246 400.106 761.431 389.786 756.381C371.325 747.346 351.942 739.548 332.919 731.746C320.131 726.502 306.813 722.681 294.317 716.711C286.358 712.908 278.282 708.432 271.054 703.382C265.339 699.389 259.974 694.94 254.139 691.106C244.962 685.078 234.988 680.472 225.628 674.783C221.076 672.017 217.143 668.289 212.597 665.46C201.094 658.3 188.092 654.126 177.715 645.092C164.872 633.91 152.045 615.985 144.285 600.771C135.213 582.988 130.166 561.866 136.671 542.427C141.483 528.048 148.274 521.41 161.503 514.8L156.112 508.822C145.422 496.312 140.088 483.62 139.449 467.191C139.528 451.016 144.539 435.604 155.234 423.266C160.789 416.858 167.633 412.44 174.031 407.009C180.987 401.105 185.958 394.373 194.084 389.705C200.331 386.117 207.175 383.561 213.827 380.833C222.566 377.249 231.279 373.621 240.22 370.563C249.527 367.38 259.058 364.574 267.892 360.194C275.32 356.511 281.699 351.023 288.304 346.084C295.103 340.94 302.247 336.266 309.684 332.097C318.488 327.284 327.826 323.519 337.506 320.88C345.282 318.768 353.009 317.701 360.327 314.091C374.126 307.285 385.685 296.975 398.726 289.009C413.039 280.267 428.639 274.716 443.407 266.945C467.801 254.107 483.629 240.338 510.867 230.74C519.322 227.761 527.983 225.463 536.963 224.906C552.498 223.942 567.681 227.204 582.562 231.277C595.748 234.886 608.987 238.853 621.691 243.93C642.235 252.142 661.948 262.212 682.579 270.275C705.475 279.374 729.135 286.419 753.279 291.324C762.508 293.232 771.783 295.087 781.15 296.183C803.658 298.819 826.701 298.194 844.683 314.364C851.656 320.634 856.039 328.522 856.514 337.969ZM162.278 503.394C156.812 492.926 153.767 482.638 157.461 470.948C159.249 465.291 162.886 460.208 168.234 457.445C176.004 453.431 185.525 455.534 193.36 458.241C203.193 461.638 212.698 466.132 222.17 470.406C234.769 476.092 247.461 481.651 259.693 488.103C289.447 503.796 318.312 521.7 349.351 534.838C344.444 521.718 346.274 509.12 352.015 496.545C354.732 490.594 358.179 485.014 361.527 479.405C343.984 468.451 325.985 457.959 306.647 450.469C288.682 443.51 269.732 439.517 251.185 434.448C233.902 429.724 216.224 425.278 199.37 419.167C191.146 416.185 183.382 412.348 175.32 409.03C157.633 421.563 146.096 433.853 142.282 456.112C139.384 473.021 143.669 488.565 153.61 502.334C159.063 509.887 165.607 517.814 173.109 523.382C187.681 534.2 223.457 545.204 241.972 551.715C240.009 550.278 237.995 548.541 235.905 547.328C226.915 538.866 211.026 530.114 199.896 525.366C184.045 518.605 174.002 517.538 162.278 503.394ZM247.126 555.997C235.896 550.287 217.891 545.177 205.472 540.586C200.371 538.7 195.244 536.842 190.257 534.668C185.811 532.73 181.456 530.442 176.908 528.765C181.384 538.5 188.212 544.904 198.293 548.575C206.404 551.53 215.083 552.765 223.302 555.419C231.521 558.073 239.275 561.941 247.415 564.726C255.424 569.188 264.165 572.463 272.246 576.934C281.114 581.84 289.245 587.723 297.696 593.281C306.733 599.224 316.036 604.932 324.764 611.323C338.354 621.275 351.698 631.829 363.937 643.419C371.29 650.382 377.686 658.263 384.932 665.322C398.792 678.824 418.039 688.326 436.798 692.876C443.896 694.598 451.529 694.254 457.845 690.24C464.594 685.95 468.112 678.273 469.795 670.722C475.003 647.352 464.663 622.159 452.086 602.747C444.156 590.506 433.697 580.601 421.436 572.767C408.848 564.723 394.573 559.116 381.093 552.732C370.951 547.928 361.05 542.708 350.976 537.781C341.075 532.939 331.012 528.427 321.121 523.55C301.266 513.759 282.297 502.338 262.745 491.969C248.406 484.364 233.715 477.739 218.929 471.061C208.281 466.252 196.9 460.323 185.408 457.971C180.385 456.943 173.771 456.449 169.34 459.411C169.819 459.767 170.219 460.045 170.659 460.463C172.976 462.66 171.855 467.202 172.021 470.128C172.277 470.564 172.442 471.07 172.791 471.436C176.551 475.379 231.875 485.46 240.801 487.988C244.645 489.076 247.921 490.466 251.411 492.414C246.807 492.295 241.677 490.286 237.133 489.311C220.786 485.801 204.743 482.417 188.586 478.059C182.523 476.424 175.937 475.172 170.351 472.25C169.337 474.365 168.288 476.481 167.744 478.776C166.942 482.163 167.261 485.631 169.209 488.577C176.655 499.842 206.727 500.327 219.669 502.926C229.594 504.92 239.373 508.455 248.911 511.808C267.371 518.297 285.454 525.594 303.584 532.938C318.583 539.014 334.17 543.388 349.105 549.526C377.172 561.06 424.138 586.796 441.173 612.679C449.987 626.07 457.312 642.654 453.868 659.009C452.619 664.943 449.45 670.969 444.184 674.232C439.323 677.244 433.272 677.716 427.796 676.385C416.205 673.569 380.813 648.137 374.785 638.225L375.106 637.867C378.635 638.812 384.593 645.668 387.825 648.383C396.822 655.939 406.802 663.489 416.913 669.48C423.568 673.424 431.193 676.615 439.023 674.397C443.818 673.039 447.332 669.853 449.601 665.468C454.209 656.562 453.38 644.872 450.332 635.606C446.807 624.891 440.668 613.66 433.176 605.196C414.9 584.552 373.432 561.621 348.246 551.389C334.278 545.715 319.754 541.573 305.714 536.096C279.438 525.847 253.819 514.461 226.632 506.664C211.427 502.303 187.719 502.535 174.984 495.874C153.7 484.742 174.062 470.94 170.241 463.368C169.798 462.489 169.543 462.201 168.594 461.971C167.147 461.622 166.279 461.811 165.015 462.587C161.489 464.748 159.636 471.258 158.858 475.161C156.434 487.321 160.123 499.234 168.926 507.966C179.148 518.107 198.289 521.701 211.505 528.877C227.903 537.78 243.263 550.756 259.706 560.565C278.505 571.78 298.792 580.163 317.869 590.872C332.482 599.199 346.146 609.089 358.621 620.369C363.481 624.696 369.419 629.343 373.061 634.737L372.755 635.26C372.308 635.211 371.833 635.276 371.413 635.114C370.085 634.604 364.95 628.951 363.654 627.728C356.458 620.848 348.878 614.382 340.95 608.359C321.012 593.427 298.603 583.369 276.541 572.112C266.583 567.032 257.062 561.123 247.126 555.997ZM526.938 784.137C531.832 775.152 531.116 763.873 528.267 754.369C524.249 740.965 517.745 727.624 510.521 715.673C507.971 717.419 505.446 719.218 502.816 720.842C504.873 718.273 506.925 716.344 509.606 714.397C505.028 707.084 499.897 700.108 494.906 693.073L489.425 694.898C493.221 700.184 496.979 705.222 499.606 711.218L498.994 711.676L499.63 711.365L499.75 712.373C496.214 710.469 490.081 699.242 487.328 695.514C480.838 697.109 474.533 698.493 467.858 699.103C495.761 713.135 506.484 716.97 516.963 748.843C519.301 755.953 521.113 764.998 517.718 772.05C516.478 774.625 513.619 776.851 511 777.881C504.503 780.437 490.877 776.511 485.231 773.255C484.421 772.788 483.929 772.262 483.411 771.478L483.435 770.383C484.378 769.936 483.956 769.92 484.868 770.251C485.775 770.58 486.502 771.078 487.311 771.59C493.123 775.263 502.284 777.836 509.035 776.193C512.009 775.469 514.612 773.833 516.095 771.096C519.342 765.107 516.926 755.494 514.896 749.418C505.088 720.074 495.372 714.347 468.831 701.514C462.712 698.555 456.699 699.183 450.229 698.073C432.99 695.116 415.457 689.198 400.526 680.019C383.674 669.659 372.569 654 358.219 640.828C339.519 623.663 319.057 609.703 297.893 595.843C283.085 586.146 271.202 578.036 255.042 570.399C245.006 565.656 234.501 561.159 223.95 557.692C207.229 552.197 184.825 551.407 177.364 532.276C176.891 531.062 176.737 528.01 175.705 527.528C173.775 526.625 171.48 527.607 169.66 528.372C159.702 532.557 152.561 539.642 148.727 549.772C144.259 561.575 147.854 571.213 152.838 582.093C166.354 611.599 182.039 626.899 212.381 638.033C229.215 644.211 246.537 648.51 263.262 655.183C283.295 663.175 303.387 672.002 322.803 681.402C332.115 685.91 341.125 691.072 350.51 695.414C376.716 707.537 404.481 716.286 429.918 730.05C440.154 735.589 449.401 742.48 458.962 749.063C461.309 750.68 469.806 755.508 470.844 757.528C470.207 757.922 469.994 758.316 469.221 758.079C464.292 756.566 442.059 739.666 435.7 735.7C426.96 730.247 417.459 725.766 408.018 721.672C389.217 713.519 369.918 706.48 351.3 697.926C340.274 692.861 329.675 686.941 318.759 681.654C302.865 673.956 286.335 666.793 269.997 660.077C260.461 656.158 250.819 652.323 241.014 649.126C222.116 642.966 203.359 638.387 186.338 627.642C171.068 618.001 159.499 601.021 152.006 584.922C146.538 573.175 141.997 562.45 146.694 549.596C149.452 542.049 155.541 532.911 163.002 529.343C166.247 527.792 169.827 526.974 173.182 525.697C169.717 522.541 166.218 519.422 162.685 516.341C149.871 522.623 143.197 528.896 138.534 542.704C132.251 561.304 136.951 581.394 145.472 598.494C153.282 614.168 166.078 632.355 179.283 643.859C189.26 652.551 202.15 656.472 213.199 663.407C217.893 666.354 221.991 670.2 226.734 673.074C235.503 678.389 244.938 682.612 253.523 688.248C259.953 692.47 265.868 697.417 272.206 701.767C279.995 707.113 288.501 711.76 297.048 715.787C308.468 721.168 320.661 724.737 332.42 729.287C351.151 736.534 370.135 744.829 388.289 753.417C402.777 760.27 416.662 768.729 430.733 776.415C447.516 785.383 464.554 793.863 481.828 801.845C489.189 805.228 496.757 808.675 504.583 810.826C515.118 813.722 525.559 813.62 535.22 808.074C544.87 802.533 551.523 793.733 554.368 783.012C561.567 755.878 548.127 723.418 534.414 700.089C527.332 705.872 520.812 710.776 512.5 714.743C514.259 717.692 515.961 720.675 517.604 723.689C526.585 740.397 536.776 762.117 530.657 781.293C529.181 785.922 526.386 790.027 521.908 792.167C514.504 795.706 506.22 792.551 498.98 790.173C487.884 786.586 477.164 781.924 466.975 776.251C456.567 770.377 446.942 763.288 437.027 756.642C427.575 750.333 417.836 744.463 407.843 739.052C381.749 725.071 352.922 717.156 326.157 704.577C301.497 692.987 278.931 677.139 253.909 666.232C241.828 660.966 195.894 648.307 190.204 639.873L190.482 639.253C194.19 639.804 204.406 646.595 209.043 648.403C226.748 655.308 244.943 659.813 262.23 667.995C285.08 678.811 306.115 693.166 329.082 703.679C357.172 716.537 386.677 725.253 413.942 740.054C433.827 750.849 451.31 765.482 471.164 776.25C480.262 781.183 489.702 784.773 499.444 788.17C505.29 790.065 512.491 792.882 518.698 791.202C522.611 790.142 524.94 787.518 526.938 784.137ZM538.315 226.704C522.461 228.099 492.424 237.44 479.465 247.497C504.98 247.137 529.251 251.248 553.935 257.405C569.521 261.292 585.125 265.834 600.89 268.931L621.618 273.89C627.29 271.404 632.928 268.766 638.678 266.469C643.68 264.47 649.029 262.798 653.857 260.458C623.151 246.212 571.967 224.107 538.315 226.704ZM481.33 249.223C479.438 249.313 477.075 249.225 475.362 250.1C465.214 255.287 456.055 262.364 445.891 267.682C430.8 275.578 414.767 281.497 400.153 290.294C385.874 298.889 373.909 310.148 358.311 316.653C368.567 315.651 378.826 314.768 389.142 315.032C424.625 315.938 468.507 327.008 501.868 338.815C507.484 340.704 513.114 342.541 518.614 344.75C527.474 337.898 535.306 329.764 544.015 322.706C566.597 304.406 592.651 287.802 618.909 275.315C606.927 272.101 594.727 269.671 582.692 266.636C547.389 257.734 518.287 249.652 481.33 249.223ZM656.315 261.561C645.651 265.558 634.928 269.428 624.801 274.686C650.884 281.153 676.835 288.142 702.637 295.651C750.592 309.749 799.037 325.65 827.88 369.827L830.232 373.632C841.424 365.518 851.645 356.458 853.975 342.094C855.179 334.673 853.293 327.505 848.836 321.489C839.563 308.974 823.105 303.086 808.26 300.965C798.318 299.545 788.247 299.136 778.294 297.762C755.43 294.439 732.862 289.325 710.799 282.468C700.78 279.311 690.886 275.77 681.139 271.852C675.943 269.726 660.623 262.277 656.315 261.561ZM620.999 276.446C583.778 294.165 551.105 318.183 520.575 345.633C538.833 350.462 557.073 359.007 573.79 367.743C614.834 389.193 648.097 412.291 671.913 453.127C678.164 463.844 684.369 475.081 689.133 486.547C697.335 481.661 705.104 476.422 712.286 470.103C730.561 454.615 746.29 436.419 764.109 420.45C778.689 407.384 795.076 396.991 811.494 386.459C817.294 382.738 822.912 378.666 828.784 375.077C800.482 327.996 751.811 312.408 702.328 297.763C677.977 290.674 653.507 283.997 628.93 277.735C626.328 277.092 623.694 276.404 620.999 276.446ZM373.968 317.294C357.421 318.261 341.219 320.659 325.681 326.667C312.816 331.641 301.023 339.205 289.983 347.389C283.196 352.42 276.561 357.865 269.051 361.789C261.494 365.739 253.248 368.246 245.204 371.006C234.791 374.58 224.622 378.532 214.424 382.678C207.232 385.601 199.813 388.314 193.216 392.466C188.25 395.591 183.883 399.458 179.999 403.848C178.963 405.025 177.944 406.217 176.941 407.423C187.687 412.353 198.284 416.934 209.529 420.606C227.729 426.55 246.441 431.321 264.966 436.133C277.41 439.366 289.824 442.354 301.954 446.673C313.436 450.847 324.587 455.878 335.314 461.725C344.691 466.649 353.735 472.22 362.72 477.822C397.897 426.485 431.181 405.354 481.216 370.978C493.06 362.841 505.18 354.982 516.518 346.145C506.491 341.735 495.688 338.703 485.212 335.531C451.907 325.443 409.084 314.073 373.968 317.294ZM856.546 340.705C852.744 357.634 844.649 365.399 830.941 375.515C843.394 398.381 848.158 416.847 848.382 443.04C851.176 440.852 853.945 438.615 856.841 436.565C871.139 425.944 885.476 425.532 888.451 404.553C890.892 387.342 881.707 369.477 871.59 356.213C867.236 350.442 862.183 345.232 856.546 340.705ZM519.264 346.92L466.235 383.733C444.948 398.432 423.053 412.926 404.363 430.92C389.309 445.414 376.566 461.668 364.267 478.502C383.072 490.931 401.5 503.949 420.352 516.291C457.733 540.763 490.578 555.339 510.58 599.108C515.039 596.427 519.583 593.829 523.922 590.958C534.801 583.861 544.803 576.055 554.16 567.027C560.392 561.014 566.067 554.444 572.168 548.301C579.808 540.607 588.437 533.363 597.372 527.212C610.633 518.082 626.32 513.373 641.171 507.524C656.858 501.347 672.232 494.953 687.332 487.425C664.169 436.146 641.804 409.887 593.708 381.269C574.229 369.506 553.709 359.56 532.407 351.556C528.057 349.915 523.619 348.538 519.264 346.92ZM828.972 376.938C818.117 385.43 805.864 392.252 794.335 399.788C785.695 405.436 777.453 411.96 769.497 418.526C742.384 440.903 721.134 470.78 690.063 488.166C694.818 500.793 698.686 513.958 701.895 527.06C703.217 532.458 704.817 543.87 706.799 548.232L707.298 548.417C744.715 533.801 778.601 511.403 806.712 482.707C819.415 469.855 831.607 455.214 846.13 444.42C846.144 423.712 843.406 405.338 834.333 386.481C833.018 383.747 831.452 379.373 829.359 377.193C829.252 377.081 829.101 377.023 828.972 376.938ZM866.366 432.411C860.823 436.056 847.207 445.519 842.745 449.844C843.535 454.25 844.335 462.076 847.322 465.639C854.268 460.39 861.343 454.502 869.492 451.234C866.987 446.46 865.182 442.153 866.385 436.66C866.669 435.36 867.522 433.459 866.366 432.411ZM840.775 451.389C833.108 458.682 825.569 466.109 818.162 473.665C812.333 479.667 806.74 485.971 800.669 491.727C773.587 516.908 742.02 536.784 707.607 550.321C711.142 556.9 714.54 563.395 717.237 570.376L718.884 574.238C740.251 563.793 762.152 552.773 779.955 536.711C790.373 527.312 799.552 516.435 808.681 505.81C819.096 493.687 832.839 477.113 845.137 467.218C843.227 461.955 841.613 456.93 840.775 451.389ZM869.683 452.885C862.071 457.404 854.66 462.24 847.741 467.779L848.182 468.539C852.14 475.289 857.322 481.269 861.216 488.031C874.645 511.354 876.875 538.787 871.172 564.7L874.282 562.338C886.294 552.19 898.892 540.488 900.342 523.963C901.999 505.082 895.496 480.453 883.091 465.915C880.873 463.316 872.462 453.588 869.683 452.885ZM845.852 469.37C822.625 489.643 805.447 515.706 783.007 536.622C764.578 553.798 741.743 565.09 719.467 576.319C726.975 603.586 733.726 634.119 728.495 662.391C732.565 660.613 736.747 658.953 740.733 656.998C757.519 649.008 772.82 640.341 786.215 627.163C797.577 615.986 806.918 604.144 820.003 594.634C835.266 583.541 853.827 577.891 868.706 566.557C875.707 542.433 872.546 513 860.522 490.961C858.86 487.914 848.008 471.054 845.852 469.37ZM363.197 480.462C354.185 495.753 345.015 511.727 349.861 530.05C350.358 531.93 351.102 533.719 351.843 535.513C352.025 535.639 352.206 535.768 352.389 535.893C360.527 541.422 370.345 545.331 379.301 549.361C416.957 566.305 439.399 574.86 460.474 613.301C470.253 612.772 479.178 611.354 488.607 608.59C495.523 606.146 502.144 603.593 508.641 600.139C501.164 585.13 492.186 571.409 480.024 559.709C461.381 541.774 436.522 529.267 414.929 515.051C397.699 503.708 380.992 490.851 363.197 480.462ZM687.363 489.442C672.029 497.587 655.733 503.984 639.561 510.26C625.289 515.799 610.956 520.529 598.178 529.211C582.453 539.894 570.632 553.634 557.23 566.847C544.059 579.832 527.993 592.134 511.571 600.683C518.204 616.704 521.936 633.479 523.831 650.685C524.252 654.382 524.483 658.097 524.524 661.818C524.546 664.17 523.441 670.025 524.286 671.834C525.382 671.172 526.261 670.535 527.216 669.665C540.47 659.228 554.705 650.14 568.21 640.037C612.097 607.204 655.925 574.136 704.882 549.064C701.716 534.807 694.608 501.622 688.252 489.844L687.363 489.442ZM705.021 550.999C653.254 577.27 606.498 613.856 560.099 648.409C547.16 658.045 532.37 666.502 520.803 677.792C525.583 683.791 530.176 689.937 534.575 696.22L535.251 696.855C539.661 695.491 552.091 684.706 557.031 681.53C575.902 669.397 596.402 660.39 614.161 646.406C630.331 633.673 643.278 617.229 659.984 605.31C677.317 592.943 697.576 584.583 716.774 575.553C714.597 568.98 709.881 555.823 705.021 550.999ZM716.644 577.453C699.077 586.267 680.512 593.741 664.19 604.788C646.807 616.554 633.339 633.205 617.058 646.437C599.427 660.765 579.111 670.229 559.908 682.094C551.724 687.15 544.47 693.932 536.22 698.755C549.966 722.416 563.71 755.23 556.562 782.755C555.602 786.45 554.276 789.917 552.631 793.358C551.196 795.691 549.808 797.978 548.039 800.082C567.116 787.931 584.565 773.462 604.025 761.792C621.126 751.537 647.052 743.241 661.104 731.127C667.964 725.213 673.287 717.811 678.276 710.314C687.562 696.359 697.027 680.567 711.287 671.155C716.003 668.041 721.13 665.736 726.228 663.335C730.839 639.92 726.96 614.169 721.191 591.223C720.094 586.86 719.255 582.092 717.417 577.996L716.644 577.453ZM509.03 601.989C494.475 610.19 478.156 614.757 461.458 615.304C470.639 635.328 477.784 656.013 469.757 677.875C467.333 684.48 463.135 690.04 456.571 692.98C454.739 693.801 449.096 694.525 448.169 695.655C449.411 695.974 450.625 696.228 451.889 696.442C475.054 699.33 498.401 692.724 516.619 678.128C518.347 676.768 519.944 675.315 521.497 673.762C524.806 655.448 519.927 632.408 514.484 614.734C513.376 611.134 512.074 606.072 509.934 602.98C509.532 602.4 509.48 602.391 509.03 601.989ZM519.172 678.92C512.08 683.956 504.954 688.438 497.016 692.056C501.775 699.198 506.843 706.187 511.444 713.421C519.443 708.946 526.357 704.252 533.474 698.461C530.56 693.924 523.119 681.77 519.172 678.92Z" fill="#020101"/>
<path d="M479.465 247.497C492.424 237.44 522.461 228.099 538.315 226.704C571.967 224.107 623.151 246.212 653.857 260.458C649.029 262.798 643.68 264.47 638.678 266.469C632.928 268.766 627.29 271.404 621.618 273.89L600.89 268.931C585.125 265.834 569.521 261.292 553.935 257.405C529.251 251.248 504.98 247.137 479.465 247.497ZM551.571 244.177C556.431 247.246 600.486 253.87 606.503 252.653C607.096 252.533 607.674 252.374 608.253 252.204L607.901 250.93C604.601 249.373 556.629 243.639 551.571 244.177Z" fill="#FFCFD2"/>
<path d="M608.253 252.204C607.674 252.374 607.096 252.533 606.503 252.653C600.486 253.87 556.431 247.246 551.571 244.177C556.629 243.639 604.601 249.373 607.901 250.93L608.253 252.204Z" fill="#E6DFD5"/>
<path d="M358.311 316.653C373.909 310.148 385.874 298.889 400.153 290.294C414.767 281.497 430.8 275.578 445.891 267.682C456.055 262.364 465.214 255.287 475.362 250.1C477.075 249.225 479.438 249.313 481.33 249.223C518.287 249.652 547.389 257.734 582.692 266.636C594.727 269.671 606.927 272.101 618.909 275.315C592.651 287.802 566.597 304.406 544.015 322.706C535.306 329.764 527.474 337.898 518.614 344.75C513.114 342.541 507.484 340.704 501.868 338.815C468.507 327.008 424.625 315.938 389.142 315.032C378.826 314.768 368.567 315.651 358.311 316.653ZM547.627 275.647C532.252 277.905 517.17 296.213 503.662 304.349C496.493 308.666 487.912 310.488 481.094 315.021C486.191 314.094 491.326 313.301 496.138 311.298C502.452 308.231 508.235 304.775 513.827 300.517C522.445 293.955 531.364 284.846 541.411 280.687C549.084 277.51 558.894 281.197 562.773 279.632L563.032 278.769C561.951 277.191 559.652 276.883 557.882 276.555C554.562 275.939 551.006 275.465 547.627 275.647ZM479.124 281.211C462.026 282.458 452.386 287.578 437.354 294.826C433.559 296.657 429.332 298.07 425.741 300.251L425.76 301.106C428.228 302.122 433.432 299.959 435.928 299.068C445.044 294.386 454.318 288.651 464.443 286.564C473.745 284.647 483.379 285.044 492.455 281.96C487.91 281.199 483.724 280.887 479.124 281.211Z" fill="#FFCFD2"/>
<path d="M624.801 274.686C634.928 269.428 645.651 265.558 656.315 261.561C660.623 262.277 675.943 269.726 681.139 271.852C690.886 275.77 700.78 279.311 710.799 282.468C732.862 289.325 755.43 294.439 778.294 297.762C788.247 299.136 798.318 299.545 808.26 300.965C823.105 303.086 839.563 308.974 848.836 321.489C853.293 327.505 855.179 334.673 853.975 342.094C851.645 356.458 841.424 365.518 830.232 373.632L827.88 369.827C799.037 325.65 750.592 309.749 702.637 295.651C676.835 288.142 650.884 281.153 624.801 274.686Z" fill="#B9FBC0"/>
<path d="M481.094 315.021C487.912 310.488 496.493 308.666 503.662 304.349C517.17 296.213 532.252 277.905 547.627 275.647C551.006 275.465 554.562 275.939 557.882 276.555C559.652 276.883 561.951 277.191 563.032 278.769L562.773 279.632C558.894 281.197 549.084 277.51 541.411 280.687C531.364 284.846 522.445 293.955 513.827 300.517C508.235 304.775 502.452 308.231 496.138 311.298C491.326 313.301 486.191 314.094 481.094 315.021Z" fill="#E6DFD5"/>
<path d="M520.575 345.633C551.105 318.183 583.778 294.165 620.999 276.446C623.694 276.404 626.328 277.092 628.93 277.735C653.507 283.997 677.977 290.674 702.328 297.763C751.811 312.408 800.482 327.996 828.784 375.077C822.912 378.666 817.294 382.738 811.494 386.459C795.076 396.991 778.689 407.384 764.109 420.45C746.29 436.419 730.561 454.615 712.286 470.103C705.104 476.422 697.335 481.661 689.133 486.547C684.369 475.081 678.164 463.844 671.913 453.127C648.097 412.291 614.834 389.193 573.79 367.743C557.073 359.007 538.833 350.462 520.575 345.633ZM655.169 326.966C638.597 338.669 620.632 341.086 600.717 339.647C598.335 339.475 593.833 338.404 591.797 339.254C592.603 340.087 593.333 340.579 594.344 341.14C613.724 344.719 637.892 342.845 654.335 331.059C655.198 330.44 655.86 329.836 656.562 329.047L656.661 328.039C656.141 327.536 655.88 327.168 655.169 326.966ZM720.994 339.866C712.16 346.542 702.205 353.96 691.617 357.41C688.046 358.573 674.086 360.165 672.939 361.027C673.377 362.088 673.332 361.917 674.196 362.48C691.846 362.82 708.09 354.951 720.894 343.036C721.402 342.563 721.779 342.065 722.139 341.475L721.866 340.327L720.994 339.866ZM787.767 355.522C776.685 358.354 768.815 365.03 763.009 374.855C761.751 376.983 760.399 379.587 760.025 382.047L760.459 382.868L761.479 382.57C765.684 376.574 769.359 369.799 775.003 365.006C778.473 362.058 787.546 359.747 789.543 356.778L789.341 355.917C788.838 355.775 788.287 355.559 787.767 355.522ZM751.99 388.455C733.118 398.527 717.913 415.41 696.09 419.147C691.997 419.848 688.073 419.78 683.96 419.999C683.257 420.036 683.456 420.056 682.693 420.475C683.204 421.086 683.356 421.24 684.105 421.599C699.98 423.742 710.993 418.544 724.166 410.263C730.58 406.283 736.802 402 742.808 397.428C745.355 395.493 751.673 391.435 752.644 388.701L751.99 388.455Z" fill="#B9FBC0"/>
<path d="M435.928 299.068C433.432 299.959 428.228 302.122 425.76 301.106L425.741 300.251C429.332 298.07 433.559 296.657 437.354 294.826C452.386 287.578 462.026 282.458 479.124 281.211C483.724 280.887 487.91 281.199 492.455 281.96C483.379 285.044 473.745 284.647 464.443 286.564C454.318 288.651 445.044 294.386 435.928 299.068Z" fill="#E6DFD5"/>
<path d="M176.941 407.423C177.944 406.217 178.963 405.025 179.999 403.848C183.883 399.458 188.25 395.591 193.216 392.466C199.813 388.314 207.232 385.601 214.424 382.678C224.622 378.532 234.791 374.58 245.204 371.006C253.248 368.246 261.494 365.739 269.051 361.789C276.561 357.865 283.196 352.42 289.983 347.389C301.023 339.205 312.816 331.641 325.681 326.667C341.219 320.659 357.421 318.261 373.968 317.294C409.084 314.073 451.907 325.443 485.212 335.531C495.688 338.703 506.491 341.735 516.518 346.145C505.18 354.982 493.06 362.841 481.216 370.978C431.181 405.354 397.897 426.485 362.72 477.822C353.735 472.22 344.691 466.649 335.314 461.725C324.587 455.878 313.436 450.847 301.954 446.673C289.824 442.354 277.41 439.366 264.966 436.133C246.441 431.321 227.729 426.55 209.529 420.606C198.284 416.934 187.687 412.353 176.941 407.423ZM390.96 354.191C386.267 354.771 381.747 355.706 377.217 357.074C371.311 358.857 351.423 366.645 347.467 371.328C346.878 372.025 347.035 371.71 347.046 372.652C351.273 373.976 361.279 367.452 365.347 365.516C376.198 360.706 387.149 356.603 399.226 357.415C404.819 357.791 410.51 358.811 416.11 358.365L416.982 358.301C417.157 358.287 417.331 358.267 417.505 358.251C409.301 354.885 399.852 352.881 390.96 354.191ZM327.299 399.201C307.956 401.134 289.044 410.891 275.981 425.329C281.893 422.907 287.021 419.181 292.259 415.582C306.248 406.564 319.258 402.821 335.924 402.775C341.056 402.761 346.774 403.315 351.785 402.35C343.822 399.173 335.821 398.527 327.299 399.201Z" fill="#CFBAF0"/>
<path d="M594.344 341.14C593.333 340.579 592.603 340.087 591.797 339.254C593.833 338.404 598.335 339.475 600.717 339.647C620.632 341.086 638.597 338.669 655.169 326.966C655.88 327.168 656.141 327.536 656.661 328.039L656.562 329.047C655.86 329.836 655.198 330.44 654.335 331.059C637.892 342.845 613.724 344.719 594.344 341.14Z" fill="#E6DFD5"/>
<path d="M674.196 362.48C673.332 361.917 673.377 362.088 672.939 361.027C674.086 360.165 688.046 358.573 691.617 357.41C702.205 353.96 712.16 346.542 720.994 339.866L721.866 340.327L722.139 341.475C721.779 342.065 721.402 342.563 720.894 343.036C708.09 354.951 691.846 362.82 674.196 362.48Z" fill="#E6DFD5"/>
<path d="M830.941 375.515C844.649 365.399 852.744 357.634 856.546 340.705C862.183 345.232 867.236 350.442 871.59 356.213C881.707 369.477 890.892 387.342 888.451 404.553C885.476 425.532 871.139 425.944 856.841 436.565C853.945 438.615 851.176 440.852 848.382 443.04C848.158 416.847 843.394 398.381 830.941 375.515ZM876.999 386.923C873.38 390.069 869.778 393.186 865.724 395.771C862.253 397.985 857.986 399.931 854.84 402.524C854.031 403.191 854.063 403.304 853.993 404.294C854.367 404.84 854.528 405.183 855.123 405.501C860.891 403.235 876.06 396.023 877.87 389.675C878.174 388.606 878.104 388.006 877.352 387.173C877.256 387.066 877.117 387.006 876.999 386.923ZM884.816 399.372C874.274 405.519 869.542 414.007 856.559 417.138C856.373 418.614 855.861 420.406 856.58 421.77L857.714 422.083C863.845 419.065 883.672 407.758 886.451 401.393L886.202 400.027C885.741 399.77 885.334 399.49 884.816 399.372Z" fill="#B9FBC0"/>
<path d="M364.267 478.502C376.566 461.668 389.309 445.414 404.363 430.92C423.053 412.926 444.948 398.432 466.235 383.733L519.264 346.92C523.619 348.538 528.057 349.915 532.407 351.556C553.709 359.56 574.229 369.506 593.708 381.269C641.804 409.887 664.169 436.146 687.332 487.425C672.232 494.953 656.858 501.347 641.171 507.524C626.32 513.373 610.633 518.082 597.372 527.212C588.437 533.363 579.808 540.607 572.168 548.301C566.067 554.444 560.392 561.014 554.16 567.027C544.803 576.055 534.801 583.861 523.922 590.958C519.583 593.829 515.039 596.427 510.58 599.108C490.578 555.339 457.733 540.763 420.352 516.291C401.5 503.949 383.072 490.931 364.267 478.502ZM552.756 397.717C550.327 397.844 547.6 397.709 545.323 398.618L545.093 399.359C548.667 401.376 564.117 401.493 569.393 402.411C574.64 403.323 579.609 404.865 584.667 406.48L585.292 406.68C586.587 407.086 587.641 407.563 589.002 407.2C588.93 406.029 588.671 405.609 587.814 404.845C581.525 399.235 561.092 397.294 552.756 397.717ZM497.297 412.707C494.959 412.854 492.529 412.777 490.398 413.835L489.941 414.8C490.839 415.789 492.14 415.779 493.448 415.856C497.949 416.12 502.591 415.715 507.056 416.383C516.769 417.835 525.517 422.12 534.893 424.626C536.693 425.057 537.714 424.963 539.5 424.511L539.97 423.849C536.102 419.021 512.204 413.41 505.695 412.684C502.978 412.381 500.013 412.373 497.297 412.707ZM583.94 443.555L582.687 444.839L582.994 445.47C588.547 447.095 594.199 448.598 599.661 450.511C606.612 452.945 614.114 456.896 621.461 457.648C622.232 456.625 622.867 456.294 622.691 454.968C619.562 453.437 616.035 452.684 612.762 451.479C603.005 447.887 594.691 443.223 583.94 443.555ZM482.565 449.126C467.281 452.065 460.298 461.33 451.86 473.745C447.873 479.61 435.063 498.549 435.625 504.762C435.99 505.396 436.19 505.767 436.759 506.243C440.325 502.526 442.355 496.837 444.957 492.393C450.44 483.031 456.515 473.242 463.445 464.904C467.187 460.402 471.249 456.53 476.365 453.623C478.636 452.333 481.397 451.461 483.282 449.636L483.014 449.163L482.565 449.126ZM547.769 473.205C537.348 474.266 525.503 477.941 518.807 486.557C518.421 487.053 518.269 487.405 518.176 488.021C520.213 488.523 523.121 486.77 524.842 485.712C535.194 479.353 538.192 476.977 550.677 476.897C558.339 477.884 566.166 480.686 572.612 485.029C574.556 486.339 576.322 488.746 578.836 488.059C579.274 486.895 579.367 486.57 578.856 485.335C577.043 480.947 562.73 475.449 558.037 474.286C554.73 473.468 551.175 472.913 547.769 473.205ZM525.258 521.969C519.096 525.554 496.703 542.783 494.616 549.746C494.996 550.87 495.039 550.931 496.004 551.621C496.429 551.507 496.986 551.415 497.376 551.218C503.952 544.23 510.88 536.659 518.316 530.607C520.927 528.481 524.476 527.422 526.974 525.257C527.912 524.444 527.939 524.029 527.969 522.911C526.877 522.003 526.695 522.066 525.258 521.969Z" fill="#8EECF5"/>
<path d="M365.347 365.516C361.279 367.452 351.273 373.976 347.046 372.652C347.035 371.71 346.878 372.025 347.467 371.328C351.423 366.645 371.311 358.857 377.217 357.074C381.747 355.706 386.267 354.771 390.96 354.191C399.852 352.881 409.301 354.885 417.505 358.251C417.331 358.267 417.157 358.287 416.982 358.301L416.11 358.365C410.51 358.811 404.819 357.791 399.226 357.415C387.149 356.603 376.198 360.706 365.347 365.516Z" fill="#E6DFD5"/>
<path d="M761.479 382.57L760.459 382.868L760.025 382.047C760.399 379.587 761.751 376.983 763.009 374.855C768.815 365.03 776.685 358.354 787.767 355.522C788.287 355.559 788.838 355.775 789.341 355.917L789.543 356.778C787.546 359.747 778.473 362.058 775.003 365.006C769.359 369.799 765.684 376.574 761.479 382.57Z" fill="#E6DFD5"/>
<path d="M690.063 488.166C721.134 470.78 742.384 440.903 769.497 418.526C777.453 411.96 785.695 405.436 794.335 399.788C805.864 392.252 818.117 385.43 828.972 376.938C829.101 377.023 829.252 377.081 829.359 377.193C831.452 379.373 833.018 383.747 834.333 386.481C843.406 405.338 846.144 423.712 846.13 444.42C831.607 455.214 819.415 469.855 806.712 482.707C778.601 511.403 744.715 533.801 707.298 548.417L706.799 548.232C704.817 543.87 703.217 532.458 701.895 527.06C698.686 513.958 694.818 500.793 690.063 488.166ZM832.49 423.957C809.348 433.71 791.56 455.018 774.696 472.948C767.696 480.341 760.503 487.549 753.125 494.564C749.21 498.243 731.581 512.223 730.329 514.253L731.176 514.614C737.983 511.441 743.574 506.683 749.257 501.857C769.11 484.998 784.631 464.585 803.988 447.47C808.555 443.432 813.379 439.605 818.254 435.947C822.561 432.717 830.291 429.335 833.205 424.934C832.789 424.063 833.081 424.342 832.49 423.957Z" fill="#B9FBC0"/>
<path d="M855.123 405.501C854.528 405.183 854.367 404.84 853.993 404.294C854.063 403.304 854.031 403.191 854.84 402.524C857.986 399.931 862.253 397.985 865.724 395.771C869.778 393.186 873.38 390.069 876.999 386.923C877.117 387.006 877.256 387.066 877.352 387.173C878.104 388.006 878.174 388.606 877.87 389.675C876.06 396.023 860.891 403.235 855.123 405.501Z" fill="#E6DFD5"/>
<path d="M684.105 421.599C683.356 421.24 683.204 421.086 682.693 420.475C683.456 420.056 683.257 420.036 683.96 419.999C688.073 419.78 691.997 419.848 696.09 419.147C717.913 415.41 733.118 398.527 751.99 388.455L752.644 388.701C751.673 391.435 745.355 395.493 742.808 397.428C736.802 402 730.58 406.283 724.166 410.263C710.993 418.544 699.98 423.742 684.105 421.599Z" fill="#E6DFD5"/>
<path d="M584.667 406.48C579.609 404.865 574.64 403.323 569.393 402.411C564.117 401.493 548.667 401.376 545.093 399.359L545.323 398.618C547.6 397.709 550.327 397.844 552.756 397.717C561.092 397.294 581.525 399.235 587.814 404.845C588.671 405.609 588.93 406.029 589.002 407.2C587.641 407.563 586.587 407.086 585.292 406.68L584.667 406.48Z" fill="#E6DFD5"/>
<path d="M275.981 425.329C289.044 410.891 307.956 401.134 327.299 399.201C335.821 398.527 343.822 399.173 351.785 402.35C346.774 403.315 341.056 402.761 335.924 402.775C319.258 402.821 306.248 406.564 292.259 415.582C287.021 419.181 281.893 422.907 275.981 425.329Z" fill="#E6DFD5"/>
<path d="M856.559 417.138C869.542 414.007 874.274 405.519 884.816 399.372C885.334 399.49 885.741 399.77 886.202 400.027L886.451 401.393C883.672 407.758 863.845 419.065 857.714 422.083L856.58 421.77C855.861 420.406 856.373 418.614 856.559 417.138Z" fill="#E6DFD5"/>
<path d="M162.278 503.394C162.563 506.499 165.962 509.5 168.308 511.463C171.723 514.367 175.528 516.778 179.613 518.625C188.341 522.626 207.865 527.83 214.264 533.806C215.356 534.826 215.927 536.166 216.513 537.512C218.212 538.508 219.789 537.437 221.202 538.092C226.071 540.348 230.545 546.436 235.905 547.328C237.995 548.541 240.009 550.278 241.972 551.715C223.457 545.204 187.681 534.2 173.109 523.382C165.607 517.814 159.063 509.887 153.61 502.334C143.669 488.565 139.384 473.021 142.282 456.112C146.096 433.853 157.633 421.563 175.32 409.03C183.382 412.348 191.146 416.185 199.37 419.167C216.224 425.278 233.902 429.724 251.185 434.448C269.732 439.517 288.682 443.51 306.647 450.469C325.985 457.959 343.984 468.451 361.527 479.405C358.179 485.014 354.732 490.594 352.015 496.545C346.274 509.12 344.444 521.718 349.351 534.838C318.312 521.7 289.447 503.796 259.693 488.103C247.461 481.651 234.769 476.092 222.17 470.406C212.698 466.132 203.193 461.638 193.36 458.241C185.525 455.534 176.004 453.431 168.234 457.445C162.886 460.208 159.249 465.291 157.461 470.948C153.767 482.638 156.812 492.926 162.278 503.394Z" fill="#CFBAF0"/>
<path d="M534.893 424.626C525.517 422.12 516.769 417.835 507.056 416.383C502.591 415.715 497.949 416.12 493.448 415.856C492.14 415.779 490.839 415.789 489.941 414.8L490.398 413.835C492.529 412.777 494.959 412.854 497.297 412.707C500.013 412.373 502.978 412.381 505.695 412.684C512.204 413.41 536.102 419.021 539.97 423.849L539.5 424.511C537.714 424.963 536.693 425.057 534.893 424.626Z" fill="#E6DFD5"/>
<path d="M731.176 514.614L730.329 514.253C731.581 512.223 749.21 498.243 753.125 494.564C760.503 487.549 767.696 480.341 774.696 472.948C791.56 455.018 809.348 433.71 832.49 423.957C833.081 424.342 832.789 424.063 833.205 424.934C830.291 429.335 822.561 432.717 818.254 435.947C813.379 439.605 808.555 443.432 803.988 447.47C784.631 464.585 769.11 484.998 749.257 501.857C743.574 506.683 737.983 511.441 731.176 514.614Z" fill="#E6DFD5"/>
<path d="M842.745 449.844C847.207 445.519 860.823 436.056 866.366 432.411C867.522 433.459 866.669 435.36 866.385 436.66C865.182 442.153 866.987 446.46 869.492 451.234C861.343 454.502 854.268 460.39 847.322 465.639C844.335 462.076 843.535 454.25 842.745 449.844Z" fill="#90DBF4"/>
<path d="M621.461 457.648C614.114 456.896 606.612 452.945 599.661 450.511C594.199 448.598 588.547 447.095 582.994 445.47L582.687 444.839L583.94 443.555C594.691 443.223 603.005 447.887 612.762 451.479C616.035 452.684 619.562 453.437 622.691 454.968C622.867 456.294 622.232 456.625 621.461 457.648Z" fill="#E6DFD5"/>
<path d="M868.629 443.965C878.229 446.581 887.636 450.041 897.021 453.333C921.194 461.814 954.92 473.48 968.398 496.807C976.551 510.917 975.379 530.264 971.178 545.433C966.032 564.01 956.763 580.919 946.46 597.099C938.938 608.913 929.489 619.246 920.798 630.186C914.098 638.62 907.739 647.334 901.175 655.876C893.544 665.807 885.718 675.574 878.381 685.729C859.025 712.518 842.49 741.198 823.825 768.424C808.252 791.627 790.442 813.248 770.651 832.978C753.021 850.739 732.742 866.105 712.514 880.765C704.158 886.821 695.94 893.159 687.388 898.932C676.663 906.025 665.65 912.672 654.378 918.857C612.462 942.388 561.344 956.747 513.844 943.322C476.783 932.847 453.46 908.141 435.375 875.422C429.748 865.242 422.413 848.34 420.852 836.996C439.511 832.023 453.04 820.882 467.68 809.028C470.752 806.541 474.041 804.372 477.092 801.883C493.089 808.874 511.555 819.168 529.319 813.016C542.177 808.562 554.509 798.489 565.464 790.612C577.205 782.17 588.955 773.478 601.26 765.875C608.759 761.308 616.492 757.137 624.428 753.378C636.254 747.829 648.532 742.912 659.129 735.123C680.929 719.1 688.299 690.01 710.384 674.168C718.622 668.259 728.375 664.523 737.584 660.405C747.709 655.877 757.599 651.073 766.933 645.048C774.998 639.813 782.485 633.739 789.27 626.927C798.134 617.915 805.776 608.278 815.69 600.285C838.908 581.567 863.423 577.515 886.101 554.236C891.057 549.149 895.956 543.167 899.012 536.711C907.895 517.944 899.057 484.202 887.323 468.132C880.877 459.304 872.513 454.731 868.629 443.965Z" fill="#98F5E1"/>
<path d="M436.759 506.243C436.19 505.767 435.99 505.396 435.625 504.762C435.063 498.549 447.873 479.61 451.86 473.745C460.298 461.33 467.281 452.065 482.565 449.126L483.014 449.163L483.282 449.636C481.397 451.461 478.636 452.333 476.365 453.623C471.249 456.53 467.187 460.402 463.445 464.904C456.515 473.242 450.44 483.031 444.957 492.393C442.355 496.837 440.325 502.526 436.759 506.243Z" fill="#E6DFD5"/>
<path d="M707.607 550.321C742.02 536.784 773.587 516.908 800.669 491.727C806.74 485.971 812.333 479.667 818.162 473.665C825.569 466.109 833.108 458.682 840.775 451.389C841.613 456.93 843.227 461.955 845.137 467.218C832.839 477.113 819.096 493.687 808.681 505.81C799.552 516.435 790.373 527.312 779.955 536.711C762.152 552.773 740.251 563.793 718.884 574.238L717.237 570.376C714.54 563.395 711.142 556.9 707.607 550.321Z" fill="#90DBF4"/>
<path d="M847.741 467.779C854.66 462.24 862.071 457.404 869.683 452.885C872.462 453.588 880.873 463.316 883.091 465.915C895.496 480.453 901.999 505.082 900.342 523.963C898.892 540.488 886.294 552.19 874.282 562.338L871.172 564.7C876.875 538.787 874.645 511.354 861.216 488.031C857.322 481.269 852.14 475.289 848.182 468.539L847.741 467.779Z" fill="#90DBF4"/>
<path d="M247.126 555.997C257.062 561.123 266.583 567.032 276.541 572.112C298.603 583.369 321.012 593.427 340.95 608.359C348.878 614.382 356.458 620.848 363.654 627.728C364.95 628.951 370.085 634.604 371.413 635.114C371.833 635.276 372.308 635.211 372.755 635.26L373.061 634.737C369.419 629.343 363.481 624.696 358.621 620.369C346.146 609.089 332.482 599.199 317.869 590.872C298.792 580.163 278.505 571.78 259.706 560.565C243.263 550.756 227.903 537.78 211.505 528.877C198.289 521.701 179.148 518.107 168.926 507.966C160.123 499.234 156.434 487.321 158.858 475.161C159.636 471.258 161.489 464.748 165.015 462.587C166.279 461.811 167.147 461.622 168.594 461.971C169.543 462.201 169.798 462.489 170.241 463.368C174.062 470.94 153.7 484.742 174.984 495.874C187.719 502.535 211.427 502.303 226.632 506.664C253.819 514.461 279.438 525.847 305.714 536.096C319.754 541.573 334.278 545.715 348.246 551.389C373.432 561.621 414.9 584.552 433.176 605.196C440.668 613.66 446.807 624.891 450.332 635.606C453.38 644.872 454.209 656.562 449.601 665.468C447.332 669.853 443.818 673.039 439.023 674.397C431.193 676.615 423.568 673.424 416.913 669.48C406.802 663.489 396.822 655.939 387.825 648.383C384.593 645.668 378.635 638.812 375.106 637.867L374.785 638.225C380.813 648.137 416.205 673.569 427.796 676.385C433.272 677.716 439.323 677.244 444.184 674.232C449.45 670.969 452.619 664.943 453.868 659.009C457.312 642.654 449.987 626.07 441.173 612.679C424.138 586.796 377.172 561.06 349.105 549.526C334.17 543.388 318.583 539.014 303.584 532.938C285.454 525.594 267.371 518.297 248.911 511.808C239.373 508.455 229.594 504.92 219.669 502.926C206.727 500.327 176.655 499.842 169.209 488.577C167.261 485.631 166.942 482.163 167.744 478.776C168.288 476.481 169.337 474.365 170.351 472.25C175.937 475.172 182.523 476.424 188.586 478.059C204.743 482.417 220.786 485.801 237.133 489.311C241.677 490.286 246.807 492.295 251.411 492.414C247.921 490.466 244.645 489.076 240.801 487.988C231.875 485.46 176.551 475.379 172.791 471.436C172.442 471.07 172.277 470.564 172.021 470.128C171.855 467.202 172.976 462.66 170.659 460.463C170.219 460.045 169.819 459.767 169.34 459.411C173.771 456.449 180.385 456.943 185.408 457.971C196.9 460.323 208.281 466.252 218.929 471.061C233.715 477.739 248.406 484.364 262.745 491.969C282.297 502.338 301.266 513.759 321.121 523.55C331.012 528.427 341.075 532.939 350.976 537.781C361.05 542.708 370.951 547.928 381.093 552.732C394.573 559.116 408.848 564.723 421.436 572.767C433.697 580.601 444.156 590.506 452.086 602.747C464.663 622.159 475.003 647.352 469.795 670.722C468.112 678.273 464.594 685.95 457.845 690.24C451.529 694.254 443.896 694.598 436.798 692.876C418.039 688.326 398.792 678.824 384.932 665.322C377.686 658.263 371.29 650.382 363.937 643.419C351.698 631.829 338.354 621.275 324.764 611.323C316.036 604.932 306.733 599.224 297.696 593.281C289.245 587.723 281.114 581.84 272.246 576.934C264.165 572.463 255.424 569.188 247.415 564.726L247.321 564.153C246.452 563.287 246.27 563.299 245.049 563.066C245.025 562.9 245 562.735 244.979 562.569C244.723 560.616 244.39 557.749 245.639 556.093L246.729 556.779L247.126 555.997ZM285.852 549.994C287.073 554.082 290.926 555.458 294.42 557.341C324.072 573.324 356.103 588.684 380.615 612.295C391.956 623.218 401.573 635.649 412.109 647.305C416.682 652.364 427.686 664.237 435.422 661.971C437.329 661.413 438.67 659.982 439.516 658.232C442.427 652.21 440.603 642.949 438.267 636.943L438.068 636.445L437.219 635.715C436.48 636.864 437.216 638.613 437.513 639.94C438.673 645.127 440.881 652.274 437.949 657.29C437.243 658.498 436.151 659.36 434.789 659.71C431.805 660.475 428.514 659.028 426.043 657.465C418.421 652.644 412.341 644.61 406.492 637.881C400.217 630.662 394.001 623.381 387.406 616.449C363.356 591.167 331.743 574.855 301.244 558.79C296.606 556.346 290.187 551.697 285.852 549.994ZM338.056 559.435C340.861 563.389 355.965 570.201 361.176 573.304C379.526 584.05 397.078 596.103 413.699 609.368C419.801 614.183 425.226 619.848 430.304 625.717C431.14 626.683 432.634 628.964 433.956 629.184C434.097 629.208 434.242 629.183 434.386 629.183C431.962 617.87 394.259 591.918 383.08 584.686C376.885 580.678 343.899 559.315 338.056 559.435Z" fill="#8EECF5"/>
<path d="M719.467 576.319C741.743 565.09 764.578 553.798 783.007 536.622C805.447 515.706 822.625 489.643 845.852 469.37C848.008 471.054 858.86 487.914 860.522 490.961C872.546 513 875.707 542.433 868.706 566.557C853.827 577.891 835.266 583.541 820.003 594.634C806.918 604.144 797.577 615.986 786.215 627.163C772.82 640.341 757.519 649.008 740.733 656.998C736.747 658.953 732.565 660.613 728.495 662.391C733.726 634.119 726.975 603.586 719.467 576.319ZM845.992 524.026C840.174 525.757 834.692 528.639 829.486 531.721C805.457 545.948 794.802 566.318 773.372 582.322C769.852 584.951 766.055 587.259 762.198 589.357C757.647 591.832 746.993 595.542 744.12 599.309L744.189 600.197C744.973 600.314 745.345 600.374 746.132 600.191C764.884 593.118 780.949 582.954 794.535 568.1C802.471 559.424 809.438 550.819 818.944 543.646C824.017 539.818 829.5 536.243 835.027 533.106C839.04 530.827 845.121 529.005 848.291 525.789L848.591 524.795C847.585 523.891 847.368 524.056 845.992 524.026Z" fill="#90DBF4"/>
<path d="M550.677 476.897C538.192 476.977 535.194 479.353 524.842 485.712C523.121 486.77 520.213 488.523 518.176 488.021C518.269 487.405 518.421 487.053 518.807 486.557C525.503 477.941 537.348 474.266 547.769 473.205C551.175 472.913 554.73 473.468 558.037 474.286C562.73 475.449 577.043 480.947 578.856 485.335C579.367 486.57 579.274 486.895 578.836 488.059C576.322 488.746 574.556 486.339 572.612 485.029C566.166 480.686 558.339 477.884 550.677 476.897Z" fill="#E6DFD5"/>
<path d="M351.843 535.513C351.102 533.719 350.358 531.93 349.861 530.05C345.015 511.727 354.185 495.753 363.197 480.462C380.992 490.851 397.699 503.708 414.929 515.051C436.522 529.267 461.381 541.774 480.024 559.709C492.186 571.409 501.164 585.13 508.641 600.139C502.144 603.593 495.523 606.146 488.607 608.59C479.178 611.354 470.253 612.772 460.474 613.301C439.399 574.86 416.957 566.305 379.301 549.361C370.345 545.331 360.527 541.422 352.389 535.893C352.206 535.768 352.025 535.639 351.843 535.513Z" fill="#8EECF5"/>
<path d="M511.571 600.683C527.993 592.134 544.059 579.832 557.23 566.847C570.632 553.634 582.453 539.894 598.178 529.211C610.956 520.529 625.289 515.799 639.561 510.26C655.733 503.984 672.029 497.587 687.363 489.442L688.252 489.844C694.608 501.622 701.716 534.807 704.882 549.064C655.925 574.136 612.097 607.204 568.21 640.037C554.705 650.14 540.47 659.228 527.216 669.665C526.261 670.535 525.382 671.172 524.286 671.834C523.441 670.025 524.546 664.17 524.524 661.818C524.483 658.097 524.252 654.382 523.831 650.685C521.936 633.479 518.204 616.704 511.571 600.683ZM672.129 539.564C662.08 541.865 652.766 546.912 643.674 551.622C627.285 560.112 611.396 569.412 596.552 580.408C582.332 590.941 569.08 602.698 554.822 613.189C549.299 617.253 525.403 633.459 523.01 637.648C522.912 637.819 522.851 638.01 522.771 638.191L523.428 638.718C524.179 638.563 525.009 638.462 525.735 638.228C539.585 628.827 553.573 619.253 566.787 608.977C579.549 599.053 591.722 588.374 605.071 579.22C618.298 570.151 632.484 562.712 646.56 555.067C651.936 552.148 657.303 549.218 662.949 546.84C666.403 545.386 670.663 544.514 673.853 542.617C674.951 541.965 675.432 541.598 675.771 540.367C674.587 539.489 673.612 539.434 672.129 539.564Z" fill="#8EECF5"/>
<path d="M235.905 547.328C230.545 546.436 226.071 540.348 221.202 538.092C219.789 537.437 218.212 538.508 216.513 537.512C215.927 536.166 215.356 534.826 214.264 533.806C207.865 527.83 188.341 522.626 179.613 518.625C175.528 516.778 171.723 514.367 168.308 511.463C165.962 509.5 162.563 506.499 162.278 503.394C174.002 517.538 184.045 518.605 199.896 525.366C211.026 530.114 226.915 538.866 235.905 547.328Z" fill="#8EECF5"/>
<path d="M156.112 508.822L161.503 514.8C148.274 521.41 141.483 528.048 136.671 542.427C130.166 561.866 135.213 582.988 144.285 600.771C152.045 615.985 164.872 633.91 177.715 645.092C188.092 654.126 201.094 658.3 212.597 665.46C217.143 668.289 221.076 672.017 225.628 674.783C234.988 680.472 244.962 685.078 254.139 691.106C259.974 694.94 265.339 699.389 271.054 703.382C278.282 708.432 286.358 712.908 294.317 716.711C306.813 722.681 320.131 726.502 332.919 731.746C351.942 739.548 371.325 747.346 389.786 756.381C400.106 761.431 410.107 767.246 420.158 772.814C419.67 778.12 418.766 783.376 418.305 788.681C416.888 804.99 417.382 820.953 420.515 837.033C399.277 841.747 383.279 827.113 367.542 815.718C358.082 808.869 348.345 802.188 338.229 796.344C301.537 775.151 263.005 765.599 221.306 760.786C201.258 758.472 181.222 757.044 161.253 753.99C146.055 751.665 130.774 749.373 116.037 744.865C94.5804 738.301 69.9123 723.813 59.1097 703.379C45.813 678.228 47.7287 648.679 55.9741 622.244C69.4085 579.171 103.285 543.513 140.178 519.024C145.369 515.578 150.598 511.7 156.112 508.822Z" fill="#FDE4CF"/>
<path d="M526.938 784.137C525.872 783.439 524.82 782.731 523.512 782.592C522.194 782.451 503.778 782.948 502.807 783.15C501.762 783.367 501.529 783.773 500.753 784.465C500.46 785.331 500.174 786.178 499.936 787.06C499.745 787.769 499.868 787.44 499.444 788.17C489.702 784.773 480.262 781.183 471.164 776.25C451.31 765.482 433.827 750.849 413.942 740.054C386.677 725.253 357.172 716.537 329.082 703.679C306.115 693.166 285.08 678.811 262.23 667.995C244.943 659.813 226.748 655.308 209.043 648.403C204.406 646.595 194.19 639.804 190.482 639.253L190.204 639.873C195.894 648.307 241.828 660.966 253.909 666.232C278.931 677.139 301.497 692.987 326.157 704.577C352.922 717.156 381.749 725.071 407.843 739.052C417.836 744.463 427.575 750.333 437.027 756.642C446.942 763.288 456.567 770.377 466.975 776.251C477.164 781.924 487.884 786.586 498.98 790.173C495.1 793.851 486.628 798.644 481.828 801.845C464.554 793.863 447.516 785.383 430.733 776.415C416.662 768.729 402.777 760.27 388.289 753.417C370.135 744.829 351.151 736.534 332.42 729.287C320.661 724.737 308.468 721.168 297.048 715.787C288.501 711.76 279.995 707.113 272.206 701.767C265.868 697.417 259.953 692.47 253.523 688.248C244.938 682.612 235.503 678.389 226.734 673.074C221.991 670.2 217.893 666.354 213.199 663.407C202.15 656.472 189.26 652.551 179.283 643.859C166.078 632.355 153.282 614.168 145.472 598.494C136.951 581.394 132.251 561.304 138.534 542.704C143.197 528.896 149.871 522.623 162.685 516.341C166.218 519.422 169.717 522.541 173.182 525.697C169.827 526.974 166.247 527.792 163.002 529.343C155.541 532.911 149.452 542.049 146.694 549.596C141.997 562.45 146.538 573.175 152.006 584.922C159.499 601.021 171.068 618.001 186.338 627.642C203.359 638.387 222.116 642.966 241.014 649.126C250.819 652.323 260.461 656.158 269.997 660.077C286.335 666.793 302.865 673.956 318.759 681.654C329.675 686.941 340.274 692.861 351.3 697.926C369.918 706.48 389.217 713.519 408.018 721.672C417.459 725.766 426.96 730.247 435.7 735.7C442.059 739.666 464.292 756.566 469.221 758.079C469.994 758.316 470.207 757.922 470.844 757.528C469.806 755.508 461.309 750.68 458.962 749.063C449.401 742.48 440.154 735.589 429.918 730.05C404.481 716.286 376.716 707.537 350.51 695.414C341.125 691.072 332.115 685.91 322.803 681.402C303.387 672.002 283.295 663.175 263.262 655.183C246.537 648.51 229.215 644.211 212.381 638.033C182.039 626.899 166.354 611.599 152.838 582.093C147.854 571.213 144.259 561.575 148.727 549.772C152.561 539.642 159.702 532.557 169.66 528.372C171.48 527.607 173.775 526.625 175.705 527.528C176.737 528.01 176.891 531.062 177.364 532.276C184.825 551.407 207.229 552.197 223.95 557.692C234.501 561.159 245.006 565.656 255.042 570.399C271.202 578.036 283.085 586.146 297.893 595.843C319.057 609.703 339.519 623.663 358.219 640.828C372.569 654 383.674 669.659 400.526 680.019C415.457 689.198 432.99 695.116 450.229 698.073C456.699 699.183 462.712 698.555 468.831 701.514C495.372 714.347 505.088 720.074 514.896 749.418C516.926 755.494 519.342 765.107 516.095 771.096C514.612 773.833 512.009 775.469 509.035 776.193C502.284 777.836 493.123 775.263 487.311 771.59C486.502 771.078 485.775 770.58 484.868 770.251C483.956 769.92 484.378 769.936 483.435 770.383L483.411 771.478C483.929 772.262 484.421 772.788 485.231 773.255C490.877 776.511 504.503 780.437 511 777.881C513.619 776.851 516.478 774.625 517.718 772.05C521.113 764.998 519.301 755.953 516.963 748.843C506.484 716.97 495.761 713.135 467.858 699.103C474.533 698.493 480.838 697.109 487.328 695.514C490.081 699.242 496.214 710.469 499.75 712.373L499.63 711.365L498.994 711.676L499.606 711.218C496.979 705.222 493.221 700.184 489.425 694.898L494.906 693.073C499.897 700.108 505.028 707.084 509.606 714.397C506.925 716.344 504.873 718.273 502.816 720.842C505.446 719.218 507.971 717.419 510.521 715.673C517.745 727.624 524.249 740.965 528.267 754.369C531.116 763.873 531.832 775.152 526.938 784.137ZM172.663 549.473C169.175 551.537 167.167 553.419 166.045 557.422C164.256 563.81 166.532 571.897 169.907 577.44C174.448 584.899 183.188 591.244 190.741 595.309C203.354 602.099 217.69 606.464 231.17 611.251C258.063 620.802 285.495 629.558 311.421 641.572C327.802 649.163 342.74 659.612 358.053 669.098C373.103 678.382 388.469 687.145 404.122 695.371C430.777 709.558 460.015 717.493 485.307 734.426C491.505 738.575 504.942 746.884 503.2 755.867C502.824 757.803 501.6 759.278 499.908 760.239C497.174 761.791 493.964 761.696 490.928 761.522L490.816 762.045C492.202 763.316 493.461 764.112 495.416 764.037C498.238 763.93 501.273 762.189 503.037 760.033C504.789 757.885 505.562 755.104 505.171 752.361C504.178 745.14 495.226 738.912 489.735 735.02C467.795 719.467 442.76 711.361 418.55 700.306C400.406 692.02 382.774 681.699 365.669 671.433C347.22 660.481 329.809 647.556 310.14 638.783C289.811 629.716 268.701 622.303 247.662 615.069C229.677 608.886 201.72 600.367 186.365 590.41C178.326 585.196 171.105 578.331 168.535 568.808C167.43 564.712 166.667 559.238 168.838 555.395C169.706 553.859 170.939 552.705 172.283 551.594C174.483 555.107 176.674 558.184 179.72 561.014C188.592 569.258 203.767 575.718 215.491 578.473C222.412 580.098 229.494 580.993 236.413 582.671C250.578 586.106 265.004 591.942 277.961 598.623C294.101 606.946 309.455 616.856 325.588 625.309C330.568 627.918 335.773 631.207 341.244 632.62C333.43 625.363 320.278 620.306 310.84 615.236C300.652 609.762 290.951 603.398 280.762 597.94C272.27 593.391 263.19 589.673 254.216 586.195C246.847 583.386 239.265 581.172 231.542 579.575C225.28 578.309 218.819 577.521 212.688 575.729C206.226 573.842 200.067 570.936 194.099 567.85C190.507 565.992 186.722 564.161 183.553 561.619C179.091 558.04 176.61 553.038 172.663 549.473Z" fill="#FBF8CC"/>
<path d="M497.376 551.218C496.986 551.415 496.429 551.507 496.004 551.621C495.039 550.931 494.996 550.87 494.616 549.746C496.703 542.783 519.096 525.554 525.258 521.969C526.695 522.066 526.877 522.003 527.969 522.911C527.939 524.029 527.912 524.444 526.974 525.257C524.476 527.422 520.927 528.481 518.316 530.607C510.88 536.659 503.952 544.23 497.376 551.218Z" fill="#E6DFD5"/>
<path d="M746.132 600.191C745.345 600.374 744.973 600.314 744.189 600.197L744.12 599.309C746.993 595.542 757.647 591.832 762.198 589.357C766.055 587.259 769.852 584.951 773.372 582.322C794.802 566.318 805.457 545.948 829.486 531.721C834.692 528.639 840.174 525.757 845.992 524.026C847.368 524.056 847.585 523.891 848.591 524.795L848.291 525.789C845.121 529.005 839.04 530.827 835.027 533.106C829.5 536.243 824.017 539.818 818.944 543.646C809.438 550.819 802.471 559.424 794.535 568.1C780.949 582.954 764.884 593.118 746.132 600.191Z" fill="#E6DFD5"/>
<path d="M176.908 528.765C181.456 530.442 185.811 532.73 190.257 534.668C195.244 536.842 200.371 538.7 205.472 540.586C217.891 545.177 235.896 550.287 247.126 555.997L246.729 556.779L245.639 556.093C244.39 557.749 244.723 560.616 244.979 562.569C245 562.735 245.025 562.9 245.049 563.066C246.27 563.299 246.452 563.287 247.321 564.153L247.415 564.726C239.275 561.941 231.521 558.073 223.302 555.419C215.083 552.765 206.404 551.53 198.293 548.575C188.212 544.904 181.384 538.5 176.908 528.765Z" fill="#FBF8CC"/>
<path d="M525.735 638.228C525.009 638.462 524.179 638.563 523.428 638.718L522.771 638.191C522.851 638.01 522.912 637.819 523.01 637.648C525.403 633.459 549.299 617.253 554.822 613.189C569.08 602.698 582.332 590.941 596.552 580.408C611.396 569.412 627.285 560.112 643.674 551.622C652.766 546.912 662.08 541.865 672.129 539.564C673.612 539.434 674.587 539.489 675.771 540.367C675.432 541.598 674.951 541.965 673.853 542.617C670.663 544.514 666.403 545.386 662.949 546.84C657.303 549.218 651.936 552.148 646.56 555.067C632.484 562.712 618.298 570.151 605.071 579.22C591.722 588.374 579.549 599.053 566.787 608.977C553.573 619.253 539.585 628.827 525.735 638.228Z" fill="url(#paint0_linear_407_524)"/>
<path d="M365.669 671.433C382.774 681.699 400.406 692.02 418.55 700.306C442.76 711.361 467.795 719.467 489.735 735.02C495.226 738.912 504.178 745.14 505.171 752.361C505.562 755.104 504.789 757.885 503.037 760.033C501.273 762.189 498.238 763.93 495.416 764.037C493.461 764.112 492.202 763.316 490.816 762.045L490.928 761.522C493.964 761.696 497.174 761.791 499.908 760.239C501.6 759.278 502.824 757.803 503.2 755.867C504.942 746.884 491.505 738.575 485.307 734.426C460.015 717.493 430.777 709.558 404.122 695.371C388.469 687.145 373.103 678.382 358.053 669.098C342.74 659.612 327.802 649.163 311.421 641.572C285.495 629.558 258.063 620.802 231.17 611.251C217.69 606.464 203.354 602.099 190.741 595.309C183.188 591.244 174.448 584.899 169.907 577.44C166.532 571.897 164.256 563.81 166.045 557.422C167.167 553.419 169.175 551.537 172.663 549.473C176.61 553.038 179.091 558.04 183.553 561.619C186.722 564.161 190.507 565.992 194.099 567.85C200.067 570.936 206.226 573.842 212.688 575.729C218.819 577.521 225.28 578.309 231.542 579.575C239.265 581.172 246.847 583.386 254.216 586.195C263.19 589.673 272.27 593.391 280.762 597.94C290.951 603.398 300.652 609.762 310.84 615.236C320.278 620.306 333.43 625.363 341.244 632.62C335.773 631.207 330.568 627.918 325.588 625.309C309.455 616.856 294.101 606.946 277.961 598.623C265.004 591.942 250.578 586.106 236.413 582.671C229.494 580.993 222.412 580.098 215.491 578.473C203.767 575.718 188.592 569.258 179.72 561.014C176.674 558.184 174.483 555.107 172.283 551.594C170.939 552.705 169.706 553.859 168.838 555.395C166.667 559.238 167.43 564.712 168.535 568.808C171.105 578.331 178.326 585.196 186.365 590.41C201.72 600.367 229.677 608.886 247.662 615.069C268.701 622.303 289.811 629.716 310.14 638.783C329.809 647.556 347.22 660.481 365.669 671.433Z" fill="#020101"/>
<path d="M438.068 636.445L438.267 636.943C440.603 642.949 442.427 652.21 439.516 658.232C438.67 659.982 437.329 661.413 435.422 661.971C427.686 664.237 416.682 652.364 412.109 647.305C401.573 635.649 391.956 623.218 380.615 612.295C356.103 588.684 324.072 573.324 294.42 557.341C290.926 555.458 287.073 554.082 285.852 549.994C290.187 551.697 296.606 556.346 301.244 558.79C331.743 574.855 363.356 591.167 387.406 616.449C394.001 623.381 400.217 630.662 406.492 637.881C412.341 644.61 418.421 652.644 426.043 657.465C428.514 659.028 431.805 660.475 434.789 659.71C436.151 659.36 437.243 658.498 437.949 657.29C440.881 652.274 438.673 645.127 437.513 639.94C437.216 638.613 436.48 636.864 437.219 635.715L438.068 636.445Z" fill="#020101"/>
<path d="M520.803 677.792C532.37 666.502 547.16 658.045 560.099 648.409C606.498 613.856 653.254 577.27 705.021 550.999C709.881 555.823 714.597 568.98 716.774 575.553C697.576 584.583 677.317 592.943 659.984 605.31C643.278 617.229 630.331 633.673 614.161 646.406C596.402 660.39 575.902 669.397 557.031 681.53C552.091 684.706 539.661 695.491 535.251 696.855L534.575 696.22C530.176 689.937 525.583 683.791 520.803 677.792Z" fill="#90DBF4"/>
<path d="M434.386 629.183C434.242 629.183 434.097 629.208 433.956 629.184C432.634 628.964 431.14 626.683 430.304 625.717C425.226 619.848 419.801 614.183 413.699 609.368C397.078 596.103 379.526 584.05 361.176 573.304C355.965 570.201 340.861 563.389 338.056 559.435C343.899 559.315 376.885 580.678 383.08 584.686C394.259 591.918 431.962 617.87 434.386 629.183Z" fill="#020101"/>
<path d="M536.22 698.755C544.47 693.932 551.724 687.15 559.908 682.094C579.111 670.229 599.427 660.765 617.058 646.437C633.339 633.205 646.807 616.554 664.19 604.788C680.512 593.741 699.077 586.267 716.644 577.453L717.417 577.996C719.255 582.092 720.094 586.86 721.191 591.223C726.96 614.169 730.839 639.92 726.228 663.335C721.13 665.736 716.003 668.041 711.287 671.155C697.027 680.567 687.562 696.359 678.276 710.314C673.287 717.811 667.964 725.213 661.104 731.127C647.052 743.241 621.126 751.537 604.025 761.792C584.565 773.462 567.116 787.931 548.039 800.082C549.808 797.978 551.196 795.691 552.631 793.358C554.276 789.917 555.602 786.45 556.562 782.755C563.71 755.23 549.966 722.416 536.22 698.755ZM704.997 618.951C697.134 623.032 670.244 639.56 665.69 645.218L665.951 645.962L666.68 646.295C678.676 639.605 697.081 631.225 705.783 620.546C705.68 619.255 705.952 619.782 704.997 618.951ZM646.098 665.788C635.904 680.046 634.175 685.971 618.598 696.662C614.357 699.587 609.895 702.177 605.252 704.411C599.154 707.335 571.048 717.42 569.471 722.264C570.182 723.097 569.768 722.88 570.602 723.095C597.661 711.73 634.425 699.29 646.882 670.002C647.443 668.682 647.688 667.945 647.43 666.53C646.984 666.241 646.604 665.957 646.098 665.788Z" fill="#90DBF4"/>
<path d="M461.458 615.304C478.156 614.757 494.475 610.19 509.03 601.989C509.48 602.391 509.532 602.4 509.934 602.98C512.074 606.072 513.376 611.134 514.484 614.734C519.927 632.408 524.806 655.448 521.497 673.762C519.944 675.315 518.347 676.768 516.619 678.128C498.401 692.724 475.054 699.33 451.889 696.442C450.625 696.228 449.411 695.974 448.169 695.655C449.096 694.525 454.739 693.801 456.571 692.98C463.135 690.04 467.333 684.48 469.757 677.875C477.784 656.013 470.639 635.328 461.458 615.304Z" fill="#8EECF5"/>
<path d="M666.68 646.295L665.951 645.962L665.69 645.218C670.244 639.56 697.134 623.032 704.997 618.951C705.952 619.782 705.68 619.255 705.783 620.546C697.081 631.225 678.676 639.605 666.68 646.295Z" fill="#E6DFD5"/>
<path d="M570.602 723.095C569.768 722.88 570.182 723.097 569.471 722.264C571.048 717.42 599.154 707.335 605.252 704.411C609.895 702.177 614.357 699.587 618.598 696.662C634.175 685.971 635.904 680.046 646.098 665.788C646.604 665.957 646.984 666.241 647.43 666.53C647.688 667.945 647.443 668.682 646.882 670.002C634.425 699.29 597.661 711.73 570.602 723.095Z" fill="#E6DFD5"/>
<path d="M497.016 692.056C504.954 688.438 512.08 683.956 519.172 678.92C523.119 681.77 530.56 693.924 533.474 698.461C526.357 704.252 519.443 708.946 511.444 713.421C506.843 706.187 501.775 699.198 497.016 692.056Z" fill="#E6DFD5"/>
<path d="M481.828 801.845C486.628 798.644 495.1 793.851 498.98 790.173C506.22 792.551 514.504 795.706 521.908 792.167C526.386 790.027 529.181 785.922 530.657 781.293C536.776 762.117 526.585 740.397 517.604 723.689C515.961 720.675 514.259 717.692 512.5 714.743C520.812 710.776 527.332 705.872 534.414 700.089C548.127 723.418 561.567 755.878 554.368 783.012C551.523 793.733 544.87 802.533 535.22 808.074C525.559 813.62 515.118 813.722 504.583 810.826C496.757 808.675 489.189 805.228 481.828 801.845Z" fill="#E6DFD5"/>
<path d="M420.158 772.814C438.756 783.068 457.749 793.111 477.092 801.883C474.041 804.372 470.752 806.541 467.68 809.028C453.04 820.882 439.511 832.023 420.852 836.996L420.515 837.033C417.382 820.953 416.888 804.99 418.305 788.681C418.766 783.376 419.67 778.12 420.158 772.814Z" fill="#B9FBC0"/>
<path d="M499.444 788.17C499.868 787.44 499.745 787.769 499.936 787.06C500.174 786.178 500.46 785.331 500.753 784.465C501.529 783.773 501.762 783.367 502.807 783.15C503.778 782.948 522.194 782.451 523.512 782.592C524.82 782.731 525.872 783.439 526.938 784.137C524.94 787.518 522.611 790.142 518.698 791.202C512.491 792.882 505.29 790.065 499.444 788.17Z" fill="#E6DFD5"/>
<defs>
<linearGradient id="paint0_linear_407_524" x1="592.881" y1="574.34" x2="604.984" y2="601.25" gradientUnits="userSpaceOnUse">
<stop stop-color="#D5FDF9"/>
<stop offset="1" stop-color="#F3FFFE"/>
</linearGradient>
</defs>
</svg>
