<svg width="1024" height="1024" viewBox="0 0 1024 1024" fill="none" xmlns="http://www.w3.org/2000/svg">
<path d="M429.486 222.038C467.477 213.494 506.11 203.739 541.054 186.061C581.464 165.619 616.532 136.689 656.357 115.389C726.73 77.7506 817.464 76.7364 885.594 120.065C900.452 129.515 912.327 141.426 923.723 154.727C951.202 186.801 969.693 222.783 978.751 264.161C986.935 301.548 984.65 338.185 974.199 374.809C972.156 381.968 970.126 390.732 966.477 397.173C965.069 387.927 961.309 378.081 957.901 369.367C942.509 330.012 910.553 301.296 872.429 284.583C862.795 280.36 852.851 276.629 842.633 274.091C797.862 262.97 744.794 268.533 701.798 284.427C694.767 287.026 687.431 289.67 680.752 293.082C674.516 296.267 668.383 300.34 661.846 302.826C661.682 302.888 661.517 302.946 661.353 303.006C661.932 298.589 664.893 287.631 664.785 284.449C664.716 282.386 663.341 280.621 661.817 279.333C648.039 267.689 602.671 268.28 584.535 269.985C582.899 270.163 580.615 270.113 579.109 270.693C570.045 272.295 548.377 275.544 542.937 282.909C541.495 284.862 541.802 287.231 542.247 289.467C543.245 294.484 544.476 299.389 545.217 304.461C531.1 304.125 516.979 303.984 502.858 304.038C500.045 297.72 498.109 291.071 494.96 284.871C484.814 264.895 467.41 246.873 449.111 234.203C442.787 229.824 436.02 226.093 429.486 222.038Z" fill="#B9FBC0"/>
<path d="M112.178 716.889C107.121 713.169 102.44 708.006 97.8563 703.669C68.247 675.658 46.8992 642.121 33.1355 603.855C17.7344 561.035 18.3512 514.085 37.9898 472.714C58.3055 429.917 83.9963 407.543 116.53 374.884C130.549 360.931 143.899 346.322 156.535 331.105C173.769 310.426 189.025 288.049 205.801 266.988C212.939 258.027 219.847 248.998 228.248 241.148C242.237 228.075 259.467 218.094 277.462 211.699C311.712 199.528 351.627 198.007 386.953 206.548C401.627 210.231 415.881 215.422 429.486 222.038C436.02 226.093 442.787 229.824 449.111 234.203C467.41 246.873 484.814 264.895 494.96 284.871C498.109 291.071 500.045 297.72 502.858 304.038C490.754 304.192 473.014 303.452 461.46 304.997C447.062 304.644 432.272 306.037 417.891 306.97C357.009 310.917 225.499 325.416 181.807 367.45C174.406 374.571 170.454 382.611 170.319 392.992C170.239 399.105 171.008 405.183 171.133 411.287C171.484 428.436 170.034 438.031 183.019 451.288C193.462 461.95 206.659 468.138 219.978 474.325L213.181 517.146C207.244 516.554 200.858 517.325 194.916 517.768C167.048 519.844 137.048 526.6 115.025 544.684C96.6438 559.779 85.7087 585.168 83.5283 608.503C80.8037 637.661 92.7115 664.341 103.445 690.673C106.806 698.919 111.209 707.985 112.178 716.889Z" fill="#8EECF5"/>
<path d="M661.353 303.006C661.517 302.946 661.682 302.888 661.846 302.826C668.383 300.34 674.516 296.267 680.752 293.082C687.431 289.67 694.767 287.026 701.798 284.427C744.794 268.533 797.862 262.97 842.633 274.091C852.851 276.629 862.795 280.36 872.429 284.583C910.553 301.296 942.509 330.012 957.901 369.367C961.309 378.081 965.069 387.927 966.477 397.173C966.87 407.129 967.896 416.79 967.254 426.79C965.031 461.443 947.557 491.655 924.431 516.682C921.172 520.209 917.75 524.03 914.082 527.121C904.221 504.17 886.08 485.131 866.965 469.585C862.114 465.64 854.633 461.864 850.905 456.923C855.393 453.51 859.812 449.784 863.397 445.411C866.045 442.182 868.277 438.524 869.303 434.442C871.043 427.518 870.414 403.251 869.598 395.535C868.709 389.667 866.708 384.681 863.098 379.941C839.085 348.415 751.006 329.301 712.955 322.651C695.24 319.555 677.223 317.615 659.384 315.316C660.542 311.393 660.832 307.064 661.353 303.006Z" fill="#FAD26E"/>
<path d="M584.535 269.985C602.671 268.28 648.039 267.689 661.817 279.333C663.341 280.621 664.716 282.386 664.785 284.449C664.893 287.631 661.932 298.589 661.353 303.006C660.832 307.064 660.542 311.393 659.384 315.316C658.244 316.093 658.202 318.091 657.947 319.42C657.039 324.138 655.713 328.974 655.188 333.737L656.003 333.765L648.967 378.633C647.836 386.22 647.414 394.345 645.724 401.798C645.258 403.853 644.623 406.516 642.842 407.84C632.538 415.502 611.445 415.406 598.826 415.45C589.539 415.527 572.702 414.519 565.146 409.045C563.145 407.596 561.78 405.675 560.921 403.375C559.218 398.812 559.015 393.037 558.281 388.22L554.203 362.038C552.998 355.516 552.226 348.892 551.133 342.345C549.495 332.527 547.619 322.764 546.378 312.884C515.083 311.22 483.018 311.371 451.741 313.236L449.914 311.408C464.702 310.191 479.871 310.186 494.707 310.119C501.743 310.087 542.291 311.537 545.553 310.304C546.085 309.199 545.687 308.534 545.434 307.372C545.19 307.145 544.983 306.869 544.702 306.689C543.058 305.642 485.22 306.173 478.541 306.059C474.056 305.377 464.937 307.088 461.46 304.997C473.014 303.452 490.754 304.192 502.858 304.038C516.979 303.984 531.1 304.125 545.217 304.461C544.476 299.389 543.245 294.484 542.247 289.467C541.802 287.231 541.495 284.862 542.937 282.909C548.377 275.544 570.045 272.295 579.109 270.693L580.323 271.13L580.085 271.769C574.34 273.514 568.283 274.045 562.479 275.778C557.881 277.311 546.599 279.805 544.521 284.543C543.872 286.024 544.311 287.096 544.806 288.52C545.292 289.957 545.05 290.866 544.722 292.283C545.052 293.052 544.908 293.158 545.718 293.51C546.863 297.012 547.274 300.825 547.817 304.467C553.488 304.707 559.112 305.249 564.768 305.677C564.242 306.857 563.981 306.877 562.839 307.529C559.967 307.427 557.079 307.142 554.21 306.939C552.621 305.902 550.594 305.278 548.686 305.742C547.956 305.919 548.177 305.977 547.788 306.791C549.197 319.383 552.009 331.792 553.939 344.308C555.277 353.305 556.695 362.29 558.192 371.262C558.806 374.954 559.13 379.127 560.157 382.709C560.341 383.354 560.369 383.227 560.908 383.787C562.828 390.662 562.794 398.042 564.391 404.975C576.33 410.996 589.275 412.036 602.455 412.133C614.747 412.111 630.581 412.068 641.108 405.257C643.469 397.654 644.075 388.67 645.275 380.774C648.247 361.211 650.562 341.374 654.537 321.988C654.264 320.763 654.188 320.817 653.157 320.075L654.408 319.813C655.244 318.543 655.131 317.793 655.221 316.295L655.546 314.65C656.796 310.286 657.354 305.613 658.132 301.139C658.77 297.603 659.39 294.115 659.674 290.531L659.032 288.175C660.515 287.441 661.736 286.97 662.635 285.499C662.708 284.354 662.834 283.829 662.245 282.796C659.693 278.321 650.456 275.966 645.88 274.673C640.732 273.433 635.636 272.561 630.401 271.802C633.084 273.491 641.154 274.593 644.633 275.399C648.541 276.672 654.111 278.273 656.025 282.262C656.592 283.443 656.825 284.912 656.399 286.174C655.97 287.445 655.215 288.749 654.471 289.86L653.518 288.427C654.253 286.469 654.704 285.151 653.77 283.112C652.052 279.36 646.292 277.718 642.638 276.712C634.172 274.429 625.487 273.05 616.73 272.595C600.141 271.685 568.683 273.921 554.536 282.344C552.882 283.328 551.866 284.213 551.324 286.132C551.711 287.477 551.953 288.054 553.167 288.829C554.317 289.563 555.759 290.096 557.007 290.656L555.51 291.859C553.436 290.884 550.369 289.782 549.238 287.659C548.683 286.618 548.68 285.453 549.205 284.398C551.155 280.487 558.614 278.166 562.518 276.87C566.237 275.85 578.55 273.511 581.151 271.91C582.303 271.202 583.301 270.584 584.535 269.985Z" fill="#1C1310"/>
<path d="M579.109 270.693C580.615 270.113 582.899 270.163 584.535 269.985C583.301 270.584 582.303 271.202 581.151 271.91C578.55 273.511 566.237 275.85 562.518 276.87L562.479 275.778C568.283 274.045 574.34 273.514 580.085 271.769L580.323 271.13L579.109 270.693Z" fill="#76767C"/>
<path d="M645.88 274.673L644.633 275.399C641.154 274.593 633.084 273.491 630.401 271.802C635.636 272.561 640.732 273.433 645.88 274.673Z" fill="#76767C"/>
<path d="M653.518 288.427C643.719 296.928 600.87 295.78 587.247 294.819C578.22 294.183 565.355 294.031 557.007 290.656C555.759 290.096 554.317 289.563 553.167 288.829C551.953 288.054 551.711 287.477 551.324 286.132C551.866 284.213 552.882 283.328 554.536 282.344C568.683 273.921 600.141 271.685 616.73 272.595C625.487 273.05 634.172 274.429 642.638 276.712C646.292 277.718 652.052 279.36 653.77 283.112C654.704 285.151 654.253 286.469 653.518 288.427Z" fill="#B9FBC0"/>
<path d="M644.633 275.399L645.88 274.673C650.456 275.966 659.693 278.321 662.245 282.796C662.834 283.829 662.708 284.354 662.635 285.499C661.736 286.97 660.515 287.441 659.032 288.175C657.791 288.786 655.762 290.178 654.471 289.86C655.215 288.749 655.97 287.445 656.399 286.174C656.825 284.912 656.592 283.443 656.025 282.262C654.111 278.273 648.541 276.672 644.633 275.399Z" fill="#E6DFD5"/>
<path d="M544.806 288.52C544.311 287.096 543.872 286.024 544.521 284.543C546.599 279.805 557.881 277.311 562.479 275.778L562.518 276.87C558.614 278.166 551.155 280.487 549.205 284.398C548.68 285.453 548.683 286.618 549.238 287.659C550.369 289.782 553.436 290.884 555.51 291.859C551.831 291.815 547.923 290.415 544.806 288.52Z" fill="#90DBF4"/>
<path d="M654.471 289.86C655.762 290.178 657.791 288.786 659.032 288.175L659.674 290.531C657.619 291.385 655.568 292.251 653.524 293.131C627.331 301.318 597.302 299.838 570.334 296.785C564.596 296.143 558.895 295.203 553.254 293.969C551.824 293.642 547.772 291.996 546.543 292.152C546.294 292.184 546.138 292.449 545.936 292.598L545.718 293.51C544.908 293.158 545.052 293.052 544.722 292.283C545.05 290.866 545.292 289.957 544.806 288.52C547.923 290.415 551.831 291.815 555.51 291.859L557.007 290.656C565.355 294.031 578.22 294.183 587.247 294.819C600.87 295.78 643.719 296.928 653.518 288.427L654.471 289.86Z" fill="#251D1C"/>
<path d="M653.524 293.131C655.568 292.251 657.619 291.385 659.674 290.531C659.39 294.115 658.77 297.603 658.132 301.139L656.485 301.27C654.407 298.454 653.676 296.641 653.524 293.131Z" fill="#FBF8CC"/>
<path d="M545.718 293.51L545.936 292.598C546.138 292.449 546.294 292.184 546.543 292.152C547.772 291.996 551.824 293.642 553.254 293.969C558.895 295.203 564.596 296.143 570.334 296.785C597.302 299.838 627.331 301.318 653.524 293.131C653.676 296.641 654.407 298.454 656.485 301.27C653.753 305.427 651.069 309.612 648.041 313.563C620.312 310.161 592.584 308.103 564.768 305.677C559.112 305.249 553.488 304.707 547.817 304.467C547.274 300.825 546.863 297.012 545.718 293.51Z" fill="#B9FBC0"/>
<path d="M656.485 301.27L658.132 301.139C657.354 305.613 656.796 310.286 655.546 314.65L648.041 313.563C651.069 309.612 653.753 305.427 656.485 301.27Z" fill="#FAD26E"/>
<path d="M219.978 474.325C206.659 468.138 193.462 461.95 183.019 451.288C170.034 438.031 171.484 428.436 171.133 411.287C171.008 405.183 170.239 399.105 170.319 392.992C170.454 382.611 174.406 374.571 181.807 367.45C225.499 325.416 357.009 310.917 417.891 306.97C432.272 306.037 447.062 304.644 461.46 304.997C464.937 307.088 474.056 305.377 478.541 306.059L477.942 306.12C469.977 306.882 461.802 306.756 453.796 307.093C439.79 307.639 425.797 308.46 411.824 309.554C354.823 313.83 216.039 329.056 179.419 373.551C176.944 376.558 174.257 380.524 174.047 384.491C173.991 384.809 173.948 385.13 173.878 385.446C173.83 385.663 173.633 386.256 173.556 386.493L174.354 386.238L174.786 386.497C173.261 390.94 171.422 396.844 173.778 401.313C174.317 402.336 174.852 403.01 175.693 403.785L176.285 403.835C178.449 406.254 180.161 409.047 182.371 411.425C189.805 419.419 200.148 426.24 209.587 431.669C233.032 446.271 261.404 454.49 287.998 461.027C306.416 465.554 324.785 469.69 343.518 472.733C412.441 483.926 489.096 485.44 558.837 483.066C608.058 481.591 657.124 476.822 705.707 468.79C735.846 463.973 766.256 458.579 795.379 449.277C814.814 443.07 836.07 434.317 852.45 422.025C858.304 417.632 865.013 411.435 865.88 403.763C866.526 398.055 863.914 392.474 860.461 388.083C854.226 380.153 844.94 374.59 836.224 369.789C789.352 343.97 716.655 329.606 663.519 323.097L664.626 321.384C717.657 327.392 788.154 342.215 835.366 367.238C844.87 372.275 855.459 378.291 862.234 386.843C863.601 388.567 866.987 396.676 867.811 397.127L867.901 395.696C868.776 395.84 868.774 395.987 869.598 395.535C870.414 403.251 871.043 427.518 869.303 434.442C868.277 438.524 866.045 442.182 863.397 445.411C859.812 449.784 855.393 453.51 850.905 456.923C843.671 462.144 835.854 467.026 827.852 470.984C829.125 501.164 830.871 531.323 833.089 561.448C833.309 564.729 833.433 568.074 833.945 571.326C834.907 577.437 836.316 582.183 835.686 588.492C833.941 591.847 835.328 611.044 835.837 615.688C836.727 623.79 838.292 631.9 839.566 639.951C842.843 660.669 846.505 681.538 848.771 702.389C848.907 702.53 849.044 702.669 849.178 702.812C850.798 704.53 852.287 706.487 851.989 709.006C851.795 710.641 851.095 711.949 849.793 712.951C847.477 714.735 844.059 715.156 841.246 714.715C839.286 714.408 836.825 713.511 835.643 711.799C834.633 710.334 834.405 708.955 834.899 707.247C835.436 705.393 837.589 704.248 838.169 702.586C839.014 700.166 822.358 641.583 820.474 635.387C815.517 640.48 810.616 645.834 804.941 650.141C795.381 657.399 784.403 662.239 774.388 668.733C776.332 679.249 776.598 690.292 777.833 700.936C780.164 720.642 783.02 740.283 786.398 759.838C788.547 771.11 790.256 782.557 791.879 793.918C794.64 795.605 797.376 797.46 798.262 800.788C798.722 802.516 798.311 804.291 797.301 805.736C795.164 808.796 791 810.403 787.423 810.834C784.221 811.22 780.185 810.817 777.596 808.698C775.815 807.241 774.947 805.324 774.88 803.038C774.823 801.091 775.636 799.435 777.011 798.088C778.574 796.558 780.567 795.455 782.433 794.335C780.186 785.128 777.809 775.715 774.915 766.691C771.996 757.767 770.092 748.284 767.843 739.156L752.929 676.919C688.575 700.624 611.721 713.543 543.174 714.494C503.596 716.323 454.584 714.13 415.101 709.555C357.616 702.509 296.632 690.043 244.279 664.628C236.212 697.262 228.735 730.278 219.513 762.591L218.08 760.089L242.323 663.4C238.016 661.279 233.98 659.203 230.203 656.21C224.172 683.605 219.733 711.643 215.26 739.336C213.878 747.894 210.584 762.657 210.435 770.62C211.384 771.559 212.939 771.84 214.255 771.784C215.053 771.749 215.211 771.678 215.904 771.5L216.821 772.309L216.551 774.591C217.53 775.579 217.932 775.652 219.287 776.052L220.207 776.61C220.467 777.25 220.564 777.398 220.664 778.182C221.069 781.369 220.211 784.928 218.117 787.386C216.545 789.232 213.782 789.686 211.481 789.787C208.787 789.906 205.85 789.283 203.848 787.367C202.295 785.881 201.54 783.836 201.629 781.699C201.747 778.855 202.955 776.165 205.003 774.187L206.677 774.326C207.403 772.391 207.421 769.949 207.66 767.885L227.426 653.53C220.961 648.848 215.155 642.661 210.608 636.12C194.472 612.913 201.64 586.745 205.922 561.103C208.369 546.448 210.577 531.783 213.181 517.146L219.978 474.325ZM209.608 434.662C195.943 426.424 182.816 417.552 173.566 404.264C173.563 420.981 172.032 436.511 184.785 449.303C189.379 453.912 195.244 458.27 200.953 461.375C214.376 470.903 236.213 478.912 251.857 484.118C266.722 489.065 281.876 493.752 297.105 497.452C314.999 501.801 333.394 504.757 351.569 507.685C415.448 518.113 480.163 522.544 544.868 520.921C587.275 519.99 629.587 516.506 671.575 510.488C685.548 508.574 699.655 507.266 713.555 504.882C745.612 499.073 776.997 490.024 807.226 477.874C825.247 470.604 846.226 460.874 859.649 446.599C871.609 433.881 868.493 422.417 868.08 406.43L867.749 407.044C854.681 430.858 816.317 445.261 791.232 452.731C757.529 462.767 723.395 468.795 688.662 473.915C665.805 477.358 642.858 480.18 619.848 482.378C586.753 485.063 553.569 486.493 520.366 486.665C443.006 487.618 365.695 482.815 290.37 464.286C274.507 460.383 258.694 456.27 243.391 450.497C231.676 446.077 220.61 440.615 209.608 434.662ZM695.418 512.886L694.792 513.145L693.882 512.449C688.385 513.224 682.942 510.547 677.177 513.127C670.802 514.214 664.292 514.135 657.931 515.187L656.982 516.249L657.438 516.864L656.599 517.329C654.31 516.759 651.746 515.933 649.377 516.058C640.338 516.538 631.268 517.999 622.264 518.978C611.061 520.127 599.836 521.046 588.595 521.735C577.941 522.332 567.28 522.79 556.615 523.11C552.032 523.272 546.408 522.811 541.984 523.797C541.188 523.255 541.664 523.424 540.504 523.469C519.735 523.714 498.979 524.667 478.207 523.684C470.557 523.322 427.883 519.689 424.656 520.94L423.92 520.336C417.624 518.505 409.912 518.549 403.354 517.853C393.61 516.769 383.885 515.521 374.183 514.111C365.031 511.615 343.377 518.632 335.069 523.353C329.306 526.628 325.68 530.859 322.629 536.715C337.113 523.717 354.637 516.284 374.068 514.58L374.143 515.534C370.843 517.535 365.998 518.162 362.217 519.102C349.799 522.188 337.277 526.772 327.709 535.572C326.03 537.116 322.821 539.878 322.187 542.061C322.023 542.628 322.058 542.661 322.079 543.165C321.617 543.788 321.175 544.474 320.651 545.044C319.368 546.851 319.535 550.351 319.901 552.474C321.489 561.695 329.163 568.44 336.56 573.33C364.927 592.083 420.526 602.517 454.395 605.969C483.318 608.925 512.417 609.779 541.463 608.527C576.466 607.949 635.463 599.842 668.633 588.749C679.286 586.534 693.047 580.596 701.774 573.983C709.46 568.158 716.35 560.44 717.576 550.507C718.452 543.418 716.351 538.015 712.081 532.536L712.213 531.777C711.432 530.321 709.591 530.068 708.517 528.745L708.767 527.489L709.433 527.27C710.778 528.655 712.455 530.369 714.233 531.146C714.44 531.237 714.653 531.316 714.862 531.401C719.3 536.691 721.01 543.066 720.389 549.883C719.464 560.034 713.616 568.238 705.926 574.574C705.374 575.033 704.812 575.479 704.238 575.911C686.386 588.566 663.702 593.391 642.773 598.609C670.6 612.667 698.582 626.414 726.716 639.847C734.1 643.461 741.145 647.84 748.57 651.342C749.862 651.951 750.981 652.475 752.416 652.519L753.809 651.244C753.987 645.29 749.581 630.398 748.127 623.947C745.259 610.884 742.489 597.8 739.818 584.695C737.093 567.829 734.743 550.843 731.171 534.135L705.915 521.905C705.24 521.113 705.046 521.152 704.991 520.063C706.195 520.065 707.399 520.054 708.603 520.029C714.954 522.241 724.421 527.954 730.774 531.16C730.458 529.178 729.919 527.213 729.456 525.261C720.497 522.588 711.865 518.313 703.02 515.189C702.181 514.371 701.731 513.91 700.567 513.661L698.761 512.561C697.573 512.172 696.575 512.573 695.418 512.886ZM278.673 516.107C277.87 519.789 277.19 523.561 276.185 527.19C290.246 523.44 304.721 520.514 318.659 516.474C325.255 515.977 331.809 514.63 338.417 514.036C346.703 513.292 355.124 513.238 363.364 512.129C352.955 510.22 342.482 509.069 332.043 507.399C315.713 504.876 299.555 501.349 283.659 496.838C281.54 503.185 279.924 509.534 278.673 516.107ZM222.75 475.804C219.887 489.141 218.041 502.825 215.925 516.304C213.736 530.461 211.75 544.782 209.27 558.88C219.838 547.911 234.202 538.5 249.14 534.907C250.649 528.688 252.058 522.444 253.365 516.179C255.34 507.266 257.254 498.34 259.108 489.4C246.767 485.297 234.69 480.971 222.75 475.804ZM728.625 504.613C733.289 529.585 737.667 554.61 741.756 579.682L742.726 585.641C747.12 606.481 751.165 627.82 756.375 648.441C760.698 646.384 763.687 646.191 768.41 646.252C765.92 634.945 764.489 623.343 762.902 611.877C761.82 604.054 760.419 596.034 759.886 588.162L759.159 581.951C756.729 564.665 754.439 547.36 752.289 530.037C751.044 520.119 750.192 509.942 748.283 500.14L728.625 504.613ZM817.558 580.133C816.322 573.94 807.829 569.116 802.89 565.814C794.244 560.032 765.01 543.125 756.656 542.602C756.411 543.503 756.21 543.386 756.695 544.047C757.503 545.145 784.544 557.851 789.218 560.65C799.043 566.534 808.266 574.301 816.488 582.259C820.918 587.66 824.93 593.083 828.442 599.143L831.188 590.914C830.646 589.367 830 587.758 829.121 586.372C826.744 582.621 822.496 580.502 818.312 579.575L817.558 580.133ZM757.289 547.64C758.521 561.849 760.755 576.213 762.746 590.342C764.27 601.922 765.865 613.493 767.532 625.053C768.486 632.047 769.037 639.167 770.514 646.068C788.936 638.355 809.584 624.421 821.858 608.794C823.322 606.931 825.461 604.6 826.379 602.395C826.743 601.522 826.794 601.258 826.483 600.409C811.719 573.89 784.175 559.12 757.289 547.64ZM458.195 609.391C448 608.123 437.782 606.924 427.66 605.154C420.145 603.84 406.312 600.136 399.054 600.498C393.561 600.772 387.338 603.332 382.094 604.924L348.516 615.335L283.375 634.965C273.631 637.949 263.454 640.433 253.945 644.071C297.203 667.223 358.743 678.925 407.282 684.556C415.596 685.521 426.075 687.537 434.306 687.428C466.169 691.608 499.17 692.157 531.279 692.015C606.381 691.393 672.324 681.716 743.875 658.512C714.679 645.875 685.777 632.568 657.192 618.603C646.163 613.337 635.295 607.219 624.141 602.33C593.618 607.096 563.114 610.876 532.199 611.699C508.292 613.364 482.084 611.763 458.195 609.391ZM244.065 642.139C240.723 639.988 237.411 637.748 233.982 635.737C233.283 638.591 232.401 641.459 232.338 644.409L232.958 645.196L232.757 645.681C231.892 646.779 231.532 647.327 231.28 648.75C231.459 649.228 231.621 649.835 231.889 650.264L231.057 651.526C231.34 652.766 231.46 653.232 232.751 653.808C233.096 653.963 233.497 653.938 233.862 653.942L234.285 655.563C236.977 657.562 239.662 659.472 242.868 660.576C243.998 660.795 244.566 660.873 245.362 661.735C299.199 686.651 358.984 700.767 417.904 706.771C451.634 711.407 486.495 712.075 520.504 712.056C527.021 712.053 536.91 712.831 542.904 711.719C609.685 710.437 689.749 698.591 751.969 674.177C750.338 669.07 749.421 664.94 749.456 659.561C741.252 661.318 733.015 664.812 725 667.377C714.646 670.614 704.167 673.435 693.586 675.831C662.004 683.378 629.932 688.7 597.606 691.76C576.521 693.638 555.477 694.194 534.336 694.97C500.119 695.528 466.215 693.463 432.156 690.352C370.213 684.162 307.135 674.451 251.096 646.011C250.038 645.553 249.48 644.993 248.648 644.227L247.043 644.299C246.055 644.019 245.093 643.908 244.078 643.775L244.065 642.139ZM838.901 651.113C836.971 639.236 834.89 627.384 832.661 615.559C829.717 621.822 826.957 628.043 822.191 633.188C824.567 640.011 826.365 646.966 828.433 653.88L836.295 683.577C837.661 688.777 838.726 694.383 840.665 699.391C841.395 701.276 842.251 703.512 844.022 704.633L844.843 704.155C847.186 696.645 839.664 661.922 838.901 651.113ZM824.91 471.956C819.634 474.558 814.386 477.307 808.944 479.544C811.565 505.557 816.663 531.351 819.089 557.341C819.239 558.251 819.252 560.101 819.954 560.696C821.442 561.955 824.078 562.193 825.942 561.899C827.472 561.657 828.676 561.212 829.926 560.281C830.575 552.088 829.414 543.105 828.83 534.862L825.976 494.244C825.579 488.085 826.2 477.299 824.91 471.956ZM805.446 481.004C796.819 484.326 788.008 487.097 779.276 490.121C769.929 493.358 760.725 496.933 751.124 499.386C752.412 509.926 753.244 520.806 755.061 531.257C764.109 533.715 772.592 537.669 781.17 541.391C793.818 547.113 805.415 553.44 817.204 560.741C813.706 534.314 809.565 508.022 806.666 481.514C805.866 480.927 806.287 481.058 805.446 481.004ZM261.945 490.321C253.931 527.035 246.764 563.93 240.45 600.974C238.988 609.609 235.229 624.272 235.081 632.131C236.143 633.426 236.925 634.057 238.635 634.261C240.478 634.481 242.182 634.124 243.979 633.775C245.709 633.44 247.848 633.363 249.185 632.143L249.771 630.373L268.837 549.12C272.912 531.564 276.353 513.525 281.783 496.348C275.289 494.456 268.169 492.901 261.945 490.321ZM726.171 505.136C716.782 507.084 707.411 508.614 697.93 510.024L710.109 514.392C716.662 516.861 722.929 519.966 729.329 522.794C728.477 517.043 727.538 511.29 726.865 505.515L726.171 505.136ZM342.695 516.782C319.845 518.006 297.314 524.289 275.385 530.486C274.922 532.596 273.553 536.366 274.158 538.396L274.737 538.5C286.483 534.04 299.063 531.307 311.276 528.454C315.908 527.372 320.95 526.669 325.448 525.159C331.444 523.146 337.328 519.659 343.12 517.039L342.884 516.769L342.695 516.782ZM324.175 528.641C306.95 532.289 289.53 536.424 272.863 542.137L251.644 632.004C267.674 627.944 283.21 622.549 299.121 618.179C325.513 610.212 351.734 601.764 378.337 594.518C359.263 588.862 329.779 579.027 319.974 560.747C316.347 553.985 316.303 547.279 318.558 540.125C319.243 537.951 324.424 529.419 324.44 529.187C324.454 528.985 324.264 528.823 324.175 528.641ZM755.282 533.784C755.462 535.477 755.288 537.642 756.571 538.874C757.051 539.335 773.198 546.192 775.314 547.254C785.689 552.457 795.857 557.706 805.21 564.65C807.202 566.129 815.715 573.99 817.527 573.818C817.589 570.672 817.536 567.466 817.817 564.335C799.101 550.668 777.077 541.307 755.282 533.784ZM246.151 538.996C234.497 543.038 215.169 553.041 209.324 564.569C207.995 567.19 206.652 573.037 206.981 576.056C207.009 576.312 207.152 576.542 207.237 576.784L208.02 575.716C216.259 563.361 232.417 551.538 246.739 547.526C247.303 545.196 248.73 541.428 247.989 539.146C246.754 538.901 247.366 538.946 246.151 538.996ZM245.065 551.449C231.01 557.031 213.311 568.408 207.226 582.998C204.385 589.81 205.611 598.329 208.473 604.977C210.712 610.179 214.188 614.868 218.119 618.914C222.485 623.192 227.061 626.975 232.056 630.493C233.469 622.919 246.044 553.849 245.702 551.746L245.065 551.449ZM819.471 564.683L819.883 565.698C822.729 566.618 828.275 566.106 831.132 565.299C829.293 563.898 822.383 565 819.471 564.683ZM823.248 568.211C822.422 568.325 820.919 568.266 820.391 568.926C819.043 570.609 819.672 574.213 819.593 576.265C822.624 575.982 825.576 575.741 828.625 575.821L830.704 575.733C832.287 573.587 831.132 570.594 830.943 568.101L823.248 568.211ZM383.284 596.539C355.846 603.743 328.886 612.158 301.783 620.512C284.91 625.713 268.049 631.337 250.816 635.22C250.246 637.606 249.701 639.997 249.01 642.351C251.66 641.415 254.321 640.357 257.039 639.639C290.176 629.101 323.678 619.529 356.971 609.481C368.969 605.86 381.218 602.596 393.079 598.577C390.025 597.789 386.428 596.469 383.284 596.539ZM638.742 599.683C635.255 600.275 631.732 600.79 628.268 601.503C638.446 606.794 648.963 611.503 659.301 616.475C677.885 625.543 696.567 634.405 715.346 643.06C724.89 647.446 734.699 651.411 744.123 656.032C745.669 656.838 747.076 657.847 748.882 657.584L749.457 656.857C748.71 655.08 747.331 654.223 745.704 653.303C718.003 637.636 687.07 623.855 658.375 609.58C655.779 608.289 640.823 599.993 639.343 599.688C639.147 599.648 638.942 599.685 638.742 599.683ZM832.37 599.358C830.306 603.069 831.329 605.242 832.413 609.092C832.937 606.251 833.014 602.168 832.37 599.358ZM204.056 604.361C203.796 620.677 209.945 632.276 221.152 643.931C223.006 645.858 225.468 648.516 228.062 649.217C228.643 648.436 228.668 648.314 228.789 647.402C229.577 642.787 230.422 638.213 231.444 633.642C223.002 628.278 214.188 621.532 208.792 612.928C207.186 610.366 206.005 606.483 204.056 604.361ZM828.236 604.856C809.64 628.413 796.107 635.473 771.143 649.648C773.764 654.705 774.493 659.078 774.779 664.724C778.331 664.134 782.532 661.058 785.648 659.214C800.333 650.518 813.509 641.443 823.579 627.285C826.625 623.003 828.679 618.265 830.591 613.397C829.958 610.726 829.526 607.275 828.236 604.856ZM761.386 649.667C759.958 649.859 758.679 649.891 757.523 650.845C758.942 651.475 760.743 650.868 762.222 650.608C763.517 650.546 764.772 650.728 765.879 650.026C764.319 649.393 763.018 649.552 761.386 649.667ZM761.888 653.402C759.361 655.056 757.084 657.388 756.387 660.425C756 662.108 756.115 663.553 757.078 665.039C758.263 666.868 760.462 667.402 762.469 667.648C765.145 666.601 766.882 665.495 768.025 662.746C768.797 660.889 768.973 658.799 768.131 656.935C767.384 655.28 765.984 654.129 764.229 653.666C763.496 653.473 762.645 653.453 761.888 653.402ZM754.593 653.704C752.547 656.215 751.382 660.656 751.825 663.881C752.184 666.496 753.476 668.958 755.646 670.5C758.119 672.258 761.213 672.536 764.117 671.905C766.894 671.301 769.326 669.693 771.493 667.914C771.61 663.435 771.909 658.94 770.657 654.584L769.625 654.077C769.388 655.135 769.565 655.55 769.787 656.603C770.352 659.279 770.795 663.164 769.226 665.561C767.823 667.703 765.254 669.238 762.765 669.711C760.618 670.118 758.412 669.77 756.656 668.409C755.193 667.276 754.091 665.272 753.87 663.442C753.432 659.816 756.315 655.142 755.617 654.051L754.593 653.704ZM771.81 671.009L771.194 671.398C767.459 673.716 762.745 675.664 758.293 674.55C757.395 674.325 756.511 674.028 755.632 673.74L755.213 674.119C756.948 684.307 760.162 694.466 762.469 704.56C768.393 731.71 775.144 758.673 782.713 785.411C783.605 788.751 784.379 794.518 787.238 796.586L788.149 796.55C790.422 792.917 786.348 776.558 785.543 771.761C781.773 749.792 778.527 727.735 775.809 705.611C774.904 697.91 774.052 690.202 773.252 682.49C772.876 678.997 772.797 675.055 771.973 671.653C771.921 671.438 771.864 671.224 771.81 671.009ZM839.106 705.244C838.193 706.638 837.337 707.656 837.446 709.406C838.109 710.621 838.29 711.04 839.636 711.612C842.203 712.703 846.182 711.873 848.564 710.642C848.737 710.553 848.901 710.447 849.07 710.349C849.51 708.977 849.641 708.288 849.409 706.817L848.501 706.295C846.349 706.921 843.526 708.203 841.424 707.053C840.572 706.586 839.827 705.889 839.106 705.244ZM205.814 776.946C204.848 778.846 203.579 781.143 204.513 783.314C205.162 784.823 206.512 785.657 208.028 786.087C210.94 786.913 213.96 786.302 216.652 785.062C217.853 783.469 218.987 781.913 218.708 779.818C217.888 778.838 217.493 778.581 216.201 778.425C214.601 778.232 212.947 778.306 211.344 778.401C209.122 778.532 207.733 778.012 205.814 776.946ZM792.378 796.977C791.295 798.037 790.11 799.542 788.496 799.583C785.665 799.654 780.748 796.951 778.547 799.651C777.551 800.873 777.064 803.234 777.561 804.716C777.956 805.892 779.667 806.913 780.694 807.514C784.806 808.391 789.589 808.349 793.309 806.119C794.63 805.327 795.285 804.545 795.856 803.099C795.915 801.265 795.562 800.075 794.27 798.713C793.68 798.091 793.036 797.524 792.378 796.977Z" fill="url(#paint0_linear_407_173)"/>
<path d="M564.768 305.677C592.584 308.103 620.312 310.161 648.041 313.563L655.546 314.65L655.221 316.295C652.115 315.853 648.913 315.683 645.786 315.384C639.629 314.363 633.226 313.98 627.015 313.315C605.644 311.029 584.185 309.838 562.839 307.529C563.981 306.877 564.242 306.857 564.768 305.677Z" fill="#382B28"/>
<path d="M478.541 306.059C485.22 306.173 543.058 305.642 544.702 306.689C544.983 306.869 545.19 307.145 545.434 307.372C545.687 308.534 546.085 309.199 545.553 310.304C542.291 311.537 501.743 310.087 494.707 310.119C479.871 310.186 464.702 310.191 449.914 311.408C383.113 313.07 227.168 327.973 180.208 377.031C177.956 379.384 175.949 381.849 174.047 384.491C174.257 380.524 176.944 376.558 179.419 373.551C216.039 329.056 354.823 313.83 411.824 309.554C425.797 308.46 439.79 307.639 453.796 307.093C461.802 306.756 469.977 306.882 477.942 306.12L478.541 306.059Z" fill="#8EECF5"/>
<path d="M554.21 306.939C552.547 306.794 550.217 306.27 548.786 307.199C548.405 308.307 548.772 309.032 549.106 310.103C550.304 311.112 552.072 311.051 553.62 311.2C564.482 312.242 575.544 312.33 586.449 313.089C606.136 314.5 625.784 316.421 645.372 318.849C647.866 319.178 650.786 319.264 653.157 320.075C654.188 320.817 654.264 320.763 654.537 321.988C650.547 321.535 646.497 321.199 642.573 320.335C624.144 318.299 605.678 316.603 587.186 315.249C574.613 314.417 562.003 314.026 549.44 313.089C552.078 328.292 554.733 343.462 557.001 358.726C558.387 366.811 560.631 375.63 560.908 383.787C560.369 383.227 560.341 383.354 560.157 382.709C559.13 379.127 558.806 374.954 558.192 371.262C556.695 362.29 555.277 353.305 553.939 344.308C552.009 331.792 549.197 319.383 547.788 306.791C548.177 305.977 547.956 305.919 548.686 305.742C550.594 305.278 552.621 305.902 554.21 306.939Z" fill="#251D1C"/>
<path d="M645.372 318.849C625.784 316.421 606.136 314.5 586.449 313.089C575.544 312.33 564.482 312.242 553.62 311.2C552.072 311.051 550.304 311.112 549.106 310.103C548.772 309.032 548.405 308.307 548.786 307.199C550.217 306.27 552.547 306.794 554.21 306.939C557.079 307.142 559.967 307.427 562.839 307.529C584.185 309.838 605.644 311.029 627.015 313.315C633.226 313.98 639.629 314.363 645.786 315.384L645.372 318.849Z" fill="#8EECF5"/>
<path d="M174.047 384.491C175.949 381.849 177.956 379.384 180.208 377.031C227.168 327.973 383.113 313.07 449.914 311.408L451.741 313.236C420.253 315.081 388.976 316.948 357.649 320.803C311.194 326.52 213.16 343.553 181.004 379.498C176.814 384.182 173.112 389.885 173.659 396.441C173.881 399.092 175.168 401.468 176.285 403.835L175.693 403.785C174.852 403.01 174.317 402.336 173.778 401.313C171.422 396.844 173.261 390.94 174.786 386.497L174.354 386.238L173.556 386.493C173.633 386.256 173.83 385.663 173.878 385.446C173.948 385.13 173.991 384.809 174.047 384.491Z" fill="#251D1C"/>
<path d="M451.741 313.236C483.018 311.371 515.083 311.22 546.378 312.884C547.619 322.764 549.495 332.527 551.133 342.345C552.226 348.892 552.998 355.516 554.203 362.038L553.631 362.263C542.512 366.757 533.272 375.507 523.299 382.029C501.734 396.133 474.258 405.24 449.172 410.559C428.798 414.733 408.066 416.905 387.27 417.046C339.868 417.706 249.654 408.141 209.587 431.669C200.148 426.24 189.805 419.419 182.371 411.425C180.161 409.047 178.449 406.254 176.285 403.835C175.168 401.468 173.881 399.092 173.659 396.441C173.112 389.885 176.814 384.182 181.004 379.498C213.16 343.553 311.194 326.52 357.649 320.803C388.976 316.948 420.253 315.081 451.741 313.236Z" fill="#8EECF5"/>
<path d="M549.44 313.089C562.003 314.026 574.613 314.417 587.186 315.249C605.678 316.603 624.144 318.299 642.573 320.335C637.062 329.198 632.988 338.829 628.654 348.299C624.632 357.086 620.418 365.823 616.765 374.77C609.895 364.832 602.301 354.366 590.013 351.015C577.573 347.622 567.589 352.756 557.001 358.726C554.733 343.462 552.078 328.292 549.44 313.089Z" fill="#8EECF5"/>
<path d="M656.003 333.765L655.188 333.737C655.713 328.974 657.039 324.138 657.947 319.42C658.202 318.091 658.244 316.093 659.384 315.316C677.223 317.615 695.24 319.555 712.955 322.651C751.006 329.301 839.085 348.415 863.098 379.941C866.708 384.681 868.709 389.667 869.598 395.535C868.774 395.987 868.776 395.84 867.901 395.696C867.673 394.503 867.415 393.316 867.127 392.136C864.065 379.867 851.815 371.046 841.626 364.899C800.983 340.379 730.59 326.903 683.936 320.319C679.025 319.625 663.966 316.503 660.051 317.72C659.13 318.007 659.468 317.824 658.938 318.774C659.137 319.246 659.235 319.549 659.566 319.974C660.514 321.19 662.447 321.165 663.863 321.312L664.626 321.384L663.519 323.097C661.848 322.856 660.145 322.525 658.465 322.391C657.569 326.168 656.639 329.933 656.003 333.765Z" fill="#0A0805"/>
<path d="M645.786 315.384C648.913 315.683 652.115 315.853 655.221 316.295C655.131 317.793 655.244 318.543 654.408 319.813L653.157 320.075C650.786 319.264 647.866 319.178 645.372 318.849L645.786 315.384Z" fill="#FAEBA3"/>
<path d="M664.626 321.384L663.863 321.312C662.447 321.165 660.514 321.19 659.566 319.974C659.235 319.549 659.137 319.246 658.938 318.774C659.468 317.824 659.13 318.007 660.051 317.72C663.966 316.503 679.025 319.625 683.936 320.319C730.59 326.903 800.983 340.379 841.626 364.899C851.815 371.046 864.065 379.867 867.127 392.136C867.415 393.316 867.673 394.503 867.901 395.696L867.811 397.127C866.987 396.676 863.601 388.567 862.234 386.843C855.459 378.291 844.87 372.275 835.366 367.238C788.154 342.215 717.657 327.392 664.626 321.384Z" fill="#FAEBA3"/>
<path d="M642.573 320.335C646.497 321.199 650.547 321.535 654.537 321.988C650.562 341.374 648.247 361.211 645.275 380.774C644.075 388.67 643.469 397.654 641.108 405.257C630.581 412.068 614.747 412.111 602.455 412.133C603.614 404.863 608.47 396.769 611.358 389.968C613.463 385.01 615.137 379.9 616.765 374.77C620.418 365.823 624.632 357.086 628.654 348.299C632.988 338.829 637.062 329.198 642.573 320.335Z" fill="#FAEBA3"/>
<path d="M658.465 322.391C660.145 322.525 661.848 322.856 663.519 323.097C716.655 329.606 789.352 343.97 836.224 369.789C844.94 374.59 854.226 380.153 860.461 388.083C863.914 392.474 866.526 398.055 865.88 403.763C865.013 411.435 858.304 417.632 852.45 422.025C836.07 434.317 814.814 443.07 795.379 449.277C766.256 458.579 735.846 463.973 705.707 468.79C657.124 476.822 608.058 481.591 558.837 483.066C559.219 480.505 569.014 471.383 571.255 468.352C579.281 457.497 597.525 428.149 598.826 415.45C611.445 415.406 632.538 415.502 642.842 407.84C644.623 406.516 645.258 403.853 645.724 401.798C647.414 394.345 647.836 386.22 648.967 378.633L656.003 333.765C656.639 329.933 657.569 326.168 658.465 322.391Z" fill="#FAEBA3"/>
<path d="M557.001 358.726C567.589 352.756 577.573 347.622 590.013 351.015C602.301 354.366 609.895 364.832 616.765 374.77C615.137 379.9 613.463 385.01 611.358 389.968C608.47 396.769 603.614 404.863 602.455 412.133C589.275 412.036 576.33 410.996 564.391 404.975C562.794 398.042 562.828 390.662 560.908 383.787C560.631 375.63 558.387 366.811 557.001 358.726Z" fill="#B9FBC0"/>
<path d="M209.587 431.669C249.654 408.141 339.868 417.706 387.27 417.046C408.066 416.905 428.798 414.733 449.172 410.559C474.258 405.24 501.734 396.133 523.299 382.029C533.272 375.507 542.512 366.757 553.631 362.263L554.203 362.038L558.281 388.22C559.015 393.037 559.218 398.812 560.921 403.375C561.78 405.675 563.145 407.596 565.146 409.045C572.702 414.519 589.539 415.527 598.826 415.45C597.525 428.149 579.281 457.497 571.255 468.352C569.014 471.383 559.219 480.505 558.837 483.066C489.096 485.44 412.441 483.926 343.518 472.733C324.785 469.69 306.416 465.554 287.998 461.027C261.404 454.49 233.032 446.271 209.587 431.669Z" fill="#B9FBC0"/>
<path d="M173.566 404.264C182.816 417.552 195.943 426.424 209.608 434.662C204.294 439.671 200.791 445.504 200.572 452.968C200.49 455.787 201.001 458.563 200.953 461.375C195.244 458.27 189.379 453.912 184.785 449.303C172.032 436.511 173.563 420.981 173.566 404.264Z" fill="#8EECF5"/>
<path d="M209.608 434.662C220.61 440.615 231.676 446.077 243.391 450.497C258.694 456.27 274.507 460.383 290.37 464.286C365.695 482.815 443.006 487.618 520.366 486.665C553.569 486.493 586.753 485.063 619.848 482.378C642.858 480.18 665.805 477.358 688.662 473.915C723.395 468.795 757.529 462.767 791.232 452.731C816.317 445.261 854.681 430.858 867.749 407.044L868.08 406.43C868.493 422.417 871.609 433.881 859.649 446.599C846.226 460.874 825.247 470.604 807.226 477.874C776.997 490.024 745.612 499.073 713.555 504.882C699.655 507.266 685.548 508.574 671.575 510.488C629.587 516.506 587.275 519.99 544.868 520.921C480.163 522.544 415.448 518.113 351.569 507.685C333.394 504.757 314.999 501.801 297.105 497.452C281.876 493.752 266.722 489.065 251.857 484.118C236.213 478.912 214.376 470.903 200.953 461.375C201.001 458.563 200.49 455.787 200.572 452.968C200.791 445.504 204.294 439.671 209.608 434.662Z" fill="#FAEBA3"/>
<path d="M827.852 470.984C835.854 467.026 843.671 462.144 850.905 456.923C854.633 461.864 862.114 465.64 866.965 469.585C886.08 485.131 904.221 504.17 914.082 527.121L914.044 527.308C902.139 538.296 849.116 586.4 835.686 588.492C836.316 582.183 834.907 577.437 833.945 571.326C833.433 568.074 833.309 564.729 833.089 561.448C830.871 531.323 829.125 501.164 827.852 470.984Z" fill="#F9B0A0"/>
<path d="M808.944 479.544C814.386 477.307 819.634 474.558 824.91 471.956C826.2 477.299 825.579 488.085 825.976 494.244L828.83 534.862C829.414 543.105 830.575 552.088 829.926 560.281C828.676 561.212 827.472 561.657 825.942 561.899C824.078 562.193 821.442 561.955 819.954 560.696C819.252 560.101 819.239 558.251 819.089 557.341C816.663 531.351 811.565 505.557 808.944 479.544Z" fill="#F9B0A0"/>
<path d="M215.925 516.304C218.041 502.825 219.887 489.141 222.75 475.804C234.69 480.971 246.767 485.297 259.108 489.4C257.254 498.34 255.34 507.266 253.365 516.179C243.598 514.838 226.301 516.088 215.925 516.304Z" fill="#8EECF5"/>
<path d="M751.124 499.386C760.725 496.933 769.929 493.358 779.276 490.121C788.008 487.097 796.819 484.326 805.446 481.004C806.287 481.058 805.866 480.927 806.666 481.514C809.565 508.022 813.706 534.314 817.204 560.741C805.415 553.44 793.818 547.113 781.17 541.391C772.592 537.669 764.109 533.715 755.061 531.257C753.244 520.806 752.412 509.926 751.124 499.386Z" fill="#F9B0A0"/>
<path d="M249.771 630.373L249.185 632.143C247.848 633.363 245.709 633.44 243.979 633.775C242.182 634.124 240.478 634.481 238.635 634.261C236.925 634.057 236.143 633.426 235.081 632.131C235.229 624.272 238.988 609.609 240.45 600.974C246.764 563.93 253.931 527.035 261.945 490.321C268.169 492.901 275.289 494.456 281.783 496.348C276.353 513.525 272.912 531.564 268.837 549.12L249.771 630.373Z" fill="#FBF8CC"/>
<path d="M278.673 516.107C279.924 509.534 281.54 503.185 283.659 496.838C299.555 501.349 315.713 504.876 332.043 507.399C342.482 509.069 352.955 510.22 363.364 512.129C355.124 513.238 346.703 513.292 338.417 514.036C331.809 514.63 325.255 515.977 318.659 516.474C315.855 514.816 293.713 515.974 289.201 516.228C286.004 516.407 282.485 517.275 279.325 516.934L278.673 516.107Z" fill="#FBF8CC"/>
<path d="M741.756 579.682C737.667 554.61 733.289 529.585 728.625 504.613L748.283 500.14C750.192 509.942 751.044 520.119 752.289 530.037C754.439 547.36 756.729 564.665 759.159 581.951C753.325 581.401 747.613 580.206 741.756 579.682Z" fill="#FFCFD2"/>
<path d="M697.93 510.024C707.411 508.614 716.782 507.084 726.171 505.136L726.865 505.515C727.538 511.29 728.477 517.043 729.329 522.794C722.929 519.966 716.662 516.861 710.109 514.392L697.93 510.024Z" fill="#FDE4CF"/>
<path d="M677.177 513.127C682.942 510.547 688.385 513.224 693.882 512.449L694.792 513.145C694.098 515.326 693.185 517.523 693.351 519.847L692.673 520.678C691.877 521.51 691.406 522.684 690.868 523.701C690.15 523.309 690.29 520.266 689.786 519.166C688.152 518.387 687.702 519.624 686.477 518.912C683.173 516.992 681.11 514.285 677.177 513.127Z" fill="#251D1C"/>
<path d="M695.418 512.886C696.575 512.573 697.573 512.172 698.761 512.561C697.93 516.437 696.508 519.365 697.037 523.414L696.109 523.883C694.959 523.695 694.149 523.667 693.214 522.913C692.433 522.283 692.708 521.607 692.673 520.678L693.351 519.847C694.772 518.169 695.89 515.983 696.222 513.81L695.418 512.886Z" fill="#1C1310"/>
<path d="M694.792 513.145L695.418 512.886L696.222 513.81C695.89 515.983 694.772 518.169 693.351 519.847C693.185 517.523 694.098 515.326 694.792 513.145Z" fill="#D4CDD7"/>
<path d="M698.761 512.561L700.567 513.661C699.681 516.415 698.988 519.138 698.374 521.963L697.387 523.499L697.037 523.414C696.508 519.365 697.93 516.437 698.761 512.561Z" fill="#D4CDD7"/>
<path d="M322.629 536.715C325.68 530.859 329.306 526.628 335.069 523.353C343.377 518.632 365.031 511.615 374.183 514.111L374.068 514.58C354.637 516.284 337.113 523.717 322.629 536.715Z" fill="#98F5E1"/>
<path d="M657.931 515.187C664.292 514.135 670.802 514.214 677.177 513.127C681.11 514.285 683.173 516.992 686.477 518.912C687.702 519.624 688.152 518.387 689.786 519.166C690.29 520.266 690.15 523.309 690.868 523.701C691.406 522.684 691.877 521.51 692.673 520.678C692.708 521.607 692.433 522.283 693.214 522.913C694.149 523.667 694.959 523.695 696.109 523.883L697.037 523.414L697.387 523.499C696.994 525.003 696.803 525.236 697.562 526.639C697.631 526.766 697.728 526.876 697.81 526.995C697.384 527.644 696.985 528.284 696.484 528.878C694.227 527.471 691.712 525.54 689.226 524.641C688.325 525.949 688.223 525.885 688.463 527.436C689.112 528.168 689.72 528.83 690.49 529.435L690.017 529.909C684.99 527.411 680.408 524.11 675.21 521.802C669.585 519.304 663.435 517.919 657.931 515.187Z" fill="#8EECF5"/>
<path d="M700.567 513.661C701.731 513.91 702.181 514.371 703.02 515.189C702.879 515.855 702.558 516.353 702.981 516.959C704.021 518.445 707.005 519.124 708.603 520.029C707.399 520.054 706.195 520.065 704.991 520.063C705.046 521.152 705.24 521.113 705.915 521.905C704.211 521.066 703.237 520.312 701.319 520.421C700.726 521.092 700.307 521.693 699.891 522.487L698.374 521.963C698.988 519.138 699.681 516.415 700.567 513.661Z" fill="#251D1C"/>
<path d="M374.183 514.111C383.885 515.521 393.61 516.769 403.354 517.853C409.912 518.549 417.624 518.505 423.92 520.336C414.482 523.699 363.298 539.576 359.162 543.504L359.598 543.966C365.028 543.559 372.559 539.592 377.951 537.746C391.627 533.064 405.599 528.878 419.109 523.766C421.045 523.033 423.065 522.306 424.656 520.94C427.883 519.689 470.557 523.322 478.207 523.684C498.979 524.667 519.735 523.714 540.504 523.469C540.245 523.659 539.988 523.853 539.725 524.038C533.947 528.095 525.536 530.697 518.977 533.329C508.046 537.714 429.68 566.212 427.437 569.001C436.633 566.968 450.819 560.57 460.227 557.032C486.15 547.281 512.121 537.807 537.466 526.601C537.469 527.246 537.508 527.86 537.221 528.463C534.512 534.153 532.528 535.323 530.774 542.484C530.562 543.349 530.331 544.209 530.123 545.075C529.364 548.577 527.832 552.597 529.33 556.028C522.289 558.727 484.938 572.055 480.693 575.68C494.324 572.183 506.96 564.827 520.452 560.829L520.69 561.51C524.163 560.215 531.104 556.492 534.66 557.706C535.446 558.786 535.48 559.396 535.317 560.732C534.421 568.067 531.899 575.404 530.704 582.76C530.362 584.867 532.73 591.124 531.137 592.101C528.797 593.537 525.117 593.028 522.395 593.985C510.466 594.888 497.429 593.831 485.446 593.165C440.026 590.64 371.818 582.414 334.713 555.046C329.971 551.548 326.003 547.545 322.079 543.165C322.058 542.661 322.023 542.628 322.187 542.061C322.821 539.878 326.03 537.116 327.709 535.572C337.277 526.772 349.799 522.188 362.217 519.102C365.998 518.162 370.843 517.535 374.143 515.534L374.068 514.58L374.183 514.111ZM473.297 526.462C461.857 530.921 450.148 534.393 438.56 538.412C425.892 542.805 413.348 547.652 400.794 552.359C395.336 554.405 385.271 557.21 380.72 560.373L380.938 560.88L382.183 560.987C400.665 553.713 419.267 546.745 437.98 540.084C444.488 537.781 470.419 530.115 474.735 527.099L474.578 526.522L473.297 526.462Z" fill="#8EECF5"/>
<path d="M656.599 517.329L657.438 516.864L656.982 516.249L657.931 515.187C663.435 517.919 669.585 519.304 675.21 521.802C680.408 524.11 684.99 527.411 690.017 529.909C695.863 535.185 698.797 539.84 699.287 547.912C698.882 551.689 698.062 554.6 696.174 557.952C690.03 565.151 681.358 570.222 672.707 573.836C669.827 575.039 666.67 575.971 663.877 577.326C620.087 589.567 574.903 596.116 529.439 596.81C515.567 597.115 501.748 596.382 487.889 596.38C483.497 594.918 459.692 594.249 452.672 593.508C417.505 589.795 366.305 579.576 336.807 559.502C330.805 555.417 325.753 550.164 320.651 545.044C321.175 544.474 321.617 543.788 322.079 543.165C326.003 547.545 329.971 551.548 334.713 555.046C371.818 582.414 440.026 590.64 485.446 593.165C497.429 593.831 510.466 594.888 522.395 593.985C557.599 594.579 593.894 589.998 628.395 583.298C649.322 579.4 670.121 574.454 687.862 562.27C688.711 561.626 689.548 560.966 690.372 560.29C694.423 556.947 695.987 553.372 696.457 548.229L696.589 547.334C696.483 546.515 696.374 545.705 696.222 544.893C694.933 537.99 691.757 534.258 686.15 530.356C677.246 524.341 666.7 520.791 656.599 517.329Z" fill="#251D1C"/>
<path d="M276.185 527.19C277.19 523.561 277.87 519.789 278.673 516.107L279.325 516.934C282.485 517.275 286.004 516.407 289.201 516.228C293.713 515.974 315.855 514.816 318.659 516.474C304.721 520.514 290.246 523.44 276.185 527.19Z" fill="#B9FBC0"/>
<path d="M708.603 520.029C707.005 519.124 704.021 518.445 702.981 516.959C702.558 516.353 702.879 515.855 703.02 515.189C711.865 518.313 720.497 522.588 729.456 525.261C729.919 527.213 730.458 529.178 730.774 531.16C724.421 527.954 714.954 522.241 708.603 520.029Z" fill="#EBB6B3"/>
<path d="M215.925 516.304C226.301 516.088 243.598 514.838 253.365 516.179C252.058 522.444 250.649 528.688 249.14 534.907C234.202 538.5 219.838 547.911 209.27 558.88C211.75 544.782 213.736 530.461 215.925 516.304Z" fill="#B9FBC0"/>
<path d="M541.984 523.797C546.408 522.811 552.032 523.272 556.615 523.11C567.28 522.79 577.941 522.332 588.595 521.735C599.836 521.046 611.061 520.127 622.264 518.978C631.268 517.999 640.338 516.538 649.377 516.058C651.746 515.933 654.31 516.759 656.599 517.329C666.7 520.791 677.246 524.341 686.15 530.356C685.277 534.378 683.568 543.345 686.054 546.917C686.446 547.48 686.598 547.512 687.407 547.407C688.546 547.259 689.666 546.237 690.774 546.028C692.356 545.73 694.977 547.03 696.589 547.334L696.457 548.229C693.136 548.244 687.04 548.33 684.533 550.776C683.523 551.762 683.1 552.727 683.132 554.13C683.213 557.747 685.939 559.655 687.862 562.27C670.121 574.454 649.322 579.4 628.395 583.298C624.465 578.517 596.466 571.915 589.798 570.349C584.179 569.029 576.009 568.267 571.213 565.02C579.153 561.938 623.863 544.855 627.399 540.876C624.705 540.438 597.379 552.726 592.552 554.616C592.17 554.12 591.892 553.522 591.405 553.127C587.632 550.064 559.155 555.694 552.627 552.948C551.027 552.275 550.587 550.957 549.935 549.475C560.753 545.122 583.09 537.489 591.658 531.391C590.46 531.081 542.566 550.725 537.006 553.048C534.643 550.543 532.079 547.906 530.123 545.075C530.331 544.209 530.562 543.349 530.774 542.484C532.528 535.323 534.512 534.153 537.221 528.463C537.508 527.86 537.469 527.246 537.466 526.601L541.984 523.797ZM667.938 551.115C663.816 551.31 632.568 562.654 629.747 565.251C631.801 565.793 634.489 564.366 636.346 563.596C636.514 563.876 636.692 564.15 636.851 564.435C637.423 565.454 637.836 566.376 638.92 566.966C644.231 569.857 652.409 570.708 658.148 569.064C666.827 566.579 671.61 560.393 675.869 552.96C672.76 552.831 670.701 552.684 667.938 551.115Z" fill="#FDE4CF"/>
<path d="M275.385 530.486C297.314 524.289 319.845 518.006 342.695 516.782L342.884 516.769L343.12 517.039C337.328 519.659 331.444 523.146 325.448 525.159C320.95 526.669 315.908 527.372 311.276 528.454C299.063 531.307 286.483 534.04 274.737 538.5L274.158 538.396C273.553 536.366 274.922 532.596 275.385 530.486Z" fill="#B9FBC0"/>
<path d="M112.178 716.889C111.209 707.985 106.806 698.919 103.445 690.673C92.7116 664.341 80.8038 637.661 83.5284 608.503C85.7088 585.168 96.6439 559.779 115.025 544.684C137.048 526.6 167.048 519.844 194.916 517.768C200.858 517.325 207.244 516.554 213.181 517.146C210.577 531.783 208.369 546.448 205.922 561.103C201.64 586.745 194.472 612.913 210.608 636.12C215.155 642.661 220.961 648.848 227.426 653.53L207.66 767.885C200.503 765.199 192.727 763.966 185.448 761.378C155.468 750.715 140.762 740.293 116.105 720.982L112.178 716.889Z" fill="#B9FBC0"/>
<path d="M699.891 522.487C700.307 521.693 700.726 521.092 701.319 520.421C703.237 520.312 704.211 521.066 705.915 521.905L731.171 534.135C734.743 550.843 737.093 567.829 739.818 584.695C728.065 584.011 715.352 579.543 704.238 575.911C704.812 575.479 705.374 575.033 705.926 574.574C713.616 568.238 719.464 560.034 720.389 549.883C721.01 543.066 719.3 536.691 714.862 531.401C713.341 529.43 711.567 527.79 709.709 526.144C707.848 524.496 704.819 521.498 702.278 521.645L701.937 523.829L699.891 522.487Z" fill="#F9B0A0"/>
<path d="M424.656 520.94C423.065 522.306 421.045 523.033 419.109 523.766C405.599 528.878 391.627 533.064 377.951 537.746C372.559 539.592 365.028 543.559 359.598 543.966L359.162 543.504C363.298 539.576 414.482 523.699 423.92 520.336L424.656 520.94Z" fill="#0A0805"/>
<path d="M698.374 521.963L699.891 522.487L701.937 523.829L702.278 521.645C704.819 521.498 707.848 524.496 709.709 526.144C711.567 527.79 713.341 529.43 714.862 531.401C714.653 531.316 714.44 531.237 714.233 531.146C712.455 530.369 710.778 528.655 709.433 527.27L708.767 527.489L708.517 528.745C709.591 530.068 711.432 530.321 712.213 531.777L712.081 532.536C710.308 531.372 708.544 530.193 706.791 529L705.76 527.547L706.674 526.889L706.617 526.446L705.285 525.689C703.595 525.977 703.495 528.434 701.765 529.31L701.021 528.739C701.243 527.746 701.48 526.756 701.732 525.771L701.298 525.347C700.491 525.45 700.086 525.486 699.428 526.006C698.683 526.596 699.161 526.339 698.293 526.773C698.135 526.852 697.971 526.921 697.81 526.995C697.728 526.876 697.631 526.766 697.562 526.639C696.803 525.236 696.994 525.003 697.387 523.499L698.374 521.963Z" fill="#1C1310"/>
<path d="M540.504 523.469C541.664 523.424 541.188 523.255 541.984 523.797L537.466 526.601C512.121 537.807 486.15 547.281 460.227 557.032C450.819 560.57 436.633 566.968 427.437 569.001C429.68 566.212 508.046 537.714 518.977 533.329C525.536 530.697 533.947 528.095 539.725 524.038C539.988 523.853 540.245 523.659 540.504 523.469Z" fill="#0A0805"/>
<path d="M697.81 526.995C697.971 526.921 698.135 526.852 698.293 526.773C699.161 526.339 698.683 526.596 699.428 526.006C700.086 525.486 700.491 525.45 701.298 525.347L701.732 525.771C701.48 526.756 701.243 527.746 701.021 528.739L701.765 529.31C703.495 528.434 703.595 525.977 705.285 525.689L706.617 526.446L706.674 526.889L705.76 527.547L706.791 529C705.306 535.805 711.966 537.257 707.479 548.528C704.865 547.849 701.609 549.206 699.287 547.912C698.797 539.84 695.863 535.185 690.017 529.909L690.49 529.435C689.72 528.83 689.112 528.168 688.463 527.436C688.223 525.885 688.325 525.949 689.226 524.641C691.712 525.54 694.227 527.471 696.484 528.878C696.985 528.284 697.384 527.644 697.81 526.995Z" fill="#8EECF5"/>
<path d="M382.183 560.987L380.938 560.88L380.72 560.373C385.271 557.21 395.336 554.405 400.794 552.359C413.348 547.652 425.892 542.805 438.56 538.412C450.148 534.393 461.857 530.921 473.297 526.462L474.578 526.522L474.735 527.099C470.419 530.115 444.488 537.781 437.98 540.084C419.267 546.745 400.665 553.713 382.183 560.987Z" fill="#0A0805"/>
<path d="M835.686 588.492C849.116 586.4 902.139 538.296 914.044 527.308C917.767 533.178 919.58 540.787 920.989 547.516C925.917 569.932 925.779 593.165 920.584 615.52C914.052 644.605 901.229 673.45 881.404 695.908C876.113 701.903 870.088 707.28 864.182 712.656C854.449 721.515 843.934 730.099 832.792 737.13C819.523 745.504 801.764 756.393 786.398 759.838C783.02 740.283 780.164 720.642 777.833 700.936C776.598 690.292 776.332 679.249 774.388 668.733C784.403 662.239 795.381 657.399 804.941 650.141C810.616 645.834 815.517 640.48 820.474 635.387C822.358 641.583 839.014 700.166 838.169 702.586C837.589 704.248 835.436 705.393 834.899 707.247C834.405 708.955 834.633 710.334 835.643 711.799C836.825 713.511 839.286 714.408 841.246 714.715C844.059 715.156 847.477 714.735 849.793 712.951C851.095 711.949 851.795 710.641 851.989 709.006C852.287 706.487 850.798 704.53 849.178 702.812C849.044 702.669 848.907 702.53 848.771 702.389C846.505 681.538 842.843 660.669 839.566 639.951C838.292 631.9 836.727 623.79 835.837 615.688C835.328 611.044 833.941 591.847 835.686 588.492ZM882.737 591.641C875.56 593.746 868.632 598.229 861.784 601.317C858.169 602.947 839.368 609.96 838.31 611.47L839.113 612.156C847.681 608.61 856.392 605.218 864.783 601.27C870.938 598.374 876.866 594.823 883.123 592.191L883.041 591.697L882.737 591.641ZM866.416 608.102C862.73 609.402 838.707 618.952 837.409 620.624C837.753 621.405 837.5 621.147 838.038 621.509C841.369 620.165 866.025 609.479 866.651 608.341L866.416 608.102Z" fill="#CFBAF0"/>
<path d="M272.863 542.137C289.53 536.424 306.95 532.289 324.175 528.641C324.264 528.823 324.454 528.985 324.44 529.187C324.424 529.419 319.243 537.951 318.558 540.125C316.303 547.279 316.347 553.985 319.974 560.747C329.779 579.027 359.263 588.862 378.337 594.518C351.734 601.764 325.513 610.212 299.121 618.179C283.21 622.549 267.674 627.944 251.644 632.004L272.863 542.137Z" fill="#B9FBC0"/>
<path d="M706.791 529C708.544 530.193 710.308 531.372 712.081 532.536C716.351 538.015 718.452 543.418 717.576 550.507C716.35 560.44 709.46 568.158 701.774 573.983C693.047 580.596 679.286 586.534 668.633 588.749C666.692 588.093 663.943 588.834 662.114 589.637C661.302 589.994 660.647 590.26 659.758 590.4C656.639 588.778 655.364 584.307 653.596 581.455L653.348 581.06C656.893 580.086 660.513 579.209 663.942 577.878L663.877 577.326C666.67 575.971 669.827 575.039 672.707 573.836C681.358 570.222 690.03 565.151 696.174 557.952C697.564 558.97 697.94 559.479 699.696 559.553C703.739 557.791 705.632 552.257 707.479 548.528C711.966 537.257 705.306 535.805 706.791 529Z" fill="#FDE4CF"/>
<path d="M686.15 530.356C691.757 534.258 694.933 537.99 696.222 544.893C696.374 545.705 696.483 546.515 696.589 547.334C694.977 547.03 692.356 545.73 690.774 546.028C689.666 546.237 688.546 547.259 687.407 547.407C686.598 547.512 686.446 547.48 686.054 546.917C683.568 543.345 685.277 534.378 686.15 530.356Z" fill="#CFBAF0"/>
<path d="M549.935 549.475C543.931 551.891 537.88 554.189 531.786 556.367C528.137 557.703 523.811 558.896 520.452 560.829C506.96 564.827 494.324 572.183 480.693 575.68C484.938 572.055 522.289 558.727 529.33 556.028L537.006 553.048C542.566 550.725 590.46 531.081 591.658 531.391C583.09 537.489 560.753 545.122 549.935 549.475Z" fill="#0A0805"/>
<path d="M817.527 573.818C815.715 573.99 807.202 566.129 805.21 564.65C795.857 557.706 785.689 552.457 775.314 547.254C773.198 546.192 757.051 539.335 756.571 538.874C755.288 537.642 755.462 535.477 755.282 533.784C777.077 541.307 799.101 550.668 817.817 564.335C817.536 567.466 817.589 570.672 817.527 573.818Z" fill="#F9B0A0"/>
<path d="M208.02 575.716L207.237 576.784C207.152 576.542 207.009 576.312 206.981 576.056C206.652 573.037 207.995 567.19 209.324 564.569C215.169 553.041 234.497 543.038 246.151 538.996C247.366 538.946 246.754 538.901 247.989 539.146C248.73 541.428 247.303 545.196 246.739 547.526C232.417 551.538 216.259 563.361 208.02 575.716Z" fill="#98F5E1"/>
<path d="M560.617 568.486C570.985 563.316 581.87 559.097 592.552 554.616C597.379 552.726 624.705 540.438 627.399 540.876C623.863 544.855 579.153 561.938 571.213 565.02C567.712 566.351 564.287 567.699 560.617 568.486Z" fill="#0A0805"/>
<path d="M816.488 582.259C808.266 574.301 799.043 566.534 789.218 560.65C784.544 557.851 757.503 545.145 756.695 544.047C756.21 543.386 756.411 543.503 756.656 542.602C765.01 543.125 794.244 560.032 802.89 565.814C807.829 569.116 816.322 573.94 817.558 580.133L818.312 579.575C822.496 580.502 826.744 582.621 829.121 586.372C830 587.758 830.646 589.367 831.188 590.914L828.442 599.143C824.93 593.083 820.918 587.66 816.488 582.259Z" fill="#EBB6B3"/>
<path d="M529.33 556.028C527.832 552.597 529.364 548.577 530.123 545.075C532.079 547.906 534.643 550.543 537.006 553.048L529.33 556.028Z" fill="#EBB6B3"/>
<path d="M541.463 608.527C512.417 609.779 483.318 608.925 454.395 605.969C420.526 602.517 364.927 592.083 336.56 573.33C329.163 568.44 321.489 561.695 319.901 552.474C319.535 550.351 319.368 546.851 320.651 545.044C325.753 550.164 330.805 555.417 336.807 559.502C366.305 579.576 417.505 589.795 452.672 593.508C459.692 594.249 483.497 594.918 487.889 596.38C487.648 596.426 487.408 596.481 487.166 596.519C486.325 596.651 485.943 596.616 485.151 596.392L484.692 596.865C485.746 597.223 486.779 597.587 487.81 598.01C488.294 599.713 488.455 601.718 487.653 603.37C487.259 604.181 486.598 604.599 485.885 605.089C495.954 606.886 535.842 601.41 541.057 607.92C541.209 608.11 541.328 608.325 541.463 608.527Z" fill="url(#paint1_linear_407_173)"/>
<path d="M699.287 547.912C701.609 549.206 704.865 547.849 707.479 548.528C705.632 552.257 703.739 557.791 699.696 559.553C697.94 559.479 697.564 558.97 696.174 557.952C698.062 554.6 698.882 551.689 699.287 547.912Z" fill="#EBB6B3"/>
<path d="M687.862 562.27C685.939 559.655 683.213 557.747 683.132 554.13C683.1 552.727 683.523 551.762 684.533 550.776C687.04 548.33 693.136 548.244 696.457 548.229C695.987 553.372 694.423 556.947 690.372 560.29C689.548 560.966 688.711 561.626 687.862 562.27Z" fill="#F8B174"/>
<path d="M762.746 590.342C760.755 576.213 758.521 561.849 757.289 547.64C784.175 559.12 811.719 573.89 826.483 600.409L814.464 598.97C808.649 597.512 801.83 597.332 795.833 596.622C790.089 595.837 765.989 589.721 762.746 590.342Z" fill="#F9B0A0"/>
<path d="M520.452 560.829C523.811 558.896 528.137 557.703 531.786 556.367C537.88 554.189 543.931 551.891 549.935 549.475C550.587 550.957 551.027 552.275 552.627 552.948C559.155 555.694 587.632 550.064 591.405 553.127C591.892 553.522 592.17 554.12 592.552 554.616C581.87 559.097 570.985 563.316 560.617 568.486C564.287 567.699 567.712 566.351 571.213 565.02C576.009 568.267 584.179 569.029 589.798 570.349C596.466 571.915 624.465 578.517 628.395 583.298C593.894 589.998 557.599 594.579 522.395 593.985C525.117 593.028 528.797 593.537 531.137 592.101C532.73 591.124 530.362 584.867 530.704 582.76C531.899 575.404 534.421 568.067 535.317 560.732C535.48 559.396 535.446 558.786 534.66 557.706C531.104 556.492 524.163 560.215 520.69 561.51L520.452 560.829Z" fill="#CFBAF0"/>
<path d="M636.346 563.596C634.489 564.366 631.801 565.793 629.747 565.251C632.568 562.654 663.816 551.31 667.938 551.115C664.544 554.201 641.997 561.52 636.346 563.596Z" fill="#0A0805"/>
<path d="M667.938 551.115C670.701 552.684 672.76 552.831 675.869 552.96C671.61 560.393 666.827 566.579 658.148 569.064C652.409 570.708 644.231 569.857 638.92 566.966C637.836 566.376 637.423 565.454 636.851 564.435C636.692 564.15 636.514 563.876 636.346 563.596C641.997 561.52 664.544 554.201 667.938 551.115Z" fill="#FAD26E"/>
<path d="M218.119 618.914C214.188 614.868 210.712 610.179 208.473 604.977C205.611 598.329 204.385 589.81 207.226 582.998C213.311 568.408 231.01 557.031 245.065 551.449L245.702 551.746C246.044 553.849 233.469 622.919 232.056 630.493C227.061 626.975 222.485 623.192 218.119 618.914Z" fill="#B9FBC0"/>
<path d="M831.132 565.299C828.275 566.106 822.729 566.618 819.883 565.698L819.471 564.683C822.383 565 829.293 563.898 831.132 565.299Z" fill="#D4CDD7"/>
<path d="M819.593 576.265C819.672 574.213 819.043 570.609 820.391 568.926C820.919 568.266 822.422 568.325 823.248 568.211L830.943 568.101C831.132 570.594 832.287 573.587 830.704 575.733L828.625 575.821C825.576 575.741 822.624 575.982 819.593 576.265Z" fill="#EBB6B3"/>
<path d="M642.773 598.609C663.702 593.391 686.386 588.566 704.238 575.911C715.352 579.543 728.065 584.011 739.818 584.695C742.489 597.8 745.259 610.884 748.127 623.947C749.581 630.398 753.987 645.29 753.809 651.244L752.416 652.519C750.981 652.475 749.862 651.951 748.57 651.342C741.145 647.84 734.1 643.461 726.716 639.847C698.582 626.414 670.6 612.667 642.773 598.609Z" fill="#F1C0E8"/>
<path d="M487.889 596.38C501.748 596.382 515.567 597.115 529.439 596.81C574.903 596.116 620.087 589.567 663.877 577.326L663.942 577.878C660.513 579.209 656.893 580.086 653.348 581.06L653.596 581.455C655.364 584.307 656.639 588.778 659.758 590.4C660.647 590.26 661.302 589.994 662.114 589.637C663.943 588.834 666.692 588.093 668.633 588.749C635.463 599.842 576.466 607.949 541.463 608.527C541.328 608.325 541.209 608.11 541.057 607.92C535.842 601.41 495.954 606.886 485.885 605.089C486.598 604.599 487.259 604.181 487.653 603.37C488.455 601.718 488.294 599.713 487.81 598.01C486.779 597.587 485.746 597.223 484.692 596.865L485.151 596.392C485.943 596.616 486.325 596.651 487.166 596.519C487.408 596.481 487.648 596.426 487.889 596.38Z" fill="url(#paint2_linear_407_173)"/>
<path d="M741.756 579.682C747.613 580.206 753.325 581.401 759.159 581.951L759.886 588.162C754.229 587.892 748.388 586.323 742.726 585.641L741.756 579.682Z" fill="#FDE4CF"/>
<path d="M742.726 585.641C748.388 586.323 754.229 587.892 759.886 588.162C760.419 596.034 761.82 604.054 762.902 611.877C764.489 623.343 765.92 634.945 768.41 646.252C763.687 646.191 760.698 646.384 756.375 648.441C751.165 627.82 747.12 606.481 742.726 585.641Z" fill="#FFCFD2"/>
<path d="M762.746 590.342C765.989 589.721 790.089 595.837 795.833 596.622C790.943 601.024 785.183 604.277 780.32 608.644C784.882 607.389 812.4 600.252 814.464 598.97L826.483 600.409C826.794 601.258 826.743 601.522 826.379 602.395C825.461 604.6 823.322 606.931 821.858 608.794C809.584 624.421 788.936 638.355 770.514 646.068C769.037 639.167 768.486 632.047 767.532 625.053C765.865 613.493 764.27 601.922 762.746 590.342Z" fill="#F1C0E8"/>
<path d="M839.113 612.156L838.31 611.47C839.368 609.96 858.169 602.947 861.784 601.317C868.632 598.229 875.56 593.746 882.737 591.641L883.041 591.697L883.123 592.191C876.866 594.823 870.938 598.374 864.783 601.27C856.392 605.218 847.681 608.61 839.113 612.156Z" fill="#F1C0E8"/>
<path d="M250.816 635.22C268.049 631.337 284.91 625.713 301.783 620.512C328.886 612.158 355.846 603.743 383.284 596.539C386.428 596.469 390.025 597.789 393.079 598.577C381.218 602.596 368.969 605.86 356.971 609.481C323.678 619.529 290.176 629.101 257.039 639.639C254.321 640.357 251.66 641.415 249.01 642.351C249.701 639.997 250.246 637.606 250.816 635.22Z" fill="#98F5E1"/>
<path d="M795.833 596.622C801.83 597.332 808.649 597.512 814.464 598.97C812.4 600.252 784.882 607.389 780.32 608.644C785.183 604.277 790.943 601.024 795.833 596.622Z" fill="#CFBAF0"/>
<path d="M628.268 601.503C631.732 600.79 635.255 600.275 638.742 599.683C638.942 599.685 639.147 599.648 639.343 599.688C640.823 599.993 655.779 608.289 658.375 609.58C687.07 623.855 718.003 637.636 745.704 653.303C747.331 654.223 748.71 655.08 749.457 656.857L748.882 657.584C747.076 657.847 745.669 656.838 744.123 656.032C734.699 651.411 724.89 647.446 715.346 643.06C696.567 634.405 677.885 625.543 659.301 616.475C648.963 611.503 638.446 606.794 628.268 601.503Z" fill="#FFCFD2"/>
<path d="M832.413 609.092C831.329 605.242 830.306 603.069 832.37 599.358C833.014 602.168 832.937 606.251 832.413 609.092Z" fill="#D4CDD7"/>
<path d="M253.945 644.071C263.454 640.433 273.631 637.949 283.375 634.965L348.516 615.335L382.094 604.924C387.338 603.332 393.561 600.772 399.054 600.498C406.312 600.136 420.145 603.84 427.66 605.154C437.782 606.924 448 608.123 458.195 609.391C459.185 635.172 457.228 650.191 443.655 673.164C440.76 678.064 437.192 682.546 434.306 687.428C426.075 687.537 415.596 685.521 407.282 684.556C358.743 678.925 297.203 667.223 253.945 644.071Z" fill="#B9FBC0"/>
<path d="M532.199 611.699C563.114 610.876 593.618 607.096 624.141 602.33C635.295 607.219 646.163 613.337 657.192 618.603C685.777 632.568 714.679 645.875 743.875 658.512C672.324 681.716 606.381 691.393 531.279 692.015C522.471 668.357 523.186 635.037 532.199 611.699Z" fill="#F1C0E8"/>
<path d="M228.789 647.402C228.668 648.314 228.643 648.436 228.062 649.217C225.468 648.516 223.006 645.858 221.152 643.931C209.945 632.276 203.796 620.677 204.056 604.361C206.005 606.483 207.186 610.366 208.792 612.928C214.188 621.532 223.002 628.278 231.444 633.642C230.422 638.213 229.577 642.787 228.789 647.402Z" fill="#98F5E1"/>
<path d="M771.143 649.648C796.107 635.473 809.64 628.413 828.236 604.856C829.526 607.275 829.958 610.726 830.591 613.397C828.679 618.265 826.625 623.003 823.579 627.285C813.509 641.443 800.333 650.518 785.648 659.214C782.532 661.058 778.331 664.134 774.779 664.724C774.493 659.078 773.764 654.705 771.143 649.648Z" fill="#F1C0E8"/>
<path d="M838.038 621.509C837.5 621.147 837.753 621.405 837.409 620.624C838.707 618.952 862.73 609.402 866.416 608.102L866.651 608.341C866.025 609.479 841.369 620.165 838.038 621.509Z" fill="#F1C0E8"/>
<path d="M458.195 609.391C482.084 611.763 508.292 613.364 532.199 611.699C523.186 635.037 522.471 668.357 531.279 692.015C499.17 692.157 466.169 691.608 434.306 687.428C437.192 682.546 440.76 678.064 443.655 673.164C457.228 650.191 459.185 635.172 458.195 609.391Z" fill="#FFCFD2"/>
<path d="M838.901 651.113C835.688 650.305 833.253 651.595 830.565 653.302C829.922 653.71 829.895 653.747 829.382 654.147C829.577 654.253 829.766 654.371 829.968 654.465C831.32 655.094 833.689 654.34 835.091 653.856C837.108 653.16 837.967 653.032 838.901 651.113C839.664 661.922 847.186 696.645 844.843 704.155L844.022 704.633C842.251 703.512 841.395 701.276 840.665 699.391C838.726 694.383 837.661 688.777 836.295 683.577L828.433 653.88C826.365 646.966 824.567 640.011 822.191 633.188C826.957 628.043 829.717 621.822 832.661 615.559C834.89 627.384 836.971 639.236 838.901 651.113Z" fill="#CFBAF0"/>
<path d="M233.982 635.737C237.411 637.748 240.723 639.988 244.065 642.139C240.396 643.26 236.756 644.598 232.958 645.196L232.338 644.409C232.401 641.459 233.283 638.591 233.982 635.737Z" fill="#98F5E1"/>
<path d="M244.065 642.139L244.078 643.775C242.205 645.114 240.131 645.939 238.032 646.855C236.401 645.427 234.816 645.693 232.757 645.681L232.958 645.196C236.756 644.598 240.396 643.26 244.065 642.139Z" fill="#382B28"/>
<path d="M244.078 643.775C245.093 643.908 246.055 644.019 247.043 644.299C243.252 648.627 238.795 651.117 233.862 653.942C233.497 653.938 233.096 653.963 232.751 653.808C231.46 653.232 231.34 652.766 231.057 651.526L231.889 650.264C234.073 649.343 236.02 648.095 238.032 646.855C240.131 645.939 242.205 645.114 244.078 643.775Z" fill="#98F5E1"/>
<path d="M247.043 644.299L248.648 644.227C249.48 644.993 250.038 645.553 251.096 646.011C249.941 646.616 248.855 647.014 248.256 648.246C247.309 649.052 246.553 650.052 245.256 650.148C245.156 650.156 245.063 650.093 244.967 650.065C241.46 651.855 237.947 654.173 234.285 655.563L233.862 653.942C238.795 651.117 243.252 648.627 247.043 644.299Z" fill="#251D1C"/>
<path d="M231.889 650.264C231.621 649.835 231.459 649.228 231.28 648.75C231.532 647.327 231.892 646.779 232.757 645.681C234.816 645.693 236.401 645.427 238.032 646.855C236.02 648.095 234.073 649.343 231.889 650.264Z" fill="#366450"/>
<path d="M248.256 648.246C248.855 647.014 249.941 646.616 251.096 646.011C307.135 674.451 370.213 684.162 432.156 690.352C427.386 695.274 421.554 700.971 417.904 706.771C358.984 700.767 299.199 686.651 245.362 661.735C246.561 657.311 247.342 652.737 248.256 648.246Z" fill="#B9FBC0"/>
<path d="M244.967 650.065C245.063 650.093 245.156 650.156 245.256 650.148C246.553 650.052 247.309 649.052 248.256 648.246C247.342 652.737 246.561 657.311 245.362 661.735C244.566 660.873 243.998 660.795 242.868 660.576C243.862 657.181 244.832 653.611 244.967 650.065Z" fill="#382B28"/>
<path d="M762.222 650.608C760.743 650.868 758.942 651.475 757.523 650.845C758.679 649.891 759.958 649.859 761.386 649.667C763.018 649.552 764.319 649.393 765.879 650.026C764.772 650.728 763.517 650.546 762.222 650.608Z" fill="#382B28"/>
<path d="M234.285 655.563C237.947 654.173 241.46 651.855 244.967 650.065C244.832 653.611 243.862 657.181 242.868 660.576C239.662 659.472 236.977 657.562 234.285 655.563Z" fill="#B9FBC0"/>
<path d="M829.382 654.147C829.895 653.747 829.922 653.71 830.565 653.302C833.253 651.595 835.688 650.305 838.901 651.113C837.967 653.032 837.108 653.16 835.091 653.856C833.689 654.34 831.32 655.094 829.968 654.465C829.766 654.371 829.577 654.253 829.382 654.147Z" fill="#FFCFD2"/>
<path d="M762.469 667.648C760.462 667.402 758.263 666.868 757.078 665.039C756.115 663.553 756 662.108 756.387 660.425C757.084 657.388 759.361 655.056 761.888 653.402C762.645 653.453 763.496 653.473 764.229 653.666C765.984 654.129 767.384 655.28 768.131 656.935C768.973 658.799 768.797 660.889 768.025 662.746C766.882 665.495 765.145 666.601 762.469 667.648Z" fill="#E6DFD5"/>
<path d="M771.493 667.914C769.326 669.693 766.894 671.301 764.117 671.905C761.213 672.536 758.119 672.258 755.646 670.5C753.476 668.958 752.184 666.496 751.825 663.881C751.382 660.656 752.547 656.215 754.593 653.704L755.617 654.051C756.315 655.142 753.432 659.816 753.87 663.442C754.091 665.272 755.193 667.276 756.656 668.409C758.412 669.77 760.618 670.118 762.765 669.711C765.254 669.238 767.823 667.703 769.226 665.561C770.795 663.164 770.352 659.279 769.787 656.603C769.565 655.55 769.388 655.135 769.625 654.077L770.657 654.584C771.909 658.94 771.61 663.435 771.493 667.914Z" fill="#E6DFD5"/>
<path d="M242.323 663.4L218.08 760.089C217.311 763.866 216.392 767.678 215.904 771.5C215.211 771.678 215.053 771.749 214.255 771.784C212.939 771.84 211.384 771.559 210.435 770.62C210.584 762.657 213.878 747.894 215.26 739.336C219.733 711.643 224.172 683.605 230.203 656.21C233.98 659.203 238.016 661.279 242.323 663.4Z" fill="#FBF8CC"/>
<path d="M534.336 694.97C555.477 694.194 576.521 693.638 597.606 691.76C629.932 688.7 662.004 683.378 693.586 675.831C704.167 673.435 714.646 670.614 725 667.377C733.015 664.812 741.252 661.318 749.456 659.561C749.421 664.94 750.338 669.07 751.969 674.177C689.749 698.591 609.685 710.437 542.904 711.719L542.337 711.38C539.97 705.766 536.408 700.715 534.336 694.97Z" fill="#F1C0E8"/>
<path d="M244.279 664.628C296.632 690.043 357.616 702.509 415.101 709.555C386.631 743.425 325.545 767.91 282.05 771.795C269.866 772.883 257.203 774.043 245.002 773.163C239.041 772.707 233.091 772.135 227.153 771.448C224.203 771.102 221.182 770.357 218.214 770.371C218.453 767.808 219.083 765.137 219.513 762.591C228.735 730.278 236.212 697.262 244.279 664.628Z" fill="#B9FBC0"/>
<path d="M782.713 785.411C775.144 758.673 768.393 731.71 762.469 704.56C760.162 694.466 756.948 684.307 755.213 674.119L755.632 673.74C756.511 674.028 757.395 674.325 758.293 674.55C762.745 675.664 767.459 673.716 771.194 671.398L771.81 671.009C771.864 671.224 771.921 671.438 771.973 671.653C772.797 675.055 772.876 678.997 773.252 682.49C774.052 690.202 774.904 697.91 775.809 705.611C778.527 727.735 781.773 749.792 785.543 771.761C786.348 776.558 790.422 792.917 788.149 796.55L787.238 796.586C784.379 794.518 783.605 788.751 782.713 785.411Z" fill="#FFCFD2"/>
<path d="M543.174 714.494C611.721 713.543 688.575 700.624 752.929 676.919L767.843 739.156C770.092 748.284 771.996 757.767 774.915 766.691C774.77 766.732 774.624 766.771 774.479 766.813C763.881 769.888 753.975 775.04 743.206 777.997C729.384 781.793 708.087 785.304 693.669 786.317C677.048 787.484 648.203 786.694 632.9 780.776C630.201 780.135 627.851 779.349 625.311 778.233C625.882 778.161 626.231 778.131 626.771 778.019C629.368 777.48 636.436 775.235 637.886 773.01C633.351 773.911 628.933 776.405 624.471 777.772L623.918 777.937C618.065 775.552 611.336 773.277 606.059 769.831C606.852 769.165 607.719 768.607 608.573 768.022L608.208 767.482C606.657 767.615 605.552 768.901 604.419 769.874C601.54 768.24 598.541 766.777 595.601 765.252C595.814 765.211 596.028 765.177 596.239 765.129C601.054 764.04 614.672 754.437 619.661 751.353L665.244 723.196C677.301 715.869 689.814 709.165 701.676 701.531C702.257 701.158 702.619 700.735 702.997 700.166C702.515 700.174 702.41 700.149 701.88 700.311C697.956 701.515 688.909 708.011 684.673 710.482C662.687 723.162 640.913 736.206 619.361 749.61C612.338 753.952 605.118 757.955 598.262 762.569C597.035 763.395 596.29 763.914 595.601 765.252C594.678 764.755 593.763 764.244 592.855 763.721C578.861 755.648 547.53 730.56 543.174 714.494Z" fill="#CFBAF0"/>
<path d="M432.156 690.352C466.215 693.463 500.119 695.528 534.336 694.97C536.408 700.715 539.97 705.766 542.337 711.38L542.904 711.719C536.91 712.831 527.021 712.053 520.504 712.056C486.495 712.075 451.634 711.407 417.904 706.771C421.554 700.971 427.386 695.274 432.156 690.352Z" fill="#FFCFD2"/>
<path d="M595.601 765.252C596.29 763.914 597.035 763.395 598.262 762.569C605.118 757.955 612.338 753.952 619.361 749.61C640.913 736.206 662.687 723.162 684.673 710.482C688.909 708.011 697.956 701.515 701.88 700.311C702.41 700.149 702.515 700.174 702.997 700.166C702.619 700.735 702.257 701.158 701.676 701.531C689.814 709.165 677.301 715.869 665.244 723.196L619.661 751.353C614.672 754.437 601.054 764.04 596.239 765.129C596.028 765.177 595.814 765.211 595.601 765.252Z" fill="#F1C0E8"/>
<path d="M849.07 710.349C848.901 710.447 848.737 710.553 848.564 710.642C846.182 711.873 842.203 712.703 839.636 711.612C838.29 711.04 838.109 710.621 837.446 709.406C837.337 707.656 838.193 706.638 839.106 705.244C839.827 705.889 840.572 706.586 841.424 707.053C843.526 708.203 846.349 706.921 848.501 706.295L849.409 706.817C849.641 708.288 849.51 708.977 849.07 710.349Z" fill="#F1C0E8"/>
<path d="M415.101 709.555C454.584 714.13 503.596 716.323 543.174 714.494C547.53 730.56 578.861 755.648 592.855 763.721C593.763 764.244 594.678 764.755 595.601 765.252C598.541 766.777 601.54 768.24 604.419 769.874C605.552 768.901 606.657 767.615 608.208 767.482L608.573 768.022C607.719 768.607 606.852 769.165 606.059 769.831C611.336 773.277 618.065 775.552 623.918 777.937L625.311 778.233C627.851 779.349 630.201 780.135 632.9 780.776C617.791 814.27 595.881 844.255 568.561 868.827C559.097 877.257 549.45 885.49 538.815 892.426C528.418 899.207 517.053 904.699 505.754 909.791C462.381 929.338 416.273 938.978 368.662 936.199C294.601 931.875 221.224 903.547 171.279 847.216C143.224 815.574 134.331 785.736 122.554 746.232C120.71 740.05 115.739 727.005 116.105 720.982C140.762 740.293 155.468 750.715 185.448 761.378C192.727 763.966 200.503 765.199 207.66 767.885C207.421 769.949 207.403 772.391 206.677 774.326L205.003 774.187C202.955 776.165 201.747 778.855 201.629 781.699C201.54 783.836 202.295 785.881 203.848 787.367C205.85 789.283 208.787 789.906 211.481 789.787C213.782 789.686 216.545 789.232 218.117 787.386C220.211 784.928 221.069 781.369 220.664 778.182C220.564 777.398 220.467 777.25 220.207 776.61L219.287 776.052C218.895 775.684 218.498 775.339 218.171 774.906C217.378 773.857 218.032 771.585 218.214 770.371C221.182 770.357 224.203 771.102 227.153 771.448C233.091 772.135 239.041 772.707 245.002 773.163C257.203 774.043 269.866 772.883 282.05 771.795C325.545 767.91 386.631 743.425 415.101 709.555Z" fill="#FFCFD2"/>
<path d="M218.08 760.089L219.513 762.591C219.083 765.137 218.453 767.808 218.214 770.371C218.032 771.585 217.378 773.857 218.171 774.906C218.498 775.339 218.895 775.684 219.287 776.052C217.932 775.652 217.53 775.579 216.551 774.591L216.821 772.309L215.904 771.5C216.392 767.678 217.311 763.866 218.08 760.089Z" fill="#1C1310"/>
<path d="M623.918 777.937L624.471 777.772C628.933 776.405 633.351 773.911 637.886 773.01C636.436 775.235 629.368 777.48 626.771 778.019C626.231 778.131 625.882 778.161 625.311 778.233L623.918 777.937Z" fill="#F1C0E8"/>
<path d="M216.652 785.062C213.96 786.302 210.94 786.913 208.028 786.087C206.512 785.657 205.162 784.823 204.513 783.314C203.579 781.143 204.848 778.846 205.814 776.946C207.733 778.012 209.122 778.532 211.344 778.401C212.947 778.306 214.601 778.232 216.201 778.425C217.493 778.581 217.888 778.838 218.708 779.818C218.987 781.913 217.853 783.469 216.652 785.062Z" fill="#FAEBA3"/>
<path d="M780.694 807.514C779.667 806.913 777.956 805.892 777.561 804.716C777.064 803.234 777.551 800.873 778.547 799.651C780.748 796.951 785.665 799.654 788.496 799.583C790.11 799.542 791.295 798.037 792.378 796.977C793.036 797.524 793.68 798.091 794.27 798.713C795.562 800.075 795.915 801.265 795.856 803.099C795.285 804.545 794.63 805.327 793.309 806.119C789.589 808.349 784.806 808.391 780.694 807.514Z" fill="#FFCFD2"/>
<defs>
<linearGradient id="paint0_linear_407_173" x1="877.941" y1="540.74" x2="182.109" y2="585.421" gradientUnits="userSpaceOnUse">
<stop stop-color="#090400"/>
<stop offset="1" stop-color="#35282C"/>
</linearGradient>
<linearGradient id="paint1_linear_407_173" x1="427.116" y1="603.124" x2="430.665" y2="553.906" gradientUnits="userSpaceOnUse">
<stop stop-color="#9DEDD5"/>
<stop offset="1" stop-color="#8EEAF6"/>
</linearGradient>
<linearGradient id="paint2_linear_407_173" x1="576.646" y1="613.961" x2="565.311" y2="574.411" gradientUnits="userSpaceOnUse">
<stop stop-color="#FFBDE2"/>
<stop offset="1" stop-color="#9DE9E7"/>
</linearGradient>
</defs>
</svg>
