<svg width="1024" height="1024" viewBox="0 0 1024 1024" fill="none" xmlns="http://www.w3.org/2000/svg">
<path d="M294.232 149.48C299.074 146.714 306.491 145.779 311.985 144.72C336.176 140.056 361.467 139.068 386.037 140.215C416.129 141.62 443.303 145.226 473.906 144.532C507.112 143.606 539.913 136.986 570.879 124.962C593.232 116.164 614.971 105.47 637.552 97.3059C650.445 92.6444 663.8 88.7466 677.323 86.4193C718.629 79.3104 768.845 82.9103 809.294 93.9543C852.157 105.657 899.079 127.233 921.878 167.467C943.41 205.467 940.738 246.941 930.282 287.813C922.727 317.349 913.085 347.104 915.101 377.994C917.037 407.658 928.866 433.866 940.591 460.651C943.994 468.425 947.509 476.126 950.127 484.209C965.544 531.83 962.954 584.064 949.58 631.84C948.565 635.465 947.39 642.324 944.993 645.06C942.363 627.984 934.44 613.102 922.846 600.315C918.672 595.711 913.995 591.582 909.778 587.006C905.326 575.493 900.447 563.942 897.021 552.072C883.08 503.78 888.992 456.053 899.166 407.728C904.252 383.572 909.565 360.117 911.314 335.399C914.333 292.758 896.348 253.744 868.875 222.113C828.822 176 776.047 146.67 714.658 142.623C700.826 141.711 687.279 143.457 673.737 146.109C631.024 154.474 598.597 171.772 564.777 198.972C551.025 210.032 538.792 222.712 525.514 234.279C513.207 231.458 500.996 228.191 489.373 223.167C477.71 218.127 466.493 211.634 455.294 205.656C400.194 176.24 359.369 149.392 294.232 149.48Z" fill="#F5F5F3"/>
<path d="M525.514 234.279C538.792 222.712 551.025 210.032 564.777 198.972C598.597 171.772 631.024 154.474 673.737 146.109C687.279 143.457 700.826 141.711 714.658 142.623C776.047 146.67 828.822 176 868.875 222.113C896.348 253.744 914.333 292.758 911.314 335.399C909.565 360.117 904.252 383.572 899.166 407.728C888.992 456.053 883.08 503.78 897.021 552.072C900.447 563.942 905.326 575.493 909.778 587.006C905.653 584.909 901.68 580.875 898.038 577.93C892.426 573.398 886.714 568.99 880.907 564.709C865.049 553.008 847.735 543.422 829.402 536.192C821.156 532.991 812.659 530.517 804.334 527.544C809.21 517.521 813.624 505.438 810.248 494.27C807.999 486.828 802.652 481.158 795.847 477.632C773.746 466.181 747.988 475.783 726.168 482.726C725.712 474.486 726.076 466.042 726.089 457.78L726.036 413.688L725.959 260.938C721.43 259.439 684.481 260.407 676.751 260.392L499.411 260.467C502.793 255.795 507.691 251.842 511.764 247.764C516.285 243.236 520.562 238.344 525.514 234.279Z" fill="#C1F4CC"/>
<path d="M148.574 512.643C148.228 512.357 147.878 512.076 147.549 511.77C142.07 506.663 137.811 499.878 133.96 493.513C117.297 465.972 109.504 434.962 107.866 402.937C104.47 336.54 128.699 258.581 173.728 208.931C206.262 173.058 245.249 151.902 294.232 149.48C359.369 149.392 400.194 176.24 455.294 205.656C466.493 211.634 477.71 218.127 489.373 223.167C500.996 228.191 513.207 231.458 525.514 234.279C520.562 238.344 516.285 243.236 511.764 247.764C507.691 251.842 502.793 255.795 499.411 260.467L366.226 260.4L323.426 260.336C315.86 260.332 307.989 259.953 300.457 260.547L300.235 321.696C300.286 342.482 300.628 363.318 300.281 384.1C299.005 389.077 299.942 396.671 299.97 401.943C249.375 406.932 201.573 443.221 170.127 481.498C162.073 491.25 154.863 501.669 148.574 512.643Z" fill="#90DBF4"/>
<path d="M300.457 260.547C307.989 259.953 315.86 260.332 323.426 260.336L366.226 260.4L499.411 260.467L676.751 260.392C684.481 260.407 721.43 259.439 725.959 260.938C725.509 262.569 725.193 264.297 724.275 265.726L724.058 265.091L723.24 264.663C718.572 267.102 711.09 275.868 707.146 279.834C706.234 279.147 706.351 278.827 706.044 277.766C711.025 272.904 716.124 268.11 720.849 262.999C695.151 261.759 668.98 262.637 643.235 262.646L496.79 262.998C476.466 263.041 306.93 261.894 304.492 263.501L305.285 264.126C306.318 265.14 307.338 266.176 308.398 267.16L307.504 269.267L303.021 265.287L302.849 461.567L302.691 541.75C302.665 555.402 302.278 569.137 302.631 582.78C302.352 612.262 303.204 641.86 302.382 671.321L301.911 671.443C301.846 663.016 302.354 654.254 301.628 645.877C301.456 651.932 300.402 657.691 300.077 663.693C299.602 652.622 300.06 641.367 300.085 630.271L300.006 570.573L300.281 384.1C300.628 363.318 300.286 342.482 300.235 321.696L300.457 260.547Z" fill="url(#paint0_linear_407_844)"/>
<path d="M725.959 260.938L726.036 413.688L726.089 457.78C726.076 466.042 725.712 474.486 726.168 482.726L726.389 483.781C724.765 487.717 725.844 508.325 725.887 514.009L723.082 513.958C723.17 505.663 723.629 497.207 723.324 488.93C723.269 487.426 723.386 486.625 722.258 485.576L721.438 485.223C722.062 484.809 722.851 484.214 723.103 483.469C723.985 480.855 723.306 452.382 723.316 447.719L723.435 306.913C723.437 298.252 722.229 272.316 724.058 265.091L724.275 265.726C725.193 264.297 725.509 262.569 725.959 260.938Z" fill="#73543E"/>
<path d="M496.79 262.998L643.235 262.646C668.98 262.637 695.151 261.759 720.849 262.999C716.124 268.11 711.025 272.904 706.044 277.766C703.948 279.543 701.919 280.999 699.537 282.379C690.065 282.836 680.477 282.705 670.986 282.815C647.094 283.006 623.202 283.052 599.309 282.953L442.079 282.9L365.43 282.624C352.327 282.567 338.143 283.539 325.18 281.715C324.234 280.848 323.2 280.102 322.173 279.335L319.583 277.12C320.125 276.385 320.907 275.835 321.605 275.248C324.663 275.998 326.685 276.259 329.656 275.11C338.344 279.167 354.796 270.734 361.546 274.491L361.808 275.692C362.937 276.237 364.062 276.473 365.315 276.273C367.274 275.959 367.66 275.683 368.764 274.064C371.276 273.707 376.279 272.953 378.497 274.264C380.048 275.865 381.311 276.496 383.571 276.561C385.473 276.615 387.62 276.105 389.074 274.864L389.123 274.675C390.662 273.357 397.265 274.084 399.454 274.153C400.559 275.297 401.104 275.628 402.733 275.687C404.696 275.759 406.571 275.009 408.134 273.884C410.709 275.412 415.206 273.713 417.29 275.46C420.274 276.089 423.385 276.29 426.214 275.031C429.674 275.462 433.75 275.605 437.24 275.401C439.077 275.505 440.932 275.649 442.771 275.568C444.386 275.496 444.733 275.664 445.823 274.483C446.913 275.647 447.347 275.772 448.941 275.846C454.241 276.092 459.952 275.751 465.253 275.332C466.681 274.646 466.695 274.388 467.457 272.969L468.015 272.205C471.164 271.789 475.344 271.547 478.406 272.393C478.966 273.951 478.907 274.366 480.481 275.075C482.549 276.006 484.985 275.857 486.978 274.883L487.244 273.967C486.637 273.381 486.365 273.209 485.562 272.822C488.095 269.296 493.484 266.036 496.79 262.998ZM518.944 272.663C519.76 274.155 519.738 274.475 521.442 274.931C523.501 275.483 526.828 274.912 528.908 274.51C528.662 273.766 528.716 273.086 527.923 272.773C525.461 271.802 521.579 272.481 518.944 272.663ZM560.505 272.56C560.185 273.798 559.964 273.704 560.592 274.918C562.963 275.915 566.299 275.408 568.871 275.359L569.101 274.273C567.574 272.57 562.736 272.726 560.505 272.56ZM498.572 273.225C498.994 274.088 498.941 274.574 499.9 274.895C502.21 275.669 506.991 275.427 509.367 274.669C508.59 273.515 508.616 273.291 507.19 273.054C504.499 272.607 501.31 273.063 498.572 273.225ZM539.931 273.186C540.324 274.345 540.295 274.788 541.5 275.303C543.288 276.066 546.954 275.387 548.848 275.055L548.981 273.768C547.297 272.348 542.16 273.095 539.931 273.186ZM580.814 273.029C581.589 274.477 581.587 274.879 583.218 275.371C585.357 276.016 589.076 275.567 591.201 274.97C590.288 273.682 589.876 273.413 588.294 273.165C585.984 272.803 583.14 272.806 580.814 273.029ZM685.796 273.077L685.164 274.516C685.705 275.305 685.809 275.528 686.817 275.721C688.915 276.122 691.686 275.635 693.866 275.627L694.713 274.311C694.25 273.315 694.586 273.527 693.677 273.205C691.533 272.446 688.106 273.006 685.796 273.077ZM604.341 273.63L603.624 274.521L603.776 275.363C605.734 276.695 608.359 276.607 610.65 276.573L611.421 274.948C611.072 274.201 611.21 274.061 610.375 273.76C608.708 273.159 606.118 273.563 604.341 273.63ZM623.464 273.657C623.652 274.543 623.486 275.129 624.34 275.599C626.256 276.651 629.132 276.53 631.251 276.348L631.297 274.494C630.416 273.629 629.86 273.383 628.6 273.331C626.931 273.263 625.133 273.521 623.464 273.657ZM644.613 273.664C644.623 275.126 644.562 275.135 645.521 276.222C647.519 276.917 649.754 276.408 651.791 276.033L651.675 274.609C649.569 272.944 647.144 273.479 644.613 273.664ZM664.822 273.61C664.955 274.298 664.871 275.124 665.515 275.525C667.508 276.764 671.567 275.921 673.847 275.686C673.756 274.973 673.904 274.58 673.267 274.116C671.258 272.653 667.192 273.432 664.822 273.61Z" fill="url(#paint1_linear_407_844)"/>
<path d="M305.285 264.126L304.492 263.501C306.93 261.894 476.466 263.041 496.79 262.998C493.484 266.036 488.095 269.296 485.562 272.822C483.373 273.187 480.613 272.591 478.406 272.393C475.344 271.547 471.164 271.789 468.015 272.205L467.457 272.969C464.589 272.417 462.349 272.261 459.59 273.349L459.103 274.114C460.894 275.599 463.013 275.316 465.253 275.332C459.952 275.751 454.241 276.092 448.941 275.846C447.347 275.772 446.913 275.647 445.823 274.483L446.042 273.661C443.543 272.942 440.884 273.163 438.364 273.644C437.718 274.236 437.488 274.559 437.24 275.401C433.75 275.605 429.674 275.462 426.214 275.031C424.979 273.673 424.109 273.386 422.236 273.308C420.922 273.252 419.778 273.607 418.536 273.989L417.29 275.46C415.206 273.713 410.709 275.412 408.134 273.884C405.867 272.433 401.971 273.607 399.454 274.153C397.265 274.084 390.662 273.357 389.123 274.675L389.074 274.864C386.552 273.406 381.35 273.952 378.497 274.264C376.279 272.953 371.276 273.707 368.764 274.064C366.353 274.032 363.882 273.817 361.546 274.491C354.796 270.734 338.344 279.167 329.656 275.11L329.339 273.955C327.345 272.883 324.178 273.431 321.869 272.797C321.73 272.759 321.593 272.717 321.454 272.676C321.213 271.829 321.463 272.222 320.487 271.667L318.723 272.179C316.388 270.568 307.493 264.857 305.285 264.126Z" fill="#8EECF5"/>
<path d="M305.285 264.126C307.493 264.857 316.388 270.568 318.723 272.179L320.487 271.667C321.463 272.222 321.213 271.829 321.454 272.676L321.605 275.248C320.907 275.835 320.125 276.385 319.583 277.12C315.626 274.116 312.045 270.532 308.398 267.16C307.338 266.176 306.318 265.14 305.285 264.126Z" fill="#98F5E1"/>
<path d="M724.058 265.091C722.229 272.316 723.437 298.252 723.435 306.913L723.316 447.719C723.306 452.382 723.985 480.855 723.103 483.469C722.851 484.214 722.062 484.809 721.438 485.223C719.582 485.916 717.892 486.895 716.162 487.85C716.309 485.675 716.617 483.735 715.712 481.685L715.015 481.469C713.253 484.479 713.872 487.262 714.217 490.561C715.554 496.28 714.377 507.692 714.411 514.034L705.999 514.149L705.213 367.352L705.176 312.754C705.16 303.148 705.629 293.255 704.899 283.683C705.249 282.229 706.295 281.037 707.146 279.834C711.09 275.868 718.572 267.102 723.24 264.663L724.058 265.091ZM716.118 278.745C715.156 281.343 714.453 283.112 715.349 285.806L716.808 287.263C717.586 284.636 717.89 282.323 717.165 279.651L716.118 278.745ZM714.014 296.384C713.431 298.768 713.4 302.385 714.893 304.5C715.35 305.148 715.467 305.198 716.006 305.653C716.626 303.457 717.336 300.232 716.166 298.111C715.689 297.245 714.89 296.753 714.014 296.384ZM714.128 313.199C713.542 315.846 713.161 317.859 714.163 320.439C714.742 320.949 715.111 321.244 715.818 321.584C716.055 318.797 716.201 316.33 715.043 313.728L714.128 313.199ZM713.604 330.197C713.367 332.405 712.926 334.547 713.656 336.692C714.532 337.595 714.695 337.769 715.897 338.098C716.045 336.005 716.65 332.777 715.172 331.059C714.726 330.541 714.229 330.381 713.604 330.197ZM713.225 346.711C712.555 348.918 712.457 352.124 713.761 354.158C714.206 354.852 714.334 354.937 714.857 355.469C715.649 353.446 716.231 350.542 715.084 348.52C714.61 347.685 714.034 347.192 713.225 346.711ZM714.171 365.286C713.454 368.056 712.48 371.063 713.937 373.765C714.17 374.199 714.307 374.297 714.621 374.602C715.714 371.671 716.63 369.581 715.526 366.509C715.092 366.083 714.687 365.611 714.171 365.286ZM713.016 381.716C712.436 384.216 712.257 387.387 713.714 389.657C714.237 390.473 714.785 390.647 715.681 390.891C715.998 388.344 716.179 385.386 714.508 383.217C714.061 382.637 713.608 382.141 713.016 381.716ZM714.581 400.408C713.499 402.484 712.378 406.024 713.342 408.331C713.693 409.168 714.204 409.724 714.787 410.394C715.539 408.174 716.699 404.3 715.82 402.004C715.528 401.241 715.186 400.906 714.581 400.408ZM715.114 418.856C714.017 421.482 712.625 425.194 713.877 428.012C714.187 428.71 714.764 429.21 715.309 429.718C716.646 427.47 717.263 423.058 716.494 420.499C716.21 419.557 715.909 419.413 715.114 418.856ZM714.519 440.062C713.646 443.025 713.142 445.193 713.988 448.211L715.065 449.216C716.454 447.389 716.54 444.594 716.222 442.389C716.075 441.363 715.952 441.18 715.314 440.378L714.519 440.062ZM714.514 459.171C713.286 461.448 712.835 463.76 713.505 466.314C713.772 467.328 714.301 468.095 715.074 468.795C715.845 465.677 716.361 463.33 715.644 460.167L714.514 459.171Z" fill="#C1F4CC"/>
<path d="M303.021 265.287L307.504 269.267C311.728 273.399 316.024 277.458 320.388 281.442L320.973 282.653C319.575 316.479 320.564 350.561 320.657 384.418C320.831 442.456 320.515 500.495 319.708 558.528C316.691 558.768 314.1 559.348 311.244 560.321C311.414 558.439 311.803 556.778 310.829 555.083L310.014 555.035C308.886 556.581 308.727 557.767 308.998 559.612C309.193 560.94 309.537 561.58 310.372 562.6C311.164 565.284 311.277 569.052 310.606 571.784L310.18 572.006L309.97 569.255L309.316 568.725C307.207 568.996 305.163 569.363 303.089 569.827C303.096 574.029 303.483 578.663 302.631 582.78C302.278 569.137 302.665 555.402 302.691 541.75L302.849 461.567L303.021 265.287ZM309.493 288.69C309.203 290.761 308.378 294.223 309.548 296.08C309.878 296.603 310.654 296.711 311.205 296.917C311.644 294.374 312.206 292.123 311.132 289.68C310.576 289.283 310.125 288.957 309.493 288.69ZM309.51 308.552C309.34 311.254 308.937 314.062 309.573 316.715L310.237 317.363L311.577 317.341C311.803 315.086 312.639 311.278 311.136 309.387C310.726 308.87 310.101 308.776 309.51 308.552ZM310.07 330.14C309.288 333.086 309.051 335.968 309.666 338.965C310.555 339.789 310.095 339.528 310.967 339.875C311.801 336.933 311.979 334.058 311.398 331.049C310.922 330.61 310.681 330.392 310.07 330.14ZM310.211 350.741C309.162 352.393 308.346 353.602 308.676 355.663C308.895 357.027 309.974 358.501 310.675 359.672C311.68 356.99 311.772 354.524 311.212 351.725L310.211 350.741ZM309.752 369.603C309.214 373.581 309.234 377.535 311.306 381.095C311.493 378.501 312.665 372.162 310.851 370.061L309.752 369.603ZM309.961 390.108C309.352 392.501 308.374 395.572 309.424 397.988C309.796 398.844 310.557 399.227 311.338 399.635C311.532 397.197 312.459 393.102 311.557 390.931L309.961 390.108ZM310.07 410.227C308.645 412.655 308.645 415.452 309.294 418.132C309.803 418.629 310.181 418.987 310.801 419.351C311.818 416.81 311.782 413.852 311.217 411.202L310.07 410.227ZM309.589 433.125C309.079 435.282 307.874 439.037 309.34 440.978C309.632 441.364 309.965 441.589 310.335 441.875C311.388 439.239 311.548 436.788 310.847 434.034C309.979 433.225 310.424 433.49 309.589 433.125ZM309.404 455.251C308.549 456.892 307.991 458.737 308.609 460.57C308.865 461.331 309.165 461.71 309.86 462.14C310.021 462.24 310.211 462.284 310.386 462.355C310.982 460.427 311.836 458.504 310.871 456.562C310.495 455.806 310.082 455.687 309.404 455.251ZM309.031 475.63C308.521 477.97 307.913 480.438 309.121 482.677C309.382 483.161 309.976 483.667 310.356 484.035C310.588 481.522 311.005 479.023 310.387 476.546C309.905 476.116 309.635 475.887 309.031 475.63ZM308.737 498.098C308.483 499.986 307.81 502.908 309.06 504.581C309.372 504.998 309.873 505.338 310.298 505.629C310.519 503.359 310.94 501.178 310.171 498.98C309.702 498.681 309.236 498.344 308.737 498.098ZM309.777 516.21C309.123 518.788 307.977 522.56 309.277 525.096C309.637 525.798 309.761 525.901 310.215 526.456C310.678 523.715 312.093 519.065 310.5 516.576L309.777 516.21ZM310.023 536.592C309.388 538.36 308.495 540.197 309.271 542.057C309.582 542.801 310.007 542.919 310.645 543.349C311.367 541.185 311.862 539.395 311.057 537.173L310.023 536.592Z" fill="#C1F4CC"/>
<path d="M308.398 267.16C312.045 270.532 315.626 274.116 319.583 277.12L322.173 279.335L320.388 281.442C316.024 277.458 311.728 273.399 307.504 269.267L308.398 267.16Z" fill="#9B6D3F"/>
<path d="M465.253 275.332C463.013 275.316 460.894 275.599 459.103 274.114L459.59 273.349C462.349 272.261 464.589 272.417 467.457 272.969C466.695 274.388 466.681 274.646 465.253 275.332Z" fill="#4B2D26"/>
<path d="M478.406 272.393C480.613 272.591 483.373 273.187 485.562 272.822C486.365 273.209 486.637 273.381 487.244 273.967L486.978 274.883C484.985 275.857 482.549 276.006 480.481 275.075C478.907 274.366 478.966 273.951 478.406 272.393Z" fill="#30261E"/>
<path d="M528.908 274.51C526.828 274.912 523.501 275.483 521.442 274.931C519.738 274.475 519.76 274.155 518.944 272.663C521.579 272.481 525.461 271.802 527.923 272.773C528.716 273.086 528.662 273.766 528.908 274.51Z" fill="#30261E"/>
<path d="M568.871 275.359C566.299 275.408 562.963 275.915 560.592 274.918C559.964 273.704 560.185 273.798 560.505 272.56C562.736 272.726 567.574 272.57 569.101 274.273L568.871 275.359Z" fill="#30261E"/>
<path d="M321.454 272.676C321.593 272.717 321.73 272.759 321.869 272.797C324.178 273.431 327.345 272.883 329.339 273.955L329.656 275.11C326.685 276.259 324.663 275.998 321.605 275.248L321.454 272.676Z" fill="#431C0D"/>
<path d="M399.454 274.153C401.971 273.607 405.867 272.433 408.134 273.884C406.571 275.009 404.696 275.759 402.733 275.687C401.104 275.628 400.559 275.297 399.454 274.153Z" fill="#431C0D"/>
<path d="M509.367 274.669C506.991 275.427 502.21 275.669 499.9 274.895C498.941 274.574 498.994 274.088 498.572 273.225C501.31 273.063 504.499 272.607 507.19 273.054C508.616 273.291 508.59 273.515 509.367 274.669Z" fill="#431C0D"/>
<path d="M548.848 275.055C546.954 275.387 543.288 276.066 541.5 275.303C540.295 274.788 540.324 274.345 539.931 273.186C542.16 273.095 547.297 272.348 548.981 273.768L548.848 275.055Z" fill="#30261E"/>
<path d="M591.201 274.97C589.076 275.567 585.357 276.016 583.218 275.371C581.587 274.879 581.589 274.477 580.814 273.029C583.14 272.806 585.984 272.803 588.294 273.165C589.876 273.413 590.288 273.682 591.201 274.97Z" fill="#30261E"/>
<path d="M693.866 275.627C691.686 275.635 688.915 276.122 686.817 275.721C685.809 275.528 685.705 275.305 685.164 274.516L685.796 273.077C688.106 273.006 691.533 272.446 693.677 273.205C694.586 273.527 694.25 273.315 694.713 274.311L693.866 275.627Z" fill="#4B2D26"/>
<path d="M417.29 275.46L418.536 273.989C419.778 273.607 420.922 273.252 422.236 273.308C424.109 273.386 424.979 273.673 426.214 275.031C423.385 276.29 420.274 276.089 417.29 275.46Z" fill="#4B2D26"/>
<path d="M445.823 274.483C444.733 275.664 444.386 275.496 442.771 275.568C440.932 275.649 439.077 275.505 437.24 275.401C437.488 274.559 437.718 274.236 438.364 273.644C440.884 273.163 443.543 272.942 446.042 273.661L445.823 274.483Z" fill="#4B2D26"/>
<path d="M610.65 276.573C608.359 276.607 605.734 276.695 603.776 275.363L603.624 274.521L604.341 273.63C606.118 273.563 608.708 273.159 610.375 273.76C611.21 274.061 611.072 274.201 611.421 274.948L610.65 276.573Z" fill="#4B2D26"/>
<path d="M631.251 276.348C629.132 276.53 626.256 276.651 624.34 275.599C623.486 275.129 623.652 274.543 623.464 273.657C625.133 273.521 626.931 273.263 628.6 273.331C629.86 273.383 630.416 273.629 631.297 274.494L631.251 276.348Z" fill="#4B2D26"/>
<path d="M651.791 276.033C649.754 276.408 647.519 276.917 645.521 276.222C644.562 275.135 644.623 275.126 644.613 273.664C647.144 273.479 649.569 272.944 651.675 274.609L651.791 276.033Z" fill="#30261E"/>
<path d="M673.847 275.686C671.567 275.921 667.508 276.764 665.515 275.525C664.871 275.124 664.955 274.298 664.822 273.61C667.192 273.432 671.258 272.653 673.267 274.116C673.904 274.58 673.756 274.973 673.847 275.686Z" fill="#4B2D26"/>
<path d="M361.546 274.491C363.882 273.817 366.353 274.032 368.764 274.064C367.66 275.683 367.274 275.959 365.315 276.273C364.062 276.473 362.937 276.237 361.808 275.692L361.546 274.491Z" fill="#431C0D"/>
<path d="M378.497 274.264C381.35 273.952 386.552 273.406 389.074 274.864C387.62 276.105 385.473 276.615 383.571 276.561C381.311 276.496 380.048 275.865 378.497 274.264Z" fill="#431C0D"/>
<path d="M699.537 282.379C701.919 280.999 703.948 279.543 706.044 277.766C706.351 278.827 706.234 279.147 707.146 279.834C706.295 281.037 705.249 282.229 704.899 283.683C703.325 284.231 701.76 284.665 700.419 285.689L698.511 286.316C696.429 286.515 694.352 286.765 692.283 287.067C694.018 284.552 697.505 284.767 699.537 282.379Z" fill="#9B6D3F"/>
<path d="M322.173 279.335C323.2 280.102 324.234 280.848 325.18 281.715C325.596 283.23 326.045 283.7 327.202 284.741C327.853 285.327 328.369 285.955 328.922 286.632L328.871 287.418L327.729 288.246L325.686 286.561C324.156 285.201 322.58 283.921 320.973 282.653L320.388 281.442L322.173 279.335Z" fill="#B68845"/>
<path d="M716.808 287.263L715.349 285.806C714.453 283.112 715.156 281.343 716.118 278.745L717.165 279.651C717.89 282.323 717.586 284.636 716.808 287.263Z" fill="#4B2D26"/>
<path d="M325.18 281.715C338.143 283.539 352.327 282.567 365.43 282.624L442.079 282.9L599.309 282.953C623.202 283.052 647.094 283.006 670.986 282.815C680.477 282.705 690.065 282.836 699.537 282.379C697.505 284.767 694.018 284.552 692.283 287.067L690.389 287.266C651.256 288.947 611.938 288.555 572.772 288.621L415.35 288.804C395.656 288.782 375.938 288.923 356.247 288.627C350.324 288.537 336.08 287.038 331.258 288.004L328.684 289.398L327.729 288.246L328.871 287.418L328.922 286.632C328.369 285.955 327.853 285.327 327.202 284.741C326.045 283.7 325.596 283.23 325.18 281.715Z" fill="#D4A564"/>
<path d="M320.973 282.653C322.58 283.921 324.156 285.201 325.686 286.561C324.817 315.387 325.575 344.419 325.41 373.269L325.322 609.576C325.164 636.092 324.676 662.605 323.858 689.109C323.686 695.572 321.151 720.332 322.611 724.495L318.635 728.947H318.062C316.532 725.805 316.517 722.435 316.487 719.007C316.43 712.558 317.185 706.094 317.516 699.655C317.981 690.592 318.144 681.484 318.324 672.411C319.127 634.455 319.589 596.492 319.708 558.528C320.515 500.495 320.831 442.456 320.657 384.418C320.564 350.561 319.575 316.479 320.973 282.653Z" fill="#D4A564"/>
<path d="M700.419 285.689C701.76 284.665 703.325 284.231 704.899 283.683C705.629 293.255 705.16 303.148 705.176 312.754L705.213 367.352L705.999 514.149C707.046 551.215 706.38 588.344 706.532 625.422C706.647 653.498 706.82 681.427 706.016 709.503C705.864 714.798 706.464 725.408 704.928 730.16L703.695 729.761C703.089 728.549 701.877 727.39 700.987 726.348C699.836 719.541 700.418 712.043 700.35 705.119C700.195 690.782 700.112 676.444 700.101 662.107C700.027 614.058 699.812 565.937 700.413 517.893L700.407 514.97C699.488 504.709 699.992 493.982 699.928 483.666C699.79 461.724 699.815 439.781 700.005 417.838C700.24 373.827 699.178 329.67 700.419 285.689Z" fill="#D4A564"/>
<path d="M698.511 286.316L700.419 285.689C699.178 329.67 700.24 373.827 700.005 417.838C699.815 439.781 699.79 461.724 699.928 483.666C699.992 493.982 699.488 504.709 700.407 514.97C691.712 516.531 682.518 517.471 673.972 519.6C674.821 511.206 674.441 502.377 674.557 493.92C674.784 480.926 675.103 467.933 675.512 454.944C676.894 403.89 677.921 352.827 678.594 301.759C678.67 301.709 678.746 301.657 678.822 301.607C685.775 297.071 691.714 291.118 698.511 286.316Z" fill="#F5F5F3"/>
<path d="M692.283 287.067C694.352 286.765 696.429 286.515 698.511 286.316C691.714 291.118 685.775 297.071 678.822 301.607C678.746 301.657 678.67 301.709 678.594 301.759C677.921 352.827 676.894 403.89 675.512 454.944C675.103 467.933 674.784 480.926 674.557 493.92C674.441 502.377 674.821 511.206 673.972 519.6L673.521 521.265C674.12 522.13 673.774 521.872 674.403 522.213C672.986 526.026 673.627 545.632 673.58 551.064L672.407 641.898L672.019 671.529C671.952 679.785 672.676 688.979 670.725 696.987C670.648 697.304 670.627 697.632 670.579 697.955L669.082 700.632C665.974 699.607 627.437 701.381 619.791 701.417L431.818 701.195C414.655 701.037 397.493 700.975 380.33 701.01C371.122 701.019 361.235 701.741 352.099 700.74L349.135 699.243C349.679 698.302 349.944 697.54 350.02 696.457C351.118 680.949 350.428 664.886 350.297 649.331C350.136 621.142 349.714 592.955 349.031 564.773C347.83 502.91 347.822 441.032 346.257 379.167C345.62 353.985 344.427 328.851 343.464 303.688C338.642 298.817 333.714 294.053 328.684 289.398L331.258 288.004C331.592 288.401 331.705 288.548 332.118 288.957C341.108 297.858 351.461 306.691 364.026 309.662C375.641 312.408 388.795 311.443 400.669 311.408L440.197 311.422L568.696 311.441C599.197 311.197 629.677 310.363 660.182 310.559C664.75 306.37 689.566 289.399 690.389 287.266L692.283 287.067ZM641.885 380.031C642.182 365.499 642.759 350.968 642.95 336.435L382.974 334.334C383.596 373.517 383.753 412.706 383.447 451.894L383.452 526.206C383.408 536.845 382.312 551.281 383.36 561.576L383.382 564.13C381.876 568.663 382.863 606.89 382.859 615.701C382.823 632.343 382.695 648.985 382.475 665.625C396.302 665.717 410.076 664.567 423.9 664.516L636.477 664.025C636.471 642.769 636.681 621.513 637.107 600.261C637.256 593.197 638.853 558.044 637.617 553.929L637.946 552.129L640.234 442.287C640.746 421.528 641.714 400.802 641.885 380.031ZM641.852 669.251L636.368 669.684C627.034 670.336 617.284 669.57 607.913 669.509L550.622 669.439L380.236 670.492C377.634 673.468 375.099 676.559 372.378 679.424C465.027 678.815 557.678 678.911 650.325 679.713C651.472 680.888 651.943 681.643 653.546 682.088L653.673 681.387C653.333 681.003 652.721 680.23 652.341 679.903C652.642 672.093 652.467 664.215 652.62 656.394C653.119 636.98 653.49 617.564 653.732 598.146C654.787 552.11 655.584 506.068 656.122 460.023L657.636 375.747C658.159 356.21 659.212 336.576 659.276 317.039C633.715 316.436 607.951 317.217 582.374 317.326L445.317 317.485C417.564 317.455 389.486 318.435 361.799 316.564C366.926 320.103 371.845 323.951 376.993 327.44C465.249 326.843 553.508 326.831 641.764 327.404C644.435 327.4 650.455 325.945 652.509 326.974C652.002 328.97 649.731 330.701 648.293 332.134C647.196 343.882 647.787 356.26 647.637 368.077L646.507 429.926L643.868 577.062C643.508 599.143 643.003 621.221 642.352 643.295C642.133 651.941 642.221 660.614 641.852 669.251ZM657.268 684L655.234 685.056C654.112 684.284 653.402 684.194 652.036 684.126C643.518 683.697 634.772 684.164 626.235 684.169L574.865 684.065C505.853 684.422 436.839 684.434 367.827 684.1C364.313 688.002 360.754 691.865 357.153 695.687C390.738 694.574 424.64 695.396 458.25 695.6C516.635 696.264 575.025 696.512 633.414 696.344C643.82 696.219 654.225 695.643 664.63 695.409C664.957 694.336 665.236 694.233 666.017 693.478L666.549 693.638C668.024 690.621 667.851 645.524 668.013 638.057L672.218 419.339C673.077 392.993 673.797 366.641 674.378 340.287C674.751 327.597 675.399 314.906 675.5 302.21C673.018 303.834 670.554 305.679 668.256 307.555C665.841 309.527 663.515 311.833 663.102 315.046C661.962 323.918 663.225 337.886 663.254 347.453C663.313 366.815 662.689 386.195 662.566 405.56C662.204 462.88 660.569 520.217 659.73 577.535C659.4 600.127 658.939 622.717 658.347 645.304C658.087 658.097 658.539 671.274 657.268 684ZM348.787 308.274C353.029 436.231 355.464 564.24 356.092 692.265L360.432 687.367L364.998 682.665C365.2 627.423 364.732 572.18 363.597 516.949L360.482 318.883C356.942 314.903 353.177 311.313 348.787 308.274ZM366.345 324.271C366.282 358.972 367.741 393.568 368.431 428.25L370.119 567.268C370.48 591.243 370.594 615.22 370.463 639.197C370.47 651.527 371.263 664.505 370.148 676.764L373.649 672.692C374.73 671.472 375.91 670.266 376.834 668.924C377.433 596.936 377.625 524.944 377.409 452.954L377.452 374.729C377.432 360.93 378.041 346.776 377.169 333.025C373.742 329.968 370.271 326.675 366.345 324.271Z" fill="#D4A564"/>
<path d="M325.686 286.561L327.729 288.246L328.684 289.398C333.714 294.053 338.642 298.817 343.464 303.688C344.427 328.851 345.62 353.985 346.257 379.167C347.822 441.032 347.83 502.91 349.031 564.773C349.714 592.955 350.136 621.142 350.297 649.331C350.428 664.886 351.118 680.949 350.02 696.457C349.944 697.54 349.679 698.302 349.135 699.243L322.611 724.495C321.151 720.332 323.686 695.572 323.858 689.109C324.676 662.605 325.164 636.092 325.322 609.576L325.41 373.269C325.575 344.419 324.817 315.387 325.686 286.561Z" fill="#F5F5F3"/>
<path d="M331.258 288.004C336.08 287.038 350.324 288.537 356.247 288.627C375.938 288.923 395.656 288.782 415.35 288.804L572.772 288.621C611.938 288.555 651.256 288.947 690.389 287.266C689.566 289.399 664.75 306.37 660.182 310.559C629.677 310.363 599.197 311.197 568.696 311.441L440.197 311.422L400.669 311.408C388.795 311.443 375.641 312.408 364.026 309.662C351.461 306.691 341.108 297.858 332.118 288.957C331.705 288.548 331.592 288.401 331.258 288.004Z" fill="#F5F5F3"/>
<path d="M311.205 296.917C310.654 296.711 309.878 296.603 309.548 296.08C308.378 294.223 309.203 290.761 309.493 288.69C310.125 288.957 310.576 289.283 311.132 289.68C312.206 292.123 311.644 294.374 311.205 296.917Z" fill="#4B2D26"/>
<path d="M716.006 305.653C715.467 305.198 715.35 305.148 714.893 304.5C713.4 302.385 713.431 298.768 714.014 296.384C714.89 296.753 715.689 297.245 716.166 298.111C717.336 300.232 716.626 303.457 716.006 305.653Z" fill="#4B2D26"/>
<path d="M657.268 684C658.539 671.274 658.087 658.097 658.347 645.304C658.939 622.717 659.4 600.127 659.73 577.535C660.569 520.217 662.204 462.88 662.566 405.56C662.689 386.195 663.313 366.815 663.254 347.453C663.225 337.886 661.962 323.918 663.102 315.046C663.515 311.833 665.841 309.527 668.256 307.555C670.554 305.679 673.018 303.834 675.5 302.21C675.399 314.906 674.751 327.597 674.378 340.287C673.797 366.641 673.077 392.993 672.218 419.339L668.013 638.057C667.851 645.524 668.024 690.621 666.549 693.638L666.017 693.478C663.545 690.307 658.698 687.756 657.268 684Z" fill="#F5F5F3"/>
<path d="M356.092 692.265C355.464 564.24 353.029 436.231 348.787 308.274C353.177 311.313 356.942 314.903 360.482 318.883L363.597 516.949C364.732 572.18 365.2 627.423 364.998 682.665L360.432 687.367L356.092 692.265Z" fill="#F5F5F3"/>
<path d="M311.577 317.341L310.237 317.363L309.573 316.715C308.937 314.062 309.34 311.254 309.51 308.552C310.101 308.776 310.726 308.87 311.136 309.387C312.639 311.278 311.803 315.086 311.577 317.341Z" fill="#4B2D26"/>
<path d="M715.818 321.584C715.111 321.244 714.742 320.949 714.163 320.439C713.161 317.859 713.542 315.846 714.128 313.199L715.043 313.728C716.201 316.33 716.055 318.797 715.818 321.584Z" fill="#4B2D26"/>
<path d="M641.852 669.251C642.221 660.614 642.133 651.941 642.352 643.295C643.003 621.221 643.508 599.143 643.868 577.062L646.507 429.926L647.637 368.077C647.787 356.26 647.196 343.882 648.293 332.134C649.731 330.701 652.002 328.97 652.509 326.974C650.455 325.945 644.435 327.4 641.764 327.404C553.508 326.831 465.249 326.843 376.993 327.44C371.845 323.951 366.926 320.103 361.799 316.564C389.486 318.435 417.564 317.455 445.317 317.485L582.374 317.326C607.951 317.217 633.715 316.436 659.276 317.039C659.212 336.576 658.159 356.21 657.636 375.747L656.122 460.023C655.584 506.068 654.787 552.11 653.732 598.146C653.49 617.564 653.119 636.98 652.62 656.394C652.467 664.215 652.642 672.093 652.341 679.903C648.668 676.622 645.145 672.909 641.852 669.251Z" fill="#F5F5F3"/>
<path d="M370.148 676.764C371.263 664.505 370.47 651.527 370.463 639.197C370.594 615.22 370.48 591.243 370.119 567.268L368.431 428.25C367.741 393.568 366.282 358.972 366.345 324.271C370.271 326.675 373.742 329.968 377.169 333.025C378.041 346.776 377.432 360.93 377.452 374.729L377.409 452.954C377.625 524.944 377.433 596.936 376.834 668.924C375.91 670.266 374.73 671.472 373.649 672.692L370.148 676.764Z" fill="#F5F5F3"/>
<path d="M310.967 339.875C310.095 339.528 310.555 339.789 309.666 338.965C309.051 335.968 309.288 333.086 310.07 330.14C310.681 330.392 310.922 330.61 311.398 331.049C311.979 334.058 311.801 336.933 310.967 339.875Z" fill="#4B2D26"/>
<path d="M715.897 338.098C714.695 337.769 714.532 337.595 713.656 336.692C712.926 334.547 713.367 332.405 713.604 330.197C714.229 330.381 714.726 330.541 715.172 331.059C716.65 332.777 716.045 336.005 715.897 338.098Z" fill="#4B2D26"/>
<path d="M641.885 380.031C639.197 387.237 591.177 415.02 582.016 419.209C541.37 437.796 475.561 455.661 430.736 455.63C421.723 455.671 412.716 455.185 403.76 454.176C397.105 453.419 390.119 452.073 383.447 451.894C383.753 412.706 383.596 373.517 382.974 334.334L642.95 336.435C642.759 350.968 642.182 365.499 641.885 380.031Z" fill="#98F5E1"/>
<path d="M714.857 355.469C714.334 354.937 714.206 354.852 713.761 354.158C712.457 352.124 712.555 348.918 713.225 346.711C714.034 347.192 714.61 347.685 715.084 348.52C716.231 350.542 715.649 353.446 714.857 355.469Z" fill="#30261E"/>
<path d="M310.675 359.672C309.974 358.501 308.895 357.027 308.676 355.663C308.346 353.602 309.162 352.393 310.211 350.741L311.212 351.725C311.772 354.524 311.68 356.99 310.675 359.672Z" fill="#30261E"/>
<path d="M714.621 374.602C714.307 374.297 714.17 374.199 713.937 373.765C712.48 371.063 713.454 368.056 714.171 365.286C714.687 365.611 715.092 366.083 715.526 366.509C716.63 369.581 715.714 371.671 714.621 374.602Z" fill="#4B2D26"/>
<path d="M311.306 381.095C309.234 377.535 309.214 373.581 309.752 369.603L310.851 370.061C312.665 372.162 311.493 378.501 311.306 381.095Z" fill="#4B2D26"/>
<path d="M383.447 451.894C390.119 452.073 397.105 453.419 403.76 454.176C412.716 455.185 421.723 455.671 430.736 455.63C475.561 455.661 541.37 437.796 582.016 419.209C591.177 415.02 639.197 387.237 641.885 380.031C641.714 400.802 640.746 421.528 640.234 442.287L637.946 552.129C613.643 554.669 588.088 539.214 565.557 531.728C550.237 526.638 532.31 523.755 516.139 524.754C498.488 525.844 482.827 531.61 469.554 543.432C456.489 555.068 446.86 575.545 426.982 575.129C412.55 574.827 396.509 567.181 383.36 561.576C382.312 551.281 383.408 536.845 383.452 526.206L383.447 451.894Z" fill="#CFBAF0"/>
<path d="M715.681 390.891C714.785 390.647 714.237 390.473 713.714 389.657C712.257 387.387 712.436 384.216 713.016 381.716C713.608 382.141 714.061 382.637 714.508 383.217C716.179 385.386 715.998 388.344 715.681 390.891Z" fill="#4B2D26"/>
<path d="M299.97 401.943C299.942 396.671 299.005 389.077 300.281 384.1L300.006 570.573C288.554 570.347 277.379 571.805 265.84 571.094C266.321 560.025 267.646 549.024 264.868 538.107C262.669 529.469 257.876 521.832 250.081 517.226C241.949 512.421 232.968 512.176 224.027 514.585C212.878 517.59 190.71 530.808 184.96 540.795C184.322 541.318 183.652 541.998 182.929 542.384C169.59 533.176 159.855 525.01 148.779 513.123L148.574 512.643C154.863 501.669 162.073 491.25 170.127 481.498C201.573 443.221 249.375 406.932 299.97 401.943Z" fill="#B9FBC0"/>
<path d="M311.338 399.635C310.557 399.227 309.796 398.844 309.424 397.988C308.374 395.572 309.352 392.501 309.961 390.108L311.557 390.931C312.459 393.102 311.532 397.197 311.338 399.635Z" fill="#30261E"/>
<path d="M714.787 410.394C714.204 409.724 713.693 409.168 713.342 408.331C712.378 406.024 713.499 402.484 714.581 400.408C715.186 400.906 715.528 401.241 715.82 402.004C716.699 404.3 715.539 408.174 714.787 410.394Z" fill="#4B2D26"/>
<path d="M310.801 419.351C310.181 418.987 309.803 418.629 309.294 418.132C308.645 415.452 308.645 412.655 310.07 410.227L311.217 411.202C311.782 413.852 311.818 416.81 310.801 419.351Z" fill="#30261E"/>
<path d="M715.309 429.718C714.764 429.21 714.187 428.71 713.877 428.012C712.625 425.194 714.017 421.482 715.114 418.856C715.909 419.413 716.21 419.557 716.494 420.499C717.263 423.058 716.646 427.47 715.309 429.718Z" fill="#4B2D26"/>
<path d="M310.335 441.875C309.965 441.589 309.632 441.364 309.34 440.978C307.874 439.037 309.079 435.282 309.589 433.125C310.424 433.49 309.979 433.225 310.847 434.034C311.548 436.788 311.388 439.239 310.335 441.875Z" fill="#30261E"/>
<path d="M715.065 449.216L713.988 448.211C713.142 445.193 713.646 443.025 714.519 440.062L715.314 440.378C715.952 441.18 716.075 441.363 716.222 442.389C716.54 444.594 716.454 447.389 715.065 449.216Z" fill="#4B2D26"/>
<path d="M310.386 462.355C310.211 462.284 310.021 462.24 309.86 462.14C309.165 461.71 308.865 461.331 308.609 460.57C307.991 458.737 308.549 456.892 309.404 455.251C310.082 455.687 310.495 455.806 310.871 456.562C311.836 458.504 310.982 460.427 310.386 462.355Z" fill="#30261E"/>
<path d="M715.074 468.795C714.301 468.095 713.772 467.328 713.505 466.314C712.835 463.76 713.286 461.448 714.514 459.171L715.644 460.167C716.361 463.33 715.845 465.677 715.074 468.795Z" fill="#4B2D26"/>
<path d="M726.168 482.726C747.988 475.783 773.746 466.181 795.847 477.632C802.652 481.158 807.999 486.828 810.248 494.27C813.624 505.438 809.21 517.521 804.334 527.544C786.464 561.201 751.998 580.692 726.84 608.117L726.105 606.75C732.203 601.179 737.941 595.239 744.166 589.797C765.269 571.35 789.944 552.73 803.147 527.389C808.419 517.444 812.737 505.545 809.126 494.283C806.761 486.907 801.343 481.398 794.493 478.048C773.137 467.603 747.257 476.441 726.389 483.781L726.168 482.726Z" fill="#5C5948"/>
<path d="M726.389 483.781C747.257 476.441 773.137 467.603 794.493 478.048C801.343 481.398 806.761 486.907 809.126 494.283C812.737 505.545 808.419 517.444 803.147 527.389C796.381 522.922 752.439 515.478 743.09 514.494C737.35 513.889 731.647 513.944 725.887 514.009C725.844 508.325 724.765 487.717 726.389 483.781Z" fill="#C1F4CC"/>
<path d="M310.356 484.035C309.976 483.667 309.382 483.161 309.121 482.677C307.913 480.438 308.521 477.97 309.031 475.63C309.635 475.887 309.905 476.116 310.387 476.546C311.005 479.023 310.588 481.522 310.356 484.035Z" fill="#30261E"/>
<path d="M714.217 490.561C713.872 487.262 713.253 484.479 715.015 481.469L715.712 481.685C716.617 483.735 716.309 485.675 716.162 487.85L716.808 488.204L715.922 489.361L714.217 490.561Z" fill="#4B2D26"/>
<path d="M716.162 487.85C717.892 486.895 719.582 485.916 721.438 485.223L722.258 485.576C720.46 486.474 718.672 487.454 716.808 488.204L716.162 487.85Z" fill="#83B2A1"/>
<path d="M722.258 485.576C723.386 486.625 723.269 487.426 723.324 488.93C723.629 497.207 723.17 505.663 723.082 513.958C720.569 513.809 718.193 513.767 715.674 513.992C715.874 505.783 715.957 497.572 715.922 489.361L716.808 488.204C718.672 487.454 720.46 486.474 722.258 485.576Z" fill="#C1F4CC"/>
<path d="M714.217 490.561L715.922 489.361C715.957 497.572 715.874 505.783 715.674 513.992L714.411 514.034C714.377 507.692 715.554 496.28 714.217 490.561Z" fill="#9B6D3F"/>
<path d="M310.298 505.629C309.873 505.338 309.372 504.998 309.06 504.581C307.81 502.908 308.483 499.986 308.737 498.098C309.236 498.344 309.702 498.681 310.171 498.98C310.94 501.178 310.519 503.359 310.298 505.629Z" fill="#30261E"/>
<path d="M184.96 540.795C190.71 530.808 212.878 517.59 224.027 514.585C232.968 512.176 241.949 512.421 250.081 517.226C257.876 521.832 262.669 529.469 264.868 538.107C267.646 549.024 266.321 560.025 265.84 571.094L265.479 571.154C263.916 570.286 263.773 570.354 261.982 570.577L261.644 570.513C262.995 565.708 262.725 559.052 262.594 554.094C262.305 543.138 259.978 531.093 251.475 523.379C246.321 518.702 239.456 516.514 232.55 516.853C216.911 517.621 196.174 532.65 185.941 543.919L185.582 543.825L184.584 542.79C184.633 542.083 184.788 541.48 184.96 540.795Z" fill="#FBF8CC"/>
<path d="M508.28 849.956C500.417 856.275 487.766 862.068 478.765 867.428C429.648 896.674 386.073 918.483 328.251 924.335C278.503 929.586 228.481 917.326 186.799 889.668C180.959 885.815 175.073 881.981 169.665 877.529C127.002 842.403 99.2184 786.768 94.1197 731.995C88.7823 674.658 104.707 606.446 126.952 553.701C132.851 539.713 139.03 524.907 148.779 513.123C159.855 525.01 169.59 533.176 182.929 542.384C177.086 546.512 172.82 553.463 168.681 559.197C152.079 582.191 138.35 605.673 133.455 634.053C129.935 654.462 128.8 679.981 141.261 697.815C145.637 704.078 152.051 708.527 159.657 709.865C173.525 712.305 185.87 707.625 197.063 699.6C232.825 673.96 257.031 623.43 263.767 580.813C264.239 577.829 264.344 573.921 265.479 571.154L265.84 571.094C277.379 571.805 288.554 570.347 300.006 570.573L300.085 630.271C300.06 641.367 299.602 652.622 300.077 663.693C299.987 671.478 299.955 679.264 299.982 687.05C299.975 694.736 299.208 743.706 300.269 746.068C300.406 746.374 301.141 747.264 301.339 747.451C302.028 748.102 302.809 748.135 303.702 748.184C314.614 748.785 325.934 747.97 336.899 747.97L412.413 748.005C425.503 748.016 438.801 747.584 451.866 748.14C458.282 790.044 469.013 821.429 505.009 847.753C506.065 848.526 507.111 849.36 508.28 849.956Z" fill="#FBF8CC"/>
<path d="M705.999 514.149L714.411 514.034C714.394 521.29 713.969 528.632 714.137 535.873C714.344 544.799 715.397 554.458 714.317 563.305C713.522 564.051 713.182 564.643 713.175 565.752C713.168 566.812 713.578 568.132 713.9 569.138C714.456 576.07 713.601 582.98 713.527 589.913C713.385 603.118 713.847 616.455 712.882 629.631C712.142 630.696 711.854 631.107 712.033 632.495C712.117 633.151 712.67 634.097 712.964 634.656C713.072 639.317 714.117 646.902 712.425 651.155C711.935 652.581 711.606 653.207 712.13 654.705C712.256 655.067 712.492 655.354 712.713 655.656C712.732 655.809 712.753 655.961 712.77 656.113C713.122 659.249 713.706 679.173 712.443 680.859C712.078 681.346 711.407 681.847 710.96 682.231C710.714 683.439 710.969 683.976 711.64 684.97C711.971 685.459 712.445 685.899 712.853 686.317L713.572 686.239C715.454 681.059 713.125 662.971 714.246 655.355C714.628 653.604 714.473 652.094 714.301 650.32C713.783 644.949 714.133 639.281 714.519 633.908C714.88 632.183 714.761 630.754 714.578 629.01C713.839 617.232 714.261 604.646 714.673 592.841C714.746 590.742 716.345 589.191 716.316 587.253C716.238 582.023 713.482 574.32 715.561 568.731C715.873 568.24 716.21 567.757 716.412 567.205C716.92 565.818 716.235 564.347 715.749 563.057C715.911 557.653 715.621 552.24 715.764 546.835C715.863 543.095 716.383 539.344 716.357 535.608C716.306 528.4 715.632 521.235 715.674 513.992C718.193 513.767 720.569 513.809 723.082 513.958L721.93 738.012C721.907 741.369 721.926 744.725 721.987 748.082C716.716 743.302 708.096 736.54 704.928 730.16C706.464 725.408 705.864 714.798 706.016 709.503C706.82 681.427 706.647 653.498 706.532 625.422C706.38 588.344 707.046 551.215 705.999 514.149ZM713.547 700.994C713.594 699.049 713.988 696.861 712.737 695.245L711.959 695.453C711.763 695.925 711.427 696.669 711.352 697.159C711.085 698.904 711.89 699.558 712.84 700.831C712.653 702.859 712.545 704.719 712.789 706.746C711.457 707.816 710.465 708.2 710.057 709.892C710.69 710.933 711.315 711.805 712.133 712.708C712.29 715.17 712.14 718.224 713.012 720.528C714.008 716.228 713.624 711.365 713.529 706.97L713.547 700.994Z" fill="#98F5E1"/>
<path d="M714.411 514.034L715.674 513.992C715.632 521.235 716.306 528.4 716.357 535.608C716.383 539.344 715.863 543.095 715.764 546.835C715.621 552.24 715.911 557.653 715.749 563.057L714.317 563.305C715.397 554.458 714.344 544.799 714.137 535.873C713.969 528.632 714.394 521.29 714.411 514.034Z" fill="#5C5948"/>
<path d="M723.082 513.958L725.887 514.009C725.894 524.322 725.21 604.311 726.105 606.75L726.84 608.117C726.061 609.175 725.767 609.874 725.654 611.195C725.213 616.337 725.497 621.687 725.487 626.856L725.428 655.244L724.65 738.324L721.93 738.012L723.082 513.958Z" fill="#5C5948"/>
<path d="M725.887 514.009C731.647 513.944 737.35 513.889 743.09 514.494C752.439 515.478 796.381 522.922 803.147 527.389C789.944 552.73 765.269 571.35 744.166 589.797C737.941 595.239 732.203 601.179 726.105 606.75C725.21 604.311 725.894 524.322 725.887 514.009Z" fill="#B9FBC0"/>
<path d="M673.972 519.6C682.518 517.471 691.712 516.531 700.407 514.97L700.413 517.893C691.819 519.273 682.864 520.209 674.403 522.213C673.774 521.872 674.12 522.13 673.521 521.265L673.972 519.6Z" fill="#3B3627"/>
<path d="M185.941 543.919C196.174 532.65 216.911 517.621 232.55 516.853C239.456 516.514 246.321 518.702 251.475 523.379C259.978 531.093 262.305 543.138 262.594 554.094C262.725 559.052 262.995 565.708 261.644 570.513C230.79 565.64 213.538 559.398 185.941 543.919Z" fill="#B9FBC0"/>
<path d="M310.215 526.456C309.761 525.901 309.637 525.798 309.277 525.096C307.977 522.56 309.123 518.788 309.777 516.21L310.5 516.576C312.093 519.065 310.678 523.715 310.215 526.456Z" fill="#30261E"/>
<path d="M674.403 522.213C682.864 520.209 691.819 519.273 700.413 517.893C699.812 565.937 700.027 614.058 700.101 662.107C700.112 676.444 700.195 690.782 700.35 705.119C700.418 712.043 699.836 719.541 700.987 726.348C690.879 716.826 680.909 707.243 670.579 697.955C670.627 697.632 670.648 697.304 670.725 696.987C672.676 688.979 671.952 679.785 672.019 671.529L672.407 641.898L673.58 551.064C673.627 545.632 672.986 526.026 674.403 522.213Z" fill="#F5F5F3"/>
<path d="M383.36 561.576C396.509 567.181 412.55 574.827 426.982 575.129C446.86 575.545 456.489 555.068 469.554 543.432C482.827 531.61 498.488 525.844 516.139 524.754C532.31 523.755 550.237 526.638 565.557 531.728C588.088 539.214 613.643 554.669 637.946 552.129L637.617 553.929C620.713 554.514 605.576 549.19 590.009 543.281C563.283 533.136 536.953 523.327 507.728 527.994C491.015 530.662 477.302 538.047 465.775 550.421C455.03 561.956 446.317 576.489 428.879 577.256C413.588 577.928 397.071 570.401 383.382 564.13L383.36 561.576Z" fill="url(#paint2_linear_407_844)"/>
<path d="M383.382 564.13C397.071 570.401 413.588 577.928 428.879 577.256C446.317 576.489 455.03 561.956 465.775 550.421C477.302 538.047 491.015 530.662 507.728 527.994C536.953 523.327 563.283 533.136 590.009 543.281C605.576 549.19 620.713 554.514 637.617 553.929C638.853 558.044 637.256 593.197 637.107 600.261C636.681 621.513 636.471 642.769 636.477 664.025L423.9 664.516C410.076 664.567 396.302 665.717 382.475 665.625C382.695 648.985 382.823 632.343 382.859 615.701C382.863 606.89 381.876 568.663 383.382 564.13Z" fill="#CFBAF0"/>
<path d="M726.84 608.117C751.998 580.692 786.464 561.201 804.334 527.544C812.659 530.517 821.156 532.991 829.402 536.192C847.735 543.422 865.049 553.008 880.907 564.709C886.714 568.99 892.426 573.398 898.038 577.93C901.68 580.875 905.653 584.909 909.778 587.006C913.995 591.582 918.672 595.711 922.846 600.315C934.44 613.102 942.363 627.984 944.993 645.06L944.947 646.245C944.912 646.458 944.88 646.672 944.842 646.884C943.456 654.637 940.081 662.384 937.826 669.954C929.361 698.372 926.069 718.066 929.919 747.561L930.035 748.063C926.164 755.534 923.048 763.229 918.659 770.451C899.603 801.806 870.333 823.74 835.481 834.799C796.726 847.098 755.833 844.291 716.973 833.939C697.734 828.815 678.924 822.613 659.268 819.167C622.294 812.775 584.282 816.436 549.208 829.767C539.515 833.513 515.843 843.568 508.719 849.731L508.28 849.956C507.111 849.36 506.065 848.526 505.009 847.753C469.013 821.429 458.282 790.044 451.866 748.14C474.004 748.62 496.182 748.341 518.327 748.421L621.564 749.083L674.864 749.715C684.736 749.903 695.395 750.838 705.234 750.056C706.855 750.385 723.071 751.425 723.857 751.132C724.443 750.914 724.423 750.29 724.595 749.75C724.768 745.96 724.645 742.12 724.65 738.324L725.428 655.244L725.487 626.856C725.497 621.687 725.213 616.337 725.654 611.195C725.767 609.874 726.061 609.175 726.84 608.117Z" fill="url(#paint3_linear_407_844)"/>
<path d="M310.645 543.349C310.007 542.919 309.582 542.801 309.271 542.057C308.495 540.197 309.388 538.36 310.023 536.592L311.057 537.173C311.862 539.395 311.367 541.185 310.645 543.349Z" fill="#30261E"/>
<path d="M184.96 540.795C184.788 541.48 184.633 542.083 184.584 542.79L185.582 543.825C181.41 546.455 177.573 552.573 174.508 556.505C157.255 578.634 143.406 602.015 137.174 629.65C132.663 649.652 130.63 675.466 142.163 693.549C146.564 700.45 152.671 705.255 160.774 706.964C172.785 709.497 185.669 703.848 195.455 697.288C230.195 673.999 253.116 622.222 260.711 582.21C261.439 578.374 262.173 574.496 261.982 570.577C263.773 570.354 263.916 570.286 265.479 571.154C264.344 573.921 264.239 577.829 263.767 580.813C257.031 623.43 232.825 673.96 197.063 699.6C185.87 707.625 173.525 712.305 159.657 709.865C152.051 708.527 145.637 704.078 141.261 697.815C128.8 679.981 129.935 654.462 133.455 634.053C138.35 605.673 152.079 582.191 168.681 559.197C172.82 553.463 177.086 546.512 182.929 542.384C183.652 541.998 184.322 541.318 184.96 540.795Z" fill="#FAEBA1"/>
<path d="M261.982 570.577C262.173 574.496 261.439 578.374 260.711 582.21C253.116 622.222 230.195 673.999 195.455 697.288C185.669 703.848 172.785 709.497 160.774 706.964C152.671 705.255 146.564 700.45 142.163 693.549C130.63 675.466 132.663 649.652 137.174 629.65C143.406 602.015 157.255 578.634 174.508 556.505C177.573 552.573 181.41 546.455 185.582 543.825L185.941 543.919C213.538 559.398 230.79 565.64 261.644 570.513L261.982 570.577Z" fill="#FBF8CC"/>
<path d="M311.244 560.321L310.372 562.6C309.537 561.58 309.193 560.94 308.998 559.612C308.727 557.767 308.886 556.581 310.014 555.035L310.829 555.083C311.803 556.778 311.414 558.439 311.244 560.321Z" fill="#181F0E"/>
<path d="M311.244 560.321C314.1 559.348 316.691 558.768 319.708 558.528C319.589 596.492 319.127 634.455 318.324 672.411C318.144 681.484 317.981 690.592 317.516 699.655C317.185 706.094 316.43 712.558 316.487 719.007C316.517 722.435 316.532 725.805 318.062 728.947C315.355 731.312 304.704 741.581 302.313 742.295C303.185 718.741 302.478 694.905 302.382 671.321C303.204 641.86 302.352 612.262 302.631 582.78C303.483 578.663 303.096 574.029 303.089 569.827C305.163 569.363 307.207 568.996 309.316 568.725L309.97 569.255L310.18 572.006L310.606 571.784C311.277 569.052 311.164 565.284 310.372 562.6L311.244 560.321ZM309.75 573.878C308.405 575.957 307.667 577.872 308.148 580.381C308.317 581.265 308.705 581.968 309.134 582.748C310.824 580.043 310.766 577.642 310.333 574.559L309.75 573.878ZM309.377 594.216C308.433 595.976 308.073 597.686 308.702 599.645C309.039 600.695 309.386 600.754 310.217 601.409C310.64 599.277 310.972 597.55 310.643 595.369C310.209 594.856 309.959 594.574 309.377 594.216ZM309.839 611.16C308.946 613.908 308.057 619.968 309.347 622.617C309.617 623.172 309.744 623.035 310.459 623.365C311.178 619.731 311.455 614.557 309.839 611.16ZM309.594 632.803C308.361 635.13 308.065 636.995 308.79 639.543C309.185 639.941 309.593 640.424 310.04 640.76C311.229 638.278 311.252 636.396 310.565 633.755L309.594 632.803ZM309.558 649.8C308.865 652.52 308.534 654.88 309.34 657.609C309.759 657.999 310.188 658.466 310.658 658.79C311.024 655.898 311.242 653.386 310.365 650.568L309.558 649.8ZM308.978 667.134C308.795 670.761 308.29 673.926 310.39 677.097C310.558 675.03 311.486 669.47 310.143 667.894C309.626 667.287 309.825 667.496 308.978 667.134ZM309.439 685.686C308.668 689.055 308.216 691.302 309.815 694.472C310.982 692.09 310.845 689.34 310.443 686.778C310.129 686.417 309.815 685.979 309.439 685.686ZM308.758 703.099C308.441 705.222 308.177 706.871 308.71 708.971C309.237 709.651 309.494 709.909 310.238 710.401C310.583 708.487 311.276 706.058 310.168 704.267C309.8 703.674 309.35 703.412 308.758 703.099Z" fill="#FBF8CC"/>
<path d="M713.9 569.138C713.578 568.132 713.168 566.812 713.175 565.752C713.182 564.643 713.522 564.051 714.317 563.305L715.749 563.057C716.235 564.347 716.92 565.818 716.412 567.205C716.21 567.757 715.873 568.24 715.561 568.731L713.9 569.138Z" fill="#624943"/>
<path d="M713.9 569.138L715.561 568.731C713.482 574.32 716.238 582.023 716.316 587.253C716.345 589.191 714.746 590.742 714.673 592.841C714.261 604.646 713.839 617.232 714.578 629.01L712.882 629.631C713.847 616.455 713.385 603.118 713.527 589.913C713.601 582.98 714.456 576.07 713.9 569.138Z" fill="#3B6253"/>
<path d="M309.134 582.748C308.705 581.968 308.317 581.265 308.148 580.381C307.667 577.872 308.405 575.957 309.75 573.878L310.333 574.559C310.766 577.642 310.824 580.043 309.134 582.748Z" fill="#4F4538"/>
<path d="M310.217 601.409C309.386 600.754 309.039 600.695 308.702 599.645C308.073 597.686 308.433 595.976 309.377 594.216C309.959 594.574 310.209 594.856 310.643 595.369C310.972 597.55 310.64 599.277 310.217 601.409Z" fill="#3B3627"/>
<path d="M310.459 623.365C309.744 623.035 309.617 623.172 309.347 622.617C308.057 619.968 308.946 613.908 309.839 611.16C311.455 614.557 311.178 619.731 310.459 623.365Z" fill="#080704"/>
<path d="M712.882 629.631L714.578 629.01C714.761 630.754 714.88 632.183 714.519 633.908L712.964 634.656C712.67 634.097 712.117 633.151 712.033 632.495C711.854 631.107 712.142 630.696 712.882 629.631Z" fill="#4B2D26"/>
<path d="M310.04 640.76C309.593 640.424 309.185 639.941 308.79 639.543C308.065 636.995 308.361 635.13 309.594 632.803L310.565 633.755C311.252 636.396 311.229 638.278 310.04 640.76Z" fill="#30261E"/>
<path d="M712.964 634.656L714.519 633.908C714.133 639.281 713.783 644.949 714.301 650.32L712.425 651.155C714.117 646.902 713.072 639.317 712.964 634.656Z" fill="#3F8B84"/>
<path d="M300.077 663.693C300.402 657.691 301.456 651.932 301.628 645.877C302.354 654.254 301.846 663.016 301.911 671.443L301.808 688.33L301.142 687.801C300.326 687.165 300.681 687.365 299.982 687.05C299.955 679.264 299.987 671.478 300.077 663.693Z" fill="#080704"/>
<path d="M929.919 747.561C926.069 718.066 929.361 698.372 937.826 669.954C940.081 662.384 943.456 654.637 944.842 646.884C944.88 646.672 944.912 646.458 944.947 646.245L944.971 646.801C945.323 653.343 947.075 659.754 947.391 666.303C948.718 693.83 942.698 723.077 929.919 747.561Z" fill="#C1F4CC"/>
<path d="M310.658 658.79C310.188 658.466 309.759 657.999 309.34 657.609C308.534 654.88 308.865 652.52 309.558 649.8L310.365 650.568C311.242 653.386 311.024 655.898 310.658 658.79Z" fill="#080704"/>
<path d="M712.425 651.155L714.301 650.32C714.473 652.094 714.628 653.604 714.246 655.355L712.713 655.656C712.492 655.354 712.256 655.067 712.13 654.705C711.606 653.207 711.935 652.581 712.425 651.155Z" fill="#624943"/>
<path d="M712.713 655.656L714.246 655.355C713.125 662.971 715.454 681.059 713.572 686.239L712.853 686.317C712.445 685.899 711.971 685.459 711.64 684.97C710.969 683.976 710.714 683.439 710.96 682.231C711.407 681.847 712.078 681.346 712.443 680.859C713.706 679.173 713.122 659.249 712.77 656.113C712.753 655.961 712.732 655.809 712.713 655.656Z" fill="#3F8B84"/>
<path d="M310.39 677.097C308.29 673.926 308.795 670.761 308.978 667.134C309.825 667.496 309.626 667.287 310.143 667.894C311.486 669.47 310.558 675.03 310.39 677.097Z" fill="#181F0E"/>
<path d="M636.368 669.684L641.852 669.251C645.145 672.909 648.668 676.622 652.341 679.903C652.721 680.23 653.333 681.003 653.673 681.387L653.546 682.088C651.943 681.643 651.472 680.888 650.325 679.713C648.326 677.971 646.616 676.095 644.764 674.214C641.955 671.361 640.611 669.722 636.368 669.684Z" fill="#D4A564"/>
<path d="M380.236 670.492L550.622 669.439L607.913 669.509C617.284 669.57 627.034 670.336 636.368 669.684C640.611 669.722 641.955 671.361 644.764 674.214C646.616 676.095 648.326 677.971 650.325 679.713C557.678 678.911 465.027 678.815 372.378 679.424C375.099 676.559 377.634 673.468 380.236 670.492Z" fill="#F5F5F3"/>
<path d="M301.911 671.443L302.382 671.321C302.478 694.905 303.185 718.741 302.313 742.295C301.792 743.565 301.712 743.744 301.951 745.084L302.726 745.777C430.402 744.881 558.085 745.335 685.752 747.137C688.864 749.633 715.3 748.156 717.677 749.558C713.545 749.963 709.328 749.451 705.234 750.056C695.395 750.838 684.736 749.903 674.864 749.715L621.564 749.083L518.327 748.421C496.182 748.341 474.004 748.62 451.866 748.14C438.801 747.584 425.503 748.016 412.413 748.005L336.899 747.97C325.934 747.97 314.614 748.785 303.702 748.184C302.809 748.135 302.028 748.102 301.339 747.451C301.141 747.264 300.406 746.374 300.269 746.068C299.208 743.706 299.975 694.736 299.982 687.05C300.681 687.365 300.326 687.165 301.142 687.801L301.808 688.33L301.911 671.443Z" fill="#3B3627"/>
<path d="M655.234 685.056L657.268 684C658.698 687.756 663.545 690.307 666.017 693.478C665.236 694.233 664.957 694.336 664.63 695.409C661.657 691.831 657.949 688.857 655.234 685.056Z" fill="#D9B274"/>
<path d="M367.827 684.1C436.839 684.434 505.853 684.422 574.865 684.065L626.235 684.169C634.772 684.164 643.518 683.697 652.036 684.126C653.402 684.194 654.112 684.284 655.234 685.056C657.949 688.857 661.657 691.831 664.63 695.409C654.225 695.643 643.82 696.219 633.414 696.344C575.025 696.512 516.635 696.264 458.25 695.6C424.64 695.396 390.738 694.574 357.153 695.687C360.754 691.865 364.313 688.002 367.827 684.1Z" fill="#F5F5F3"/>
<path d="M309.815 694.472C308.216 691.302 308.668 689.055 309.439 685.686C309.815 685.979 310.129 686.417 310.443 686.778C310.845 689.34 310.982 692.09 309.815 694.472Z" fill="#30261E"/>
<path d="M712.84 700.831C711.89 699.558 711.085 698.904 711.352 697.159C711.427 696.669 711.763 695.925 711.959 695.453L712.737 695.245C713.988 696.861 713.594 699.049 713.547 700.994L712.84 700.831Z" fill="#4B2D26"/>
<path d="M669.082 700.632L670.579 697.955C680.909 707.243 690.879 716.826 700.987 726.348C701.877 727.39 703.089 728.549 703.695 729.761C703.024 731.287 702.723 731.404 703.304 733.035C700.95 733.032 698.653 732.817 696.315 732.579C698.084 732.462 699.849 732.311 701.612 732.126L702.024 731.567L700.786 730.676C699.317 726.462 674.219 704.999 669.082 700.632Z" fill="#49583C"/>
<path d="M322.611 724.495L349.135 699.243L352.099 700.74C341.785 708.768 332.821 719.093 323.027 727.802C322.058 728.266 321.081 728.654 320.241 729.332L318.635 728.947L322.611 724.495Z" fill="#49583C"/>
<path d="M352.099 700.74C361.235 701.741 371.122 701.019 380.33 701.01C397.493 700.975 414.655 701.037 431.818 701.195L619.791 701.417C627.437 701.381 665.974 699.607 669.082 700.632C674.219 704.999 699.317 726.462 700.786 730.676C661.465 726.501 620.086 728.198 580.48 728.131L375.373 728.459C370.957 727.447 365.202 728.007 360.624 727.998C348.184 727.974 335.428 728.572 323.027 727.802C332.821 719.093 341.785 708.768 352.099 700.74Z" fill="#F5F5F3"/>
<path d="M712.84 700.831L713.547 700.994L713.529 706.97L712.789 706.746C712.545 704.719 712.653 702.859 712.84 700.831Z" fill="#83B2A1"/>
<path d="M310.238 710.401C309.494 709.909 309.237 709.651 308.71 708.971C308.177 706.871 308.441 705.222 308.758 703.099C309.35 703.412 309.8 703.674 310.168 704.267C311.276 706.058 310.583 708.487 310.238 710.401Z" fill="#3B3627"/>
<path d="M712.133 712.708C711.315 711.805 710.69 710.933 710.057 709.892C710.465 708.2 711.457 707.816 712.789 706.746L713.529 706.97C713.624 711.365 714.008 716.228 713.012 720.528C712.14 718.224 712.29 715.17 712.133 712.708Z" fill="#747756"/>
<path d="M320.241 729.332C321.081 728.654 322.058 728.266 323.027 727.802C335.428 728.572 348.184 727.974 360.624 727.998C365.202 728.007 370.957 727.447 375.373 728.459C377.497 729.816 379.812 730.428 382.026 731.563C373.586 732.402 364.882 732.185 356.399 732.32C343.587 732.524 330.665 732.819 317.855 732.489C318.661 731.445 319.456 730.392 320.241 729.332Z" fill="url(#paint4_linear_407_844)"/>
<path d="M375.373 728.459L580.48 728.131C620.086 728.198 661.465 726.501 700.786 730.676L702.024 731.567L701.612 732.126C699.849 732.311 698.084 732.462 696.315 732.579C689.129 732.657 681.937 731.685 674.748 731.456C656.197 730.937 637.641 730.623 619.084 730.516C540.063 730.19 461.041 730.54 382.026 731.563C379.812 730.428 377.497 729.816 375.373 728.459Z" fill="url(#paint5_linear_407_844)"/>
<path d="M302.313 742.295C304.704 741.581 315.355 731.312 318.062 728.947H318.635L320.241 729.332C319.456 730.392 318.661 731.445 317.855 732.489C312.592 736.612 307.622 741.229 302.726 745.777L301.951 745.084C301.712 743.744 301.792 743.565 302.313 742.295Z" fill="#3B3627"/>
<path d="M703.695 729.761L704.928 730.16C708.096 736.54 716.716 743.302 721.987 748.082L724.595 749.75C724.423 750.29 724.443 750.914 723.857 751.132C723.071 751.425 706.855 750.385 705.234 750.056C709.328 749.451 713.545 749.963 717.677 749.558C715.3 748.156 688.864 749.633 685.752 747.137C696.556 747.359 707.319 748.327 718.112 748.451C714.025 743.135 708.573 737.174 703.304 733.035C702.723 731.404 703.024 731.287 703.695 729.761Z" fill="#5C5948"/>
<path d="M317.855 732.489C330.665 732.819 343.587 732.524 356.399 732.32C364.882 732.185 373.586 732.402 382.026 731.563C461.041 730.54 540.063 730.19 619.084 730.516C637.641 730.623 656.197 730.937 674.748 731.456C681.937 731.685 689.129 732.657 696.315 732.579C698.653 732.817 700.95 733.032 703.304 733.035C708.573 737.174 714.025 743.135 718.112 748.451C707.319 748.327 696.556 747.359 685.752 747.137C558.085 745.335 430.402 744.881 302.726 745.777C307.622 741.229 312.592 736.612 317.855 732.489ZM321.949 736.698L322.302 738.008C324.482 739.192 327.561 738.624 329.971 738.484C329.616 737.607 329.71 737.093 328.749 736.757C326.732 736.054 324.04 736.554 321.949 736.698ZM394.623 736.722C393.887 737.889 393.6 738.132 393.626 739.488C394.699 740.566 395.777 740.669 397.204 740.942C397.89 739.635 398.015 739.619 397.694 738.199C396.655 737.44 395.856 737.081 394.623 736.722ZM675.63 736.71C675.513 738.274 675.493 739.141 676.245 740.592C677.143 741.292 677.689 741.632 678.808 741.863C679 740.33 679.227 739.216 678.544 737.757C677.489 736.976 676.935 736.815 675.63 736.71ZM342.904 737.641C343.163 738.31 343.124 738.779 343.845 739.074C346.237 740.053 350.346 739.408 352.965 739.282C352.473 738.322 352.439 738.049 351.344 737.709C348.919 736.956 345.454 737.482 342.904 737.641ZM360.855 737.593L359.737 738.443L359.849 739.158C362.148 739.846 364.647 739.601 367.027 739.567L368.065 738.947L367.861 738.241C365.623 737.475 363.2 737.571 360.855 737.593ZM372.327 737.643L372.089 738.754C373.126 739.758 374.432 739.69 375.834 739.674C377.371 739.643 378.909 739.592 380.446 739.523L380.578 738.272C378.624 736.732 374.74 737.471 372.327 737.643ZM472.946 737.883C472.996 739.382 472.895 739.631 473.798 740.798C475.135 741.048 476.187 741.06 477.529 740.979C477.332 739.516 477.388 739.251 476.41 738.177C475.171 737.881 474.218 737.808 472.946 737.883Z" fill="#C1F4CC"/>
<path d="M329.971 738.484C327.561 738.624 324.482 739.192 322.302 738.008L321.949 736.698C324.04 736.554 326.732 736.054 328.749 736.757C329.71 737.093 329.616 737.607 329.971 738.484Z" fill="#4F4538"/>
<path d="M397.204 740.942C395.777 740.669 394.699 740.566 393.626 739.488C393.6 738.132 393.887 737.889 394.623 736.722C395.856 737.081 396.655 737.44 397.694 738.199C398.015 739.619 397.89 739.635 397.204 740.942Z" fill="#30261E"/>
<path d="M678.808 741.863C677.689 741.632 677.143 741.292 676.245 740.592C675.493 739.141 675.513 738.274 675.63 736.71C676.935 736.815 677.489 736.976 678.544 737.757C679.227 739.216 679 740.33 678.808 741.863Z" fill="#73543E"/>
<path d="M352.965 739.282C350.346 739.408 346.237 740.053 343.845 739.074C343.124 738.779 343.163 738.31 342.904 737.641C345.454 737.482 348.919 736.956 351.344 737.709C352.439 738.049 352.473 738.322 352.965 739.282Z" fill="#080704"/>
<path d="M367.027 739.567C364.647 739.601 362.148 739.846 359.849 739.158L359.737 738.443L360.855 737.593C363.2 737.571 365.623 737.475 367.861 738.241L368.065 738.947L367.027 739.567Z" fill="#30261E"/>
<path d="M380.446 739.523C378.909 739.592 377.371 739.643 375.834 739.674C374.432 739.69 373.126 739.758 372.089 738.754L372.327 737.643C374.74 737.471 378.624 736.732 380.578 738.272L380.446 739.523Z" fill="#30261E"/>
<path d="M477.529 740.979C476.187 741.06 475.135 741.048 473.798 740.798C472.895 739.631 472.996 739.382 472.946 737.883C474.218 737.808 475.171 737.881 476.41 738.177C477.388 739.251 477.332 739.516 477.529 740.979Z" fill="#3B3627"/>
<path d="M721.93 738.012L724.65 738.324C724.645 742.12 724.768 745.96 724.595 749.75L721.987 748.082C721.926 744.725 721.907 741.369 721.93 738.012Z" fill="#4F4538"/>
<path d="M508.719 849.731C515.843 843.568 539.515 833.513 549.208 829.767C584.282 816.436 622.294 812.775 659.268 819.167C678.924 822.613 697.734 828.815 716.973 833.939C755.833 844.291 796.726 847.098 835.481 834.799C870.333 823.74 899.603 801.806 918.659 770.451C923.048 763.229 926.164 755.534 930.035 748.063C933.169 751.834 934.697 758.294 936.385 762.896C943.192 781.457 950.485 799.796 948.566 819.997C946.195 844.954 930.603 864.109 911.934 879.41C879.027 906.38 827.054 921.535 785.067 924.258C770.742 925.188 756.034 924.51 741.765 923.065C725.123 921.379 708.383 917.706 692.278 913.271C684.263 911.063 676.172 908.871 668.311 906.17C659.603 903.178 651.071 899.686 642.378 896.646C627.683 891.509 612.843 886.717 598.074 881.792C579.175 875.49 559.658 871.063 540.908 864.338C534.835 862.16 512.424 853.942 508.973 850.087C508.876 849.978 508.804 849.85 508.719 849.731Z" fill="#FFCFD2"/>
<defs>
<linearGradient id="paint0_linear_407_844" x1="547.473" y1="524.601" x2="384.272" y2="217.306" gradientUnits="userSpaceOnUse">
<stop stop-color="#37362F"/>
<stop offset="1" stop-color="#5E4436"/>
</linearGradient>
<linearGradient id="paint1_linear_407_844" x1="519.11" y1="262.438" x2="520.558" y2="290.539" gradientUnits="userSpaceOnUse">
<stop stop-color="#C6EAD0"/>
<stop offset="1" stop-color="#D6E5E3"/>
</linearGradient>
<linearGradient id="paint2_linear_407_844" x1="522.361" y1="594.703" x2="495.536" y2="522.02" gradientUnits="userSpaceOnUse">
<stop stop-color="#292A1D"/>
<stop offset="1" stop-color="#3E3E3C"/>
</linearGradient>
<linearGradient id="paint3_linear_407_844" x1="930.931" y1="735.784" x2="468.479" y2="656.176" gradientUnits="userSpaceOnUse">
<stop stop-color="#69F3C0"/>
<stop offset="1" stop-color="#B2F8C3"/>
</linearGradient>
<linearGradient id="paint4_linear_407_844" x1="350.227" y1="724.188" x2="347.733" y2="736.511" gradientUnits="userSpaceOnUse">
<stop stop-color="#A87C48"/>
<stop offset="1" stop-color="#B39251"/>
</linearGradient>
<linearGradient id="paint5_linear_407_844" x1="540.066" y1="726.722" x2="539.95" y2="732.932" gradientUnits="userSpaceOnUse">
<stop stop-color="#3D4D37"/>
<stop offset="1" stop-color="#785E37"/>
</linearGradient>
</defs>
</svg>
