<svg width="1024" height="1024" viewBox="0 0 1024 1024" fill="none" xmlns="http://www.w3.org/2000/svg">
<path d="M577.747 160.359C565.388 160.441 552.797 159.337 540.435 158.815L448.521 154.285L420.761 152.799C415.308 152.509 409.358 151.833 403.927 152.411C396.977 153.151 389.54 156.398 382.906 158.613L350.367 169.465L328.159 176.815C324.055 178.163 319.681 179.288 315.731 181.021C314.951 191.742 315.361 202.718 315.383 213.47L315.538 268.439L316.461 448.052L316.665 496.408C316.717 504.447 317.375 512.97 316.681 520.946C268.549 525.592 239.75 545.273 209.653 581.895L209.058 582.623C205.647 579.587 200.892 577.332 197.008 574.879C193.426 572.618 190.049 570.002 186.664 567.462C164.701 550.983 146.395 532.273 130.075 510.176C117.175 492.709 104.692 472.942 96.369 452.816C82.9137 420.279 78.0001 380.158 83.4052 345.346C85.6886 329.68 90.1794 314.416 96.7438 300.009C101.944 288.506 108.109 277.261 116.737 267.945C139.422 243.449 175.193 229.899 204.619 215.225C220.722 207.195 236.647 198.271 251.357 187.88C269.835 174.828 285.183 158.601 301.613 143.205C314.197 131.413 327.922 120.062 341.874 109.904C378.299 83.3849 417.349 70.5195 462.593 77.8045C486.647 81.6775 512.087 93.4536 531.41 108.483C541.245 116.132 550.587 125.728 558.711 135.18C565.496 143.075 571.221 151.644 577.422 159.944C577.527 160.085 577.639 160.221 577.747 160.359Z" fill="#FFCFD2"/>
<path d="M594.169 161.009C598.399 154.329 606.123 148.528 612.207 143.485C637.819 122.252 666.561 103.664 699.461 96.3865C741.578 87.0697 778.657 95.2485 814.754 118.389C877.961 158.909 916.703 239.346 932.248 310.759C937.056 332.842 940.666 355.757 941.854 378.351C944.753 433.436 937.444 491.909 913.769 542.149C910.261 549.591 906.598 557.157 902.119 564.071C882.141 594.914 856.409 618.42 825.421 637.912C825.049 629.593 825.6 621.172 825.399 612.83C824.667 582.377 821.991 548.731 809.554 520.548C796.045 489.939 771.309 467.278 743.593 449.579C735.566 444.452 727.502 439.328 718.586 435.881L718.993 297.189C719.072 253.973 719.503 210.674 718.721 167.465C718.456 167.239 717.564 166.644 717.243 166.55C714.37 165.707 690.782 165.564 686.006 165.35C655.394 163.979 624.809 161.727 594.169 161.009Z" fill="#98F5E1"/>
<path d="M315.731 181.021C319.681 179.288 324.055 178.163 328.159 176.815L350.367 169.465L382.906 158.613C389.54 156.398 396.977 153.151 403.927 152.411C409.358 151.833 415.308 152.509 420.761 152.799L448.521 154.285L540.435 158.815C552.797 159.337 565.388 160.441 577.747 160.359L579.387 160.612L578.986 161.329C577.089 161.52 575.225 161.427 573.34 161.561C531.446 160.476 489.558 157.667 447.692 155.749L419.812 154.319C414.137 154.054 407.972 153.357 402.339 154.297C395.779 155.391 388.998 158.222 382.666 160.297L344.94 172.671L321.276 180.726C331.919 181.139 342.645 182.135 353.29 182.087C370.809 183.311 388.39 183.968 405.927 184.922L569.415 192.931C587.253 193.233 605.17 194.575 622.991 195.494C630.289 195.871 639.895 197.335 646.966 196.149C653.455 195.061 660.493 191.204 666.629 188.68C681.9 182.484 697.073 176.051 712.144 169.384C714.232 168.775 716.249 168.284 718.402 167.964L715.458 170.085C705.364 174.544 695.209 178.866 684.997 183.049C672.844 187.933 660.506 192.521 648.693 198.194L646.931 198.09C620.563 197.801 594.246 194.856 567.892 194.534C531.608 192.562 495.313 190.801 459.009 189.251C426.794 187.588 394.475 185.092 362.234 184.394C347.195 183.033 331.988 182.877 316.906 181.986L318.351 519.917C319.195 616.208 318.625 712.56 320.528 808.837C349.681 812.364 378.763 816.657 407.954 819.849L567.365 840.196L616.373 846.325C626.044 847.549 636.337 848.264 645.75 850.833C645.245 851.697 645.512 851.416 645.102 851.796C617.93 847.587 590.535 844.682 563.271 841.11C512.186 834.012 461.01 827.58 409.757 821.815C380.132 818.288 350.156 815.209 320.702 810.522C320.419 814.749 320.37 818.871 320.534 823.105C340.422 826.033 360.475 828.381 380.426 830.854C391.908 832.277 403.454 834.089 414.966 835.197C448.403 840.024 482.123 844.005 515.682 847.947C532.303 849.9 549.545 851.013 565.987 853.993L566.035 854.722C564.803 854.783 563.572 854.868 562.343 854.978C556.881 854.691 551.274 853.723 545.833 853.081L511.343 848.843L418.858 837.224C412.76 836.208 353.534 828.503 350.865 829.396C347.509 830.519 349.459 843.912 347.248 847.022C345.984 848.8 344.105 850.19 341.915 850.52C340.302 850.763 338.567 850.334 337.291 849.307C332.551 845.492 332.851 831.847 332.428 826.212C328.672 825.852 321.808 825.995 318.913 823.629C318.204 818.519 318.861 812.887 318.709 807.681C318.098 786.644 318.534 765.525 318.26 744.473L316.681 520.946C317.375 512.97 316.717 504.447 316.665 496.408L316.461 448.052L315.538 268.439L315.383 213.47C315.361 202.718 314.951 191.742 315.731 181.021ZM334.405 826.782C334.622 832.157 334.208 844.178 338.609 848.068C339.545 848.894 340.564 849.068 341.766 848.882C343.487 848.616 344.787 847.507 345.987 846.335C347.253 840.783 346.721 835.053 348.11 829.485L348.292 828.724C343.671 828.021 339.042 827.374 334.405 826.782Z" fill="#070302"/>
<path d="M344.94 172.671L382.666 160.297C388.998 158.222 395.779 155.391 402.339 154.297C407.972 153.357 414.137 154.054 419.812 154.319L447.692 155.749C489.558 157.667 531.446 160.476 573.34 161.561C578.95 162.312 584.82 162.469 590.482 162.576C588.031 166.826 584.572 170.615 581.599 174.515C577.276 180.185 572.844 186.678 569.415 192.931L405.927 184.922C388.39 183.968 370.809 183.311 353.29 182.087C351.813 178.196 347.57 175.841 344.94 172.671Z" fill="#CFBAF0"/>
<path d="M579.387 160.612C583.276 160.589 587.141 161.099 591.02 161.04L591.83 161.971L591.373 162.524L590.482 162.576C584.82 162.469 578.95 162.312 573.34 161.561C575.225 161.427 577.089 161.52 578.986 161.329L579.387 160.612Z" fill="#3D0E06"/>
<path d="M591.02 161.04L594.169 161.009C624.809 161.727 655.394 163.979 686.006 165.35C690.782 165.564 714.37 165.707 717.243 166.55C717.564 166.644 718.456 167.239 718.721 167.465L718.402 167.964C716.249 168.284 714.232 168.775 712.144 169.384C706.156 167.765 692.884 168.338 685.955 168.093C667.049 167.424 648.146 165.787 629.249 164.827C620.26 164.37 598.648 164.806 591.373 162.524L591.83 161.971L591.02 161.04Z" fill="#C19333"/>
<path d="M590.482 162.576L591.373 162.524C598.648 164.806 620.26 164.37 629.249 164.827C648.146 165.787 667.049 167.424 685.955 168.093C692.884 168.338 706.156 167.765 712.144 169.384C697.073 176.051 681.9 182.484 666.629 188.68C660.493 191.204 653.455 195.061 646.966 196.149C639.895 197.335 630.289 195.871 622.991 195.494C605.17 194.575 587.253 193.233 569.415 192.931C572.844 186.678 577.276 180.185 581.599 174.515C584.572 170.615 588.031 166.826 590.482 162.576Z" fill="#8EECF5"/>
<path d="M718.721 167.465C719.503 210.674 719.072 253.973 718.993 297.189L718.586 435.881L718.344 665.455C718.037 694.291 717.919 723.128 717.99 751.966C717.967 764.623 718.29 777.385 717.829 790.03C716.518 784.41 717.47 774.355 717.476 768.153L717.521 726.503C717.528 718.47 717.836 710.302 717.353 702.29C716.41 703.715 717.057 759.781 716.87 766.957C715.62 762.883 716.452 754.339 716.459 749.757L716.543 694.703C716.55 687.53 717.599 675.838 715.976 669.203C715.813 668.033 715.901 666.716 715.875 665.527L715.989 433.197L716.472 256.517L716.462 202.436C716.456 192.753 716.773 182.924 716.319 173.261C716.257 171.945 716.121 171.202 715.458 170.085L718.402 167.964L718.721 167.465Z" fill="url(#paint0_linear_407_296)"/>
<path d="M648.693 198.194C660.506 192.521 672.844 187.933 684.997 183.049C695.209 178.866 705.364 174.544 715.458 170.085C716.121 171.202 716.257 171.945 716.319 173.261C716.773 182.924 716.456 192.753 716.462 202.436L716.472 256.517L715.989 433.197C715.753 433.164 715.518 433.125 715.281 433.096C709.706 432.415 703.194 428.468 697.851 426.434C689.604 423.294 681.166 420.659 672.897 417.567C665.211 414.692 657.615 411.307 649.828 408.747C649.31 409.404 648.958 409.974 648.559 410.701C649.023 400.06 648.762 389.313 648.769 378.66C648.776 369.15 649.135 359.469 648.424 349.991C647.729 322.843 648.371 295.518 648.418 268.353C648.458 245.013 647.803 221.505 648.693 198.194Z" fill="#98F5E1"/>
<path d="M321.276 180.726L344.94 172.671C347.57 175.841 351.813 178.196 353.29 182.087C342.645 182.135 331.919 181.139 321.276 180.726Z" fill="#FDE4CF"/>
<path d="M316.906 181.986C331.988 182.877 347.195 183.033 362.234 184.394C367.284 191.607 383.827 198.356 386.712 205.554C375.064 205.294 363.407 204.518 351.771 203.937C345.509 203.624 337.085 202.212 331.06 203.663C330.06 206.075 329.834 208.837 329.679 211.43C329.226 219.018 329.496 226.735 329.493 234.341L329.592 276.323L330.544 397.664C330.76 412.584 330.831 427.505 330.757 442.426C345.266 443.126 359.803 444.825 374.29 445.984C387.45 447.038 400.952 447.507 414.016 449.389C412.538 454.079 410.423 459.128 409.701 463.973L361.643 459.921C354.298 459.289 346.53 457.977 339.194 458.099C336.874 458.137 334.591 458.281 332.568 459.497C330.405 463.248 332.495 511.163 332.548 519.915L318.351 519.917L316.906 181.986Z" fill="url(#paint1_linear_407_296)"/>
<path d="M362.234 184.394C394.475 185.092 426.794 187.588 459.009 189.251C495.313 190.801 531.608 192.562 567.892 194.534C567.058 197.28 559.329 211.63 557.481 214.109C556.27 214.427 555.228 214.545 553.988 214.614C537.556 214.038 521.127 212.922 504.707 212.083C465.358 210.233 426.025 208.057 386.712 205.554C383.827 198.356 367.284 191.607 362.234 184.394Z" fill="#CFBAF0"/>
<path d="M567.892 194.534C594.246 194.856 620.563 197.801 646.931 198.09C647.593 232.921 646.804 267.825 646.784 302.666L646.501 528C646.207 553.458 646.103 578.918 646.189 604.378C646.184 612.812 645.139 628.317 646.739 635.96C644.31 631.965 636.592 628.349 632.439 626.222L632.467 583.313C632.473 576.968 633.254 569.639 632.189 563.433C630.385 561.983 627.996 561.533 625.754 561.183C617.472 559.891 608.624 559.901 600.247 559.333C584.481 558.264 568.723 557.067 552.976 555.742L554.961 555.24C556.907 551.134 561.264 548.401 563.231 544.137C575.584 545.011 587.992 545.643 600.322 546.77C608.223 547.626 616.141 548.317 624.071 548.841C625.525 549.042 627.02 549.164 628.478 548.898C629.887 548.64 630.683 548.056 631.531 546.916C633.035 540.282 633.334 491.157 631.797 484.807C628.016 480.653 601.948 480.379 595.109 479.708C593.972 476.294 595.52 467.409 595.845 463.505C601.681 464.085 627.526 467.134 631.011 464.151C632.222 463.113 632.272 457.374 632.328 455.694C632.68 445.107 632.408 434.416 632.413 423.82L632.434 365.055L632.739 218.617C619.011 218.215 605.245 217.186 591.522 216.478C579.022 215.833 566.467 215.532 553.988 214.614C555.228 214.545 556.27 214.427 557.481 214.109C559.329 211.63 567.058 197.28 567.892 194.534Z" fill="#90DBF4"/>
<path d="M646.931 198.09L648.693 198.194C647.803 221.505 648.458 245.013 648.418 268.353C648.371 295.518 647.729 322.843 648.424 349.991C647.834 359.675 648.108 369.539 648.111 379.243L648.151 426.323L648.136 563.874C648.131 587.717 648.822 611.732 648.044 635.551L646.739 635.96C645.139 628.317 646.184 612.812 646.189 604.378C646.103 578.918 646.207 553.458 646.501 528L646.784 302.666C646.804 267.825 647.593 232.921 646.931 198.09Z" fill="#78420E"/>
<path d="M330.757 442.426C330.831 427.505 330.76 412.584 330.544 397.664L329.592 276.323L329.493 234.341C329.496 226.735 329.226 219.018 329.679 211.43C329.834 208.837 330.06 206.075 331.06 203.663C337.085 202.212 345.509 203.624 351.771 203.937C363.407 204.518 375.064 205.294 386.712 205.554C426.025 208.057 465.358 210.233 504.707 212.083C521.127 212.922 537.556 214.038 553.988 214.614C566.467 215.532 579.022 215.833 591.522 216.478C605.245 217.186 619.011 218.215 632.739 218.617L632.434 365.055L632.413 423.82C632.408 434.416 632.68 445.107 632.328 455.694C632.272 457.374 632.222 463.113 631.011 464.151C627.526 467.134 601.681 464.085 595.845 463.505C589.361 463.575 582.552 462.724 576.072 462.224L536.931 459.011L481.911 454.962C459.283 453.14 436.663 450.933 414.016 449.389C400.952 447.507 387.45 447.038 374.29 445.984C359.803 444.825 345.266 443.126 330.757 442.426ZM389.339 207.503L352.96 205.787C345.961 205.447 338.789 204.749 331.789 204.874C330.261 212.759 331.021 221.872 331.016 229.901C331.01 245.487 331.087 261.074 331.249 276.66L332.558 440.851L390.282 445.435C398.35 446.084 407.012 447.557 415.065 447.52C422.218 448.524 429.568 448.883 436.77 449.486L478.089 452.97L476.058 212.477C466.746 211.298 456.912 211.303 447.518 210.732C428.133 209.528 408.739 208.452 389.339 207.503ZM477.668 212.48L479.839 452.908C499.259 455.346 519.157 455.907 538.683 457.549C557.821 459.255 576.975 460.789 596.141 462.151C605.918 462.863 615.766 463.807 625.566 464.056C627.136 464.096 628.879 464.187 630.309 463.461C632.182 455.637 631.068 445.433 631.07 437.317L631.047 388.747L631.44 220.453C622.741 219.482 613.87 219.289 605.13 218.832L556.345 216.463C530.193 215.179 503.841 212.786 477.668 212.48ZM631.5 399.75C631.481 402.287 630.728 409.364 632 411.25C632.019 408.713 632.772 401.636 631.5 399.75Z" fill="#070302"/>
<path d="M331.789 204.874C338.789 204.749 345.961 205.447 352.96 205.787L389.339 207.503C395.938 217.174 402.94 225.722 408.291 236.329C430.488 280.328 438.065 345.556 429.153 393.804C426.916 405.915 423.763 418.257 420.342 430.091C418.659 435.912 416.543 441.648 415.065 447.52C407.012 447.557 398.35 446.084 390.282 445.435L332.558 440.851L331.249 276.66C331.087 261.074 331.01 245.487 331.016 229.901C331.021 221.872 330.261 212.759 331.789 204.874Z" fill="#FBF8CC"/>
<path d="M389.339 207.503C408.739 208.452 428.133 209.528 447.518 210.732C456.912 211.303 466.746 211.298 476.058 212.477L478.089 452.97L436.77 449.486C429.568 448.883 422.218 448.524 415.065 447.52C416.543 441.648 418.659 435.912 420.342 430.091C423.763 418.257 426.916 405.915 429.153 393.804C438.065 345.556 430.488 280.328 408.291 236.329C402.94 225.722 395.938 217.174 389.339 207.503ZM445.182 312.581C442.129 313.498 439.741 314.652 438.223 317.603C437.465 319.075 437.225 320.734 437.096 322.365C436.366 331.547 435.724 390.899 437.552 395.82C438.489 398.341 440.428 400.192 442.94 401.107C444.418 401.645 445.96 401.707 447.514 401.758C450.551 400.556 452.903 399.302 454.341 396.239C455.032 394.769 455.12 393.123 455.184 391.525C455.478 384.245 455.476 320.707 454.269 317.526C453.444 315.354 451.345 313.837 449.2 313.153C447.929 312.748 446.51 312.642 445.182 312.581Z" fill="#CFBAF0"/>
<path d="M479.839 452.908L477.668 212.48C503.841 212.786 530.193 215.179 556.345 216.463L605.13 218.832C613.87 219.289 622.741 219.482 631.44 220.453L631.047 388.747L631.07 437.317C631.068 445.433 632.182 455.637 630.309 463.461C628.879 464.187 627.136 464.096 625.566 464.056C615.766 463.807 605.918 462.863 596.141 462.151C576.975 460.789 557.821 459.255 538.683 457.549C519.157 455.907 499.259 455.346 479.839 452.908ZM497.642 317.082C494.667 317.915 492.349 319.089 490.859 321.925C490.103 323.365 489.889 324.867 489.775 326.47C489.217 334.354 488.916 396.122 490.408 400.865C491.026 402.83 492.911 404.411 494.717 405.246C496.634 406.133 498.639 406.196 500.714 406.289C503.285 405.025 506.196 403.62 507.233 400.713C508.061 398.392 508.182 333.82 507.97 327.167C507.908 325.232 508.026 322.686 507.036 320.981C505.857 318.951 503.618 317.732 501.35 317.335C500.141 317.123 498.867 317.096 497.642 317.082Z" fill="url(#paint2_linear_407_296)"/>
<path d="M447.514 401.758C445.96 401.707 444.418 401.645 442.94 401.107C440.428 400.192 438.489 398.341 437.552 395.82C435.724 390.899 436.366 331.547 437.096 322.365C437.225 320.734 437.465 319.075 438.223 317.603C439.741 314.652 442.129 313.498 445.182 312.581C446.51 312.642 447.929 312.748 449.2 313.153C451.345 313.837 453.444 315.354 454.269 317.526C455.476 320.707 455.478 384.245 455.184 391.525C455.12 393.123 455.032 394.769 454.341 396.239C452.903 399.302 450.551 400.556 447.514 401.758ZM445.048 313.989C442.517 315.088 440.304 316.262 439.247 318.971C437.628 323.12 437.672 392.406 439.334 396.024C440.166 397.835 441.796 399.044 443.645 399.687C444.628 400.028 445.667 400.11 446.697 400.183C449.496 399.169 451.498 398.374 452.826 395.564C453.517 394.103 453.54 392.472 453.606 390.885C453.93 383.152 454.051 321.081 452.744 318.001C452.011 316.274 450.364 315.106 448.636 314.532C447.462 314.142 446.274 314.052 445.048 313.989Z" fill="#070302"/>
<path d="M446.697 400.183C445.667 400.11 444.628 400.028 443.645 399.687C441.796 399.044 440.166 397.835 439.334 396.024C437.672 392.406 437.628 323.12 439.247 318.971C440.304 316.262 442.517 315.088 445.048 313.989C446.274 314.052 447.462 314.142 448.636 314.532C450.364 315.106 452.011 316.274 452.744 318.001C454.051 321.081 453.93 383.152 453.606 390.885C453.54 392.472 453.517 394.103 452.826 395.564C451.498 398.374 449.496 399.169 446.697 400.183Z" fill="#FBE4F2"/>
<path d="M500.714 406.289C498.639 406.196 496.634 406.133 494.717 405.246C492.911 404.411 491.026 402.83 490.408 400.865C488.916 396.122 489.217 334.354 489.775 326.47C489.889 324.867 490.103 323.365 490.859 321.925C492.349 319.089 494.667 317.915 497.642 317.082C498.867 317.096 500.141 317.123 501.35 317.335C503.618 317.732 505.857 318.951 507.036 320.981C508.026 322.686 507.908 325.232 507.97 327.167C508.182 333.82 508.061 398.392 507.233 400.713C506.196 403.62 503.285 405.025 500.714 406.289ZM498.741 318.551C496.002 319.312 493.742 320.279 492.263 322.84C491.415 324.307 491.361 326.035 491.274 327.689C490.757 337.594 491.254 347.72 491.218 357.649C491.191 364.995 490.112 393.744 491.602 398.994C492.116 400.804 493.095 402.515 494.796 403.437C496.046 404.114 497.511 404.462 498.892 404.76C501.425 404.049 503.848 403.348 505.142 400.843C505.709 399.745 505.873 398.868 505.942 397.655C506.688 384.577 505.976 371.121 506.017 357.999C506.036 351.826 507.174 327.345 505.94 322.946C505.541 321.526 504.222 320.294 502.943 319.632C501.604 318.94 500.224 318.677 498.741 318.551Z" fill="#070302"/>
<path d="M498.892 404.76C497.511 404.462 496.046 404.114 494.796 403.437C493.095 402.515 492.116 400.804 491.602 398.994C490.112 393.744 491.191 364.995 491.218 357.649C491.254 347.72 490.757 337.594 491.274 327.689C491.361 326.035 491.415 324.307 492.263 322.84C493.742 320.279 496.002 319.312 498.741 318.551C500.224 318.677 501.604 318.94 502.943 319.632C504.222 320.294 505.541 321.526 505.94 322.946C507.174 327.345 506.036 351.826 506.017 357.999C505.976 371.121 506.688 384.577 505.942 397.655C505.873 398.868 505.709 399.745 505.142 400.843C503.848 403.348 501.425 404.049 498.892 404.76Z" fill="#FBE4F2"/>
<path d="M648.044 635.551C648.822 611.732 648.131 587.717 648.136 563.874L648.151 426.323L648.111 379.243C648.108 369.539 647.834 359.675 648.424 349.991C649.135 359.469 648.776 369.15 648.769 378.66C648.762 389.313 649.023 400.06 648.559 410.701C647.858 454.242 648.514 497.878 648.458 541.43C648.442 554.273 647.158 632.095 649.573 638.723L649.571 788.987L649.554 827.399C649.562 836.523 650.251 846.26 648.539 855.247L648.033 846.879L648.025 712.026C648 686.549 647.628 661.022 648.044 635.551Z" fill="#FDE4CF"/>
<path d="M632 411.25C630.728 409.364 631.481 402.287 631.5 399.75C632.772 401.636 632.019 408.713 632 411.25Z" fill="#180B0B"/>
<path d="M648.559 410.701C648.958 409.974 649.31 409.404 649.828 408.747C657.615 411.307 665.211 414.692 672.897 417.567C681.166 420.659 689.604 423.294 697.851 426.434C703.194 428.468 709.706 432.415 715.281 433.096C715.518 433.125 715.753 433.164 715.989 433.197L715.875 665.527C687.476 661.431 673.727 652.319 649.573 638.723C647.158 632.095 648.442 554.273 648.458 541.43C648.514 497.878 647.858 454.242 648.559 410.701Z" fill="#90DBF4"/>
<path d="M718.586 435.881C727.502 439.328 735.566 444.452 743.593 449.579C771.309 467.278 796.045 489.939 809.554 520.548C821.991 548.731 824.667 582.377 825.399 612.83C825.6 621.172 825.049 629.593 825.421 637.912L825.124 638.307C791.391 658.163 758.072 669.304 718.344 665.455L718.586 435.881Z" fill="#90DBF4"/>
<path d="M414.016 449.389C436.663 450.933 459.283 453.14 481.911 454.962L536.931 459.011L576.072 462.224C582.552 462.724 589.361 463.575 595.845 463.505C595.52 467.409 593.972 476.294 595.109 479.708C569.748 478.199 544.324 475.002 519.007 472.72C482.599 469.469 446.163 466.553 409.701 463.973C410.423 459.128 412.538 454.079 414.016 449.389Z" fill="#FBE4F2"/>
<path d="M332.548 519.915C332.495 511.163 330.405 463.248 332.568 459.497C334.591 458.281 336.874 458.137 339.194 458.099C346.53 457.977 354.298 459.289 361.643 459.921L409.701 463.973C446.163 466.553 482.599 469.469 519.007 472.72C544.324 475.002 569.748 478.199 595.109 479.708C601.948 480.379 628.016 480.653 631.797 484.807C633.334 491.157 633.035 540.282 631.531 546.916C630.683 548.056 629.887 548.64 628.478 548.898C627.02 549.164 625.525 549.042 624.071 548.841C625.304 547.894 627.31 547.981 628.834 547.854C629.624 546.985 630.129 546.423 630.48 545.269C631.75 541.099 631.333 496.741 630.939 490.668C630.832 489.013 630.733 486.701 629.775 485.289C628.204 482.971 598.736 481.612 593.972 481.203L408.908 465.468L362.771 461.682C355.297 461.07 347.485 459.865 340.014 459.88C338.264 459.884 335.623 459.926 334.118 460.92C333.448 461.363 333.435 462.777 333.376 463.534C332.75 471.595 333.586 480.327 333.712 488.451C333.859 497.853 333.47 507.423 334 516.794C334.095 518.461 334.31 520.005 334.988 521.534C340.911 524.302 387.645 527.279 398.405 528.395L489.171 536.374C514.413 538.643 539.823 541.405 565.12 542.738C577.69 544.061 590.368 544.42 602.953 545.655C602.003 546.161 601.375 546.536 600.322 546.77C587.992 545.643 575.584 545.011 563.231 544.137C539.116 542.746 514.933 540.213 490.865 538.146C460.834 535.806 430.826 533.181 400.845 530.269C397.544 529.152 392.224 529.332 388.655 529.022C379.636 528.239 340.561 526.104 334.491 523.546C333.273 522.405 332.996 521.455 332.548 519.915Z" fill="#070302"/>
<path d="M398.405 528.395C387.645 527.279 340.911 524.302 334.988 521.534C334.31 520.005 334.095 518.461 334 516.794C333.47 507.423 333.859 497.853 333.712 488.451C333.586 480.327 332.75 471.595 333.376 463.534C333.435 462.777 333.448 461.363 334.118 460.92C335.623 459.926 338.264 459.884 340.014 459.88C347.485 459.865 355.297 461.07 362.771 461.682L408.908 465.468C403.047 485.786 398.609 507.152 398.405 528.395Z" fill="#FBF8CC"/>
<path d="M408.908 465.468L593.972 481.203C591.052 486.707 591.187 494.21 589.266 500.232C585.059 513.42 577.132 528.352 568.509 539.173C567.589 540.327 566.493 542.12 565.12 542.738C539.823 541.405 514.413 538.643 489.171 536.374L398.405 528.395C398.609 507.152 403.047 485.786 408.908 465.468ZM451.455 488.971C449.847 489.757 448.328 490.557 447.849 492.461C447.447 494.057 448.217 495.552 449.166 496.778C455.29 504.688 470.11 509.062 479.642 510.039C489.42 511.041 502.68 509.67 510.651 503.345C512.912 501.15 513.94 499.982 514.314 496.837C513.996 496.096 513.993 495.57 513.212 495.205C511.07 494.203 508.062 495.163 506.038 496.067C503.215 497.326 500.448 498.938 497.5 499.882C489.33 502.496 478.168 502.046 470.182 499.021C463.503 496.491 458.427 489.736 451.455 488.971Z" fill="url(#paint3_linear_407_296)"/>
<path d="M593.972 481.203C598.736 481.612 628.204 482.971 629.775 485.289C630.733 486.701 630.832 489.013 630.939 490.668C631.333 496.741 631.75 541.099 630.48 545.269C630.129 546.423 629.624 546.985 628.834 547.854C620.22 546.982 611.591 546.248 602.953 545.655C590.368 544.42 577.69 544.061 565.12 542.738C566.493 542.12 567.589 540.327 568.509 539.173C577.132 528.352 585.059 513.42 589.266 500.232C591.187 494.21 591.052 486.707 593.972 481.203Z" fill="#A3C4F3"/>
<path d="M510.651 503.345C502.68 509.67 489.42 511.041 479.642 510.039C470.11 509.062 455.29 504.688 449.166 496.778C448.217 495.552 447.447 494.057 447.849 492.461C448.328 490.557 449.847 489.757 451.455 488.971C458.427 489.736 463.503 496.491 470.182 499.021C478.168 502.046 489.33 502.496 497.5 499.882C500.448 498.938 503.215 497.326 506.038 496.067C508.062 495.163 511.07 494.203 513.212 495.205C513.993 495.57 513.996 496.096 514.314 496.837C513.94 499.982 512.912 501.15 510.651 503.345ZM451.28 490.323C450.191 491.649 449.857 491.946 449.574 493.692C450.812 497.854 455.239 500.095 458.828 502.024C471.77 508.935 486.909 510.484 500.981 506.335C504.419 505.286 507.538 503.908 510.296 501.554C511.357 500.218 512.174 499.325 512.355 497.554L511.841 496.625C507.783 495.628 502.159 500.356 498.104 501.445C492.977 502.84 487.644 503.317 482.35 502.854C475.698 502.327 468.331 500.764 462.688 497.014C458.807 494.434 456.055 491.299 451.28 490.323Z" fill="#070302"/>
<path d="M510.296 501.554C507.538 503.908 504.419 505.286 500.981 506.335C486.909 510.484 471.77 508.935 458.828 502.024C455.239 500.095 450.812 497.854 449.574 493.692C449.857 491.946 450.191 491.649 451.28 490.323C456.055 491.299 458.807 494.434 462.688 497.014C468.331 500.764 475.698 502.327 482.35 502.854C487.644 503.317 492.977 502.84 498.104 501.445C502.159 500.356 507.783 495.628 511.841 496.625L512.355 497.554C512.174 499.325 511.357 500.218 510.296 501.554Z" fill="#FBF8CC"/>
<path d="M318.351 519.917L332.548 519.915C332.996 521.455 333.273 522.405 334.491 523.546C340.561 526.104 379.636 528.239 388.655 529.022C392.224 529.332 397.544 529.152 400.845 530.269L399.839 530.923C399.559 535.118 400.062 539.348 400.084 543.551C386.943 542.534 373.822 541.042 360.707 539.729C353.647 539.023 340.278 536.531 333.676 538.034C332.254 539.628 332.363 541.607 332.322 543.69C331.974 561.223 332.527 578.864 332.79 596.402C333.267 623.412 333.589 650.424 333.758 677.437L334.406 749.408C334.483 763.327 333.931 777.56 334.798 791.429C334.828 791.848 334.865 792.266 334.908 792.684C343.823 794.383 353.02 795.248 362.029 796.342L404.226 801.366C404.808 807.71 406.724 813.64 407.954 819.849C378.763 816.657 349.681 812.364 320.528 808.837C318.625 712.56 319.195 616.208 318.351 519.917Z" fill="#D2EFC6"/>
<path d="M209.058 582.623L209.653 581.895C239.75 545.273 268.549 525.592 316.681 520.946L318.26 744.473C318.534 765.525 318.098 786.644 318.709 807.681C318.861 812.887 318.204 818.519 318.913 823.629C321.808 825.995 328.672 825.852 332.428 826.212C332.851 831.847 332.551 845.492 337.291 849.307C338.567 850.334 340.302 850.763 341.915 850.52C344.105 850.19 345.984 848.8 347.248 847.022C349.459 843.912 347.509 830.519 350.865 829.396C353.534 828.503 412.76 836.208 418.858 837.224L417.339 837.587C416.86 839.169 417.781 840.73 418.537 842.136C428.797 861.225 451.824 885.123 471.177 894.668C475.379 896.741 479.643 898.785 484.038 900.412C488.143 901.931 492.711 902.992 496.605 904.963C441.597 904.836 390.394 924.161 336.565 931.484C292.422 937.488 242.829 931.649 206.53 903.932C170.682 876.558 154.323 839.074 148.574 795.411C138.805 721.225 163.974 641.557 209.058 582.623Z" fill="#B9FBC0"/>
<path d="M400.084 543.551C400.062 539.348 399.559 535.118 399.839 530.923L400.845 530.269C430.826 533.181 460.834 535.806 490.865 538.146C514.933 540.213 539.116 542.746 563.231 544.137C561.264 548.401 556.907 551.134 554.961 555.24L552.976 555.742C539.697 554.837 526.468 553.429 513.199 552.504C475.492 549.877 437.676 547.564 400.084 543.551ZM449.391 539.537C450.942 540.814 452.36 542.346 454.426 542.581C455.312 541.977 455.364 541.832 455.797 540.904L456.151 540.323L455.239 540.303C453.223 540.246 451.351 540.012 449.391 539.537Z" fill="#FBE4F2"/>
<path d="M334.908 792.684C334.865 792.266 334.828 791.848 334.798 791.429C333.931 777.56 334.483 763.327 334.406 749.408L333.758 677.437C333.589 650.424 333.267 623.412 332.79 596.402C332.527 578.864 331.974 561.223 332.322 543.69C332.363 541.607 332.254 539.628 333.676 538.034C340.278 536.531 353.647 539.023 360.707 539.729C373.822 541.042 386.943 542.534 400.084 543.551C437.676 547.564 475.492 549.877 513.199 552.504C526.468 553.429 539.697 554.837 552.976 555.742C568.723 557.067 584.481 558.264 600.247 559.333C608.624 559.901 617.472 559.891 625.754 561.183C627.996 561.533 630.385 561.983 632.189 563.433C633.254 569.639 632.473 576.968 632.467 583.313L632.439 626.222V767.363L632.449 803.963C632.444 811.552 633.289 820.335 631.547 827.748C629.739 829.071 625.67 828.763 623.413 828.587C607.574 827.347 591.632 824.667 575.851 822.653C533.94 817.065 491.997 811.718 450.023 806.615C434.819 804.849 419.475 802.455 404.226 801.366L362.029 796.342C353.02 795.248 343.823 794.383 334.908 792.684ZM400.375 545.258C386.372 544.035 372.379 542.714 358.395 541.295C350.344 540.506 342.205 539.31 334.11 539.293C333.471 548.996 333.962 558.903 334.063 568.638L334.818 623.549L336.517 791.283C349.55 793.578 362.837 794.84 375.983 796.368C385.557 797.481 395.28 799.007 404.888 799.597C429.72 802.885 454.638 805.501 479.483 808.693L478.591 551.719C452.52 550.432 426.372 547.645 400.375 545.258ZM486.28 552.507L480.202 551.883L481.007 809.045L588.888 822.751C596.359 823.697 623.287 828.29 629.338 827.27C630.413 826.122 630.648 825.054 630.734 823.52C631.673 806.825 630.976 787.917 630.989 770.985L630.947 674.712C630.931 657.955 630.533 641.092 630.999 624.345L631.075 584.716C631.085 578.098 631.909 570.19 630.592 563.747C624.392 561.28 558.99 557.747 547.228 557.03C526.988 555.607 506.569 552.757 486.28 552.507Z" fill="#070302"/>
<path d="M400.375 545.258C399.555 548.125 404.779 587.26 405.416 594.143C406.406 604.835 407.337 615.851 407.533 626.581C407.882 645.69 404.68 669.517 402.379 688.75C398.69 719.585 396.408 751.203 401.167 782.061C402.088 788.036 403.604 793.72 404.888 799.597C395.28 799.007 385.557 797.481 375.983 796.368C362.837 794.84 349.55 793.578 336.517 791.283L334.818 623.549L334.063 568.638C333.962 558.903 333.471 548.996 334.11 539.293C342.205 539.31 350.344 540.506 358.395 541.295C372.379 542.714 386.372 544.035 400.375 545.258Z" fill="#D2EFC6"/>
<path d="M455.797 540.904C455.364 541.832 455.312 541.977 454.426 542.581C452.36 542.346 450.942 540.814 449.391 539.537C451.351 540.012 453.223 540.246 455.239 540.303L456.151 540.323L455.797 540.904Z" fill="#CFBAF0"/>
<path d="M404.888 799.597C403.604 793.72 402.088 788.036 401.167 782.061C396.408 751.203 398.69 719.585 402.379 688.75C404.68 669.517 407.882 645.69 407.533 626.581C407.337 615.851 406.406 604.835 405.416 594.143C404.779 587.26 399.555 548.125 400.375 545.258C426.372 547.645 452.52 550.432 478.591 551.719L479.483 808.693C454.638 805.501 429.72 802.885 404.888 799.597ZM455.961 580.508C453.198 582.065 450.863 583.728 449.935 586.913C448.636 591.374 449.024 650.207 449.514 658.226C449.625 660.041 449.68 662.031 450.583 663.658C451.938 666.099 454.895 667.815 457.582 668.328C458.817 668.563 460.167 668.455 461.414 668.351C464.094 666.694 466.464 665.075 467.301 661.87C468.715 656.454 468.212 592.363 467.399 585.967C465.537 583.298 463.716 581.124 460.328 580.6C458.868 580.375 457.428 580.422 455.961 580.508Z" fill="#FBE4F2"/>
<path d="M602.953 545.655C611.591 546.248 620.22 546.982 628.834 547.854C627.31 547.981 625.304 547.894 624.071 548.841C616.141 548.317 608.223 547.626 600.322 546.77C601.375 546.536 602.003 546.161 602.953 545.655Z" fill="#3D0E06"/>
<path d="M480.202 551.883L486.28 552.507C486.695 552.95 487.032 553.483 487.526 553.838C489.472 555.236 497.835 556.734 500.759 557.526C510.622 560.195 519.959 563.363 529.382 567.32C555.4 577.842 580.039 592.823 603.932 607.458C612.285 612.574 621.927 621.246 630.999 624.345C630.533 641.092 630.931 657.955 630.947 674.712L630.989 770.985C630.976 787.917 631.673 806.825 630.734 823.52C630.648 825.054 630.413 826.122 629.338 827.27C623.287 828.29 596.359 823.697 588.888 822.751L481.007 809.045L480.202 551.883ZM495.687 584.065C492.842 584.886 490.715 585.716 489.181 588.39C488.296 589.932 487.886 591.567 487.733 593.33C487.003 601.723 486.866 661.597 488.266 666.409C488.943 668.735 490.817 670.647 492.927 671.747C494.553 672.595 496.384 672.876 498.178 673.153C501.154 672.212 503.967 671.093 505.341 668.072C506.651 665.192 506.506 592.289 505.316 589.563C504.207 587.02 502.11 585.388 499.483 584.6C498.261 584.233 496.953 584.157 495.687 584.065Z" fill="#FBE4F2"/>
<path d="M486.28 552.507C506.569 552.757 526.988 555.607 547.228 557.03C544.401 561.214 538.063 563.424 533.431 565.076C532.492 565.411 530.774 565.67 530.034 566.181C529.803 566.34 529.452 567.036 529.382 567.32C519.959 563.363 510.622 560.195 500.759 557.526C497.835 556.734 489.472 555.236 487.526 553.838C487.032 553.483 486.695 552.95 486.28 552.507Z" fill="#CFBAF0"/>
<path d="M547.228 557.03C558.99 557.747 624.392 561.28 630.592 563.747C631.909 570.19 631.085 578.098 631.075 584.716L630.999 624.345C621.927 621.246 612.285 612.574 603.932 607.458C580.039 592.823 555.4 577.842 529.382 567.32C529.452 567.036 529.803 566.34 530.034 566.181C530.774 565.67 532.492 565.411 533.431 565.076C538.063 563.424 544.401 561.214 547.228 557.03Z" fill="#90DBF4"/>
<path d="M461.414 668.351C460.167 668.455 458.817 668.563 457.582 668.328C454.895 667.815 451.938 666.099 450.583 663.658C449.68 662.031 449.625 660.041 449.514 658.226C449.024 650.207 448.636 591.374 449.935 586.913C450.863 583.728 453.198 582.065 455.961 580.508C457.428 580.422 458.868 580.375 460.328 580.6C463.716 581.124 465.537 583.298 467.399 585.967C468.212 592.363 468.715 656.454 467.301 661.87C466.464 665.075 464.094 666.694 461.414 668.351ZM456.066 582.067C453.864 583.541 451.492 585.011 451.027 587.844C449.726 595.759 450.613 608.366 450.601 616.809C450.581 629.804 449.684 645.803 450.923 658.371C451.117 660.341 451.282 661.904 452.492 663.54C453.91 665.456 455.847 666.273 458.168 666.517C459.181 666.623 460.177 666.632 461.195 666.583C463.141 665.487 465.121 664.271 465.793 661.979C467.318 656.777 466.766 597.225 466.006 588.175C465.91 587.028 465.744 585.992 465.099 585.013C464.027 583.382 462.139 582.387 460.242 582.096C458.884 581.887 457.427 581.913 456.066 582.067Z" fill="#180B0B"/>
<path d="M461.195 666.583C460.177 666.632 459.181 666.623 458.168 666.517C455.847 666.273 453.91 665.456 452.492 663.54C451.282 661.904 451.117 660.341 450.923 658.371C449.684 645.803 450.581 629.804 450.601 616.809C450.613 608.366 449.726 595.759 451.027 587.844C451.492 585.011 453.864 583.541 456.066 582.067C457.427 581.913 458.884 581.887 460.242 582.096C462.139 582.387 464.027 583.382 465.099 585.013C465.744 585.992 465.91 587.028 466.006 588.175C466.766 597.225 467.318 656.777 465.793 661.979C465.121 664.271 463.141 665.487 461.195 666.583Z" fill="#FBE4F2"/>
<path d="M498.178 673.153C496.384 672.876 494.553 672.595 492.927 671.747C490.817 670.647 488.943 668.735 488.266 666.409C486.866 661.597 487.003 601.723 487.733 593.33C487.886 591.567 488.296 589.932 489.181 588.39C490.715 585.716 492.842 584.886 495.687 584.065C496.953 584.157 498.261 584.233 499.483 584.6C502.11 585.388 504.207 587.02 505.316 589.563C506.506 592.289 506.651 665.192 505.341 668.072C503.967 671.093 501.154 672.212 498.178 673.153ZM494.483 585.586C491.875 587.098 490.222 588.299 489.394 591.299C487.769 597.186 488.853 614.616 488.867 621.359C488.893 634.44 488.307 647.861 489.129 660.905C489.25 662.828 489.298 665.672 490.309 667.312C491.664 669.511 493.8 670.75 496.297 671.249C497.356 671.46 498.342 671.471 499.415 671.433C501.477 670.242 503.572 669.039 504.206 666.564C505.882 660.019 504.676 635.36 504.612 627.185C504.524 615.867 505.058 604.281 504.344 592.996C504.264 591.724 504.177 590.51 503.511 589.389C502.358 587.451 500.332 586.134 498.131 585.748C496.914 585.534 495.711 585.526 494.483 585.586Z" fill="#180B0B"/>
<path d="M499.415 671.433C498.342 671.471 497.356 671.46 496.297 671.249C493.8 670.75 491.664 669.511 490.309 667.312C489.298 665.672 489.25 662.828 489.129 660.905C488.307 647.861 488.893 634.44 488.867 621.359C488.853 614.616 487.769 597.186 489.394 591.299C490.222 588.299 491.875 587.098 494.483 585.586C495.711 585.526 496.914 585.534 498.131 585.748C500.332 586.134 502.358 587.451 503.511 589.389C504.177 590.51 504.264 591.724 504.344 592.996C505.058 604.281 504.524 615.867 504.612 627.185C504.676 635.36 505.882 660.019 504.206 666.564C503.572 669.039 501.477 670.242 499.415 671.433Z" fill="#FBE4F2"/>
<path d="M632.439 626.222C636.592 628.349 644.31 631.965 646.739 635.96C645.886 643.55 646.51 651.754 646.534 659.424L646.628 705.115L646.599 804.897C646.617 819.506 646.19 834.211 646.523 848.81C646.3 849.53 646.135 850.181 645.75 850.833C636.337 848.264 626.044 847.549 616.373 846.325L567.365 840.196L407.954 819.849C406.724 813.64 404.808 807.71 404.226 801.366C419.475 802.455 434.819 804.849 450.023 806.615C491.997 811.718 533.94 817.065 575.851 822.653C591.632 824.667 607.574 827.347 623.413 828.587C625.67 828.763 629.739 829.071 631.547 827.748C633.289 820.335 632.444 811.552 632.449 803.963L632.439 767.363V626.222Z" fill="#FBE4F2"/>
<path d="M646.739 635.96L648.044 635.551C647.628 661.022 648 686.549 648.025 712.026L648.033 846.879L646.523 848.81C646.19 834.211 646.617 819.506 646.599 804.897L646.628 705.115L646.534 659.424C646.51 651.754 645.886 643.55 646.739 635.96Z" fill="#180B0B"/>
<path d="M649.573 638.723C673.727 652.319 687.476 661.431 715.875 665.527C715.901 666.716 715.813 668.033 715.976 669.203C715.053 709.792 715.869 750.521 715.513 791.134C711.122 796.676 705.585 801.619 700.603 806.642L673.059 834.416C665.434 842.18 656.949 853.316 648.482 859.775L648.539 855.247C650.251 846.26 649.562 836.523 649.554 827.399L649.571 788.987L649.573 638.723Z" fill="#CFBAF0"/>
<path d="M718.344 665.455C758.072 669.304 791.391 658.163 825.124 638.307C825.436 652.643 824.381 667.225 823 681.488C816.734 746.181 794.835 805.852 749.351 853.381C712.416 891.977 661.367 916.408 607.675 917.503C580.844 918.05 554.985 912.807 528.59 908.912C518.04 907.356 507.033 906.868 496.605 904.963C492.711 902.992 488.143 901.931 484.038 900.412C479.643 898.785 475.379 896.741 471.177 894.668C451.824 885.123 428.797 861.225 418.537 842.136C417.781 840.73 416.86 839.169 417.339 837.587L418.858 837.224L511.343 848.843L545.833 853.081C551.274 853.723 556.881 854.691 562.343 854.978C569.161 856.55 576.541 856.946 583.492 857.783C596.581 859.338 609.661 860.965 622.731 862.666C622.674 866.756 622.429 870.945 622.907 875.011C623.041 877.884 623.47 880.256 625.297 882.547C626.797 884.426 629.061 886.286 631.59 886.333C633.196 886.363 634.785 885.527 635.874 884.387C640.254 879.8 639.184 871.317 639.121 865.454C640.829 865.711 643.365 866.365 645.054 866.029C647.333 865.576 648.076 864.185 649.199 862.358C652.874 858.283 657.096 854.598 660.918 850.643L696.607 814.345C703.107 807.82 710.725 801.104 716.324 793.812C717.389 792.425 717.69 791.778 717.829 790.03C718.29 777.385 717.967 764.623 717.99 751.966C717.919 723.128 718.037 694.291 718.344 665.455Z" fill="#A3C4F3"/>
<path d="M715.976 669.203C717.599 675.838 716.55 687.53 716.543 694.703L716.459 749.757C716.452 754.339 715.62 762.883 716.87 766.957C717.057 759.781 716.41 703.715 717.353 702.29C717.836 710.302 717.528 718.47 717.521 726.503L717.476 768.153C717.47 774.355 716.518 784.41 717.829 790.03C717.69 791.778 717.389 792.425 716.324 793.812C710.725 801.104 703.107 807.82 696.607 814.345L660.918 850.643C657.096 854.598 652.874 858.283 649.199 862.358L648.482 859.775C656.949 853.316 665.434 842.18 673.059 834.416L700.603 806.642C705.585 801.619 711.122 796.676 715.513 791.134C715.869 750.521 715.053 709.792 715.976 669.203Z" fill="#CB6E1B"/>
<path d="M320.702 810.522C350.156 815.209 380.132 818.288 409.757 821.815C408.976 827.548 413.057 830.338 414.966 835.197C403.454 834.089 391.908 832.277 380.426 830.854C360.475 828.381 340.422 826.033 320.534 823.105C320.37 818.871 320.419 814.749 320.702 810.522Z" fill="#D2EFC6"/>
<path d="M409.757 821.815C461.01 827.58 512.186 834.012 563.271 841.11C590.535 844.682 617.93 847.587 645.102 851.796L646.169 852.432C647 855.977 646.433 860.149 646.196 863.762C643.716 863.715 641.283 863.722 638.834 863.274C631.356 860.214 602.71 858.104 593.649 857.066C584.567 856.027 575.109 854.249 565.987 853.993C549.545 851.013 532.303 849.9 515.682 847.947C482.123 844.005 448.403 840.024 414.966 835.197C413.057 830.338 408.976 827.548 409.757 821.815Z" fill="#FBE4F2"/>
<path d="M345.987 846.335C344.787 847.507 343.487 848.616 341.766 848.882C340.564 849.068 339.545 848.894 338.609 848.068C334.208 844.178 334.622 832.157 334.405 826.782C339.042 827.374 343.671 828.021 348.292 828.724L348.11 829.485C346.721 835.053 347.253 840.783 345.987 846.335Z" fill="#F9D591"/>
<path d="M646.523 848.81L648.033 846.879L648.539 855.247L648.482 859.775L649.199 862.358C648.076 864.185 647.333 865.576 645.054 866.029C643.365 866.365 640.829 865.711 639.121 865.454L637.927 864.667L638.834 863.274C641.283 863.722 643.716 863.715 646.196 863.762C646.433 860.149 647 855.977 646.169 852.432L645.102 851.796C645.512 851.416 645.245 851.697 645.75 850.833C646.135 850.181 646.3 849.53 646.523 848.81Z" fill="#78420E"/>
<path d="M565.987 853.993C575.109 854.249 584.567 856.027 593.649 857.066C602.71 858.104 631.356 860.214 638.834 863.274L637.927 864.667C633.499 864.075 628.884 863.724 624.515 862.814C624.487 866.589 624.556 870.391 624.419 874.162L624.358 873.636C623.964 870.022 624.211 866.582 623.477 862.988C622.846 866.885 623.01 871.061 622.907 875.011C622.429 870.945 622.674 866.756 622.731 862.666C609.661 860.965 596.581 859.338 583.492 857.783C576.541 856.946 569.161 856.55 562.343 854.978C563.572 854.868 564.803 854.783 566.035 854.722L565.987 853.993Z" fill="#78420E"/>
<path d="M637.927 864.667L639.121 865.454C639.184 871.317 640.254 879.8 635.874 884.387C634.785 885.527 633.196 886.363 631.59 886.333C629.061 886.286 626.797 884.426 625.297 882.547C623.47 880.256 623.041 877.884 622.907 875.011C623.01 871.061 622.846 866.885 623.477 862.988C624.211 866.582 623.964 870.022 624.358 873.636L624.419 874.162C624.497 876.912 624.825 879.098 626.424 881.419C627.475 882.944 628.989 884.43 630.935 884.599C632.319 884.719 633.598 884.091 634.587 883.169C638.963 879.088 637.949 870.196 637.927 864.667Z" fill="#070302"/>
<path d="M624.515 862.814C628.884 863.724 633.499 864.075 637.927 864.667C637.949 870.196 638.963 879.088 634.587 883.169C633.598 884.091 632.319 884.719 630.935 884.599C628.989 884.43 627.475 882.944 626.424 881.419C624.825 879.098 624.497 876.912 624.419 874.162C624.556 870.391 624.487 866.589 624.515 862.814Z" fill="#FFCFD2"/>
<defs>
<linearGradient id="paint0_linear_407_296" x1="718.716" y1="468.764" x2="714.784" y2="468.735" gradientUnits="userSpaceOnUse">
<stop stop-color="#D38025"/>
<stop offset="1" stop-color="#B99433"/>
</linearGradient>
<linearGradient id="paint1_linear_407_296" x1="403.059" y1="344.351" x2="304.964" y2="352.653" gradientUnits="userSpaceOnUse">
<stop stop-color="#FEFAAA"/>
<stop offset="1" stop-color="#FBE0DF"/>
</linearGradient>
<linearGradient id="paint2_linear_407_296" x1="659.31" y1="297.168" x2="451.847" y2="377.528" gradientUnits="userSpaceOnUse">
<stop stop-color="#92F8F0"/>
<stop offset="1" stop-color="#FFCFFF"/>
</linearGradient>
<linearGradient id="paint3_linear_407_296" x1="401.245" y1="496.758" x2="589.173" y2="512.244" gradientUnits="userSpaceOnUse">
<stop stop-color="#FFE6EE"/>
<stop offset="1" stop-color="#D7D9FF"/>
</linearGradient>
</defs>
</svg>
