<svg width="1024" height="1024" viewBox="0 0 1024 1024" fill="none" xmlns="http://www.w3.org/2000/svg">
<path d="M546.503 191.415C549.309 185.708 552.998 180.397 556.346 174.998C559.649 169.673 562.863 164.232 566.544 159.162C585.472 133.096 612.561 109.015 643.409 98.624C686.787 84.0125 728.737 90.2173 769.064 110.375C820.378 136.024 860.917 185.076 884.907 236.432C890.151 247.657 894.392 259.574 898.283 271.328C916.39 326.03 921.532 399.235 914.936 456.364C914.013 464.353 913.484 473.107 911.558 480.914C906.703 477.117 902.371 471.275 898.017 466.808C890.02 458.674 881.748 450.816 873.215 443.247C835.029 409.433 782.891 393.345 733.089 387.453C694.897 383.136 656.243 389.025 621.07 404.52C615.769 406.876 608.817 409.436 604.281 413.009L604.136 412.924C593.066 393.832 583.724 373.293 577.455 352.115C575.388 345.135 570.377 319.157 568.148 315.377C570.142 286.932 570.617 257.89 570.154 229.391C571.201 228.807 572.483 228.19 573.159 227.156C574.804 224.637 573.471 218.261 572.686 215.461C569.155 202.861 557.098 197.124 546.503 191.415ZM863.85 403.505C863.846 398.842 863.892 394.194 863.516 389.541C860.418 351.161 828.123 312.75 799.651 288.691C765.016 259.101 722.85 239.703 677.845 232.656C671.186 231.575 662.633 229.209 655.963 229.766L656.376 230.254C657.32 230.311 658.259 230.34 659.182 230.561C663.278 231.54 667.619 231.764 671.791 232.407C679.923 233.681 688.012 235.213 696.047 236.999C735.289 246.049 773.133 266.868 803.292 293.374C833.52 319.94 860.563 355.574 863.274 396.955C862.781 400.684 862.741 404.136 863.598 407.814C864.208 406.586 864.067 404.85 863.85 403.505ZM612.132 203.351C611.245 203.637 610.582 204.38 610.4 205.294C610.218 206.208 610.544 207.149 611.254 207.754C611.963 208.358 612.944 208.531 613.817 208.207C615.127 207.719 615.808 206.275 615.35 204.954C614.891 203.634 613.462 202.921 612.132 203.351ZM667.535 208.83C666.396 209.165 665.736 210.352 666.052 211.497C666.368 212.642 667.543 213.322 668.693 213.025C669.455 212.829 670.051 212.237 670.253 211.477C670.455 210.717 670.232 209.907 669.668 209.359C669.105 208.81 668.289 208.608 667.535 208.83Z" fill="#A3C4F3"/>
<path d="M263.063 244.078C259.86 241.744 256.901 239.19 255.102 235.567C253.513 232.366 253.445 228.897 254.67 225.565C257.816 217.01 268.007 206.715 276.353 203.096C287.238 198.376 299.912 196.313 311.54 194.186C354.419 186.34 398.492 183.064 441.956 180.205C460.34 178.996 479.449 176.801 497.849 178.368C514.87 179.818 530.724 185.191 546.503 191.415C557.098 197.124 569.155 202.861 572.686 215.461C573.471 218.261 574.804 224.637 573.159 227.156C572.483 228.19 571.201 228.807 570.154 229.391C570.617 257.89 570.142 286.932 568.148 315.377C566.338 336.353 564.351 357.207 561.759 378.105C559.456 396.677 556.976 416.012 551.089 433.843L566.569 440.066L616.866 461.29C623.899 464.259 631.148 468.081 638.342 470.491C672.176 486.2 707.994 496.878 722.186 535.304C730.041 556.572 717.997 592.133 708.594 612.064C695.554 639.707 675.025 665.392 651.212 684.502C644.995 689.492 635.094 694.405 629.916 699.229C617.877 746.172 636.559 773.057 646.741 815.881C648.745 826.173 651.072 837.426 649.94 847.912C648.606 860.271 641.159 870.144 631.639 877.638C604.829 898.742 565.29 906.345 531.824 902.213C519.432 900.683 506.686 897.317 495.019 892.888C461.052 879.994 415.618 851.352 393.23 822.421C383.115 809.35 376.204 793.966 380.963 777.335C382.974 770.305 386.251 763.576 388.537 756.605C393.66 740.988 397.779 724.755 399.796 708.426C402.103 692.29 401.075 675.852 396.775 660.129C366.476 643.678 350.789 619.434 339.535 587.669C335.37 575.914 324.938 536.505 325.106 525.248C325.176 520.589 326.47 517.122 328.456 512.98C323.991 509.935 318.813 508.01 314.208 505.165C302.588 497.986 305.486 479.072 302.616 467.234C302.567 467.03 302.512 466.828 302.46 466.625C282.884 448.814 282.698 441.658 276.891 416.396C264.813 363.529 255.571 297.754 263.063 244.078ZM616.363 465.705C602.707 459.791 589.008 453.971 575.27 448.248C565.971 444.371 556.726 440.333 547.147 437.184C529.959 443.705 511.819 446.964 493.826 450.373C475.216 453.867 456.586 457.254 437.936 460.536C416.566 464.301 395.22 468.201 373.899 472.234C360.241 474.879 346.652 477.994 332.952 480.393C333.185 485.864 333.333 491.338 333.396 496.814C333.559 510.842 335.27 517.94 345.936 527.808C366.204 546.558 447.899 588.257 475.397 593.802C478.896 594.992 482.427 595.952 486.001 596.888C493.513 598.677 501.077 600.467 508.715 601.632C556.896 610.675 610.397 610.511 656.796 593.238C676.478 585.911 701.763 573.812 710.808 553.683C714.627 545.183 715.932 534.647 712.504 525.839C709.634 518.466 704.114 512.091 698.067 507.113C680.311 492.494 638.209 475.22 616.363 465.705ZM477.892 599.193C470.424 596.852 462.875 594.615 455.567 591.809C438.846 585.39 422.826 577.292 406.787 569.361C392.34 562.217 377.692 555.03 364.214 546.146C355.37 540.316 346.277 534.384 339.24 526.371C338.273 525.271 332.055 516.135 331.385 516.184C330.997 516.213 330.69 516.533 330.342 516.707C327.994 520.316 328.291 527.311 329.212 531.459C332.357 545.622 364.472 561.883 376.718 569.117C411.672 589.765 452.522 609.022 492.786 615.923C497.038 616.456 501.353 617.542 505.58 618.307C513.512 619.745 521.483 620.96 529.483 621.95C572.353 627.224 618.136 625.036 659.197 610.693C679.548 603.585 708.25 588.665 717.833 568.43C722.517 558.539 721.916 545.879 718.292 535.781C717.933 539.066 717.619 542.386 717.081 545.647C714.697 560.088 704.981 571.046 693.338 579.258C640.281 616.677 565.406 616.118 504.168 605.534C495.387 603.534 486.645 601.316 477.892 599.193ZM496.005 621.169C479.864 617.403 463.806 613.376 448.152 607.874C421.606 598.546 396.799 585.331 372.499 571.31C358.638 563.311 344.861 555.607 332.682 545.12C333.928 554.253 336.462 563.232 339.055 572.063C347.592 601.13 360.495 629.835 385.241 648.749C397.05 657.775 411.482 662.551 423.281 671.778C428.007 675.509 432.284 679.777 436.025 684.496C440.329 689.922 444.011 696.005 449.492 700.362C470.085 716.734 525.986 722.681 552.225 719.039C580.534 715.358 607.089 707.395 631.536 692.305C670.104 668.5 704.317 625.535 714.954 581.019C709 586.237 703.888 592.135 697.324 596.702C657.822 624.186 599.827 631.081 552.967 628.555C533.893 627.527 514.776 624.612 496.005 621.169ZM553.908 723.266C523.758 725.43 468.818 721.983 445.226 701.808C440.649 697.894 437.607 692.778 433.864 688.131C425.2 677.494 414.233 668.963 401.791 663.182C406.911 688.903 404.24 712.47 397.846 737.604C395.968 744.987 394.103 752.482 391.628 759.693C388.646 768.383 384.037 776.991 383.466 786.3C381.503 818.351 422.747 847.301 446.538 863.179C486.057 889.555 529.479 906.167 577.501 896.605C599.027 892.318 627.783 881.611 640.491 862.679C648.555 850.666 646.546 835.404 643.776 821.992C643.225 819.326 642.642 816.681 641.829 814.081C630.952 770.993 614.602 749.667 624.952 701.387C602.887 713.156 578.77 720.583 553.908 723.266ZM472.596 182.288C430.13 185.305 305.666 191.572 273.823 209.331C281.524 219.874 298.942 223.689 311.217 225.554C326.664 227.902 342.157 226.88 357.62 225.44C399.126 220.369 440.667 215.589 482.24 211.098C498.059 209.465 513.887 207.928 529.725 206.488C539.406 205.597 549.294 205.077 558.882 203.528C534.369 186.485 501.856 180.624 472.596 182.288ZM562.108 206.603C553.814 209.245 543.165 209.137 534.491 209.947L485.241 214.685C457.922 217.631 430.626 220.781 403.354 224.134C374.3 227.792 344.948 232.743 315.601 230.406C309.911 237.201 305.323 243.551 304.749 252.713C307.518 252.974 310.285 253.266 313.064 253.39C331.739 253.035 350.293 250.254 368.827 248.159L443.003 240.167C470.12 237.376 497.213 234.362 524.281 231.124C539.324 229.382 555.389 228.405 570.103 224.854C569.44 219.614 567.78 209.793 562.763 206.893C562.556 206.774 562.326 206.7 562.108 206.603ZM270.582 211.81C265.849 216.127 258.001 223.38 257.791 230.244C257.707 232.976 258.902 235.415 260.805 237.324C267.981 244.521 289.544 249.665 299.635 251.86C301.644 250.255 302.429 243.982 303.611 241.461C305.608 237.202 309.018 233.598 311.253 229.451C300.56 226.937 287.97 224.76 278.462 218.975C275.463 217.151 273.597 213.681 270.582 211.81ZM565.504 230.233C509.599 237.146 453.629 243.536 397.604 249.402L353.372 254.162C337.767 255.849 322.485 257.686 306.76 256.978C303.951 268.676 303.924 281.16 303.818 293.148C303.336 347.705 313.343 401.563 328.163 453.878C329.995 461.225 332.245 468.805 332.668 476.395C345.506 473.789 358.29 470.871 371.153 468.406L458.27 452.602L499.743 444.826C516.218 441.685 532.324 438.819 547.811 432.086C553.091 413.813 555.638 395.173 558.029 376.359C562.527 341.061 565.125 305.547 565.814 269.971C566.116 258.305 567.069 242.057 566.102 230.978L565.504 230.233ZM266.101 245.95C263.617 267.578 263.976 290.296 265.297 312.003C266.873 337.906 279.079 434.438 293.589 452.704C300.921 461.934 310.938 468.441 321.244 473.856C323.11 474.837 325.878 476.544 328.023 476.673C328.175 476.682 328.328 476.659 328.481 476.653L328.821 475.88C326.457 458.699 320.219 441.657 316.224 424.759C304.324 374.426 293.58 307.713 303.454 256.777C290.585 254.239 278.279 250.865 266.101 245.95ZM307.62 470.652C308.246 479.242 309.283 487.797 310.727 496.288C315.445 502.309 323.354 506.07 330.291 509.094C330.069 500.085 329.751 491.079 329.335 482.077C325.013 480.188 320.8 478.246 316.695 475.906C313.753 474.23 310.715 471.918 307.62 470.652Z" fill="#484C60"/>
<path d="M273.823 209.331C305.666 191.572 430.13 185.305 472.596 182.288C501.856 180.624 534.369 186.485 558.882 203.528C549.294 205.077 539.406 205.597 529.725 206.488C513.887 207.928 498.059 209.465 482.24 211.098C440.667 215.589 399.126 220.369 357.62 225.44C342.157 226.88 326.664 227.902 311.217 225.554C298.942 223.689 281.524 219.874 273.823 209.331ZM375.806 198.185C372.181 198.579 365.356 199.562 363.174 202.77C362.618 203.587 362.747 204.525 363.217 205.355C364.953 208.425 370.192 209.753 373.38 210.189C377.247 210.718 381.234 210.523 385.122 210.41C388.473 210.023 393.446 209.748 395.799 207.017C396.58 206.111 396.555 205.647 396.675 204.506C395.733 202.012 393.946 200.73 391.525 199.7C386.665 197.632 380.976 197.716 375.806 198.185Z" fill="#FFCFD2"/>
<path d="M385.122 210.41C381.234 210.523 377.247 210.718 373.38 210.189C370.192 209.753 364.953 208.425 363.217 205.355C362.747 204.525 362.618 203.587 363.174 202.77C365.356 199.562 372.181 198.579 375.806 198.185C380.976 197.716 386.665 197.632 391.525 199.7C393.946 200.73 395.733 202.012 396.675 204.506C396.555 205.647 396.58 206.111 395.799 207.017C393.446 209.748 388.473 210.023 385.122 210.41ZM378.971 201.701C375.877 201.981 371.975 201.919 369.427 203.889L369.602 204.699C373.389 206.667 377.973 206.413 382.142 206.393C384.705 206.291 387.345 206.414 389.736 205.399L390.545 204.52C389.966 203.284 389.228 203.051 388.015 202.567C385.486 201.557 381.692 201.659 378.971 201.701Z" fill="#484C60"/>
<path d="M382.142 206.393C377.973 206.413 373.389 206.667 369.602 204.699L369.427 203.889C371.975 201.919 375.877 201.981 378.971 201.701C381.692 201.659 385.486 201.557 388.015 202.567C389.228 203.051 389.966 203.284 390.545 204.52L389.736 205.399C387.345 206.414 384.705 206.291 382.142 206.393Z" fill="#FDE4CF"/>
<path d="M613.817 208.207C612.944 208.531 611.963 208.358 611.254 207.754C610.544 207.149 610.218 206.208 610.4 205.294C610.582 204.38 611.245 203.637 612.132 203.351C613.462 202.921 614.891 203.634 615.35 204.954C615.808 206.275 615.127 207.719 613.817 208.207Z" fill="#484C60"/>
<path d="M315.601 230.406C344.948 232.743 374.3 227.792 403.354 224.134C430.626 220.781 457.922 217.631 485.241 214.685L534.491 209.947C543.165 209.137 553.814 209.245 562.108 206.603C562.326 206.7 562.556 206.774 562.763 206.893C567.78 209.793 569.44 219.614 570.103 224.854C555.389 228.405 539.324 229.382 524.281 231.124C497.213 234.362 470.12 237.376 443.003 240.167L368.827 248.159C350.293 250.254 331.739 253.035 313.064 253.39C310.285 253.266 307.518 252.974 304.749 252.713C305.323 243.551 309.911 237.201 315.601 230.406Z" fill="#B9FBC0"/>
<path d="M668.693 213.025C667.543 213.322 666.368 212.642 666.052 211.497C665.736 210.352 666.396 209.165 667.535 208.83C668.289 208.608 669.105 208.81 669.668 209.359C670.232 209.907 670.455 210.717 670.253 211.477C670.051 212.237 669.455 212.829 668.693 213.025Z" fill="#484C60"/>
<path d="M299.635 251.86C289.544 249.665 267.981 244.521 260.805 237.324C258.902 235.415 257.707 232.976 257.791 230.244C258.001 223.38 265.849 216.127 270.582 211.81C273.597 213.681 275.463 217.151 278.462 218.975C287.97 224.76 300.56 226.937 311.253 229.451C309.018 233.598 305.608 237.202 303.611 241.461C302.429 243.982 301.644 250.255 299.635 251.86Z" fill="#FBF8CC"/>
<path d="M863.274 396.955C860.563 355.574 833.52 319.94 803.292 293.374C773.133 266.868 735.289 246.049 696.047 236.999C688.012 235.213 679.923 233.681 671.791 232.407C667.619 231.764 663.278 231.54 659.182 230.561C658.259 230.34 657.32 230.311 656.376 230.254L655.963 229.766C662.633 229.209 671.186 231.575 677.845 232.656C722.85 239.703 765.016 259.101 799.651 288.691C828.123 312.75 860.418 351.161 863.516 389.541C863.892 394.194 863.846 398.842 863.85 403.505C863.813 401.256 863.804 399.158 863.274 396.955Z" fill="#292D38"/>
<path d="M306.76 256.978C322.485 257.686 337.767 255.849 353.372 254.162L397.604 249.402C453.629 243.536 509.599 237.146 565.504 230.233L566.102 230.978C567.069 242.057 566.116 258.305 565.814 269.971C565.125 305.547 562.527 341.061 558.029 376.359C555.638 395.173 553.091 413.813 547.811 432.086C532.324 438.819 516.218 441.685 499.743 444.826L458.27 452.602L371.153 468.406C358.29 470.871 345.506 473.789 332.668 476.395C332.245 468.805 329.995 461.225 328.163 453.878C313.343 401.563 303.336 347.705 303.818 293.148C303.924 281.16 303.951 268.676 306.76 256.978Z" fill="#B9FBC0"/>
<path d="M328.821 475.88L328.481 476.653C328.328 476.659 328.175 476.682 328.023 476.673C325.878 476.544 323.11 474.837 321.244 473.856C310.938 468.441 300.921 461.934 293.589 452.704C279.079 434.438 266.873 337.906 265.297 312.003C263.976 290.296 263.617 267.578 266.101 245.95C278.279 250.865 290.585 254.239 303.454 256.777C293.58 307.713 304.324 374.426 316.224 424.759C320.219 441.657 326.457 458.699 328.821 475.88Z" fill="#B9FBC0"/>
<path d="M568.148 315.377C570.377 319.157 575.388 345.135 577.455 352.115C583.724 373.293 593.066 393.832 604.136 412.924C591.586 419.416 576.443 429.889 566.569 440.066L551.089 433.843C556.976 416.012 559.456 396.677 561.759 378.105C564.351 357.207 566.338 336.353 568.148 315.377Z" fill="#E6DFD5"/>
<path d="M240.996 346.903C243.15 344.126 246.247 341.938 249.521 340.664C248.035 343.226 243.74 345.891 240.996 346.903Z" fill="#BCB4A8"/>
<path d="M171.195 413.715C178.411 405.221 185.406 396.528 193.041 388.398C204.697 375.986 217.656 364.791 231.006 354.258C233.794 352.058 237.747 347.934 240.996 346.903C239.567 349.411 218.023 366.627 214.241 370.064C202.39 380.833 191.282 391.711 180.754 403.791C177.858 407.114 174.637 410.479 172.054 414.048L171.195 413.715Z" fill="#484C60"/>
<path d="M604.281 413.009C608.817 409.436 615.769 406.876 621.07 404.52C656.243 389.025 694.897 383.136 733.089 387.453C782.891 393.345 835.029 409.433 873.215 443.247C881.748 450.816 890.02 458.674 898.017 466.808C902.371 471.275 906.703 477.117 911.558 480.914L911.51 481.296C909.822 490.928 908.98 500.777 907.552 510.46C905.272 525.911 902.344 541.582 898.96 556.832C886.762 611.801 861.092 684.611 831.368 732.534C815.227 758.556 794.812 783.542 769.568 801.202C768.344 802.058 767.111 802.902 765.87 803.733C758.109 807.874 750.359 812.315 742.148 815.501C715.2 825.956 683.16 827.657 655.481 819.119C652.522 818.206 649.537 817.222 646.741 815.881C636.559 773.057 617.877 746.172 629.916 699.229C635.094 694.405 644.995 689.492 651.212 684.502C675.025 665.392 695.554 639.707 708.594 612.064C717.997 592.133 730.041 556.572 722.186 535.304C707.994 496.878 672.176 486.2 638.342 470.491C637.843 467.537 630.571 457.61 628.645 454.547C620.091 440.943 612.609 426.744 604.281 413.009Z" fill="#98F5E1"/>
<path d="M863.274 396.955C863.804 399.158 863.813 401.256 863.85 403.505C864.067 404.85 864.208 406.586 863.598 407.814C862.741 404.136 862.781 400.684 863.274 396.955Z" fill="#8499CC"/>
<path d="M566.569 440.066C576.443 429.889 591.586 419.416 604.136 412.924L604.281 413.009C612.609 426.744 620.091 440.943 628.645 454.547C630.571 457.61 637.843 467.537 638.342 470.491C631.148 468.081 623.899 464.259 616.866 461.29L566.569 440.066Z" fill="#B9FBC0"/>
<path d="M172.054 414.048C166.509 421.043 161.761 429.184 155.69 435.636C155.508 433.547 158.033 431.826 159.05 430.142C162.323 424.72 166.796 418.291 171.195 413.715L172.054 414.048Z" fill="#BCB4A8"/>
<path d="M399.796 708.426C395.097 705.158 319.64 719.996 309.251 721.737C297.377 723.727 285.181 725.705 273.198 726.857C266.176 727.531 259.173 725.891 252.144 725.595C239.257 725.053 226.499 724.24 213.737 722.226C173.282 715.843 125.648 699.672 93.7502 673.393C68.1186 652.276 57.7463 628.071 54.7706 595.692C54.28 590.354 54.3622 584.928 54.3515 579.572C54.2855 546.72 63.7434 528.262 84.4443 503.527C107.948 475.444 146.642 453.459 180.521 440.427C192.794 435.707 205.52 431.99 218.158 428.379C237.655 422.808 256.664 418.259 276.891 416.396C282.698 441.658 282.884 448.814 302.46 466.625C302.512 466.828 302.567 467.03 302.616 467.234C305.486 479.072 302.588 497.986 314.208 505.165C318.813 508.01 323.991 509.935 328.456 512.98C326.47 517.122 325.176 520.589 325.106 525.248C324.938 536.505 335.37 575.914 339.535 587.669C350.789 619.434 366.476 643.678 396.775 660.129C401.075 675.852 402.103 692.29 399.796 708.426Z" fill="#FFCFD2"/>
<path d="M547.147 437.184C556.726 440.333 565.971 444.371 575.27 448.248C589.008 453.971 602.707 459.791 616.363 465.705C617.061 467.098 617.401 467.659 616.831 469.179C615.904 471.656 614.043 474.151 612.585 476.368C592.844 468.867 561.314 455.18 540.947 452.343C533.349 451.284 525.987 451.315 518.352 452.036C495.047 454.235 472.076 459.777 449.181 464.507C429.781 468.514 408.18 471.262 390.017 479.348C381.728 483.038 371.569 489.588 368.312 498.518C366.817 502.616 367.143 506.758 369.12 510.627C376.991 526.027 414.493 550.42 430.323 558.747C430.748 559.633 431.104 560.328 431.894 560.947C434.954 563.345 438.646 565.111 441.866 567.33C447.709 571.356 471.847 589.432 475.397 593.802C447.899 588.257 366.204 546.558 345.936 527.808C335.27 517.94 333.559 510.842 333.396 496.814C333.333 491.338 333.185 485.864 332.952 480.393C346.652 477.994 360.241 474.879 373.899 472.234C395.22 468.201 416.566 464.301 437.936 460.536C456.586 457.254 475.216 453.867 493.826 450.373C511.819 446.964 529.959 443.705 547.147 437.184Z" fill="#90DBF4"/>
<path d="M430.323 558.747C414.493 550.42 376.991 526.027 369.12 510.627C367.143 506.758 366.817 502.616 368.312 498.518C371.569 489.588 381.728 483.038 390.017 479.348C408.18 471.262 429.781 468.514 449.181 464.507C472.076 459.777 495.047 454.235 518.352 452.036C525.987 451.315 533.349 451.284 540.947 452.343C561.314 455.18 592.844 468.867 612.585 476.368C634.72 484.974 673.319 499.003 683.237 521.872C686.047 528.352 686.13 535.238 683.366 541.751C676.678 557.511 656.54 567.227 641.568 572.974C613.67 583.682 584.906 585.821 555.297 585.499C547.581 585.415 538.596 585.727 531.012 584.261C504.405 582.078 478.162 576.674 452.858 568.166C445.226 565.285 437.777 562.058 430.323 558.747ZM610.537 479.737C598.595 475.276 586.61 470.929 574.585 466.697C562.911 462.559 551.219 457.991 538.87 456.369C532.535 455.537 526.552 455.439 520.195 456.024C496.12 458.24 472.216 464.097 448.593 469.077C429.838 473.031 408.106 476.019 390.696 483.904C383.964 486.952 375.204 492.157 372.523 499.428C371.243 502.898 371.597 506.171 373.232 509.441C378.013 519 392.044 528.964 400.84 534.997C401.145 530.803 402.112 527.589 405.425 524.805C424.04 509.16 503.644 495.82 529.276 493.394C539.395 492.437 549.775 491.865 559.897 492.983C570.918 494.199 581.83 496.907 592.631 499.352C613.484 504.21 651.581 514.946 663.402 533.682C664.602 535.583 666.533 538.619 666.053 540.889C665.868 541.765 665.523 541.776 664.847 542.254L663.769 542.125C661.145 537.981 658.967 534.003 655.438 530.505C640.176 515.375 610.048 507.652 589.594 502.248C576.478 499.088 563.336 496.713 549.798 496.662C518.603 496.543 437.048 510.506 411.742 525.84C409.148 527.412 406.208 529.601 405.574 532.774C405.192 534.691 405.648 536.439 406.794 538.002C409.338 541.471 414.235 544.188 417.828 546.547C446.723 565.513 487.516 575.245 521.508 579.174C524.788 579.553 528.179 580.023 531.477 580.079C538.465 581.441 546.81 581.326 553.945 581.479C584.595 582.136 615.238 579.397 643.8 567.607C656.932 562.186 674.126 553.718 679.677 539.549C681.729 534.31 681.565 528.929 679.294 523.791C669.788 502.289 631.413 488.292 610.537 479.737Z" fill="#484C60"/>
<path d="M400.84 534.997C392.044 528.964 378.013 519 373.232 509.441C371.597 506.171 371.243 502.898 372.523 499.428C375.204 492.157 383.964 486.952 390.696 483.904C408.106 476.019 429.838 473.031 448.593 469.077C472.216 464.097 496.12 458.24 520.195 456.024C526.552 455.439 532.535 455.537 538.87 456.369C551.219 457.991 562.911 462.559 574.585 466.697C586.61 470.929 598.595 475.276 610.537 479.737C606.554 484.673 597.606 496.194 592.631 499.352C581.83 496.907 570.918 494.199 559.897 492.983C549.775 491.865 539.395 492.437 529.276 493.394C503.644 495.82 424.04 509.16 405.425 524.805C402.112 527.589 401.145 530.803 400.84 534.997Z" fill="#8EECF5"/>
<path d="M616.363 465.705C638.209 475.22 680.311 492.494 698.067 507.113C704.114 512.091 709.634 518.466 712.504 525.839C715.932 534.647 714.627 545.183 710.808 553.683C701.763 573.812 676.478 585.911 656.796 593.238C610.397 610.511 556.896 610.675 508.715 601.632C515.616 596.851 526.524 591.548 531.012 584.261C538.596 585.727 547.581 585.415 555.297 585.499C584.906 585.821 613.67 583.682 641.568 572.974C656.54 567.227 676.678 557.511 683.366 541.751C686.13 535.238 686.047 528.352 683.237 521.872C673.319 499.003 634.72 484.974 612.585 476.368C614.043 474.151 615.904 471.656 616.831 469.179C617.401 467.659 617.061 467.098 616.363 465.705Z" fill="#B9FBC0"/>
<path d="M310.727 496.288C309.283 487.797 308.246 479.242 307.62 470.652C310.715 471.918 313.753 474.23 316.695 475.906C320.8 478.246 325.013 480.188 329.335 482.077C329.751 491.079 330.069 500.085 330.291 509.094C323.354 506.07 315.445 502.309 310.727 496.288ZM312.404 480.061C310.992 481.43 310.216 482.763 310.147 484.782C310.022 488.491 312.275 491.948 314.86 494.415C317.514 496.947 319.677 497.639 323.276 497.554C324.878 495.934 325.978 494.465 326 492.094C326.029 488.999 324.227 486.201 322.038 484.154C319.091 481.4 316.416 480.117 312.404 480.061Z" fill="#E6DFD5"/>
<path d="M610.537 479.737C631.413 488.292 669.788 502.289 679.294 523.791C681.565 528.929 681.729 534.31 679.677 539.549C674.126 553.718 656.932 562.186 643.8 567.607C615.238 579.397 584.595 582.136 553.945 581.479C546.81 581.326 538.465 581.441 531.477 580.079C532.732 580.027 533.985 579.947 535.236 579.841C547.129 569.971 559.418 545.667 568.444 532.131C575.226 521.962 582.667 512.303 589.594 502.248C610.048 507.652 640.176 515.375 655.438 530.505C658.967 534.003 661.145 537.981 663.769 542.125L664.847 542.254C665.523 541.776 665.868 541.765 666.053 540.889C666.533 538.619 664.602 535.583 663.402 533.682C651.581 514.946 613.484 504.21 592.631 499.352C597.606 496.194 606.554 484.673 610.537 479.737Z" fill="#B9FBC0"/>
<path d="M323.276 497.554C319.677 497.639 317.514 496.947 314.86 494.415C312.275 491.948 310.022 488.491 310.147 484.782C310.216 482.763 310.992 481.43 312.404 480.061C316.416 480.117 319.091 481.4 322.038 484.154C324.227 486.201 326.029 488.999 326 492.094C325.978 494.465 324.878 495.934 323.276 497.554ZM313.185 483.843C312.837 486.16 313.185 487.398 314.551 489.317C316.262 491.718 318.983 493.577 321.863 494.207C322.017 491.533 321.32 489.26 319.58 487.172C317.97 485.238 316.145 484.014 313.617 483.861C313.473 483.852 313.329 483.849 313.185 483.843Z" fill="#484C60"/>
<path d="M911.51 481.296C919.164 489.697 925.343 499.285 931.492 508.799C954.316 544.107 969.803 581.38 967.922 624.234C966.855 648.557 957.309 674.027 943.013 693.671C935.5 703.993 925.818 713.773 916.349 722.336C882.072 753.335 829.477 783.427 785.991 798.597C780.464 800.525 772.579 804.259 766.637 803.807C766.381 803.787 766.126 803.758 765.87 803.733C767.111 802.902 768.344 802.058 769.568 801.202C794.812 783.542 815.227 758.556 831.368 732.534C861.092 684.611 886.762 611.801 898.96 556.832C902.344 541.582 905.272 525.911 907.552 510.46C908.98 500.777 909.822 490.928 911.51 481.296Z" fill="#B9FBC0"/>
<path d="M321.863 494.207C318.983 493.577 316.262 491.718 314.551 489.317C313.185 487.398 312.837 486.16 313.185 483.843C313.329 483.849 313.473 483.852 313.617 483.861C316.145 484.014 317.97 485.238 319.58 487.172C321.32 489.26 322.017 491.533 321.863 494.207Z" fill="#FFCFD2"/>
<path d="M531.477 580.079C528.179 580.023 524.788 579.553 521.508 579.174C487.516 575.245 446.723 565.513 417.828 546.547C414.235 544.188 409.338 541.471 406.794 538.002C405.648 536.439 405.192 534.691 405.574 532.774C406.208 529.601 409.148 527.412 411.742 525.84C437.048 510.506 518.603 496.543 549.798 496.662C563.336 496.713 576.478 499.088 589.594 502.248C582.667 512.303 575.226 521.962 568.444 532.131C559.418 545.667 547.129 569.971 535.236 579.841C533.985 579.947 532.732 580.027 531.477 580.079Z" fill="#8EECF5"/>
<path d="M492.786 615.923C452.522 609.022 411.672 589.765 376.718 569.117C364.472 561.883 332.357 545.622 329.212 531.459C328.291 527.311 327.994 520.316 330.342 516.707C330.69 516.533 330.997 516.213 331.385 516.184C332.055 516.135 338.273 525.271 339.24 526.371C346.277 534.384 355.37 540.316 364.214 546.146C377.692 555.03 392.34 562.217 406.787 569.361C422.826 577.292 438.846 585.39 455.567 591.809C462.875 594.615 470.424 596.852 477.892 599.193C481.233 603.414 485.345 607.183 488.928 611.228C489.949 612.271 492.632 614.48 492.786 615.923Z" fill="#FDE4CF"/>
<path d="M504.168 605.534C565.406 616.118 640.281 616.677 693.338 579.258C704.981 571.046 714.697 560.088 717.081 545.647C717.619 542.386 717.933 539.066 718.292 535.781C721.916 545.879 722.517 558.539 717.833 568.43C708.25 588.665 679.548 603.585 659.197 610.693C618.136 625.036 572.353 627.224 529.483 621.95C521.483 620.96 513.512 619.745 505.58 618.307C501.353 617.542 497.038 616.456 492.786 615.923C492.632 614.48 489.949 612.271 488.928 611.228C493.652 608.597 499.829 608.802 504.168 605.534Z" fill="#85E2CB"/>
<path d="M332.682 545.12C344.861 555.607 358.638 563.311 372.499 571.31C396.799 585.331 421.606 598.546 448.152 607.874C463.806 613.376 479.864 617.403 496.005 621.169C505.126 631.262 511.795 643.037 518.42 654.833C526.025 668.324 533.339 681.976 540.36 695.78C544.322 703.497 548.001 711.469 552.225 719.039C525.986 722.681 470.085 716.734 449.492 700.362C444.011 696.005 440.329 689.922 436.025 684.496C432.284 679.777 428.007 675.509 423.281 671.778C411.482 662.551 397.05 657.775 385.241 648.749C360.495 629.835 347.592 601.13 339.055 572.063C336.462 563.232 333.928 554.253 332.682 545.12Z" fill="#FDE4CF"/>
<path d="M430.323 558.747C437.777 562.058 445.226 565.285 452.858 568.166L451.392 568.738C451.625 569.744 451.841 570.194 452.568 570.963C455.392 573.955 460.053 576.459 463.396 578.929C468.475 582.681 473.316 586.749 478.359 590.547C480.741 592.341 484.592 594.251 486.001 596.888C482.427 595.952 478.896 594.992 475.397 593.802C471.847 589.432 447.709 571.356 441.866 567.33C438.646 565.111 434.954 563.345 431.894 560.947C431.104 560.328 430.748 559.633 430.323 558.747Z" fill="#8EECF5"/>
<path d="M486.001 596.888C484.592 594.251 480.741 592.341 478.359 590.547C473.316 586.749 468.475 582.681 463.396 578.929C460.053 576.459 455.392 573.955 452.568 570.963C451.841 570.194 451.625 569.744 451.392 568.738L452.858 568.166C478.162 576.674 504.405 582.078 531.012 584.261C526.524 591.548 515.616 596.851 508.715 601.632C501.077 600.467 493.513 598.677 486.001 596.888Z" fill="#98F5E1"/>
<path d="M496.005 621.169C514.776 624.612 533.893 627.527 552.967 628.555C599.827 631.081 657.822 624.186 697.324 596.702C703.888 592.135 709 586.237 714.954 581.019C704.317 625.535 670.104 668.5 631.536 692.305C607.089 707.395 580.534 715.358 552.225 719.039C548.001 711.469 544.322 703.497 540.36 695.78C533.339 681.976 526.025 668.324 518.42 654.833C511.795 643.037 505.126 631.262 496.005 621.169Z" fill="#85E2CB"/>
<path d="M477.892 599.193C486.645 601.316 495.387 603.534 504.168 605.534C499.829 608.802 493.652 608.597 488.928 611.228C485.345 607.183 481.233 603.414 477.892 599.193Z" fill="#98F5E1"/>
<path d="M401.791 663.182C414.233 668.963 425.2 677.494 433.864 688.131C437.607 692.778 440.649 697.894 445.226 701.808C468.818 721.983 523.758 725.43 553.908 723.266L554.236 723.738C558.938 730.622 562.408 738.331 567.036 745.273C583.901 770.567 613.013 802.916 641.829 814.081C642.642 816.681 643.225 819.326 643.776 821.992C646.546 835.404 648.555 850.666 640.491 862.679C627.783 881.611 599.027 892.318 577.501 896.605C529.479 906.167 486.057 889.555 446.538 863.179C422.747 847.301 381.503 818.351 383.466 786.3C384.037 776.991 388.646 768.383 391.628 759.693C394.103 752.482 395.968 744.987 397.846 737.604C404.24 712.47 406.911 688.903 401.791 663.182ZM404.761 782.894C403.664 784.222 403.342 784.534 403.025 786.285C403.47 787.51 403.802 788.276 405.013 788.925C406.332 789.63 407.546 789.562 408.981 789.528C410.079 788.173 410.649 787.471 410.719 785.698C410.205 784.543 409.788 783.64 408.492 783.186C407.268 782.757 406.03 782.801 404.761 782.894ZM418.019 810.791C416.955 811.2 416.415 812.386 416.805 813.457C417.195 814.528 418.371 815.089 419.449 814.718C420.163 814.472 420.689 813.86 420.825 813.116C420.96 812.373 420.684 811.615 420.102 811.133C419.521 810.651 418.724 810.52 418.019 810.791Z" fill="#FBF8CC"/>
<path d="M553.908 723.266C578.77 720.583 602.887 713.156 624.952 701.387C614.602 749.667 630.952 770.993 641.829 814.081C613.013 802.916 583.901 770.567 567.036 745.273C562.408 738.331 558.938 730.622 554.236 723.738L553.908 723.266Z" fill="#85E2CB"/>
<path d="M413.279 912.596C391.804 909.349 370.623 905.015 349.405 900.426C311.797 892.293 266.606 882.569 233.849 862.023C214.516 849.897 194.761 831.102 189.697 807.948C186.965 795.457 189.904 782.234 196.798 771.59C206.171 757.119 219.898 747.471 235.268 740.099C239.127 738.248 242.93 736.251 247.138 735.339C242.786 738.19 237.53 740.028 232.883 742.413C228.809 744.503 225.058 747.244 221.287 749.83C206.694 759.84 194.699 772.724 191.466 790.707C188.924 804.847 194.142 819.101 202.271 830.536C231.998 872.35 298.866 888.119 345.894 898.637C368.466 903.685 390.985 908.359 413.807 912.17L413.279 912.596Z" fill="#484C60"/>
<path d="M408.981 789.528C407.546 789.562 406.332 789.63 405.013 788.925C403.802 788.276 403.47 787.51 403.025 786.285C403.342 784.534 403.664 784.222 404.761 782.894C406.03 782.801 407.268 782.757 408.492 783.186C409.788 783.64 410.205 784.543 410.719 785.698C410.649 787.471 410.079 788.173 408.981 789.528Z" fill="#484C60"/>
<path d="M419.449 814.718C418.371 815.089 417.195 814.528 416.805 813.457C416.415 812.386 416.955 811.2 418.019 810.791C418.724 810.52 419.521 810.651 420.102 811.133C420.684 811.615 420.96 812.373 420.825 813.116C420.689 813.86 420.163 814.472 419.449 814.718Z" fill="#484C60"/>
<path d="M413.807 912.17C428.807 913.493 443.923 916.2 458.951 916.755C450.42 917.465 421.811 915.075 413.279 912.596L413.807 912.17Z" fill="#BCB4A8"/>
</svg>
