<svg width="1024" height="1024" viewBox="0 0 1024 1024" fill="none" xmlns="http://www.w3.org/2000/svg">
<path d="M235.607 250.594C249.044 201.805 275.048 133.512 321.178 107.578C344.346 94.5533 369.221 94.4164 394.281 101.504C438.561 114.027 480.175 147.262 517.667 173.146C537.694 186.972 558.663 201.027 582.309 207.773C592.151 210.581 602.266 212.202 612.519 211.93C655.901 210.781 686.376 184.677 731.808 204.193C761.381 216.896 781.13 242.437 796.288 269.855C808.495 291.937 819.554 317.552 832.945 338.57C860.513 381.84 896.185 419.3 902.323 472.581C904.468 491.205 902.947 508.68 897.736 526.688C892.871 543.496 885.226 558.395 874.301 572.037C874.261 571.877 874.224 571.715 874.18 571.555C865.404 539.898 842.258 513.032 814.365 496.399C811.768 480.087 801.74 453.253 791.279 439.939C792.105 438.794 792.863 437.602 793.548 436.368C798.156 427.975 797.672 417.774 795.063 408.851C785.123 374.851 731.868 320.386 704.708 297.729C689.121 284.727 672.977 273.118 655.153 263.376C631.798 250.611 604.621 239.367 577.544 243.408C566.214 245.099 555.224 249.004 544.411 252.675C523.482 259.782 502.786 267.513 481.568 273.745C480.992 272.699 480.854 272.348 479.663 271.894C474.046 269.756 462.747 269.298 456.212 268.062C419.667 261.15 383.206 254.056 346.232 249.714C337.705 248.713 329.299 248.331 320.746 247.779C313.288 247.298 305.859 246.585 298.383 246.419C283.883 246.185 269.385 246.981 254.998 248.801C250.506 249.402 239.596 251.895 235.607 250.594Z" fill="url(#paint0_linear_407_2)"/>
<path d="M621.179 134.245C619.615 133.79 617.963 133.343 616.525 132.568C613.302 130.831 610.68 127.7 609.847 124.106C609.146 121.134 609.714 118.006 611.416 115.471C613.716 112.071 617.128 110.801 621 110.104C622.854 110.259 624.789 110.811 626.391 111.773C629.272 113.502 631.127 116.446 631.753 119.717C632.431 123.154 631.641 126.718 629.574 129.548C627.422 132.445 624.658 133.698 621.179 134.245Z" fill="#8EECF5"/>
<path d="M582.758 162.141C576.235 162.641 569.949 159.587 566.31 154.151C562.671 148.715 562.243 141.74 565.191 135.9C568.138 130.06 574.004 126.261 580.539 125.959C590.432 125.503 598.861 133.072 599.467 142.958C600.073 152.843 592.633 161.385 582.758 162.141Z" fill="#8EECF5"/>
<path d="M614.804 195.034C610.595 196.045 606.147 195.81 602.308 193.663C598.459 191.51 595.845 187.807 594.712 183.582C593.503 179.077 594.139 174.116 596.673 170.172C599.088 166.414 602.679 164.454 606.961 163.592C610.545 163.483 613.99 163.202 617.425 164.441C621.555 165.93 624.628 169.068 626.32 173.095C627.99 177.068 628.23 181.665 626.408 185.629C624.128 190.588 619.764 193.325 614.804 195.034Z" fill="#8EECF5"/>
<path d="M217.367 345.211C221.931 343.58 226.854 342.929 231.51 341.555C244.325 337.774 257.153 333.762 269.917 329.796C306.186 318.526 341.84 306.337 378.84 297.473C413.024 289.283 447.86 283.837 481.568 273.745C502.786 267.513 523.482 259.782 544.411 252.675C555.224 249.004 566.214 245.099 577.544 243.408C604.621 239.367 631.798 250.611 655.153 263.376C672.977 273.118 689.121 284.727 704.708 297.729C731.868 320.386 785.123 374.851 795.063 408.851C797.672 417.774 798.156 427.975 793.548 436.368C792.863 437.602 792.105 438.794 791.279 439.939C801.74 453.253 811.768 480.087 814.365 496.399C814.635 505.132 814.163 513.062 807.675 519.753C802.031 525.573 793.477 528.859 786.256 532.291C810.866 552.32 824.135 565.295 827.577 598.534C827.772 600.446 827.947 602.361 828.102 604.277C828.225 612.246 827.242 618.525 821.428 624.506C804.271 642.155 748.831 659.586 724.263 668.952C714.658 672.541 705.248 676.63 696.071 681.203C665.823 696.29 638.041 715.883 608.826 732.791C572.74 753.677 535.133 771.339 497.048 788.231C485.588 793.314 481.209 800.146 467.522 800.044C439.705 799.838 401.03 758.772 380.656 740.019C369.202 729.476 357.131 719.308 346.048 708.408C323.61 688.442 301.014 668.757 278.911 648.408C259.164 630.227 238.602 611.612 223.283 589.397C214.778 577.063 207.81 562.416 204.085 547.927C199.79 531.218 199.565 514.119 208.566 498.975C214.394 490.642 220.049 485.953 228.877 480.885C224.845 479.083 221.335 477.126 217.942 474.278C198.503 457.964 192.514 427.516 190.423 403.427C185.375 405.472 180.22 406.912 174.729 406.862C168.666 406.806 163.178 404.869 158.887 400.525C159.185 397.962 159.277 388.681 160.326 387.032C160.982 386.002 162.445 385.649 163.555 385.283C174.18 381.785 183.343 380.273 193.92 375.363C194.443 370.007 195.091 365.199 197.553 360.346C201.916 351.747 208.57 348.151 217.367 345.211ZM726.754 319.495C719.851 313.274 713.377 306.574 706.259 300.594C675.574 274.81 627.016 241.877 585.255 243.994C579.278 244.297 573.375 245.361 567.518 246.545C631.496 261.895 670.381 285.153 717.629 330.125C744.155 356.49 764.23 381.844 775.245 418.095L774.438 418.643C765.48 389.502 749.958 366.399 729.654 344.049C729.11 342.947 728.781 342.777 727.802 342.093C724.009 338.133 720.121 334.265 716.142 330.492C678.145 294.036 644.896 271.751 594.463 255.291C585.79 252.46 574.658 247.951 565.458 248.107C556.797 248.254 520.768 262.278 510.048 265.988C498.902 269.846 487.658 273.414 476.327 276.69C438.896 287.266 400.24 293.165 362.554 302.908C319.612 314.011 277.847 329.076 235.337 341.654C255.173 345.317 272.51 353.011 290.319 362.184C342.195 388.906 394.079 431.88 427.232 480.131C440.618 499.613 450.694 520.722 454.432 544.217C455.044 553.358 454.991 560.731 452.295 569.567C464.419 566.758 476.328 561.305 487.978 556.916C515.086 546.703 541.946 535.815 568.977 525.396L739.21 460.615C752.402 455.572 765.862 451.13 778.985 445.942C782.327 444.621 785.424 443.23 788.195 440.864C793.239 436.556 795.371 429.921 795.733 423.462C797.208 397.16 767.462 363.226 750.683 344.538C750.348 343.912 750.597 344.282 749.773 343.556C742.854 336.427 735.981 329.252 729.156 322.032C729.135 321.92 729.136 321.801 729.092 321.695C728.632 320.59 727.708 320.096 726.754 319.495ZM203.728 377.601C203.95 376.069 204.011 374.876 203.771 373.343L203.301 373.535L202.683 375.592C202.046 383.236 201.253 390.856 201.491 398.538C202.108 418.376 208.453 442.822 221.407 458.317C225.671 463.416 230.892 465.693 236.144 469.462C226.587 467.03 219.791 459.668 214.912 451.426C205.465 435.471 200.829 415.367 199.948 397.009C197.241 398.89 194.541 400.754 191.734 402.484C193.746 426.504 199.33 456.829 218.645 473.272C222.705 476.728 228.777 480.7 234.289 480.163C237.75 479.825 240.431 477.909 243.03 475.759C238.217 469.518 232.821 463.731 228.28 457.284C212.387 434.716 201.226 405.611 203.728 377.601ZM347.406 464.273C327.031 445.119 261.091 391.936 233.159 392.956C230.482 393.054 227.866 393.813 226.079 395.913C223.187 399.315 223.294 404.442 223.797 408.619C227.177 436.646 243.686 451.316 264.611 467.58C287.471 485.347 311.371 501.621 334.532 518.965C348.332 529.3 361.046 540.98 375.352 550.62C381.228 554.58 387.62 558.696 394.462 560.736L394.457 561.856C391.681 561.075 389.069 560.154 386.496 558.84C366.708 548.737 350.486 532.432 332.802 519.267C313.001 504.525 292.714 490.517 273.06 475.555C261.898 467.058 250.406 458.508 240.716 448.304C233.329 440.526 228.346 431.573 225.061 421.388C222.964 414.884 220.384 403.315 223.88 396.981C225.173 394.597 227.397 392.856 230.022 392.174C242.282 388.939 266.049 402.743 276.681 409.161C288.29 416.169 299.312 424.05 310.199 432.123C340.805 454.817 368.139 480.214 389.171 512.26C395.835 522.414 402.792 534.575 405.655 546.479C407.025 552.174 407.358 558.517 404.006 563.616C401.642 567.271 397.874 569.788 393.592 570.572C390.001 571.247 385.936 570.703 382.609 569.211C377.49 566.916 372.627 563.174 368.039 559.955C357.293 552.418 347.056 544.357 336.491 536.599C318.069 523.071 299.2 510.234 280.466 497.155C252.779 477.825 231.567 461.85 218.037 429.476C214.415 420.811 211.363 411.655 209.755 402.397C207.885 391.632 207.384 379.433 214.179 370.157C217.762 365.266 223.582 361.605 229.609 360.768C255.006 357.239 306.769 393.286 327.265 409.006C370.295 442.01 425.879 499.97 433.239 555.897C434.596 568.932 432.816 578.077 426.023 589.267C433.639 587.053 439.667 584.112 445.012 578.096C453.314 568.755 454.131 559.072 453.492 547.127C452.089 536.828 449.673 527.409 445.929 517.723C426.267 466.865 373.19 416.4 328.894 386.313C310.312 373.933 290.743 363.103 270.386 353.931C257.101 348.059 239.185 339.536 224.776 345.257C217.588 348.111 211.438 353.776 208.408 360.92C206.1 366.363 205.387 372.105 204.99 377.955C203.192 404.467 213.05 433.077 228.073 454.72C231.138 459.136 243.045 472.252 244.239 475.686C244.576 476.656 244.339 476.673 243.939 477.539C241.25 479.757 236.415 481.783 232.938 481.52C232.79 481.509 232.641 481.492 232.493 481.478C224.805 482.375 217.079 489.711 212.495 495.534C203.167 507.385 201.207 521.803 203.053 536.446C208.059 576.151 238.452 611.866 269.209 635.554C279.594 643.552 290.569 650.732 301.041 658.601L299.898 659.148C288.513 650.982 277.087 642.886 266.088 634.201C268.225 637.133 271.195 639.577 273.847 642.049C274.22 642.481 274.486 642.882 274.999 643.147C288.298 655.572 301.759 667.824 315.378 679.898C326.036 689.303 337.163 698.391 347.484 708.154C359.028 719.033 371.008 729.457 382.647 740.239C404.352 760.344 434.557 793.274 464.092 798.636C469.738 794.33 472.718 789.065 473.64 781.979C475.977 764.024 467.296 745.439 456.529 731.587C454.068 728.421 451.413 725.446 448.696 722.5C448.5 722.167 448.065 721.81 447.79 721.531C442.315 716.008 436.873 710.387 430.712 705.62C427.459 708.475 424.541 710.441 420.414 711.878C433.17 725.532 457.366 742.85 460.466 762.017C460.999 765.309 461.078 769.303 458.882 772.058C457.554 773.723 455.552 774.555 453.475 774.789C436.134 776.742 389.881 733.374 375.78 721.11C368.038 714.477 360.226 707.926 352.345 701.458C335.464 687.551 319.26 672.681 301.233 660.215L301.297 658.799C313.189 667.167 324.925 676.45 336.022 685.832C343.552 692.2 350.877 698.989 358.619 705.086C372.656 716.803 436.55 775.988 452.007 773.954C454.33 773.648 457.668 772.178 458.967 770.142C459.458 769.373 459.338 769.105 459.346 768.233C457.384 766.129 451.687 765.755 448.773 764.48C446.783 763.609 444.907 762.417 443.053 761.293C437.719 758.059 432.558 754.549 427.59 750.776C422.42 746.886 381.303 714.23 380.893 710.542C385.881 714.159 390.006 718.682 394.666 722.679C408.303 734.375 432.573 755.146 448.004 762.718C451.868 764.614 455.546 765.705 459.756 766.543C459.035 754.078 451.835 745.409 443.681 736.526C443.463 736.128 443.109 735.855 442.785 735.542C435.019 727.695 427.144 719.957 419.163 712.33C414.29 712.702 409.596 713.061 404.745 712.243C388.847 709.563 371.332 695.353 358.124 686.459C356.457 684.718 353.674 683.179 351.691 681.75C346.022 677.665 340.327 673.706 334.864 669.339C306.507 646.672 277.171 625.002 251.681 599.021C251.462 598.625 251.103 598.36 250.775 598.052C238.032 585.809 226.073 569.845 219.903 553.276C215.478 541.394 211.577 524.448 217.416 512.402C220.812 505.393 227.042 500.539 234.377 498.204C248.001 493.866 260.828 499.675 272.784 505.913C281.068 510.86 288.794 516.659 296.626 522.279C308.918 531.1 321.237 540.032 332.678 549.951C342.506 558.473 351.849 567.623 361.481 576.375C377.882 591.276 394.971 606.115 408.537 623.747C419.008 637.354 427.852 652.754 432.026 669.518C434.897 681.047 435.005 692.534 431.47 703.921C437.108 701.566 441.713 699.127 444.082 693.084C449.621 678.957 442.653 657.495 436.669 644.536C430.713 631.635 422.589 618.939 413.693 607.86C410.04 603.311 405.811 599.186 402.282 594.566C390.959 591.734 384.767 587.865 376.542 579.599C374.541 577.588 372.603 575.264 370.455 573.44L371.204 572.559C372.461 574.362 374.293 576.018 375.819 577.608C383.485 585.594 391.678 591.369 402.725 593.393C409.376 594.612 417.057 594.014 422.672 589.965C428.26 585.936 431.104 578.447 432.058 571.81C436.455 541.211 414.642 503.684 396.777 479.925C384.427 463.728 370.79 448.554 356 434.55C331.825 412.012 271.034 366.414 238.506 362.093C231.914 361.217 225.015 362.177 219.704 366.443C213.804 371.182 210.933 378.024 210.09 385.382C207.4 408.825 222.703 441.972 237.182 459.721C242.566 466.321 249.649 472.291 256.319 477.586C278.557 495.241 302.603 510.743 325.681 527.296C342.635 539.457 358.847 553.118 376.543 564.189C380.262 566.515 384.526 569.127 388.974 569.506C393.036 569.853 397.026 568.799 400.149 566.116C403.524 563.218 405.06 559.151 405.219 554.775C406.104 530.488 372.441 490.317 356.185 473.017C355.961 472.616 355.601 472.328 355.277 472.006L353.342 470.182C353.205 469.328 352.461 469.109 351.786 468.616L351.223 468.059C350.277 466.336 349.042 465.31 347.406 464.273ZM442.351 582.356C472.793 574.544 502.531 563.272 531.873 552.087C564.006 540.121 595.906 527.536 627.554 514.339C661.208 500.079 694.72 485.518 728.738 472.142C740.499 467.518 752.242 462.687 764.187 458.558C768.996 456.896 778.441 452.868 783.23 455.441C791.374 459.816 797.342 479.019 800.243 487.62L799.436 488.15C797.359 480.211 789.785 460.322 782.631 456.383C777.647 453.638 764.026 459.723 758.666 461.686C712.887 478.455 668.373 498.628 623.354 517.287C564.596 542.179 504.671 564.225 443.79 583.348C437.959 585.158 432.927 588.404 426.999 590.157C435.536 599.287 442.866 609.475 448.812 620.47C459.144 639.197 470.04 665.849 463.841 687.308C485.726 674.844 508.159 663.34 530.019 650.773C571.176 627.112 612.112 602.215 655.331 582.414C667.382 576.892 679.5 571.432 692.032 567.08C710.487 560.671 729.564 555.739 747.802 548.788C758.596 544.675 768.936 539.31 779.342 534.318C786.945 530.67 795.381 527.389 802.353 522.629C807.909 518.836 811.521 514.12 812.728 507.399C816.075 488.765 801.377 456.016 790.4 440.672C787.441 443.236 784.073 445.286 780.437 446.736C768.42 451.613 755.915 455.57 743.771 460.166L627.291 504.143L530.12 541.69C513.095 548.478 495.999 555.086 478.834 561.514C471.198 564.408 459.412 570.041 451.625 570.728C448.996 575.142 445.972 578.721 442.351 582.356ZM286.215 516.55C275.027 507.056 256.5 496.699 241.26 498.066C233.898 498.727 226.587 501.92 221.803 507.677C215.887 514.799 215.171 523.856 216.151 532.651C217.31 543.284 220.497 553.596 225.541 563.027C243.202 596.391 283.636 627.372 312.943 650.558C325.431 660.437 338.039 670.374 350.95 679.682C355.856 683.22 360.87 687.174 366.143 690.146C378.999 699.905 395.978 712.283 412.863 711.86C418.434 711.72 424.118 710.383 428.014 706.122C433.066 700.597 433.378 691.272 433.064 684.171C432.612 673.947 429.674 664.249 425.659 654.892C412.066 623.212 386.714 600.667 361.691 577.996C361.356 577.394 361.033 577.246 360.471 576.874C336.747 555.072 313.45 534.096 286.215 516.55ZM492.804 693.064C507.549 691.794 519.807 686.081 532.649 679.188L533.04 680.143C512.81 690.814 493.295 698.434 470.401 691.436C468.026 690.71 465.692 689.919 463.395 688.97C459.115 691.215 454.863 693.591 450.519 695.704C458.49 703.218 466.377 711.593 472.539 720.667C482.228 734.935 491.274 757.309 491.893 774.696C492.094 780.371 491.243 785.385 489.352 790.721C524.8 774.058 560.789 758.758 594.976 739.478C628.892 720.35 660.951 697.604 695.754 680.178C730.458 662.803 769.023 654.285 803.179 635.777C811.608 631.209 822.225 625.606 825.593 616.006C830.211 602.843 823.572 579.017 817.469 566.978C810.511 553.251 797.576 541.976 785.424 532.799C782.022 534.268 778.719 535.841 775.426 537.54C793 555.717 814.269 585.337 813.664 611.791C813.544 617.038 812.029 621.484 808.089 625.042C793.757 637.986 754.279 645.705 734.835 651.493C726.128 654.084 717.679 657.068 709.407 660.835C685.608 671.675 663.847 685.657 642.11 700.083C631.926 706.842 621.941 713.913 611.389 720.098C586.783 734.519 563.052 742.888 537.188 753.845C532 756.042 526.857 758.256 521.863 760.876C518.198 762.799 514.309 765.761 510.408 767.007C513.882 764.637 517.281 761.953 521.158 760.287C528.783 757.012 536.196 753.243 543.858 750.039C566.603 740.532 588.013 732.496 609.515 720.022C646.37 698.643 679.541 670.02 720.025 655.163C738.27 648.468 804.72 635.443 811.137 619.049C815.714 607.357 809.062 590.474 804.119 579.864C796.614 563.753 786.555 550.837 774.382 538.067C765.335 542.338 756.348 546.744 746.964 550.241C734.544 554.87 721.728 558.461 709.122 562.549C693.209 567.711 677.832 573.428 662.596 580.364C614.679 602.179 569.487 629.391 523.898 655.588C504.254 666.876 484.188 677.261 464.415 688.295C470.808 690.583 477.027 692.469 483.822 693.049C486.892 694.027 489.73 693.959 492.804 693.064ZM220.067 345.617C210.928 348.84 202.861 351.807 198.371 361.314C197.101 364.002 194.769 370.743 195.982 373.638C196.043 373.783 196.141 373.91 196.22 374.045C199.265 372.448 201.957 370.915 204.538 368.601C206.775 361.329 208.746 354.874 214.933 349.831C215.915 349.03 220.155 346.541 220.118 345.658L220.067 345.617ZM203.427 371.035C193.074 377.849 182.283 382.216 170.254 385.156C167.715 385.776 162.813 385.975 161.444 388.486C161.971 390.232 163.283 391.108 164.807 392.088C171.511 394.842 178.664 394.476 185.308 391.737C190.613 389.551 198.858 383.555 201.101 378.137C202.026 375.903 201.369 374.563 203.023 372.465C203.141 372.316 203.566 371.664 203.709 371.447L203.427 371.035ZM200.394 381.487C193.54 389.181 186.102 394.798 175.448 395.517C169.66 395.908 165.24 394.224 160.411 391.235C160.766 394.206 160.277 397.927 161.226 400.702C166.996 404.615 172.651 405.681 179.53 404.396C186.731 403.051 194.409 399.635 199.913 394.775C200.058 392.44 201.238 382.905 200.394 381.487ZM424.432 590.415C417.487 594.661 411.429 595.346 403.532 594.751C424.088 616.735 448.187 651.332 447 682.527C446.808 687.582 445.605 691.731 443.738 696.392L443.466 697.151C446.356 697.316 459.018 689.929 462.124 687.93C468.582 673.189 461.873 653.057 456.286 638.853C450.187 623.75 441.877 609.637 431.628 596.977C430.068 595.065 427.429 591.284 425.011 590.495C424.825 590.435 424.625 590.442 424.432 590.415ZM448.647 696.321C443.278 699.495 437.832 702.768 432.025 705.077C451.65 722.084 472.934 744.409 474.992 771.655C475.557 779.139 474.629 788.912 469.739 794.943C468.954 795.911 466.391 797.83 466.429 798.992C473.312 798.85 480.696 798.205 485.816 792.977C490.407 788.291 491.002 781.328 490.807 775.096C489.952 747.73 471.789 717.092 452.174 698.755C451.093 697.745 450.127 696.686 448.647 696.321Z" fill="#131416"/>
<path d="M567.518 246.545C573.375 245.361 579.278 244.297 585.255 243.994C627.016 241.877 675.574 274.81 706.259 300.594C713.377 306.574 719.851 313.274 726.754 319.495L726.58 319.789C723.657 322.943 719.945 326.544 717.629 330.125C670.381 285.153 631.496 261.895 567.518 246.545Z" fill="#B9FBC0"/>
<path d="M235.359 251.822L235.607 250.594C239.596 251.895 250.506 249.402 254.998 248.801C269.385 246.981 283.883 246.185 298.383 246.419C305.859 246.585 313.288 247.298 320.746 247.779C329.299 248.331 337.705 248.713 346.232 249.714C383.206 254.056 419.667 261.15 456.212 268.062C462.747 269.298 474.046 269.756 479.663 271.894C480.854 272.348 480.992 272.699 481.568 273.745C447.86 283.837 413.024 289.283 378.84 297.473C341.84 306.337 306.186 318.526 269.917 329.796C257.153 333.762 244.325 337.774 231.51 341.555C226.854 342.929 221.931 343.58 217.367 345.211C217.608 338.878 219.234 332.193 220.203 325.902C224.007 301.206 228.841 275.956 235.359 251.822Z" fill="#B9FBC0"/>
<path d="M716.142 330.492C715.028 331.312 714.505 332.041 713.73 333.193C708.681 340.701 695.316 353.402 688.607 359.927C670.45 377.587 651.964 394.553 633.045 411.387C615.088 427.671 596.962 443.767 578.669 459.674C570.893 466.305 562.801 472.533 554.886 478.991C548.84 483.924 543.103 489.207 536.909 493.962C528.316 500.559 519.304 506.631 510.348 512.723C495.827 522.599 481.59 531.91 465.801 539.673C463.011 541.045 459.721 543.115 456.727 543.889C456.284 544.003 455.63 544.054 455.212 544.107C454.951 544.141 454.692 544.18 454.432 544.217C450.694 520.722 440.618 499.613 427.232 480.131C394.079 431.88 342.195 388.906 290.319 362.184C272.51 353.011 255.173 345.317 235.337 341.654C277.847 329.076 319.612 314.011 362.554 302.908C400.24 293.165 438.896 287.266 476.327 276.69C487.658 273.414 498.902 269.846 510.048 265.988C520.768 262.278 556.797 248.254 565.458 248.107C574.658 247.951 585.79 252.46 594.463 255.291C644.896 271.751 678.145 294.036 716.142 330.492Z" fill="#B9FBC0"/>
<path d="M159.134 426.43C151.038 410.49 144.11 387.558 141.752 369.827C138.105 342.403 142.602 317.209 159.716 295.073C178.254 271.261 205.435 255.719 235.359 251.822C228.841 275.956 224.007 301.206 220.203 325.902C219.234 332.193 217.608 338.878 217.367 345.211C208.57 348.151 201.916 351.747 197.553 360.346C195.091 365.199 194.443 370.007 193.92 375.363C183.343 380.273 174.18 381.785 163.555 385.283C162.445 385.649 160.982 386.002 160.326 387.032C159.277 388.681 159.185 397.962 158.887 400.525C163.178 404.869 168.666 406.806 174.729 406.862C180.22 406.912 185.375 405.472 190.423 403.427C192.514 427.516 198.503 457.964 217.942 474.278C221.335 477.126 224.845 479.083 228.877 480.885C220.049 485.953 214.394 490.642 208.566 498.975C199.722 492.604 178.906 463.023 173.386 453.265C168.521 444.667 164.77 435.162 159.428 426.876L159.134 426.43Z" fill="#FBF8CC"/>
<path d="M726.754 319.495C727.708 320.096 728.632 320.59 729.092 321.695C729.136 321.801 729.135 321.92 729.156 322.032L726.58 319.789L726.754 319.495Z" fill="#415359"/>
<path d="M717.629 330.125C719.945 326.544 723.657 322.943 726.58 319.789L729.156 322.032C735.981 329.252 742.854 336.427 749.773 343.556L750.683 344.538C767.462 363.226 797.208 397.16 795.733 423.462C795.371 429.921 793.239 436.556 788.195 440.864C785.424 443.23 782.327 444.621 778.985 445.942C765.862 451.13 752.402 455.572 739.21 460.615L568.977 525.396C541.946 535.815 515.086 546.703 487.978 556.916C476.328 561.305 464.419 566.758 452.295 569.567C454.991 560.731 455.044 553.358 454.432 544.217C454.692 544.18 454.951 544.141 455.212 544.107C455.63 544.054 456.284 544.003 456.727 543.889C459.721 543.115 463.011 541.045 465.801 539.673C481.59 531.91 495.827 522.599 510.348 512.723C519.304 506.631 528.316 500.559 536.909 493.962C543.103 489.207 548.84 483.924 554.886 478.991C562.801 472.533 570.893 466.305 578.669 459.674C596.962 443.767 615.088 427.671 633.045 411.387C651.964 394.553 670.45 377.587 688.607 359.927C695.316 353.402 708.681 340.701 713.73 333.193C714.505 332.041 715.028 331.312 716.142 330.492C720.121 334.265 724.009 338.133 727.802 342.093C728.345 342.686 728.997 343.619 729.654 344.049C749.958 366.399 765.48 389.502 774.438 418.643C775.347 421.747 776.178 426.121 778.029 428.779C777.12 425.181 776.579 421.573 775.245 418.095C764.23 381.844 744.155 356.49 717.629 330.125Z" fill="#8EECF5"/>
<path d="M727.802 342.093C728.781 342.777 729.11 342.947 729.654 344.049C728.997 343.619 728.345 342.686 727.802 342.093Z" fill="#4B686A"/>
<path d="M394.462 560.736C387.62 558.696 381.228 554.58 375.352 550.62C361.046 540.98 348.332 529.3 334.532 518.965C311.371 501.621 287.471 485.347 264.611 467.58C243.686 451.316 227.177 436.646 223.797 408.619C223.294 404.442 223.187 399.315 226.079 395.913C227.866 393.813 230.482 393.054 233.159 392.956C261.091 391.936 327.031 445.119 347.406 464.273C348.647 465.558 349.849 466.918 351.223 468.059L351.786 468.616C352.269 469.111 352.788 469.782 353.342 470.182L355.277 472.006L356.185 473.017C372.441 490.317 406.104 530.488 405.219 554.775C405.06 559.151 403.524 563.218 400.149 566.116C397.026 568.799 393.036 569.853 388.974 569.506C384.526 569.127 380.262 566.515 376.543 564.189C358.847 553.118 342.635 539.457 325.681 527.296C302.603 510.743 278.557 495.241 256.319 477.586C249.649 472.291 242.566 466.321 237.182 459.721C222.703 441.972 207.4 408.825 210.09 385.382C210.933 378.024 213.804 371.182 219.704 366.443C225.015 362.177 231.914 361.217 238.506 362.093C271.034 366.414 331.825 412.012 356 434.55C370.79 448.554 384.427 463.728 396.777 479.925C414.642 503.684 436.455 541.211 432.058 571.81C431.104 578.447 428.26 585.936 422.672 589.965C417.057 594.014 409.376 594.612 402.725 593.393C391.678 591.369 383.485 585.594 375.819 577.608C374.293 576.018 372.461 574.362 371.204 572.559L369.89 571.243C364.362 565.029 339.087 538.619 332.524 536.817C335.133 539.862 338.863 542.529 341.893 545.2C347.638 550.218 353.289 555.344 358.843 560.574L359.691 561.514C362.749 564.883 365.966 568.189 368.843 571.711L370.455 573.44C372.603 575.264 374.541 577.588 376.542 579.599C384.767 587.865 390.959 591.734 402.282 594.566C405.811 599.186 410.04 603.311 413.693 607.86C422.589 618.939 430.713 631.635 436.669 644.536C442.653 657.495 449.621 678.957 444.082 693.084C441.713 699.127 437.108 701.566 431.47 703.921C435.005 692.534 434.897 681.047 432.026 669.518C427.852 652.754 419.008 637.354 408.537 623.747C394.971 606.115 377.882 591.276 361.481 576.375C351.849 567.623 342.506 558.473 332.678 549.951C321.237 540.032 308.918 531.1 296.626 522.279C288.794 516.659 281.068 510.86 272.784 505.913L274.143 504.172C273.697 498.226 237.429 485.897 232.493 481.478C232.641 481.492 232.79 481.509 232.938 481.52C236.415 481.783 241.25 479.757 243.939 477.539C244.339 476.673 244.576 476.656 244.239 475.686C243.045 472.252 231.138 459.136 228.073 454.72C213.05 433.077 203.192 404.467 204.99 377.955C205.387 372.105 206.1 366.363 208.408 360.92C211.438 353.776 217.588 348.111 224.776 345.257C239.185 339.536 257.101 348.059 270.386 353.931C290.743 363.103 310.312 373.933 328.894 386.313C373.19 416.4 426.267 466.865 445.929 517.723C449.673 527.409 452.089 536.828 453.492 547.127C446.934 549.438 439.326 552.553 433.239 555.897C425.879 499.97 370.295 442.01 327.265 409.006C306.769 393.286 255.006 357.239 229.609 360.768C223.582 361.605 217.762 365.266 214.179 370.157C207.384 379.433 207.885 391.632 209.755 402.397C211.363 411.655 214.415 420.811 218.037 429.476C231.567 461.85 252.779 477.825 280.466 497.155C299.2 510.234 318.069 523.071 336.491 536.599C347.056 544.357 357.293 552.418 368.039 559.955C372.627 563.174 377.49 566.916 382.609 569.211C385.936 570.703 390.001 571.247 393.592 570.572C397.874 569.788 401.642 567.271 404.006 563.616C407.358 558.517 407.025 552.174 405.655 546.479C402.792 534.575 395.835 522.414 389.171 512.26C368.139 480.214 340.805 454.817 310.199 432.123C299.312 424.05 288.29 416.169 276.681 409.161C266.049 402.743 242.282 388.939 230.022 392.174C227.397 392.856 225.173 394.597 223.88 396.981C220.384 403.315 222.964 414.884 225.061 421.388C228.346 431.573 233.329 440.526 240.716 448.304C250.406 458.508 261.898 467.058 273.06 475.555C292.714 490.517 313.001 504.525 332.802 519.267C350.486 532.432 366.708 548.737 386.496 558.84C389.069 560.154 391.681 561.075 394.457 561.856C395.388 561.994 396.104 561.923 397.031 561.778C396.481 561.017 395.361 560.974 394.462 560.736Z" fill="#B9FBC0"/>
<path d="M749.773 343.556C750.597 344.282 750.348 343.912 750.683 344.538L749.773 343.556Z" fill="#415359"/>
<path d="M196.22 374.045C196.141 373.91 196.043 373.783 195.982 373.638C194.769 370.743 197.101 364.002 198.371 361.314C202.861 351.807 210.928 348.84 220.067 345.617L220.118 345.658C220.155 346.541 215.915 349.03 214.933 349.831C208.746 354.874 206.775 361.329 204.538 368.601C201.957 370.915 199.265 372.448 196.22 374.045Z" fill="#8EECF5"/>
<path d="M164.807 392.088C163.283 391.108 161.971 390.232 161.444 388.486C162.813 385.975 167.715 385.776 170.254 385.156C182.283 382.216 193.074 377.849 203.427 371.035L203.709 371.447C203.566 371.664 203.141 372.316 203.023 372.465C201.369 374.563 202.026 375.903 201.101 378.137C198.858 383.555 190.613 389.551 185.308 391.737C178.664 394.476 171.511 394.842 164.807 392.088Z" fill="#8EECF5"/>
<path d="M202.683 375.592L203.301 373.535L203.771 373.343C204.011 374.876 203.95 376.069 203.728 377.601L202.683 375.592Z" fill="#A3C4F3"/>
<path d="M202.683 375.592L203.728 377.601C201.226 405.611 212.387 434.716 228.28 457.284C232.821 463.731 238.217 469.518 243.03 475.759C240.431 477.909 237.75 479.825 234.289 480.163C228.777 480.7 222.705 476.728 218.645 473.272C199.33 456.829 193.746 426.504 191.734 402.484C194.541 400.754 197.241 398.89 199.948 397.009C200.829 415.367 205.465 435.471 214.912 451.426C219.791 459.668 226.587 467.03 236.144 469.462C230.892 465.693 225.671 463.416 221.407 458.317C208.453 442.822 202.108 418.376 201.491 398.538C201.253 390.856 202.046 383.236 202.683 375.592Z" fill="#98F5E1"/>
<path d="M160.411 391.235C165.24 394.224 169.66 395.908 175.448 395.517C186.102 394.798 193.54 389.181 200.394 381.487C201.238 382.905 200.058 392.44 199.913 394.775C194.409 399.635 186.731 403.051 179.53 404.396C172.651 405.681 166.996 404.615 161.226 400.702C160.277 397.927 160.766 394.206 160.411 391.235Z" fill="#8EECF5"/>
<path d="M775.245 418.095C776.579 421.573 777.12 425.181 778.029 428.779C776.178 426.121 775.347 421.747 774.438 418.643L775.245 418.095Z" fill="#4B686A"/>
<path d="M159.134 426.43L159.428 426.876C164.77 435.162 168.521 444.667 173.386 453.265C178.906 463.023 199.722 492.604 208.566 498.975C199.565 514.119 199.79 531.218 204.085 547.927C207.81 562.416 214.778 577.063 223.283 589.397C238.602 611.612 259.164 630.227 278.911 648.408C301.014 668.757 323.61 688.442 346.048 708.408C337.544 714.643 323.521 719.337 313.627 723.276C284.77 734.765 255.54 744.834 226.18 754.926C209.932 760.511 193.579 767.142 176.914 771.342C165.748 766.255 154.153 761.73 143.287 756.043C119.065 743.365 96.9552 723.066 85.2586 698.06C56.3324 636.219 93.2837 565.31 120.866 509.807C129.07 493.299 136.787 476.671 144.482 459.932C149.569 448.865 154.964 437.886 159.134 426.43Z" fill="#FDE4CF"/>
<path d="M800.243 487.62C797.342 479.019 791.374 459.816 783.23 455.441C778.441 452.868 768.996 456.896 764.187 458.558C752.242 462.687 740.499 467.518 728.738 472.142C694.72 485.518 661.208 500.079 627.554 514.339C595.906 527.536 564.006 540.121 531.873 552.087C502.531 563.272 472.793 574.544 442.351 582.356C445.972 578.721 448.996 575.142 451.625 570.728C459.412 570.041 471.198 564.408 478.834 561.514C495.999 555.086 513.095 548.478 530.12 541.69L627.291 504.143L743.771 460.166C755.915 455.57 768.42 451.613 780.437 446.736C784.073 445.286 787.441 443.236 790.4 440.672C801.377 456.016 816.075 488.765 812.728 507.399C811.521 514.12 807.909 518.836 802.353 522.629C795.381 527.389 786.945 530.67 779.342 534.318C768.936 539.31 758.596 544.675 747.802 548.788C729.564 555.739 710.487 560.671 692.032 567.08C679.5 571.432 667.382 576.892 655.331 582.414C612.112 602.215 571.176 627.112 530.019 650.773C508.159 663.34 485.726 674.844 463.841 687.308C470.04 665.849 459.144 639.197 448.812 620.47C442.866 609.475 435.536 599.287 426.999 590.157C432.927 588.404 437.959 585.158 443.79 583.348C504.671 564.225 564.596 542.179 623.354 517.287C668.373 498.628 712.887 478.455 758.666 461.686C764.026 459.723 777.647 453.638 782.631 456.383C789.785 460.322 797.359 480.211 799.436 488.15C800.992 493.139 802.604 498.11 804.273 503.063C804.452 498.727 801.961 491.638 800.243 487.62Z" fill="#8EECF5"/>
<path d="M347.406 464.273C349.042 465.31 350.277 466.336 351.223 468.059C349.849 466.918 348.647 465.558 347.406 464.273Z" fill="#4B686A"/>
<path d="M351.786 468.616C352.461 469.109 353.205 469.328 353.342 470.182C352.788 469.782 352.269 469.111 351.786 468.616Z" fill="#4B686A"/>
<path d="M355.277 472.006C355.601 472.328 355.961 472.616 356.185 473.017L355.277 472.006Z" fill="#4B686A"/>
<path d="M301.041 658.601C290.569 650.732 279.594 643.552 269.209 635.554C238.452 611.866 208.059 576.151 203.053 536.446C201.207 521.803 203.167 507.385 212.495 495.534C217.079 489.711 224.805 482.375 232.493 481.478C237.429 485.897 273.697 498.226 274.143 504.172L272.784 505.913C260.828 499.675 248.001 493.866 234.377 498.204C227.042 500.539 220.812 505.393 217.416 512.402C211.577 524.448 215.478 541.394 219.903 553.276C226.073 569.845 238.032 585.809 250.775 598.052L251.681 599.021C277.171 625.002 306.507 646.672 334.864 669.339C340.327 673.706 346.022 677.665 351.691 681.75C353.674 683.179 356.457 684.718 358.124 686.459C357.584 687.089 357.162 687.236 357.236 688.121C357.717 693.852 361.546 699.099 358.619 705.086C350.877 698.989 343.552 692.2 336.022 685.832C324.925 676.45 313.189 667.167 301.297 658.799L301.041 658.601Z" fill="#FBF8CC"/>
<path d="M800.243 487.62C801.961 491.638 804.452 498.727 804.273 503.063C802.604 498.11 800.992 493.139 799.436 488.15L800.243 487.62Z" fill="#4B686A"/>
<path d="M814.365 496.399C842.258 513.032 865.404 539.898 874.18 571.555C874.224 571.715 874.261 571.877 874.301 572.037L874.102 572.496C859.047 586.974 847.198 595.5 828.102 604.277C827.947 602.361 827.772 600.446 827.577 598.534C824.135 565.295 810.866 552.32 786.256 532.291C793.477 528.859 802.031 525.573 807.675 519.753C814.163 513.062 814.635 505.132 814.365 496.399Z" fill="#CFBAF0"/>
<path d="M366.143 690.146C360.87 687.174 355.856 683.22 350.95 679.682C338.039 670.374 325.431 660.437 312.943 650.558C283.636 627.372 243.202 596.391 225.541 563.027C220.497 553.596 217.31 543.284 216.151 532.651C215.171 523.856 215.887 514.799 221.803 507.677C226.587 501.92 233.898 498.727 241.26 498.066C256.5 496.699 275.027 507.056 286.215 516.55C287.46 521.524 297.132 533.328 300.769 537.654C303.478 540.876 307.984 544.959 309.312 548.997C309.763 550.368 309.493 551.749 309.137 553.109C293.834 541.67 259.499 516.218 240.404 518.767C236.634 519.27 232.711 520.799 230.356 523.919C227.152 528.165 227.437 533.405 228.309 538.353C234.347 572.606 269.606 601.473 296.254 621.173L304.435 627.331L309.078 630.773C308.67 633.064 309.278 633.963 310.579 635.845C317.469 645.809 336.988 662.477 346.608 670.261C351.836 674.491 362.5 681.577 365.835 686.86C366.632 688.123 366.35 688.742 366.143 690.146Z" fill="#FBF8CC"/>
<path d="M286.215 516.55C313.45 534.096 336.747 555.072 360.471 576.874L361.691 577.996C386.714 600.667 412.066 623.212 425.659 654.892C429.674 664.249 432.612 673.947 433.064 684.171C433.378 691.272 433.066 700.597 428.014 706.122C424.118 710.383 418.434 711.72 412.863 711.86C395.978 712.283 378.999 699.905 366.143 690.146C366.35 688.742 366.632 688.123 365.835 686.86C362.5 681.577 351.836 674.491 346.608 670.261C336.988 662.477 317.469 645.809 310.579 635.845C309.278 633.963 308.67 633.064 309.078 630.773C324.712 641.928 340.434 652.959 356.243 663.864C366.165 670.607 376.344 677.985 387.222 683.096C390.397 684.588 394.006 685.947 397.564 685.735C399.54 685.617 401.401 684.947 402.683 683.387C405.192 680.333 404.992 675.37 404.466 671.699C401.643 652.024 387.364 631.69 374.866 616.551C371.78 612.814 368.25 608.344 364.36 605.478C362.705 602.401 359.347 599.489 356.92 596.934C341.976 581.203 325.648 567.143 309.137 553.109C309.493 551.749 309.763 550.368 309.312 548.997C307.984 544.959 303.478 540.876 300.769 537.654C297.132 533.328 287.46 521.524 286.215 516.55Z" fill="#8EECF5"/>
<path d="M296.254 621.173C269.606 601.473 234.347 572.606 228.309 538.353C227.437 533.405 227.152 528.165 230.356 523.919C232.711 520.799 236.634 519.27 240.404 518.767C259.499 516.218 293.834 541.67 309.137 553.109C325.648 567.143 341.976 581.203 356.92 596.934C359.347 599.489 362.705 602.401 364.36 605.478L363.752 606.146C350.691 591.083 329.837 570.347 313.77 559.085C299.324 545.936 261.726 519.2 242.258 519.867C238.232 520.005 234.279 521.229 231.516 524.293C228.952 527.135 228.844 530.775 229.162 534.393C231.705 563.313 257.33 588.409 278.608 606.032C284.332 610.772 290.215 615.498 296.322 619.734L296.254 621.173Z" fill="#131416"/>
<path d="M296.322 619.734C290.215 615.498 284.332 610.772 278.608 606.032C257.33 588.409 231.705 563.313 229.162 534.393C228.844 530.775 228.952 527.135 231.516 524.293C234.279 521.229 238.232 520.005 242.258 519.867C261.726 519.2 299.324 545.936 313.77 559.085C315.114 563.325 317.145 567.414 318.158 571.739C322.891 591.944 316.039 613.561 315.85 634.02C311.838 631.428 308.002 628.472 304.121 625.684C301.74 623.515 298.913 621.658 296.322 619.734Z" fill="#FBF8CC"/>
<path d="M532.649 679.188C519.807 686.081 507.549 691.794 492.804 693.064L483.822 693.049C477.027 692.469 470.808 690.583 464.415 688.295C484.188 677.261 504.254 666.876 523.898 655.588C569.487 629.391 614.679 602.179 662.596 580.364C677.832 573.428 693.209 567.711 709.122 562.549C721.728 558.461 734.544 554.87 746.964 550.241C756.348 546.744 765.335 542.338 774.382 538.067C786.555 550.837 796.614 563.753 804.119 579.864C809.062 590.474 815.714 607.357 811.137 619.049C804.72 635.443 738.27 648.468 720.025 655.163C679.541 670.02 646.37 698.643 609.515 720.022C588.013 732.496 566.603 740.532 543.858 750.039C536.196 753.243 528.783 757.012 521.158 760.287C517.281 761.953 513.882 764.637 510.408 767.007C514.309 765.761 518.198 762.799 521.863 760.876C526.857 758.256 532 756.042 537.188 753.845C563.052 742.888 586.783 734.519 611.389 720.098C621.941 713.913 631.926 706.842 642.11 700.083C663.847 685.657 685.608 671.675 709.407 660.835C717.679 657.068 726.128 654.084 734.835 651.493C754.279 645.705 793.757 637.986 808.089 625.042C812.029 621.484 813.544 617.038 813.664 611.791C814.269 585.337 793 555.717 775.426 537.54C778.719 535.841 782.022 534.268 785.424 532.799C797.576 541.976 810.511 553.251 817.469 566.978C823.572 579.017 830.211 602.843 825.593 616.006C822.225 625.606 811.608 631.209 803.179 635.777C769.023 654.285 730.458 662.803 695.754 680.178C660.951 697.604 628.892 720.35 594.976 739.478C560.789 758.758 524.8 774.058 489.352 790.721C491.243 785.385 492.094 780.371 491.893 774.696C491.274 757.309 482.228 734.935 472.539 720.667C466.377 711.593 458.49 703.218 450.519 695.704C454.863 693.591 459.115 691.215 463.395 688.97C465.692 689.919 468.026 690.71 470.401 691.436C493.295 698.434 512.81 690.814 533.04 680.143C540.634 675.248 548.452 670.659 556.131 665.895C576.593 653.201 597.425 640.417 619.881 631.543C637.286 624.664 655.346 619.365 673.472 614.768C706.676 606.347 765.801 597.37 788.133 569.742C788.936 568.748 790.242 567.535 790.102 566.265L789.342 566.327C769.828 590.801 736.415 598.518 707.359 605.398L674.792 613.289C656.432 617.677 638.385 623.284 620.77 630.072C589.607 642.397 560.908 661.371 532.649 679.188Z" fill="#EDE4FA"/>
<path d="M358.843 560.574C353.289 555.344 347.638 550.218 341.893 545.2C338.863 542.529 335.133 539.862 332.524 536.817C339.087 538.619 364.362 565.029 369.89 571.243L368.843 571.711C365.966 568.189 362.749 564.883 359.691 561.514C359.5 560.781 359.702 561.152 358.843 560.574Z" fill="#131416"/>
<path d="M433.239 555.897C439.326 552.553 446.934 549.438 453.492 547.127C454.131 559.072 453.314 568.755 445.012 578.096C439.667 584.112 433.639 587.053 426.023 589.267C432.816 578.077 434.596 568.932 433.239 555.897Z" fill="#8EECF5"/>
<path d="M313.77 559.085C329.837 570.347 350.691 591.083 363.752 606.146L366.374 608.813C381.323 625.412 402.657 652.421 403.657 675.135C403.689 675.658 403.666 676.385 403.793 676.887C403.501 678.528 403.141 680.113 402.219 681.532C401.184 683.126 399.633 684.072 397.764 684.352C394.444 684.85 391.099 683.6 388.118 682.263C378.654 678.02 369.897 671.606 361.322 665.811C345.995 655.453 331.022 644.601 315.85 634.02C316.039 613.561 322.891 591.944 318.158 571.739C317.145 567.414 315.114 563.325 313.77 559.085Z" fill="#8EECF5"/>
<path d="M358.843 560.574C359.702 561.152 359.5 560.781 359.691 561.514L358.843 560.574Z" fill="#415359"/>
<path d="M394.462 560.736C395.361 560.974 396.481 561.017 397.031 561.778C396.104 561.923 395.388 561.994 394.457 561.856L394.462 560.736Z" fill="#4B686A"/>
<path d="M532.649 679.188C560.908 661.371 589.607 642.397 620.77 630.072C638.385 623.284 656.432 617.677 674.792 613.289L707.359 605.398C736.415 598.518 769.828 590.801 789.342 566.327L790.102 566.265C790.242 567.535 788.936 568.748 788.133 569.742C765.801 597.37 706.676 606.347 673.472 614.768C655.346 619.365 637.286 624.664 619.881 631.543C597.425 640.417 576.593 653.201 556.131 665.895C548.452 670.659 540.634 675.248 533.04 680.143L532.649 679.188Z" fill="#312931"/>
<path d="M369.89 571.243L371.204 572.559L370.455 573.44L368.843 571.711L369.89 571.243Z" fill="#4B686A"/>
<path d="M828.102 604.277C847.198 595.5 859.047 586.974 874.102 572.496C877.534 585.883 880.025 598.764 880.386 612.614C880.594 620.607 879.799 628.612 879.118 636.57C875.073 683.839 860.558 738.473 836.221 779.307C813.487 817.452 779.085 848.54 735.302 859.562C691.706 870.537 651.235 858.524 607.725 856.034C594.461 855.274 580.509 855.066 567.452 857.902C551.498 861.367 535.638 868.184 521.477 876.243C491.354 893.385 463.474 917.63 427.668 921.191C399.338 924.008 372.346 915.145 348.289 900.634C309.795 877.415 275.504 841.38 240.398 813.001C226.507 801.772 211.653 790.945 196.309 781.788C190.025 778.038 183.064 775.169 176.914 771.342C193.579 767.142 209.932 760.511 226.18 754.926C255.54 744.834 284.77 734.765 313.627 723.276C323.521 719.337 337.544 714.643 346.048 708.408C357.131 719.308 369.202 729.476 380.656 740.019C401.03 758.772 439.705 799.838 467.522 800.044C481.209 800.146 485.588 793.314 497.048 788.231C535.133 771.339 572.74 753.677 608.826 732.791C638.041 715.883 665.823 696.29 696.071 681.203C705.248 676.63 714.658 672.541 724.263 668.952C748.831 659.586 804.271 642.155 821.428 624.506C827.242 618.525 828.225 612.246 828.102 604.277Z" fill="#FFCFD2"/>
<path d="M360.471 576.874C361.033 577.246 361.356 577.394 361.691 577.996L360.471 576.874Z" fill="#4B686A"/>
<path d="M403.532 594.751C411.429 595.346 417.487 594.661 424.432 590.415C424.625 590.442 424.825 590.435 425.011 590.495C427.429 591.284 430.068 595.065 431.628 596.977C441.877 609.637 450.187 623.75 456.286 638.853C461.873 653.057 468.582 673.189 462.124 687.93C459.018 689.929 446.356 697.316 443.466 697.151L443.738 696.392C445.605 691.731 446.808 687.582 447 682.527C448.187 651.332 424.088 616.735 403.532 594.751Z" fill="#8EECF5"/>
<path d="M250.775 598.052C251.103 598.36 251.462 598.625 251.681 599.021L250.775 598.052Z" fill="#635B45"/>
<path d="M363.752 606.146L364.36 605.478C364.949 606.712 365.566 607.708 366.374 608.813L363.752 606.146Z" fill="#415359"/>
<path d="M364.36 605.478C368.25 608.344 371.78 612.814 374.866 616.551C387.364 631.69 401.643 652.024 404.466 671.699C404.992 675.37 405.192 680.333 402.683 683.387C401.401 684.947 399.54 685.617 397.564 685.735C394.006 685.947 390.397 684.588 387.222 683.096C376.344 677.985 366.165 670.607 356.243 663.864C340.434 652.959 324.712 641.928 309.078 630.773L304.435 627.331L304.121 625.684C308.002 628.472 311.838 631.428 315.85 634.02C331.022 644.601 345.995 655.453 361.322 665.811C369.897 671.606 378.654 678.02 388.118 682.263C391.099 683.6 394.444 684.85 397.764 684.352C399.633 684.072 401.184 683.126 402.219 681.532C403.141 680.113 403.501 678.528 403.793 676.887L404.134 675.999L403.657 675.135C402.657 652.421 381.323 625.412 366.374 608.813C365.566 607.708 364.949 606.712 364.36 605.478Z" fill="#131416"/>
<path d="M296.254 621.173L296.322 619.734C298.913 621.658 301.74 623.515 304.121 625.684L304.435 627.331L296.254 621.173Z" fill="#28271E"/>
<path d="M273.847 642.049C271.195 639.577 268.225 637.133 266.088 634.201C277.087 642.886 288.513 650.982 299.898 659.148L301.233 660.215C319.26 672.681 335.464 687.551 352.345 701.458C350.557 703.601 349.168 705.949 347.484 708.154C337.163 698.391 326.036 689.303 315.378 679.898C301.759 667.824 288.298 655.572 274.999 643.147L273.847 642.049Z" fill="#FDE4CF"/>
<path d="M273.847 642.049L274.999 643.147C274.486 642.882 274.22 642.481 273.847 642.049Z" fill="#635B45"/>
<path d="M301.041 658.601L301.297 658.799L301.233 660.215L299.898 659.148L301.041 658.601Z" fill="#635B45"/>
<path d="M403.657 675.135L404.134 675.999L403.793 676.887C403.666 676.385 403.689 675.658 403.657 675.135Z" fill="#415359"/>
<path d="M358.619 705.086C361.546 699.099 357.717 693.852 357.236 688.121C357.162 687.236 357.584 687.089 358.124 686.459C371.332 695.353 388.847 709.563 404.745 712.243C409.596 713.061 414.29 712.702 419.163 712.33C427.144 719.957 435.019 727.695 442.785 735.542L443.681 736.526C451.835 745.409 459.035 754.078 459.756 766.543C455.546 765.705 451.868 764.614 448.004 762.718C432.573 755.146 408.303 734.375 394.666 722.679C390.006 718.682 385.881 714.159 380.893 710.542C381.303 714.23 422.42 746.886 427.59 750.776C432.558 754.549 437.719 758.059 443.053 761.293C444.907 762.417 446.783 763.609 448.773 764.48C451.687 765.755 457.384 766.129 459.346 768.233C459.338 769.105 459.458 769.373 458.967 770.142C457.668 772.178 454.33 773.648 452.007 773.954C436.55 775.988 372.656 716.803 358.619 705.086Z" fill="#EDE4FA"/>
<path d="M483.822 693.049L492.804 693.064C489.73 693.959 486.892 694.027 483.822 693.049Z" fill="#655E6B"/>
<path d="M432.025 705.077C437.832 702.768 443.278 699.495 448.647 696.321C450.127 696.686 451.093 697.745 452.174 698.755C471.789 717.092 489.952 747.73 490.807 775.096C491.002 781.328 490.407 788.291 485.816 792.977C480.696 798.205 473.312 798.85 466.429 798.992C466.391 797.83 468.954 795.911 469.739 794.943C474.629 788.912 475.557 779.139 474.992 771.655C472.934 744.409 451.65 722.084 432.025 705.077Z" fill="#EDE4FA"/>
<path d="M347.484 708.154C349.168 705.949 350.557 703.601 352.345 701.458C360.226 707.926 368.038 714.477 375.78 721.11C389.881 733.374 436.134 776.742 453.475 774.789C455.552 774.555 457.554 773.723 458.882 772.058C461.078 769.303 460.999 765.309 460.466 762.017C457.366 742.85 433.17 725.532 420.414 711.878C424.541 710.441 427.459 708.475 430.712 705.62C436.873 710.387 442.315 716.008 447.79 721.531L448.696 722.5C451.413 725.446 454.068 728.421 456.529 731.587C467.296 745.439 475.977 764.024 473.64 781.979C472.718 789.065 469.738 794.33 464.092 798.636C434.557 793.274 404.352 760.344 382.647 740.239C371.008 729.457 359.028 719.033 347.484 708.154Z" fill="#EDE4FA"/>
<path d="M447.79 721.531C448.065 721.81 448.5 722.167 448.696 722.5L447.79 721.531Z" fill="#655E6B"/>
<path d="M442.785 735.542C443.109 735.855 443.463 736.128 443.681 736.526L442.785 735.542Z" fill="#655E6B"/>
<defs>
<linearGradient id="paint0_linear_407_2" x1="534.999" y1="75.9555" x2="597.727" y2="602.945" gradientUnits="userSpaceOnUse">
<stop stop-color="#A5FDA3"/>
<stop offset="1" stop-color="#ABD5FF"/>
</linearGradient>
</defs>
</svg>
